<?xml version="1.0" encoding="UTF-8" standalone="no"?>
<!DOCTYPE svg PUBLIC "-//W3C//DTD SVG 1.1//EN"
 "http://www.w3.org/Graphics/SVG/1.1/DTD/svg11.dtd">
<!-- Generated by graphviz version 2.38.0 (20140413.2041)
 -->
<!-- Title: shared_memory.h Pages: 1 -->
<svg width="1354pt" height="543pt"
 viewBox="0.00 0.00 1354.00 543.00" xmlns="http://www.w3.org/2000/svg" xmlns:xlink="http://www.w3.org/1999/xlink">
<g id="graph0" class="graph" transform="scale(1 1) rotate(0) translate(4 539)">
<title>shared_memory.h</title>
<polygon fill="white" stroke="none" points="-4,4 -4,-539 1350,-539 1350,4 -4,4"/>
<!-- Node0 -->
<g id="node1" class="node"><title>Node0</title>
<polygon fill="#bfbfbf" stroke="black" points="385.5,-515.5 385.5,-534.5 488.5,-534.5 488.5,-515.5 385.5,-515.5"/>
<text text-anchor="middle" x="437" y="-522.5" font-family="Helvetica,sans-Serif" font-size="10.00">shared_memory.h</text>
</g>
<!-- Node1 -->
<g id="node2" class="node"><title>Node1</title>
<g id="a_node2"><a xlink:href="visibility__begin_8h_source.html" target="_top" xlink:title="odp/visibility_begin.h">
<polygon fill="white" stroke="black" points="332.5,-0.5 332.5,-19.5 447.5,-19.5 447.5,-0.5 332.5,-0.5"/>
<text text-anchor="middle" x="390" y="-7.5" font-family="Helvetica,sans-Serif" font-size="10.00">odp/visibility_begin.h</text>
</a>
</g>
</g>
<!-- Node0&#45;&gt;Node1 -->
<g id="edge1" class="edge"><title>Node0&#45;&gt;Node1</title>
<path fill="none" stroke="midnightblue" d="M385.154,-521.837C269.398,-515.596 0,-492.626 0,-414 0,-414 0,-414 0,-132 0,-94.8125 5.00973,-77.9886 35,-56 79.3828,-23.459 232.368,-14.4061 322.375,-11.9163"/>
<polygon fill="midnightblue" stroke="midnightblue" points="322.584,-15.4122 332.491,-11.6567 322.404,-8.41447 322.584,-15.4122"/>
</g>
<!-- Node2 -->
<g id="node3" class="node"><title>Node2</title>
<g id="a_node3"><a xlink:href="api_2init_8h.html" target="_top" xlink:title="ODP initialization. ">
<polygon fill="white" stroke="black" points="398,-459.5 398,-478.5 476,-478.5 476,-459.5 398,-459.5"/>
<text text-anchor="middle" x="437" y="-466.5" font-family="Helvetica,sans-Serif" font-size="10.00">odp/api/init.h</text>
</a>
</g>
</g>
<!-- Node0&#45;&gt;Node2 -->
<g id="edge2" class="edge"><title>Node0&#45;&gt;Node2</title>
<path fill="none" stroke="midnightblue" d="M437,-515.083C437,-508.006 437,-497.861 437,-488.986"/>
<polygon fill="midnightblue" stroke="midnightblue" points="440.5,-488.751 437,-478.751 433.5,-488.751 440.5,-488.751"/>
</g>
<!-- Node12 -->
<g id="node13" class="node"><title>Node12</title>
<g id="a_node13"><a xlink:href="visibility__end_8h_source.html" target="_top" xlink:title="odp/visibility_end.h">
<polygon fill="white" stroke="black" points="1002.5,-0.5 1002.5,-19.5 1109.5,-19.5 1109.5,-0.5 1002.5,-0.5"/>
<text text-anchor="middle" x="1056" y="-7.5" font-family="Helvetica,sans-Serif" font-size="10.00">odp/visibility_end.h</text>
</a>
</g>
</g>
<!-- Node0&#45;&gt;Node12 -->
<g id="edge38" class="edge"><title>Node0&#45;&gt;Node12</title>
<path fill="none" stroke="midnightblue" d="M488.806,-523.219C681.529,-519.638 1346,-500.983 1346,-414 1346,-414 1346,-414 1346,-132 1346,-34.6244 1205.02,-14.2138 1119.65,-10.7806"/>
<polygon fill="midnightblue" stroke="midnightblue" points="1119.64,-7.27834 1109.53,-10.442 1119.41,-14.2744 1119.64,-7.27834"/>
</g>
<!-- Node3 -->
<g id="node4" class="node"><title>Node3</title>
<polygon fill="white" stroke="#bfbfbf" points="448.5,-403.5 448.5,-422.5 543.5,-422.5 543.5,-403.5 448.5,-403.5"/>
<text text-anchor="middle" x="496" y="-410.5" font-family="Helvetica,sans-Serif" font-size="10.00">odp/api/abi/init.h</text>
</g>
<!-- Node2&#45;&gt;Node3 -->
<g id="edge3" class="edge"><title>Node2&#45;&gt;Node3</title>
<path fill="none" stroke="midnightblue" d="M446.479,-459.324C455.201,-451.341 468.343,-439.313 478.898,-429.653"/>
<polygon fill="midnightblue" stroke="midnightblue" points="481.334,-432.167 486.348,-422.834 476.608,-427.004 481.334,-432.167"/>
</g>
<!-- Node4 -->
<g id="node5" class="node"><title>Node4</title>
<g id="a_node5"><a xlink:href="api_2spec_2init_8h.html" target="_top" xlink:title="odp/api/spec/init.h">
<polygon fill="white" stroke="black" points="326,-403.5 326,-422.5 430,-422.5 430,-403.5 326,-403.5"/>
<text text-anchor="middle" x="378" y="-410.5" font-family="Helvetica,sans-Serif" font-size="10.00">odp/api/spec/init.h</text>
</a>
</g>
</g>
<!-- Node2&#45;&gt;Node4 -->
<g id="edge4" class="edge"><title>Node2&#45;&gt;Node4</title>
<path fill="none" stroke="midnightblue" d="M427.521,-459.324C418.799,-451.341 405.657,-439.313 395.102,-429.653"/>
<polygon fill="midnightblue" stroke="midnightblue" points="397.392,-427.004 387.652,-422.834 392.666,-432.167 397.392,-427.004"/>
</g>
<!-- Node4&#45;&gt;Node1 -->
<g id="edge5" class="edge"><title>Node4&#45;&gt;Node1</title>
<path fill="none" stroke="midnightblue" d="M325.991,-406.123C230.747,-393.905 38,-361.791 38,-302 38,-302 38,-302 38,-132 38,-97.1827 31.0566,-79.2204 57,-56 94.9596,-22.0245 236.115,-13.4625 321.992,-11.4518"/>
<polygon fill="midnightblue" stroke="midnightblue" points="322.256,-14.9471 332.18,-11.2378 322.109,-7.94866 322.256,-14.9471"/>
</g>
<!-- Node5 -->
<g id="node6" class="node"><title>Node5</title>
<g id="a_node6"><a xlink:href="api_2std__types_8h.html" target="_top" xlink:title="Standard C language types and definitions for ODP. ">
<polygon fill="white" stroke="black" points="233,-235.5 233,-254.5 343,-254.5 343,-235.5 233,-235.5"/>
<text text-anchor="middle" x="288" y="-242.5" font-family="Helvetica,sans-Serif" font-size="10.00">odp/api/std_types.h</text>
</a>
</g>
</g>
<!-- Node4&#45;&gt;Node5 -->
<g id="edge6" class="edge"><title>Node4&#45;&gt;Node5</title>
<path fill="none" stroke="midnightblue" d="M361.831,-403.443C348.651,-395.651 330.552,-382.941 320,-367 298.885,-335.104 291.678,-289.858 289.236,-264.705"/>
<polygon fill="midnightblue" stroke="midnightblue" points="292.72,-264.363 288.416,-254.682 285.743,-264.934 292.72,-264.363"/>
</g>
<!-- Node4&#45;&gt;Node12 -->
<g id="edge37" class="edge"><title>Node4&#45;&gt;Node12</title>
<path fill="none" stroke="midnightblue" d="M430.209,-404.023C433.18,-403.655 436.126,-403.31 439,-403 671.532,-377.912 732.02,-396.764 964,-367 1118.33,-347.199 1308,-457.594 1308,-302 1308,-302 1308,-302 1308,-132 1308,-48.6826 1194.67,-22.6963 1120.01,-14.6168"/>
<polygon fill="midnightblue" stroke="midnightblue" points="1120.05,-11.1031 1109.75,-13.5915 1119.35,-18.0684 1120.05,-11.1031"/>
</g>
<!-- Node13 -->
<g id="node14" class="node"><title>Node13</title>
<g id="a_node14"><a xlink:href="hints_8h.html" target="_top" xlink:title="ODP compiler hints. ">
<polygon fill="white" stroke="black" points="673.5,-347.5 673.5,-366.5 760.5,-366.5 760.5,-347.5 673.5,-347.5"/>
<text text-anchor="middle" x="717" y="-354.5" font-family="Helvetica,sans-Serif" font-size="10.00">odp/api/hints.h</text>
</a>
</g>
</g>
<!-- Node4&#45;&gt;Node13 -->
<g id="edge17" class="edge"><title>Node4&#45;&gt;Node13</title>
<path fill="none" stroke="midnightblue" d="M430.226,-403.681C493.516,-393.599 599.593,-376.702 663.466,-366.528"/>
<polygon fill="midnightblue" stroke="midnightblue" points="664.017,-369.984 673.342,-364.954 662.916,-363.071 664.017,-369.984"/>
</g>
<!-- Node15 -->
<g id="node16" class="node"><title>Node15</title>
<g id="a_node16"><a xlink:href="feature_8h.html" target="_top" xlink:title="ODP features. ">
<polygon fill="white" stroke="black" points="329,-347.5 329,-366.5 427,-366.5 427,-347.5 329,-347.5"/>
<text text-anchor="middle" x="378" y="-354.5" font-family="Helvetica,sans-Serif" font-size="10.00">odp/api/feature.h</text>
</a>
</g>
</g>
<!-- Node4&#45;&gt;Node15 -->
<g id="edge21" class="edge"><title>Node4&#45;&gt;Node15</title>
<path fill="none" stroke="midnightblue" d="M378,-403.083C378,-396.006 378,-385.861 378,-376.986"/>
<polygon fill="midnightblue" stroke="midnightblue" points="381.5,-376.751 378,-366.751 374.5,-376.751 381.5,-376.751"/>
</g>
<!-- Node17 -->
<g id="node18" class="node"><title>Node17</title>
<g id="a_node18"><a xlink:href="api_2thread_8h.html" target="_top" xlink:title="ODP thread API. ">
<polygon fill="white" stroke="black" points="968.5,-123.5 968.5,-142.5 1063.5,-142.5 1063.5,-123.5 968.5,-123.5"/>
<text text-anchor="middle" x="1016" y="-130.5" font-family="Helvetica,sans-Serif" font-size="10.00">odp/api/thread.h</text>
</a>
</g>
</g>
<!-- Node4&#45;&gt;Node17 -->
<g id="edge26" class="edge"><title>Node4&#45;&gt;Node17</title>
<path fill="none" stroke="midnightblue" d="M430.225,-404.162C433.192,-403.758 436.133,-403.368 439,-403 563.991,-386.968 997,-428.015 997,-302 997,-302 997,-302 997,-244 997,-211.489 1005.16,-174.35 1010.78,-152.61"/>
<polygon fill="midnightblue" stroke="midnightblue" points="1014.22,-153.317 1013.44,-142.751 1007.46,-151.498 1014.22,-153.317"/>
</g>
<!-- Node21 -->
<g id="node22" class="node"><title>Node21</title>
<g id="a_node22"><a xlink:href="api_2cpumask_8h.html" target="_top" xlink:title="ODP CPU masks and enumeration. ">
<polygon fill="white" stroke="black" points="133.5,-123.5 133.5,-142.5 240.5,-142.5 240.5,-123.5 133.5,-123.5"/>
<text text-anchor="middle" x="187" y="-130.5" font-family="Helvetica,sans-Serif" font-size="10.00">odp/api/cpumask.h</text>
</a>
</g>
</g>
<!-- Node4&#45;&gt;Node21 -->
<g id="edge32" class="edge"><title>Node4&#45;&gt;Node21</title>
<path fill="none" stroke="midnightblue" d="M325.808,-404.731C269.257,-393.57 187,-366.287 187,-302 187,-302 187,-302 187,-244 187,-211.948 187,-174.643 187,-152.749"/>
<polygon fill="midnightblue" stroke="midnightblue" points="190.5,-152.558 187,-142.558 183.5,-152.558 190.5,-152.558"/>
</g>
<!-- Node6 -->
<g id="node7" class="node"><title>Node6</title>
<polygon fill="white" stroke="#bfbfbf" points="215,-179.5 215,-198.5 343,-198.5 343,-179.5 215,-179.5"/>
<text text-anchor="middle" x="279" y="-186.5" font-family="Helvetica,sans-Serif" font-size="10.00">odp/api/abi/std_types.h</text>
</g>
<!-- Node5&#45;&gt;Node6 -->
<g id="edge7" class="edge"><title>Node5&#45;&gt;Node6</title>
<path fill="none" stroke="midnightblue" d="M286.514,-235.083C285.321,-227.927 283.606,-217.635 282.115,-208.691"/>
<polygon fill="midnightblue" stroke="midnightblue" points="285.555,-208.04 280.459,-198.751 278.65,-209.19 285.555,-208.04"/>
</g>
<!-- Node7 -->
<g id="node8" class="node"><title>Node7</title>
<g id="a_node8"><a xlink:href="api_2spec_2std__types_8h.html" target="_top" xlink:title="Standard C language types and definitions for ODP. ">
<polygon fill="white" stroke="black" points="399,-179.5 399,-198.5 535,-198.5 535,-179.5 399,-179.5"/>
<text text-anchor="middle" x="467" y="-186.5" font-family="Helvetica,sans-Serif" font-size="10.00">odp/api/spec/std_types.h</text>
</a>
</g>
</g>
<!-- Node5&#45;&gt;Node7 -->
<g id="edge8" class="edge"><title>Node5&#45;&gt;Node7</title>
<path fill="none" stroke="midnightblue" d="M316.363,-235.444C346.738,-226.28 395.11,-211.688 428.816,-201.519"/>
<polygon fill="midnightblue" stroke="midnightblue" points="430.207,-204.756 438.77,-198.516 428.185,-198.054 430.207,-204.756"/>
</g>
<!-- Node7&#45;&gt;Node1 -->
<g id="edge9" class="edge"><title>Node7&#45;&gt;Node1</title>
<path fill="none" stroke="midnightblue" d="M458.199,-179.46C449.865,-170.93 437.538,-157.091 430,-143 409.929,-105.479 398.449,-56.4444 393.304,-29.9603"/>
<polygon fill="midnightblue" stroke="midnightblue" points="396.685,-28.9938 391.429,-19.7946 389.801,-30.2637 396.685,-28.9938"/>
</g>
<!-- Node8 -->
<g id="node9" class="node"><title>Node8</title>
<polygon fill="white" stroke="#bfbfbf" points="439.5,-123.5 439.5,-142.5 492.5,-142.5 492.5,-123.5 439.5,-123.5"/>
<text text-anchor="middle" x="466" y="-130.5" font-family="Helvetica,sans-Serif" font-size="10.00">stdint.h</text>
</g>
<!-- Node7&#45;&gt;Node8 -->
<g id="edge10" class="edge"><title>Node7&#45;&gt;Node8</title>
<path fill="none" stroke="midnightblue" d="M466.835,-179.083C466.704,-172.006 466.516,-161.861 466.352,-152.986"/>
<polygon fill="midnightblue" stroke="midnightblue" points="469.847,-152.685 466.162,-142.751 462.848,-152.814 469.847,-152.685"/>
</g>
<!-- Node9 -->
<g id="node10" class="node"><title>Node9</title>
<g id="a_node10"><a xlink:href="api_2align_8h.html" target="_top" xlink:title="ODP alignments. ">
<polygon fill="white" stroke="black" points="511,-123.5 511,-142.5 597,-142.5 597,-123.5 511,-123.5"/>
<text text-anchor="middle" x="554" y="-130.5" font-family="Helvetica,sans-Serif" font-size="10.00">odp/api/align.h</text>
</a>
</g>
</g>
<!-- Node7&#45;&gt;Node9 -->
<g id="edge11" class="edge"><title>Node7&#45;&gt;Node9</title>
<path fill="none" stroke="midnightblue" d="M480.978,-179.324C494.55,-170.9 515.38,-157.971 531.325,-148.074"/>
<polygon fill="midnightblue" stroke="midnightblue" points="533.406,-150.902 540.057,-142.655 529.714,-144.954 533.406,-150.902"/>
</g>
<!-- Node7&#45;&gt;Node12 -->
<g id="edge16" class="edge"><title>Node7&#45;&gt;Node12</title>
<path fill="none" stroke="midnightblue" d="M535.183,-185.562C671.327,-180.264 972.4,-166.27 1073,-143 1138.29,-127.897 1175.43,-142.493 1213,-87 1239.77,-47.4588 1174,-27.7943 1119.53,-18.5222"/>
<polygon fill="midnightblue" stroke="midnightblue" points="1119.94,-15.044 1109.51,-16.9093 1118.83,-21.9549 1119.94,-15.044"/>
</g>
<!-- Node10 -->
<g id="node11" class="node"><title>Node10</title>
<polygon fill="white" stroke="#bfbfbf" points="437,-62 437,-81 541,-81 541,-62 437,-62"/>
<text text-anchor="middle" x="489" y="-69" font-family="Helvetica,sans-Serif" font-size="10.00">odp/api/abi/align.h</text>
</g>
<!-- Node9&#45;&gt;Node10 -->
<g id="edge12" class="edge"><title>Node9&#45;&gt;Node10</title>
<path fill="none" stroke="midnightblue" d="M544.687,-123.475C534.551,-114.197 518.136,-99.1706 505.748,-87.831"/>
<polygon fill="midnightblue" stroke="midnightblue" points="508.035,-85.1795 498.296,-81.0091 503.309,-90.3429 508.035,-85.1795"/>
</g>
<!-- Node11 -->
<g id="node12" class="node"><title>Node11</title>
<g id="a_node12"><a xlink:href="api_2spec_2align_8h.html" target="_top" xlink:title="ODP alignments. ">
<polygon fill="white" stroke="black" points="559,-62 559,-81 671,-81 671,-62 559,-62"/>
<text text-anchor="middle" x="615" y="-69" font-family="Helvetica,sans-Serif" font-size="10.00">odp/api/spec/align.h</text>
</a>
</g>
</g>
<!-- Node9&#45;&gt;Node11 -->
<g id="edge13" class="edge"><title>Node9&#45;&gt;Node11</title>
<path fill="none" stroke="midnightblue" d="M562.74,-123.475C572.162,-114.285 587.364,-99.4563 598.949,-88.156"/>
<polygon fill="midnightblue" stroke="midnightblue" points="601.562,-90.4971 606.276,-81.0091 596.674,-85.4861 601.562,-90.4971"/>
</g>
<!-- Node11&#45;&gt;Node1 -->
<g id="edge14" class="edge"><title>Node11&#45;&gt;Node1</title>
<path fill="none" stroke="midnightblue" d="M582.763,-61.9751C543.081,-51.4815 475.601,-33.6367 431.926,-22.087"/>
<polygon fill="midnightblue" stroke="midnightblue" points="432.74,-18.682 422.177,-19.5091 430.95,-25.4494 432.74,-18.682"/>
</g>
<!-- Node11&#45;&gt;Node12 -->
<g id="edge15" class="edge"><title>Node11&#45;&gt;Node12</title>
<path fill="none" stroke="midnightblue" d="M650.294,-61.9506C659.892,-59.8107 670.313,-57.6559 680,-56 788.931,-37.3799 916.921,-23.8108 991.976,-16.6875"/>
<polygon fill="midnightblue" stroke="midnightblue" points="992.579,-20.1463 1002.21,-15.7253 991.924,-13.1771 992.579,-20.1463"/>
</g>
<!-- Node14 -->
<g id="node15" class="node"><title>Node14</title>
<g id="a_node15"><a xlink:href="spec_2hints_8h.html" target="_top" xlink:title="ODP compiler hints. ">
<polygon fill="white" stroke="black" points="689.5,-62 689.5,-81 802.5,-81 802.5,-62 689.5,-62"/>
<text text-anchor="middle" x="746" y="-69" font-family="Helvetica,sans-Serif" font-size="10.00">odp/api/spec/hints.h</text>
</a>
</g>
</g>
<!-- Node13&#45;&gt;Node14 -->
<g id="edge18" class="edge"><title>Node13&#45;&gt;Node14</title>
<path fill="none" stroke="midnightblue" d="M760.526,-353.59C825.423,-347.386 940,-325.215 940,-246 940,-246 940,-246 940,-188 940,-151.022 834.625,-105.814 779.198,-84.5918"/>
<polygon fill="midnightblue" stroke="midnightblue" points="780.38,-81.2968 769.788,-81.0355 777.905,-87.8448 780.38,-81.2968"/>
</g>
<!-- Node14&#45;&gt;Node1 -->
<g id="edge19" class="edge"><title>Node14&#45;&gt;Node1</title>
<path fill="none" stroke="midnightblue" d="M709.081,-61.9639C699.625,-59.8945 689.456,-57.7705 680,-56 604.137,-41.7948 516.51,-28.6441 457.606,-20.2739"/>
<polygon fill="midnightblue" stroke="midnightblue" points="458.071,-16.8049 447.679,-18.87 457.091,-23.736 458.071,-16.8049"/>
</g>
<!-- Node14&#45;&gt;Node12 -->
<g id="edge20" class="edge"><title>Node14&#45;&gt;Node12</title>
<path fill="none" stroke="midnightblue" d="M783.071,-61.976C792.189,-59.9498 801.936,-57.8428 811,-56 874.238,-43.1437 946.996,-29.9858 996.69,-21.2459"/>
<polygon fill="midnightblue" stroke="midnightblue" points="997.376,-24.679 1006.62,-19.504 996.167,-17.7843 997.376,-24.679"/>
</g>
<!-- Node16 -->
<g id="node17" class="node"><title>Node16</title>
<g id="a_node17"><a xlink:href="spec_2feature_8h.html" target="_top" xlink:title="ODP features. ">
<polygon fill="white" stroke="black" points="316,-291.5 316,-310.5 440,-310.5 440,-291.5 316,-291.5"/>
<text text-anchor="middle" x="378" y="-298.5" font-family="Helvetica,sans-Serif" font-size="10.00">odp/api/spec/feature.h</text>
</a>
</g>
</g>
<!-- Node15&#45;&gt;Node16 -->
<g id="edge22" class="edge"><title>Node15&#45;&gt;Node16</title>
<path fill="none" stroke="midnightblue" d="M378,-347.083C378,-340.006 378,-329.861 378,-320.986"/>
<polygon fill="midnightblue" stroke="midnightblue" points="381.5,-320.751 378,-310.751 374.5,-320.751 381.5,-320.751"/>
</g>
<!-- Node16&#45;&gt;Node1 -->
<g id="edge23" class="edge"><title>Node16&#45;&gt;Node1</title>
<path fill="none" stroke="midnightblue" d="M377.085,-291.454C375.187,-272.971 371,-227.889 371,-190 371,-190 371,-190 371,-132 371,-95.2858 379.642,-53.0556 385.27,-29.4499"/>
<polygon fill="midnightblue" stroke="midnightblue" points="388.67,-30.2793 387.67,-19.7318 381.874,-28.6007 388.67,-30.2793"/>
</g>
<!-- Node16&#45;&gt;Node5 -->
<g id="edge24" class="edge"><title>Node16&#45;&gt;Node5</title>
<path fill="none" stroke="midnightblue" d="M363.54,-291.324C349.5,-282.9 327.952,-269.971 311.457,-260.074"/>
<polygon fill="midnightblue" stroke="midnightblue" points="312.8,-256.798 302.424,-254.655 309.198,-262.801 312.8,-256.798"/>
</g>
<!-- Node16&#45;&gt;Node12 -->
<g id="edge25" class="edge"><title>Node16&#45;&gt;Node12</title>
<path fill="none" stroke="midnightblue" d="M440.062,-295.576C622.757,-280.995 1150.81,-227.121 1230,-87 1256.26,-40.5419 1179.73,-22.4495 1119.91,-15.4257"/>
<polygon fill="midnightblue" stroke="midnightblue" points="1120.04,-11.9192 1109.72,-14.3145 1119.28,-18.8779 1120.04,-11.9192"/>
</g>
<!-- Node18 -->
<g id="node19" class="node"><title>Node18</title>
<g id="a_node19"><a xlink:href="thread__types_8h.html" target="_top" xlink:title="ODP thread API types. ">
<polygon fill="white" stroke="black" points="960,-56.5 960,-86.5 1072,-86.5 1072,-56.5 960,-56.5"/>
<text text-anchor="start" x="968" y="-74.5" font-family="Helvetica,sans-Serif" font-size="10.00">odp/api/spec/thread</text>
<text text-anchor="middle" x="1016" y="-63.5" font-family="Helvetica,sans-Serif" font-size="10.00">_types.h</text>
</a>
</g>
</g>
<!-- Node17&#45;&gt;Node18 -->
<g id="edge27" class="edge"><title>Node17&#45;&gt;Node18</title>
<path fill="none" stroke="midnightblue" d="M1016,-123.475C1016,-116.471 1016,-106.192 1016,-96.6956"/>
<polygon fill="midnightblue" stroke="midnightblue" points="1019.5,-96.5229 1016,-86.523 1012.5,-96.523 1019.5,-96.5229"/>
</g>
<!-- Node19 -->
<g id="node20" class="node"><title>Node19</title>
<polygon fill="white" stroke="#bfbfbf" points="1090.5,-62 1090.5,-81 1203.5,-81 1203.5,-62 1090.5,-62"/>
<text text-anchor="middle" x="1147" y="-69" font-family="Helvetica,sans-Serif" font-size="10.00">odp/api/abi/thread.h</text>
</g>
<!-- Node17&#45;&gt;Node19 -->
<g id="edge28" class="edge"><title>Node17&#45;&gt;Node19</title>
<path fill="none" stroke="midnightblue" d="M1034.77,-123.475C1056.85,-113.445 1093.72,-96.7002 1119.14,-85.1546"/>
<polygon fill="midnightblue" stroke="midnightblue" points="1120.61,-88.3313 1128.27,-81.0091 1117.71,-81.9579 1120.61,-88.3313"/>
</g>
<!-- Node20 -->
<g id="node21" class="node"><title>Node20</title>
<g id="a_node21"><a xlink:href="api_2spec_2thread_8h.html" target="_top" xlink:title="ODP thread API. ">
<polygon fill="white" stroke="black" points="820.5,-62 820.5,-81 941.5,-81 941.5,-62 820.5,-62"/>
<text text-anchor="middle" x="881" y="-69" font-family="Helvetica,sans-Serif" font-size="10.00">odp/api/spec/thread.h</text>
</a>
</g>
</g>
<!-- Node17&#45;&gt;Node20 -->
<g id="edge29" class="edge"><title>Node17&#45;&gt;Node20</title>
<path fill="none" stroke="midnightblue" d="M996.658,-123.475C973.901,-113.445 935.908,-96.7002 909.712,-85.1546"/>
<polygon fill="midnightblue" stroke="midnightblue" points="910.869,-81.8395 900.306,-81.0091 908.045,-88.2449 910.869,-81.8395"/>
</g>
<!-- Node20&#45;&gt;Node1 -->
<g id="edge30" class="edge"><title>Node20&#45;&gt;Node1</title>
<path fill="none" stroke="midnightblue" d="M843.342,-61.9947C832.904,-59.83 821.545,-57.6516 811,-56 687.084,-36.5909 541.32,-23.0634 457.884,-16.1997"/>
<polygon fill="midnightblue" stroke="midnightblue" points="458.027,-12.6999 447.775,-15.3758 457.458,-19.6767 458.027,-12.6999"/>
</g>
<!-- Node20&#45;&gt;Node12 -->
<g id="edge31" class="edge"><title>Node20&#45;&gt;Node12</title>
<path fill="none" stroke="midnightblue" d="M906.073,-61.9751C936.352,-51.6804 987.44,-34.3103 1021.44,-22.7502"/>
<polygon fill="midnightblue" stroke="midnightblue" points="1022.63,-26.0419 1030.97,-19.5091 1020.38,-19.4145 1022.63,-26.0419"/>
</g>
<!-- Node22 -->
<g id="node23" class="node"><title>Node22</title>
<polygon fill="white" stroke="#bfbfbf" points="66.5,-62 66.5,-81 191.5,-81 191.5,-62 66.5,-62"/>
<text text-anchor="middle" x="129" y="-69" font-family="Helvetica,sans-Serif" font-size="10.00">odp/api/abi/cpumask.h</text>
</g>
<!-- Node21&#45;&gt;Node22 -->
<g id="edge33" class="edge"><title>Node21&#45;&gt;Node22</title>
<path fill="none" stroke="midnightblue" d="M178.69,-123.475C169.818,-114.373 155.554,-99.741 144.58,-88.483"/>
<polygon fill="midnightblue" stroke="midnightblue" points="146.781,-85.7268 137.295,-81.0091 141.769,-90.613 146.781,-85.7268"/>
</g>
<!-- Node23 -->
<g id="node24" class="node"><title>Node23</title>
<g id="a_node24"><a xlink:href="api_2spec_2cpumask_8h.html" target="_top" xlink:title="ODP CPU masks and enumeration. ">
<polygon fill="white" stroke="black" points="209.5,-62 209.5,-81 342.5,-81 342.5,-62 209.5,-62"/>
<text text-anchor="middle" x="276" y="-69" font-family="Helvetica,sans-Serif" font-size="10.00">odp/api/spec/cpumask.h</text>
</a>
</g>
</g>
<!-- Node21&#45;&gt;Node23 -->
<g id="edge34" class="edge"><title>Node21&#45;&gt;Node23</title>
<path fill="none" stroke="midnightblue" d="M199.752,-123.475C214.027,-113.931 237.397,-98.3073 254.508,-86.8683"/>
<polygon fill="midnightblue" stroke="midnightblue" points="256.904,-89.4766 263.272,-81.0091 253.014,-83.6572 256.904,-89.4766"/>
</g>
<!-- Node23&#45;&gt;Node1 -->
<g id="edge35" class="edge"><title>Node23&#45;&gt;Node1</title>
<path fill="none" stroke="midnightblue" d="M292.333,-61.9751C311.211,-52.1222 342.507,-35.7883 364.576,-24.2697"/>
<polygon fill="midnightblue" stroke="midnightblue" points="366.451,-27.2389 373.697,-19.5091 363.212,-21.0333 366.451,-27.2389"/>
</g>
<!-- Node23&#45;&gt;Node12 -->
<g id="edge36" class="edge"><title>Node23&#45;&gt;Node12</title>
<path fill="none" stroke="midnightblue" d="M342.56,-63.8079C369.125,-61.2265 399.998,-58.3385 428,-56 633.979,-38.7979 878.309,-22.456 991.948,-15.0893"/>
<polygon fill="midnightblue" stroke="midnightblue" points="992.45,-18.5642 1002.2,-14.4258 991.998,-11.5788 992.45,-18.5642"/>
</g>
</g>
</svg>
