<?xml version="1.0" encoding="UTF-8" standalone="no"?>
<!DOCTYPE svg PUBLIC "-//W3C//DTD SVG 1.1//EN"
 "http://www.w3.org/Graphics/SVG/1.1/DTD/svg11.dtd">
<!-- Generated by graphviz version 2.38.0 (20140413.2041)
 -->
<!-- Title: time.h Pages: 1 -->
<svg width="722pt" height="868pt"
 viewBox="0.00 0.00 722.00 868.00" xmlns="http://www.w3.org/2000/svg" xmlns:xlink="http://www.w3.org/1999/xlink">
<g id="graph0" class="graph" transform="scale(1 1) rotate(0) translate(4 864)">
<title>time.h</title>
<polygon fill="white" stroke="none" points="-4,4 -4,-864 718,-864 718,4 -4,4"/>
<!-- Node3 -->
<g id="node1" class="node"><title>Node3</title>
<polygon fill="#bfbfbf" stroke="black" points="14.5,-840.5 14.5,-859.5 61.5,-859.5 61.5,-840.5 14.5,-840.5"/>
<text text-anchor="middle" x="38" y="-847.5" font-family="Helvetica,sans-Serif" font-size="10.00">time.h</text>
</g>
<!-- Node4 -->
<g id="node2" class="node"><title>Node4</title>
<g id="a_node2"><a xlink:href="api_2time_8h.html" target="_top" xlink:title="ODP time. ">
<polygon fill="white" stroke="black" points="14.5,-784.5 14.5,-803.5 61.5,-803.5 61.5,-784.5 14.5,-784.5"/>
<text text-anchor="middle" x="38" y="-791.5" font-family="Helvetica,sans-Serif" font-size="10.00">time.h</text>
</a>
</g>
</g>
<!-- Node3&#45;&gt;Node4 -->
<g id="edge1" class="edge"><title>Node3&#45;&gt;Node4</title>
<path fill="none" stroke="midnightblue" d="M38,-829.805C38,-820.91 38,-810.78 38,-803.751"/>
<polygon fill="midnightblue" stroke="midnightblue" points="34.5001,-830.083 38,-840.083 41.5001,-830.083 34.5001,-830.083"/>
</g>
<!-- Node5 -->
<g id="node3" class="node"><title>Node5</title>
<g id="a_node3"><a xlink:href="api_2spec_2packet_8h.html" target="_top" xlink:title="ODP packet descriptor. ">
<polygon fill="white" stroke="black" points="190,-728.5 190,-747.5 248,-747.5 248,-728.5 190,-728.5"/>
<text text-anchor="middle" x="219" y="-735.5" font-family="Helvetica,sans-Serif" font-size="10.00">packet.h</text>
</a>
</g>
</g>
<!-- Node4&#45;&gt;Node5 -->
<g id="edge2" class="edge"><title>Node4&#45;&gt;Node5</title>
<path fill="none" stroke="midnightblue" d="M71.6272,-782.968C105.748,-772.788 158.003,-757.198 190.254,-747.576"/>
<polygon fill="midnightblue" stroke="midnightblue" points="70.2446,-779.728 61.6626,-785.94 72.2459,-786.435 70.2446,-779.728"/>
</g>
<!-- Node9 -->
<g id="node7" class="node"><title>Node9</title>
<g id="a_node7"><a xlink:href="odp__api_8h.html" target="_top" xlink:title="The OpenDataPlane API. ">
<polygon fill="white" stroke="black" points="341.5,-56.5 341.5,-75.5 404.5,-75.5 404.5,-56.5 341.5,-56.5"/>
<text text-anchor="middle" x="373" y="-63.5" font-family="Helvetica,sans-Serif" font-size="10.00">odp_api.h</text>
</a>
</g>
</g>
<!-- Node4&#45;&gt;Node9 -->
<g id="edge43" class="edge"><title>Node4&#45;&gt;Node9</title>
<path fill="none" stroke="midnightblue" d="M27.8573,-775.429C16.6005,-754.236 0,-717.187 0,-683 0,-683 0,-683 0,-177 0,-134.545 31.7325,-130.387 70,-112 117.636,-89.1122 273.938,-74.6395 341.464,-69.311"/>
<polygon fill="midnightblue" stroke="midnightblue" points="24.8191,-777.168 32.7163,-784.231 30.9473,-773.785 24.8191,-777.168"/>
</g>
<!-- Node19 -->
<g id="node17" class="node"><title>Node19</title>
<g id="a_node17"><a xlink:href="api_2spec_2packet__io_8h.html" target="_top" xlink:title="ODP Packet IO. ">
<polygon fill="white" stroke="black" points="227.5,-392.5 227.5,-411.5 298.5,-411.5 298.5,-392.5 227.5,-392.5"/>
<text text-anchor="middle" x="263" y="-399.5" font-family="Helvetica,sans-Serif" font-size="10.00">packet_io.h</text>
</a>
</g>
</g>
<!-- Node4&#45;&gt;Node19 -->
<g id="edge42" class="edge"><title>Node4&#45;&gt;Node19</title>
<path fill="none" stroke="midnightblue" d="M38,-774.251C38,-752.357 38,-715.052 38,-683 38,-683 38,-683 38,-513 38,-429.734 163.904,-409.489 227.348,-404.573"/>
<polygon fill="midnightblue" stroke="midnightblue" points="34.5001,-774.442 38,-784.442 41.5001,-774.442 34.5001,-774.442"/>
</g>
<!-- Node6 -->
<g id="node4" class="node"><title>Node6</title>
<g id="a_node4"><a xlink:href="api_2packet_8h.html" target="_top" xlink:title="ODP packet descriptor. ">
<polygon fill="white" stroke="black" points="315,-672.5 315,-691.5 373,-691.5 373,-672.5 315,-672.5"/>
<text text-anchor="middle" x="344" y="-679.5" font-family="Helvetica,sans-Serif" font-size="10.00">packet.h</text>
</a>
</g>
</g>
<!-- Node5&#45;&gt;Node6 -->
<g id="edge3" class="edge"><title>Node5&#45;&gt;Node6</title>
<path fill="none" stroke="midnightblue" d="M248.241,-724.368C271.65,-714.255 303.841,-700.349 324.286,-691.516"/>
<polygon fill="midnightblue" stroke="midnightblue" points="246.599,-721.265 238.807,-728.444 249.375,-727.691 246.599,-721.265"/>
</g>
<!-- Node7 -->
<g id="node5" class="node"><title>Node7</title>
<g id="a_node5"><a xlink:href="api_2spec_2comp_8h.html" target="_top" xlink:title="ODP Compression. ">
<polygon fill="white" stroke="black" points="162.5,-616.5 162.5,-635.5 215.5,-635.5 215.5,-616.5 162.5,-616.5"/>
<text text-anchor="middle" x="189" y="-623.5" font-family="Helvetica,sans-Serif" font-size="10.00">comp.h</text>
</a>
</g>
</g>
<!-- Node6&#45;&gt;Node7 -->
<g id="edge4" class="edge"><title>Node6&#45;&gt;Node7</title>
<path fill="none" stroke="midnightblue" d="M309.668,-669.039C280.503,-658.879 239.363,-644.546 213.445,-635.516"/>
<polygon fill="midnightblue" stroke="midnightblue" points="308.845,-672.459 319.44,-672.444 311.148,-665.848 308.845,-672.459"/>
</g>
<!-- Node6&#45;&gt;Node9 -->
<g id="edge41" class="edge"><title>Node6&#45;&gt;Node9</title>
<path fill="none" stroke="midnightblue" d="M383.404,-681.243C455.202,-679.399 600,-664.134 600,-571 600,-571 600,-571 600,-177 600,-91.1656 466.937,-72.2852 404.563,-68.15"/>
<polygon fill="midnightblue" stroke="midnightblue" points="383.301,-677.744 373.366,-681.425 383.428,-684.743 383.301,-677.744"/>
</g>
<!-- Node11 -->
<g id="node9" class="node"><title>Node11</title>
<g id="a_node9"><a xlink:href="api_2spec_2crypto_8h.html" target="_top" xlink:title="ODP crypto. ">
<polygon fill="white" stroke="black" points="316,-448.5 316,-467.5 372,-467.5 372,-448.5 316,-448.5"/>
<text text-anchor="middle" x="344" y="-455.5" font-family="Helvetica,sans-Serif" font-size="10.00">crypto.h</text>
</a>
</g>
</g>
<!-- Node6&#45;&gt;Node11 -->
<g id="edge8" class="edge"><title>Node6&#45;&gt;Node11</title>
<path fill="none" stroke="midnightblue" d="M344,-662.295C344,-616.644 344,-500.854 344,-467.884"/>
<polygon fill="midnightblue" stroke="midnightblue" points="340.5,-662.297 344,-672.297 347.5,-662.297 340.5,-662.297"/>
</g>
<!-- Node15 -->
<g id="node13" class="node"><title>Node15</title>
<g id="a_node13"><a xlink:href="api_2spec_2event_8h.html" target="_top" xlink:title="ODP event. ">
<polygon fill="white" stroke="black" points="387.5,-616.5 387.5,-635.5 440.5,-635.5 440.5,-616.5 387.5,-616.5"/>
<text text-anchor="middle" x="414" y="-623.5" font-family="Helvetica,sans-Serif" font-size="10.00">event.h</text>
</a>
</g>
</g>
<!-- Node6&#45;&gt;Node15 -->
<g id="edge14" class="edge"><title>Node6&#45;&gt;Node15</title>
<path fill="none" stroke="midnightblue" d="M363.314,-666.101C375.912,-656.382 391.928,-644.027 402.549,-635.834"/>
<polygon fill="midnightblue" stroke="midnightblue" points="361.027,-663.445 355.247,-672.324 365.302,-668.987 361.027,-663.445"/>
</g>
<!-- Node6&#45;&gt;Node19 -->
<g id="edge40" class="edge"><title>Node6&#45;&gt;Node19</title>
<path fill="none" stroke="midnightblue" d="M325.253,-665.682C303.623,-646.164 271,-610.224 271,-571 271,-571 271,-571 271,-513 271,-475.088 266.214,-430.018 264.046,-411.542"/>
<polygon fill="midnightblue" stroke="midnightblue" points="323.067,-668.419 332.913,-672.33 327.655,-663.132 323.067,-668.419"/>
</g>
<!-- Node27 -->
<g id="node25" class="node"><title>Node27</title>
<g id="a_node25"><a xlink:href="api_2spec_2packet__flags_8h.html" target="_top" xlink:title="ODP packet flags. ">
<polygon fill="white" stroke="black" points="628,-560.5 628,-579.5 714,-579.5 714,-560.5 628,-560.5"/>
<text text-anchor="middle" x="671" y="-567.5" font-family="Helvetica,sans-Serif" font-size="10.00">packet_flags.h</text>
</a>
</g>
</g>
<!-- Node6&#45;&gt;Node27 -->
<g id="edge37" class="edge"><title>Node6&#45;&gt;Node27</title>
<path fill="none" stroke="midnightblue" d="M383.721,-677.674C448.89,-671.675 575.161,-657.624 614,-636 638.391,-622.42 657.429,-594.26 666.016,-579.876"/>
<polygon fill="midnightblue" stroke="midnightblue" points="383.076,-674.217 373.431,-678.6 383.704,-681.189 383.076,-674.217"/>
</g>
<!-- Node8 -->
<g id="node6" class="node"><title>Node8</title>
<g id="a_node6"><a xlink:href="api_2comp_8h.html" target="_top" xlink:title="ODP crypto. ">
<polygon fill="white" stroke="black" points="80.5,-504.5 80.5,-523.5 133.5,-523.5 133.5,-504.5 80.5,-504.5"/>
<text text-anchor="middle" x="107" y="-511.5" font-family="Helvetica,sans-Serif" font-size="10.00">comp.h</text>
</a>
</g>
</g>
<!-- Node7&#45;&gt;Node8 -->
<g id="edge5" class="edge"><title>Node7&#45;&gt;Node8</title>
<path fill="none" stroke="midnightblue" d="M176.53,-608.272C158.805,-584.494 126.97,-541.789 113.405,-523.591"/>
<polygon fill="midnightblue" stroke="midnightblue" points="173.783,-610.443 182.566,-616.368 179.395,-606.259 173.783,-610.443"/>
</g>
<!-- Node8&#45;&gt;Node9 -->
<g id="edge6" class="edge"><title>Node8&#45;&gt;Node9</title>
<path fill="none" stroke="midnightblue" d="M99.6242,-494.683C82.5979,-450.691 42,-335.28 42,-235 42,-235 42,-235 42,-177 42,-129.795 82.8855,-131.222 126,-112 198.455,-79.6968 292.73,-70.5803 341.178,-68.0089"/>
<polygon fill="midnightblue" stroke="midnightblue" points="96.3966,-496.039 103.319,-504.059 102.909,-493.473 96.3966,-496.039"/>
</g>
<!-- Node10 -->
<g id="node8" class="node"><title>Node10</title>
<g id="a_node8"><a xlink:href="odp_8h.html" target="_top" xlink:title="WARNING: THIS FILE IS DEPRECATED AND WILL BE REMOVED!!! ODP APPLICATIONS SHOULD NOW INCLUDE odp_api...">
<polygon fill="white" stroke="black" points="351,-0.5 351,-19.5 395,-19.5 395,-0.5 351,-0.5"/>
<text text-anchor="middle" x="373" y="-7.5" font-family="Helvetica,sans-Serif" font-size="10.00">odp.h</text>
</a>
</g>
</g>
<!-- Node9&#45;&gt;Node10 -->
<g id="edge7" class="edge"><title>Node9&#45;&gt;Node10</title>
<path fill="none" stroke="midnightblue" d="M373,-45.8045C373,-36.9102 373,-26.7798 373,-19.7511"/>
<polygon fill="midnightblue" stroke="midnightblue" points="369.5,-46.083 373,-56.083 376.5,-46.083 369.5,-46.083"/>
</g>
<!-- Node12 -->
<g id="node10" class="node"><title>Node12</title>
<g id="a_node10"><a xlink:href="api_2crypto_8h.html" target="_top" xlink:title="ODP crypto. ">
<polygon fill="white" stroke="black" points="334,-336.5 334,-355.5 390,-355.5 390,-336.5 334,-336.5"/>
<text text-anchor="middle" x="362" y="-343.5" font-family="Helvetica,sans-Serif" font-size="10.00">crypto.h</text>
</a>
</g>
</g>
<!-- Node11&#45;&gt;Node12 -->
<g id="edge9" class="edge"><title>Node11&#45;&gt;Node12</title>
<path fill="none" stroke="midnightblue" d="M347.052,-438.348C350.995,-414.254 357.695,-373.308 360.594,-355.591"/>
<polygon fill="midnightblue" stroke="midnightblue" points="343.573,-437.934 345.412,-448.368 350.481,-439.065 343.573,-437.934"/>
</g>
<!-- Node12&#45;&gt;Node9 -->
<g id="edge13" class="edge"><title>Node12&#45;&gt;Node9</title>
<path fill="none" stroke="midnightblue" d="M372.143,-327.429C383.4,-306.236 400,-269.187 400,-235 400,-235 400,-235 400,-177 400,-138.262 384.011,-94.0045 376.641,-75.6622"/>
<polygon fill="midnightblue" stroke="midnightblue" points="369.053,-325.785 367.284,-336.231 375.181,-329.168 369.053,-325.785"/>
</g>
<!-- Node13 -->
<g id="node11" class="node"><title>Node13</title>
<g id="a_node11"><a xlink:href="api_2spec_2ipsec_8h.html" target="_top" xlink:title="ODP IPSEC API. ">
<polygon fill="white" stroke="black" points="299,-168.5 299,-187.5 349,-187.5 349,-168.5 299,-168.5"/>
<text text-anchor="middle" x="324" y="-175.5" font-family="Helvetica,sans-Serif" font-size="10.00">ipsec.h</text>
</a>
</g>
</g>
<!-- Node12&#45;&gt;Node13 -->
<g id="edge10" class="edge"><title>Node12&#45;&gt;Node13</title>
<path fill="none" stroke="midnightblue" d="M358.925,-326.304C354.85,-302.413 347.106,-259.855 338,-224 334.737,-211.153 329.998,-196.545 326.957,-187.55"/>
<polygon fill="midnightblue" stroke="midnightblue" points="355.516,-327.138 360.62,-336.422 362.419,-325.981 355.516,-327.138"/>
</g>
<!-- Node14 -->
<g id="node12" class="node"><title>Node14</title>
<g id="a_node12"><a xlink:href="api_2ipsec_8h.html" target="_top" xlink:title="ODP IPSEC API &#45; platform specific header. ">
<polygon fill="white" stroke="black" points="310,-112.5 310,-131.5 360,-131.5 360,-112.5 310,-112.5"/>
<text text-anchor="middle" x="335" y="-119.5" font-family="Helvetica,sans-Serif" font-size="10.00">ipsec.h</text>
</a>
</g>
</g>
<!-- Node13&#45;&gt;Node14 -->
<g id="edge11" class="edge"><title>Node13&#45;&gt;Node14</title>
<path fill="none" stroke="midnightblue" d="M327.85,-158.101C329.676,-149.136 331.77,-138.858 333.217,-131.751"/>
<polygon fill="midnightblue" stroke="midnightblue" points="324.383,-157.586 325.816,-168.083 331.242,-158.983 324.383,-157.586"/>
</g>
<!-- Node14&#45;&gt;Node9 -->
<g id="edge12" class="edge"><title>Node14&#45;&gt;Node9</title>
<path fill="none" stroke="midnightblue" d="M347.065,-103.855C353.645,-94.5048 361.511,-83.3265 366.842,-75.7511"/>
<polygon fill="midnightblue" stroke="midnightblue" points="344.168,-101.891 341.275,-112.083 349.892,-105.919 344.168,-101.891"/>
</g>
<!-- Node16 -->
<g id="node14" class="node"><title>Node16</title>
<g id="a_node14"><a xlink:href="api_2event_8h.html" target="_top" xlink:title="ODP event. ">
<polygon fill="white" stroke="black" points="401.5,-560.5 401.5,-579.5 454.5,-579.5 454.5,-560.5 401.5,-560.5"/>
<text text-anchor="middle" x="428" y="-567.5" font-family="Helvetica,sans-Serif" font-size="10.00">event.h</text>
</a>
</g>
</g>
<!-- Node15&#45;&gt;Node16 -->
<g id="edge15" class="edge"><title>Node15&#45;&gt;Node16</title>
<path fill="none" stroke="midnightblue" d="M418.823,-606.396C421.165,-597.362 423.868,-586.936 425.731,-579.751"/>
<polygon fill="midnightblue" stroke="midnightblue" points="415.434,-605.525 416.312,-616.083 422.21,-607.281 415.434,-605.525"/>
</g>
<!-- Node16&#45;&gt;Node9 -->
<g id="edge36" class="edge"><title>Node16&#45;&gt;Node9</title>
<path fill="none" stroke="midnightblue" d="M423.465,-550.596C421.691,-542.495 419.874,-532.83 419,-524 415.672,-490.387 417.498,-481.744 419,-448 423.226,-353.051 438,-330.043 438,-235 438,-235 438,-235 438,-177 438,-133.967 400.672,-92.9849 382.591,-75.6585"/>
<polygon fill="midnightblue" stroke="midnightblue" points="420.084,-551.506 425.765,-560.449 426.901,-549.915 420.084,-551.506"/>
</g>
<!-- Node17 -->
<g id="node15" class="node"><title>Node17</title>
<g id="a_node15"><a xlink:href="api_2spec_2queue_8h.html" target="_top" xlink:title="ODP queue. ">
<polygon fill="white" stroke="black" points="428,-504.5 428,-523.5 484,-523.5 484,-504.5 428,-504.5"/>
<text text-anchor="middle" x="456" y="-511.5" font-family="Helvetica,sans-Serif" font-size="10.00">queue.h</text>
</a>
</g>
</g>
<!-- Node16&#45;&gt;Node17 -->
<g id="edge16" class="edge"><title>Node16&#45;&gt;Node17</title>
<path fill="none" stroke="midnightblue" d="M437.342,-550.983C442.095,-541.817 447.656,-531.092 451.462,-523.751"/>
<polygon fill="midnightblue" stroke="midnightblue" points="434.12,-549.594 432.624,-560.083 440.334,-552.817 434.12,-549.594"/>
</g>
<!-- Node25 -->
<g id="node23" class="node"><title>Node25</title>
<g id="a_node23"><a xlink:href="api_2spec_2schedule_8h.html" target="_top" xlink:title="ODP schedule. ">
<polygon fill="white" stroke="black" points="504,-392.5 504,-411.5 572,-411.5 572,-392.5 504,-392.5"/>
<text text-anchor="middle" x="538" y="-399.5" font-family="Helvetica,sans-Serif" font-size="10.00">schedule.h</text>
</a>
</g>
</g>
<!-- Node16&#45;&gt;Node25 -->
<g id="edge35" class="edge"><title>Node16&#45;&gt;Node25</title>
<path fill="none" stroke="midnightblue" d="M455.019,-555.385C468.005,-547.687 482.902,-536.994 493,-524 520.919,-488.075 532.856,-433.04 536.602,-411.792"/>
<polygon fill="midnightblue" stroke="midnightblue" points="453.003,-552.503 445.997,-560.45 456.43,-558.606 453.003,-552.503"/>
</g>
<!-- Node18 -->
<g id="node16" class="node"><title>Node18</title>
<g id="a_node16"><a xlink:href="api_2queue_8h.html" target="_top" xlink:title="ODP queue. ">
<polygon fill="white" stroke="black" points="428,-448.5 428,-467.5 484,-467.5 484,-448.5 428,-448.5"/>
<text text-anchor="middle" x="456" y="-455.5" font-family="Helvetica,sans-Serif" font-size="10.00">queue.h</text>
</a>
</g>
</g>
<!-- Node17&#45;&gt;Node18 -->
<g id="edge17" class="edge"><title>Node17&#45;&gt;Node18</title>
<path fill="none" stroke="midnightblue" d="M456,-493.805C456,-484.91 456,-474.78 456,-467.751"/>
<polygon fill="midnightblue" stroke="midnightblue" points="452.5,-494.083 456,-504.083 459.5,-494.083 452.5,-494.083"/>
</g>
<!-- Node18&#45;&gt;Node9 -->
<g id="edge34" class="edge"><title>Node18&#45;&gt;Node9</title>
<path fill="none" stroke="midnightblue" d="M461.491,-438.408C467.412,-416.685 476,-379.562 476,-347 476,-347 476,-347 476,-177 476,-146.205 471.918,-135.487 452,-112 437.401,-94.7853 414.462,-82.7614 397.055,-75.5007"/>
<polygon fill="midnightblue" stroke="midnightblue" points="458.058,-437.683 458.697,-448.258 464.793,-439.592 458.058,-437.683"/>
</g>
<!-- Node18&#45;&gt;Node12 -->
<g id="edge18" class="edge"><title>Node18&#45;&gt;Node12</title>
<path fill="none" stroke="midnightblue" d="M441.973,-440.586C421.708,-416.871 384.961,-373.869 369.342,-355.591"/>
<polygon fill="midnightblue" stroke="midnightblue" points="439.467,-443.04 448.624,-448.368 444.788,-438.492 439.467,-443.04"/>
</g>
<!-- Node18&#45;&gt;Node19 -->
<g id="edge19" class="edge"><title>Node18&#45;&gt;Node19</title>
<path fill="none" stroke="midnightblue" d="M418.178,-446.418C381.779,-436.233 327.425,-421.026 293.65,-411.576"/>
<polygon fill="midnightblue" stroke="midnightblue" points="417.363,-449.824 427.936,-449.148 419.249,-443.083 417.363,-449.824"/>
</g>
<!-- Node18&#45;&gt;Node25 -->
<g id="edge31" class="edge"><title>Node18&#45;&gt;Node25</title>
<path fill="none" stroke="midnightblue" d="M477.833,-442.622C492.813,-432.757 512.197,-419.992 524.858,-411.655"/>
<polygon fill="midnightblue" stroke="midnightblue" points="475.601,-439.901 469.175,-448.324 479.451,-445.747 475.601,-439.901"/>
</g>
<!-- Node20 -->
<g id="node18" class="node"><title>Node20</title>
<g id="a_node18"><a xlink:href="api_2packet__io_8h.html" target="_top" xlink:title="ODP Packet IO. ">
<polygon fill="white" stroke="black" points="218.5,-336.5 218.5,-355.5 289.5,-355.5 289.5,-336.5 218.5,-336.5"/>
<text text-anchor="middle" x="254" y="-343.5" font-family="Helvetica,sans-Serif" font-size="10.00">packet_io.h</text>
</a>
</g>
</g>
<!-- Node19&#45;&gt;Node20 -->
<g id="edge20" class="edge"><title>Node19&#45;&gt;Node20</title>
<path fill="none" stroke="midnightblue" d="M259.85,-382.101C258.356,-373.136 256.643,-362.858 255.459,-355.751"/>
<polygon fill="midnightblue" stroke="midnightblue" points="256.417,-382.794 261.514,-392.083 263.322,-381.644 256.417,-382.794"/>
</g>
<!-- Node20&#45;&gt;Node9 -->
<g id="edge30" class="edge"><title>Node20&#45;&gt;Node9</title>
<path fill="none" stroke="midnightblue" d="M208.067,-343.145C173.663,-339.328 127.756,-328.704 99,-300 77.6982,-278.737 80,-265.098 80,-235 80,-235 80,-235 80,-177 80,-121.646 265.602,-84.7245 341.365,-71.9588"/>
<polygon fill="midnightblue" stroke="midnightblue" points="208.057,-346.66 218.344,-344.124 208.72,-339.691 208.057,-346.66"/>
</g>
<!-- Node20&#45;&gt;Node13 -->
<g id="edge25" class="edge"><title>Node20&#45;&gt;Node13</title>
<path fill="none" stroke="midnightblue" d="M275.963,-330.555C286.1,-322.726 297.34,-312.165 304,-300 324.756,-262.087 325.17,-208.217 324.452,-187.536"/>
<polygon fill="midnightblue" stroke="midnightblue" points="273.863,-327.754 267.831,-336.463 277.978,-333.417 273.863,-327.754"/>
</g>
<!-- Node21 -->
<g id="node19" class="node"><title>Node21</title>
<g id="a_node19"><a xlink:href="api_2spec_2classification_8h.html" target="_top" xlink:title="ODP classification descriptor. ">
<polygon fill="white" stroke="black" points="108,-280.5 108,-299.5 194,-299.5 194,-280.5 108,-280.5"/>
<text text-anchor="middle" x="151" y="-287.5" font-family="Helvetica,sans-Serif" font-size="10.00">classification.h</text>
</a>
</g>
</g>
<!-- Node20&#45;&gt;Node21 -->
<g id="edge21" class="edge"><title>Node20&#45;&gt;Node21</title>
<path fill="none" stroke="midnightblue" d="M228.421,-331.59C209.377,-321.605 183.936,-308.267 167.508,-299.655"/>
<polygon fill="midnightblue" stroke="midnightblue" points="226.969,-334.78 237.451,-336.324 230.22,-328.581 226.969,-334.78"/>
</g>
<!-- Node23 -->
<g id="node21" class="node"><title>Node23</title>
<g id="a_node21"><a xlink:href="api_2spec_2traffic__mngr_8h.html" target="_top" xlink:title="Copyright (c) 2015&#45;2018, Linaro Limited All rights reserved. ">
<polygon fill="white" stroke="black" points="212.5,-280.5 212.5,-299.5 295.5,-299.5 295.5,-280.5 212.5,-280.5"/>
<text text-anchor="middle" x="254" y="-287.5" font-family="Helvetica,sans-Serif" font-size="10.00">traffic_mngr.h</text>
</a>
</g>
</g>
<!-- Node20&#45;&gt;Node23 -->
<g id="edge26" class="edge"><title>Node20&#45;&gt;Node23</title>
<path fill="none" stroke="midnightblue" d="M254,-325.805C254,-316.91 254,-306.78 254,-299.751"/>
<polygon fill="midnightblue" stroke="midnightblue" points="250.5,-326.083 254,-336.083 257.5,-326.083 250.5,-326.083"/>
</g>
<!-- Node22 -->
<g id="node20" class="node"><title>Node22</title>
<g id="a_node20"><a xlink:href="api_2classification_8h.html" target="_top" xlink:title="ODP classification descriptor. ">
<polygon fill="white" stroke="black" points="108,-224.5 108,-243.5 194,-243.5 194,-224.5 108,-224.5"/>
<text text-anchor="middle" x="151" y="-231.5" font-family="Helvetica,sans-Serif" font-size="10.00">classification.h</text>
</a>
</g>
</g>
<!-- Node21&#45;&gt;Node22 -->
<g id="edge22" class="edge"><title>Node21&#45;&gt;Node22</title>
<path fill="none" stroke="midnightblue" d="M151,-269.805C151,-260.91 151,-250.78 151,-243.751"/>
<polygon fill="midnightblue" stroke="midnightblue" points="147.5,-270.083 151,-280.083 154.5,-270.083 147.5,-270.083"/>
</g>
<!-- Node22&#45;&gt;Node9 -->
<g id="edge24" class="edge"><title>Node22&#45;&gt;Node9</title>
<path fill="none" stroke="midnightblue" d="M166.194,-216.786C189.917,-192.077 237.933,-144.448 285,-112 306.756,-97.0011 334.182,-83.7632 352.583,-75.5955"/>
<polygon fill="midnightblue" stroke="midnightblue" points="163.469,-214.573 159.116,-224.233 168.542,-219.396 163.469,-214.573"/>
</g>
<!-- Node22&#45;&gt;Node13 -->
<g id="edge23" class="edge"><title>Node22&#45;&gt;Node13</title>
<path fill="none" stroke="midnightblue" d="M188.285,-221.362C221.74,-210.919 269.916,-195.882 298.963,-186.815"/>
<polygon fill="midnightblue" stroke="midnightblue" points="186.915,-218.123 178.412,-224.444 189.001,-224.805 186.915,-218.123"/>
</g>
<!-- Node24 -->
<g id="node22" class="node"><title>Node24</title>
<g id="a_node22"><a xlink:href="api_2traffic__mngr_8h.html" target="_top" xlink:title="ODP Traffic manager. ">
<polygon fill="white" stroke="black" points="212.5,-224.5 212.5,-243.5 295.5,-243.5 295.5,-224.5 212.5,-224.5"/>
<text text-anchor="middle" x="254" y="-231.5" font-family="Helvetica,sans-Serif" font-size="10.00">traffic_mngr.h</text>
</a>
</g>
</g>
<!-- Node23&#45;&gt;Node24 -->
<g id="edge27" class="edge"><title>Node23&#45;&gt;Node24</title>
<path fill="none" stroke="midnightblue" d="M254,-269.805C254,-260.91 254,-250.78 254,-243.751"/>
<polygon fill="midnightblue" stroke="midnightblue" points="250.5,-270.083 254,-280.083 257.5,-270.083 250.5,-270.083"/>
</g>
<!-- Node24&#45;&gt;Node9 -->
<g id="edge29" class="edge"><title>Node24&#45;&gt;Node9</title>
<path fill="none" stroke="midnightblue" d="M257.408,-214.282C262.849,-188.76 275.581,-142.714 301,-112 314.721,-95.4202 336.21,-83.1152 352.144,-75.6018"/>
<polygon fill="midnightblue" stroke="midnightblue" points="253.907,-213.946 255.402,-224.435 260.774,-215.303 253.907,-213.946"/>
</g>
<!-- Node24&#45;&gt;Node13 -->
<g id="edge28" class="edge"><title>Node24&#45;&gt;Node13</title>
<path fill="none" stroke="midnightblue" d="M273.314,-218.101C285.912,-208.382 301.928,-196.027 312.549,-187.834"/>
<polygon fill="midnightblue" stroke="midnightblue" points="271.027,-215.445 265.247,-224.324 275.302,-220.987 271.027,-215.445"/>
</g>
<!-- Node26 -->
<g id="node24" class="node"><title>Node26</title>
<g id="a_node24"><a xlink:href="api_2schedule_8h.html" target="_top" xlink:title="ODP schedule. ">
<polygon fill="white" stroke="black" points="504,-168.5 504,-187.5 572,-187.5 572,-168.5 504,-168.5"/>
<text text-anchor="middle" x="538" y="-175.5" font-family="Helvetica,sans-Serif" font-size="10.00">schedule.h</text>
</a>
</g>
</g>
<!-- Node25&#45;&gt;Node26 -->
<g id="edge32" class="edge"><title>Node25&#45;&gt;Node26</title>
<path fill="none" stroke="midnightblue" d="M538,-382.295C538,-336.644 538,-220.854 538,-187.884"/>
<polygon fill="midnightblue" stroke="midnightblue" points="534.5,-382.297 538,-392.297 541.5,-382.297 534.5,-382.297"/>
</g>
<!-- Node26&#45;&gt;Node9 -->
<g id="edge33" class="edge"><title>Node26&#45;&gt;Node9</title>
<path fill="none" stroke="midnightblue" d="M528.652,-159.209C520.251,-144.741 506.684,-124.708 490,-112 464.55,-92.6149 429.75,-80.6547 404.729,-73.9841"/>
<polygon fill="midnightblue" stroke="midnightblue" points="525.712,-161.125 533.618,-168.179 531.836,-157.735 525.712,-161.125"/>
</g>
<!-- Node28 -->
<g id="node26" class="node"><title>Node28</title>
<g id="a_node26"><a xlink:href="api_2packet__flags_8h.html" target="_top" xlink:title="ODP packet flags. ">
<polygon fill="white" stroke="black" points="628,-112.5 628,-131.5 714,-131.5 714,-112.5 628,-112.5"/>
<text text-anchor="middle" x="671" y="-119.5" font-family="Helvetica,sans-Serif" font-size="10.00">packet_flags.h</text>
</a>
</g>
</g>
<!-- Node27&#45;&gt;Node28 -->
<g id="edge38" class="edge"><title>Node27&#45;&gt;Node28</title>
<path fill="none" stroke="midnightblue" d="M671,-550.251C671,-528.357 671,-491.052 671,-459 671,-459 671,-459 671,-233 671,-195.188 671,-150.064 671,-131.558"/>
<polygon fill="midnightblue" stroke="midnightblue" points="667.5,-550.442 671,-560.442 674.5,-550.442 667.5,-550.442"/>
</g>
<!-- Node28&#45;&gt;Node9 -->
<g id="edge39" class="edge"><title>Node28&#45;&gt;Node9</title>
<path fill="none" stroke="midnightblue" d="M618.009,-111.398C556.029,-100.166 455.443,-81.9394 404.587,-72.7238"/>
<polygon fill="midnightblue" stroke="midnightblue" points="617.523,-114.866 627.986,-113.206 618.771,-107.979 617.523,-114.866"/>
</g>
</g>
</svg>
