<?xml version="1.0" encoding="UTF-8" standalone="no"?>
<!DOCTYPE svg PUBLIC "-//W3C//DTD SVG 1.1//EN"
 "http://www.w3.org/Graphics/SVG/1.1/DTD/svg11.dtd">
<!-- Generated by graphviz version 2.38.0 (20140413.2041)
 -->
<!-- Title: traffic_mngr.h Pages: 1 -->
<svg width="1575pt" height="845pt"
 viewBox="0.00 0.00 1575.00 845.00" xmlns="http://www.w3.org/2000/svg" xmlns:xlink="http://www.w3.org/1999/xlink">
<g id="graph0" class="graph" transform="scale(1 1) rotate(0) translate(4 841)">
<title>traffic_mngr.h</title>
<polygon fill="white" stroke="none" points="-4,4 -4,-841 1571,-841 1571,4 -4,4"/>
<!-- Node0 -->
<g id="node1" class="node"><title>Node0</title>
<polygon fill="#bfbfbf" stroke="black" points="118.5,-817.5 118.5,-836.5 201.5,-836.5 201.5,-817.5 118.5,-817.5"/>
<text text-anchor="middle" x="160" y="-824.5" font-family="Helvetica,sans-Serif" font-size="10.00">traffic_mngr.h</text>
</g>
<!-- Node1 -->
<g id="node2" class="node"><title>Node1</title>
<g id="a_node2"><a xlink:href="visibility__begin_8h_source.html" target="_top" xlink:title="odp/visibility_begin.h">
<polygon fill="white" stroke="black" points="516.5,-0.5 516.5,-19.5 631.5,-19.5 631.5,-0.5 516.5,-0.5"/>
<text text-anchor="middle" x="574" y="-7.5" font-family="Helvetica,sans-Serif" font-size="10.00">odp/visibility_begin.h</text>
</a>
</g>
</g>
<!-- Node0&#45;&gt;Node1 -->
<g id="edge1" class="edge"><title>Node0&#45;&gt;Node1</title>
<path fill="none" stroke="midnightblue" d="M121.268,-817.426C73.916,-804.392 0,-774.654 0,-716 0,-716 0,-716 0,-132 0,-85.7756 29.4645,-76.2853 71,-56 145.924,-19.4084 387.188,-12.3496 506.251,-11.1383"/>
<polygon fill="midnightblue" stroke="midnightblue" points="506.376,-14.6375 516.343,-11.0467 506.312,-7.63775 506.376,-14.6375"/>
</g>
<!-- Node2 -->
<g id="node3" class="node"><title>Node2</title>
<g id="a_node3"><a xlink:href="api_2std__types_8h.html" target="_top" xlink:title="Standard C language types and definitions for ODP. ">
<polygon fill="white" stroke="black" points="354,-246.5 354,-265.5 464,-265.5 464,-246.5 354,-246.5"/>
<text text-anchor="middle" x="409" y="-253.5" font-family="Helvetica,sans-Serif" font-size="10.00">odp/api/std_types.h</text>
</a>
</g>
</g>
<!-- Node0&#45;&gt;Node2 -->
<g id="edge2" class="edge"><title>Node0&#45;&gt;Node2</title>
<path fill="none" stroke="midnightblue" d="M137.053,-817.485C101.712,-802.711 38,-768.76 38,-716 38,-716 38,-716 38,-434 38,-300.052 237.435,-267.373 343.859,-259.471"/>
<polygon fill="midnightblue" stroke="midnightblue" points="344.123,-262.961 353.858,-258.781 343.641,-255.977 344.123,-262.961"/>
</g>
<!-- Node9 -->
<g id="node10" class="node"><title>Node9</title>
<g id="a_node10"><a xlink:href="visibility__end_8h_source.html" target="_top" xlink:title="odp/visibility_end.h">
<polygon fill="white" stroke="black" points="1285.5,-0.5 1285.5,-19.5 1392.5,-19.5 1392.5,-0.5 1285.5,-0.5"/>
<text text-anchor="middle" x="1339" y="-7.5" font-family="Helvetica,sans-Serif" font-size="10.00">odp/visibility_end.h</text>
</a>
</g>
</g>
<!-- Node0&#45;&gt;Node9 -->
<g id="edge76" class="edge"><title>Node0&#45;&gt;Node9</title>
<path fill="none" stroke="midnightblue" d="M201.727,-824.977C434.984,-818.993 1567,-786.327 1567,-716 1567,-716 1567,-716 1567,-132 1567,-57.3013 1470.33,-28.5792 1402.88,-17.6303"/>
<polygon fill="midnightblue" stroke="midnightblue" points="1403.16,-14.1318 1392.74,-16.0809 1402.1,-21.0514 1403.16,-14.1318"/>
</g>
<!-- Node10 -->
<g id="node11" class="node"><title>Node10</title>
<g id="a_node11"><a xlink:href="api_2packet__io_8h.html" target="_top" xlink:title="ODP Packet IO. ">
<polygon fill="white" stroke="black" points="227,-761.5 227,-780.5 337,-780.5 337,-761.5 227,-761.5"/>
<text text-anchor="middle" x="282" y="-768.5" font-family="Helvetica,sans-Serif" font-size="10.00">odp/api/packet_io.h</text>
</a>
</g>
</g>
<!-- Node0&#45;&gt;Node10 -->
<g id="edge13" class="edge"><title>Node0&#45;&gt;Node10</title>
<path fill="none" stroke="midnightblue" d="M179.331,-817.444C199.32,-808.596 230.743,-794.687 253.564,-784.586"/>
<polygon fill="midnightblue" stroke="midnightblue" points="255.032,-787.764 262.759,-780.516 252.198,-781.363 255.032,-787.764"/>
</g>
<!-- Node3 -->
<g id="node4" class="node"><title>Node3</title>
<polygon fill="white" stroke="#bfbfbf" points="157,-185 157,-204 285,-204 285,-185 157,-185"/>
<text text-anchor="middle" x="221" y="-192" font-family="Helvetica,sans-Serif" font-size="10.00">odp/api/abi/std_types.h</text>
</g>
<!-- Node2&#45;&gt;Node3 -->
<g id="edge3" class="edge"><title>Node2&#45;&gt;Node3</title>
<path fill="none" stroke="midnightblue" d="M382.064,-246.475C349.397,-236.136 294.181,-218.661 257.657,-207.102"/>
<polygon fill="midnightblue" stroke="midnightblue" points="258.476,-203.69 247.886,-204.009 256.364,-210.363 258.476,-203.69"/>
</g>
<!-- Node4 -->
<g id="node5" class="node"><title>Node4</title>
<g id="a_node5"><a xlink:href="api_2spec_2std__types_8h.html" target="_top" xlink:title="Standard C language types and definitions for ODP. ">
<polygon fill="white" stroke="black" points="341,-185 341,-204 477,-204 477,-185 341,-185"/>
<text text-anchor="middle" x="409" y="-192" font-family="Helvetica,sans-Serif" font-size="10.00">odp/api/spec/std_types.h</text>
</a>
</g>
</g>
<!-- Node2&#45;&gt;Node4 -->
<g id="edge4" class="edge"><title>Node2&#45;&gt;Node4</title>
<path fill="none" stroke="midnightblue" d="M409,-246.475C409,-238.08 409,-224.981 409,-214.163"/>
<polygon fill="midnightblue" stroke="midnightblue" points="412.5,-214.009 409,-204.009 405.5,-214.009 412.5,-214.009"/>
</g>
<!-- Node4&#45;&gt;Node1 -->
<g id="edge5" class="edge"><title>Node4&#45;&gt;Node1</title>
<path fill="none" stroke="midnightblue" d="M394.871,-184.687C360.489,-162.19 277.983,-101.222 316,-56 339.864,-27.6133 438.073,-17.1316 506.19,-13.2623"/>
<polygon fill="midnightblue" stroke="midnightblue" points="506.629,-16.744 516.429,-12.7172 506.257,-9.75395 506.629,-16.744"/>
</g>
<!-- Node5 -->
<g id="node6" class="node"><title>Node5</title>
<polygon fill="white" stroke="#bfbfbf" points="351.5,-123.5 351.5,-142.5 404.5,-142.5 404.5,-123.5 351.5,-123.5"/>
<text text-anchor="middle" x="378" y="-130.5" font-family="Helvetica,sans-Serif" font-size="10.00">stdint.h</text>
</g>
<!-- Node4&#45;&gt;Node5 -->
<g id="edge6" class="edge"><title>Node4&#45;&gt;Node5</title>
<path fill="none" stroke="midnightblue" d="M404.558,-184.975C400.047,-176.315 392.926,-162.649 387.193,-151.645"/>
<polygon fill="midnightblue" stroke="midnightblue" points="390.158,-149.76 382.433,-142.509 383.95,-152.995 390.158,-149.76"/>
</g>
<!-- Node6 -->
<g id="node7" class="node"><title>Node6</title>
<g id="a_node7"><a xlink:href="api_2align_8h.html" target="_top" xlink:title="ODP alignments. ">
<polygon fill="white" stroke="black" points="461,-123.5 461,-142.5 547,-142.5 547,-123.5 461,-123.5"/>
<text text-anchor="middle" x="504" y="-130.5" font-family="Helvetica,sans-Serif" font-size="10.00">odp/api/align.h</text>
</a>
</g>
</g>
<!-- Node4&#45;&gt;Node6 -->
<g id="edge7" class="edge"><title>Node4&#45;&gt;Node6</title>
<path fill="none" stroke="midnightblue" d="M422.611,-184.975C438.061,-175.299 463.49,-159.372 481.816,-147.894"/>
<polygon fill="midnightblue" stroke="midnightblue" points="483.797,-150.783 490.414,-142.509 480.081,-144.851 483.797,-150.783"/>
</g>
<!-- Node4&#45;&gt;Node9 -->
<g id="edge12" class="edge"><title>Node4&#45;&gt;Node9</title>
<path fill="none" stroke="midnightblue" d="M477.135,-188.207C634.707,-175.222 1019.84,-139.016 1138,-87 1157.95,-78.2185 1156.64,-66.0036 1176,-56 1207.66,-39.6473 1245.93,-28.6858 1277.44,-21.6789"/>
<polygon fill="midnightblue" stroke="midnightblue" points="1278.36,-25.0593 1287.41,-19.5412 1276.9,-18.2148 1278.36,-25.0593"/>
</g>
<!-- Node7 -->
<g id="node8" class="node"><title>Node7</title>
<polygon fill="white" stroke="#bfbfbf" points="358,-62 358,-81 462,-81 462,-62 358,-62"/>
<text text-anchor="middle" x="410" y="-69" font-family="Helvetica,sans-Serif" font-size="10.00">odp/api/abi/align.h</text>
</g>
<!-- Node6&#45;&gt;Node7 -->
<g id="edge8" class="edge"><title>Node6&#45;&gt;Node7</title>
<path fill="none" stroke="midnightblue" d="M490.532,-123.475C475.315,-113.843 450.313,-98.0175 432.199,-86.5517"/>
<polygon fill="midnightblue" stroke="midnightblue" points="433.764,-83.4002 423.443,-81.0091 430.021,-89.3149 433.764,-83.4002"/>
</g>
<!-- Node8 -->
<g id="node9" class="node"><title>Node8</title>
<g id="a_node9"><a xlink:href="api_2spec_2align_8h.html" target="_top" xlink:title="ODP alignments. ">
<polygon fill="white" stroke="black" points="518,-62 518,-81 630,-81 630,-62 518,-62"/>
<text text-anchor="middle" x="574" y="-69" font-family="Helvetica,sans-Serif" font-size="10.00">odp/api/spec/align.h</text>
</a>
</g>
</g>
<!-- Node6&#45;&gt;Node8 -->
<g id="edge9" class="edge"><title>Node6&#45;&gt;Node8</title>
<path fill="none" stroke="midnightblue" d="M514.029,-123.475C525.049,-114.108 542.96,-98.8839 556.343,-87.5081"/>
<polygon fill="midnightblue" stroke="midnightblue" points="558.637,-90.1524 563.989,-81.0091 554.103,-84.8188 558.637,-90.1524"/>
</g>
<!-- Node8&#45;&gt;Node1 -->
<g id="edge10" class="edge"><title>Node8&#45;&gt;Node1</title>
<path fill="none" stroke="midnightblue" d="M574,-61.9751C574,-53.5803 574,-40.4806 574,-29.6631"/>
<polygon fill="midnightblue" stroke="midnightblue" points="577.5,-29.5091 574,-19.5091 570.5,-29.5091 577.5,-29.5091"/>
</g>
<!-- Node8&#45;&gt;Node9 -->
<g id="edge11" class="edge"><title>Node8&#45;&gt;Node9</title>
<path fill="none" stroke="midnightblue" d="M607.553,-61.9719C617.607,-59.6999 628.699,-57.471 639,-56 871.76,-22.7621 1151.59,-14.0635 1275.1,-11.7954"/>
<polygon fill="midnightblue" stroke="midnightblue" points="1275.2,-15.2942 1285.14,-11.6189 1275.08,-8.29526 1275.2,-15.2942"/>
</g>
<!-- Node10&#45;&gt;Node2 -->
<g id="edge14" class="edge"><title>Node10&#45;&gt;Node2</title>
<path fill="none" stroke="midnightblue" d="M238.736,-761.389C188.959,-748.668 114,-719.615 114,-660 114,-660 114,-660 114,-378 114,-326.535 269.63,-285.997 354.812,-267.663"/>
<polygon fill="midnightblue" stroke="midnightblue" points="355.779,-271.036 364.836,-265.538 354.327,-264.188 355.779,-271.036"/>
</g>
<!-- Node11 -->
<g id="node12" class="node"><title>Node11</title>
<polygon fill="white" stroke="#bfbfbf" points="1285.5,-369.5 1285.5,-388.5 1386.5,-388.5 1386.5,-369.5 1285.5,-369.5"/>
<text text-anchor="middle" x="1336" y="-376.5" font-family="Helvetica,sans-Serif" font-size="10.00">odp/api/abi/pool.h</text>
</g>
<!-- Node10&#45;&gt;Node11 -->
<g id="edge15" class="edge"><title>Node10&#45;&gt;Node11</title>
<path fill="none" stroke="midnightblue" d="M337.09,-767.916C573.606,-758.615 1491,-718.75 1491,-660 1491,-660 1491,-660 1491,-602 1491,-508.964 1398.35,-427.09 1356.31,-394.729"/>
<polygon fill="midnightblue" stroke="midnightblue" points="1358.26,-391.81 1348.16,-388.588 1354.04,-397.401 1358.26,-391.81"/>
</g>
<!-- Node12 -->
<g id="node13" class="node"><title>Node12</title>
<polygon fill="white" stroke="#bfbfbf" points="261,-705.5 261,-724.5 403,-724.5 403,-705.5 261,-705.5"/>
<text text-anchor="middle" x="332" y="-712.5" font-family="Helvetica,sans-Serif" font-size="10.00">odp/api/abi/classification.h</text>
</g>
<!-- Node10&#45;&gt;Node12 -->
<g id="edge16" class="edge"><title>Node10&#45;&gt;Node12</title>
<path fill="none" stroke="midnightblue" d="M290.256,-761.083C297.465,-753.298 308.11,-741.801 316.846,-732.367"/>
<polygon fill="midnightblue" stroke="midnightblue" points="319.671,-734.467 323.897,-724.751 314.535,-729.711 319.671,-734.467"/>
</g>
<!-- Node13 -->
<g id="node14" class="node"><title>Node13</title>
<polygon fill="white" stroke="#bfbfbf" points="142.5,-369.5 142.5,-388.5 255.5,-388.5 255.5,-369.5 142.5,-369.5"/>
<text text-anchor="middle" x="199" y="-376.5" font-family="Helvetica,sans-Serif" font-size="10.00">odp/api/abi/packet.h</text>
</g>
<!-- Node10&#45;&gt;Node13 -->
<g id="edge17" class="edge"><title>Node10&#45;&gt;Node13</title>
<path fill="none" stroke="midnightblue" d="M268.022,-761.321C243.429,-744.848 195,-706.505 195,-660 195,-660 195,-660 195,-490 195,-457.927 196.719,-420.628 197.904,-398.741"/>
<polygon fill="midnightblue" stroke="midnightblue" points="201.409,-398.735 198.477,-388.554 194.42,-398.341 201.409,-398.735"/>
</g>
<!-- Node14 -->
<g id="node15" class="node"><title>Node14</title>
<polygon fill="white" stroke="#bfbfbf" points="273.5,-369.5 273.5,-388.5 400.5,-388.5 400.5,-369.5 273.5,-369.5"/>
<text text-anchor="middle" x="337" y="-376.5" font-family="Helvetica,sans-Serif" font-size="10.00">odp/api/abi/packet_io.h</text>
</g>
<!-- Node10&#45;&gt;Node14 -->
<g id="edge18" class="edge"><title>Node10&#45;&gt;Node14</title>
<path fill="none" stroke="midnightblue" d="M275.187,-761.458C261.723,-743.688 233,-700.976 233,-660 233,-660 233,-660 233,-490 233,-445.223 279.064,-411.325 309.879,-393.658"/>
<polygon fill="midnightblue" stroke="midnightblue" points="311.811,-396.59 318.885,-388.702 308.436,-390.457 311.811,-396.59"/>
</g>
<!-- Node15 -->
<g id="node16" class="node"><title>Node15</title>
<polygon fill="white" stroke="#bfbfbf" points="389.5,-593.5 389.5,-612.5 500.5,-612.5 500.5,-593.5 389.5,-593.5"/>
<text text-anchor="middle" x="445" y="-600.5" font-family="Helvetica,sans-Serif" font-size="10.00">odp/api/abi/queue.h</text>
</g>
<!-- Node10&#45;&gt;Node15 -->
<g id="edge19" class="edge"><title>Node10&#45;&gt;Node15</title>
<path fill="none" stroke="midnightblue" d="M337.165,-762.966C363.132,-756.942 392.587,-745.759 412,-725 438.558,-696.6 444.122,-648.945 445.058,-622.716"/>
<polygon fill="midnightblue" stroke="midnightblue" points="448.559,-622.667 445.223,-612.612 441.56,-622.553 448.559,-622.667"/>
</g>
<!-- Node16 -->
<g id="node17" class="node"><title>Node16</title>
<g id="a_node17"><a xlink:href="api_2spec_2packet__io_8h.html" target="_top" xlink:title="ODP Packet IO. ">
<polygon fill="white" stroke="black" points="573.5,-705.5 573.5,-724.5 708.5,-724.5 708.5,-705.5 573.5,-705.5"/>
<text text-anchor="middle" x="641" y="-712.5" font-family="Helvetica,sans-Serif" font-size="10.00">odp/api/spec/packet_io.h</text>
</a>
</g>
</g>
<!-- Node10&#45;&gt;Node16 -->
<g id="edge20" class="edge"><title>Node10&#45;&gt;Node16</title>
<path fill="none" stroke="midnightblue" d="M337.307,-761.681C401.101,-752.085 505.946,-736.315 574.229,-726.044"/>
<polygon fill="midnightblue" stroke="midnightblue" points="575.077,-729.455 584.445,-724.507 574.036,-722.533 575.077,-729.455"/>
</g>
<!-- Node16&#45;&gt;Node1 -->
<g id="edge21" class="edge"><title>Node16&#45;&gt;Node1</title>
<path fill="none" stroke="midnightblue" d="M604.187,-705.486C473.267,-672.812 38,-542.699 38,-257 38,-257 38,-257 38,-132 38,-37.0337 362.2,-16.5951 506.325,-12.2011"/>
<polygon fill="midnightblue" stroke="midnightblue" points="506.489,-15.6979 516.384,-11.9116 506.288,-8.70081 506.489,-15.6979"/>
</g>
<!-- Node16&#45;&gt;Node9 -->
<g id="edge75" class="edge"><title>Node16&#45;&gt;Node9</title>
<path fill="none" stroke="midnightblue" d="M708.576,-712.236C853.012,-707.998 1187.61,-695.568 1298,-669 1359.56,-654.184 1385.97,-659.455 1429,-613 1522.93,-511.585 1529,-456.729 1529,-318.5 1529,-318.5 1529,-318.5 1529,-132 1529,-68.1765 1451.78,-36.5527 1395.8,-22.0123"/>
<polygon fill="midnightblue" stroke="midnightblue" points="1396.51,-18.5838 1385.97,-19.5747 1394.83,-25.3782 1396.51,-18.5838"/>
</g>
<!-- Node17 -->
<g id="node18" class="node"><title>Node17</title>
<g id="a_node18"><a xlink:href="deprecated_8h.html" target="_top" xlink:title="Control deprecated API definitions. ">
<polygon fill="white" stroke="black" points="997.5,-246.5 997.5,-265.5 1116.5,-265.5 1116.5,-246.5 997.5,-246.5"/>
<text text-anchor="middle" x="1057" y="-253.5" font-family="Helvetica,sans-Serif" font-size="10.00">odp/api/deprecated.h</text>
</a>
</g>
</g>
<!-- Node16&#45;&gt;Node17 -->
<g id="edge22" class="edge"><title>Node16&#45;&gt;Node17</title>
<path fill="none" stroke="midnightblue" d="M708.671,-711.452C897.261,-703.459 1415,-675.044 1415,-604 1415,-604 1415,-604 1415,-378 1415,-317.761 1230.79,-281.683 1126.65,-266.099"/>
<polygon fill="midnightblue" stroke="midnightblue" points="1126.92,-262.602 1116.52,-264.611 1125.9,-269.528 1126.92,-262.602"/>
</g>
<!-- Node19 -->
<g id="node20" class="node"><title>Node19</title>
<g id="a_node20"><a xlink:href="packet__io__stats_8h.html" target="_top" xlink:title="ODP packet IO stats. ">
<polygon fill="white" stroke="black" points="777.5,-649.5 777.5,-668.5 916.5,-668.5 916.5,-649.5 777.5,-649.5"/>
<text text-anchor="middle" x="847" y="-656.5" font-family="Helvetica,sans-Serif" font-size="10.00">odp/api/packet_io_stats.h</text>
</a>
</g>
</g>
<!-- Node16&#45;&gt;Node19 -->
<g id="edge26" class="edge"><title>Node16&#45;&gt;Node19</title>
<path fill="none" stroke="midnightblue" d="M673.641,-705.444C709.05,-696.162 765.709,-681.309 804.553,-671.127"/>
<polygon fill="midnightblue" stroke="midnightblue" points="805.726,-674.438 814.511,-668.516 803.951,-667.667 805.726,-674.438"/>
</g>
<!-- Node21 -->
<g id="node22" class="node"><title>Node21</title>
<g id="a_node22"><a xlink:href="api_2queue_8h.html" target="_top" xlink:title="ODP queue. ">
<polygon fill="white" stroke="black" points="665,-649.5 665,-668.5 759,-668.5 759,-649.5 665,-649.5"/>
<text text-anchor="middle" x="712" y="-656.5" font-family="Helvetica,sans-Serif" font-size="10.00">odp/api/queue.h</text>
</a>
</g>
</g>
<!-- Node16&#45;&gt;Node21 -->
<g id="edge30" class="edge"><title>Node16&#45;&gt;Node21</title>
<path fill="none" stroke="midnightblue" d="M652.407,-705.324C663.109,-697.185 679.341,-684.839 692.163,-675.087"/>
<polygon fill="midnightblue" stroke="midnightblue" points="694.544,-677.673 700.385,-668.834 690.307,-672.102 694.544,-677.673"/>
</g>
<!-- Node27 -->
<g id="node28" class="node"><title>Node27</title>
<g id="a_node28"><a xlink:href="api_2packet_8h.html" target="_top" xlink:title="ODP packet descriptor. ">
<polygon fill="white" stroke="black" points="598,-425.5 598,-444.5 694,-444.5 694,-425.5 598,-425.5"/>
<text text-anchor="middle" x="646" y="-432.5" font-family="Helvetica,sans-Serif" font-size="10.00">odp/api/packet.h</text>
</a>
</g>
</g>
<!-- Node16&#45;&gt;Node27 -->
<g id="edge74" class="edge"><title>Node16&#45;&gt;Node27</title>
<path fill="none" stroke="midnightblue" d="M641.155,-705.375C641.849,-666.782 644.679,-509.454 645.662,-454.807"/>
<polygon fill="midnightblue" stroke="midnightblue" points="649.166,-454.586 645.847,-444.524 642.167,-454.46 649.166,-454.586"/>
</g>
<!-- Node29 -->
<g id="node30" class="node"><title>Node29</title>
<g id="a_node30"><a xlink:href="api_2time_8h.html" target="_top" xlink:title="ODP time. ">
<polygon fill="white" stroke="black" points="580,-308 580,-327 666,-327 666,-308 580,-308"/>
<text text-anchor="middle" x="623" y="-315" font-family="Helvetica,sans-Serif" font-size="10.00">odp/api/time.h</text>
</a>
</g>
</g>
<!-- Node16&#45;&gt;Node29 -->
<g id="edge73" class="edge"><title>Node16&#45;&gt;Node29</title>
<path fill="none" stroke="midnightblue" d="M621.764,-705.415C590.472,-689.986 532,-654.41 532,-604 532,-604 532,-604 532,-490 532,-434.594 532.515,-415.909 562,-369 571.333,-354.152 586.511,-341.562 599.391,-332.667"/>
<polygon fill="midnightblue" stroke="midnightblue" points="601.405,-335.532 607.842,-327.117 597.562,-329.681 601.405,-335.532"/>
</g>
<!-- Node18 -->
<g id="node19" class="node"><title>Node18</title>
<g id="a_node19"><a xlink:href="spec_2deprecated_8h.html" target="_top" xlink:title="Macro for deprecated API definitions. ">
<polygon fill="white" stroke="black" points="985,-62 985,-81 1129,-81 1129,-62 985,-62"/>
<text text-anchor="middle" x="1057" y="-69" font-family="Helvetica,sans-Serif" font-size="10.00">odp/api/spec/deprecated.h</text>
</a>
</g>
</g>
<!-- Node17&#45;&gt;Node18 -->
<g id="edge23" class="edge"><title>Node17&#45;&gt;Node18</title>
<path fill="none" stroke="midnightblue" d="M1057,-246.198C1057,-218.193 1057,-130.713 1057,-91.6598"/>
<polygon fill="midnightblue" stroke="midnightblue" points="1060.5,-91.214 1057,-81.214 1053.5,-91.2141 1060.5,-91.214"/>
</g>
<!-- Node18&#45;&gt;Node1 -->
<g id="edge24" class="edge"><title>Node18&#45;&gt;Node1</title>
<path fill="none" stroke="midnightblue" d="M1009.31,-61.986C996.86,-59.8936 983.444,-57.7531 971,-56 855.799,-39.7714 721.143,-25.492 641.972,-17.5736"/>
<polygon fill="midnightblue" stroke="midnightblue" points="641.948,-14.054 631.651,-16.5459 641.255,-21.0195 641.948,-14.054"/>
</g>
<!-- Node18&#45;&gt;Node9 -->
<g id="edge25" class="edge"><title>Node18&#45;&gt;Node9</title>
<path fill="none" stroke="midnightblue" d="M1097.4,-61.9751C1147.87,-51.3269 1234.21,-33.1092 1288.85,-21.5806"/>
<polygon fill="midnightblue" stroke="midnightblue" points="1289.61,-24.9982 1298.67,-19.5091 1288.16,-18.149 1289.61,-24.9982"/>
</g>
<!-- Node20 -->
<g id="node21" class="node"><title>Node20</title>
<g id="a_node21"><a xlink:href="spec_2packet__io__stats_8h.html" target="_top" xlink:title="ODP Packet IO. ">
<polygon fill="white" stroke="black" points="777.5,-56.5 777.5,-86.5 890.5,-86.5 890.5,-56.5 777.5,-56.5"/>
<text text-anchor="start" x="785.5" y="-74.5" font-family="Helvetica,sans-Serif" font-size="10.00">odp/api/spec/packet</text>
<text text-anchor="middle" x="834" y="-63.5" font-family="Helvetica,sans-Serif" font-size="10.00">_io_stats.h</text>
</a>
</g>
</g>
<!-- Node19&#45;&gt;Node20 -->
<g id="edge27" class="edge"><title>Node19&#45;&gt;Node20</title>
<path fill="none" stroke="midnightblue" d="M847,-649.442C847,-630.936 847,-585.812 847,-548 847,-548 847,-548 847,-434 847,-355.328 845,-335.672 845,-257 845,-257 845,-257 845,-193.5 845,-159.843 840.727,-121.134 837.507,-96.7473"/>
<polygon fill="midnightblue" stroke="midnightblue" points="840.945,-96.0528 836.121,-86.6197 834.009,-97.002 840.945,-96.0528"/>
</g>
<!-- Node20&#45;&gt;Node1 -->
<g id="edge28" class="edge"><title>Node20&#45;&gt;Node1</title>
<path fill="none" stroke="midnightblue" d="M777.263,-57.516C730.548,-46.8254 665.093,-31.8462 621.203,-21.8022"/>
<polygon fill="midnightblue" stroke="midnightblue" points="621.887,-18.3683 611.358,-19.5493 620.325,-25.1919 621.887,-18.3683"/>
</g>
<!-- Node20&#45;&gt;Node9 -->
<g id="edge29" class="edge"><title>Node20&#45;&gt;Node9</title>
<path fill="none" stroke="midnightblue" d="M890.948,-63.7903C985.868,-52.6066 1175.78,-30.2303 1275.12,-18.5265"/>
<polygon fill="midnightblue" stroke="midnightblue" points="1275.8,-21.9712 1285.32,-17.3251 1274.98,-15.0193 1275.8,-21.9712"/>
</g>
<!-- Node21&#45;&gt;Node2 -->
<g id="edge31" class="edge"><title>Node21&#45;&gt;Node2</title>
<path fill="none" stroke="midnightblue" d="M704.354,-649.296C672.104,-612.399 544.671,-464.745 454,-333 440.736,-313.727 427.298,-290.431 418.605,-274.753"/>
<polygon fill="midnightblue" stroke="midnightblue" points="421.502,-272.757 413.627,-265.67 415.363,-276.121 421.502,-272.757"/>
</g>
<!-- Node21&#45;&gt;Node11 -->
<g id="edge35" class="edge"><title>Node21&#45;&gt;Node11</title>
<path fill="none" stroke="midnightblue" d="M759.019,-650.194C762.055,-649.767 765.068,-649.364 768,-649 948.647,-626.543 1000.14,-660.034 1176,-613 1242.27,-595.275 1316,-616.602 1316,-548 1316,-548 1316,-548 1316,-490 1316,-457.438 1324.59,-420.315 1330.51,-398.592"/>
<polygon fill="midnightblue" stroke="midnightblue" points="1333.94,-399.317 1333.3,-388.742 1327.21,-397.408 1333.94,-399.317"/>
</g>
<!-- Node21&#45;&gt;Node15 -->
<g id="edge33" class="edge"><title>Node21&#45;&gt;Node15</title>
<path fill="none" stroke="midnightblue" d="M669.693,-649.444C622.92,-639.984 547.54,-624.738 497.15,-614.547"/>
<polygon fill="midnightblue" stroke="midnightblue" points="497.604,-611.068 487.109,-612.516 496.217,-617.929 497.604,-611.068"/>
</g>
<!-- Node22 -->
<g id="node23" class="node"><title>Node22</title>
<polygon fill="white" stroke="#bfbfbf" points="1121,-369.5 1121,-388.5 1229,-388.5 1229,-369.5 1121,-369.5"/>
<text text-anchor="middle" x="1175" y="-376.5" font-family="Helvetica,sans-Serif" font-size="10.00">odp/api/abi/event.h</text>
</g>
<!-- Node21&#45;&gt;Node22 -->
<g id="edge32" class="edge"><title>Node21&#45;&gt;Node22</title>
<path fill="none" stroke="midnightblue" d="M759.05,-650.413C762.078,-649.932 765.082,-649.458 768,-649 869.463,-633.075 1219,-650.705 1219,-548 1219,-548 1219,-548 1219,-490 1219,-455.04 1199.6,-418.013 1186.57,-397.075"/>
<polygon fill="midnightblue" stroke="midnightblue" points="1189.49,-395.146 1181.12,-388.651 1183.61,-398.949 1189.49,-395.146"/>
</g>
<!-- Node23 -->
<g id="node24" class="node"><title>Node23</title>
<polygon fill="white" stroke="#bfbfbf" points="711,-369.5 711,-388.5 819,-388.5 819,-369.5 711,-369.5"/>
<text text-anchor="middle" x="765" y="-376.5" font-family="Helvetica,sans-Serif" font-size="10.00">odp/api/abi/buffer.h</text>
</g>
<!-- Node21&#45;&gt;Node23 -->
<g id="edge34" class="edge"><title>Node21&#45;&gt;Node23</title>
<path fill="none" stroke="midnightblue" d="M713.438,-649.471C716.42,-631.022 723,-586.001 723,-548 723,-548 723,-548 723,-490 723,-455.412 741.348,-418.492 753.79,-397.432"/>
<polygon fill="midnightblue" stroke="midnightblue" points="756.907,-399.045 759.16,-388.692 750.943,-395.38 756.907,-399.045"/>
</g>
<!-- Node24 -->
<g id="node25" class="node"><title>Node24</title>
<g id="a_node25"><a xlink:href="api_2spec_2queue_8h.html" target="_top" xlink:title="ODP queue. ">
<polygon fill="white" stroke="black" points="875.5,-593.5 875.5,-612.5 994.5,-612.5 994.5,-593.5 875.5,-593.5"/>
<text text-anchor="middle" x="935" y="-600.5" font-family="Helvetica,sans-Serif" font-size="10.00">odp/api/spec/queue.h</text>
</a>
</g>
</g>
<!-- Node21&#45;&gt;Node24 -->
<g id="edge36" class="edge"><title>Node21&#45;&gt;Node24</title>
<path fill="none" stroke="midnightblue" d="M747.335,-649.444C785.911,-640.102 847.785,-625.119 889.853,-614.933"/>
<polygon fill="midnightblue" stroke="midnightblue" points="890.935,-618.272 899.83,-612.516 889.287,-611.468 890.935,-618.272"/>
</g>
<!-- Node24&#45;&gt;Node1 -->
<g id="edge37" class="edge"><title>Node24&#45;&gt;Node1</title>
<path fill="none" stroke="midnightblue" d="M901.092,-593.432C834.898,-575.345 686.439,-527.958 589,-445 537.613,-401.25 505,-385.989 505,-318.5 505,-318.5 505,-318.5 505,-255 505,-220.183 505.101,-208.11 486,-179 463.567,-144.812 447.128,-145.525 413,-123 385.762,-105.023 365.476,-115.171 349,-87 342.044,-75.1069 340.265,-66.6549 349,-56 368.637,-32.047 447.438,-20.5898 506.28,-15.2857"/>
<polygon fill="midnightblue" stroke="midnightblue" points="506.614,-18.7701 516.277,-14.4257 506.014,-11.7958 506.614,-18.7701"/>
</g>
<!-- Node24&#45;&gt;Node9 -->
<g id="edge72" class="edge"><title>Node24&#45;&gt;Node9</title>
<path fill="none" stroke="midnightblue" d="M970.541,-593.477C997.157,-586.174 1033.85,-574.106 1063,-557 1171.91,-493.103 1163.33,-425.998 1276,-369 1343.36,-334.922 1379.94,-375.99 1442,-333 1475.04,-310.114 1491,-297.19 1491,-257 1491,-257 1491,-257 1491,-132 1491,-74.1806 1422.85,-39.5401 1377.81,-22.962"/>
<polygon fill="midnightblue" stroke="midnightblue" points="1378.9,-19.6355 1368.31,-19.6024 1376.57,-26.2353 1378.9,-19.6355"/>
</g>
<!-- Node25 -->
<g id="node26" class="node"><title>Node25</title>
<g id="a_node26"><a xlink:href="api_2event_8h.html" target="_top" xlink:title="ODP event. ">
<polygon fill="white" stroke="black" points="963.5,-537.5 963.5,-556.5 1054.5,-556.5 1054.5,-537.5 963.5,-537.5"/>
<text text-anchor="middle" x="1009" y="-544.5" font-family="Helvetica,sans-Serif" font-size="10.00">odp/api/event.h</text>
</a>
</g>
</g>
<!-- Node24&#45;&gt;Node25 -->
<g id="edge38" class="edge"><title>Node24&#45;&gt;Node25</title>
<path fill="none" stroke="midnightblue" d="M946.889,-593.324C958.15,-585.107 975.287,-572.602 988.709,-562.807"/>
<polygon fill="midnightblue" stroke="midnightblue" points="990.88,-565.556 996.894,-556.834 986.753,-559.901 990.88,-565.556"/>
</g>
<!-- Node32 -->
<g id="node33" class="node"><title>Node32</title>
<g id="a_node33"><a xlink:href="queue__types_8h.html" target="_top" xlink:title="ODP queue types. ">
<polygon fill="white" stroke="black" points="1002,-302.5 1002,-332.5 1112,-332.5 1112,-302.5 1002,-302.5"/>
<text text-anchor="start" x="1010" y="-320.5" font-family="Helvetica,sans-Serif" font-size="10.00">odp/api/spec/queue</text>
<text text-anchor="middle" x="1057" y="-309.5" font-family="Helvetica,sans-Serif" font-size="10.00">_types.h</text>
</a>
</g>
</g>
<!-- Node24&#45;&gt;Node32 -->
<g id="edge59" class="edge"><title>Node24&#45;&gt;Node32</title>
<path fill="none" stroke="midnightblue" d="M933.431,-593.477C930.178,-575.038 923,-530.037 923,-492 923,-492 923,-492 923,-434 923,-387.141 970.595,-355.111 1009.05,-336.879"/>
<polygon fill="midnightblue" stroke="midnightblue" points="1010.95,-339.864 1018.6,-332.54 1008.05,-333.492 1010.95,-339.864"/>
</g>
<!-- Node25&#45;&gt;Node22 -->
<g id="edge39" class="edge"><title>Node25&#45;&gt;Node22</title>
<path fill="none" stroke="midnightblue" d="M1024.28,-537.499C1038.49,-529.203 1059.83,-515.711 1076,-501 1112.14,-468.119 1146.4,-421.655 1163.56,-396.966"/>
<polygon fill="midnightblue" stroke="midnightblue" points="1166.5,-398.87 1169.27,-388.643 1160.73,-394.911 1166.5,-398.87"/>
</g>
<!-- Node26 -->
<g id="node27" class="node"><title>Node26</title>
<g id="a_node27"><a xlink:href="api_2spec_2event_8h.html" target="_top" xlink:title="ODP event. ">
<polygon fill="white" stroke="black" points="951,-481.5 951,-500.5 1067,-500.5 1067,-481.5 951,-481.5"/>
<text text-anchor="middle" x="1009" y="-488.5" font-family="Helvetica,sans-Serif" font-size="10.00">odp/api/spec/event.h</text>
</a>
</g>
</g>
<!-- Node25&#45;&gt;Node26 -->
<g id="edge40" class="edge"><title>Node25&#45;&gt;Node26</title>
<path fill="none" stroke="midnightblue" d="M1009,-537.083C1009,-530.006 1009,-519.861 1009,-510.986"/>
<polygon fill="midnightblue" stroke="midnightblue" points="1012.5,-510.751 1009,-500.751 1005.5,-510.751 1012.5,-510.751"/>
</g>
<!-- Node26&#45;&gt;Node1 -->
<g id="edge41" class="edge"><title>Node26&#45;&gt;Node1</title>
<path fill="none" stroke="midnightblue" d="M998.612,-481.468C974.489,-461.662 912.786,-411.052 861,-369 725.808,-259.218 692.916,-230.624 556,-123 535.313,-106.739 520.648,-110.594 509,-87 502.901,-74.6457 502.606,-68.2041 509,-56 516.279,-42.1082 530.009,-31.6523 542.983,-24.3328"/>
<polygon fill="midnightblue" stroke="midnightblue" points="544.928,-27.2662 552.192,-19.553 541.704,-21.0532 544.928,-27.2662"/>
</g>
<!-- Node26&#45;&gt;Node9 -->
<g id="edge58" class="edge"><title>Node26&#45;&gt;Node9</title>
<path fill="none" stroke="midnightblue" d="M1014.05,-481.261C1027.25,-459.155 1065.05,-400.533 1112,-369 1244.42,-280.055 1453,-416.521 1453,-257 1453,-257 1453,-257 1453,-132 1453,-81.3476 1399.42,-43.2775 1365.73,-24.3435"/>
<polygon fill="midnightblue" stroke="midnightblue" points="1367.27,-21.1998 1356.81,-19.516 1363.94,-27.3554 1367.27,-21.1998"/>
</g>
<!-- Node26&#45;&gt;Node27 -->
<g id="edge42" class="edge"><title>Node26&#45;&gt;Node27</title>
<path fill="none" stroke="midnightblue" d="M951.482,-481.444C883.882,-471.387 772.33,-454.793 704.366,-444.683"/>
<polygon fill="midnightblue" stroke="midnightblue" points="704.662,-441.188 694.256,-443.179 703.632,-448.112 704.662,-441.188"/>
</g>
<!-- Node27&#45;&gt;Node2 -->
<g id="edge43" class="edge"><title>Node27&#45;&gt;Node2</title>
<path fill="none" stroke="midnightblue" d="M627.3,-425.454C609.813,-417.126 583.274,-403.612 562,-389 508.276,-352.101 451.95,-299.24 425.093,-273.017"/>
<polygon fill="midnightblue" stroke="midnightblue" points="427.322,-270.3 417.739,-265.781 422.412,-275.29 427.322,-270.3"/>
</g>
<!-- Node27&#45;&gt;Node11 -->
<g id="edge48" class="edge"><title>Node27&#45;&gt;Node11</title>
<path fill="none" stroke="midnightblue" d="M694.365,-430.582C795.388,-423.386 1036.17,-405.938 1238,-389 1250.04,-387.99 1262.9,-386.851 1275.22,-385.732"/>
<polygon fill="midnightblue" stroke="midnightblue" points="1275.76,-389.197 1285.4,-384.8 1275.12,-382.226 1275.76,-389.197"/>
</g>
<!-- Node27&#45;&gt;Node13 -->
<g id="edge46" class="edge"><title>Node27&#45;&gt;Node13</title>
<path fill="none" stroke="midnightblue" d="M597.72,-428.631C527.118,-420.71 391.293,-405.205 265.876,-389.221"/>
<polygon fill="midnightblue" stroke="midnightblue" points="266.074,-385.718 255.711,-387.921 265.187,-392.661 266.074,-385.718"/>
</g>
<!-- Node27&#45;&gt;Node14 -->
<g id="edge45" class="edge"><title>Node27&#45;&gt;Node14</title>
<path fill="none" stroke="midnightblue" d="M597.719,-425.562C543.196,-416.034 454.468,-400.528 395.913,-390.296"/>
<polygon fill="midnightblue" stroke="midnightblue" points="396.16,-386.786 385.706,-388.512 394.954,-393.681 396.16,-386.786"/>
</g>
<!-- Node27&#45;&gt;Node22 -->
<g id="edge44" class="edge"><title>Node27&#45;&gt;Node22</title>
<path fill="none" stroke="midnightblue" d="M694.348,-429.065C789.97,-419.304 1003.27,-397.53 1110.64,-386.57"/>
<polygon fill="midnightblue" stroke="midnightblue" points="1111.1,-390.041 1120.69,-385.544 1110.39,-383.077 1111.1,-390.041"/>
</g>
<!-- Node27&#45;&gt;Node23 -->
<g id="edge47" class="edge"><title>Node27&#45;&gt;Node23</title>
<path fill="none" stroke="midnightblue" d="M664.856,-425.444C684.266,-416.636 714.73,-402.812 736.965,-392.722"/>
<polygon fill="midnightblue" stroke="midnightblue" points="738.572,-395.836 746.232,-388.516 735.68,-389.462 738.572,-395.836"/>
</g>
<!-- Node28 -->
<g id="node29" class="node"><title>Node28</title>
<g id="a_node29"><a xlink:href="api_2spec_2packet_8h.html" target="_top" xlink:title="ODP packet descriptor. ">
<polygon fill="white" stroke="black" points="571,-369.5 571,-388.5 693,-388.5 693,-369.5 571,-369.5"/>
<text text-anchor="middle" x="632" y="-376.5" font-family="Helvetica,sans-Serif" font-size="10.00">odp/api/spec/packet.h</text>
</a>
</g>
</g>
<!-- Node27&#45;&gt;Node28 -->
<g id="edge49" class="edge"><title>Node27&#45;&gt;Node28</title>
<path fill="none" stroke="midnightblue" d="M643.688,-425.083C641.833,-417.927 639.165,-407.635 636.846,-398.691"/>
<polygon fill="midnightblue" stroke="midnightblue" points="640.166,-397.553 634.269,-388.751 633.391,-399.309 640.166,-397.553"/>
</g>
<!-- Node28&#45;&gt;Node1 -->
<g id="edge50" class="edge"><title>Node28&#45;&gt;Node1</title>
<path fill="none" stroke="midnightblue" d="M619.602,-369.353C607.1,-360.518 587.362,-346.253 571,-333 525.741,-296.341 524.444,-273.307 473,-246 415.872,-215.676 377.31,-256.153 332,-210 292.653,-169.921 309.488,-142.79 303,-87 301.408,-73.3145 294.091,-66.5101 303,-56 328.535,-25.8752 434.44,-15.8943 506.047,-12.6017"/>
<polygon fill="midnightblue" stroke="midnightblue" points="506.507,-16.0854 516.349,-12.1629 506.209,-9.09171 506.507,-16.0854"/>
</g>
<!-- Node28&#45;&gt;Node9 -->
<g id="edge57" class="edge"><title>Node28&#45;&gt;Node9</title>
<path fill="none" stroke="midnightblue" d="M693.065,-369.995C696.085,-369.647 699.076,-369.313 702,-369 980.613,-339.134 1076.63,-397.618 1324,-266 1369.17,-241.969 1415,-246.662 1415,-195.5 1415,-195.5 1415,-195.5 1415,-132 1415,-88.4754 1379.3,-47.7746 1356.84,-26.4715"/>
<polygon fill="midnightblue" stroke="midnightblue" points="1358.99,-23.6984 1349.25,-19.5313 1354.27,-28.8634 1358.99,-23.6984"/>
</g>
<!-- Node28&#45;&gt;Node29 -->
<g id="edge51" class="edge"><title>Node28&#45;&gt;Node29</title>
<path fill="none" stroke="midnightblue" d="M630.711,-369.475C629.441,-361.08 627.459,-347.981 625.823,-337.163"/>
<polygon fill="midnightblue" stroke="midnightblue" points="629.243,-336.373 624.287,-327.009 622.322,-337.42 629.243,-336.373"/>
</g>
<!-- Node29&#45;&gt;Node2 -->
<g id="edge52" class="edge"><title>Node29&#45;&gt;Node2</title>
<path fill="none" stroke="midnightblue" d="M592.339,-307.975C554.756,-297.526 490.956,-279.787 449.402,-268.233"/>
<polygon fill="midnightblue" stroke="midnightblue" points="450.176,-264.816 439.604,-265.509 448.301,-271.56 450.176,-264.816"/>
</g>
<!-- Node30 -->
<g id="node31" class="node"><title>Node30</title>
<polygon fill="white" stroke="#bfbfbf" points="571.5,-246.5 571.5,-265.5 674.5,-265.5 674.5,-246.5 571.5,-246.5"/>
<text text-anchor="middle" x="623" y="-253.5" font-family="Helvetica,sans-Serif" font-size="10.00">odp/api/abi/time.h</text>
</g>
<!-- Node29&#45;&gt;Node30 -->
<g id="edge53" class="edge"><title>Node29&#45;&gt;Node30</title>
<path fill="none" stroke="midnightblue" d="M623,-307.975C623,-299.58 623,-286.481 623,-275.663"/>
<polygon fill="midnightblue" stroke="midnightblue" points="626.5,-275.509 623,-265.509 619.5,-275.509 626.5,-275.509"/>
</g>
<!-- Node31 -->
<g id="node32" class="node"><title>Node31</title>
<g id="a_node32"><a xlink:href="api_2spec_2time_8h.html" target="_top" xlink:title="ODP time. ">
<polygon fill="white" stroke="black" points="648.5,-62 648.5,-81 759.5,-81 759.5,-62 648.5,-62"/>
<text text-anchor="middle" x="704" y="-69" font-family="Helvetica,sans-Serif" font-size="10.00">odp/api/spec/time.h</text>
</a>
</g>
</g>
<!-- Node29&#45;&gt;Node31 -->
<g id="edge54" class="edge"><title>Node29&#45;&gt;Node31</title>
<path fill="none" stroke="midnightblue" d="M638.741,-307.983C652.916,-299.396 673.011,-284.744 683,-266 713.688,-208.416 710.028,-127.607 706.377,-91.3745"/>
<polygon fill="midnightblue" stroke="midnightblue" points="709.836,-90.8071 705.236,-81.2629 702.88,-91.5924 709.836,-90.8071"/>
</g>
<!-- Node31&#45;&gt;Node1 -->
<g id="edge55" class="edge"><title>Node31&#45;&gt;Node1</title>
<path fill="none" stroke="midnightblue" d="M685.374,-61.9751C663.557,-51.9897 627.196,-35.3476 601.983,-23.8075"/>
<polygon fill="midnightblue" stroke="midnightblue" points="603.141,-20.4884 592.591,-19.5091 600.228,-26.8534 603.141,-20.4884"/>
</g>
<!-- Node31&#45;&gt;Node9 -->
<g id="edge56" class="edge"><title>Node31&#45;&gt;Node9</title>
<path fill="none" stroke="midnightblue" d="M737.375,-61.9828C747.186,-59.7389 757.975,-57.5225 768,-56 950.676,-28.256 1168.99,-17.0795 1274.97,-13.0365"/>
<polygon fill="midnightblue" stroke="midnightblue" points="1275.31,-16.5262 1285.17,-12.656 1275.05,-9.53104 1275.31,-16.5262"/>
</g>
<!-- Node32&#45;&gt;Node1 -->
<g id="edge60" class="edge"><title>Node32&#45;&gt;Node1</title>
<path fill="none" stroke="midnightblue" d="M1031.35,-302.421C1017.05,-293.52 999.798,-280.895 988,-266 925.057,-186.54 979.467,-117.65 899,-56 859.88,-26.0282 725.166,-16.0144 641.955,-12.6718"/>
<polygon fill="midnightblue" stroke="midnightblue" points="641.948,-9.1691 631.823,-12.2874 641.683,-16.1641 641.948,-9.1691"/>
</g>
<!-- Node32&#45;&gt;Node9 -->
<g id="edge71" class="edge"><title>Node32&#45;&gt;Node9</title>
<path fill="none" stroke="midnightblue" d="M1112.23,-310.625C1159.09,-304.138 1227.22,-291.096 1282,-266 1329.8,-244.1 1377,-248.078 1377,-195.5 1377,-195.5 1377,-195.5 1377,-132 1377,-93.8116 1359.56,-51.8296 1348.31,-28.7224"/>
<polygon fill="midnightblue" stroke="midnightblue" points="1351.29,-26.8646 1343.66,-19.5153 1345.04,-30.0195 1351.29,-26.8646"/>
</g>
<!-- Node32&#45;&gt;Node17 -->
<g id="edge70" class="edge"><title>Node32&#45;&gt;Node17</title>
<path fill="none" stroke="midnightblue" d="M1057,-302.399C1057,-294.466 1057,-284.458 1057,-275.858"/>
<polygon fill="midnightblue" stroke="midnightblue" points="1060.5,-275.658 1057,-265.658 1053.5,-275.658 1060.5,-275.658"/>
</g>
<!-- Node33 -->
<g id="node34" class="node"><title>Node33</title>
<g id="a_node34"><a xlink:href="api_2schedule__types_8h.html" target="_top" xlink:title="ODP schedule. ">
<polygon fill="white" stroke="black" points="1135,-246.5 1135,-265.5 1273,-265.5 1273,-246.5 1135,-246.5"/>
<text text-anchor="middle" x="1204" y="-253.5" font-family="Helvetica,sans-Serif" font-size="10.00">odp/api/schedule_types.h</text>
</a>
</g>
</g>
<!-- Node32&#45;&gt;Node33 -->
<g id="edge61" class="edge"><title>Node32&#45;&gt;Node33</title>
<path fill="none" stroke="midnightblue" d="M1091.84,-302.399C1116.5,-292.416 1149.29,-279.147 1173.03,-269.534"/>
<polygon fill="midnightblue" stroke="midnightblue" points="1174.65,-272.654 1182.61,-265.658 1172.03,-266.165 1174.65,-272.654"/>
</g>
<!-- Node34 -->
<g id="node35" class="node"><title>Node34</title>
<polygon fill="white" stroke="#bfbfbf" points="1233.5,-179.5 1233.5,-209.5 1348.5,-209.5 1348.5,-179.5 1233.5,-179.5"/>
<text text-anchor="start" x="1241.5" y="-197.5" font-family="Helvetica,sans-Serif" font-size="10.00">odp/api/abi/schedule</text>
<text text-anchor="middle" x="1291" y="-186.5" font-family="Helvetica,sans-Serif" font-size="10.00">_types.h</text>
</g>
<!-- Node33&#45;&gt;Node34 -->
<g id="edge62" class="edge"><title>Node33&#45;&gt;Node34</title>
<path fill="none" stroke="midnightblue" d="M1216.46,-246.475C1228.36,-238.341 1246.71,-225.791 1262.23,-215.179"/>
<polygon fill="midnightblue" stroke="midnightblue" points="1264.22,-218.057 1270.5,-209.523 1260.27,-212.279 1264.22,-218.057"/>
</g>
<!-- Node35 -->
<g id="node36" class="node"><title>Node35</title>
<g id="a_node36"><a xlink:href="api_2spec_2schedule__types_8h.html" target="_top" xlink:title="ODP schedule types. ">
<polygon fill="white" stroke="black" points="1092.5,-179.5 1092.5,-209.5 1215.5,-209.5 1215.5,-179.5 1092.5,-179.5"/>
<text text-anchor="start" x="1100.5" y="-197.5" font-family="Helvetica,sans-Serif" font-size="10.00">odp/api/spec/schedule</text>
<text text-anchor="middle" x="1154" y="-186.5" font-family="Helvetica,sans-Serif" font-size="10.00">_types.h</text>
</a>
</g>
</g>
<!-- Node33&#45;&gt;Node35 -->
<g id="edge63" class="edge"><title>Node33&#45;&gt;Node35</title>
<path fill="none" stroke="midnightblue" d="M1196.84,-246.475C1190.44,-238.869 1180.81,-227.399 1172.29,-217.265"/>
<polygon fill="midnightblue" stroke="midnightblue" points="1174.9,-214.927 1165.78,-209.523 1169.54,-219.43 1174.9,-214.927"/>
</g>
<!-- Node35&#45;&gt;Node1 -->
<g id="edge64" class="edge"><title>Node35&#45;&gt;Node1</title>
<path fill="none" stroke="midnightblue" d="M1128.82,-179.342C1093.96,-159.534 1029.25,-122.033 976,-87 956.318,-74.0511 954.925,-64.622 933,-56 881.427,-35.7192 730.396,-22.0174 641.512,-15.4602"/>
<polygon fill="midnightblue" stroke="midnightblue" points="641.75,-11.9683 631.522,-14.734 641.242,-18.9499 641.75,-11.9683"/>
</g>
<!-- Node35&#45;&gt;Node9 -->
<g id="edge69" class="edge"><title>Node35&#45;&gt;Node9</title>
<path fill="none" stroke="midnightblue" d="M1195.53,-179.42C1235.02,-163.63 1292.36,-133.907 1320,-87 1330.44,-69.273 1335.18,-45.9571 1337.31,-29.8482"/>
<polygon fill="midnightblue" stroke="midnightblue" points="1340.82,-29.8983 1338.44,-19.5752 1333.86,-29.1318 1340.82,-29.8983"/>
</g>
<!-- Node36 -->
<g id="node37" class="node"><title>Node36</title>
<g id="a_node37"><a xlink:href="support_8h.html" target="_top" xlink:title="ODP support API &#45; platform specific header. ">
<polygon fill="white" stroke="black" points="1150.5,-123.5 1150.5,-142.5 1251.5,-142.5 1251.5,-123.5 1150.5,-123.5"/>
<text text-anchor="middle" x="1201" y="-130.5" font-family="Helvetica,sans-Serif" font-size="10.00">odp/api/support.h</text>
</a>
</g>
</g>
<!-- Node35&#45;&gt;Node36 -->
<g id="edge65" class="edge"><title>Node35&#45;&gt;Node36</title>
<path fill="none" stroke="midnightblue" d="M1165.14,-179.399C1171.97,-170.753 1180.74,-159.642 1187.91,-150.576"/>
<polygon fill="midnightblue" stroke="midnightblue" points="1190.71,-152.674 1194.16,-142.658 1185.22,-148.335 1190.71,-152.674"/>
</g>
<!-- Node37 -->
<g id="node38" class="node"><title>Node37</title>
<g id="a_node38"><a xlink:href="spec_2support_8h.html" target="_top" xlink:title="ODP support API. ">
<polygon fill="white" stroke="black" points="1185,-62 1185,-81 1311,-81 1311,-62 1185,-62"/>
<text text-anchor="middle" x="1248" y="-69" font-family="Helvetica,sans-Serif" font-size="10.00">odp/api/spec/support.h</text>
</a>
</g>
</g>
<!-- Node36&#45;&gt;Node37 -->
<g id="edge66" class="edge"><title>Node36&#45;&gt;Node37</title>
<path fill="none" stroke="midnightblue" d="M1207.73,-123.475C1214.78,-114.55 1226.03,-100.307 1234.85,-89.1425"/>
<polygon fill="midnightblue" stroke="midnightblue" points="1237.83,-91.0258 1241.28,-81.0091 1232.33,-86.6867 1237.83,-91.0258"/>
</g>
<!-- Node37&#45;&gt;Node1 -->
<g id="edge67" class="edge"><title>Node37&#45;&gt;Node1</title>
<path fill="none" stroke="midnightblue" d="M1187.55,-61.963C1171.47,-59.8473 1154.09,-57.7013 1138,-56 959.328,-37.1087 748.056,-22.2404 641.979,-15.2902"/>
<polygon fill="midnightblue" stroke="midnightblue" points="641.944,-11.7806 631.737,-14.6224 641.488,-18.7657 641.944,-11.7806"/>
</g>
<!-- Node37&#45;&gt;Node9 -->
<g id="edge68" class="edge"><title>Node37&#45;&gt;Node9</title>
<path fill="none" stroke="midnightblue" d="M1261.04,-61.9751C1275.77,-52.3431 1299.97,-36.5175 1317.51,-25.0517"/>
<polygon fill="midnightblue" stroke="midnightblue" points="1319.53,-27.911 1325.99,-19.5091 1315.7,-22.0522 1319.53,-27.911"/>
</g>
</g>
</svg>
