<?xml version="1.0" encoding="UTF-8" standalone="no"?>
<!DOCTYPE svg PUBLIC "-//W3C//DTD SVG 1.1//EN"
 "http://www.w3.org/Graphics/SVG/1.1/DTD/svg11.dtd">
<!-- Generated by graphviz version 2.38.0 (20140413.2041)
 -->
<!-- Title: align.h Pages: 1 -->
<svg width="2513pt" height="588pt"
 viewBox="0.00 0.00 2512.50 588.00" xmlns="http://www.w3.org/2000/svg" xmlns:xlink="http://www.w3.org/1999/xlink">
<g id="graph0" class="graph" transform="scale(1 1) rotate(0) translate(4 584)">
<title>align.h</title>
<polygon fill="white" stroke="none" points="-4,4 -4,-584 2508.5,-584 2508.5,4 -4,4"/>
<!-- Node2 -->
<g id="node1" class="node"><title>Node2</title>
<polygon fill="#bfbfbf" stroke="black" points="1083.5,-560.5 1083.5,-579.5 1131.5,-579.5 1131.5,-560.5 1083.5,-560.5"/>
<text text-anchor="middle" x="1107.5" y="-567.5" font-family="Helvetica,sans-Serif" font-size="10.00">align.h</text>
</g>
<!-- Node3 -->
<g id="node2" class="node"><title>Node3</title>
<g id="a_node2"><a xlink:href="arch_2arm32-linux_2odp_2api_2abi_2align_8h_source.html" target="_top" xlink:title="align.h">
<polygon fill="white" stroke="black" points="885.5,-504.5 885.5,-523.5 933.5,-523.5 933.5,-504.5 885.5,-504.5"/>
<text text-anchor="middle" x="909.5" y="-511.5" font-family="Helvetica,sans-Serif" font-size="10.00">align.h</text>
</a>
</g>
</g>
<!-- Node2&#45;&gt;Node3 -->
<g id="edge1" class="edge"><title>Node2&#45;&gt;Node3</title>
<path fill="none" stroke="midnightblue" d="M1073.42,-559.707C1033.59,-548.842 968.657,-531.134 933.667,-521.591"/>
<polygon fill="midnightblue" stroke="midnightblue" points="1072.65,-563.124 1083.22,-562.379 1074.49,-556.371 1072.65,-563.124"/>
</g>
<!-- Node4 -->
<g id="node3" class="node"><title>Node4</title>
<g id="a_node3"><a xlink:href="arch_2arm64-linux_2odp_2api_2abi_2align_8h_source.html" target="_top" xlink:title="align.h">
<polygon fill="white" stroke="black" points="951.5,-504.5 951.5,-523.5 999.5,-523.5 999.5,-504.5 951.5,-504.5"/>
<text text-anchor="middle" x="975.5" y="-511.5" font-family="Helvetica,sans-Serif" font-size="10.00">align.h</text>
</a>
</g>
</g>
<!-- Node2&#45;&gt;Node4 -->
<g id="edge2" class="edge"><title>Node2&#45;&gt;Node4</title>
<path fill="none" stroke="midnightblue" d="M1077.28,-556.638C1052.51,-546.504 1018.1,-532.427 996.318,-523.516"/>
<polygon fill="midnightblue" stroke="midnightblue" points="1076,-559.897 1086.58,-560.444 1078.65,-553.418 1076,-559.897"/>
</g>
<!-- Node5 -->
<g id="node4" class="node"><title>Node5</title>
<g id="a_node4"><a xlink:href="arch_2default-linux_2odp_2api_2abi_2align_8h_source.html" target="_top" xlink:title="align.h">
<polygon fill="white" stroke="black" points="1017.5,-504.5 1017.5,-523.5 1065.5,-523.5 1065.5,-504.5 1017.5,-504.5"/>
<text text-anchor="middle" x="1041.5" y="-511.5" font-family="Helvetica,sans-Serif" font-size="10.00">align.h</text>
</a>
</g>
</g>
<!-- Node2&#45;&gt;Node5 -->
<g id="edge3" class="edge"><title>Node2&#45;&gt;Node5</title>
<path fill="none" stroke="midnightblue" d="M1088.95,-553.82C1077.12,-544.145 1062.21,-531.948 1052.3,-523.834"/>
<polygon fill="midnightblue" stroke="midnightblue" points="1086.94,-556.7 1096.9,-560.324 1091.37,-551.283 1086.94,-556.7"/>
</g>
<!-- Node6 -->
<g id="node5" class="node"><title>Node6</title>
<g id="a_node5"><a xlink:href="arch_2mips64-linux_2odp_2api_2abi_2align_8h_source.html" target="_top" xlink:title="align.h">
<polygon fill="white" stroke="black" points="1083.5,-504.5 1083.5,-523.5 1131.5,-523.5 1131.5,-504.5 1083.5,-504.5"/>
<text text-anchor="middle" x="1107.5" y="-511.5" font-family="Helvetica,sans-Serif" font-size="10.00">align.h</text>
</a>
</g>
</g>
<!-- Node2&#45;&gt;Node6 -->
<g id="edge4" class="edge"><title>Node2&#45;&gt;Node6</title>
<path fill="none" stroke="midnightblue" d="M1107.5,-549.805C1107.5,-540.91 1107.5,-530.78 1107.5,-523.751"/>
<polygon fill="midnightblue" stroke="midnightblue" points="1104,-550.083 1107.5,-560.083 1111,-550.083 1104,-550.083"/>
</g>
<!-- Node7 -->
<g id="node6" class="node"><title>Node7</title>
<g id="a_node6"><a xlink:href="arch_2power64-linux_2odp_2api_2abi_2align_8h_source.html" target="_top" xlink:title="align.h">
<polygon fill="white" stroke="black" points="1149.5,-504.5 1149.5,-523.5 1197.5,-523.5 1197.5,-504.5 1149.5,-504.5"/>
<text text-anchor="middle" x="1173.5" y="-511.5" font-family="Helvetica,sans-Serif" font-size="10.00">align.h</text>
</a>
</g>
</g>
<!-- Node2&#45;&gt;Node7 -->
<g id="edge5" class="edge"><title>Node2&#45;&gt;Node7</title>
<path fill="none" stroke="midnightblue" d="M1126.05,-553.82C1137.88,-544.145 1152.79,-531.948 1162.7,-523.834"/>
<polygon fill="midnightblue" stroke="midnightblue" points="1123.63,-551.283 1118.1,-560.324 1128.06,-556.7 1123.63,-551.283"/>
</g>
<!-- Node8 -->
<g id="node7" class="node"><title>Node8</title>
<g id="a_node7"><a xlink:href="arch_2x86__32-linux_2odp_2api_2abi_2align_8h_source.html" target="_top" xlink:title="align.h">
<polygon fill="white" stroke="black" points="1215.5,-504.5 1215.5,-523.5 1263.5,-523.5 1263.5,-504.5 1215.5,-504.5"/>
<text text-anchor="middle" x="1239.5" y="-511.5" font-family="Helvetica,sans-Serif" font-size="10.00">align.h</text>
</a>
</g>
</g>
<!-- Node2&#45;&gt;Node8 -->
<g id="edge6" class="edge"><title>Node2&#45;&gt;Node8</title>
<path fill="none" stroke="midnightblue" d="M1137.72,-556.638C1162.49,-546.504 1196.9,-532.427 1218.68,-523.516"/>
<polygon fill="midnightblue" stroke="midnightblue" points="1136.35,-553.418 1128.42,-560.444 1139,-559.897 1136.35,-553.418"/>
</g>
<!-- Node9 -->
<g id="node8" class="node"><title>Node9</title>
<g id="a_node8"><a xlink:href="arch_2x86__64-linux_2odp_2api_2abi_2align_8h_source.html" target="_top" xlink:title="align.h">
<polygon fill="white" stroke="black" points="1281.5,-504.5 1281.5,-523.5 1329.5,-523.5 1329.5,-504.5 1281.5,-504.5"/>
<text text-anchor="middle" x="1305.5" y="-511.5" font-family="Helvetica,sans-Serif" font-size="10.00">align.h</text>
</a>
</g>
</g>
<!-- Node2&#45;&gt;Node9 -->
<g id="edge7" class="edge"><title>Node2&#45;&gt;Node9</title>
<path fill="none" stroke="midnightblue" d="M1141.58,-559.707C1181.41,-548.842 1246.34,-531.134 1281.33,-521.591"/>
<polygon fill="midnightblue" stroke="midnightblue" points="1140.51,-556.371 1131.78,-562.379 1142.35,-563.124 1140.51,-556.371"/>
</g>
<!-- Node10 -->
<g id="node9" class="node"><title>Node10</title>
<g id="a_node9"><a xlink:href="api_2align_8h.html" target="_top" xlink:title="ODP alignments. ">
<polygon fill="white" stroke="black" points="1281.5,-448.5 1281.5,-467.5 1329.5,-467.5 1329.5,-448.5 1281.5,-448.5"/>
<text text-anchor="middle" x="1305.5" y="-455.5" font-family="Helvetica,sans-Serif" font-size="10.00">align.h</text>
</a>
</g>
</g>
<!-- Node9&#45;&gt;Node10 -->
<g id="edge8" class="edge"><title>Node9&#45;&gt;Node10</title>
<path fill="none" stroke="midnightblue" d="M1305.5,-493.805C1305.5,-484.91 1305.5,-474.78 1305.5,-467.751"/>
<polygon fill="midnightblue" stroke="midnightblue" points="1302,-494.083 1305.5,-504.083 1309,-494.083 1302,-494.083"/>
</g>
<!-- Node11 -->
<g id="node10" class="node"><title>Node11</title>
<g id="a_node10"><a xlink:href="api_2abi-default_2atomic_8h.html" target="_top" xlink:title="ODP atomic operations. ">
<polygon fill="white" stroke="black" points="308,-280.5 308,-299.5 367,-299.5 367,-280.5 308,-280.5"/>
<text text-anchor="middle" x="337.5" y="-287.5" font-family="Helvetica,sans-Serif" font-size="10.00">atomic.h</text>
</a>
</g>
</g>
<!-- Node10&#45;&gt;Node11 -->
<g id="edge9" class="edge"><title>Node10&#45;&gt;Node11</title>
<path fill="none" stroke="midnightblue" d="M1270.93,-451.072C1118.76,-424.977 509.778,-320.544 367.386,-296.125"/>
<polygon fill="midnightblue" stroke="midnightblue" points="1270.64,-454.573 1281.09,-452.814 1271.82,-447.674 1270.64,-454.573"/>
</g>
<!-- Node29 -->
<g id="node21" class="node"><title>Node29</title>
<g id="a_node21"><a xlink:href="odp__api_8h.html" target="_top" xlink:title="The OpenDataPlane API. ">
<polygon fill="white" stroke="black" points="1389,-56.5 1389,-75.5 1452,-75.5 1452,-56.5 1389,-56.5"/>
<text text-anchor="middle" x="1420.5" y="-63.5" font-family="Helvetica,sans-Serif" font-size="10.00">odp_api.h</text>
</a>
</g>
</g>
<!-- Node10&#45;&gt;Node29 -->
<g id="edge64" class="edge"><title>Node10&#45;&gt;Node29</title>
<path fill="none" stroke="midnightblue" d="M1339.73,-455.7C1535.49,-448.048 2504.5,-407.134 2504.5,-347 2504.5,-347 2504.5,-347 2504.5,-177 2504.5,-68.2916 1630.46,-66.118 1452.06,-66.8065"/>
<polygon fill="midnightblue" stroke="midnightblue" points="1339.58,-452.204 1329.72,-456.089 1339.85,-459.198 1339.58,-452.204"/>
</g>
<!-- Node58 -->
<g id="node23" class="node"><title>Node58</title>
<g id="a_node23"><a xlink:href="api_2abi-default_2cpumask_8h.html" target="_top" xlink:title="ODP CPU masks and enumeration. ">
<polygon fill="white" stroke="black" points="887,-280.5 887,-299.5 956,-299.5 956,-280.5 887,-280.5"/>
<text text-anchor="middle" x="921.5" y="-287.5" font-family="Helvetica,sans-Serif" font-size="10.00">cpumask.h</text>
</a>
</g>
</g>
<!-- Node10&#45;&gt;Node58 -->
<g id="edge23" class="edge"><title>Node10&#45;&gt;Node58</title>
<path fill="none" stroke="midnightblue" d="M1276.37,-444.405C1201.68,-412.118 1004.81,-327.013 941.449,-299.624"/>
<polygon fill="midnightblue" stroke="midnightblue" points="1275.1,-447.669 1285.66,-448.425 1277.87,-441.244 1275.1,-447.669"/>
</g>
<!-- Node82 -->
<g id="node32" class="node"><title>Node82</title>
<g id="a_node32"><a xlink:href="api_2spec_2std__types_8h.html" target="_top" xlink:title="Standard C language types and definitions for ODP. ">
<polygon fill="white" stroke="black" points="1372.5,-392.5 1372.5,-411.5 1444.5,-411.5 1444.5,-392.5 1372.5,-392.5"/>
<text text-anchor="middle" x="1408.5" y="-399.5" font-family="Helvetica,sans-Serif" font-size="10.00">std_types.h</text>
</a>
</g>
</g>
<!-- Node10&#45;&gt;Node82 -->
<g id="edge33" class="edge"><title>Node10&#45;&gt;Node82</title>
<path fill="none" stroke="midnightblue" d="M1331.08,-443.59C1350.12,-433.605 1375.56,-420.267 1391.99,-411.655"/>
<polygon fill="midnightblue" stroke="midnightblue" points="1329.28,-440.581 1322.05,-448.324 1332.53,-446.78 1329.28,-440.581"/>
</g>
<!-- Node12 -->
<g id="node11" class="node"><title>Node12</title>
<g id="a_node11"><a xlink:href="arch_2arm32-linux_2odp_2api_2abi_2atomic_8h_source.html" target="_top" xlink:title="atomic.h">
<polygon fill="white" stroke="black" points="0,-224.5 0,-243.5 59,-243.5 59,-224.5 0,-224.5"/>
<text text-anchor="middle" x="29.5" y="-231.5" font-family="Helvetica,sans-Serif" font-size="10.00">atomic.h</text>
</a>
</g>
</g>
<!-- Node11&#45;&gt;Node12 -->
<g id="edge10" class="edge"><title>Node11&#45;&gt;Node12</title>
<path fill="none" stroke="midnightblue" d="M297.857,-283.249C245.089,-275.398 148.951,-260.414 67.5,-244 64.8415,-243.464 62.0861,-242.876 59.3289,-242.265"/>
<polygon fill="midnightblue" stroke="midnightblue" points="297.411,-286.721 307.815,-284.722 298.435,-279.796 297.411,-286.721"/>
</g>
<!-- Node13 -->
<g id="node12" class="node"><title>Node13</title>
<g id="a_node12"><a xlink:href="arch_2arm64-linux_2odp_2api_2abi_2atomic_8h_source.html" target="_top" xlink:title="atomic.h">
<polygon fill="white" stroke="black" points="77,-224.5 77,-243.5 136,-243.5 136,-224.5 77,-224.5"/>
<text text-anchor="middle" x="106.5" y="-231.5" font-family="Helvetica,sans-Serif" font-size="10.00">atomic.h</text>
</a>
</g>
</g>
<!-- Node11&#45;&gt;Node13 -->
<g id="edge11" class="edge"><title>Node11&#45;&gt;Node13</title>
<path fill="none" stroke="midnightblue" d="M297.829,-279.793C258.805,-270.726 197.536,-256.464 144.5,-244 141.86,-243.38 139.117,-242.733 136.368,-242.084"/>
<polygon fill="midnightblue" stroke="midnightblue" points="297.203,-283.241 307.736,-282.094 298.787,-276.422 297.203,-283.241"/>
</g>
<!-- Node14 -->
<g id="node13" class="node"><title>Node14</title>
<g id="a_node13"><a xlink:href="arch_2default-linux_2odp_2api_2abi_2atomic_8h_source.html" target="_top" xlink:title="atomic.h">
<polygon fill="white" stroke="black" points="154,-224.5 154,-243.5 213,-243.5 213,-224.5 154,-224.5"/>
<text text-anchor="middle" x="183.5" y="-231.5" font-family="Helvetica,sans-Serif" font-size="10.00">atomic.h</text>
</a>
</g>
</g>
<!-- Node11&#45;&gt;Node14 -->
<g id="edge12" class="edge"><title>Node11&#45;&gt;Node14</title>
<path fill="none" stroke="midnightblue" d="M303.389,-277.039C274.413,-266.879 233.538,-252.546 207.788,-243.516"/>
<polygon fill="midnightblue" stroke="midnightblue" points="302.503,-280.437 313.098,-280.444 304.82,-273.832 302.503,-280.437"/>
</g>
<!-- Node15 -->
<g id="node14" class="node"><title>Node15</title>
<g id="a_node14"><a xlink:href="arch_2mips64-linux_2odp_2api_2abi_2atomic_8h_source.html" target="_top" xlink:title="atomic.h">
<polygon fill="white" stroke="black" points="231,-224.5 231,-243.5 290,-243.5 290,-224.5 231,-224.5"/>
<text text-anchor="middle" x="260.5" y="-231.5" font-family="Helvetica,sans-Serif" font-size="10.00">atomic.h</text>
</a>
</g>
</g>
<!-- Node11&#45;&gt;Node15 -->
<g id="edge13" class="edge"><title>Node11&#45;&gt;Node15</title>
<path fill="none" stroke="midnightblue" d="M316.599,-274.342C302.589,-264.517 284.617,-251.913 272.841,-243.655"/>
<polygon fill="midnightblue" stroke="midnightblue" points="314.932,-277.448 325.129,-280.324 318.951,-271.717 314.932,-277.448"/>
</g>
<!-- Node16 -->
<g id="node15" class="node"><title>Node16</title>
<g id="a_node15"><a xlink:href="arch_2power64-linux_2odp_2api_2abi_2atomic_8h_source.html" target="_top" xlink:title="atomic.h">
<polygon fill="white" stroke="black" points="308,-224.5 308,-243.5 367,-243.5 367,-224.5 308,-224.5"/>
<text text-anchor="middle" x="337.5" y="-231.5" font-family="Helvetica,sans-Serif" font-size="10.00">atomic.h</text>
</a>
</g>
</g>
<!-- Node11&#45;&gt;Node16 -->
<g id="edge14" class="edge"><title>Node11&#45;&gt;Node16</title>
<path fill="none" stroke="midnightblue" d="M337.5,-269.805C337.5,-260.91 337.5,-250.78 337.5,-243.751"/>
<polygon fill="midnightblue" stroke="midnightblue" points="334,-270.083 337.5,-280.083 341,-270.083 334,-270.083"/>
</g>
<!-- Node17 -->
<g id="node16" class="node"><title>Node17</title>
<g id="a_node16"><a xlink:href="arch_2x86__32-linux_2odp_2api_2abi_2atomic_8h_source.html" target="_top" xlink:title="atomic.h">
<polygon fill="white" stroke="black" points="385,-224.5 385,-243.5 444,-243.5 444,-224.5 385,-224.5"/>
<text text-anchor="middle" x="414.5" y="-231.5" font-family="Helvetica,sans-Serif" font-size="10.00">atomic.h</text>
</a>
</g>
</g>
<!-- Node11&#45;&gt;Node17 -->
<g id="edge15" class="edge"><title>Node11&#45;&gt;Node17</title>
<path fill="none" stroke="midnightblue" d="M358.401,-274.342C372.411,-264.517 390.383,-251.913 402.159,-243.655"/>
<polygon fill="midnightblue" stroke="midnightblue" points="356.049,-271.717 349.871,-280.324 360.068,-277.448 356.049,-271.717"/>
</g>
<!-- Node18 -->
<g id="node17" class="node"><title>Node18</title>
<g id="a_node17"><a xlink:href="arch_2x86__64-linux_2odp_2api_2abi_2atomic_8h_source.html" target="_top" xlink:title="atomic.h">
<polygon fill="white" stroke="black" points="462,-224.5 462,-243.5 521,-243.5 521,-224.5 462,-224.5"/>
<text text-anchor="middle" x="491.5" y="-231.5" font-family="Helvetica,sans-Serif" font-size="10.00">atomic.h</text>
</a>
</g>
</g>
<!-- Node11&#45;&gt;Node18 -->
<g id="edge16" class="edge"><title>Node11&#45;&gt;Node18</title>
<path fill="none" stroke="midnightblue" d="M371.611,-277.039C400.587,-266.879 441.462,-252.546 467.212,-243.516"/>
<polygon fill="midnightblue" stroke="midnightblue" points="370.18,-273.832 361.902,-280.444 372.497,-280.437 370.18,-273.832"/>
</g>
<!-- Node19 -->
<g id="node18" class="node"><title>Node19</title>
<g id="a_node18"><a xlink:href="api_2atomic_8h.html" target="_top" xlink:title="ODP atomic operations. ">
<polygon fill="white" stroke="red" points="1054,-168.5 1054,-187.5 1113,-187.5 1113,-168.5 1054,-168.5"/>
<text text-anchor="middle" x="1083.5" y="-175.5" font-family="Helvetica,sans-Serif" font-size="10.00">atomic.h</text>
</a>
</g>
</g>
<!-- Node18&#45;&gt;Node19 -->
<g id="edge17" class="edge"><title>Node18&#45;&gt;Node19</title>
<path fill="none" stroke="midnightblue" d="M531.316,-223.922C736.002,-192.258 972.074,-182.448 1053.88,-179.828"/>
<polygon fill="midnightblue" stroke="midnightblue" points="530.623,-220.488 521.286,-225.495 531.707,-227.403 530.623,-220.488"/>
</g>
<!-- Node20 -->
<g id="node19" class="node"><title>Node20</title>
<g id="a_node19"><a xlink:href="api_2abi-default_2barrier_8h.html" target="_top" xlink:title="ODP barrier. ">
<polygon fill="white" stroke="red" points="1168.5,-112.5 1168.5,-131.5 1224.5,-131.5 1224.5,-112.5 1168.5,-112.5"/>
<text text-anchor="middle" x="1196.5" y="-119.5" font-family="Helvetica,sans-Serif" font-size="10.00">barrier.h</text>
</a>
</g>
</g>
<!-- Node19&#45;&gt;Node20 -->
<g id="edge18" class="edge"><title>Node19&#45;&gt;Node20</title>
<path fill="none" stroke="midnightblue" d="M1110.5,-164.096C1131.61,-154.007 1160.36,-140.27 1178.68,-131.516"/>
<polygon fill="midnightblue" stroke="midnightblue" points="1108.92,-160.974 1101.41,-168.444 1111.94,-167.29 1108.92,-160.974"/>
</g>
<!-- Node28 -->
<g id="node20" class="node"><title>Node28</title>
<g id="a_node20"><a xlink:href="api_2barrier_8h.html" target="_top" xlink:title="ODP execution barriers. ">
<polygon fill="white" stroke="black" points="1094.5,-112.5 1094.5,-131.5 1150.5,-131.5 1150.5,-112.5 1094.5,-112.5"/>
<text text-anchor="middle" x="1122.5" y="-119.5" font-family="Helvetica,sans-Serif" font-size="10.00">barrier.h</text>
</a>
</g>
</g>
<!-- Node19&#45;&gt;Node28 -->
<g id="edge19" class="edge"><title>Node19&#45;&gt;Node28</title>
<path fill="none" stroke="midnightblue" d="M1095.88,-159.855C1102.64,-150.505 1110.71,-139.327 1116.18,-131.751"/>
<polygon fill="midnightblue" stroke="midnightblue" points="1092.96,-157.927 1089.94,-168.083 1098.63,-162.025 1092.96,-157.927"/>
</g>
<!-- Node19&#45;&gt;Node29 -->
<g id="edge22" class="edge"><title>Node19&#45;&gt;Node29</title>
<path fill="none" stroke="midnightblue" d="M1078.21,-158.274C1075.37,-143.826 1074.41,-124.291 1085.5,-112 1125.45,-67.721 1313.13,-65.3865 1388.78,-66.3044"/>
<polygon fill="midnightblue" stroke="midnightblue" points="1074.84,-159.225 1080.58,-168.128 1081.65,-157.586 1074.84,-159.225"/>
</g>
<!-- Node28&#45;&gt;Node29 -->
<g id="edge20" class="edge"><title>Node28&#45;&gt;Node29</title>
<path fill="none" stroke="midnightblue" d="M1160.62,-111.879C1248.66,-93.8271 1341.11,-79.0638 1388.63,-71.7805"/>
<polygon fill="midnightblue" stroke="midnightblue" points="1159.82,-108.469 1150.74,-113.923 1161.24,-115.324 1159.82,-108.469"/>
</g>
<!-- Node30 -->
<g id="node22" class="node"><title>Node30</title>
<g id="a_node22"><a xlink:href="odp_8h.html" target="_top" xlink:title="WARNING: THIS FILE IS DEPRECATED AND WILL BE REMOVED!!! ODP APPLICATIONS SHOULD NOW INCLUDE odp_api...">
<polygon fill="white" stroke="black" points="1398.5,-0.5 1398.5,-19.5 1442.5,-19.5 1442.5,-0.5 1398.5,-0.5"/>
<text text-anchor="middle" x="1420.5" y="-7.5" font-family="Helvetica,sans-Serif" font-size="10.00">odp.h</text>
</a>
</g>
</g>
<!-- Node29&#45;&gt;Node30 -->
<g id="edge21" class="edge"><title>Node29&#45;&gt;Node30</title>
<path fill="none" stroke="midnightblue" d="M1420.5,-45.8045C1420.5,-36.9102 1420.5,-26.7798 1420.5,-19.7511"/>
<polygon fill="midnightblue" stroke="midnightblue" points="1417,-46.083 1420.5,-56.083 1424,-46.083 1417,-46.083"/>
</g>
<!-- Node59 -->
<g id="node24" class="node"><title>Node59</title>
<g id="a_node24"><a xlink:href="arch_2arm32-linux_2odp_2api_2abi_2cpumask_8h_source.html" target="_top" xlink:title="cpumask.h">
<polygon fill="white" stroke="black" points="887,-224.5 887,-243.5 956,-243.5 956,-224.5 887,-224.5"/>
<text text-anchor="middle" x="921.5" y="-231.5" font-family="Helvetica,sans-Serif" font-size="10.00">cpumask.h</text>
</a>
</g>
</g>
<!-- Node58&#45;&gt;Node59 -->
<g id="edge24" class="edge"><title>Node58&#45;&gt;Node59</title>
<path fill="none" stroke="midnightblue" d="M921.5,-269.805C921.5,-260.91 921.5,-250.78 921.5,-243.751"/>
<polygon fill="midnightblue" stroke="midnightblue" points="918,-270.083 921.5,-280.083 925,-270.083 918,-270.083"/>
</g>
<!-- Node60 -->
<g id="node25" class="node"><title>Node60</title>
<g id="a_node25"><a xlink:href="arch_2arm64-linux_2odp_2api_2abi_2cpumask_8h_source.html" target="_top" xlink:title="cpumask.h">
<polygon fill="white" stroke="black" points="974,-224.5 974,-243.5 1043,-243.5 1043,-224.5 974,-224.5"/>
<text text-anchor="middle" x="1008.5" y="-231.5" font-family="Helvetica,sans-Serif" font-size="10.00">cpumask.h</text>
</a>
</g>
</g>
<!-- Node58&#45;&gt;Node60 -->
<g id="edge25" class="edge"><title>Node58&#45;&gt;Node60</title>
<path fill="none" stroke="midnightblue" d="M944.216,-274.901C960.169,-264.999 980.997,-252.071 994.557,-243.655"/>
<polygon fill="midnightblue" stroke="midnightblue" points="942.129,-272.077 935.478,-280.324 945.82,-278.024 942.129,-272.077"/>
</g>
<!-- Node61 -->
<g id="node26" class="node"><title>Node61</title>
<g id="a_node26"><a xlink:href="arch_2default-linux_2odp_2api_2abi_2cpumask_8h_source.html" target="_top" xlink:title="cpumask.h">
<polygon fill="white" stroke="black" points="1061,-224.5 1061,-243.5 1130,-243.5 1130,-224.5 1061,-224.5"/>
<text text-anchor="middle" x="1095.5" y="-231.5" font-family="Helvetica,sans-Serif" font-size="10.00">cpumask.h</text>
</a>
</g>
</g>
<!-- Node58&#45;&gt;Node61 -->
<g id="edge26" class="edge"><title>Node58&#45;&gt;Node61</title>
<path fill="none" stroke="midnightblue" d="M958.761,-277.436C991.567,-267.255 1038.58,-252.664 1068.06,-243.516"/>
<polygon fill="midnightblue" stroke="midnightblue" points="957.584,-274.137 949.071,-280.444 959.659,-280.822 957.584,-274.137"/>
</g>
<!-- Node62 -->
<g id="node27" class="node"><title>Node62</title>
<g id="a_node27"><a xlink:href="arch_2mips64-linux_2odp_2api_2abi_2cpumask_8h_source.html" target="_top" xlink:title="cpumask.h">
<polygon fill="white" stroke="black" points="626,-224.5 626,-243.5 695,-243.5 695,-224.5 626,-224.5"/>
<text text-anchor="middle" x="660.5" y="-231.5" font-family="Helvetica,sans-Serif" font-size="10.00">cpumask.h</text>
</a>
</g>
</g>
<!-- Node58&#45;&gt;Node62 -->
<g id="edge27" class="edge"><title>Node58&#45;&gt;Node62</title>
<path fill="none" stroke="midnightblue" d="M876.937,-279.839C832.873,-270.771 763.525,-256.477 703.5,-244 700.812,-243.441 698.029,-242.862 695.232,-242.278"/>
<polygon fill="midnightblue" stroke="midnightblue" points="876.258,-283.272 886.758,-281.859 877.669,-276.416 876.258,-283.272"/>
</g>
<!-- Node63 -->
<g id="node28" class="node"><title>Node63</title>
<g id="a_node28"><a xlink:href="arch_2power64-linux_2odp_2api_2abi_2cpumask_8h_source.html" target="_top" xlink:title="cpumask.h">
<polygon fill="white" stroke="black" points="713,-224.5 713,-243.5 782,-243.5 782,-224.5 713,-224.5"/>
<text text-anchor="middle" x="747.5" y="-231.5" font-family="Helvetica,sans-Serif" font-size="10.00">cpumask.h</text>
</a>
</g>
</g>
<!-- Node58&#45;&gt;Node63 -->
<g id="edge28" class="edge"><title>Node58&#45;&gt;Node63</title>
<path fill="none" stroke="midnightblue" d="M884.239,-277.436C851.433,-267.255 804.417,-252.664 774.942,-243.516"/>
<polygon fill="midnightblue" stroke="midnightblue" points="883.341,-280.822 893.929,-280.444 885.416,-274.137 883.341,-280.822"/>
</g>
<!-- Node64 -->
<g id="node29" class="node"><title>Node64</title>
<g id="a_node29"><a xlink:href="arch_2x86__32-linux_2odp_2api_2abi_2cpumask_8h_source.html" target="_top" xlink:title="cpumask.h">
<polygon fill="white" stroke="black" points="800,-224.5 800,-243.5 869,-243.5 869,-224.5 800,-224.5"/>
<text text-anchor="middle" x="834.5" y="-231.5" font-family="Helvetica,sans-Serif" font-size="10.00">cpumask.h</text>
</a>
</g>
</g>
<!-- Node58&#45;&gt;Node64 -->
<g id="edge29" class="edge"><title>Node58&#45;&gt;Node64</title>
<path fill="none" stroke="midnightblue" d="M898.784,-274.901C882.831,-264.999 862.003,-252.071 848.443,-243.655"/>
<polygon fill="midnightblue" stroke="midnightblue" points="897.18,-278.024 907.522,-280.324 900.871,-272.077 897.18,-278.024"/>
</g>
<!-- Node65 -->
<g id="node30" class="node"><title>Node65</title>
<g id="a_node30"><a xlink:href="arch_2x86__64-linux_2odp_2api_2abi_2cpumask_8h_source.html" target="_top" xlink:title="cpumask.h">
<polygon fill="white" stroke="black" points="539,-224.5 539,-243.5 608,-243.5 608,-224.5 539,-224.5"/>
<text text-anchor="middle" x="573.5" y="-231.5" font-family="Helvetica,sans-Serif" font-size="10.00">cpumask.h</text>
</a>
</g>
</g>
<!-- Node58&#45;&gt;Node65 -->
<g id="edge30" class="edge"><title>Node58&#45;&gt;Node65</title>
<path fill="none" stroke="midnightblue" d="M876.425,-283.208C816.787,-275.349 708.462,-260.393 616.5,-244 613.797,-243.518 611.004,-242.994 608.199,-242.449"/>
<polygon fill="midnightblue" stroke="midnightblue" points="876.257,-286.716 886.627,-284.546 877.167,-279.775 876.257,-286.716"/>
</g>
<!-- Node66 -->
<g id="node31" class="node"><title>Node66</title>
<g id="a_node31"><a xlink:href="api_2cpumask_8h.html" target="_top" xlink:title="ODP CPU masks and enumeration. ">
<polygon fill="white" stroke="red" points="653,-168.5 653,-187.5 722,-187.5 722,-168.5 653,-168.5"/>
<text text-anchor="middle" x="687.5" y="-175.5" font-family="Helvetica,sans-Serif" font-size="10.00">cpumask.h</text>
</a>
</g>
</g>
<!-- Node65&#45;&gt;Node66 -->
<g id="edge31" class="edge"><title>Node65&#45;&gt;Node66</title>
<path fill="none" stroke="midnightblue" d="M600.742,-220.096C622.04,-210.007 651.042,-196.27 669.521,-187.516"/>
<polygon fill="midnightblue" stroke="midnightblue" points="599.103,-217 591.564,-224.444 602.099,-223.326 599.103,-217"/>
</g>
<!-- Node66&#45;&gt;Node29 -->
<g id="edge32" class="edge"><title>Node66&#45;&gt;Node29</title>
<path fill="none" stroke="midnightblue" d="M732.233,-168.87C803.914,-155.973 949.007,-130.402 1072.5,-112 1188.79,-94.671 1327.53,-77.894 1388.77,-70.6861"/>
<polygon fill="midnightblue" stroke="midnightblue" points="731.422,-165.46 722.201,-170.679 732.664,-172.349 731.422,-165.46"/>
</g>
<!-- Node83 -->
<g id="node33" class="node"><title>Node83</title>
<g id="a_node33"><a xlink:href="api_2std__types_8h.html" target="_top" xlink:title="Standard C language types and definitions for ODP. ">
<polygon fill="white" stroke="red" points="1513.5,-336.5 1513.5,-355.5 1585.5,-355.5 1585.5,-336.5 1513.5,-336.5"/>
<text text-anchor="middle" x="1549.5" y="-343.5" font-family="Helvetica,sans-Serif" font-size="10.00">std_types.h</text>
</a>
</g>
</g>
<!-- Node82&#45;&gt;Node83 -->
<g id="edge34" class="edge"><title>Node82&#45;&gt;Node83</title>
<path fill="none" stroke="midnightblue" d="M1440.43,-388.772C1466.91,-378.629 1503.89,-364.467 1527.26,-355.516"/>
<polygon fill="midnightblue" stroke="midnightblue" points="1438.93,-385.599 1430.84,-392.444 1441.43,-392.136 1438.93,-385.599"/>
</g>
<!-- Node83&#45;&gt;Node11 -->
<g id="edge35" class="edge"><title>Node83&#45;&gt;Node11</title>
<path fill="none" stroke="midnightblue" d="M1503.13,-342.934C1304.58,-334.088 528.865,-299.526 367.144,-292.321"/>
<polygon fill="midnightblue" stroke="midnightblue" points="1503.08,-346.435 1513.23,-343.384 1503.39,-339.442 1503.08,-346.435"/>
</g>
<!-- Node83&#45;&gt;Node20 -->
<g id="edge36" class="edge"><title>Node83&#45;&gt;Node20</title>
<path fill="none" stroke="midnightblue" d="M1503.19,-343.515C1430.5,-340.275 1294.11,-330.237 1257.5,-300 1203.62,-255.5 1197.22,-160.901 1196.55,-131.742"/>
<polygon fill="midnightblue" stroke="midnightblue" points="1503.29,-347.023 1513.43,-343.946 1503.59,-340.029 1503.29,-347.023"/>
</g>
<!-- Node83&#45;&gt;Node28 -->
<g id="edge46" class="edge"><title>Node83&#45;&gt;Node28</title>
<path fill="none" stroke="midnightblue" d="M1503.04,-343.047C1426.69,-339.071 1278.83,-327.923 1235.5,-300 1169.61,-257.539 1134.69,-161.554 1125.2,-131.899"/>
<polygon fill="midnightblue" stroke="midnightblue" points="1503.15,-346.557 1513.32,-343.561 1503.5,-339.565 1503.15,-346.557"/>
</g>
<!-- Node83&#45;&gt;Node29 -->
<g id="edge63" class="edge"><title>Node83&#45;&gt;Node29</title>
<path fill="none" stroke="midnightblue" d="M1595.5,-336.645C1618.52,-330.241 1645.11,-319.118 1662.5,-300 1682.75,-277.735 1681.5,-265.098 1681.5,-235 1681.5,-235 1681.5,-235 1681.5,-177 1681.5,-78.5322 1521.8,-66.806 1452.24,-66.3686"/>
<polygon fill="midnightblue" stroke="midnightblue" points="1594.38,-333.319 1585.56,-339.188 1596.11,-340.101 1594.38,-333.319"/>
</g>
<!-- Node83&#45;&gt;Node58 -->
<g id="edge38" class="edge"><title>Node83&#45;&gt;Node58</title>
<path fill="none" stroke="midnightblue" d="M1503.5,-341.045C1383.43,-330.72 1062.48,-303.123 956.212,-293.985"/>
<polygon fill="midnightblue" stroke="midnightblue" points="1503.22,-344.533 1513.48,-341.903 1503.82,-337.559 1503.22,-344.533"/>
</g>
<!-- Node84 -->
<g id="node34" class="node"><title>Node84</title>
<g id="a_node34"><a xlink:href="api_2abi-default_2byteorder_8h.html" target="_top" xlink:title="ODP byteorder. ">
<polygon fill="white" stroke="red" points="1748,-280.5 1748,-299.5 1819,-299.5 1819,-280.5 1748,-280.5"/>
<text text-anchor="middle" x="1783.5" y="-287.5" font-family="Helvetica,sans-Serif" font-size="10.00">byteorder.h</text>
</a>
</g>
</g>
<!-- Node83&#45;&gt;Node84 -->
<g id="edge37" class="edge"><title>Node83&#45;&gt;Node84</title>
<path fill="none" stroke="midnightblue" d="M1595.56,-334.371C1640.22,-324.065 1707.02,-308.648 1747.79,-299.24"/>
<polygon fill="midnightblue" stroke="midnightblue" points="1594.51,-331.022 1585.55,-336.681 1596.08,-337.843 1594.51,-331.022"/>
</g>
<!-- Node93 -->
<g id="node35" class="node"><title>Node93</title>
<g id="a_node35"><a xlink:href="api_2abi-default_2init_8h.html" target="_top" xlink:title="ODP initialization. ">
<polygon fill="white" stroke="red" points="1837.5,-280.5 1837.5,-299.5 1877.5,-299.5 1877.5,-280.5 1837.5,-280.5"/>
<text text-anchor="middle" x="1857.5" y="-287.5" font-family="Helvetica,sans-Serif" font-size="10.00">init.h</text>
</a>
</g>
</g>
<!-- Node83&#45;&gt;Node93 -->
<g id="edge39" class="edge"><title>Node83&#45;&gt;Node93</title>
<path fill="none" stroke="midnightblue" d="M1596.2,-339.515C1651.93,-332.499 1747.73,-318.948 1828.5,-300 1831.37,-299.326 1834.38,-298.516 1837.32,-297.662"/>
<polygon fill="midnightblue" stroke="midnightblue" points="1595.43,-336.083 1585.94,-340.79 1596.29,-343.03 1595.43,-336.083"/>
</g>
<!-- Node101 -->
<g id="node36" class="node"><title>Node101</title>
<g id="a_node36"><a xlink:href="api_2abi-default_2ipsec_8h.html" target="_top" xlink:title="ODP IPSEC API &#45; platform specific types. ">
<polygon fill="white" stroke="red" points="1895.5,-280.5 1895.5,-299.5 1945.5,-299.5 1945.5,-280.5 1895.5,-280.5"/>
<text text-anchor="middle" x="1920.5" y="-287.5" font-family="Helvetica,sans-Serif" font-size="10.00">ipsec.h</text>
</a>
</g>
</g>
<!-- Node83&#45;&gt;Node101 -->
<g id="edge40" class="edge"><title>Node83&#45;&gt;Node101</title>
<path fill="none" stroke="midnightblue" d="M1595.61,-340.702C1660.8,-334.206 1783.45,-320.434 1886.5,-300 1889.37,-299.43 1892.37,-298.757 1895.33,-298.04"/>
<polygon fill="midnightblue" stroke="midnightblue" points="1595.26,-337.22 1585.65,-341.682 1595.95,-344.186 1595.26,-337.22"/>
</g>
<!-- Node110 -->
<g id="node37" class="node"><title>Node110</title>
<g id="a_node37"><a xlink:href="api_2abi-default_2packet__io_8h.html" target="_top" xlink:title="ODP Packet IO. ">
<polygon fill="white" stroke="red" points="1964,-280.5 1964,-299.5 2035,-299.5 2035,-280.5 1964,-280.5"/>
<text text-anchor="middle" x="1999.5" y="-287.5" font-family="Helvetica,sans-Serif" font-size="10.00">packet_io.h</text>
</a>
</g>
</g>
<!-- Node83&#45;&gt;Node110 -->
<g id="edge41" class="edge"><title>Node83&#45;&gt;Node110</title>
<path fill="none" stroke="midnightblue" d="M1595.78,-341.174C1671.18,-334.645 1825.14,-320.084 1954.5,-300 1957.49,-299.536 1960.59,-299.011 1963.69,-298.453"/>
<polygon fill="midnightblue" stroke="midnightblue" points="1595.33,-337.699 1585.67,-342.042 1595.93,-344.674 1595.33,-337.699"/>
</g>
<!-- Node40 -->
<g id="node38" class="node"><title>Node40</title>
<g id="a_node38"><a xlink:href="api_2abi-default_2rwlock__recursive_8h.html" target="_top" xlink:title="ODP recursive read/write lock. ">
<polygon fill="white" stroke="red" points="2053.5,-280.5 2053.5,-299.5 2157.5,-299.5 2157.5,-280.5 2053.5,-280.5"/>
<text text-anchor="middle" x="2105.5" y="-287.5" font-family="Helvetica,sans-Serif" font-size="10.00">rwlock_recursive.h</text>
</a>
</g>
</g>
<!-- Node83&#45;&gt;Node40 -->
<g id="edge42" class="edge"><title>Node83&#45;&gt;Node40</title>
<path fill="none" stroke="midnightblue" d="M1595.74,-341.663C1683.42,-335.142 1879.82,-319.618 2044.5,-300 2047.37,-299.658 2050.31,-299.288 2053.28,-298.9"/>
<polygon fill="midnightblue" stroke="midnightblue" points="1595.31,-338.185 1585.6,-342.413 1595.83,-345.166 1595.31,-338.185"/>
</g>
<!-- Node136 -->
<g id="node39" class="node"><title>Node136</title>
<g id="a_node39"><a xlink:href="api_2abi-default_2schedule_8h.html" target="_top" xlink:title="ODP schedule. ">
<polygon fill="white" stroke="red" points="2175.5,-280.5 2175.5,-299.5 2243.5,-299.5 2243.5,-280.5 2175.5,-280.5"/>
<text text-anchor="middle" x="2209.5" y="-287.5" font-family="Helvetica,sans-Serif" font-size="10.00">schedule.h</text>
</a>
</g>
</g>
<!-- Node83&#45;&gt;Node136 -->
<g id="edge43" class="edge"><title>Node83&#45;&gt;Node136</title>
<path fill="none" stroke="midnightblue" d="M1595.92,-343.731C1699.01,-340.449 1954.68,-329.756 2166.5,-300 2169.37,-299.597 2172.34,-299.115 2175.3,-298.587"/>
<polygon fill="midnightblue" stroke="midnightblue" points="1595.73,-340.235 1585.84,-344.043 1595.95,-347.231 1595.73,-340.235"/>
</g>
<!-- Node144 -->
<g id="node40" class="node"><title>Node144</title>
<g id="a_node40"><a xlink:href="api_2abi-default_2spinlock__recursive_8h.html" target="_top" xlink:title="ODP recursive spinlock. ">
<polygon fill="white" stroke="red" points="2262,-280.5 2262,-299.5 2375,-299.5 2375,-280.5 2262,-280.5"/>
<text text-anchor="middle" x="2318.5" y="-287.5" font-family="Helvetica,sans-Serif" font-size="10.00">spinlock_recursive.h</text>
</a>
</g>
</g>
<!-- Node83&#45;&gt;Node144 -->
<g id="edge44" class="edge"><title>Node83&#45;&gt;Node144</title>
<path fill="none" stroke="midnightblue" d="M1595.8,-343.185C1708.42,-338.519 2005.57,-324.707 2252.5,-300 2255.49,-299.701 2258.56,-299.369 2261.65,-299.015"/>
<polygon fill="midnightblue" stroke="midnightblue" points="1595.64,-339.688 1585.79,-343.595 1595.93,-346.682 1595.64,-339.688"/>
</g>
<!-- Node153 -->
<g id="node41" class="node"><title>Node153</title>
<g id="a_node41"><a xlink:href="api_2abi-default_2traffic__mngr_8h.html" target="_top" xlink:title="ODP traffic mngr. ">
<polygon fill="white" stroke="red" points="2393,-280.5 2393,-299.5 2476,-299.5 2476,-280.5 2393,-280.5"/>
<text text-anchor="middle" x="2434.5" y="-287.5" font-family="Helvetica,sans-Serif" font-size="10.00">traffic_mngr.h</text>
</a>
</g>
</g>
<!-- Node83&#45;&gt;Node153 -->
<g id="edge45" class="edge"><title>Node83&#45;&gt;Node153</title>
<path fill="none" stroke="midnightblue" d="M1595.98,-344.518C1722.83,-342.765 2085.4,-334.842 2384.5,-300 2387.22,-299.684 2390.01,-299.312 2392.82,-298.903"/>
<polygon fill="midnightblue" stroke="midnightblue" points="1595.81,-341.02 1585.85,-344.651 1595.9,-348.019 1595.81,-341.02"/>
</g>
<!-- Node161 -->
<g id="node42" class="node"><title>Node161</title>
<g id="a_node42"><a xlink:href="api_2buffer_8h.html" target="_top" xlink:title="ODP buffer descriptor. ">
<polygon fill="white" stroke="black" points="1710,-168.5 1710,-187.5 1763,-187.5 1763,-168.5 1710,-168.5"/>
<text text-anchor="middle" x="1736.5" y="-175.5" font-family="Helvetica,sans-Serif" font-size="10.00">buffer.h</text>
</a>
</g>
</g>
<!-- Node83&#45;&gt;Node161 -->
<g id="edge47" class="edge"><title>Node83&#45;&gt;Node161</title>
<path fill="none" stroke="midnightblue" d="M1595.65,-341.634C1627.53,-336.971 1668.82,-325.949 1695.5,-300 1728.09,-268.297 1734.78,-209.777 1736.15,-187.719"/>
<polygon fill="midnightblue" stroke="midnightblue" points="1595.13,-338.173 1585.67,-342.935 1596.04,-345.114 1595.13,-338.173"/>
</g>
<!-- Node118 -->
<g id="node43" class="node"><title>Node118</title>
<g id="a_node43"><a xlink:href="api_2classification_8h.html" target="_top" xlink:title="ODP classification descriptor. ">
<polygon fill="white" stroke="red" points="1242.5,-112.5 1242.5,-131.5 1328.5,-131.5 1328.5,-112.5 1242.5,-112.5"/>
<text text-anchor="middle" x="1285.5" y="-119.5" font-family="Helvetica,sans-Serif" font-size="10.00">classification.h</text>
</a>
</g>
</g>
<!-- Node83&#45;&gt;Node118 -->
<g id="edge49" class="edge"><title>Node83&#45;&gt;Node118</title>
<path fill="none" stroke="midnightblue" d="M1503.4,-343.278C1435.21,-339.768 1312.09,-329.433 1280.5,-300 1236.69,-259.183 1235.29,-225.044 1253.5,-168 1258.05,-153.754 1268.94,-140.16 1276.75,-131.714"/>
<polygon fill="midnightblue" stroke="midnightblue" points="1503.29,-346.777 1513.45,-343.767 1503.63,-339.785 1503.29,-346.777"/>
</g>
<!-- Node124 -->
<g id="node44" class="node"><title>Node124</title>
<g id="a_node44"><a xlink:href="api_2crypto_8h.html" target="_top" xlink:title="ODP crypto. ">
<polygon fill="white" stroke="red" points="1456.5,-224.5 1456.5,-243.5 1512.5,-243.5 1512.5,-224.5 1456.5,-224.5"/>
<text text-anchor="middle" x="1484.5" y="-231.5" font-family="Helvetica,sans-Serif" font-size="10.00">crypto.h</text>
</a>
</g>
</g>
<!-- Node83&#45;&gt;Node124 -->
<g id="edge51" class="edge"><title>Node83&#45;&gt;Node124</title>
<path fill="none" stroke="midnightblue" d="M1503.3,-339.95C1455.3,-333.64 1384.94,-321.032 1368.5,-300 1342.27,-266.446 1414.1,-247.495 1456.27,-239.527"/>
<polygon fill="midnightblue" stroke="midnightblue" points="1503.11,-343.455 1513.47,-341.238 1503.99,-336.51 1503.11,-343.455"/>
</g>
<!-- Node120 -->
<g id="node45" class="node"><title>Node120</title>
<g id="a_node45"><a xlink:href="api_2packet_8h.html" target="_top" xlink:title="ODP packet descriptor. ">
<polygon fill="white" stroke="red" points="1262.5,-168.5 1262.5,-187.5 1320.5,-187.5 1320.5,-168.5 1262.5,-168.5"/>
<text text-anchor="middle" x="1291.5" y="-175.5" font-family="Helvetica,sans-Serif" font-size="10.00">packet.h</text>
</a>
</g>
</g>
<!-- Node83&#45;&gt;Node120 -->
<g id="edge53" class="edge"><title>Node83&#45;&gt;Node120</title>
<path fill="none" stroke="midnightblue" d="M1503.21,-343.471C1437.71,-340.24 1322.97,-330.297 1296.5,-300 1268.14,-267.541 1282,-209.476 1288.64,-187.629"/>
<polygon fill="midnightblue" stroke="midnightblue" points="1503.13,-346.971 1513.28,-343.934 1503.45,-339.978 1503.13,-346.971"/>
</g>
<!-- Node130 -->
<g id="node46" class="node"><title>Node130</title>
<g id="a_node46"><a xlink:href="api_2packet__io_8h.html" target="_top" xlink:title="ODP Packet IO. ">
<polygon fill="white" stroke="red" points="1385,-112.5 1385,-131.5 1456,-131.5 1456,-112.5 1385,-112.5"/>
<text text-anchor="middle" x="1420.5" y="-119.5" font-family="Helvetica,sans-Serif" font-size="10.00">packet_io.h</text>
</a>
</g>
</g>
<!-- Node83&#45;&gt;Node130 -->
<g id="edge55" class="edge"><title>Node83&#45;&gt;Node130</title>
<path fill="none" stroke="midnightblue" d="M1503.12,-340.6C1452.48,-334.725 1376.21,-322.364 1358.5,-300 1315.45,-245.627 1386.96,-159.201 1412.2,-131.702"/>
<polygon fill="midnightblue" stroke="midnightblue" points="1502.87,-344.094 1513.19,-341.724 1503.64,-337.137 1502.87,-344.094"/>
</g>
<!-- Node128 -->
<g id="node47" class="node"><title>Node128</title>
<g id="a_node47"><a xlink:href="api_2queue_8h.html" target="_top" xlink:title="ODP queue. ">
<polygon fill="white" stroke="red" points="1597.5,-280.5 1597.5,-299.5 1653.5,-299.5 1653.5,-280.5 1597.5,-280.5"/>
<text text-anchor="middle" x="1625.5" y="-287.5" font-family="Helvetica,sans-Serif" font-size="10.00">queue.h</text>
</a>
</g>
</g>
<!-- Node83&#45;&gt;Node128 -->
<g id="edge57" class="edge"><title>Node83&#45;&gt;Node128</title>
<path fill="none" stroke="midnightblue" d="M1570.08,-330.38C1583.81,-320.62 1601.43,-308.106 1613.07,-299.834"/>
<polygon fill="midnightblue" stroke="midnightblue" points="1567.84,-327.679 1561.71,-336.324 1571.89,-333.385 1567.84,-327.679"/>
</g>
<!-- Node162 -->
<g id="node48" class="node"><title>Node162</title>
<g id="a_node48"><a xlink:href="spec_2chksum_8h.html" target="_top" xlink:title="ODP checksum functions. ">
<polygon fill="white" stroke="red" points="1377,-280.5 1377,-299.5 1440,-299.5 1440,-280.5 1377,-280.5"/>
<text text-anchor="middle" x="1408.5" y="-287.5" font-family="Helvetica,sans-Serif" font-size="10.00">chksum.h</text>
</a>
</g>
</g>
<!-- Node83&#45;&gt;Node162 -->
<g id="edge60" class="edge"><title>Node83&#45;&gt;Node162</title>
<path fill="none" stroke="midnightblue" d="M1517.57,-332.772C1491.09,-322.629 1454.11,-308.467 1430.74,-299.516"/>
<polygon fill="midnightblue" stroke="midnightblue" points="1516.57,-336.136 1527.16,-336.444 1519.07,-329.599 1516.57,-336.136"/>
</g>
<!-- Node164 -->
<g id="node49" class="node"><title>Node164</title>
<g id="a_node49"><a xlink:href="api_2spec_2cpu_8h.html" target="_top" xlink:title="ODP CPU API. ">
<polygon fill="white" stroke="red" points="1458,-280.5 1458,-299.5 1501,-299.5 1501,-280.5 1458,-280.5"/>
<text text-anchor="middle" x="1479.5" y="-287.5" font-family="Helvetica,sans-Serif" font-size="10.00">cpu.h</text>
</a>
</g>
</g>
<!-- Node83&#45;&gt;Node164 -->
<g id="edge61" class="edge"><title>Node83&#45;&gt;Node164</title>
<path fill="none" stroke="midnightblue" d="M1530.19,-330.101C1517.59,-320.382 1501.57,-308.027 1490.95,-299.834"/>
<polygon fill="midnightblue" stroke="midnightblue" points="1528.2,-332.987 1538.25,-336.324 1532.47,-327.445 1528.2,-332.987"/>
</g>
<!-- Node166 -->
<g id="node50" class="node"><title>Node166</title>
<g id="a_node50"><a xlink:href="spec_2feature_8h.html" target="_top" xlink:title="ODP features. ">
<polygon fill="white" stroke="red" points="1519.5,-280.5 1519.5,-299.5 1579.5,-299.5 1579.5,-280.5 1519.5,-280.5"/>
<text text-anchor="middle" x="1549.5" y="-287.5" font-family="Helvetica,sans-Serif" font-size="10.00">feature.h</text>
</a>
</g>
</g>
<!-- Node83&#45;&gt;Node166 -->
<g id="edge62" class="edge"><title>Node83&#45;&gt;Node166</title>
<path fill="none" stroke="midnightblue" d="M1549.5,-325.805C1549.5,-316.91 1549.5,-306.78 1549.5,-299.751"/>
<polygon fill="midnightblue" stroke="midnightblue" points="1546,-326.083 1549.5,-336.083 1553,-326.083 1546,-326.083"/>
</g>
<!-- Node161&#45;&gt;Node29 -->
<g id="edge48" class="edge"><title>Node161&#45;&gt;Node29</title>
<path fill="none" stroke="midnightblue" d="M1729.96,-158.818C1723.56,-143.776 1712.31,-123.136 1695.5,-112 1655.98,-85.8149 1515.77,-73.3475 1452.22,-68.9419"/>
<polygon fill="midnightblue" stroke="midnightblue" points="1726.71,-160.122 1733.62,-168.152 1733.23,-157.565 1726.71,-160.122"/>
</g>
<!-- Node118&#45;&gt;Node29 -->
<g id="edge50" class="edge"><title>Node118&#45;&gt;Node29</title>
<path fill="none" stroke="midnightblue" d="M1316.41,-108.638C1341.74,-98.504 1376.93,-84.4274 1399.21,-75.5164"/>
<polygon fill="midnightblue" stroke="midnightblue" points="1314.88,-105.48 1306.89,-112.444 1317.48,-111.979 1314.88,-105.48"/>
</g>
<!-- Node124&#45;&gt;Node29 -->
<g id="edge52" class="edge"><title>Node124&#45;&gt;Node29</title>
<path fill="none" stroke="midnightblue" d="M1485.06,-214.024C1485.04,-189.22 1482.31,-145.051 1465.5,-112 1457.79,-96.8346 1443.07,-83.6306 1432.56,-75.5162"/>
<polygon fill="midnightblue" stroke="midnightblue" points="1481.56,-214.182 1484.92,-224.23 1488.56,-214.281 1481.56,-214.182"/>
</g>
<!-- Node120&#45;&gt;Node29 -->
<g id="edge54" class="edge"><title>Node120&#45;&gt;Node29</title>
<path fill="none" stroke="midnightblue" d="M1309.31,-161.816C1336.78,-138.387 1388.61,-94.1898 1410.42,-75.5914"/>
<polygon fill="midnightblue" stroke="midnightblue" points="1306.96,-159.217 1301.62,-168.368 1311.5,-164.543 1306.96,-159.217"/>
</g>
<!-- Node130&#45;&gt;Node29 -->
<g id="edge56" class="edge"><title>Node130&#45;&gt;Node29</title>
<path fill="none" stroke="midnightblue" d="M1420.5,-101.805C1420.5,-92.9102 1420.5,-82.7798 1420.5,-75.7511"/>
<polygon fill="midnightblue" stroke="midnightblue" points="1417,-102.083 1420.5,-112.083 1424,-102.083 1417,-102.083"/>
</g>
<!-- Node128&#45;&gt;Node29 -->
<g id="edge59" class="edge"><title>Node128&#45;&gt;Node29</title>
<path fill="none" stroke="midnightblue" d="M1613.95,-271.585C1591.37,-238.279 1538.73,-164.229 1483.5,-112 1468.26,-97.5932 1448.2,-84.0345 1434.85,-75.64"/>
<polygon fill="midnightblue" stroke="midnightblue" points="1611.26,-273.845 1619.74,-280.197 1617.07,-269.943 1611.26,-273.845"/>
</g>
<!-- Node128&#45;&gt;Node124 -->
<g id="edge58" class="edge"><title>Node128&#45;&gt;Node124</title>
<path fill="none" stroke="midnightblue" d="M1593.57,-276.772C1567.09,-266.629 1530.11,-252.467 1506.74,-243.516"/>
<polygon fill="midnightblue" stroke="midnightblue" points="1592.57,-280.136 1603.16,-280.444 1595.07,-273.599 1592.57,-280.136"/>
</g>
</g>
</svg>
