<?xml version="1.0" encoding="UTF-8" standalone="no"?>
<!DOCTYPE svg PUBLIC "-//W3C//DTD SVG 1.1//EN"
 "http://www.w3.org/Graphics/SVG/1.1/DTD/svg11.dtd">
<!-- Generated by graphviz version 2.38.0 (20140413.2041)
 -->
<!-- Title: schedule.h Pages: 1 -->
<svg width="1827pt" height="778pt"
 viewBox="0.00 0.00 1827.00 778.00" xmlns="http://www.w3.org/2000/svg" xmlns:xlink="http://www.w3.org/1999/xlink">
<g id="graph0" class="graph" transform="scale(1 1) rotate(0) translate(4 774)">
<title>schedule.h</title>
<polygon fill="white" stroke="none" points="-4,4 -4,-774 1823,-774 1823,4 -4,4"/>
<!-- Node0 -->
<g id="node1" class="node"><title>Node0</title>
<polygon fill="#bfbfbf" stroke="black" points="1633,-750.5 1633,-769.5 1701,-769.5 1701,-750.5 1633,-750.5"/>
<text text-anchor="middle" x="1667" y="-757.5" font-family="Helvetica,sans-Serif" font-size="10.00">schedule.h</text>
</g>
<!-- Node1 -->
<g id="node2" class="node"><title>Node1</title>
<polygon fill="white" stroke="#bfbfbf" points="1558.5,-168.5 1558.5,-198.5 1673.5,-198.5 1673.5,-168.5 1558.5,-168.5"/>
<text text-anchor="start" x="1566.5" y="-186.5" font-family="Helvetica,sans-Serif" font-size="10.00">odp/api/abi/schedule</text>
<text text-anchor="middle" x="1616" y="-175.5" font-family="Helvetica,sans-Serif" font-size="10.00">_types.h</text>
</g>
<!-- Node0&#45;&gt;Node1 -->
<g id="edge1" class="edge"><title>Node0&#45;&gt;Node1</title>
<path fill="none" stroke="midnightblue" d="M1667,-750.442C1667,-731.936 1667,-686.812 1667,-649 1667,-649 1667,-649 1667,-305.5 1667,-273.049 1661.06,-264.709 1648,-235 1643.83,-225.51 1638.04,-215.738 1632.54,-207.349"/>
<polygon fill="midnightblue" stroke="midnightblue" points="1635.28,-205.162 1626.76,-198.867 1629.5,-209.103 1635.28,-205.162"/>
</g>
<!-- Node2 -->
<g id="node3" class="node"><title>Node2</title>
<polygon fill="white" stroke="#bfbfbf" points="1695,-694.5 1695,-713.5 1819,-713.5 1819,-694.5 1695,-694.5"/>
<text text-anchor="middle" x="1757" y="-701.5" font-family="Helvetica,sans-Serif" font-size="10.00">odp/api/abi/schedule.h</text>
</g>
<!-- Node0&#45;&gt;Node2 -->
<g id="edge2" class="edge"><title>Node0&#45;&gt;Node2</title>
<path fill="none" stroke="midnightblue" d="M1681.46,-750.324C1695.5,-741.9 1717.05,-728.971 1733.54,-719.074"/>
<polygon fill="midnightblue" stroke="midnightblue" points="1735.8,-721.801 1742.58,-713.655 1732.2,-715.798 1735.8,-721.801"/>
</g>
<!-- Node3 -->
<g id="node4" class="node"><title>Node3</title>
<g id="a_node4"><a xlink:href="api_2spec_2schedule_8h.html" target="_top" xlink:title="ODP schedule. ">
<polygon fill="white" stroke="black" points="1023,-694.5 1023,-713.5 1155,-713.5 1155,-694.5 1023,-694.5"/>
<text text-anchor="middle" x="1089" y="-701.5" font-family="Helvetica,sans-Serif" font-size="10.00">odp/api/spec/schedule.h</text>
</a>
</g>
</g>
<!-- Node0&#45;&gt;Node3 -->
<g id="edge3" class="edge"><title>Node0&#45;&gt;Node3</title>
<path fill="none" stroke="midnightblue" d="M1632.57,-755.784C1541.47,-747.273 1292.41,-724.003 1165.51,-712.148"/>
<polygon fill="midnightblue" stroke="midnightblue" points="1165.75,-708.656 1155.47,-711.21 1165.1,-715.625 1165.75,-708.656"/>
</g>
<!-- Node4 -->
<g id="node5" class="node"><title>Node4</title>
<g id="a_node5"><a xlink:href="visibility__begin_8h_source.html" target="_top" xlink:title="odp/visibility_begin.h">
<polygon fill="white" stroke="black" points="1308.5,-0.5 1308.5,-19.5 1423.5,-19.5 1423.5,-0.5 1308.5,-0.5"/>
<text text-anchor="middle" x="1366" y="-7.5" font-family="Helvetica,sans-Serif" font-size="10.00">odp/visibility_begin.h</text>
</a>
</g>
</g>
<!-- Node3&#45;&gt;Node4 -->
<g id="edge4" class="edge"><title>Node3&#45;&gt;Node4</title>
<path fill="none" stroke="midnightblue" d="M1155.21,-702.222C1266.07,-699.989 1483.81,-691.355 1552,-658 1690.3,-590.353 1743,-522.961 1743,-369 1743,-369 1743,-369 1743,-121 1743,-71.6587 1698.63,-74.7821 1653,-56 1581.8,-26.6901 1493.45,-16.3346 1433.73,-12.7502"/>
<polygon fill="midnightblue" stroke="midnightblue" points="1433.84,-9.25103 1423.66,-12.1938 1433.45,-16.2404 1433.84,-9.25103"/>
</g>
<!-- Node5 -->
<g id="node6" class="node"><title>Node5</title>
<g id="a_node6"><a xlink:href="api_2std__types_8h.html" target="_top" xlink:title="Standard C language types and definitions for ODP. ">
<polygon fill="white" stroke="black" points="461,-235.5 461,-254.5 571,-254.5 571,-235.5 461,-235.5"/>
<text text-anchor="middle" x="516" y="-242.5" font-family="Helvetica,sans-Serif" font-size="10.00">odp/api/std_types.h</text>
</a>
</g>
</g>
<!-- Node3&#45;&gt;Node5 -->
<g id="edge5" class="edge"><title>Node3&#45;&gt;Node5</title>
<path fill="none" stroke="midnightblue" d="M1022.93,-700.483C836.198,-692.497 318,-663.943 318,-593 318,-593 318,-593 318,-423 318,-353.222 349.133,-335.354 403,-291 422.084,-275.286 447.345,-264.534 469.143,-257.491"/>
<polygon fill="midnightblue" stroke="midnightblue" points="470.341,-260.785 478.88,-254.512 468.293,-254.091 470.341,-260.785"/>
</g>
<!-- Node12 -->
<g id="node13" class="node"><title>Node12</title>
<g id="a_node13"><a xlink:href="visibility__end_8h_source.html" target="_top" xlink:title="odp/visibility_end.h">
<polygon fill="white" stroke="black" points="690.5,-0.5 690.5,-19.5 797.5,-19.5 797.5,-0.5 690.5,-0.5"/>
<text text-anchor="middle" x="744" y="-7.5" font-family="Helvetica,sans-Serif" font-size="10.00">odp/visibility_end.h</text>
</a>
</g>
</g>
<!-- Node3&#45;&gt;Node12 -->
<g id="edge70" class="edge"><title>Node3&#45;&gt;Node12</title>
<path fill="none" stroke="midnightblue" d="M1022.92,-703.295C786.983,-703.489 0,-696.385 0,-593 0,-593 0,-593 0,-121 0,-52.4749 500.289,-22.3661 680.374,-13.7479"/>
<polygon fill="midnightblue" stroke="midnightblue" points="680.67,-17.2379 690.493,-13.2701 680.339,-10.2457 680.67,-17.2379"/>
</g>
<!-- Node13 -->
<g id="node14" class="node"><title>Node13</title>
<g id="a_node14"><a xlink:href="api_2event_8h.html" target="_top" xlink:title="ODP event. ">
<polygon fill="white" stroke="black" points="1127.5,-526.5 1127.5,-545.5 1218.5,-545.5 1218.5,-526.5 1127.5,-526.5"/>
<text text-anchor="middle" x="1173" y="-533.5" font-family="Helvetica,sans-Serif" font-size="10.00">odp/api/event.h</text>
</a>
</g>
</g>
<!-- Node3&#45;&gt;Node13 -->
<g id="edge16" class="edge"><title>Node3&#45;&gt;Node13</title>
<path fill="none" stroke="midnightblue" d="M1095.67,-694.272C1108.37,-677.316 1136.24,-638.389 1153,-602 1159.95,-586.92 1165.3,-568.793 1168.71,-555.518"/>
<polygon fill="midnightblue" stroke="midnightblue" points="1172.14,-556.226 1171.11,-545.681 1165.34,-554.565 1172.14,-556.226"/>
</g>
<!-- Node25 -->
<g id="node26" class="node"><title>Node25</title>
<g id="a_node26"><a xlink:href="api_2queue_8h.html" target="_top" xlink:title="ODP queue. ">
<polygon fill="white" stroke="black" points="958,-638.5 958,-657.5 1052,-657.5 1052,-638.5 958,-638.5"/>
<text text-anchor="middle" x="1005" y="-645.5" font-family="Helvetica,sans-Serif" font-size="10.00">odp/api/queue.h</text>
</a>
</g>
</g>
<!-- Node3&#45;&gt;Node25 -->
<g id="edge37" class="edge"><title>Node3&#45;&gt;Node25</title>
<path fill="none" stroke="midnightblue" d="M1075.5,-694.324C1062.4,-685.9 1042.29,-672.971 1026.89,-663.074"/>
<polygon fill="midnightblue" stroke="midnightblue" points="1028.77,-660.118 1018.46,-657.655 1024.98,-666.006 1028.77,-660.118"/>
</g>
<!-- Node29 -->
<g id="node30" class="node"><title>Node29</title>
<g id="a_node30"><a xlink:href="api_2schedule__types_8h.html" target="_top" xlink:title="ODP schedule. ">
<polygon fill="white" stroke="black" points="1501,-235.5 1501,-254.5 1639,-254.5 1639,-235.5 1501,-235.5"/>
<text text-anchor="middle" x="1570" y="-242.5" font-family="Helvetica,sans-Serif" font-size="10.00">odp/api/schedule_types.h</text>
</a>
</g>
</g>
<!-- Node3&#45;&gt;Node29 -->
<g id="edge63" class="edge"><title>Node3&#45;&gt;Node29</title>
<path fill="none" stroke="midnightblue" d="M1155.14,-702.208C1291.46,-698.782 1591,-681.217 1591,-593 1591,-593 1591,-593 1591,-367 1591,-330.188 1581.45,-287.992 1575.23,-264.419"/>
<polygon fill="midnightblue" stroke="midnightblue" points="1578.59,-263.438 1572.58,-254.716 1571.84,-265.285 1578.59,-263.438"/>
</g>
<!-- Node35 -->
<g id="node36" class="node"><title>Node35</title>
<g id="a_node36"><a xlink:href="api_2thrmask_8h.html" target="_top" xlink:title="ODP thread masks. ">
<polygon fill="white" stroke="black" points="180,-358.5 180,-377.5 284,-377.5 284,-358.5 180,-358.5"/>
<text text-anchor="middle" x="232" y="-365.5" font-family="Helvetica,sans-Serif" font-size="10.00">odp/api/thrmask.h</text>
</a>
</g>
</g>
<!-- Node3&#45;&gt;Node35 -->
<g id="edge64" class="edge"><title>Node3&#45;&gt;Node35</title>
<path fill="none" stroke="midnightblue" d="M1022.82,-702.406C845.058,-700.365 366.393,-691.761 304,-658 272.415,-640.909 256,-628.912 256,-593 256,-593 256,-593 256,-479 256,-446.059 245.599,-408.818 238.491,-387.214"/>
<polygon fill="midnightblue" stroke="midnightblue" points="241.785,-386.028 235.237,-377.699 235.162,-388.294 241.785,-386.028"/>
</g>
<!-- Node6 -->
<g id="node7" class="node"><title>Node6</title>
<polygon fill="white" stroke="#bfbfbf" points="640,-174 640,-193 768,-193 768,-174 640,-174"/>
<text text-anchor="middle" x="704" y="-181" font-family="Helvetica,sans-Serif" font-size="10.00">odp/api/abi/std_types.h</text>
</g>
<!-- Node5&#45;&gt;Node6 -->
<g id="edge6" class="edge"><title>Node5&#45;&gt;Node6</title>
<path fill="none" stroke="midnightblue" d="M542.936,-235.475C575.603,-225.136 630.819,-207.661 667.343,-196.102"/>
<polygon fill="midnightblue" stroke="midnightblue" points="668.636,-199.363 677.114,-193.009 666.524,-192.69 668.636,-199.363"/>
</g>
<!-- Node7 -->
<g id="node8" class="node"><title>Node7</title>
<g id="a_node8"><a xlink:href="api_2spec_2std__types_8h.html" target="_top" xlink:title="Standard C language types and definitions for ODP. ">
<polygon fill="white" stroke="black" points="448,-174 448,-193 584,-193 584,-174 448,-174"/>
<text text-anchor="middle" x="516" y="-181" font-family="Helvetica,sans-Serif" font-size="10.00">odp/api/spec/std_types.h</text>
</a>
</g>
</g>
<!-- Node5&#45;&gt;Node7 -->
<g id="edge7" class="edge"><title>Node5&#45;&gt;Node7</title>
<path fill="none" stroke="midnightblue" d="M516,-235.475C516,-227.08 516,-213.981 516,-203.163"/>
<polygon fill="midnightblue" stroke="midnightblue" points="519.5,-203.009 516,-193.009 512.5,-203.009 519.5,-203.009"/>
</g>
<!-- Node7&#45;&gt;Node4 -->
<g id="edge8" class="edge"><title>Node7&#45;&gt;Node4</title>
<path fill="none" stroke="midnightblue" d="M564.127,-173.975C575.25,-172.009 587.036,-169.929 598,-168 740.2,-142.985 775.387,-134.539 918,-112 1031.05,-94.1325 1063.25,-108.488 1173,-76 1193.21,-70.0174 1196.3,-63.4921 1216,-56 1251.27,-42.5851 1292.4,-30.4877 1322.65,-22.2231"/>
<polygon fill="midnightblue" stroke="midnightblue" points="1323.73,-25.5572 1332.47,-19.5709 1321.91,-18.7993 1323.73,-25.5572"/>
</g>
<!-- Node8 -->
<g id="node9" class="node"><title>Node8</title>
<polygon fill="white" stroke="#bfbfbf" points="487.5,-112.5 487.5,-131.5 540.5,-131.5 540.5,-112.5 487.5,-112.5"/>
<text text-anchor="middle" x="514" y="-119.5" font-family="Helvetica,sans-Serif" font-size="10.00">stdint.h</text>
</g>
<!-- Node7&#45;&gt;Node8 -->
<g id="edge9" class="edge"><title>Node7&#45;&gt;Node8</title>
<path fill="none" stroke="midnightblue" d="M515.713,-173.975C515.431,-165.58 514.991,-152.481 514.627,-141.663"/>
<polygon fill="midnightblue" stroke="midnightblue" points="518.12,-141.386 514.286,-131.509 511.124,-141.621 518.12,-141.386"/>
</g>
<!-- Node9 -->
<g id="node10" class="node"><title>Node9</title>
<g id="a_node10"><a xlink:href="api_2align_8h.html" target="_top" xlink:title="ODP alignments. ">
<polygon fill="white" stroke="black" points="597,-112.5 597,-131.5 683,-131.5 683,-112.5 597,-112.5"/>
<text text-anchor="middle" x="640" y="-119.5" font-family="Helvetica,sans-Serif" font-size="10.00">odp/api/align.h</text>
</a>
</g>
</g>
<!-- Node7&#45;&gt;Node9 -->
<g id="edge10" class="edge"><title>Node7&#45;&gt;Node9</title>
<path fill="none" stroke="midnightblue" d="M533.766,-173.975C554.484,-164.034 588.952,-147.495 612.989,-135.961"/>
<polygon fill="midnightblue" stroke="midnightblue" points="614.765,-138.991 622.267,-131.509 611.737,-132.68 614.765,-138.991"/>
</g>
<!-- Node7&#45;&gt;Node12 -->
<g id="edge15" class="edge"><title>Node7&#45;&gt;Node12</title>
<path fill="none" stroke="midnightblue" d="M506.671,-173.893C497.355,-164.603 483.634,-148.858 478,-132 472.09,-114.317 471.376,-67.7286 482,-56 507.824,-27.4905 611.102,-17.0291 680.019,-13.1997"/>
<polygon fill="midnightblue" stroke="midnightblue" points="680.541,-16.6773 690.345,-12.6608 680.176,-9.68677 680.541,-16.6773"/>
</g>
<!-- Node10 -->
<g id="node11" class="node"><title>Node10</title>
<polygon fill="white" stroke="#bfbfbf" points="524,-56.5 524,-75.5 628,-75.5 628,-56.5 524,-56.5"/>
<text text-anchor="middle" x="576" y="-63.5" font-family="Helvetica,sans-Serif" font-size="10.00">odp/api/abi/align.h</text>
</g>
<!-- Node9&#45;&gt;Node10 -->
<g id="edge11" class="edge"><title>Node9&#45;&gt;Node10</title>
<path fill="none" stroke="midnightblue" d="M629.717,-112.324C620.164,-104.263 605.72,-92.0765 594.216,-82.3695"/>
<polygon fill="midnightblue" stroke="midnightblue" points="596.37,-79.6076 586.47,-75.8339 591.856,-84.9577 596.37,-79.6076"/>
</g>
<!-- Node11 -->
<g id="node12" class="node"><title>Node11</title>
<g id="a_node12"><a xlink:href="api_2spec_2align_8h.html" target="_top" xlink:title="ODP alignments. ">
<polygon fill="white" stroke="black" points="646,-56.5 646,-75.5 758,-75.5 758,-56.5 646,-56.5"/>
<text text-anchor="middle" x="702" y="-63.5" font-family="Helvetica,sans-Serif" font-size="10.00">odp/api/spec/align.h</text>
</a>
</g>
</g>
<!-- Node9&#45;&gt;Node11 -->
<g id="edge12" class="edge"><title>Node9&#45;&gt;Node11</title>
<path fill="none" stroke="midnightblue" d="M649.961,-112.324C659.127,-104.341 672.937,-92.3128 684.028,-82.6529"/>
<polygon fill="midnightblue" stroke="midnightblue" points="686.615,-85.041 691.857,-75.8339 682.018,-79.7624 686.615,-85.041"/>
</g>
<!-- Node11&#45;&gt;Node4 -->
<g id="edge13" class="edge"><title>Node11&#45;&gt;Node4</title>
<path fill="none" stroke="midnightblue" d="M758.123,-60.0231C773.333,-58.6942 789.796,-57.274 805,-56 982.858,-41.0963 1192.53,-24.55 1298.05,-16.2933"/>
<polygon fill="midnightblue" stroke="midnightblue" points="1298.55,-19.7655 1308.25,-15.4964 1298,-12.7868 1298.55,-19.7655"/>
</g>
<!-- Node11&#45;&gt;Node12 -->
<g id="edge14" class="edge"><title>Node11&#45;&gt;Node12</title>
<path fill="none" stroke="midnightblue" d="M708.935,-56.083C714.929,-48.3768 723.752,-37.0333 731.048,-27.6531"/>
<polygon fill="midnightblue" stroke="midnightblue" points="733.817,-29.7934 737.194,-19.7511 728.291,-25.4958 733.817,-29.7934"/>
</g>
<!-- Node14 -->
<g id="node15" class="node"><title>Node14</title>
<polygon fill="white" stroke="#bfbfbf" points="384,-358.5 384,-377.5 492,-377.5 492,-358.5 384,-358.5"/>
<text text-anchor="middle" x="438" y="-365.5" font-family="Helvetica,sans-Serif" font-size="10.00">odp/api/abi/event.h</text>
</g>
<!-- Node13&#45;&gt;Node14 -->
<g id="edge17" class="edge"><title>Node13&#45;&gt;Node14</title>
<path fill="none" stroke="midnightblue" d="M1135.29,-526.482C1012.25,-498.694 622.611,-410.695 485.94,-379.827"/>
<polygon fill="midnightblue" stroke="midnightblue" points="486.308,-376.322 475.783,-377.533 484.766,-383.15 486.308,-376.322"/>
</g>
<!-- Node15 -->
<g id="node16" class="node"><title>Node15</title>
<g id="a_node16"><a xlink:href="api_2spec_2event_8h.html" target="_top" xlink:title="ODP event. ">
<polygon fill="white" stroke="black" points="1115,-470.5 1115,-489.5 1231,-489.5 1231,-470.5 1115,-470.5"/>
<text text-anchor="middle" x="1173" y="-477.5" font-family="Helvetica,sans-Serif" font-size="10.00">odp/api/spec/event.h</text>
</a>
</g>
</g>
<!-- Node13&#45;&gt;Node15 -->
<g id="edge18" class="edge"><title>Node13&#45;&gt;Node15</title>
<path fill="none" stroke="midnightblue" d="M1173,-526.083C1173,-519.006 1173,-508.861 1173,-499.986"/>
<polygon fill="midnightblue" stroke="midnightblue" points="1176.5,-499.751 1173,-489.751 1169.5,-499.751 1176.5,-499.751"/>
</g>
<!-- Node15&#45;&gt;Node4 -->
<g id="edge19" class="edge"><title>Node15&#45;&gt;Node4</title>
<path fill="none" stroke="midnightblue" d="M1196.62,-470.476C1232.59,-455.794 1297,-422.095 1297,-369 1297,-369 1297,-369 1297,-305.5 1297,-273.049 1293.61,-258.488 1316,-235 1352.08,-197.156 1392.47,-237.36 1428,-199 1471.19,-152.372 1464.44,-108.07 1428,-56 1418.86,-42.935 1404.68,-32.2371 1392.19,-24.5549"/>
<polygon fill="midnightblue" stroke="midnightblue" points="1393.89,-21.4971 1383.48,-19.5033 1390.38,-27.5509 1393.89,-21.4971"/>
</g>
<!-- Node15&#45;&gt;Node12 -->
<g id="edge36" class="edge"><title>Node15&#45;&gt;Node12</title>
<path fill="none" stroke="midnightblue" d="M1179.1,-470.355C1193.03,-449.434 1224.28,-395.069 1201,-358 1146.1,-270.558 876.148,-196.815 777,-168 694.887,-144.136 666.033,-166.969 588,-132 569.342,-123.639 524.044,-94.3366 515,-76 511.068,-68.028 509.353,-62.8647 515,-56 535.591,-30.9685 619.891,-19.6484 680.224,-14.6783"/>
<polygon fill="midnightblue" stroke="midnightblue" points="680.741,-18.1486 690.437,-13.878 680.194,-11.17 680.741,-18.1486"/>
</g>
<!-- Node16 -->
<g id="node17" class="node"><title>Node16</title>
<g id="a_node17"><a xlink:href="api_2packet_8h.html" target="_top" xlink:title="ODP packet descriptor. ">
<polygon fill="white" stroke="black" points="796,-414.5 796,-433.5 892,-433.5 892,-414.5 796,-414.5"/>
<text text-anchor="middle" x="844" y="-421.5" font-family="Helvetica,sans-Serif" font-size="10.00">odp/api/packet.h</text>
</a>
</g>
</g>
<!-- Node15&#45;&gt;Node16 -->
<g id="edge20" class="edge"><title>Node15&#45;&gt;Node16</title>
<path fill="none" stroke="midnightblue" d="M1120.87,-470.444C1061.31,-460.668 964.112,-444.714 902.149,-434.544"/>
<polygon fill="midnightblue" stroke="midnightblue" points="902.576,-431.067 892.141,-432.902 901.442,-437.975 902.576,-431.067"/>
</g>
<!-- Node16&#45;&gt;Node5 -->
<g id="edge21" class="edge"><title>Node16&#45;&gt;Node5</title>
<path fill="none" stroke="midnightblue" d="M795.746,-422.531C719.116,-420.731 574.605,-412.691 539,-378 508.406,-348.192 509.868,-293.232 513.14,-264.538"/>
<polygon fill="midnightblue" stroke="midnightblue" points="516.609,-264.997 514.467,-254.62 509.671,-264.068 516.609,-264.997"/>
</g>
<!-- Node16&#45;&gt;Node14 -->
<g id="edge22" class="edge"><title>Node16&#45;&gt;Node14</title>
<path fill="none" stroke="midnightblue" d="M795.832,-416.593C722.812,-406.881 583.989,-388.417 502.381,-377.563"/>
<polygon fill="midnightblue" stroke="midnightblue" points="502.608,-374.062 492.233,-376.213 501.685,-381.001 502.608,-374.062"/>
</g>
<!-- Node17 -->
<g id="node18" class="node"><title>Node17</title>
<polygon fill="white" stroke="#bfbfbf" points="548.5,-358.5 548.5,-377.5 675.5,-377.5 675.5,-358.5 548.5,-358.5"/>
<text text-anchor="middle" x="612" y="-365.5" font-family="Helvetica,sans-Serif" font-size="10.00">odp/api/abi/packet_io.h</text>
</g>
<!-- Node16&#45;&gt;Node17 -->
<g id="edge23" class="edge"><title>Node16&#45;&gt;Node17</title>
<path fill="none" stroke="midnightblue" d="M807.239,-414.444C766.937,-405.063 702.191,-389.993 658.415,-379.804"/>
<polygon fill="midnightblue" stroke="midnightblue" points="659.122,-376.375 648.589,-377.516 657.535,-383.192 659.122,-376.375"/>
</g>
<!-- Node18 -->
<g id="node19" class="node"><title>Node18</title>
<polygon fill="white" stroke="#bfbfbf" points="693.5,-358.5 693.5,-377.5 806.5,-377.5 806.5,-358.5 693.5,-358.5"/>
<text text-anchor="middle" x="750" y="-365.5" font-family="Helvetica,sans-Serif" font-size="10.00">odp/api/abi/packet.h</text>
</g>
<!-- Node16&#45;&gt;Node18 -->
<g id="edge24" class="edge"><title>Node16&#45;&gt;Node18</title>
<path fill="none" stroke="midnightblue" d="M828.897,-414.324C814.097,-405.822 791.306,-392.729 774.018,-382.797"/>
<polygon fill="midnightblue" stroke="midnightblue" points="775.48,-379.601 765.065,-377.655 771.993,-385.671 775.48,-379.601"/>
</g>
<!-- Node19 -->
<g id="node20" class="node"><title>Node19</title>
<polygon fill="white" stroke="#bfbfbf" points="965,-358.5 965,-377.5 1073,-377.5 1073,-358.5 965,-358.5"/>
<text text-anchor="middle" x="1019" y="-365.5" font-family="Helvetica,sans-Serif" font-size="10.00">odp/api/abi/buffer.h</text>
</g>
<!-- Node16&#45;&gt;Node19 -->
<g id="edge25" class="edge"><title>Node16&#45;&gt;Node19</title>
<path fill="none" stroke="midnightblue" d="M871.729,-414.444C901.426,-405.28 948.716,-390.688 981.669,-380.519"/>
<polygon fill="midnightblue" stroke="midnightblue" points="982.877,-383.809 991.4,-377.516 980.813,-377.121 982.877,-383.809"/>
</g>
<!-- Node20 -->
<g id="node21" class="node"><title>Node20</title>
<polygon fill="white" stroke="#bfbfbf" points="1091.5,-358.5 1091.5,-377.5 1192.5,-377.5 1192.5,-358.5 1091.5,-358.5"/>
<text text-anchor="middle" x="1142" y="-365.5" font-family="Helvetica,sans-Serif" font-size="10.00">odp/api/abi/pool.h</text>
</g>
<!-- Node16&#45;&gt;Node20 -->
<g id="edge26" class="edge"><title>Node16&#45;&gt;Node20</title>
<path fill="none" stroke="midnightblue" d="M891.219,-414.444C943.749,-404.925 1028.61,-389.547 1084.85,-379.356"/>
<polygon fill="midnightblue" stroke="midnightblue" points="1085.79,-382.743 1095,-377.516 1084.54,-375.856 1085.79,-382.743"/>
</g>
<!-- Node21 -->
<g id="node22" class="node"><title>Node21</title>
<g id="a_node22"><a xlink:href="api_2spec_2packet_8h.html" target="_top" xlink:title="ODP packet descriptor. ">
<polygon fill="white" stroke="black" points="825,-358.5 825,-377.5 947,-377.5 947,-358.5 825,-358.5"/>
<text text-anchor="middle" x="886" y="-365.5" font-family="Helvetica,sans-Serif" font-size="10.00">odp/api/spec/packet.h</text>
</a>
</g>
</g>
<!-- Node16&#45;&gt;Node21 -->
<g id="edge27" class="edge"><title>Node16&#45;&gt;Node21</title>
<path fill="none" stroke="midnightblue" d="M850.935,-414.083C856.929,-406.377 865.752,-395.033 873.048,-385.653"/>
<polygon fill="midnightblue" stroke="midnightblue" points="875.817,-387.793 879.194,-377.751 870.291,-383.496 875.817,-387.793"/>
</g>
<!-- Node21&#45;&gt;Node4 -->
<g id="edge28" class="edge"><title>Node21&#45;&gt;Node4</title>
<path fill="none" stroke="midnightblue" d="M910.992,-358.383C973.486,-336.902 1141.67,-279.508 1283,-235 1336.52,-218.147 1369.37,-243.146 1404,-199 1443.26,-148.95 1434.01,-114.905 1410,-56 1405.2,-44.2251 1395.67,-33.8564 1386.71,-26.0486"/>
<polygon fill="midnightblue" stroke="midnightblue" points="1388.75,-23.2048 1378.78,-19.6314 1384.35,-28.6448 1388.75,-23.2048"/>
</g>
<!-- Node21&#45;&gt;Node12 -->
<g id="edge35" class="edge"><title>Node21&#45;&gt;Node12</title>
<path fill="none" stroke="midnightblue" d="M868.786,-358.428C822.836,-335.8 693.082,-273.559 580,-235 518.784,-214.127 478.675,-250.078 439,-199 410.767,-162.653 413.555,-107.686 472,-56 502.116,-29.3668 609.832,-18.31 680.337,-13.8554"/>
<polygon fill="midnightblue" stroke="midnightblue" points="680.684,-17.3409 690.455,-13.2451 680.263,-10.3536 680.684,-17.3409"/>
</g>
<!-- Node22 -->
<g id="node23" class="node"><title>Node22</title>
<g id="a_node23"><a xlink:href="api_2time_8h.html" target="_top" xlink:title="ODP time. ">
<polygon fill="white" stroke="black" points="843,-297 843,-316 929,-316 929,-297 843,-297"/>
<text text-anchor="middle" x="886" y="-304" font-family="Helvetica,sans-Serif" font-size="10.00">odp/api/time.h</text>
</a>
</g>
</g>
<!-- Node21&#45;&gt;Node22 -->
<g id="edge29" class="edge"><title>Node21&#45;&gt;Node22</title>
<path fill="none" stroke="midnightblue" d="M886,-358.475C886,-350.08 886,-336.981 886,-326.163"/>
<polygon fill="midnightblue" stroke="midnightblue" points="889.5,-326.009 886,-316.009 882.5,-326.009 889.5,-326.009"/>
</g>
<!-- Node22&#45;&gt;Node5 -->
<g id="edge30" class="edge"><title>Node22&#45;&gt;Node5</title>
<path fill="none" stroke="midnightblue" d="M842.832,-298.558C777.835,-288.106 654.463,-268.266 579.29,-256.178"/>
<polygon fill="midnightblue" stroke="midnightblue" points="579.442,-252.657 569.014,-254.525 578.331,-259.569 579.442,-252.657"/>
</g>
<!-- Node23 -->
<g id="node24" class="node"><title>Node23</title>
<polygon fill="white" stroke="#bfbfbf" points="834.5,-235.5 834.5,-254.5 937.5,-254.5 937.5,-235.5 834.5,-235.5"/>
<text text-anchor="middle" x="886" y="-242.5" font-family="Helvetica,sans-Serif" font-size="10.00">odp/api/abi/time.h</text>
</g>
<!-- Node22&#45;&gt;Node23 -->
<g id="edge31" class="edge"><title>Node22&#45;&gt;Node23</title>
<path fill="none" stroke="midnightblue" d="M886,-296.975C886,-288.58 886,-275.481 886,-264.663"/>
<polygon fill="midnightblue" stroke="midnightblue" points="889.5,-264.509 886,-254.509 882.5,-264.509 889.5,-264.509"/>
</g>
<!-- Node24 -->
<g id="node25" class="node"><title>Node24</title>
<g id="a_node25"><a xlink:href="api_2spec_2time_8h.html" target="_top" xlink:title="ODP time. ">
<polygon fill="white" stroke="black" points="814.5,-56.5 814.5,-75.5 925.5,-75.5 925.5,-56.5 814.5,-56.5"/>
<text text-anchor="middle" x="870" y="-63.5" font-family="Helvetica,sans-Serif" font-size="10.00">odp/api/spec/time.h</text>
</a>
</g>
</g>
<!-- Node22&#45;&gt;Node24 -->
<g id="edge32" class="edge"><title>Node22&#45;&gt;Node24</title>
<path fill="none" stroke="midnightblue" d="M902.772,-296.891C917.237,-288.423 937.153,-274.01 946,-255 949.751,-246.941 947.874,-243.689 946,-235 933.388,-176.522 898.691,-113.897 880.872,-84.3409"/>
<polygon fill="midnightblue" stroke="midnightblue" points="883.746,-82.332 875.533,-75.639 877.78,-85.9929 883.746,-82.332"/>
</g>
<!-- Node24&#45;&gt;Node4 -->
<g id="edge33" class="edge"><title>Node24&#45;&gt;Node4</title>
<path fill="none" stroke="midnightblue" d="M925.933,-58.9105C1017.57,-48.9338 1199.36,-29.1427 1298.19,-18.3828"/>
<polygon fill="midnightblue" stroke="midnightblue" points="1298.8,-21.8371 1308.36,-17.2752 1298.04,-14.8782 1298.8,-21.8371"/>
</g>
<!-- Node24&#45;&gt;Node12 -->
<g id="edge34" class="edge"><title>Node24&#45;&gt;Node12</title>
<path fill="none" stroke="midnightblue" d="M850.035,-56.4435C829.391,-47.5961 796.937,-33.6875 773.368,-23.5865"/>
<polygon fill="midnightblue" stroke="midnightblue" points="774.442,-20.2387 763.872,-19.5164 771.684,-26.6727 774.442,-20.2387"/>
</g>
<!-- Node25&#45;&gt;Node5 -->
<g id="edge38" class="edge"><title>Node25&#45;&gt;Node5</title>
<path fill="none" stroke="midnightblue" d="M957.803,-643.991C808.457,-633.845 356,-598.069 356,-537 356,-537 356,-537 356,-423 356,-392.902 358.206,-382.977 375,-358 405.036,-313.33 458.456,-278.082 490.215,-259.79"/>
<polygon fill="midnightblue" stroke="midnightblue" points="492.325,-262.618 499.326,-254.666 488.894,-256.517 492.325,-262.618"/>
</g>
<!-- Node25&#45;&gt;Node14 -->
<g id="edge39" class="edge"><title>Node25&#45;&gt;Node14</title>
<path fill="none" stroke="midnightblue" d="M957.711,-646.232C835.924,-642.98 521,-625.971 521,-537 521,-537 521,-537 521,-479 521,-437.911 483.641,-402.444 459.052,-383.549"/>
<polygon fill="midnightblue" stroke="midnightblue" points="461.091,-380.704 450.969,-377.575 456.93,-386.333 461.091,-380.704"/>
</g>
<!-- Node25&#45;&gt;Node19 -->
<g id="edge41" class="edge"><title>Node25&#45;&gt;Node19</title>
<path fill="none" stroke="midnightblue" d="M999.716,-638.231C989.275,-620.043 967,-576.601 967,-537 967,-537 967,-537 967,-479 967,-443.119 989.894,-406.424 1005.3,-385.793"/>
<polygon fill="midnightblue" stroke="midnightblue" points="1008.18,-387.789 1011.55,-377.744 1002.65,-383.497 1008.18,-387.789"/>
</g>
<!-- Node25&#45;&gt;Node20 -->
<g id="edge42" class="edge"><title>Node25&#45;&gt;Node20</title>
<path fill="none" stroke="midnightblue" d="M1005,-638.442C1005,-619.936 1005,-574.812 1005,-537 1005,-537 1005,-537 1005,-479 1005,-427.995 1063.45,-396.691 1103.99,-381.111"/>
<polygon fill="midnightblue" stroke="midnightblue" points="1105.43,-384.31 1113.61,-377.576 1103.02,-377.74 1105.43,-384.31"/>
</g>
<!-- Node26 -->
<g id="node27" class="node"><title>Node26</title>
<polygon fill="white" stroke="#bfbfbf" points="1033.5,-582.5 1033.5,-601.5 1144.5,-601.5 1144.5,-582.5 1033.5,-582.5"/>
<text text-anchor="middle" x="1089" y="-589.5" font-family="Helvetica,sans-Serif" font-size="10.00">odp/api/abi/queue.h</text>
</g>
<!-- Node25&#45;&gt;Node26 -->
<g id="edge40" class="edge"><title>Node25&#45;&gt;Node26</title>
<path fill="none" stroke="midnightblue" d="M1018.5,-638.324C1031.6,-629.9 1051.71,-616.971 1067.11,-607.074"/>
<polygon fill="midnightblue" stroke="midnightblue" points="1069.02,-610.006 1075.54,-601.655 1065.23,-604.118 1069.02,-610.006"/>
</g>
<!-- Node27 -->
<g id="node28" class="node"><title>Node27</title>
<g id="a_node28"><a xlink:href="api_2spec_2queue_8h.html" target="_top" xlink:title="ODP queue. ">
<polygon fill="white" stroke="black" points="1201.5,-582.5 1201.5,-601.5 1320.5,-601.5 1320.5,-582.5 1201.5,-582.5"/>
<text text-anchor="middle" x="1261" y="-589.5" font-family="Helvetica,sans-Serif" font-size="10.00">odp/api/spec/queue.h</text>
</a>
</g>
</g>
<!-- Node25&#45;&gt;Node27 -->
<g id="edge43" class="edge"><title>Node25&#45;&gt;Node27</title>
<path fill="none" stroke="midnightblue" d="M1045.56,-638.444C1090.32,-629.004 1162.38,-613.802 1210.7,-603.611"/>
<polygon fill="midnightblue" stroke="midnightblue" points="1211.56,-607.005 1220.63,-601.516 1210.12,-600.156 1211.56,-607.005"/>
</g>
<!-- Node27&#45;&gt;Node4 -->
<g id="edge44" class="edge"><title>Node27&#45;&gt;Node4</title>
<path fill="none" stroke="midnightblue" d="M1320.88,-588.114C1442.07,-578.721 1705,-538.778 1705,-369 1705,-369 1705,-369 1705,-121 1705,-64.4696 1532.29,-32.5972 1433.42,-18.9829"/>
<polygon fill="midnightblue" stroke="midnightblue" points="1433.89,-15.5138 1423.51,-17.6446 1432.95,-22.4509 1433.89,-15.5138"/>
</g>
<!-- Node27&#45;&gt;Node12 -->
<g id="edge62" class="edge"><title>Node27&#45;&gt;Node12</title>
<path fill="none" stroke="midnightblue" d="M1260.74,-582.443C1260.2,-563.939 1259,-518.819 1259,-481 1259,-481 1259,-481 1259,-423 1259,-248.672 892.01,-146.755 805,-76 786.903,-61.2841 768.971,-41.3657 757.283,-27.4715"/>
<polygon fill="midnightblue" stroke="midnightblue" points="759.932,-25.1826 750.866,-19.6993 754.534,-29.6391 759.932,-25.1826"/>
</g>
<!-- Node27&#45;&gt;Node13 -->
<g id="edge45" class="edge"><title>Node27&#45;&gt;Node13</title>
<path fill="none" stroke="midnightblue" d="M1246.86,-582.324C1233.13,-573.9 1212.06,-560.971 1195.94,-551.074"/>
<polygon fill="midnightblue" stroke="midnightblue" points="1197.46,-547.902 1187.1,-545.655 1193.8,-553.868 1197.46,-547.902"/>
</g>
<!-- Node28 -->
<g id="node29" class="node"><title>Node28</title>
<g id="a_node29"><a xlink:href="queue__types_8h.html" target="_top" xlink:title="ODP queue types. ">
<polygon fill="white" stroke="black" points="1330,-291.5 1330,-321.5 1440,-321.5 1440,-291.5 1330,-291.5"/>
<text text-anchor="start" x="1338" y="-309.5" font-family="Helvetica,sans-Serif" font-size="10.00">odp/api/spec/queue</text>
<text text-anchor="middle" x="1385" y="-298.5" font-family="Helvetica,sans-Serif" font-size="10.00">_types.h</text>
</a>
</g>
</g>
<!-- Node27&#45;&gt;Node28 -->
<g id="edge46" class="edge"><title>Node27&#45;&gt;Node28</title>
<path fill="none" stroke="midnightblue" d="M1277.79,-582.318C1306.04,-566.374 1360,-529.559 1360,-481 1360,-481 1360,-481 1360,-423 1360,-390.619 1369.5,-354.264 1376.79,-331.143"/>
<polygon fill="midnightblue" stroke="midnightblue" points="1380.16,-332.106 1379.94,-321.513 1373.5,-329.929 1380.16,-332.106"/>
</g>
<!-- Node28&#45;&gt;Node4 -->
<g id="edge47" class="edge"><title>Node28&#45;&gt;Node4</title>
<path fill="none" stroke="midnightblue" d="M1408.27,-291.297C1434.8,-273.538 1476.62,-240.379 1493,-199 1516.44,-139.788 1539.29,-107.62 1502,-56 1486.25,-34.1985 1459.54,-22.7862 1433.93,-16.876"/>
<polygon fill="midnightblue" stroke="midnightblue" points="1434.32,-13.3833 1423.82,-14.8018 1432.92,-20.2404 1434.32,-13.3833"/>
</g>
<!-- Node28&#45;&gt;Node12 -->
<g id="edge61" class="edge"><title>Node28&#45;&gt;Node12</title>
<path fill="none" stroke="midnightblue" d="M1358.51,-291.261C1292.32,-255.61 1114.51,-159.385 968,-76 952.763,-67.3281 950.267,-62.5377 934,-56 893.462,-39.7078 845.584,-28.4145 808.032,-21.2161"/>
<polygon fill="midnightblue" stroke="midnightblue" points="808.201,-17.6873 797.728,-19.2936 806.917,-24.5685 808.201,-17.6873"/>
</g>
<!-- Node28&#45;&gt;Node29 -->
<g id="edge48" class="edge"><title>Node28&#45;&gt;Node29</title>
<path fill="none" stroke="midnightblue" d="M1428.84,-291.399C1460.81,-281.118 1503.62,-267.351 1533.68,-257.682"/>
<polygon fill="midnightblue" stroke="midnightblue" points="1534.9,-260.965 1543.35,-254.571 1532.76,-254.301 1534.9,-260.965"/>
</g>
<!-- Node33 -->
<g id="node34" class="node"><title>Node33</title>
<g id="a_node34"><a xlink:href="deprecated_8h.html" target="_top" xlink:title="Control deprecated API definitions. ">
<polygon fill="white" stroke="black" points="1325.5,-235.5 1325.5,-254.5 1444.5,-254.5 1444.5,-235.5 1325.5,-235.5"/>
<text text-anchor="middle" x="1385" y="-242.5" font-family="Helvetica,sans-Serif" font-size="10.00">odp/api/deprecated.h</text>
</a>
</g>
</g>
<!-- Node28&#45;&gt;Node33 -->
<g id="edge57" class="edge"><title>Node28&#45;&gt;Node33</title>
<path fill="none" stroke="midnightblue" d="M1385,-291.399C1385,-283.466 1385,-273.458 1385,-264.858"/>
<polygon fill="midnightblue" stroke="midnightblue" points="1388.5,-264.658 1385,-254.658 1381.5,-264.658 1388.5,-264.658"/>
</g>
<!-- Node29&#45;&gt;Node1 -->
<g id="edge49" class="edge"><title>Node29&#45;&gt;Node1</title>
<path fill="none" stroke="midnightblue" d="M1576.59,-235.475C1582.41,-227.944 1591.16,-216.626 1598.94,-206.566"/>
<polygon fill="midnightblue" stroke="midnightblue" points="1601.81,-208.575 1605.16,-198.523 1596.27,-204.294 1601.81,-208.575"/>
</g>
<!-- Node30 -->
<g id="node31" class="node"><title>Node30</title>
<g id="a_node31"><a xlink:href="api_2spec_2schedule__types_8h.html" target="_top" xlink:title="ODP schedule types. ">
<polygon fill="white" stroke="black" points="1272.5,-168.5 1272.5,-198.5 1395.5,-198.5 1395.5,-168.5 1272.5,-168.5"/>
<text text-anchor="start" x="1280.5" y="-186.5" font-family="Helvetica,sans-Serif" font-size="10.00">odp/api/spec/schedule</text>
<text text-anchor="middle" x="1334" y="-175.5" font-family="Helvetica,sans-Serif" font-size="10.00">_types.h</text>
</a>
</g>
</g>
<!-- Node29&#45;&gt;Node30 -->
<g id="edge50" class="edge"><title>Node29&#45;&gt;Node30</title>
<path fill="none" stroke="midnightblue" d="M1536.19,-235.475C1500.64,-226.513 1443.82,-212.188 1399.46,-201.003"/>
<polygon fill="midnightblue" stroke="midnightblue" points="1400.17,-197.574 1389.62,-198.523 1398.46,-204.362 1400.17,-197.574"/>
</g>
<!-- Node30&#45;&gt;Node4 -->
<g id="edge51" class="edge"><title>Node30&#45;&gt;Node4</title>
<path fill="none" stroke="midnightblue" d="M1354.09,-168.484C1365.41,-159.437 1378.7,-146.643 1386,-132 1401.13,-101.638 1402.05,-88.6899 1393,-56 1390.21,-45.9205 1384.49,-35.832 1379.03,-27.7694"/>
<polygon fill="midnightblue" stroke="midnightblue" points="1381.85,-25.6881 1373.15,-19.6357 1376.18,-29.7899 1381.85,-25.6881"/>
</g>
<!-- Node30&#45;&gt;Node12 -->
<g id="edge56" class="edge"><title>Node30&#45;&gt;Node12</title>
<path fill="none" stroke="midnightblue" d="M1285.49,-168.44C1221.75,-149.528 1106.66,-113.869 1011,-76 991.402,-68.2423 988.028,-62.5662 968,-56 915.262,-38.7101 853.259,-26.8775 807.872,-19.7016"/>
<polygon fill="midnightblue" stroke="midnightblue" points="808.289,-16.2244 797.871,-18.153 807.217,-23.142 808.289,-16.2244"/>
</g>
<!-- Node31 -->
<g id="node32" class="node"><title>Node31</title>
<g id="a_node32"><a xlink:href="support_8h.html" target="_top" xlink:title="ODP support API &#45; platform specific header. ">
<polygon fill="white" stroke="black" points="1276.5,-112.5 1276.5,-131.5 1377.5,-131.5 1377.5,-112.5 1276.5,-112.5"/>
<text text-anchor="middle" x="1327" y="-119.5" font-family="Helvetica,sans-Serif" font-size="10.00">odp/api/support.h</text>
</a>
</g>
</g>
<!-- Node30&#45;&gt;Node31 -->
<g id="edge52" class="edge"><title>Node30&#45;&gt;Node31</title>
<path fill="none" stroke="midnightblue" d="M1332.34,-168.399C1331.41,-160.466 1330.23,-150.458 1329.22,-141.858"/>
<polygon fill="midnightblue" stroke="midnightblue" points="1332.66,-141.18 1328.02,-131.658 1325.71,-141.998 1332.66,-141.18"/>
</g>
<!-- Node32 -->
<g id="node33" class="node"><title>Node32</title>
<g id="a_node33"><a xlink:href="spec_2support_8h.html" target="_top" xlink:title="ODP support API. ">
<polygon fill="white" stroke="black" points="1258,-56.5 1258,-75.5 1384,-75.5 1384,-56.5 1258,-56.5"/>
<text text-anchor="middle" x="1321" y="-63.5" font-family="Helvetica,sans-Serif" font-size="10.00">odp/api/spec/support.h</text>
</a>
</g>
</g>
<!-- Node31&#45;&gt;Node32 -->
<g id="edge53" class="edge"><title>Node31&#45;&gt;Node32</title>
<path fill="none" stroke="midnightblue" d="M1326.01,-112.083C1325.21,-104.927 1324.07,-94.6353 1323.08,-85.6911"/>
<polygon fill="midnightblue" stroke="midnightblue" points="1326.56,-85.3034 1321.97,-75.7511 1319.6,-86.0765 1326.56,-85.3034"/>
</g>
<!-- Node32&#45;&gt;Node4 -->
<g id="edge54" class="edge"><title>Node32&#45;&gt;Node4</title>
<path fill="none" stroke="midnightblue" d="M1328.43,-56.083C1334.85,-48.3768 1344.31,-37.0333 1352.12,-27.6531"/>
<polygon fill="midnightblue" stroke="midnightblue" points="1354.99,-29.674 1358.71,-19.7511 1349.62,-25.1927 1354.99,-29.674"/>
</g>
<!-- Node32&#45;&gt;Node12 -->
<g id="edge55" class="edge"><title>Node32&#45;&gt;Node12</title>
<path fill="none" stroke="midnightblue" d="M1257.88,-59.0924C1147.14,-48.7293 919.109,-27.3881 807.86,-16.9765"/>
<polygon fill="midnightblue" stroke="midnightblue" points="808.072,-13.4811 797.789,-16.034 807.419,-20.4507 808.072,-13.4811"/>
</g>
<!-- Node34 -->
<g id="node35" class="node"><title>Node34</title>
<g id="a_node35"><a xlink:href="spec_2deprecated_8h.html" target="_top" xlink:title="Macro for deprecated API definitions. ">
<polygon fill="white" stroke="black" points="1020,-56.5 1020,-75.5 1164,-75.5 1164,-56.5 1020,-56.5"/>
<text text-anchor="middle" x="1092" y="-63.5" font-family="Helvetica,sans-Serif" font-size="10.00">odp/api/spec/deprecated.h</text>
</a>
</g>
</g>
<!-- Node33&#45;&gt;Node34 -->
<g id="edge58" class="edge"><title>Node33&#45;&gt;Node34</title>
<path fill="none" stroke="midnightblue" d="M1354.05,-235.445C1328.69,-227.773 1292.33,-215.231 1263,-199 1201.18,-164.792 1137.73,-109.441 1108.54,-82.5949"/>
<polygon fill="midnightblue" stroke="midnightblue" points="1110.64,-79.7676 1100.93,-75.5258 1105.87,-84.8962 1110.64,-79.7676"/>
</g>
<!-- Node34&#45;&gt;Node4 -->
<g id="edge59" class="edge"><title>Node34&#45;&gt;Node4</title>
<path fill="none" stroke="midnightblue" d="M1135.42,-56.4435C1183.52,-46.9641 1261.09,-31.6747 1312.81,-21.4835"/>
<polygon fill="midnightblue" stroke="midnightblue" points="1313.65,-24.8841 1322.79,-19.5164 1312.3,-18.0162 1313.65,-24.8841"/>
</g>
<!-- Node34&#45;&gt;Node12 -->
<g id="edge60" class="edge"><title>Node34&#45;&gt;Node12</title>
<path fill="none" stroke="midnightblue" d="M1036.86,-56.4435C974.641,-46.7892 873.587,-31.1084 807.958,-20.9245"/>
<polygon fill="midnightblue" stroke="midnightblue" points="808.159,-17.4138 797.74,-19.339 807.085,-24.3311 808.159,-17.4138"/>
</g>
<!-- Node36 -->
<g id="node37" class="node"><title>Node36</title>
<polygon fill="white" stroke="#bfbfbf" points="28.5,-297 28.5,-316 149.5,-316 149.5,-297 28.5,-297"/>
<text text-anchor="middle" x="89" y="-304" font-family="Helvetica,sans-Serif" font-size="10.00">odp/api/abi/thrmask.h</text>
</g>
<!-- Node35&#45;&gt;Node36 -->
<g id="edge65" class="edge"><title>Node35&#45;&gt;Node36</title>
<path fill="none" stroke="midnightblue" d="M211.512,-358.475C187.194,-348.357 146.451,-331.405 118.683,-319.851"/>
<polygon fill="midnightblue" stroke="midnightblue" points="120.028,-316.619 109.45,-316.009 117.339,-323.082 120.028,-316.619"/>
</g>
<!-- Node37 -->
<g id="node38" class="node"><title>Node37</title>
<g id="a_node38"><a xlink:href="api_2spec_2thrmask_8h.html" target="_top" xlink:title="ODP thread masks. ">
<polygon fill="white" stroke="black" points="167.5,-297 167.5,-316 296.5,-316 296.5,-297 167.5,-297"/>
<text text-anchor="middle" x="232" y="-304" font-family="Helvetica,sans-Serif" font-size="10.00">odp/api/spec/thrmask.h</text>
</a>
</g>
</g>
<!-- Node35&#45;&gt;Node37 -->
<g id="edge66" class="edge"><title>Node35&#45;&gt;Node37</title>
<path fill="none" stroke="midnightblue" d="M232,-358.475C232,-350.08 232,-336.981 232,-326.163"/>
<polygon fill="midnightblue" stroke="midnightblue" points="235.5,-326.009 232,-316.009 228.5,-326.009 235.5,-326.009"/>
</g>
<!-- Node37&#45;&gt;Node4 -->
<g id="edge67" class="edge"><title>Node37&#45;&gt;Node4</title>
<path fill="none" stroke="midnightblue" d="M256.925,-296.972C297.555,-283.193 380.691,-255.509 452,-235 514.157,-217.123 535.252,-228.126 593,-199 612.461,-189.185 611.06,-176.802 631,-168 730.881,-123.912 766.153,-149.001 874,-132 1023.11,-108.493 1065.46,-122.717 1209,-76 1227.9,-69.8488 1230.81,-64.0213 1249,-56 1276.53,-43.8577 1308.45,-31.7062 1331.98,-23.0965"/>
<polygon fill="midnightblue" stroke="midnightblue" points="1333.32,-26.3365 1341.52,-19.6339 1330.93,-19.7567 1333.32,-26.3365"/>
</g>
<!-- Node37&#45;&gt;Node5 -->
<g id="edge68" class="edge"><title>Node37&#45;&gt;Node5</title>
<path fill="none" stroke="midnightblue" d="M272.69,-296.975C323.515,-286.327 410.471,-268.109 465.498,-256.581"/>
<polygon fill="midnightblue" stroke="midnightblue" points="466.315,-259.985 475.385,-254.509 464.88,-253.134 466.315,-259.985"/>
</g>
<!-- Node37&#45;&gt;Node12 -->
<g id="edge69" class="edge"><title>Node37&#45;&gt;Node12</title>
<path fill="none" stroke="midnightblue" d="M241.845,-296.883C261.771,-278.432 305,-232.832 305,-184.5 305,-184.5 305,-184.5 305,-121 305,-44.6537 557.983,-20.8304 679.857,-13.7832"/>
<polygon fill="midnightblue" stroke="midnightblue" points="680.38,-17.2596 690.17,-13.2089 679.991,-10.2704 680.38,-17.2596"/>
</g>
</g>
</svg>
