<?xml version="1.0" encoding="UTF-8" standalone="no"?>
<!DOCTYPE svg PUBLIC "-//W3C//DTD SVG 1.1//EN"
 "http://www.w3.org/Graphics/SVG/1.1/DTD/svg11.dtd">
<!-- Generated by graphviz version 2.38.0 (20140413.2041)
 -->
<!-- Title: packet_flags.h Pages: 1 -->
<svg width="912pt" height="476pt"
 viewBox="0.00 0.00 912.00 476.00" xmlns="http://www.w3.org/2000/svg" xmlns:xlink="http://www.w3.org/1999/xlink">
<g id="graph0" class="graph" transform="scale(1 1) rotate(0) translate(4 472)">
<title>packet_flags.h</title>
<polygon fill="white" stroke="none" points="-4,4 -4,-472 908,-472 908,4 -4,4"/>
<!-- Node0 -->
<g id="node1" class="node"><title>Node0</title>
<polygon fill="#bfbfbf" stroke="black" points="149,-448.5 149,-467.5 235,-467.5 235,-448.5 149,-448.5"/>
<text text-anchor="middle" x="192" y="-455.5" font-family="Helvetica,sans-Serif" font-size="10.00">packet_flags.h</text>
</g>
<!-- Node1 -->
<g id="node2" class="node"><title>Node1</title>
<g id="a_node2"><a xlink:href="visibility__begin_8h_source.html" target="_top" xlink:title="odp/visibility_begin.h">
<polygon fill="white" stroke="black" points="468.5,-0.5 468.5,-19.5 583.5,-19.5 583.5,-0.5 468.5,-0.5"/>
<text text-anchor="middle" x="526" y="-7.5" font-family="Helvetica,sans-Serif" font-size="10.00">odp/visibility_begin.h</text>
</a>
</g>
</g>
<!-- Node0&#45;&gt;Node1 -->
<g id="edge1" class="edge"><title>Node0&#45;&gt;Node1</title>
<path fill="none" stroke="midnightblue" d="M235.201,-454.913C389.462,-446.895 904,-415.05 904,-347 904,-347 904,-347 904,-121 904,-57.1888 702.894,-27.9427 594.056,-16.7872"/>
<polygon fill="midnightblue" stroke="midnightblue" points="594.12,-13.2762 583.822,-15.7636 593.424,-20.2415 594.12,-13.2762"/>
</g>
<!-- Node2 -->
<g id="node3" class="node"><title>Node2</title>
<g id="a_node3"><a xlink:href="api_2std__types_8h.html" target="_top" xlink:title="Standard C language types and definitions for ODP. ">
<polygon fill="white" stroke="black" points="155,-224.5 155,-243.5 265,-243.5 265,-224.5 155,-224.5"/>
<text text-anchor="middle" x="210" y="-231.5" font-family="Helvetica,sans-Serif" font-size="10.00">odp/api/std_types.h</text>
</a>
</g>
</g>
<!-- Node0&#45;&gt;Node2 -->
<g id="edge2" class="edge"><title>Node0&#45;&gt;Node2</title>
<path fill="none" stroke="midnightblue" d="M176.315,-448.339C151.042,-433.366 102.204,-399.975 83,-356 79.4426,-347.854 81.5527,-344.77 83,-336 87.2793,-310.068 84.0551,-299.203 102,-280 117.017,-263.93 138.653,-253.404 158.621,-246.606"/>
<polygon fill="midnightblue" stroke="midnightblue" points="159.774,-249.913 168.253,-243.561 157.663,-243.238 159.774,-249.913"/>
</g>
<!-- Node9 -->
<g id="node10" class="node"><title>Node9</title>
<g id="a_node10"><a xlink:href="visibility__end_8h_source.html" target="_top" xlink:title="odp/visibility_end.h">
<polygon fill="white" stroke="black" points="98.5,-0.5 98.5,-19.5 205.5,-19.5 205.5,-0.5 98.5,-0.5"/>
<text text-anchor="middle" x="152" y="-7.5" font-family="Helvetica,sans-Serif" font-size="10.00">odp/visibility_end.h</text>
</a>
</g>
</g>
<!-- Node0&#45;&gt;Node9 -->
<g id="edge29" class="edge"><title>Node0&#45;&gt;Node9</title>
<path fill="none" stroke="midnightblue" d="M148.911,-451.549C92.3035,-441.701 0,-415.189 0,-347 0,-347 0,-347 0,-121 0,-67.4368 62.7119,-37.2997 107.573,-22.5935"/>
<polygon fill="midnightblue" stroke="midnightblue" points="108.63,-25.9301 117.128,-19.6023 106.539,-19.2497 108.63,-25.9301"/>
</g>
<!-- Node10 -->
<g id="node11" class="node"><title>Node10</title>
<g id="a_node11"><a xlink:href="api_2packet_8h.html" target="_top" xlink:title="ODP packet descriptor. ">
<polygon fill="white" stroke="black" points="298,-392.5 298,-411.5 394,-411.5 394,-392.5 298,-392.5"/>
<text text-anchor="middle" x="346" y="-399.5" font-family="Helvetica,sans-Serif" font-size="10.00">odp/api/packet.h</text>
</a>
</g>
</g>
<!-- Node0&#45;&gt;Node10 -->
<g id="edge13" class="edge"><title>Node0&#45;&gt;Node10</title>
<path fill="none" stroke="midnightblue" d="M216.402,-448.444C242.197,-439.399 283.077,-425.064 312.018,-414.916"/>
<polygon fill="midnightblue" stroke="midnightblue" points="313.434,-418.128 321.712,-411.516 311.118,-411.523 313.434,-418.128"/>
</g>
<!-- Node3 -->
<g id="node4" class="node"><title>Node3</title>
<polygon fill="white" stroke="#bfbfbf" points="296,-168.5 296,-187.5 424,-187.5 424,-168.5 296,-168.5"/>
<text text-anchor="middle" x="360" y="-175.5" font-family="Helvetica,sans-Serif" font-size="10.00">odp/api/abi/std_types.h</text>
</g>
<!-- Node2&#45;&gt;Node3 -->
<g id="edge3" class="edge"><title>Node2&#45;&gt;Node3</title>
<path fill="none" stroke="midnightblue" d="M233.768,-224.444C258.893,-215.399 298.711,-201.064 326.9,-190.916"/>
<polygon fill="midnightblue" stroke="midnightblue" points="328.12,-194.197 336.343,-187.516 325.749,-187.611 328.12,-194.197"/>
</g>
<!-- Node4 -->
<g id="node5" class="node"><title>Node4</title>
<g id="a_node5"><a xlink:href="api_2spec_2std__types_8h.html" target="_top" xlink:title="Standard C language types and definitions for ODP. ">
<polygon fill="white" stroke="black" points="142,-168.5 142,-187.5 278,-187.5 278,-168.5 142,-168.5"/>
<text text-anchor="middle" x="210" y="-175.5" font-family="Helvetica,sans-Serif" font-size="10.00">odp/api/spec/std_types.h</text>
</a>
</g>
</g>
<!-- Node2&#45;&gt;Node4 -->
<g id="edge4" class="edge"><title>Node2&#45;&gt;Node4</title>
<path fill="none" stroke="midnightblue" d="M210,-224.083C210,-217.006 210,-206.861 210,-197.986"/>
<polygon fill="midnightblue" stroke="midnightblue" points="213.5,-197.751 210,-187.751 206.5,-197.751 213.5,-197.751"/>
</g>
<!-- Node4&#45;&gt;Node1 -->
<g id="edge5" class="edge"><title>Node4&#45;&gt;Node1</title>
<path fill="none" stroke="midnightblue" d="M245.643,-168.487C274.387,-160.915 315.415,-148.488 349,-132 353.19,-129.943 459.521,-56.7953 505.326,-25.2466"/>
<polygon fill="midnightblue" stroke="midnightblue" points="507.382,-28.0802 513.631,-19.5249 503.411,-22.3157 507.382,-28.0802"/>
</g>
<!-- Node5 -->
<g id="node6" class="node"><title>Node5</title>
<polygon fill="white" stroke="#bfbfbf" points="182.5,-112.5 182.5,-131.5 235.5,-131.5 235.5,-112.5 182.5,-112.5"/>
<text text-anchor="middle" x="209" y="-119.5" font-family="Helvetica,sans-Serif" font-size="10.00">stdint.h</text>
</g>
<!-- Node4&#45;&gt;Node5 -->
<g id="edge6" class="edge"><title>Node4&#45;&gt;Node5</title>
<path fill="none" stroke="midnightblue" d="M209.835,-168.083C209.704,-161.006 209.516,-150.861 209.352,-141.986"/>
<polygon fill="midnightblue" stroke="midnightblue" points="212.847,-141.685 209.162,-131.751 205.848,-141.814 212.847,-141.685"/>
</g>
<!-- Node6 -->
<g id="node7" class="node"><title>Node6</title>
<g id="a_node7"><a xlink:href="api_2align_8h.html" target="_top" xlink:title="ODP alignments. ">
<polygon fill="white" stroke="black" points="254,-112.5 254,-131.5 340,-131.5 340,-112.5 254,-112.5"/>
<text text-anchor="middle" x="297" y="-119.5" font-family="Helvetica,sans-Serif" font-size="10.00">odp/api/align.h</text>
</a>
</g>
</g>
<!-- Node4&#45;&gt;Node6 -->
<g id="edge7" class="edge"><title>Node4&#45;&gt;Node6</title>
<path fill="none" stroke="midnightblue" d="M223.978,-168.324C237.55,-159.9 258.38,-146.971 274.325,-137.074"/>
<polygon fill="midnightblue" stroke="midnightblue" points="276.406,-139.902 283.057,-131.655 272.714,-133.954 276.406,-139.902"/>
</g>
<!-- Node4&#45;&gt;Node9 -->
<g id="edge12" class="edge"><title>Node4&#45;&gt;Node9</title>
<path fill="none" stroke="midnightblue" d="M200.484,-168.33C191.878,-159.915 179.577,-146.342 173,-132 157.501,-98.2045 153.373,-54.3056 152.316,-29.7493"/>
<polygon fill="midnightblue" stroke="midnightblue" points="155.812,-29.5447 152.012,-19.6546 148.815,-29.7555 155.812,-29.5447"/>
</g>
<!-- Node7 -->
<g id="node8" class="node"><title>Node7</title>
<polygon fill="white" stroke="#bfbfbf" points="180,-56.5 180,-75.5 284,-75.5 284,-56.5 180,-56.5"/>
<text text-anchor="middle" x="232" y="-63.5" font-family="Helvetica,sans-Serif" font-size="10.00">odp/api/abi/align.h</text>
</g>
<!-- Node6&#45;&gt;Node7 -->
<g id="edge8" class="edge"><title>Node6&#45;&gt;Node7</title>
<path fill="none" stroke="midnightblue" d="M286.557,-112.324C276.854,-104.263 262.185,-92.0765 250.5,-82.3695"/>
<polygon fill="midnightblue" stroke="midnightblue" points="252.562,-79.532 242.633,-75.8339 248.089,-84.9163 252.562,-79.532"/>
</g>
<!-- Node8 -->
<g id="node9" class="node"><title>Node8</title>
<g id="a_node9"><a xlink:href="api_2spec_2align_8h.html" target="_top" xlink:title="ODP alignments. ">
<polygon fill="white" stroke="black" points="302,-56.5 302,-75.5 414,-75.5 414,-56.5 302,-56.5"/>
<text text-anchor="middle" x="358" y="-63.5" font-family="Helvetica,sans-Serif" font-size="10.00">odp/api/spec/align.h</text>
</a>
</g>
</g>
<!-- Node6&#45;&gt;Node8 -->
<g id="edge9" class="edge"><title>Node6&#45;&gt;Node8</title>
<path fill="none" stroke="midnightblue" d="M306.801,-112.324C315.818,-104.341 329.406,-92.3128 340.318,-82.6529"/>
<polygon fill="midnightblue" stroke="midnightblue" points="342.853,-85.083 348.021,-75.8339 338.213,-79.8416 342.853,-85.083"/>
</g>
<!-- Node8&#45;&gt;Node1 -->
<g id="edge10" class="edge"><title>Node8&#45;&gt;Node1</title>
<path fill="none" stroke="midnightblue" d="M384.62,-56.4435C413.006,-47.3196 458.137,-32.8133 489.753,-22.6509"/>
<polygon fill="midnightblue" stroke="midnightblue" points="491.055,-25.9087 499.504,-19.5164 488.913,-19.2445 491.055,-25.9087"/>
</g>
<!-- Node8&#45;&gt;Node9 -->
<g id="edge11" class="edge"><title>Node8&#45;&gt;Node9</title>
<path fill="none" stroke="midnightblue" d="M325.359,-56.4435C289.95,-47.1616 233.291,-32.3093 194.447,-22.127"/>
<polygon fill="midnightblue" stroke="midnightblue" points="195.049,-18.6666 184.489,-19.5164 193.274,-25.4378 195.049,-18.6666"/>
</g>
<!-- Node10&#45;&gt;Node2 -->
<g id="edge14" class="edge"><title>Node10&#45;&gt;Node2</title>
<path fill="none" stroke="midnightblue" d="M297.888,-399.457C232.382,-396.226 120.354,-386.304 95,-356 60.4354,-314.688 136.678,-269.582 181.05,-247.968"/>
<polygon fill="midnightblue" stroke="midnightblue" points="182.715,-251.052 190.246,-243.6 179.712,-244.729 182.715,-251.052"/>
</g>
<!-- Node11 -->
<g id="node12" class="node"><title>Node11</title>
<polygon fill="white" stroke="#bfbfbf" points="224,-336.5 224,-355.5 332,-355.5 332,-336.5 224,-336.5"/>
<text text-anchor="middle" x="278" y="-343.5" font-family="Helvetica,sans-Serif" font-size="10.00">odp/api/abi/event.h</text>
</g>
<!-- Node10&#45;&gt;Node11 -->
<g id="edge15" class="edge"><title>Node10&#45;&gt;Node11</title>
<path fill="none" stroke="midnightblue" d="M335.075,-392.324C324.825,-384.185 309.279,-371.839 296.999,-362.087"/>
<polygon fill="midnightblue" stroke="midnightblue" points="299.132,-359.312 289.124,-355.834 294.779,-364.794 299.132,-359.312"/>
</g>
<!-- Node12 -->
<g id="node13" class="node"><title>Node12</title>
<polygon fill="white" stroke="#bfbfbf" points="350.5,-336.5 350.5,-355.5 477.5,-355.5 477.5,-336.5 350.5,-336.5"/>
<text text-anchor="middle" x="414" y="-343.5" font-family="Helvetica,sans-Serif" font-size="10.00">odp/api/abi/packet_io.h</text>
</g>
<!-- Node10&#45;&gt;Node12 -->
<g id="edge16" class="edge"><title>Node10&#45;&gt;Node12</title>
<path fill="none" stroke="midnightblue" d="M356.925,-392.324C367.175,-384.185 382.721,-371.839 395.001,-362.087"/>
<polygon fill="midnightblue" stroke="midnightblue" points="397.221,-364.794 402.876,-355.834 392.868,-359.312 397.221,-364.794"/>
</g>
<!-- Node13 -->
<g id="node14" class="node"><title>Node13</title>
<polygon fill="white" stroke="#bfbfbf" points="636.5,-336.5 636.5,-355.5 749.5,-355.5 749.5,-336.5 636.5,-336.5"/>
<text text-anchor="middle" x="693" y="-343.5" font-family="Helvetica,sans-Serif" font-size="10.00">odp/api/abi/packet.h</text>
</g>
<!-- Node10&#45;&gt;Node13 -->
<g id="edge17" class="edge"><title>Node10&#45;&gt;Node13</title>
<path fill="none" stroke="midnightblue" d="M394.249,-393.492C455.182,-384.009 560.246,-367.659 628.151,-357.092"/>
<polygon fill="midnightblue" stroke="midnightblue" points="628.961,-360.508 638.304,-355.512 627.885,-353.591 628.961,-360.508"/>
</g>
<!-- Node14 -->
<g id="node15" class="node"><title>Node14</title>
<polygon fill="white" stroke="#bfbfbf" points="768,-336.5 768,-355.5 876,-355.5 876,-336.5 768,-336.5"/>
<text text-anchor="middle" x="822" y="-343.5" font-family="Helvetica,sans-Serif" font-size="10.00">odp/api/abi/buffer.h</text>
</g>
<!-- Node10&#45;&gt;Node14 -->
<g id="edge18" class="edge"><title>Node10&#45;&gt;Node14</title>
<path fill="none" stroke="midnightblue" d="M394.07,-396.288C469.273,-388.801 619.579,-373.374 757.397,-356.167"/>
<polygon fill="midnightblue" stroke="midnightblue" points="758.233,-359.589 767.719,-354.872 757.361,-352.644 758.233,-359.589"/>
</g>
<!-- Node15 -->
<g id="node16" class="node"><title>Node15</title>
<polygon fill="white" stroke="#bfbfbf" points="104.5,-336.5 104.5,-355.5 205.5,-355.5 205.5,-336.5 104.5,-336.5"/>
<text text-anchor="middle" x="155" y="-343.5" font-family="Helvetica,sans-Serif" font-size="10.00">odp/api/abi/pool.h</text>
</g>
<!-- Node10&#45;&gt;Node15 -->
<g id="edge19" class="edge"><title>Node10&#45;&gt;Node15</title>
<path fill="none" stroke="midnightblue" d="M315.735,-392.444C283.045,-383.201 230.818,-368.436 194.817,-358.257"/>
<polygon fill="midnightblue" stroke="midnightblue" points="195.698,-354.869 185.123,-355.516 193.794,-361.605 195.698,-354.869"/>
</g>
<!-- Node16 -->
<g id="node17" class="node"><title>Node16</title>
<g id="a_node17"><a xlink:href="api_2spec_2packet_8h.html" target="_top" xlink:title="ODP packet descriptor. ">
<polygon fill="white" stroke="black" points="496,-336.5 496,-355.5 618,-355.5 618,-336.5 496,-336.5"/>
<text text-anchor="middle" x="557" y="-343.5" font-family="Helvetica,sans-Serif" font-size="10.00">odp/api/spec/packet.h</text>
</a>
</g>
</g>
<!-- Node10&#45;&gt;Node16 -->
<g id="edge20" class="edge"><title>Node10&#45;&gt;Node16</title>
<path fill="none" stroke="midnightblue" d="M379.434,-392.444C415.856,-383.122 474.23,-368.183 514.029,-357.997"/>
<polygon fill="midnightblue" stroke="midnightblue" points="514.903,-361.387 523.723,-355.516 513.167,-354.605 514.903,-361.387"/>
</g>
<!-- Node16&#45;&gt;Node1 -->
<g id="edge21" class="edge"><title>Node16&#45;&gt;Node1</title>
<path fill="none" stroke="midnightblue" d="M564.594,-336.281C579.249,-318.523 610,-276.337 610,-235 610,-235 610,-235 610,-121 610,-90.7745 607.764,-80.4544 590,-56 580.493,-42.9124 565.98,-32.2628 553.177,-24.6153"/>
<polygon fill="midnightblue" stroke="midnightblue" points="554.683,-21.4463 544.253,-19.5854 551.246,-27.5445 554.683,-21.4463"/>
</g>
<!-- Node16&#45;&gt;Node9 -->
<g id="edge28" class="edge"><title>Node16&#45;&gt;Node9</title>
<path fill="none" stroke="midnightblue" d="M497.715,-336.453C377.001,-318.241 114,-274.078 114,-235 114,-235 114,-235 114,-121 114,-86.8131 130.6,-49.7639 141.857,-28.5707"/>
<polygon fill="midnightblue" stroke="midnightblue" points="144.947,-30.2151 146.716,-19.769 138.819,-26.832 144.947,-30.2151"/>
</g>
<!-- Node17 -->
<g id="node18" class="node"><title>Node17</title>
<g id="a_node18"><a xlink:href="api_2time_8h.html" target="_top" xlink:title="ODP time. ">
<polygon fill="white" stroke="black" points="443,-280.5 443,-299.5 529,-299.5 529,-280.5 443,-280.5"/>
<text text-anchor="middle" x="486" y="-287.5" font-family="Helvetica,sans-Serif" font-size="10.00">odp/api/time.h</text>
</a>
</g>
</g>
<!-- Node16&#45;&gt;Node17 -->
<g id="edge22" class="edge"><title>Node16&#45;&gt;Node17</title>
<path fill="none" stroke="midnightblue" d="M545.593,-336.324C534.891,-328.185 518.659,-315.839 505.837,-306.087"/>
<polygon fill="midnightblue" stroke="midnightblue" points="507.693,-303.102 497.615,-299.834 503.456,-308.673 507.693,-303.102"/>
</g>
<!-- Node17&#45;&gt;Node2 -->
<g id="edge23" class="edge"><title>Node17&#45;&gt;Node2</title>
<path fill="none" stroke="midnightblue" d="M442.875,-280.562C394.549,-271.107 316.137,-255.766 263.83,-245.532"/>
<polygon fill="midnightblue" stroke="midnightblue" points="264.219,-242.042 253.733,-243.556 262.875,-248.912 264.219,-242.042"/>
</g>
<!-- Node18 -->
<g id="node19" class="node"><title>Node18</title>
<polygon fill="white" stroke="#bfbfbf" points="394.5,-224.5 394.5,-243.5 497.5,-243.5 497.5,-224.5 394.5,-224.5"/>
<text text-anchor="middle" x="446" y="-231.5" font-family="Helvetica,sans-Serif" font-size="10.00">odp/api/abi/time.h</text>
</g>
<!-- Node17&#45;&gt;Node18 -->
<g id="edge24" class="edge"><title>Node17&#45;&gt;Node18</title>
<path fill="none" stroke="midnightblue" d="M479.395,-280.083C473.745,-272.455 465.455,-261.264 458.549,-251.941"/>
<polygon fill="midnightblue" stroke="midnightblue" points="461.247,-249.703 452.482,-243.751 455.622,-253.87 461.247,-249.703"/>
</g>
<!-- Node19 -->
<g id="node20" class="node"><title>Node19</title>
<g id="a_node20"><a xlink:href="api_2spec_2time_8h.html" target="_top" xlink:title="ODP time. ">
<polygon fill="white" stroke="black" points="470.5,-56.5 470.5,-75.5 581.5,-75.5 581.5,-56.5 470.5,-56.5"/>
<text text-anchor="middle" x="526" y="-63.5" font-family="Helvetica,sans-Serif" font-size="10.00">odp/api/spec/time.h</text>
</a>
</g>
</g>
<!-- Node17&#45;&gt;Node19 -->
<g id="edge25" class="edge"><title>Node17&#45;&gt;Node19</title>
<path fill="none" stroke="midnightblue" d="M490.815,-280.331C495.497,-271.478 502.412,-257.2 506,-244 521.241,-187.92 524.884,-118.795 525.743,-85.9965"/>
<polygon fill="midnightblue" stroke="midnightblue" points="529.249,-85.7158 525.95,-75.6478 522.25,-85.5758 529.249,-85.7158"/>
</g>
<!-- Node19&#45;&gt;Node1 -->
<g id="edge26" class="edge"><title>Node19&#45;&gt;Node1</title>
<path fill="none" stroke="midnightblue" d="M526,-56.083C526,-49.0059 526,-38.8611 526,-29.9865"/>
<polygon fill="midnightblue" stroke="midnightblue" points="529.5,-29.751 526,-19.7511 522.5,-29.7511 529.5,-29.751"/>
</g>
<!-- Node19&#45;&gt;Node9 -->
<g id="edge27" class="edge"><title>Node19&#45;&gt;Node9</title>
<path fill="none" stroke="midnightblue" d="M470.412,-56.974C402.434,-47.1589 287.606,-30.5795 216.007,-20.2416"/>
<polygon fill="midnightblue" stroke="midnightblue" points="216.165,-16.7282 205.767,-18.7632 215.165,-23.6564 216.165,-16.7282"/>
</g>
</g>
</svg>
