<?xml version="1.0" encoding="UTF-8" standalone="no"?>
<!DOCTYPE svg PUBLIC "-//W3C//DTD SVG 1.1//EN"
 "http://www.w3.org/Graphics/SVG/1.1/DTD/svg11.dtd">
<!-- Generated by graphviz version 2.38.0 (20140413.2041)
 -->
<!-- Title: queue.h Pages: 1 -->
<svg width="1114pt" height="610pt"
 viewBox="0.00 0.00 1114.00 610.00" xmlns="http://www.w3.org/2000/svg" xmlns:xlink="http://www.w3.org/1999/xlink">
<g id="graph0" class="graph" transform="scale(1 1) rotate(0) translate(4 606)">
<title>queue.h</title>
<polygon fill="white" stroke="none" points="-4,4 -4,-606 1110,-606 1110,4 -4,4"/>
<!-- Node0 -->
<g id="node1" class="node"><title>Node0</title>
<polygon fill="#bfbfbf" stroke="black" points="346,-582.5 346,-601.5 402,-601.5 402,-582.5 346,-582.5"/>
<text text-anchor="middle" x="374" y="-589.5" font-family="Helvetica,sans-Serif" font-size="10.00">queue.h</text>
</g>
<!-- Node1 -->
<g id="node2" class="node"><title>Node1</title>
<g id="a_node2"><a xlink:href="visibility__begin_8h_source.html" target="_top" xlink:title="odp/visibility_begin.h">
<polygon fill="white" stroke="black" points="144.5,-0.5 144.5,-19.5 259.5,-19.5 259.5,-0.5 144.5,-0.5"/>
<text text-anchor="middle" x="202" y="-7.5" font-family="Helvetica,sans-Serif" font-size="10.00">odp/visibility_begin.h</text>
</a>
</g>
</g>
<!-- Node0&#45;&gt;Node1 -->
<g id="edge1" class="edge"><title>Node0&#45;&gt;Node1</title>
<path fill="none" stroke="midnightblue" d="M345.889,-588.833C258.911,-581.365 0,-553.08 0,-481 0,-481 0,-481 0,-121 0,-58.4322 75.671,-31.2471 134.384,-19.5709"/>
<polygon fill="midnightblue" stroke="midnightblue" points="135.201,-22.9787 144.385,-17.6963 133.912,-16.0985 135.201,-22.9787"/>
</g>
<!-- Node2 -->
<g id="node3" class="node"><title>Node2</title>
<g id="a_node3"><a xlink:href="api_2event_8h.html" target="_top" xlink:title="ODP event. ">
<polygon fill="white" stroke="black" points="626.5,-526.5 626.5,-545.5 717.5,-545.5 717.5,-526.5 626.5,-526.5"/>
<text text-anchor="middle" x="672" y="-533.5" font-family="Helvetica,sans-Serif" font-size="10.00">odp/api/event.h</text>
</a>
</g>
</g>
<!-- Node0&#45;&gt;Node2 -->
<g id="edge2" class="edge"><title>Node0&#45;&gt;Node2</title>
<path fill="none" stroke="midnightblue" d="M402.035,-585.92C450.996,-577.048 552.926,-558.577 616.578,-547.043"/>
<polygon fill="midnightblue" stroke="midnightblue" points="617.236,-550.481 626.451,-545.254 615.987,-543.593 617.236,-550.481"/>
</g>
<!-- Node13 -->
<g id="node14" class="node"><title>Node13</title>
<g id="a_node14"><a xlink:href="visibility__end_8h_source.html" target="_top" xlink:title="odp/visibility_end.h">
<polygon fill="white" stroke="black" points="797.5,-0.5 797.5,-19.5 904.5,-19.5 904.5,-0.5 797.5,-0.5"/>
<text text-anchor="middle" x="851" y="-7.5" font-family="Helvetica,sans-Serif" font-size="10.00">odp/visibility_end.h</text>
</a>
</g>
</g>
<!-- Node0&#45;&gt;Node13 -->
<g id="edge49" class="edge"><title>Node0&#45;&gt;Node13</title>
<path fill="none" stroke="midnightblue" d="M402.247,-589.793C536.771,-583.68 1106,-553.528 1106,-481 1106,-481 1106,-481 1106,-121 1106,-37.9979 990.684,-16.8849 915.146,-11.9588"/>
<polygon fill="midnightblue" stroke="midnightblue" points="914.951,-8.442 904.767,-11.3663 914.552,-15.4306 914.951,-8.442"/>
</g>
<!-- Node22 -->
<g id="node23" class="node"><title>Node22</title>
<g id="a_node23"><a xlink:href="queue__types_8h.html" target="_top" xlink:title="ODP queue types. ">
<polygon fill="white" stroke="black" points="147,-291.5 147,-321.5 257,-321.5 257,-291.5 147,-291.5"/>
<text text-anchor="start" x="155" y="-309.5" font-family="Helvetica,sans-Serif" font-size="10.00">odp/api/spec/queue</text>
<text text-anchor="middle" x="202" y="-298.5" font-family="Helvetica,sans-Serif" font-size="10.00">_types.h</text>
</a>
</g>
</g>
<!-- Node0&#45;&gt;Node22 -->
<g id="edge33" class="edge"><title>Node0&#45;&gt;Node22</title>
<path fill="none" stroke="midnightblue" d="M345.965,-586.812C271.782,-574.948 76,-538.216 76,-481 76,-481 76,-481 76,-423 76,-377.178 121.842,-344.612 158.224,-325.981"/>
<polygon fill="midnightblue" stroke="midnightblue" points="159.81,-329.102 167.236,-321.546 156.719,-322.822 159.81,-329.102"/>
</g>
<!-- Node3 -->
<g id="node4" class="node"><title>Node3</title>
<polygon fill="white" stroke="#bfbfbf" points="932,-358.5 932,-377.5 1040,-377.5 1040,-358.5 932,-358.5"/>
<text text-anchor="middle" x="986" y="-365.5" font-family="Helvetica,sans-Serif" font-size="10.00">odp/api/abi/event.h</text>
</g>
<!-- Node2&#45;&gt;Node3 -->
<g id="edge3" class="edge"><title>Node2&#45;&gt;Node3</title>
<path fill="none" stroke="midnightblue" d="M688.44,-526.309C739.945,-499.08 898.436,-415.292 960.604,-382.426"/>
<polygon fill="midnightblue" stroke="midnightblue" points="962.518,-385.373 969.723,-377.605 959.246,-379.185 962.518,-385.373"/>
</g>
<!-- Node4 -->
<g id="node5" class="node"><title>Node4</title>
<g id="a_node5"><a xlink:href="api_2spec_2event_8h.html" target="_top" xlink:title="ODP event. ">
<polygon fill="white" stroke="black" points="614,-470.5 614,-489.5 730,-489.5 730,-470.5 614,-470.5"/>
<text text-anchor="middle" x="672" y="-477.5" font-family="Helvetica,sans-Serif" font-size="10.00">odp/api/spec/event.h</text>
</a>
</g>
</g>
<!-- Node2&#45;&gt;Node4 -->
<g id="edge4" class="edge"><title>Node2&#45;&gt;Node4</title>
<path fill="none" stroke="midnightblue" d="M672,-526.083C672,-519.006 672,-508.861 672,-499.986"/>
<polygon fill="midnightblue" stroke="midnightblue" points="675.5,-499.751 672,-489.751 668.5,-499.751 675.5,-499.751"/>
</g>
<!-- Node4&#45;&gt;Node1 -->
<g id="edge5" class="edge"><title>Node4&#45;&gt;Node1</title>
<path fill="none" stroke="midnightblue" d="M613.774,-475.699C457.042,-465.234 38,-426.158 38,-307.5 38,-307.5 38,-307.5 38,-121 38,-65.6724 103.174,-36.3874 151.351,-22.2979"/>
<polygon fill="midnightblue" stroke="midnightblue" points="152.345,-25.6542 161.039,-19.5987 150.466,-18.911 152.345,-25.6542"/>
</g>
<!-- Node5 -->
<g id="node6" class="node"><title>Node5</title>
<g id="a_node6"><a xlink:href="api_2packet_8h.html" target="_top" xlink:title="ODP packet descriptor. ">
<polygon fill="white" stroke="black" points="624,-414.5 624,-433.5 720,-433.5 720,-414.5 624,-414.5"/>
<text text-anchor="middle" x="672" y="-421.5" font-family="Helvetica,sans-Serif" font-size="10.00">odp/api/packet.h</text>
</a>
</g>
</g>
<!-- Node4&#45;&gt;Node5 -->
<g id="edge6" class="edge"><title>Node4&#45;&gt;Node5</title>
<path fill="none" stroke="midnightblue" d="M672,-470.083C672,-463.006 672,-452.861 672,-443.986"/>
<polygon fill="midnightblue" stroke="midnightblue" points="675.5,-443.751 672,-433.751 668.5,-443.751 675.5,-443.751"/>
</g>
<!-- Node4&#45;&gt;Node13 -->
<g id="edge32" class="edge"><title>Node4&#45;&gt;Node13</title>
<path fill="none" stroke="midnightblue" d="M730.007,-470.64C824.154,-455.934 1004.23,-422.706 1049,-378 1071.96,-355.071 1068,-339.951 1068,-307.5 1068,-307.5 1068,-307.5 1068,-121 1068,-51.6398 978.71,-26.0014 914.682,-16.5329"/>
<polygon fill="midnightblue" stroke="midnightblue" points="915.025,-13.0471 904.64,-15.1479 914.068,-19.9815 915.025,-13.0471"/>
</g>
<!-- Node5&#45;&gt;Node3 -->
<g id="edge18" class="edge"><title>Node5&#45;&gt;Node3</title>
<path fill="none" stroke="midnightblue" d="M720.032,-414.74C775.411,-405.216 866.484,-389.554 926.354,-379.258"/>
<polygon fill="midnightblue" stroke="midnightblue" points="927.156,-382.671 936.418,-377.527 925.97,-375.772 927.156,-382.671"/>
</g>
<!-- Node6 -->
<g id="node7" class="node"><title>Node6</title>
<g id="a_node7"><a xlink:href="api_2std__types_8h.html" target="_top" xlink:title="Standard C language types and definitions for ODP. ">
<polygon fill="white" stroke="black" points="849,-235.5 849,-254.5 959,-254.5 959,-235.5 849,-235.5"/>
<text text-anchor="middle" x="904" y="-242.5" font-family="Helvetica,sans-Serif" font-size="10.00">odp/api/std_types.h</text>
</a>
</g>
</g>
<!-- Node5&#45;&gt;Node6 -->
<g id="edge7" class="edge"><title>Node5&#45;&gt;Node6</title>
<path fill="none" stroke="midnightblue" d="M720.036,-419.163C775.804,-413.668 862.972,-401.514 885,-378 913.798,-347.259 911.26,-293.544 907.381,-265.035"/>
<polygon fill="midnightblue" stroke="midnightblue" points="910.785,-264.15 905.779,-254.812 903.869,-265.234 910.785,-264.15"/>
</g>
<!-- Node14 -->
<g id="node15" class="node"><title>Node14</title>
<polygon fill="white" stroke="#bfbfbf" points="608.5,-358.5 608.5,-377.5 735.5,-377.5 735.5,-358.5 608.5,-358.5"/>
<text text-anchor="middle" x="672" y="-365.5" font-family="Helvetica,sans-Serif" font-size="10.00">odp/api/abi/packet_io.h</text>
</g>
<!-- Node5&#45;&gt;Node14 -->
<g id="edge19" class="edge"><title>Node5&#45;&gt;Node14</title>
<path fill="none" stroke="midnightblue" d="M672,-414.083C672,-407.006 672,-396.861 672,-387.986"/>
<polygon fill="midnightblue" stroke="midnightblue" points="675.5,-387.751 672,-377.751 668.5,-387.751 675.5,-387.751"/>
</g>
<!-- Node15 -->
<g id="node16" class="node"><title>Node15</title>
<polygon fill="white" stroke="#bfbfbf" points="231.5,-358.5 231.5,-377.5 344.5,-377.5 344.5,-358.5 231.5,-358.5"/>
<text text-anchor="middle" x="288" y="-365.5" font-family="Helvetica,sans-Serif" font-size="10.00">odp/api/abi/packet.h</text>
</g>
<!-- Node5&#45;&gt;Node15 -->
<g id="edge20" class="edge"><title>Node5&#45;&gt;Node15</title>
<path fill="none" stroke="midnightblue" d="M623.755,-416.216C555.8,-406.659 431.631,-389.198 354.827,-378.398"/>
<polygon fill="midnightblue" stroke="midnightblue" points="355.168,-374.911 344.778,-376.984 354.193,-381.843 355.168,-374.911"/>
</g>
<!-- Node16 -->
<g id="node17" class="node"><title>Node16</title>
<polygon fill="white" stroke="#bfbfbf" points="363,-358.5 363,-377.5 471,-377.5 471,-358.5 363,-358.5"/>
<text text-anchor="middle" x="417" y="-365.5" font-family="Helvetica,sans-Serif" font-size="10.00">odp/api/abi/buffer.h</text>
</g>
<!-- Node5&#45;&gt;Node16 -->
<g id="edge21" class="edge"><title>Node5&#45;&gt;Node16</title>
<path fill="none" stroke="midnightblue" d="M631.594,-414.444C587.017,-405.004 515.232,-389.802 467.108,-379.611"/>
<polygon fill="midnightblue" stroke="midnightblue" points="467.725,-376.164 457.216,-377.516 466.274,-383.012 467.725,-376.164"/>
</g>
<!-- Node17 -->
<g id="node18" class="node"><title>Node17</title>
<polygon fill="white" stroke="#bfbfbf" points="489.5,-358.5 489.5,-377.5 590.5,-377.5 590.5,-358.5 489.5,-358.5"/>
<text text-anchor="middle" x="540" y="-365.5" font-family="Helvetica,sans-Serif" font-size="10.00">odp/api/abi/pool.h</text>
</g>
<!-- Node5&#45;&gt;Node17 -->
<g id="edge22" class="edge"><title>Node5&#45;&gt;Node17</title>
<path fill="none" stroke="midnightblue" d="M651.084,-414.444C629.264,-405.517 594.85,-391.439 570.108,-381.317"/>
<polygon fill="midnightblue" stroke="midnightblue" points="571.399,-378.063 560.818,-377.516 568.748,-384.542 571.399,-378.063"/>
</g>
<!-- Node18 -->
<g id="node19" class="node"><title>Node18</title>
<g id="a_node19"><a xlink:href="api_2spec_2packet_8h.html" target="_top" xlink:title="ODP packet descriptor. ">
<polygon fill="white" stroke="black" points="754,-358.5 754,-377.5 876,-377.5 876,-358.5 754,-358.5"/>
<text text-anchor="middle" x="815" y="-365.5" font-family="Helvetica,sans-Serif" font-size="10.00">odp/api/spec/packet.h</text>
</a>
</g>
</g>
<!-- Node5&#45;&gt;Node18 -->
<g id="edge23" class="edge"><title>Node5&#45;&gt;Node18</title>
<path fill="none" stroke="midnightblue" d="M694.659,-414.444C718.402,-405.478 755.909,-391.314 782.738,-381.183"/>
<polygon fill="midnightblue" stroke="midnightblue" points="784.329,-384.324 792.447,-377.516 781.856,-377.775 784.329,-384.324"/>
</g>
<!-- Node7 -->
<g id="node8" class="node"><title>Node7</title>
<polygon fill="white" stroke="#bfbfbf" points="874,-174 874,-193 1002,-193 1002,-174 874,-174"/>
<text text-anchor="middle" x="938" y="-181" font-family="Helvetica,sans-Serif" font-size="10.00">odp/api/abi/std_types.h</text>
</g>
<!-- Node6&#45;&gt;Node7 -->
<g id="edge8" class="edge"><title>Node6&#45;&gt;Node7</title>
<path fill="none" stroke="midnightblue" d="M908.871,-235.475C913.87,-226.727 921.789,-212.869 928.109,-201.809"/>
<polygon fill="midnightblue" stroke="midnightblue" points="931.215,-203.428 933.138,-193.009 925.137,-199.955 931.215,-203.428"/>
</g>
<!-- Node8 -->
<g id="node9" class="node"><title>Node8</title>
<g id="a_node9"><a xlink:href="api_2spec_2std__types_8h.html" target="_top" xlink:title="Standard C language types and definitions for ODP. ">
<polygon fill="white" stroke="black" points="682,-174 682,-193 818,-193 818,-174 682,-174"/>
<text text-anchor="middle" x="750" y="-181" font-family="Helvetica,sans-Serif" font-size="10.00">odp/api/spec/std_types.h</text>
</a>
</g>
</g>
<!-- Node6&#45;&gt;Node8 -->
<g id="edge9" class="edge"><title>Node6&#45;&gt;Node8</title>
<path fill="none" stroke="midnightblue" d="M881.936,-235.475C855.633,-225.313 811.487,-208.256 781.575,-196.7"/>
<polygon fill="midnightblue" stroke="midnightblue" points="782.613,-193.348 772.024,-193.009 780.09,-199.878 782.613,-193.348"/>
</g>
<!-- Node8&#45;&gt;Node1 -->
<g id="edge10" class="edge"><title>Node8&#45;&gt;Node1</title>
<path fill="none" stroke="midnightblue" d="M681.645,-179.778C589.486,-174.991 431.344,-162.499 383,-132 348.804,-110.427 364.944,-80.7861 333,-56 311.793,-39.5451 284.175,-28.8844 259.767,-22.0935"/>
<polygon fill="midnightblue" stroke="midnightblue" points="260.448,-18.6536 249.887,-19.5019 258.672,-25.4246 260.448,-18.6536"/>
</g>
<!-- Node9 -->
<g id="node10" class="node"><title>Node9</title>
<polygon fill="white" stroke="#bfbfbf" points="810.5,-112.5 810.5,-131.5 863.5,-131.5 863.5,-112.5 810.5,-112.5"/>
<text text-anchor="middle" x="837" y="-119.5" font-family="Helvetica,sans-Serif" font-size="10.00">stdint.h</text>
</g>
<!-- Node8&#45;&gt;Node9 -->
<g id="edge11" class="edge"><title>Node8&#45;&gt;Node9</title>
<path fill="none" stroke="midnightblue" d="M762.465,-173.975C776.419,-164.431 799.265,-148.807 815.991,-137.368"/>
<polygon fill="midnightblue" stroke="midnightblue" points="818.28,-140.043 824.558,-131.509 814.328,-134.265 818.28,-140.043"/>
</g>
<!-- Node10 -->
<g id="node11" class="node"><title>Node10</title>
<g id="a_node11"><a xlink:href="api_2align_8h.html" target="_top" xlink:title="ODP alignments. ">
<polygon fill="white" stroke="black" points="706,-112.5 706,-131.5 792,-131.5 792,-112.5 706,-112.5"/>
<text text-anchor="middle" x="749" y="-119.5" font-family="Helvetica,sans-Serif" font-size="10.00">odp/api/align.h</text>
</a>
</g>
</g>
<!-- Node8&#45;&gt;Node10 -->
<g id="edge12" class="edge"><title>Node8&#45;&gt;Node10</title>
<path fill="none" stroke="midnightblue" d="M749.857,-173.975C749.716,-165.58 749.495,-152.481 749.314,-141.663"/>
<polygon fill="midnightblue" stroke="midnightblue" points="752.811,-141.449 749.143,-131.509 745.812,-141.567 752.811,-141.449"/>
</g>
<!-- Node8&#45;&gt;Node13 -->
<g id="edge17" class="edge"><title>Node8&#45;&gt;Node13</title>
<path fill="none" stroke="midnightblue" d="M789.869,-173.976C836.078,-161.579 909.191,-133.473 935,-76 946,-51.5052 917.307,-33.8456 890.519,-23.1706"/>
<polygon fill="midnightblue" stroke="midnightblue" points="891.405,-19.7659 880.813,-19.554 888.961,-26.3254 891.405,-19.7659"/>
</g>
<!-- Node11 -->
<g id="node12" class="node"><title>Node11</title>
<polygon fill="white" stroke="#bfbfbf" points="822,-56.5 822,-75.5 926,-75.5 926,-56.5 822,-56.5"/>
<text text-anchor="middle" x="874" y="-63.5" font-family="Helvetica,sans-Serif" font-size="10.00">odp/api/abi/align.h</text>
</g>
<!-- Node10&#45;&gt;Node11 -->
<g id="edge13" class="edge"><title>Node10&#45;&gt;Node11</title>
<path fill="none" stroke="midnightblue" d="M768.807,-112.444C789.287,-103.596 821.483,-89.6875 844.865,-79.5865"/>
<polygon fill="midnightblue" stroke="midnightblue" points="846.494,-82.6953 854.286,-75.5164 843.718,-76.2692 846.494,-82.6953"/>
</g>
<!-- Node12 -->
<g id="node13" class="node"><title>Node12</title>
<g id="a_node13"><a xlink:href="api_2spec_2align_8h.html" target="_top" xlink:title="ODP alignments. ">
<polygon fill="white" stroke="black" points="692,-56.5 692,-75.5 804,-75.5 804,-56.5 692,-56.5"/>
<text text-anchor="middle" x="748" y="-63.5" font-family="Helvetica,sans-Serif" font-size="10.00">odp/api/spec/align.h</text>
</a>
</g>
</g>
<!-- Node10&#45;&gt;Node12 -->
<g id="edge14" class="edge"><title>Node10&#45;&gt;Node12</title>
<path fill="none" stroke="midnightblue" d="M748.835,-112.083C748.704,-105.006 748.516,-94.8611 748.352,-85.9865"/>
<polygon fill="midnightblue" stroke="midnightblue" points="751.847,-85.6845 748.162,-75.7511 744.848,-85.8142 751.847,-85.6845"/>
</g>
<!-- Node12&#45;&gt;Node1 -->
<g id="edge15" class="edge"><title>Node12&#45;&gt;Node1</title>
<path fill="none" stroke="midnightblue" d="M691.851,-57.1798C688.52,-56.7666 685.217,-56.37 682,-56 535.332,-39.1325 362.901,-24.1455 269.839,-16.4554"/>
<polygon fill="midnightblue" stroke="midnightblue" points="269.966,-12.9542 259.713,-15.6216 269.392,-19.9305 269.966,-12.9542"/>
</g>
<!-- Node12&#45;&gt;Node13 -->
<g id="edge16" class="edge"><title>Node12&#45;&gt;Node13</title>
<path fill="none" stroke="midnightblue" d="M764.549,-56.324C780.992,-47.7034 806.435,-34.3643 825.468,-24.3855"/>
<polygon fill="midnightblue" stroke="midnightblue" points="827.261,-27.3977 834.492,-19.6545 824.011,-21.198 827.261,-27.3977"/>
</g>
<!-- Node18&#45;&gt;Node1 -->
<g id="edge24" class="edge"><title>Node18&#45;&gt;Node1</title>
<path fill="none" stroke="midnightblue" d="M753.838,-358.984C750.512,-358.63 747.217,-358.299 744,-358 676.838,-351.755 198.049,-352.724 138,-322 99.1927,-302.145 76,-289.592 76,-246 76,-246 76,-246 76,-121 76,-71.9526 130.851,-39.7416 168.172,-23.5016"/>
<polygon fill="midnightblue" stroke="midnightblue" points="169.821,-26.6064 177.706,-19.5298 167.129,-20.1446 169.821,-26.6064"/>
</g>
<!-- Node18&#45;&gt;Node13 -->
<g id="edge31" class="edge"><title>Node18&#45;&gt;Node13</title>
<path fill="none" stroke="midnightblue" d="M835.225,-358.434C879.276,-338.397 982.246,-283.661 1011,-199 1028.93,-146.221 968.446,-59.3988 965,-56 948.588,-39.8117 925.649,-29.2657 904.647,-22.4856"/>
<polygon fill="midnightblue" stroke="midnightblue" points="905.433,-19.0671 894.849,-19.5403 903.418,-25.7708 905.433,-19.0671"/>
</g>
<!-- Node19 -->
<g id="node20" class="node"><title>Node19</title>
<g id="a_node20"><a xlink:href="api_2time_8h.html" target="_top" xlink:title="ODP time. ">
<polygon fill="white" stroke="black" points="744,-297 744,-316 830,-316 830,-297 744,-297"/>
<text text-anchor="middle" x="787" y="-304" font-family="Helvetica,sans-Serif" font-size="10.00">odp/api/time.h</text>
</a>
</g>
</g>
<!-- Node18&#45;&gt;Node19 -->
<g id="edge25" class="edge"><title>Node18&#45;&gt;Node19</title>
<path fill="none" stroke="midnightblue" d="M810.988,-358.475C806.913,-349.815 800.482,-336.149 795.304,-325.145"/>
<polygon fill="midnightblue" stroke="midnightblue" points="798.429,-323.567 791.004,-316.009 792.095,-326.548 798.429,-323.567"/>
</g>
<!-- Node19&#45;&gt;Node6 -->
<g id="edge26" class="edge"><title>Node19&#45;&gt;Node6</title>
<path fill="none" stroke="midnightblue" d="M803.763,-296.975C823.225,-287.078 855.545,-270.642 878.211,-259.115"/>
<polygon fill="midnightblue" stroke="midnightblue" points="879.941,-262.162 887.268,-254.509 876.768,-255.922 879.941,-262.162"/>
</g>
<!-- Node20 -->
<g id="node21" class="node"><title>Node20</title>
<polygon fill="white" stroke="#bfbfbf" points="727.5,-235.5 727.5,-254.5 830.5,-254.5 830.5,-235.5 727.5,-235.5"/>
<text text-anchor="middle" x="779" y="-242.5" font-family="Helvetica,sans-Serif" font-size="10.00">odp/api/abi/time.h</text>
</g>
<!-- Node19&#45;&gt;Node20 -->
<g id="edge27" class="edge"><title>Node19&#45;&gt;Node20</title>
<path fill="none" stroke="midnightblue" d="M785.854,-296.975C784.725,-288.58 782.964,-275.481 781.509,-264.663"/>
<polygon fill="midnightblue" stroke="midnightblue" points="784.945,-263.953 780.144,-254.509 778.008,-264.886 784.945,-263.953"/>
</g>
<!-- Node21 -->
<g id="node22" class="node"><title>Node21</title>
<g id="a_node22"><a xlink:href="api_2spec_2time_8h.html" target="_top" xlink:title="ODP time. ">
<polygon fill="white" stroke="black" points="562.5,-56.5 562.5,-75.5 673.5,-75.5 673.5,-56.5 562.5,-56.5"/>
<text text-anchor="middle" x="618" y="-63.5" font-family="Helvetica,sans-Serif" font-size="10.00">odp/api/spec/time.h</text>
</a>
</g>
</g>
<!-- Node19&#45;&gt;Node21 -->
<g id="edge28" class="edge"><title>Node19&#45;&gt;Node21</title>
<path fill="none" stroke="midnightblue" d="M773.223,-296.968C758.682,-287.621 735.491,-271.72 718,-255 694.919,-232.938 689.302,-226.454 673,-199 650.374,-160.896 632.561,-111.754 623.849,-85.4916"/>
<polygon fill="midnightblue" stroke="midnightblue" points="627.1,-84.1686 620.685,-75.7361 620.441,-86.3281 627.1,-84.1686"/>
</g>
<!-- Node21&#45;&gt;Node1 -->
<g id="edge29" class="edge"><title>Node21&#45;&gt;Node1</title>
<path fill="none" stroke="midnightblue" d="M562.328,-57.7734C486.637,-47.948 351.371,-30.3895 269.838,-19.8059"/>
<polygon fill="midnightblue" stroke="midnightblue" points="270.048,-16.3038 259.68,-18.4874 269.147,-23.2456 270.048,-16.3038"/>
</g>
<!-- Node21&#45;&gt;Node13 -->
<g id="edge30" class="edge"><title>Node21&#45;&gt;Node13</title>
<path fill="none" stroke="midnightblue" d="M654.92,-56.4435C695.395,-47.0629 760.421,-31.9926 804.384,-21.8036"/>
<polygon fill="midnightblue" stroke="midnightblue" points="805.302,-25.1839 814.253,-19.5164 803.721,-18.3646 805.302,-25.1839"/>
</g>
<!-- Node22&#45;&gt;Node1 -->
<g id="edge34" class="edge"><title>Node22&#45;&gt;Node1</title>
<path fill="none" stroke="midnightblue" d="M174.532,-291.384C160.191,-282.702 143.495,-270.303 133,-255 114.647,-228.237 114,-216.951 114,-184.5 114,-184.5 114,-184.5 114,-121 114,-79.0325 153.541,-43.9022 179.612,-25.3001"/>
<polygon fill="midnightblue" stroke="midnightblue" points="181.597,-28.1834 187.861,-19.6391 177.636,-22.4118 181.597,-28.1834"/>
</g>
<!-- Node22&#45;&gt;Node13 -->
<g id="edge48" class="edge"><title>Node22&#45;&gt;Node13</title>
<path fill="none" stroke="midnightblue" d="M257.211,-299.746C390.241,-285.302 725.037,-245.336 827,-199 846.843,-189.983 847.902,-181.517 865,-168 908.67,-133.475 933.65,-129.214 950,-76 952.611,-67.5031 954.812,-63.4735 950,-56 939.694,-39.9949 922.149,-29.6167 904.666,-22.9158"/>
<polygon fill="midnightblue" stroke="midnightblue" points="905.6,-19.5353 895.006,-19.559 903.303,-26.1475 905.6,-19.5353"/>
</g>
<!-- Node23 -->
<g id="node24" class="node"><title>Node23</title>
<g id="a_node24"><a xlink:href="api_2schedule__types_8h.html" target="_top" xlink:title="ODP schedule. ">
<polygon fill="white" stroke="black" points="280,-235.5 280,-254.5 418,-254.5 418,-235.5 280,-235.5"/>
<text text-anchor="middle" x="349" y="-242.5" font-family="Helvetica,sans-Serif" font-size="10.00">odp/api/schedule_types.h</text>
</a>
</g>
</g>
<!-- Node22&#45;&gt;Node23 -->
<g id="edge35" class="edge"><title>Node22&#45;&gt;Node23</title>
<path fill="none" stroke="midnightblue" d="M236.837,-291.399C261.501,-281.416 294.285,-268.147 318.035,-258.534"/>
<polygon fill="midnightblue" stroke="midnightblue" points="319.654,-261.654 327.61,-254.658 317.028,-255.165 319.654,-261.654"/>
</g>
<!-- Node28 -->
<g id="node29" class="node"><title>Node28</title>
<g id="a_node29"><a xlink:href="deprecated_8h.html" target="_top" xlink:title="Control deprecated API definitions. ">
<polygon fill="white" stroke="black" points="142.5,-235.5 142.5,-254.5 261.5,-254.5 261.5,-235.5 142.5,-235.5"/>
<text text-anchor="middle" x="202" y="-242.5" font-family="Helvetica,sans-Serif" font-size="10.00">odp/api/deprecated.h</text>
</a>
</g>
</g>
<!-- Node22&#45;&gt;Node28 -->
<g id="edge44" class="edge"><title>Node22&#45;&gt;Node28</title>
<path fill="none" stroke="midnightblue" d="M202,-291.399C202,-283.466 202,-273.458 202,-264.858"/>
<polygon fill="midnightblue" stroke="midnightblue" points="205.5,-264.658 202,-254.658 198.5,-264.658 205.5,-264.658"/>
</g>
<!-- Node24 -->
<g id="node25" class="node"><title>Node24</title>
<polygon fill="white" stroke="#bfbfbf" points="248.5,-168.5 248.5,-198.5 363.5,-198.5 363.5,-168.5 248.5,-168.5"/>
<text text-anchor="start" x="256.5" y="-186.5" font-family="Helvetica,sans-Serif" font-size="10.00">odp/api/abi/schedule</text>
<text text-anchor="middle" x="306" y="-175.5" font-family="Helvetica,sans-Serif" font-size="10.00">_types.h</text>
</g>
<!-- Node23&#45;&gt;Node24 -->
<g id="edge36" class="edge"><title>Node23&#45;&gt;Node24</title>
<path fill="none" stroke="midnightblue" d="M342.839,-235.475C337.451,-228.019 329.38,-216.852 322.165,-206.869"/>
<polygon fill="midnightblue" stroke="midnightblue" points="324.828,-204.578 316.134,-198.523 319.155,-208.678 324.828,-204.578"/>
</g>
<!-- Node25 -->
<g id="node26" class="node"><title>Node25</title>
<g id="a_node26"><a xlink:href="api_2spec_2schedule__types_8h.html" target="_top" xlink:title="ODP schedule types. ">
<polygon fill="white" stroke="black" points="381.5,-168.5 381.5,-198.5 504.5,-198.5 504.5,-168.5 381.5,-168.5"/>
<text text-anchor="start" x="389.5" y="-186.5" font-family="Helvetica,sans-Serif" font-size="10.00">odp/api/spec/schedule</text>
<text text-anchor="middle" x="443" y="-175.5" font-family="Helvetica,sans-Serif" font-size="10.00">_types.h</text>
</a>
</g>
</g>
<!-- Node23&#45;&gt;Node25 -->
<g id="edge37" class="edge"><title>Node23&#45;&gt;Node25</title>
<path fill="none" stroke="midnightblue" d="M362.468,-235.475C375.437,-227.266 395.513,-214.558 412.376,-203.885"/>
<polygon fill="midnightblue" stroke="midnightblue" points="414.268,-206.829 420.846,-198.523 410.525,-200.914 414.268,-206.829"/>
</g>
<!-- Node25&#45;&gt;Node1 -->
<g id="edge38" class="edge"><title>Node25&#45;&gt;Node1</title>
<path fill="none" stroke="midnightblue" d="M386.669,-168.434C314.608,-149.17 196.083,-112.758 171,-76 160.396,-60.4609 172.967,-40.7329 185.134,-27.1085"/>
<polygon fill="midnightblue" stroke="midnightblue" points="187.679,-29.5111 192.072,-19.8699 182.625,-24.6673 187.679,-29.5111"/>
</g>
<!-- Node25&#45;&gt;Node13 -->
<g id="edge43" class="edge"><title>Node25&#45;&gt;Node13</title>
<path fill="none" stroke="midnightblue" d="M461.975,-168.434C474.157,-158.9 489.903,-145.6 502,-132 529.034,-101.605 518.64,-77.7735 553,-56 590.831,-32.0269 711.334,-19.9927 787.018,-14.6505"/>
<polygon fill="midnightblue" stroke="midnightblue" points="787.649,-18.1156 797.386,-13.9406 787.171,-11.1319 787.649,-18.1156"/>
</g>
<!-- Node26 -->
<g id="node27" class="node"><title>Node26</title>
<g id="a_node27"><a xlink:href="support_8h.html" target="_top" xlink:title="ODP support API &#45; platform specific header. ">
<polygon fill="white" stroke="black" points="392.5,-112.5 392.5,-131.5 493.5,-131.5 493.5,-112.5 392.5,-112.5"/>
<text text-anchor="middle" x="443" y="-119.5" font-family="Helvetica,sans-Serif" font-size="10.00">odp/api/support.h</text>
</a>
</g>
</g>
<!-- Node25&#45;&gt;Node26 -->
<g id="edge39" class="edge"><title>Node25&#45;&gt;Node26</title>
<path fill="none" stroke="midnightblue" d="M443,-168.399C443,-160.466 443,-150.458 443,-141.858"/>
<polygon fill="midnightblue" stroke="midnightblue" points="446.5,-141.658 443,-131.658 439.5,-141.658 446.5,-141.658"/>
</g>
<!-- Node27 -->
<g id="node28" class="node"><title>Node27</title>
<g id="a_node28"><a xlink:href="spec_2support_8h.html" target="_top" xlink:title="ODP support API. ">
<polygon fill="white" stroke="black" points="380,-56.5 380,-75.5 506,-75.5 506,-56.5 380,-56.5"/>
<text text-anchor="middle" x="443" y="-63.5" font-family="Helvetica,sans-Serif" font-size="10.00">odp/api/spec/support.h</text>
</a>
</g>
</g>
<!-- Node26&#45;&gt;Node27 -->
<g id="edge40" class="edge"><title>Node26&#45;&gt;Node27</title>
<path fill="none" stroke="midnightblue" d="M443,-112.083C443,-105.006 443,-94.8611 443,-85.9865"/>
<polygon fill="midnightblue" stroke="midnightblue" points="446.5,-85.751 443,-75.7511 439.5,-85.7511 446.5,-85.751"/>
</g>
<!-- Node27&#45;&gt;Node1 -->
<g id="edge41" class="edge"><title>Node27&#45;&gt;Node1</title>
<path fill="none" stroke="midnightblue" d="M404.813,-56.4435C362.859,-47.0431 295.406,-31.9291 249.929,-21.7393"/>
<polygon fill="midnightblue" stroke="midnightblue" points="250.532,-18.2876 240.009,-19.5164 249.001,-25.1183 250.532,-18.2876"/>
</g>
<!-- Node27&#45;&gt;Node13 -->
<g id="edge42" class="edge"><title>Node27&#45;&gt;Node13</title>
<path fill="none" stroke="midnightblue" d="M506.302,-56.6217C582.775,-46.5003 710.679,-29.5719 787.321,-19.4282"/>
<polygon fill="midnightblue" stroke="midnightblue" points="787.87,-22.886 797.324,-18.1041 786.952,-15.9465 787.87,-22.886"/>
</g>
<!-- Node29 -->
<g id="node30" class="node"><title>Node29</title>
<g id="a_node30"><a xlink:href="spec_2deprecated_8h.html" target="_top" xlink:title="Macro for deprecated API definitions. ">
<polygon fill="white" stroke="black" points="180,-56.5 180,-75.5 324,-75.5 324,-56.5 180,-56.5"/>
<text text-anchor="middle" x="252" y="-63.5" font-family="Helvetica,sans-Serif" font-size="10.00">odp/api/spec/deprecated.h</text>
</a>
</g>
</g>
<!-- Node28&#45;&gt;Node29 -->
<g id="edge45" class="edge"><title>Node28&#45;&gt;Node29</title>
<path fill="none" stroke="midnightblue" d="M204.412,-235.463C212.082,-208.311 236.036,-123.512 246.741,-85.6185"/>
<polygon fill="midnightblue" stroke="midnightblue" points="250.144,-86.4433 249.495,-75.8684 243.408,-84.5403 250.144,-86.4433"/>
</g>
<!-- Node29&#45;&gt;Node1 -->
<g id="edge46" class="edge"><title>Node29&#45;&gt;Node1</title>
<path fill="none" stroke="midnightblue" d="M243.744,-56.083C236.535,-48.2982 225.89,-36.8015 217.154,-27.3665"/>
<polygon fill="midnightblue" stroke="midnightblue" points="219.465,-24.7108 210.103,-19.7511 214.329,-29.4666 219.465,-24.7108"/>
</g>
<!-- Node29&#45;&gt;Node13 -->
<g id="edge47" class="edge"><title>Node29&#45;&gt;Node13</title>
<path fill="none" stroke="midnightblue" d="M324.253,-58.4863C442.386,-47.8367 674.945,-26.8714 787.284,-16.744"/>
<polygon fill="midnightblue" stroke="midnightblue" points="787.801,-20.2117 797.447,-15.8279 787.173,-13.2399 787.801,-20.2117"/>
</g>
</g>
</svg>
