<?xml version="1.0" encoding="UTF-8" standalone="no"?>
<!DOCTYPE svg PUBLIC "-//W3C//DTD SVG 1.1//EN"
 "http://www.w3.org/Graphics/SVG/1.1/DTD/svg11.dtd">
<!-- Generated by graphviz version 2.38.0 (20140413.2041)
 -->
<!-- Title: packet.h Pages: 1 -->
<svg width="504pt" height="364pt"
 viewBox="0.00 0.00 504.26 364.00" xmlns="http://www.w3.org/2000/svg" xmlns:xlink="http://www.w3.org/1999/xlink">
<g id="graph0" class="graph" transform="scale(1 1) rotate(0) translate(4 360)">
<title>packet.h</title>
<polygon fill="white" stroke="none" points="-4,4 -4,-360 500.26,-360 500.26,4 -4,4"/>
<!-- Node0 -->
<g id="node1" class="node"><title>Node0</title>
<polygon fill="#bfbfbf" stroke="black" points="194.26,-336.5 194.26,-355.5 252.26,-355.5 252.26,-336.5 194.26,-336.5"/>
<text text-anchor="middle" x="223.26" y="-343.5" font-family="Helvetica,sans-Serif" font-size="10.00">packet.h</text>
</g>
<!-- Node1 -->
<g id="node2" class="node"><title>Node1</title>
<g id="a_node2"><a xlink:href="visibility__begin_8h_source.html" target="_top" xlink:title="odp/visibility_begin.h">
<polygon fill="white" stroke="black" points="68.7596,-0.5 68.7596,-19.5 183.76,-19.5 183.76,-0.5 68.7596,-0.5"/>
<text text-anchor="middle" x="126.26" y="-7.5" font-family="Helvetica,sans-Serif" font-size="10.00">odp/visibility_begin.h</text>
</a>
</g>
</g>
<!-- Node0&#45;&gt;Node1 -->
<g id="edge1" class="edge"><title>Node0&#45;&gt;Node1</title>
<path fill="none" stroke="midnightblue" d="M194.106,-343.782C133.659,-339.533 0.259623,-320.475 0.259623,-235 0.259623,-235 0.259623,-235 0.259623,-121 0.259623,-90.9022 -0.778869,-78.4574 19.2596,-56 33.6069,-39.9208 54.6377,-29.4228 74.2651,-22.6489"/>
<polygon fill="midnightblue" stroke="midnightblue" points="75.5912,-25.8997 84.0541,-19.5255 73.4634,-19.2309 75.5912,-25.8997"/>
</g>
<!-- Node2 -->
<g id="node3" class="node"><title>Node2</title>
<g id="a_node3"><a xlink:href="api_2time_8h.html" target="_top" xlink:title="ODP time. ">
<polygon fill="white" stroke="black" points="180.26,-280.5 180.26,-299.5 266.26,-299.5 266.26,-280.5 180.26,-280.5"/>
<text text-anchor="middle" x="223.26" y="-287.5" font-family="Helvetica,sans-Serif" font-size="10.00">odp/api/time.h</text>
</a>
</g>
</g>
<!-- Node0&#45;&gt;Node2 -->
<g id="edge2" class="edge"><title>Node0&#45;&gt;Node2</title>
<path fill="none" stroke="midnightblue" d="M223.26,-336.083C223.26,-329.006 223.26,-318.861 223.26,-309.986"/>
<polygon fill="midnightblue" stroke="midnightblue" points="226.76,-309.751 223.26,-299.751 219.76,-309.751 226.76,-309.751"/>
</g>
<!-- Node10 -->
<g id="node11" class="node"><title>Node10</title>
<g id="a_node11"><a xlink:href="visibility__end_8h_source.html" target="_top" xlink:title="odp/visibility_end.h">
<polygon fill="white" stroke="black" points="301.76,-0.5 301.76,-19.5 408.76,-19.5 408.76,-0.5 301.76,-0.5"/>
<text text-anchor="middle" x="355.26" y="-7.5" font-family="Helvetica,sans-Serif" font-size="10.00">odp/visibility_end.h</text>
</a>
</g>
</g>
<!-- Node0&#45;&gt;Node10 -->
<g id="edge18" class="edge"><title>Node0&#45;&gt;Node10</title>
<path fill="none" stroke="midnightblue" d="M252.475,-339.68C322.902,-326.025 496.26,-287.121 496.26,-235 496.26,-235 496.26,-235 496.26,-121 496.26,-69.2626 436.515,-38.2716 394.806,-22.94"/>
<polygon fill="midnightblue" stroke="midnightblue" points="395.757,-19.5645 385.162,-19.5519 393.437,-26.1688 395.757,-19.5645"/>
</g>
<!-- Node3 -->
<g id="node4" class="node"><title>Node3</title>
<g id="a_node4"><a xlink:href="api_2std__types_8h.html" target="_top" xlink:title="Standard C language types and definitions for ODP. ">
<polygon fill="white" stroke="black" points="168.26,-224.5 168.26,-243.5 278.26,-243.5 278.26,-224.5 168.26,-224.5"/>
<text text-anchor="middle" x="223.26" y="-231.5" font-family="Helvetica,sans-Serif" font-size="10.00">odp/api/std_types.h</text>
</a>
</g>
</g>
<!-- Node2&#45;&gt;Node3 -->
<g id="edge3" class="edge"><title>Node2&#45;&gt;Node3</title>
<path fill="none" stroke="midnightblue" d="M223.26,-280.083C223.26,-273.006 223.26,-262.861 223.26,-253.986"/>
<polygon fill="midnightblue" stroke="midnightblue" points="226.76,-253.751 223.26,-243.751 219.76,-253.751 226.76,-253.751"/>
</g>
<!-- Node11 -->
<g id="node12" class="node"><title>Node11</title>
<polygon fill="white" stroke="#bfbfbf" points="296.76,-224.5 296.76,-243.5 399.76,-243.5 399.76,-224.5 296.76,-224.5"/>
<text text-anchor="middle" x="348.26" y="-231.5" font-family="Helvetica,sans-Serif" font-size="10.00">odp/api/abi/time.h</text>
</g>
<!-- Node2&#45;&gt;Node11 -->
<g id="edge14" class="edge"><title>Node2&#45;&gt;Node11</title>
<path fill="none" stroke="midnightblue" d="M243.066,-280.444C263.546,-271.596 295.742,-257.687 319.124,-247.586"/>
<polygon fill="midnightblue" stroke="midnightblue" points="320.754,-250.695 328.546,-243.516 317.978,-244.269 320.754,-250.695"/>
</g>
<!-- Node12 -->
<g id="node13" class="node"><title>Node12</title>
<g id="a_node13"><a xlink:href="api_2spec_2time_8h.html" target="_top" xlink:title="ODP time. ">
<polygon fill="white" stroke="black" points="28.7596,-56.5 28.7596,-75.5 139.76,-75.5 139.76,-56.5 28.7596,-56.5"/>
<text text-anchor="middle" x="84.2596" y="-63.5" font-family="Helvetica,sans-Serif" font-size="10.00">odp/api/spec/time.h</text>
</a>
</g>
</g>
<!-- Node2&#45;&gt;Node12 -->
<g id="edge15" class="edge"><title>Node2&#45;&gt;Node12</title>
<path fill="none" stroke="midnightblue" d="M206.013,-280.396C191.833,-272.576 172.061,-259.85 159.26,-244 119.131,-194.314 97.0871,-120.004 88.514,-85.6489"/>
<polygon fill="midnightblue" stroke="midnightblue" points="91.8463,-84.5346 86.1164,-75.6229 85.0383,-86.1628 91.8463,-84.5346"/>
</g>
<!-- Node4 -->
<g id="node5" class="node"><title>Node4</title>
<polygon fill="white" stroke="#bfbfbf" points="309.26,-168.5 309.26,-187.5 437.26,-187.5 437.26,-168.5 309.26,-168.5"/>
<text text-anchor="middle" x="373.26" y="-175.5" font-family="Helvetica,sans-Serif" font-size="10.00">odp/api/abi/std_types.h</text>
</g>
<!-- Node3&#45;&gt;Node4 -->
<g id="edge4" class="edge"><title>Node3&#45;&gt;Node4</title>
<path fill="none" stroke="midnightblue" d="M247.028,-224.444C272.152,-215.399 311.971,-201.064 340.16,-190.916"/>
<polygon fill="midnightblue" stroke="midnightblue" points="341.38,-194.197 349.603,-187.516 339.008,-187.611 341.38,-194.197"/>
</g>
<!-- Node5 -->
<g id="node6" class="node"><title>Node5</title>
<g id="a_node6"><a xlink:href="api_2spec_2std__types_8h.html" target="_top" xlink:title="Standard C language types and definitions for ODP. ">
<polygon fill="white" stroke="black" points="155.26,-168.5 155.26,-187.5 291.26,-187.5 291.26,-168.5 155.26,-168.5"/>
<text text-anchor="middle" x="223.26" y="-175.5" font-family="Helvetica,sans-Serif" font-size="10.00">odp/api/spec/std_types.h</text>
</a>
</g>
</g>
<!-- Node3&#45;&gt;Node5 -->
<g id="edge5" class="edge"><title>Node3&#45;&gt;Node5</title>
<path fill="none" stroke="midnightblue" d="M223.26,-224.083C223.26,-217.006 223.26,-206.861 223.26,-197.986"/>
<polygon fill="midnightblue" stroke="midnightblue" points="226.76,-197.751 223.26,-187.751 219.76,-197.751 226.76,-197.751"/>
</g>
<!-- Node5&#45;&gt;Node1 -->
<g id="edge6" class="edge"><title>Node5&#45;&gt;Node1</title>
<path fill="none" stroke="midnightblue" d="M215.518,-168.444C207.809,-159.68 195.909,-145.47 187.26,-132 181.207,-122.574 150.393,-60.193 135.015,-28.874"/>
<polygon fill="midnightblue" stroke="midnightblue" points="137.995,-27.002 130.449,-19.5649 131.71,-30.0844 137.995,-27.002"/>
</g>
<!-- Node6 -->
<g id="node7" class="node"><title>Node6</title>
<polygon fill="white" stroke="#bfbfbf" points="196.76,-112.5 196.76,-131.5 249.76,-131.5 249.76,-112.5 196.76,-112.5"/>
<text text-anchor="middle" x="223.26" y="-119.5" font-family="Helvetica,sans-Serif" font-size="10.00">stdint.h</text>
</g>
<!-- Node5&#45;&gt;Node6 -->
<g id="edge7" class="edge"><title>Node5&#45;&gt;Node6</title>
<path fill="none" stroke="midnightblue" d="M223.26,-168.083C223.26,-161.006 223.26,-150.861 223.26,-141.986"/>
<polygon fill="midnightblue" stroke="midnightblue" points="226.76,-141.751 223.26,-131.751 219.76,-141.751 226.76,-141.751"/>
</g>
<!-- Node7 -->
<g id="node8" class="node"><title>Node7</title>
<g id="a_node8"><a xlink:href="api_2align_8h.html" target="_top" xlink:title="ODP alignments. ">
<polygon fill="white" stroke="black" points="268.26,-112.5 268.26,-131.5 354.26,-131.5 354.26,-112.5 268.26,-112.5"/>
<text text-anchor="middle" x="311.26" y="-119.5" font-family="Helvetica,sans-Serif" font-size="10.00">odp/api/align.h</text>
</a>
</g>
</g>
<!-- Node5&#45;&gt;Node7 -->
<g id="edge8" class="edge"><title>Node5&#45;&gt;Node7</title>
<path fill="none" stroke="midnightblue" d="M237.398,-168.324C251.126,-159.9 272.196,-146.971 288.324,-137.074"/>
<polygon fill="midnightblue" stroke="midnightblue" points="290.463,-139.868 297.156,-131.655 286.802,-133.902 290.463,-139.868"/>
</g>
<!-- Node5&#45;&gt;Node10 -->
<g id="edge13" class="edge"><title>Node5&#45;&gt;Node10</title>
<path fill="none" stroke="midnightblue" d="M286.669,-168.452C339.587,-157.402 410.788,-132.346 439.26,-76 451.534,-51.7087 421.732,-33.821 394.292,-23.0276"/>
<polygon fill="midnightblue" stroke="midnightblue" points="395.351,-19.6876 384.757,-19.5068 392.926,-26.2542 395.351,-19.6876"/>
</g>
<!-- Node8 -->
<g id="node9" class="node"><title>Node8</title>
<polygon fill="white" stroke="#bfbfbf" points="326.26,-56.5 326.26,-75.5 430.26,-75.5 430.26,-56.5 326.26,-56.5"/>
<text text-anchor="middle" x="378.26" y="-63.5" font-family="Helvetica,sans-Serif" font-size="10.00">odp/api/abi/align.h</text>
</g>
<!-- Node7&#45;&gt;Node8 -->
<g id="edge9" class="edge"><title>Node7&#45;&gt;Node8</title>
<path fill="none" stroke="midnightblue" d="M322.024,-112.324C332.026,-104.263 347.146,-92.0765 359.19,-82.3695"/>
<polygon fill="midnightblue" stroke="midnightblue" points="361.709,-84.8343 367.299,-75.8339 357.317,-79.3841 361.709,-84.8343"/>
</g>
<!-- Node9 -->
<g id="node10" class="node"><title>Node9</title>
<g id="a_node10"><a xlink:href="api_2spec_2align_8h.html" target="_top" xlink:title="ODP alignments. ">
<polygon fill="white" stroke="black" points="196.26,-56.5 196.26,-75.5 308.26,-75.5 308.26,-56.5 196.26,-56.5"/>
<text text-anchor="middle" x="252.26" y="-63.5" font-family="Helvetica,sans-Serif" font-size="10.00">odp/api/spec/align.h</text>
</a>
</g>
</g>
<!-- Node7&#45;&gt;Node9 -->
<g id="edge10" class="edge"><title>Node7&#45;&gt;Node9</title>
<path fill="none" stroke="midnightblue" d="M301.78,-112.324C293.059,-104.341 279.916,-92.3128 269.362,-82.6529"/>
<polygon fill="midnightblue" stroke="midnightblue" points="271.651,-80.0036 261.911,-75.8339 266.925,-85.1674 271.651,-80.0036"/>
</g>
<!-- Node9&#45;&gt;Node1 -->
<g id="edge11" class="edge"><title>Node9&#45;&gt;Node1</title>
<path fill="none" stroke="midnightblue" d="M232.295,-56.4435C211.65,-47.5961 179.197,-33.6875 155.628,-23.5865"/>
<polygon fill="midnightblue" stroke="midnightblue" points="156.701,-20.2387 146.131,-19.5164 153.944,-26.6727 156.701,-20.2387"/>
</g>
<!-- Node9&#45;&gt;Node10 -->
<g id="edge12" class="edge"><title>Node9&#45;&gt;Node10</title>
<path fill="none" stroke="midnightblue" d="M268.808,-56.324C285.251,-47.7034 310.694,-34.3643 329.728,-24.3855"/>
<polygon fill="midnightblue" stroke="midnightblue" points="331.52,-27.3977 338.752,-19.6545 328.27,-21.198 331.52,-27.3977"/>
</g>
<!-- Node12&#45;&gt;Node1 -->
<g id="edge16" class="edge"><title>Node12&#45;&gt;Node1</title>
<path fill="none" stroke="midnightblue" d="M91.1951,-56.083C97.1888,-48.3768 106.011,-37.0333 113.307,-27.6531"/>
<polygon fill="midnightblue" stroke="midnightblue" points="116.077,-29.7934 119.453,-19.7511 110.551,-25.4958 116.077,-29.7934"/>
</g>
<!-- Node12&#45;&gt;Node10 -->
<g id="edge17" class="edge"><title>Node12&#45;&gt;Node10</title>
<path fill="none" stroke="midnightblue" d="M127.2,-56.4435C174.773,-46.9641 251.503,-31.6747 302.648,-21.4835"/>
<polygon fill="midnightblue" stroke="midnightblue" points="303.397,-24.9032 312.52,-19.5164 302.029,-18.0382 303.397,-24.9032"/>
</g>
</g>
</svg>
