<?xml version="1.0" encoding="UTF-8" standalone="no"?>
<!DOCTYPE svg PUBLIC "-//W3C//DTD SVG 1.1//EN"
 "http://www.w3.org/Graphics/SVG/1.1/DTD/svg11.dtd">
<!-- Generated by graphviz version 2.38.0 (20140413.2041)
 -->
<!-- Title: barrier.h Pages: 1 -->
<svg width="955pt" height="319pt"
 viewBox="0.00 0.00 955.00 319.00" xmlns="http://www.w3.org/2000/svg" xmlns:xlink="http://www.w3.org/1999/xlink">
<g id="graph0" class="graph" transform="scale(1 1) rotate(0) translate(4 315)">
<title>barrier.h</title>
<polygon fill="white" stroke="none" points="-4,4 -4,-315 951,-315 951,4 -4,4"/>
<!-- Node0 -->
<g id="node1" class="node"><title>Node0</title>
<polygon fill="#bfbfbf" stroke="black" points="655,-291.5 655,-310.5 711,-310.5 711,-291.5 655,-291.5"/>
<text text-anchor="middle" x="683" y="-298.5" font-family="Helvetica,sans-Serif" font-size="10.00">barrier.h</text>
</g>
<!-- Node1 -->
<g id="node2" class="node"><title>Node1</title>
<g id="a_node2"><a xlink:href="api_2std__types_8h.html" target="_top" xlink:title="Standard C language types and definitions for ODP. ">
<polygon fill="white" stroke="black" points="159,-230 159,-249 269,-249 269,-230 159,-230"/>
<text text-anchor="middle" x="214" y="-237" font-family="Helvetica,sans-Serif" font-size="10.00">odp/api/std_types.h</text>
</a>
</g>
</g>
<!-- Node0&#45;&gt;Node1 -->
<g id="edge1" class="edge"><title>Node0&#45;&gt;Node1</title>
<path fill="none" stroke="midnightblue" d="M654.718,-296.412C581.312,-287.099 383.214,-261.967 279.434,-248.801"/>
<polygon fill="midnightblue" stroke="midnightblue" points="279.749,-245.313 269.388,-247.527 278.868,-252.258 279.749,-245.313"/>
</g>
<!-- Node10 -->
<g id="node11" class="node"><title>Node10</title>
<g id="a_node11"><a xlink:href="api_2atomic_8h.html" target="_top" xlink:title="ODP atomic operations. ">
<polygon fill="white" stroke="black" points="436.5,-112.5 436.5,-131.5 533.5,-131.5 533.5,-112.5 436.5,-112.5"/>
<text text-anchor="middle" x="485" y="-119.5" font-family="Helvetica,sans-Serif" font-size="10.00">odp/api/atomic.h</text>
</a>
</g>
</g>
<!-- Node0&#45;&gt;Node10 -->
<g id="edge12" class="edge"><title>Node0&#45;&gt;Node10</title>
<path fill="none" stroke="midnightblue" d="M673.45,-291.463C642.23,-263.554 542.874,-174.736 502.405,-138.559"/>
<polygon fill="midnightblue" stroke="midnightblue" points="504.709,-135.924 494.921,-131.868 500.043,-141.142 504.709,-135.924"/>
</g>
<!-- Node13 -->
<g id="node14" class="node"><title>Node13</title>
<polygon fill="white" stroke="#bfbfbf" points="711.5,-224.5 711.5,-254.5 816.5,-254.5 816.5,-224.5 711.5,-224.5"/>
<text text-anchor="start" x="719.5" y="-242.5" font-family="Helvetica,sans-Serif" font-size="10.00">odp/api/abi/shared</text>
<text text-anchor="middle" x="764" y="-231.5" font-family="Helvetica,sans-Serif" font-size="10.00">_memory.h</text>
</g>
<!-- Node0&#45;&gt;Node13 -->
<g id="edge17" class="edge"><title>Node0&#45;&gt;Node13</title>
<path fill="none" stroke="midnightblue" d="M694.605,-291.475C705.576,-283.417 722.448,-271.023 736.808,-260.474"/>
<polygon fill="midnightblue" stroke="midnightblue" points="738.923,-263.264 744.91,-254.523 734.779,-257.622 738.923,-263.264"/>
</g>
<!-- Node14 -->
<g id="node15" class="node"><title>Node14</title>
<polygon fill="white" stroke="#bfbfbf" points="835,-230 835,-249 947,-249 947,-230 835,-230"/>
<text text-anchor="middle" x="891" y="-237" font-family="Helvetica,sans-Serif" font-size="10.00">odp/api/abi/barrier.h</text>
</g>
<!-- Node0&#45;&gt;Node14 -->
<g id="edge18" class="edge"><title>Node0&#45;&gt;Node14</title>
<path fill="none" stroke="midnightblue" d="M711.052,-291.976C747.214,-281.631 810.313,-263.581 851.364,-251.838"/>
<polygon fill="midnightblue" stroke="midnightblue" points="852.389,-255.185 861.041,-249.07 850.464,-248.455 852.389,-255.185"/>
</g>
<!-- Node15 -->
<g id="node16" class="node"><title>Node15</title>
<g id="a_node16"><a xlink:href="api_2spec_2barrier_8h.html" target="_top" xlink:title="ODP execution barriers. ">
<polygon fill="white" stroke="black" points="560,-56.5 560,-75.5 680,-75.5 680,-56.5 560,-56.5"/>
<text text-anchor="middle" x="620" y="-63.5" font-family="Helvetica,sans-Serif" font-size="10.00">odp/api/spec/barrier.h</text>
</a>
</g>
</g>
<!-- Node0&#45;&gt;Node15 -->
<g id="edge19" class="edge"><title>Node0&#45;&gt;Node15</title>
<path fill="none" stroke="midnightblue" d="M680.683,-291.431C671.558,-257.683 637.973,-133.47 625.083,-85.7991"/>
<polygon fill="midnightblue" stroke="midnightblue" points="628.394,-84.6355 622.405,-75.8958 621.637,-86.4627 628.394,-84.6355"/>
</g>
<!-- Node2 -->
<g id="node3" class="node"><title>Node2</title>
<polygon fill="white" stroke="#bfbfbf" points="0,-168.5 0,-187.5 128,-187.5 128,-168.5 0,-168.5"/>
<text text-anchor="middle" x="64" y="-175.5" font-family="Helvetica,sans-Serif" font-size="10.00">odp/api/abi/std_types.h</text>
</g>
<!-- Node1&#45;&gt;Node2 -->
<g id="edge2" class="edge"><title>Node1&#45;&gt;Node2</title>
<path fill="none" stroke="midnightblue" d="M192.509,-229.975C166.89,-219.813 123.89,-202.756 94.7553,-191.2"/>
<polygon fill="midnightblue" stroke="midnightblue" points="96.0374,-187.943 85.4515,-187.509 93.4564,-194.45 96.0374,-187.943"/>
</g>
<!-- Node3 -->
<g id="node4" class="node"><title>Node3</title>
<g id="a_node4"><a xlink:href="api_2spec_2std__types_8h.html" target="_top" xlink:title="Standard C language types and definitions for ODP. ">
<polygon fill="white" stroke="black" points="146,-168.5 146,-187.5 282,-187.5 282,-168.5 146,-168.5"/>
<text text-anchor="middle" x="214" y="-175.5" font-family="Helvetica,sans-Serif" font-size="10.00">odp/api/spec/std_types.h</text>
</a>
</g>
</g>
<!-- Node1&#45;&gt;Node3 -->
<g id="edge3" class="edge"><title>Node1&#45;&gt;Node3</title>
<path fill="none" stroke="midnightblue" d="M214,-229.975C214,-221.58 214,-208.481 214,-197.663"/>
<polygon fill="midnightblue" stroke="midnightblue" points="217.5,-197.509 214,-187.509 210.5,-197.509 217.5,-197.509"/>
</g>
<!-- Node4 -->
<g id="node5" class="node"><title>Node4</title>
<g id="a_node5"><a xlink:href="visibility__begin_8h_source.html" target="_top" xlink:title="odp/visibility_begin.h">
<polygon fill="white" stroke="black" points="426.5,-0.5 426.5,-19.5 541.5,-19.5 541.5,-0.5 426.5,-0.5"/>
<text text-anchor="middle" x="484" y="-7.5" font-family="Helvetica,sans-Serif" font-size="10.00">odp/visibility_begin.h</text>
</a>
</g>
</g>
<!-- Node3&#45;&gt;Node4 -->
<g id="edge4" class="edge"><title>Node3&#45;&gt;Node4</title>
<path fill="none" stroke="midnightblue" d="M282.44,-173.544C402.691,-165.791 643.506,-142.175 689,-76 724.706,-24.0619 624.182,-12.3575 551.567,-10.4095"/>
<polygon fill="midnightblue" stroke="midnightblue" points="551.595,-6.90942 541.523,-10.1962 551.446,-13.9078 551.595,-6.90942"/>
</g>
<!-- Node5 -->
<g id="node6" class="node"><title>Node5</title>
<polygon fill="white" stroke="#bfbfbf" points="99.5,-112.5 99.5,-131.5 152.5,-131.5 152.5,-112.5 99.5,-112.5"/>
<text text-anchor="middle" x="126" y="-119.5" font-family="Helvetica,sans-Serif" font-size="10.00">stdint.h</text>
</g>
<!-- Node3&#45;&gt;Node5 -->
<g id="edge5" class="edge"><title>Node3&#45;&gt;Node5</title>
<path fill="none" stroke="midnightblue" d="M199.861,-168.324C186.134,-159.9 165.064,-146.971 148.936,-137.074"/>
<polygon fill="midnightblue" stroke="midnightblue" points="150.457,-133.902 140.104,-131.655 146.796,-139.868 150.457,-133.902"/>
</g>
<!-- Node6 -->
<g id="node7" class="node"><title>Node6</title>
<g id="a_node7"><a xlink:href="api_2align_8h.html" target="_top" xlink:title="ODP alignments. ">
<polygon fill="white" stroke="black" points="171,-112.5 171,-131.5 257,-131.5 257,-112.5 171,-112.5"/>
<text text-anchor="middle" x="214" y="-119.5" font-family="Helvetica,sans-Serif" font-size="10.00">odp/api/align.h</text>
</a>
</g>
</g>
<!-- Node3&#45;&gt;Node6 -->
<g id="edge6" class="edge"><title>Node3&#45;&gt;Node6</title>
<path fill="none" stroke="midnightblue" d="M214,-168.083C214,-161.006 214,-150.861 214,-141.986"/>
<polygon fill="midnightblue" stroke="midnightblue" points="217.5,-141.751 214,-131.751 210.5,-141.751 217.5,-141.751"/>
</g>
<!-- Node9 -->
<g id="node10" class="node"><title>Node9</title>
<g id="a_node10"><a xlink:href="visibility__end_8h_source.html" target="_top" xlink:title="odp/visibility_end.h">
<polygon fill="white" stroke="black" points="227.5,-0.5 227.5,-19.5 334.5,-19.5 334.5,-0.5 227.5,-0.5"/>
<text text-anchor="middle" x="281" y="-7.5" font-family="Helvetica,sans-Serif" font-size="10.00">odp/visibility_end.h</text>
</a>
</g>
</g>
<!-- Node3&#45;&gt;Node9 -->
<g id="edge11" class="edge"><title>Node3&#45;&gt;Node9</title>
<path fill="none" stroke="midnightblue" d="M174.511,-168.441C106.665,-151.993 -20.3897,-112.523 27,-56 50.8099,-27.601 149.996,-17.1136 217.145,-13.2478"/>
<polygon fill="midnightblue" stroke="midnightblue" points="217.422,-16.7381 227.219,-12.7033 217.044,-9.74827 217.422,-16.7381"/>
</g>
<!-- Node7 -->
<g id="node8" class="node"><title>Node7</title>
<polygon fill="white" stroke="#bfbfbf" points="36,-56.5 36,-75.5 140,-75.5 140,-56.5 36,-56.5"/>
<text text-anchor="middle" x="88" y="-63.5" font-family="Helvetica,sans-Serif" font-size="10.00">odp/api/abi/align.h</text>
</g>
<!-- Node6&#45;&gt;Node7 -->
<g id="edge7" class="edge"><title>Node6&#45;&gt;Node7</title>
<path fill="none" stroke="midnightblue" d="M194.035,-112.444C173.391,-103.596 140.937,-89.6875 117.368,-79.5865"/>
<polygon fill="midnightblue" stroke="midnightblue" points="118.442,-76.2387 107.872,-75.5164 115.684,-82.6727 118.442,-76.2387"/>
</g>
<!-- Node8 -->
<g id="node9" class="node"><title>Node8</title>
<g id="a_node9"><a xlink:href="api_2spec_2align_8h.html" target="_top" xlink:title="ODP alignments. ">
<polygon fill="white" stroke="black" points="158,-56.5 158,-75.5 270,-75.5 270,-56.5 158,-56.5"/>
<text text-anchor="middle" x="214" y="-63.5" font-family="Helvetica,sans-Serif" font-size="10.00">odp/api/spec/align.h</text>
</a>
</g>
</g>
<!-- Node6&#45;&gt;Node8 -->
<g id="edge8" class="edge"><title>Node6&#45;&gt;Node8</title>
<path fill="none" stroke="midnightblue" d="M214,-112.083C214,-105.006 214,-94.8611 214,-85.9865"/>
<polygon fill="midnightblue" stroke="midnightblue" points="217.5,-85.751 214,-75.7511 210.5,-85.7511 217.5,-85.751"/>
</g>
<!-- Node8&#45;&gt;Node4 -->
<g id="edge9" class="edge"><title>Node8&#45;&gt;Node4</title>
<path fill="none" stroke="midnightblue" d="M256.782,-56.4435C304.179,-46.9641 380.626,-31.6747 431.583,-21.4835"/>
<polygon fill="midnightblue" stroke="midnightblue" points="432.298,-24.9097 441.418,-19.5164 430.926,-18.0456 432.298,-24.9097"/>
</g>
<!-- Node8&#45;&gt;Node9 -->
<g id="edge10" class="edge"><title>Node8&#45;&gt;Node9</title>
<path fill="none" stroke="midnightblue" d="M224.765,-56.324C234.766,-48.2631 249.887,-36.0765 261.93,-26.3695"/>
<polygon fill="midnightblue" stroke="midnightblue" points="264.45,-28.8343 270.039,-19.8339 260.057,-23.3841 264.45,-28.8343"/>
</g>
<!-- Node11 -->
<g id="node12" class="node"><title>Node11</title>
<polygon fill="white" stroke="#bfbfbf" points="428,-56.5 428,-75.5 542,-75.5 542,-56.5 428,-56.5"/>
<text text-anchor="middle" x="485" y="-63.5" font-family="Helvetica,sans-Serif" font-size="10.00">odp/api/abi/atomic.h</text>
</g>
<!-- Node10&#45;&gt;Node11 -->
<g id="edge13" class="edge"><title>Node10&#45;&gt;Node11</title>
<path fill="none" stroke="midnightblue" d="M485,-112.083C485,-105.006 485,-94.8611 485,-85.9865"/>
<polygon fill="midnightblue" stroke="midnightblue" points="488.5,-85.751 485,-75.7511 481.5,-85.7511 488.5,-85.751"/>
</g>
<!-- Node12 -->
<g id="node13" class="node"><title>Node12</title>
<g id="a_node13"><a xlink:href="api_2spec_2atomic_8h.html" target="_top" xlink:title="ODP atomic operations. ">
<polygon fill="white" stroke="black" points="288,-56.5 288,-75.5 410,-75.5 410,-56.5 288,-56.5"/>
<text text-anchor="middle" x="349" y="-63.5" font-family="Helvetica,sans-Serif" font-size="10.00">odp/api/spec/atomic.h</text>
</a>
</g>
</g>
<!-- Node10&#45;&gt;Node12 -->
<g id="edge14" class="edge"><title>Node10&#45;&gt;Node12</title>
<path fill="none" stroke="midnightblue" d="M463.45,-112.444C440.969,-103.517 405.512,-89.4387 380.02,-79.3168"/>
<polygon fill="midnightblue" stroke="midnightblue" points="381.035,-75.9539 370.449,-75.5164 378.451,-82.4598 381.035,-75.9539"/>
</g>
<!-- Node12&#45;&gt;Node4 -->
<g id="edge15" class="edge"><title>Node12&#45;&gt;Node4</title>
<path fill="none" stroke="midnightblue" d="M370.391,-56.4435C392.707,-47.5171 427.903,-33.4387 453.208,-23.3168"/>
<polygon fill="midnightblue" stroke="midnightblue" points="454.724,-26.4801 462.709,-19.5164 452.124,-19.9807 454.724,-26.4801"/>
</g>
<!-- Node12&#45;&gt;Node9 -->
<g id="edge16" class="edge"><title>Node12&#45;&gt;Node9</title>
<path fill="none" stroke="midnightblue" d="M338.075,-56.324C327.825,-48.1849 312.279,-35.8395 299.999,-26.0874"/>
<polygon fill="midnightblue" stroke="midnightblue" points="302.132,-23.3119 292.124,-19.8339 297.779,-28.7937 302.132,-23.3119"/>
</g>
<!-- Node15&#45;&gt;Node4 -->
<g id="edge20" class="edge"><title>Node15&#45;&gt;Node4</title>
<path fill="none" stroke="midnightblue" d="M598.45,-56.4435C575.969,-47.5171 540.512,-33.4387 515.02,-23.3168"/>
<polygon fill="midnightblue" stroke="midnightblue" points="516.035,-19.9539 505.449,-19.5164 513.451,-26.4598 516.035,-19.9539"/>
</g>
<!-- Node15&#45;&gt;Node9 -->
<g id="edge21" class="edge"><title>Node15&#45;&gt;Node9</title>
<path fill="none" stroke="midnightblue" d="M566.284,-56.4435C506.031,-46.8456 408.386,-31.2916 344.429,-21.1037"/>
<polygon fill="midnightblue" stroke="midnightblue" points="344.89,-17.6332 334.464,-19.5164 343.789,-24.546 344.89,-17.6332"/>
</g>
</g>
</svg>
