<?xml version="1.0" encoding="UTF-8" standalone="no"?>
<!DOCTYPE svg PUBLIC "-//W3C//DTD SVG 1.1//EN"
 "http://www.w3.org/Graphics/SVG/1.1/DTD/svg11.dtd">
<!-- Generated by graphviz version 2.38.0 (20140413.2041)
 -->
<!-- Title: packet.h Pages: 1 -->
<svg width="1201pt" height="420pt"
 viewBox="0.00 0.00 1200.76 420.00" xmlns="http://www.w3.org/2000/svg" xmlns:xlink="http://www.w3.org/1999/xlink">
<g id="graph0" class="graph" transform="scale(1 1) rotate(0) translate(4 416)">
<title>packet.h</title>
<polygon fill="white" stroke="none" points="-4,4 -4,-416 1196.76,-416 1196.76,4 -4,4"/>
<!-- Node0 -->
<g id="node1" class="node"><title>Node0</title>
<polygon fill="#bfbfbf" stroke="black" points="723.26,-392.5 723.26,-411.5 781.26,-411.5 781.26,-392.5 723.26,-392.5"/>
<text text-anchor="middle" x="752.26" y="-399.5" font-family="Helvetica,sans-Serif" font-size="10.00">packet.h</text>
</g>
<!-- Node1 -->
<g id="node2" class="node"><title>Node1</title>
<g id="a_node2"><a xlink:href="api_2std__types_8h.html" target="_top" xlink:title="Standard C language types and definitions for ODP. ">
<polygon fill="white" stroke="black" points="345.26,-224.5 345.26,-243.5 455.26,-243.5 455.26,-224.5 345.26,-224.5"/>
<text text-anchor="middle" x="400.26" y="-231.5" font-family="Helvetica,sans-Serif" font-size="10.00">odp/api/std_types.h</text>
</a>
</g>
</g>
<!-- Node0&#45;&gt;Node1 -->
<g id="edge1" class="edge"><title>Node0&#45;&gt;Node1</title>
<path fill="none" stroke="midnightblue" d="M722.925,-398.474C682.889,-394.132 609.668,-382.954 553.26,-356 496.215,-328.742 441.004,-276.892 415.289,-250.813"/>
<polygon fill="midnightblue" stroke="midnightblue" points="417.764,-248.337 408.286,-243.602 412.742,-253.214 417.764,-248.337"/>
</g>
<!-- Node10 -->
<g id="node11" class="node"><title>Node10</title>
<polygon fill="white" stroke="#bfbfbf" points="562.26,-336.5 562.26,-355.5 670.26,-355.5 670.26,-336.5 562.26,-336.5"/>
<text text-anchor="middle" x="616.26" y="-343.5" font-family="Helvetica,sans-Serif" font-size="10.00">odp/api/abi/event.h</text>
</g>
<!-- Node0&#45;&gt;Node10 -->
<g id="edge12" class="edge"><title>Node0&#45;&gt;Node10</title>
<path fill="none" stroke="midnightblue" d="M730.71,-392.444C708.229,-383.517 672.772,-369.439 647.28,-359.317"/>
<polygon fill="midnightblue" stroke="midnightblue" points="648.294,-355.954 637.708,-355.516 645.711,-362.46 648.294,-355.954"/>
</g>
<!-- Node11 -->
<g id="node12" class="node"><title>Node11</title>
<polygon fill="white" stroke="#bfbfbf" points="688.76,-336.5 688.76,-355.5 815.76,-355.5 815.76,-336.5 688.76,-336.5"/>
<text text-anchor="middle" x="752.26" y="-343.5" font-family="Helvetica,sans-Serif" font-size="10.00">odp/api/abi/packet_io.h</text>
</g>
<!-- Node0&#45;&gt;Node11 -->
<g id="edge13" class="edge"><title>Node0&#45;&gt;Node11</title>
<path fill="none" stroke="midnightblue" d="M752.26,-392.083C752.26,-385.006 752.26,-374.861 752.26,-365.986"/>
<polygon fill="midnightblue" stroke="midnightblue" points="755.76,-365.751 752.26,-355.751 748.76,-365.751 755.76,-365.751"/>
</g>
<!-- Node12 -->
<g id="node13" class="node"><title>Node12</title>
<polygon fill="white" stroke="#bfbfbf" points="833.76,-336.5 833.76,-355.5 946.76,-355.5 946.76,-336.5 833.76,-336.5"/>
<text text-anchor="middle" x="890.26" y="-343.5" font-family="Helvetica,sans-Serif" font-size="10.00">odp/api/abi/packet.h</text>
</g>
<!-- Node0&#45;&gt;Node12 -->
<g id="edge14" class="edge"><title>Node0&#45;&gt;Node12</title>
<path fill="none" stroke="midnightblue" d="M774.126,-392.444C797.039,-383.478 833.235,-369.314 859.126,-359.183"/>
<polygon fill="midnightblue" stroke="midnightblue" points="860.458,-362.42 868.495,-355.516 857.908,-355.901 860.458,-362.42"/>
</g>
<!-- Node13 -->
<g id="node14" class="node"><title>Node13</title>
<polygon fill="white" stroke="#bfbfbf" points="965.26,-336.5 965.26,-355.5 1073.26,-355.5 1073.26,-336.5 965.26,-336.5"/>
<text text-anchor="middle" x="1019.26" y="-343.5" font-family="Helvetica,sans-Serif" font-size="10.00">odp/api/abi/buffer.h</text>
</g>
<!-- Node0&#45;&gt;Node13 -->
<g id="edge15" class="edge"><title>Node0&#45;&gt;Node13</title>
<path fill="none" stroke="midnightblue" d="M781.342,-395.118C825.875,-386.112 911.622,-368.769 967.095,-357.55"/>
<polygon fill="midnightblue" stroke="midnightblue" points="967.976,-360.943 977.084,-355.53 966.589,-354.082 967.976,-360.943"/>
</g>
<!-- Node14 -->
<g id="node15" class="node"><title>Node14</title>
<polygon fill="white" stroke="#bfbfbf" points="1091.76,-336.5 1091.76,-355.5 1192.76,-355.5 1192.76,-336.5 1091.76,-336.5"/>
<text text-anchor="middle" x="1142.26" y="-343.5" font-family="Helvetica,sans-Serif" font-size="10.00">odp/api/abi/pool.h</text>
</g>
<!-- Node0&#45;&gt;Node14 -->
<g id="edge16" class="edge"><title>Node0&#45;&gt;Node14</title>
<path fill="none" stroke="midnightblue" d="M781.413,-397.158C837.331,-389.759 963.786,-372.89 1081.28,-356.124"/>
<polygon fill="midnightblue" stroke="midnightblue" points="1082.12,-359.539 1091.53,-354.658 1081.13,-352.609 1082.12,-359.539"/>
</g>
<!-- Node15 -->
<g id="node16" class="node"><title>Node15</title>
<g id="a_node16"><a xlink:href="api_2spec_2packet_8h.html" target="_top" xlink:title="ODP packet descriptor. ">
<polygon fill="white" stroke="black" points="330.26,-336.5 330.26,-355.5 452.26,-355.5 452.26,-336.5 330.26,-336.5"/>
<text text-anchor="middle" x="391.26" y="-343.5" font-family="Helvetica,sans-Serif" font-size="10.00">odp/api/spec/packet.h</text>
</a>
</g>
</g>
<!-- Node0&#45;&gt;Node15 -->
<g id="edge17" class="edge"><title>Node0&#45;&gt;Node15</title>
<path fill="none" stroke="midnightblue" d="M723.023,-396.627C665.835,-388.072 537.85,-368.928 458.613,-357.075"/>
<polygon fill="midnightblue" stroke="midnightblue" points="458.654,-353.542 448.246,-355.524 457.619,-360.465 458.654,-353.542"/>
</g>
<!-- Node2 -->
<g id="node3" class="node"><title>Node2</title>
<polygon fill="white" stroke="#bfbfbf" points="186.26,-168.5 186.26,-187.5 314.26,-187.5 314.26,-168.5 186.26,-168.5"/>
<text text-anchor="middle" x="250.26" y="-175.5" font-family="Helvetica,sans-Serif" font-size="10.00">odp/api/abi/std_types.h</text>
</g>
<!-- Node1&#45;&gt;Node2 -->
<g id="edge2" class="edge"><title>Node1&#45;&gt;Node2</title>
<path fill="none" stroke="midnightblue" d="M376.492,-224.444C351.367,-215.399 311.549,-201.064 283.359,-190.916"/>
<polygon fill="midnightblue" stroke="midnightblue" points="284.511,-187.611 273.916,-187.516 282.14,-194.197 284.511,-187.611"/>
</g>
<!-- Node3 -->
<g id="node4" class="node"><title>Node3</title>
<g id="a_node4"><a xlink:href="api_2spec_2std__types_8h.html" target="_top" xlink:title="Standard C language types and definitions for ODP. ">
<polygon fill="white" stroke="black" points="332.26,-168.5 332.26,-187.5 468.26,-187.5 468.26,-168.5 332.26,-168.5"/>
<text text-anchor="middle" x="400.26" y="-175.5" font-family="Helvetica,sans-Serif" font-size="10.00">odp/api/spec/std_types.h</text>
</a>
</g>
</g>
<!-- Node1&#45;&gt;Node3 -->
<g id="edge3" class="edge"><title>Node1&#45;&gt;Node3</title>
<path fill="none" stroke="midnightblue" d="M400.26,-224.083C400.26,-217.006 400.26,-206.861 400.26,-197.986"/>
<polygon fill="midnightblue" stroke="midnightblue" points="403.76,-197.751 400.26,-187.751 396.76,-197.751 403.76,-197.751"/>
</g>
<!-- Node4 -->
<g id="node5" class="node"><title>Node4</title>
<g id="a_node5"><a xlink:href="visibility__begin_8h_source.html" target="_top" xlink:title="odp/visibility_begin.h">
<polygon fill="white" stroke="black" points="68.7596,-0.5 68.7596,-19.5 183.76,-19.5 183.76,-0.5 68.7596,-0.5"/>
<text text-anchor="middle" x="126.26" y="-7.5" font-family="Helvetica,sans-Serif" font-size="10.00">odp/visibility_begin.h</text>
</a>
</g>
</g>
<!-- Node3&#45;&gt;Node4 -->
<g id="edge4" class="edge"><title>Node3&#45;&gt;Node4</title>
<path fill="none" stroke="midnightblue" d="M363.221,-168.442C334.663,-161.021 294.699,-148.818 262.26,-132 225.328,-112.853 218.28,-103.719 187.26,-76 170.058,-60.6292 152.207,-41.1206 140.295,-27.5042"/>
<polygon fill="midnightblue" stroke="midnightblue" points="142.891,-25.1553 133.704,-19.8772 137.594,-29.7321 142.891,-25.1553"/>
</g>
<!-- Node5 -->
<g id="node6" class="node"><title>Node5</title>
<polygon fill="white" stroke="#bfbfbf" points="375.76,-112.5 375.76,-131.5 428.76,-131.5 428.76,-112.5 375.76,-112.5"/>
<text text-anchor="middle" x="402.26" y="-119.5" font-family="Helvetica,sans-Serif" font-size="10.00">stdint.h</text>
</g>
<!-- Node3&#45;&gt;Node5 -->
<g id="edge5" class="edge"><title>Node3&#45;&gt;Node5</title>
<path fill="none" stroke="midnightblue" d="M400.59,-168.083C400.852,-161.006 401.228,-150.861 401.556,-141.986"/>
<polygon fill="midnightblue" stroke="midnightblue" points="405.063,-141.874 401.936,-131.751 398.068,-141.615 405.063,-141.874"/>
</g>
<!-- Node6 -->
<g id="node7" class="node"><title>Node6</title>
<g id="a_node7"><a xlink:href="api_2align_8h.html" target="_top" xlink:title="ODP alignments. ">
<polygon fill="white" stroke="black" points="271.26,-112.5 271.26,-131.5 357.26,-131.5 357.26,-112.5 271.26,-112.5"/>
<text text-anchor="middle" x="314.26" y="-119.5" font-family="Helvetica,sans-Serif" font-size="10.00">odp/api/align.h</text>
</a>
</g>
</g>
<!-- Node3&#45;&gt;Node6 -->
<g id="edge6" class="edge"><title>Node3&#45;&gt;Node6</title>
<path fill="none" stroke="midnightblue" d="M386.442,-168.324C373.027,-159.9 352.436,-146.971 336.674,-137.074"/>
<polygon fill="midnightblue" stroke="midnightblue" points="338.373,-134.008 328.043,-131.655 334.65,-139.936 338.373,-134.008"/>
</g>
<!-- Node9 -->
<g id="node10" class="node"><title>Node9</title>
<g id="a_node10"><a xlink:href="visibility__end_8h_source.html" target="_top" xlink:title="odp/visibility_end.h">
<polygon fill="white" stroke="black" points="301.76,-0.5 301.76,-19.5 408.76,-19.5 408.76,-0.5 301.76,-0.5"/>
<text text-anchor="middle" x="355.26" y="-7.5" font-family="Helvetica,sans-Serif" font-size="10.00">odp/visibility_end.h</text>
</a>
</g>
</g>
<!-- Node3&#45;&gt;Node9 -->
<g id="edge11" class="edge"><title>Node3&#45;&gt;Node9</title>
<path fill="none" stroke="midnightblue" d="M410.574,-168.199C419.475,-159.892 431.745,-146.567 437.26,-132 449.224,-100.399 456.617,-84.9903 439.26,-56 430.11,-40.7189 413.801,-30.332 397.972,-23.4255"/>
<polygon fill="midnightblue" stroke="midnightblue" points="398.832,-20.0012 388.246,-19.5623 396.248,-26.5068 398.832,-20.0012"/>
</g>
<!-- Node7 -->
<g id="node8" class="node"><title>Node7</title>
<polygon fill="white" stroke="#bfbfbf" points="326.26,-56.5 326.26,-75.5 430.26,-75.5 430.26,-56.5 326.26,-56.5"/>
<text text-anchor="middle" x="378.26" y="-63.5" font-family="Helvetica,sans-Serif" font-size="10.00">odp/api/abi/align.h</text>
</g>
<!-- Node6&#45;&gt;Node7 -->
<g id="edge7" class="edge"><title>Node6&#45;&gt;Node7</title>
<path fill="none" stroke="midnightblue" d="M324.542,-112.324C334.096,-104.263 348.539,-92.0765 360.044,-82.3695"/>
<polygon fill="midnightblue" stroke="midnightblue" points="362.404,-84.9577 367.79,-75.8339 357.89,-79.6076 362.404,-84.9577"/>
</g>
<!-- Node8 -->
<g id="node9" class="node"><title>Node8</title>
<g id="a_node9"><a xlink:href="api_2spec_2align_8h.html" target="_top" xlink:title="ODP alignments. ">
<polygon fill="white" stroke="black" points="196.26,-56.5 196.26,-75.5 308.26,-75.5 308.26,-56.5 196.26,-56.5"/>
<text text-anchor="middle" x="252.26" y="-63.5" font-family="Helvetica,sans-Serif" font-size="10.00">odp/api/spec/align.h</text>
</a>
</g>
</g>
<!-- Node6&#45;&gt;Node8 -->
<g id="edge8" class="edge"><title>Node6&#45;&gt;Node8</title>
<path fill="none" stroke="midnightblue" d="M304.298,-112.324C295.133,-104.341 281.322,-92.3128 270.231,-82.6529"/>
<polygon fill="midnightblue" stroke="midnightblue" points="272.242,-79.7624 262.402,-75.8339 267.644,-85.041 272.242,-79.7624"/>
</g>
<!-- Node8&#45;&gt;Node4 -->
<g id="edge9" class="edge"><title>Node8&#45;&gt;Node4</title>
<path fill="none" stroke="midnightblue" d="M232.295,-56.4435C211.65,-47.5961 179.197,-33.6875 155.628,-23.5865"/>
<polygon fill="midnightblue" stroke="midnightblue" points="156.701,-20.2387 146.131,-19.5164 153.944,-26.6727 156.701,-20.2387"/>
</g>
<!-- Node8&#45;&gt;Node9 -->
<g id="edge10" class="edge"><title>Node8&#45;&gt;Node9</title>
<path fill="none" stroke="midnightblue" d="M268.808,-56.324C285.251,-47.7034 310.694,-34.3643 329.728,-24.3855"/>
<polygon fill="midnightblue" stroke="midnightblue" points="331.52,-27.3977 338.752,-19.6545 328.27,-21.198 331.52,-27.3977"/>
</g>
<!-- Node15&#45;&gt;Node4 -->
<g id="edge18" class="edge"><title>Node15&#45;&gt;Node4</title>
<path fill="none" stroke="midnightblue" d="M330.166,-340.506C220.197,-330.723 0.259623,-302.696 0.259623,-235 0.259623,-235 0.259623,-235 0.259623,-121 0.259623,-90.9022 -0.778869,-78.4574 19.2596,-56 33.6069,-39.9208 54.6377,-29.4228 74.2651,-22.6489"/>
<polygon fill="midnightblue" stroke="midnightblue" points="75.5912,-25.8997 84.0541,-19.5255 73.4634,-19.2309 75.5912,-25.8997"/>
</g>
<!-- Node15&#45;&gt;Node9 -->
<g id="edge25" class="edge"><title>Node15&#45;&gt;Node9</title>
<path fill="none" stroke="midnightblue" d="M409.549,-336.345C439.632,-320.692 496.26,-284.634 496.26,-235 496.26,-235 496.26,-235 496.26,-121 496.26,-69.2626 436.515,-38.2716 394.806,-22.94"/>
<polygon fill="midnightblue" stroke="midnightblue" points="395.757,-19.5645 385.162,-19.5519 393.437,-26.1688 395.757,-19.5645"/>
</g>
<!-- Node16 -->
<g id="node17" class="node"><title>Node16</title>
<g id="a_node17"><a xlink:href="api_2time_8h.html" target="_top" xlink:title="ODP time. ">
<polygon fill="white" stroke="black" points="295.26,-280.5 295.26,-299.5 381.26,-299.5 381.26,-280.5 295.26,-280.5"/>
<text text-anchor="middle" x="338.26" y="-287.5" font-family="Helvetica,sans-Serif" font-size="10.00">odp/api/time.h</text>
</a>
</g>
</g>
<!-- Node15&#45;&gt;Node16 -->
<g id="edge19" class="edge"><title>Node15&#45;&gt;Node16</title>
<path fill="none" stroke="midnightblue" d="M382.508,-336.083C374.79,-328.22 363.355,-316.569 354.043,-307.081"/>
<polygon fill="midnightblue" stroke="midnightblue" points="356.351,-304.436 346.849,-299.751 351.355,-309.34 356.351,-304.436"/>
</g>
<!-- Node16&#45;&gt;Node1 -->
<g id="edge20" class="edge"><title>Node16&#45;&gt;Node1</title>
<path fill="none" stroke="midnightblue" d="M348.221,-280.324C357.386,-272.341 371.197,-260.313 382.288,-250.653"/>
<polygon fill="midnightblue" stroke="midnightblue" points="384.875,-253.041 390.117,-243.834 380.277,-247.762 384.875,-253.041"/>
</g>
<!-- Node17 -->
<g id="node18" class="node"><title>Node17</title>
<polygon fill="white" stroke="#bfbfbf" points="223.76,-224.5 223.76,-243.5 326.76,-243.5 326.76,-224.5 223.76,-224.5"/>
<text text-anchor="middle" x="275.26" y="-231.5" font-family="Helvetica,sans-Serif" font-size="10.00">odp/api/abi/time.h</text>
</g>
<!-- Node16&#45;&gt;Node17 -->
<g id="edge21" class="edge"><title>Node16&#45;&gt;Node17</title>
<path fill="none" stroke="midnightblue" d="M328.138,-280.324C318.733,-272.263 304.516,-260.077 293.191,-250.369"/>
<polygon fill="midnightblue" stroke="midnightblue" points="295.436,-247.684 285.566,-243.834 290.881,-252.999 295.436,-247.684"/>
</g>
<!-- Node18 -->
<g id="node19" class="node"><title>Node18</title>
<g id="a_node19"><a xlink:href="api_2spec_2time_8h.html" target="_top" xlink:title="ODP time. ">
<polygon fill="white" stroke="black" points="28.7596,-56.5 28.7596,-75.5 139.76,-75.5 139.76,-56.5 28.7596,-56.5"/>
<text text-anchor="middle" x="84.2596" y="-63.5" font-family="Helvetica,sans-Serif" font-size="10.00">odp/api/spec/time.h</text>
</a>
</g>
</g>
<!-- Node16&#45;&gt;Node18 -->
<g id="edge22" class="edge"><title>Node16&#45;&gt;Node18</title>
<path fill="none" stroke="midnightblue" d="M296.776,-280.461C271.158,-273.689 238.641,-262.256 214.26,-244 154.816,-199.49 110.573,-120.25 92.8103,-84.8926"/>
<polygon fill="midnightblue" stroke="midnightblue" points="95.885,-83.2134 88.335,-75.7804 89.6018,-86.2993 95.885,-83.2134"/>
</g>
<!-- Node18&#45;&gt;Node4 -->
<g id="edge23" class="edge"><title>Node18&#45;&gt;Node4</title>
<path fill="none" stroke="midnightblue" d="M91.1951,-56.083C97.1888,-48.3768 106.011,-37.0333 113.307,-27.6531"/>
<polygon fill="midnightblue" stroke="midnightblue" points="116.077,-29.7934 119.453,-19.7511 110.551,-25.4958 116.077,-29.7934"/>
</g>
<!-- Node18&#45;&gt;Node9 -->
<g id="edge24" class="edge"><title>Node18&#45;&gt;Node9</title>
<path fill="none" stroke="midnightblue" d="M127.2,-56.4435C174.773,-46.9641 251.503,-31.6747 302.648,-21.4835"/>
<polygon fill="midnightblue" stroke="midnightblue" points="303.397,-24.9032 312.52,-19.5164 302.029,-18.0382 303.397,-24.9032"/>
</g>
</g>
</svg>
