<?xml version="1.0" encoding="UTF-8" standalone="no"?>
<!DOCTYPE svg PUBLIC "-//W3C//DTD SVG 1.1//EN"
 "http://www.w3.org/Graphics/SVG/1.1/DTD/svg11.dtd">
<!-- Generated by graphviz version 2.38.0 (20140413.2041)
 -->
<!-- Title: buffer.h Pages: 1 -->
<svg width="750pt" height="308pt"
 viewBox="0.00 0.00 749.50 308.00" xmlns="http://www.w3.org/2000/svg" xmlns:xlink="http://www.w3.org/1999/xlink">
<g id="graph0" class="graph" transform="scale(1 1) rotate(0) translate(4 304)">
<title>buffer.h</title>
<polygon fill="white" stroke="none" points="-4,4 -4,-304 745.5,-304 745.5,4 -4,4"/>
<!-- Node0 -->
<g id="node1" class="node"><title>Node0</title>
<polygon fill="#bfbfbf" stroke="black" points="415.5,-280.5 415.5,-299.5 468.5,-299.5 468.5,-280.5 415.5,-280.5"/>
<text text-anchor="middle" x="442" y="-287.5" font-family="Helvetica,sans-Serif" font-size="10.00">buffer.h</text>
</g>
<!-- Node1 -->
<g id="node2" class="node"><title>Node1</title>
<g id="a_node2"><a xlink:href="api_2std__types_8h.html" target="_top" xlink:title="Standard C language types and definitions for ODP. ">
<polygon fill="white" stroke="black" points="159,-224.5 159,-243.5 269,-243.5 269,-224.5 159,-224.5"/>
<text text-anchor="middle" x="214" y="-231.5" font-family="Helvetica,sans-Serif" font-size="10.00">odp/api/std_types.h</text>
</a>
</g>
</g>
<!-- Node0&#45;&gt;Node1 -->
<g id="edge1" class="edge"><title>Node0&#45;&gt;Node1</title>
<path fill="none" stroke="midnightblue" d="M415.399,-282.7C377.315,-273.68 306.707,-256.957 260.035,-245.903"/>
<polygon fill="midnightblue" stroke="midnightblue" points="260.708,-242.466 250.171,-243.567 259.095,-249.277 260.708,-242.466"/>
</g>
<!-- Node10 -->
<g id="node11" class="node"><title>Node10</title>
<polygon fill="white" stroke="#bfbfbf" points="388,-224.5 388,-243.5 496,-243.5 496,-224.5 388,-224.5"/>
<text text-anchor="middle" x="442" y="-231.5" font-family="Helvetica,sans-Serif" font-size="10.00">odp/api/abi/event.h</text>
</g>
<!-- Node0&#45;&gt;Node10 -->
<g id="edge12" class="edge"><title>Node0&#45;&gt;Node10</title>
<path fill="none" stroke="midnightblue" d="M442,-280.083C442,-273.006 442,-262.861 442,-253.986"/>
<polygon fill="midnightblue" stroke="midnightblue" points="445.5,-253.751 442,-243.751 438.5,-253.751 445.5,-253.751"/>
</g>
<!-- Node11 -->
<g id="node12" class="node"><title>Node11</title>
<polygon fill="white" stroke="#bfbfbf" points="514,-224.5 514,-243.5 622,-243.5 622,-224.5 514,-224.5"/>
<text text-anchor="middle" x="568" y="-231.5" font-family="Helvetica,sans-Serif" font-size="10.00">odp/api/abi/buffer.h</text>
</g>
<!-- Node0&#45;&gt;Node11 -->
<g id="edge13" class="edge"><title>Node0&#45;&gt;Node11</title>
<path fill="none" stroke="midnightblue" d="M461.965,-280.444C482.609,-271.596 515.063,-257.687 538.632,-247.586"/>
<polygon fill="midnightblue" stroke="midnightblue" points="540.316,-250.673 548.128,-243.516 537.558,-244.239 540.316,-250.673"/>
</g>
<!-- Node12 -->
<g id="node13" class="node"><title>Node12</title>
<polygon fill="white" stroke="#bfbfbf" points="640.5,-224.5 640.5,-243.5 741.5,-243.5 741.5,-224.5 640.5,-224.5"/>
<text text-anchor="middle" x="691" y="-231.5" font-family="Helvetica,sans-Serif" font-size="10.00">odp/api/abi/pool.h</text>
</g>
<!-- Node0&#45;&gt;Node12 -->
<g id="edge14" class="edge"><title>Node0&#45;&gt;Node12</title>
<path fill="none" stroke="midnightblue" d="M468.647,-283.221C509.814,-274.293 589.539,-257.004 641.493,-245.737"/>
<polygon fill="midnightblue" stroke="midnightblue" points="642.463,-249.108 651.494,-243.568 640.979,-242.267 642.463,-249.108"/>
</g>
<!-- Node13 -->
<g id="node14" class="node"><title>Node13</title>
<g id="a_node14"><a xlink:href="api_2spec_2buffer_8h.html" target="_top" xlink:title="ODP buffer descriptor. ">
<polygon fill="white" stroke="black" points="326,-56.5 326,-75.5 442,-75.5 442,-56.5 326,-56.5"/>
<text text-anchor="middle" x="384" y="-63.5" font-family="Helvetica,sans-Serif" font-size="10.00">odp/api/spec/buffer.h</text>
</a>
</g>
</g>
<!-- Node0&#45;&gt;Node13 -->
<g id="edge15" class="edge"><title>Node0&#45;&gt;Node13</title>
<path fill="none" stroke="midnightblue" d="M421.153,-280.427C406.422,-273.129 387.795,-261.091 379,-244 352.207,-191.937 368.051,-119.365 377.918,-85.6222"/>
<polygon fill="midnightblue" stroke="midnightblue" points="381.359,-86.3408 380.965,-75.7533 374.671,-84.2758 381.359,-86.3408"/>
</g>
<!-- Node2 -->
<g id="node3" class="node"><title>Node2</title>
<polygon fill="white" stroke="#bfbfbf" points="0,-168.5 0,-187.5 128,-187.5 128,-168.5 0,-168.5"/>
<text text-anchor="middle" x="64" y="-175.5" font-family="Helvetica,sans-Serif" font-size="10.00">odp/api/abi/std_types.h</text>
</g>
<!-- Node1&#45;&gt;Node2 -->
<g id="edge2" class="edge"><title>Node1&#45;&gt;Node2</title>
<path fill="none" stroke="midnightblue" d="M190.232,-224.444C165.107,-215.399 125.289,-201.064 97.0996,-190.916"/>
<polygon fill="midnightblue" stroke="midnightblue" points="98.2512,-187.611 87.6567,-187.516 95.8801,-194.197 98.2512,-187.611"/>
</g>
<!-- Node3 -->
<g id="node4" class="node"><title>Node3</title>
<g id="a_node4"><a xlink:href="api_2spec_2std__types_8h.html" target="_top" xlink:title="Standard C language types and definitions for ODP. ">
<polygon fill="white" stroke="black" points="146,-168.5 146,-187.5 282,-187.5 282,-168.5 146,-168.5"/>
<text text-anchor="middle" x="214" y="-175.5" font-family="Helvetica,sans-Serif" font-size="10.00">odp/api/spec/std_types.h</text>
</a>
</g>
</g>
<!-- Node1&#45;&gt;Node3 -->
<g id="edge3" class="edge"><title>Node1&#45;&gt;Node3</title>
<path fill="none" stroke="midnightblue" d="M214,-224.083C214,-217.006 214,-206.861 214,-197.986"/>
<polygon fill="midnightblue" stroke="midnightblue" points="217.5,-197.751 214,-187.751 210.5,-197.751 217.5,-197.751"/>
</g>
<!-- Node4 -->
<g id="node5" class="node"><title>Node4</title>
<g id="a_node5"><a xlink:href="visibility__begin_8h_source.html" target="_top" xlink:title="odp/visibility_begin.h">
<polygon fill="white" stroke="black" points="133.5,-0.5 133.5,-19.5 248.5,-19.5 248.5,-0.5 133.5,-0.5"/>
<text text-anchor="middle" x="191" y="-7.5" font-family="Helvetica,sans-Serif" font-size="10.00">odp/visibility_begin.h</text>
</a>
</g>
</g>
<!-- Node3&#45;&gt;Node4 -->
<g id="edge4" class="edge"><title>Node3&#45;&gt;Node4</title>
<path fill="none" stroke="midnightblue" d="M167.649,-168.419C120.713,-156.81 51.6382,-130.865 27,-76 7.81686,-33.2821 70.048,-18.4048 123.287,-13.3502"/>
<polygon fill="midnightblue" stroke="midnightblue" points="123.775,-16.8215 133.444,-12.4905 123.185,-9.84644 123.775,-16.8215"/>
</g>
<!-- Node5 -->
<g id="node6" class="node"><title>Node5</title>
<polygon fill="white" stroke="#bfbfbf" points="99.5,-112.5 99.5,-131.5 152.5,-131.5 152.5,-112.5 99.5,-112.5"/>
<text text-anchor="middle" x="126" y="-119.5" font-family="Helvetica,sans-Serif" font-size="10.00">stdint.h</text>
</g>
<!-- Node3&#45;&gt;Node5 -->
<g id="edge5" class="edge"><title>Node3&#45;&gt;Node5</title>
<path fill="none" stroke="midnightblue" d="M199.861,-168.324C186.134,-159.9 165.064,-146.971 148.936,-137.074"/>
<polygon fill="midnightblue" stroke="midnightblue" points="150.457,-133.902 140.104,-131.655 146.796,-139.868 150.457,-133.902"/>
</g>
<!-- Node6 -->
<g id="node7" class="node"><title>Node6</title>
<g id="a_node7"><a xlink:href="api_2align_8h.html" target="_top" xlink:title="ODP alignments. ">
<polygon fill="white" stroke="black" points="171,-112.5 171,-131.5 257,-131.5 257,-112.5 171,-112.5"/>
<text text-anchor="middle" x="214" y="-119.5" font-family="Helvetica,sans-Serif" font-size="10.00">odp/api/align.h</text>
</a>
</g>
</g>
<!-- Node3&#45;&gt;Node6 -->
<g id="edge6" class="edge"><title>Node3&#45;&gt;Node6</title>
<path fill="none" stroke="midnightblue" d="M214,-168.083C214,-161.006 214,-150.861 214,-141.986"/>
<polygon fill="midnightblue" stroke="midnightblue" points="217.5,-141.751 214,-131.751 210.5,-141.751 217.5,-141.751"/>
</g>
<!-- Node9 -->
<g id="node10" class="node"><title>Node9</title>
<g id="a_node10"><a xlink:href="visibility__end_8h_source.html" target="_top" xlink:title="odp/visibility_end.h">
<polygon fill="white" stroke="black" points="266.5,-0.5 266.5,-19.5 373.5,-19.5 373.5,-0.5 266.5,-0.5"/>
<text text-anchor="middle" x="320" y="-7.5" font-family="Helvetica,sans-Serif" font-size="10.00">odp/visibility_end.h</text>
</a>
</g>
</g>
<!-- Node3&#45;&gt;Node9 -->
<g id="edge11" class="edge"><title>Node3&#45;&gt;Node9</title>
<path fill="none" stroke="midnightblue" d="M226.968,-168.292C238.449,-160.048 255.041,-146.763 266,-132 290.247,-99.338 306.762,-54.0651 314.658,-29.1875"/>
<polygon fill="midnightblue" stroke="midnightblue" points="318.015,-30.1765 317.594,-19.5901 311.322,-28.1287 318.015,-30.1765"/>
</g>
<!-- Node7 -->
<g id="node8" class="node"><title>Node7</title>
<polygon fill="white" stroke="#bfbfbf" points="36,-56.5 36,-75.5 140,-75.5 140,-56.5 36,-56.5"/>
<text text-anchor="middle" x="88" y="-63.5" font-family="Helvetica,sans-Serif" font-size="10.00">odp/api/abi/align.h</text>
</g>
<!-- Node6&#45;&gt;Node7 -->
<g id="edge7" class="edge"><title>Node6&#45;&gt;Node7</title>
<path fill="none" stroke="midnightblue" d="M194.035,-112.444C173.391,-103.596 140.937,-89.6875 117.368,-79.5865"/>
<polygon fill="midnightblue" stroke="midnightblue" points="118.442,-76.2387 107.872,-75.5164 115.684,-82.6727 118.442,-76.2387"/>
</g>
<!-- Node8 -->
<g id="node9" class="node"><title>Node8</title>
<g id="a_node9"><a xlink:href="api_2spec_2align_8h.html" target="_top" xlink:title="ODP alignments. ">
<polygon fill="white" stroke="black" points="158,-56.5 158,-75.5 270,-75.5 270,-56.5 158,-56.5"/>
<text text-anchor="middle" x="214" y="-63.5" font-family="Helvetica,sans-Serif" font-size="10.00">odp/api/spec/align.h</text>
</a>
</g>
</g>
<!-- Node6&#45;&gt;Node8 -->
<g id="edge8" class="edge"><title>Node6&#45;&gt;Node8</title>
<path fill="none" stroke="midnightblue" d="M214,-112.083C214,-105.006 214,-94.8611 214,-85.9865"/>
<polygon fill="midnightblue" stroke="midnightblue" points="217.5,-85.751 214,-75.7511 210.5,-85.7511 217.5,-85.751"/>
</g>
<!-- Node8&#45;&gt;Node4 -->
<g id="edge9" class="edge"><title>Node8&#45;&gt;Node4</title>
<path fill="none" stroke="midnightblue" d="M210.202,-56.083C207.087,-48.77 202.577,-38.1814 198.711,-29.1034"/>
<polygon fill="midnightblue" stroke="midnightblue" points="201.866,-27.5798 194.727,-19.7511 195.426,-30.3229 201.866,-27.5798"/>
</g>
<!-- Node8&#45;&gt;Node9 -->
<g id="edge10" class="edge"><title>Node8&#45;&gt;Node9</title>
<path fill="none" stroke="midnightblue" d="M231.031,-56.324C248.03,-47.6641 274.376,-34.2424 293.993,-24.249"/>
<polygon fill="midnightblue" stroke="midnightblue" points="295.69,-27.3125 303.012,-19.6545 292.512,-21.0752 295.69,-27.3125"/>
</g>
<!-- Node13&#45;&gt;Node4 -->
<g id="edge16" class="edge"><title>Node13&#45;&gt;Node4</title>
<path fill="none" stroke="midnightblue" d="M353.419,-56.4435C320.385,-47.2011 267.612,-32.4356 231.234,-22.2572"/>
<polygon fill="midnightblue" stroke="midnightblue" points="232.012,-18.8404 221.438,-19.5164 230.125,-25.5815 232.012,-18.8404"/>
</g>
<!-- Node13&#45;&gt;Node9 -->
<g id="edge17" class="edge"><title>Node13&#45;&gt;Node9</title>
<path fill="none" stroke="midnightblue" d="M373.717,-56.324C364.164,-48.2631 349.72,-36.0765 338.216,-26.3695"/>
<polygon fill="midnightblue" stroke="midnightblue" points="340.37,-23.6076 330.47,-19.8339 335.856,-28.9577 340.37,-23.6076"/>
</g>
</g>
</svg>
