<?xml version="1.0" encoding="UTF-8" standalone="no"?>
<!DOCTYPE svg PUBLIC "-//W3C//DTD SVG 1.1//EN"
 "http://www.w3.org/Graphics/SVG/1.1/DTD/svg11.dtd">
<!-- Generated by graphviz version 2.38.0 (20140413.2041)
 -->
<!-- Title: comp.h Pages: 1 -->
<svg width="982pt" height="532pt"
 viewBox="0.00 0.00 981.68 532.00" xmlns="http://www.w3.org/2000/svg" xmlns:xlink="http://www.w3.org/1999/xlink">
<g id="graph0" class="graph" transform="scale(1 1) rotate(0) translate(4 528)">
<title>comp.h</title>
<polygon fill="white" stroke="none" points="-4,4 -4,-528 977.681,-528 977.681,4 -4,4"/>
<!-- Node0 -->
<g id="node1" class="node"><title>Node0</title>
<polygon fill="#bfbfbf" stroke="black" points="151.5,-504.5 151.5,-523.5 204.5,-523.5 204.5,-504.5 151.5,-504.5"/>
<text text-anchor="middle" x="178" y="-511.5" font-family="Helvetica,sans-Serif" font-size="10.00">comp.h</text>
</g>
<!-- Node1 -->
<g id="node2" class="node"><title>Node1</title>
<polygon fill="white" stroke="#bfbfbf" points="0,-448.5 0,-467.5 108,-467.5 108,-448.5 0,-448.5"/>
<text text-anchor="middle" x="54" y="-455.5" font-family="Helvetica,sans-Serif" font-size="10.00">odp/api/abi/comp.h</text>
</g>
<!-- Node0&#45;&gt;Node1 -->
<g id="edge1" class="edge"><title>Node0&#45;&gt;Node1</title>
<path fill="none" stroke="midnightblue" d="M158.352,-504.444C138.035,-495.596 106.097,-481.687 82.9023,-471.586"/>
<polygon fill="midnightblue" stroke="midnightblue" points="84.1221,-468.3 73.5562,-467.516 81.3271,-474.718 84.1221,-468.3"/>
</g>
<!-- Node2 -->
<g id="node3" class="node"><title>Node2</title>
<polygon fill="white" stroke="#bfbfbf" points="60,-336.5 60,-355.5 168,-355.5 168,-336.5 60,-336.5"/>
<text text-anchor="middle" x="114" y="-343.5" font-family="Helvetica,sans-Serif" font-size="10.00">odp/api/abi/event.h</text>
</g>
<!-- Node0&#45;&gt;Node2 -->
<g id="edge2" class="edge"><title>Node0&#45;&gt;Node2</title>
<path fill="none" stroke="midnightblue" d="M173.027,-504.217C168.081,-495.277 160.462,-480.932 155,-468 140.027,-432.545 126.515,-389.563 119.363,-365.547"/>
<polygon fill="midnightblue" stroke="midnightblue" points="122.638,-364.277 116.462,-355.668 115.921,-366.249 122.638,-364.277"/>
</g>
<!-- Node3 -->
<g id="node4" class="node"><title>Node3</title>
<polygon fill="white" stroke="#bfbfbf" points="164.5,-448.5 164.5,-467.5 275.5,-467.5 275.5,-448.5 164.5,-448.5"/>
<text text-anchor="middle" x="220" y="-455.5" font-family="Helvetica,sans-Serif" font-size="10.00">odp/api/abi/queue.h</text>
</g>
<!-- Node0&#45;&gt;Node3 -->
<g id="edge3" class="edge"><title>Node0&#45;&gt;Node3</title>
<path fill="none" stroke="midnightblue" d="M184.935,-504.083C190.929,-496.377 199.752,-485.033 207.048,-475.653"/>
<polygon fill="midnightblue" stroke="midnightblue" points="209.817,-477.793 213.194,-467.751 204.291,-473.496 209.817,-477.793"/>
</g>
<!-- Node4 -->
<g id="node5" class="node"><title>Node4</title>
<g id="a_node5"><a xlink:href="api_2spec_2comp_8h.html" target="_top" xlink:title="ODP Compression. ">
<polygon fill="white" stroke="black" points="483,-448.5 483,-467.5 599,-467.5 599,-448.5 483,-448.5"/>
<text text-anchor="middle" x="541" y="-455.5" font-family="Helvetica,sans-Serif" font-size="10.00">odp/api/spec/comp.h</text>
</a>
</g>
</g>
<!-- Node0&#45;&gt;Node4 -->
<g id="edge4" class="edge"><title>Node0&#45;&gt;Node4</title>
<path fill="none" stroke="midnightblue" d="M204.692,-509.029C260.825,-500.679 392.574,-481.08 473.506,-469.04"/>
<polygon fill="midnightblue" stroke="midnightblue" points="474.225,-472.472 483.601,-467.539 473.195,-465.548 474.225,-472.472"/>
</g>
<!-- Node5 -->
<g id="node6" class="node"><title>Node5</title>
<g id="a_node6"><a xlink:href="visibility__begin_8h_source.html" target="_top" xlink:title="odp/visibility_begin.h">
<polygon fill="white" stroke="black" points="714.5,-0.5 714.5,-19.5 829.5,-19.5 829.5,-0.5 714.5,-0.5"/>
<text text-anchor="middle" x="772" y="-7.5" font-family="Helvetica,sans-Serif" font-size="10.00">odp/visibility_begin.h</text>
</a>
</g>
</g>
<!-- Node4&#45;&gt;Node5 -->
<g id="edge5" class="edge"><title>Node4&#45;&gt;Node5</title>
<path fill="none" stroke="midnightblue" d="M599.261,-454.312C717.179,-447.278 973,-423.232 973,-347 973,-347 973,-347 973,-121 973,-90.9022 975.724,-76.8308 954,-56 937.51,-40.1879 884.376,-28.1856 839.745,-20.5696"/>
<polygon fill="midnightblue" stroke="midnightblue" points="840.223,-17.101 829.785,-18.9171 839.077,-24.0067 840.223,-17.101"/>
</g>
<!-- Node6 -->
<g id="node7" class="node"><title>Node6</title>
<g id="a_node7"><a xlink:href="support_8h.html" target="_top" xlink:title="ODP support API &#45; platform specific header. ">
<polygon fill="white" stroke="black" points="725.5,-392.5 725.5,-411.5 826.5,-411.5 826.5,-392.5 725.5,-392.5"/>
<text text-anchor="middle" x="776" y="-399.5" font-family="Helvetica,sans-Serif" font-size="10.00">odp/api/support.h</text>
</a>
</g>
</g>
<!-- Node4&#45;&gt;Node6 -->
<g id="edge6" class="edge"><title>Node4&#45;&gt;Node6</title>
<path fill="none" stroke="midnightblue" d="M578.236,-448.444C619.06,-439.063 684.643,-423.993 728.984,-413.804"/>
<polygon fill="midnightblue" stroke="midnightblue" points="729.976,-417.167 738.938,-411.516 728.408,-410.345 729.976,-417.167"/>
</g>
<!-- Node8 -->
<g id="node9" class="node"><title>Node8</title>
<g id="a_node9"><a xlink:href="visibility__end_8h_source.html" target="_top" xlink:title="odp/visibility_end.h">
<polygon fill="white" stroke="black" points="367.5,-0.5 367.5,-19.5 474.5,-19.5 474.5,-0.5 367.5,-0.5"/>
<text text-anchor="middle" x="421" y="-7.5" font-family="Helvetica,sans-Serif" font-size="10.00">odp/visibility_end.h</text>
</a>
</g>
</g>
<!-- Node4&#45;&gt;Node8 -->
<g id="edge36" class="edge"><title>Node4&#45;&gt;Node8</title>
<path fill="none" stroke="midnightblue" d="M482.866,-450.597C384.543,-438.137 196,-406.488 196,-347 196,-347 196,-347 196,-121 196,-48.7273 290.854,-23.933 357.387,-15.4311"/>
<polygon fill="midnightblue" stroke="midnightblue" points="357.874,-18.898 367.393,-14.2463 357.051,-11.9465 357.874,-18.898"/>
</g>
<!-- Node9 -->
<g id="node10" class="node"><title>Node9</title>
<g id="a_node10"><a xlink:href="api_2packet_8h.html" target="_top" xlink:title="ODP packet descriptor. ">
<polygon fill="white" stroke="black" points="493,-392.5 493,-411.5 589,-411.5 589,-392.5 493,-392.5"/>
<text text-anchor="middle" x="541" y="-399.5" font-family="Helvetica,sans-Serif" font-size="10.00">odp/api/packet.h</text>
</a>
</g>
</g>
<!-- Node4&#45;&gt;Node9 -->
<g id="edge10" class="edge"><title>Node4&#45;&gt;Node9</title>
<path fill="none" stroke="midnightblue" d="M541,-448.083C541,-441.006 541,-430.861 541,-421.986"/>
<polygon fill="midnightblue" stroke="midnightblue" points="544.5,-421.751 541,-411.751 537.5,-421.751 544.5,-421.751"/>
</g>
<!-- Node7 -->
<g id="node8" class="node"><title>Node7</title>
<g id="a_node8"><a xlink:href="spec_2support_8h.html" target="_top" xlink:title="ODP support API. ">
<polygon fill="white" stroke="black" points="819,-56.5 819,-75.5 945,-75.5 945,-56.5 819,-56.5"/>
<text text-anchor="middle" x="882" y="-63.5" font-family="Helvetica,sans-Serif" font-size="10.00">odp/api/spec/support.h</text>
</a>
</g>
</g>
<!-- Node6&#45;&gt;Node7 -->
<g id="edge7" class="edge"><title>Node6&#45;&gt;Node7</title>
<path fill="none" stroke="midnightblue" d="M826.511,-396.489C856.279,-391.269 892.579,-380.053 916,-356 936.997,-334.436 935,-321.098 935,-291 935,-291 935,-291 935,-177 935,-140.992 911.666,-104.339 895.963,-83.7501"/>
<polygon fill="midnightblue" stroke="midnightblue" points="898.55,-81.3793 889.594,-75.7193 893.065,-85.7291 898.55,-81.3793"/>
</g>
<!-- Node7&#45;&gt;Node5 -->
<g id="edge8" class="edge"><title>Node7&#45;&gt;Node5</title>
<path fill="none" stroke="midnightblue" d="M864.327,-56.324C846.606,-47.6247 819.097,-34.1202 798.712,-24.113"/>
<polygon fill="midnightblue" stroke="midnightblue" points="800.149,-20.9195 789.63,-19.6545 797.064,-27.2031 800.149,-20.9195"/>
</g>
<!-- Node7&#45;&gt;Node8 -->
<g id="edge9" class="edge"><title>Node7&#45;&gt;Node8</title>
<path fill="none" stroke="midnightblue" d="M818.867,-57.6048C731.102,-47.3243 573.1,-28.8165 484.919,-18.4872"/>
<polygon fill="midnightblue" stroke="midnightblue" points="485.121,-14.987 474.781,-17.2998 484.306,-21.9395 485.121,-14.987"/>
</g>
<!-- Node9&#45;&gt;Node2 -->
<g id="edge22" class="edge"><title>Node9&#45;&gt;Node2</title>
<path fill="none" stroke="midnightblue" d="M492.848,-394.91C415.746,-385.16 264.514,-366.035 178.271,-355.128"/>
<polygon fill="midnightblue" stroke="midnightblue" points="178.702,-351.655 168.341,-353.872 177.823,-358.599 178.702,-351.655"/>
</g>
<!-- Node10 -->
<g id="node11" class="node"><title>Node10</title>
<g id="a_node11"><a xlink:href="api_2std__types_8h.html" target="_top" xlink:title="Standard C language types and definitions for ODP. ">
<polygon fill="white" stroke="black" points="523,-224.5 523,-243.5 633,-243.5 633,-224.5 523,-224.5"/>
<text text-anchor="middle" x="578" y="-231.5" font-family="Helvetica,sans-Serif" font-size="10.00">odp/api/std_types.h</text>
</a>
</g>
</g>
<!-- Node9&#45;&gt;Node10 -->
<g id="edge11" class="edge"><title>Node9&#45;&gt;Node10</title>
<path fill="none" stroke="midnightblue" d="M560.296,-392.48C574.429,-385.081 592.557,-372.887 601,-356 617.978,-322.045 600.345,-276.99 587.942,-252.562"/>
<polygon fill="midnightblue" stroke="midnightblue" points="591.018,-250.893 583.217,-243.723 584.844,-254.192 591.018,-250.893"/>
</g>
<!-- Node17 -->
<g id="node18" class="node"><title>Node17</title>
<polygon fill="white" stroke="#bfbfbf" points="648.5,-336.5 648.5,-355.5 775.5,-355.5 775.5,-336.5 648.5,-336.5"/>
<text text-anchor="middle" x="712" y="-343.5" font-family="Helvetica,sans-Serif" font-size="10.00">odp/api/abi/packet_io.h</text>
</g>
<!-- Node9&#45;&gt;Node17 -->
<g id="edge23" class="edge"><title>Node9&#45;&gt;Node17</title>
<path fill="none" stroke="midnightblue" d="M568.095,-392.444C596.988,-383.32 642.925,-368.813 675.105,-358.651"/>
<polygon fill="midnightblue" stroke="midnightblue" points="676.549,-361.865 685.031,-355.516 674.441,-355.19 676.549,-361.865"/>
</g>
<!-- Node18 -->
<g id="node19" class="node"><title>Node18</title>
<polygon fill="white" stroke="#bfbfbf" points="793.5,-336.5 793.5,-355.5 906.5,-355.5 906.5,-336.5 793.5,-336.5"/>
<text text-anchor="middle" x="850" y="-343.5" font-family="Helvetica,sans-Serif" font-size="10.00">odp/api/abi/packet.h</text>
</g>
<!-- Node9&#45;&gt;Node18 -->
<g id="edge24" class="edge"><title>Node9&#45;&gt;Node18</title>
<path fill="none" stroke="midnightblue" d="M589.281,-392.562C643.804,-383.034 732.532,-367.528 791.087,-357.296"/>
<polygon fill="midnightblue" stroke="midnightblue" points="792.046,-360.681 801.294,-355.512 790.84,-353.786 792.046,-360.681"/>
</g>
<!-- Node19 -->
<g id="node20" class="node"><title>Node19</title>
<polygon fill="white" stroke="#bfbfbf" points="364,-336.5 364,-355.5 472,-355.5 472,-336.5 364,-336.5"/>
<text text-anchor="middle" x="418" y="-343.5" font-family="Helvetica,sans-Serif" font-size="10.00">odp/api/abi/buffer.h</text>
</g>
<!-- Node9&#45;&gt;Node19 -->
<g id="edge25" class="edge"><title>Node9&#45;&gt;Node19</title>
<path fill="none" stroke="midnightblue" d="M521.51,-392.444C501.358,-383.596 469.677,-369.687 446.669,-359.586"/>
<polygon fill="midnightblue" stroke="midnightblue" points="447.962,-356.332 437.399,-355.516 445.148,-362.741 447.962,-356.332"/>
</g>
<!-- Node20 -->
<g id="node21" class="node"><title>Node20</title>
<polygon fill="white" stroke="#bfbfbf" points="490.5,-336.5 490.5,-355.5 591.5,-355.5 591.5,-336.5 490.5,-336.5"/>
<text text-anchor="middle" x="541" y="-343.5" font-family="Helvetica,sans-Serif" font-size="10.00">odp/api/abi/pool.h</text>
</g>
<!-- Node9&#45;&gt;Node20 -->
<g id="edge26" class="edge"><title>Node9&#45;&gt;Node20</title>
<path fill="none" stroke="midnightblue" d="M541,-392.083C541,-385.006 541,-374.861 541,-365.986"/>
<polygon fill="midnightblue" stroke="midnightblue" points="544.5,-365.751 541,-355.751 537.5,-365.751 544.5,-365.751"/>
</g>
<!-- Node21 -->
<g id="node22" class="node"><title>Node21</title>
<g id="a_node22"><a xlink:href="api_2spec_2packet_8h.html" target="_top" xlink:title="ODP packet descriptor. ">
<polygon fill="white" stroke="black" points="224,-336.5 224,-355.5 346,-355.5 346,-336.5 224,-336.5"/>
<text text-anchor="middle" x="285" y="-343.5" font-family="Helvetica,sans-Serif" font-size="10.00">odp/api/spec/packet.h</text>
</a>
</g>
</g>
<!-- Node9&#45;&gt;Node21 -->
<g id="edge27" class="edge"><title>Node9&#45;&gt;Node21</title>
<path fill="none" stroke="midnightblue" d="M500.436,-392.444C455.684,-383.004 383.617,-367.802 335.305,-357.611"/>
<polygon fill="midnightblue" stroke="midnightblue" points="335.881,-354.156 325.374,-355.516 334.436,-361.005 335.881,-354.156"/>
</g>
<!-- Node11 -->
<g id="node12" class="node"><title>Node11</title>
<polygon fill="white" stroke="#bfbfbf" points="621,-168.5 621,-187.5 749,-187.5 749,-168.5 621,-168.5"/>
<text text-anchor="middle" x="685" y="-175.5" font-family="Helvetica,sans-Serif" font-size="10.00">odp/api/abi/std_types.h</text>
</g>
<!-- Node10&#45;&gt;Node11 -->
<g id="edge12" class="edge"><title>Node10&#45;&gt;Node11</title>
<path fill="none" stroke="midnightblue" d="M595.191,-224.324C612.351,-215.664 638.946,-202.242 658.747,-192.249"/>
<polygon fill="midnightblue" stroke="midnightblue" points="660.501,-195.285 667.851,-187.655 657.347,-189.035 660.501,-195.285"/>
</g>
<!-- Node12 -->
<g id="node13" class="node"><title>Node12</title>
<g id="a_node13"><a xlink:href="api_2spec_2std__types_8h.html" target="_top" xlink:title="Standard C language types and definitions for ODP. ">
<polygon fill="white" stroke="black" points="467,-168.5 467,-187.5 603,-187.5 603,-168.5 467,-168.5"/>
<text text-anchor="middle" x="535" y="-175.5" font-family="Helvetica,sans-Serif" font-size="10.00">odp/api/spec/std_types.h</text>
</a>
</g>
</g>
<!-- Node10&#45;&gt;Node12 -->
<g id="edge13" class="edge"><title>Node10&#45;&gt;Node12</title>
<path fill="none" stroke="midnightblue" d="M570.899,-224.083C564.763,-216.377 555.73,-205.033 548.261,-195.653"/>
<polygon fill="midnightblue" stroke="midnightblue" points="550.936,-193.394 541.968,-187.751 545.46,-197.754 550.936,-193.394"/>
</g>
<!-- Node12&#45;&gt;Node5 -->
<g id="edge14" class="edge"><title>Node12&#45;&gt;Node5</title>
<path fill="none" stroke="midnightblue" d="M566.14,-168.479C591.889,-160.788 628.968,-148.202 659,-132 695.612,-112.248 706.282,-107.021 734,-76 746.632,-61.8633 757.147,-42.8822 763.89,-29.083"/>
<polygon fill="midnightblue" stroke="midnightblue" points="767.21,-30.247 768.284,-19.7068 760.871,-27.2768 767.21,-30.247"/>
</g>
<!-- Node12&#45;&gt;Node8 -->
<g id="edge21" class="edge"><title>Node12&#45;&gt;Node8</title>
<path fill="none" stroke="midnightblue" d="M522.93,-168.406C511.806,-160.044 495.351,-146.508 484,-132 477.051,-123.118 445.568,-60.4716 429.905,-28.9809"/>
<polygon fill="midnightblue" stroke="midnightblue" points="432.839,-27.0198 425.258,-19.6185 426.569,-30.132 432.839,-27.0198"/>
</g>
<!-- Node13 -->
<g id="node14" class="node"><title>Node13</title>
<polygon fill="white" stroke="#bfbfbf" points="492.5,-112.5 492.5,-131.5 545.5,-131.5 545.5,-112.5 492.5,-112.5"/>
<text text-anchor="middle" x="519" y="-119.5" font-family="Helvetica,sans-Serif" font-size="10.00">stdint.h</text>
</g>
<!-- Node12&#45;&gt;Node13 -->
<g id="edge15" class="edge"><title>Node12&#45;&gt;Node13</title>
<path fill="none" stroke="midnightblue" d="M532.358,-168.083C530.214,-160.849 527.121,-150.409 524.451,-141.397"/>
<polygon fill="midnightblue" stroke="midnightblue" points="527.79,-140.345 521.593,-131.751 521.078,-142.333 527.79,-140.345"/>
</g>
<!-- Node14 -->
<g id="node15" class="node"><title>Node14</title>
<g id="a_node15"><a xlink:href="api_2align_8h.html" target="_top" xlink:title="ODP alignments. ">
<polygon fill="white" stroke="black" points="564,-112.5 564,-131.5 650,-131.5 650,-112.5 564,-112.5"/>
<text text-anchor="middle" x="607" y="-119.5" font-family="Helvetica,sans-Serif" font-size="10.00">odp/api/align.h</text>
</a>
</g>
</g>
<!-- Node12&#45;&gt;Node14 -->
<g id="edge16" class="edge"><title>Node12&#45;&gt;Node14</title>
<path fill="none" stroke="midnightblue" d="M546.568,-168.324C557.42,-160.185 573.881,-147.839 586.883,-138.087"/>
<polygon fill="midnightblue" stroke="midnightblue" points="589.321,-140.634 595.221,-131.834 585.121,-135.034 589.321,-140.634"/>
</g>
<!-- Node15 -->
<g id="node16" class="node"><title>Node15</title>
<polygon fill="white" stroke="#bfbfbf" points="491,-56.5 491,-75.5 595,-75.5 595,-56.5 491,-56.5"/>
<text text-anchor="middle" x="543" y="-63.5" font-family="Helvetica,sans-Serif" font-size="10.00">odp/api/abi/align.h</text>
</g>
<!-- Node14&#45;&gt;Node15 -->
<g id="edge17" class="edge"><title>Node14&#45;&gt;Node15</title>
<path fill="none" stroke="midnightblue" d="M596.717,-112.324C587.164,-104.263 572.72,-92.0765 561.216,-82.3695"/>
<polygon fill="midnightblue" stroke="midnightblue" points="563.37,-79.6076 553.47,-75.8339 558.856,-84.9577 563.37,-79.6076"/>
</g>
<!-- Node16 -->
<g id="node17" class="node"><title>Node16</title>
<g id="a_node17"><a xlink:href="api_2spec_2align_8h.html" target="_top" xlink:title="ODP alignments. ">
<polygon fill="white" stroke="black" points="613,-56.5 613,-75.5 725,-75.5 725,-56.5 613,-56.5"/>
<text text-anchor="middle" x="669" y="-63.5" font-family="Helvetica,sans-Serif" font-size="10.00">odp/api/spec/align.h</text>
</a>
</g>
</g>
<!-- Node14&#45;&gt;Node16 -->
<g id="edge18" class="edge"><title>Node14&#45;&gt;Node16</title>
<path fill="none" stroke="midnightblue" d="M616.961,-112.324C626.127,-104.341 639.937,-92.3128 651.028,-82.6529"/>
<polygon fill="midnightblue" stroke="midnightblue" points="653.615,-85.041 658.857,-75.8339 649.018,-79.7624 653.615,-85.041"/>
</g>
<!-- Node16&#45;&gt;Node5 -->
<g id="edge19" class="edge"><title>Node16&#45;&gt;Node5</title>
<path fill="none" stroke="midnightblue" d="M685.549,-56.324C701.992,-47.7034 727.435,-34.3643 746.468,-24.3855"/>
<polygon fill="midnightblue" stroke="midnightblue" points="748.261,-27.3977 755.492,-19.6545 745.011,-21.198 748.261,-27.3977"/>
</g>
<!-- Node16&#45;&gt;Node8 -->
<g id="edge20" class="edge"><title>Node16&#45;&gt;Node8</title>
<path fill="none" stroke="midnightblue" d="M629.704,-56.4435C586.441,-47.0234 516.827,-31.8656 470.027,-21.6752"/>
<polygon fill="midnightblue" stroke="midnightblue" points="470.628,-18.2242 460.112,-19.5164 469.139,-25.0639 470.628,-18.2242"/>
</g>
<!-- Node21&#45;&gt;Node5 -->
<g id="edge28" class="edge"><title>Node21&#45;&gt;Node5</title>
<path fill="none" stroke="midnightblue" d="M336.773,-336.464C465.735,-314.855 791,-258.065 791,-235 791,-235 791,-235 791,-121 791,-88.4885 782.841,-51.3503 777.216,-29.6103"/>
<polygon fill="midnightblue" stroke="midnightblue" points="780.541,-28.498 774.562,-19.7514 773.782,-30.3175 780.541,-28.498"/>
</g>
<!-- Node21&#45;&gt;Node8 -->
<g id="edge35" class="edge"><title>Node21&#45;&gt;Node8</title>
<path fill="none" stroke="midnightblue" d="M282.303,-336.258C276.844,-317.765 265,-273.238 265,-235 265,-235 265,-235 265,-121 265,-66.8163 328.635,-36.9743 374.62,-22.4831"/>
<polygon fill="midnightblue" stroke="midnightblue" points="375.855,-25.7667 384.425,-19.5376 373.841,-19.0626 375.855,-25.7667"/>
</g>
<!-- Node22 -->
<g id="node23" class="node"><title>Node22</title>
<g id="a_node23"><a xlink:href="api_2time_8h.html" target="_top" xlink:title="ODP time. ">
<polygon fill="white" stroke="black" points="342,-280.5 342,-299.5 428,-299.5 428,-280.5 342,-280.5"/>
<text text-anchor="middle" x="385" y="-287.5" font-family="Helvetica,sans-Serif" font-size="10.00">odp/api/time.h</text>
</a>
</g>
</g>
<!-- Node21&#45;&gt;Node22 -->
<g id="edge29" class="edge"><title>Node21&#45;&gt;Node22</title>
<path fill="none" stroke="midnightblue" d="M301.067,-336.324C316.958,-327.743 341.507,-314.486 359.958,-304.522"/>
<polygon fill="midnightblue" stroke="midnightblue" points="361.837,-307.486 368.973,-299.655 358.511,-301.326 361.837,-307.486"/>
</g>
<!-- Node22&#45;&gt;Node10 -->
<g id="edge30" class="edge"><title>Node22&#45;&gt;Node10</title>
<path fill="none" stroke="midnightblue" d="M415.581,-280.444C448.615,-271.201 501.388,-256.436 537.766,-246.257"/>
<polygon fill="midnightblue" stroke="midnightblue" points="538.875,-249.582 547.562,-243.516 536.988,-242.84 538.875,-249.582"/>
</g>
<!-- Node23 -->
<g id="node24" class="node"><title>Node23</title>
<polygon fill="white" stroke="#bfbfbf" points="293.5,-224.5 293.5,-243.5 396.5,-243.5 396.5,-224.5 293.5,-224.5"/>
<text text-anchor="middle" x="345" y="-231.5" font-family="Helvetica,sans-Serif" font-size="10.00">odp/api/abi/time.h</text>
</g>
<!-- Node22&#45;&gt;Node23 -->
<g id="edge31" class="edge"><title>Node22&#45;&gt;Node23</title>
<path fill="none" stroke="midnightblue" d="M378.395,-280.083C372.745,-272.455 364.455,-261.264 357.549,-251.941"/>
<polygon fill="midnightblue" stroke="midnightblue" points="360.247,-249.703 351.482,-243.751 354.622,-253.87 360.247,-249.703"/>
</g>
<!-- Node24 -->
<g id="node25" class="node"><title>Node24</title>
<g id="a_node25"><a xlink:href="api_2spec_2time_8h.html" target="_top" xlink:title="ODP time. ">
<polygon fill="white" stroke="black" points="323.5,-56.5 323.5,-75.5 434.5,-75.5 434.5,-56.5 323.5,-56.5"/>
<text text-anchor="middle" x="379" y="-63.5" font-family="Helvetica,sans-Serif" font-size="10.00">odp/api/spec/time.h</text>
</a>
</g>
</g>
<!-- Node22&#45;&gt;Node24 -->
<g id="edge32" class="edge"><title>Node22&#45;&gt;Node24</title>
<path fill="none" stroke="midnightblue" d="M390.13,-280.407C395.058,-271.614 402.16,-257.381 405,-244 417.17,-186.655 397.261,-117.653 385.96,-85.356"/>
<polygon fill="midnightblue" stroke="midnightblue" points="389.098,-83.7423 382.389,-75.5421 382.52,-86.1362 389.098,-83.7423"/>
</g>
<!-- Node24&#45;&gt;Node5 -->
<g id="edge33" class="edge"><title>Node24&#45;&gt;Node5</title>
<path fill="none" stroke="midnightblue" d="M434.89,-57.3205C505.873,-47.5671 628.264,-30.75 704.417,-20.2862"/>
<polygon fill="midnightblue" stroke="midnightblue" points="704.955,-23.7452 714.386,-18.9165 704.002,-16.8104 704.955,-23.7452"/>
</g>
<!-- Node24&#45;&gt;Node8 -->
<g id="edge34" class="edge"><title>Node24&#45;&gt;Node8</title>
<path fill="none" stroke="midnightblue" d="M385.935,-56.083C391.929,-48.3768 400.752,-37.0333 408.048,-27.6531"/>
<polygon fill="midnightblue" stroke="midnightblue" points="410.817,-29.7934 414.194,-19.7511 405.291,-25.4958 410.817,-29.7934"/>
</g>
</g>
</svg>
