<?xml version="1.0" encoding="UTF-8" standalone="no"?>
<!DOCTYPE svg PUBLIC "-//W3C//DTD SVG 1.1//EN"
 "http://www.w3.org/Graphics/SVG/1.1/DTD/svg11.dtd">
<!-- Generated by graphviz version 2.38.0 (20140413.2041)
 -->
<!-- Title: traffic_mngr.h Pages: 1 -->
<svg width="697pt" height="364pt"
 viewBox="0.00 0.00 697.00 364.00" xmlns="http://www.w3.org/2000/svg" xmlns:xlink="http://www.w3.org/1999/xlink">
<g id="graph0" class="graph" transform="scale(1 1) rotate(0) translate(4 360)">
<title>traffic_mngr.h</title>
<polygon fill="white" stroke="none" points="-4,4 -4,-360 693,-360 693,4 -4,4"/>
<!-- Node10 -->
<g id="node1" class="node"><title>Node10</title>
<polygon fill="#bfbfbf" stroke="black" points="303,-336.5 303,-355.5 386,-355.5 386,-336.5 303,-336.5"/>
<text text-anchor="middle" x="344.5" y="-343.5" font-family="Helvetica,sans-Serif" font-size="10.00">traffic_mngr.h</text>
</g>
<!-- Node11 -->
<g id="node2" class="node"><title>Node11</title>
<g id="a_node2"><a xlink:href="arch_2arm32-linux_2odp_2api_2abi_2traffic__mngr_8h_source.html" target="_top" xlink:title="traffic_mngr.h">
<polygon fill="white" stroke="black" points="0,-280.5 0,-299.5 83,-299.5 83,-280.5 0,-280.5"/>
<text text-anchor="middle" x="41.5" y="-287.5" font-family="Helvetica,sans-Serif" font-size="10.00">traffic_mngr.h</text>
</a>
</g>
</g>
<!-- Node10&#45;&gt;Node11 -->
<g id="edge1" class="edge"><title>Node10&#45;&gt;Node11</title>
<path fill="none" stroke="midnightblue" d="M292.808,-335.788C233.688,-325.251 138.033,-308.204 83.3698,-298.462"/>
<polygon fill="midnightblue" stroke="midnightblue" points="292.228,-339.239 302.687,-337.548 293.457,-332.348 292.228,-339.239"/>
</g>
<!-- Node12 -->
<g id="node3" class="node"><title>Node12</title>
<g id="a_node3"><a xlink:href="arch_2arm64-linux_2odp_2api_2abi_2traffic__mngr_8h_source.html" target="_top" xlink:title="traffic_mngr.h">
<polygon fill="white" stroke="black" points="101,-280.5 101,-299.5 184,-299.5 184,-280.5 101,-280.5"/>
<text text-anchor="middle" x="142.5" y="-287.5" font-family="Helvetica,sans-Serif" font-size="10.00">traffic_mngr.h</text>
</a>
</g>
</g>
<!-- Node10&#45;&gt;Node12 -->
<g id="edge2" class="edge"><title>Node10&#45;&gt;Node12</title>
<path fill="none" stroke="midnightblue" d="M302.712,-333.829C264.573,-323.633 209.019,-308.782 174.358,-299.516"/>
<polygon fill="midnightblue" stroke="midnightblue" points="301.928,-337.242 312.492,-336.444 303.736,-330.48 301.928,-337.242"/>
</g>
<!-- Node13 -->
<g id="node4" class="node"><title>Node13</title>
<g id="a_node4"><a xlink:href="arch_2default-linux_2odp_2api_2abi_2traffic__mngr_8h_source.html" target="_top" xlink:title="traffic_mngr.h">
<polygon fill="white" stroke="black" points="202,-280.5 202,-299.5 285,-299.5 285,-280.5 202,-280.5"/>
<text text-anchor="middle" x="243.5" y="-287.5" font-family="Helvetica,sans-Serif" font-size="10.00">traffic_mngr.h</text>
</a>
</g>
</g>
<!-- Node10&#45;&gt;Node13 -->
<g id="edge3" class="edge"><title>Node10&#45;&gt;Node13</title>
<path fill="none" stroke="midnightblue" d="M319.417,-331.59C300.743,-321.605 275.796,-308.267 259.687,-299.655"/>
<polygon fill="midnightblue" stroke="midnightblue" points="317.804,-334.696 328.273,-336.324 321.104,-328.522 317.804,-334.696"/>
</g>
<!-- Node14 -->
<g id="node5" class="node"><title>Node14</title>
<g id="a_node5"><a xlink:href="arch_2mips64-linux_2odp_2api_2abi_2traffic__mngr_8h_source.html" target="_top" xlink:title="traffic_mngr.h">
<polygon fill="white" stroke="black" points="303,-280.5 303,-299.5 386,-299.5 386,-280.5 303,-280.5"/>
<text text-anchor="middle" x="344.5" y="-287.5" font-family="Helvetica,sans-Serif" font-size="10.00">traffic_mngr.h</text>
</a>
</g>
</g>
<!-- Node10&#45;&gt;Node14 -->
<g id="edge4" class="edge"><title>Node10&#45;&gt;Node14</title>
<path fill="none" stroke="midnightblue" d="M344.5,-325.805C344.5,-316.91 344.5,-306.78 344.5,-299.751"/>
<polygon fill="midnightblue" stroke="midnightblue" points="341,-326.083 344.5,-336.083 348,-326.083 341,-326.083"/>
</g>
<!-- Node15 -->
<g id="node6" class="node"><title>Node15</title>
<g id="a_node6"><a xlink:href="arch_2power64-linux_2odp_2api_2abi_2traffic__mngr_8h_source.html" target="_top" xlink:title="traffic_mngr.h">
<polygon fill="white" stroke="black" points="404,-280.5 404,-299.5 487,-299.5 487,-280.5 404,-280.5"/>
<text text-anchor="middle" x="445.5" y="-287.5" font-family="Helvetica,sans-Serif" font-size="10.00">traffic_mngr.h</text>
</a>
</g>
</g>
<!-- Node10&#45;&gt;Node15 -->
<g id="edge5" class="edge"><title>Node10&#45;&gt;Node15</title>
<path fill="none" stroke="midnightblue" d="M369.583,-331.59C388.257,-321.605 413.204,-308.267 429.313,-299.655"/>
<polygon fill="midnightblue" stroke="midnightblue" points="367.896,-328.522 360.727,-336.324 371.196,-334.696 367.896,-328.522"/>
</g>
<!-- Node16 -->
<g id="node7" class="node"><title>Node16</title>
<g id="a_node7"><a xlink:href="arch_2x86__32-linux_2odp_2api_2abi_2traffic__mngr_8h_source.html" target="_top" xlink:title="traffic_mngr.h">
<polygon fill="white" stroke="black" points="505,-280.5 505,-299.5 588,-299.5 588,-280.5 505,-280.5"/>
<text text-anchor="middle" x="546.5" y="-287.5" font-family="Helvetica,sans-Serif" font-size="10.00">traffic_mngr.h</text>
</a>
</g>
</g>
<!-- Node10&#45;&gt;Node16 -->
<g id="edge6" class="edge"><title>Node10&#45;&gt;Node16</title>
<path fill="none" stroke="midnightblue" d="M386.288,-333.829C424.427,-323.633 479.981,-308.782 514.642,-299.516"/>
<polygon fill="midnightblue" stroke="midnightblue" points="385.264,-330.48 376.508,-336.444 387.072,-337.242 385.264,-330.48"/>
</g>
<!-- Node17 -->
<g id="node8" class="node"><title>Node17</title>
<g id="a_node8"><a xlink:href="arch_2x86__64-linux_2odp_2api_2abi_2traffic__mngr_8h_source.html" target="_top" xlink:title="traffic_mngr.h">
<polygon fill="white" stroke="black" points="606,-280.5 606,-299.5 689,-299.5 689,-280.5 606,-280.5"/>
<text text-anchor="middle" x="647.5" y="-287.5" font-family="Helvetica,sans-Serif" font-size="10.00">traffic_mngr.h</text>
</a>
</g>
</g>
<!-- Node10&#45;&gt;Node17 -->
<g id="edge7" class="edge"><title>Node10&#45;&gt;Node17</title>
<path fill="none" stroke="midnightblue" d="M396.279,-335.823C447.42,-326.751 527.861,-312.461 597.5,-300 600.191,-299.518 602.964,-299.021 605.759,-298.52"/>
<polygon fill="midnightblue" stroke="midnightblue" points="395.375,-332.428 386.14,-337.621 396.597,-339.321 395.375,-332.428"/>
</g>
<!-- Node18 -->
<g id="node9" class="node"><title>Node18</title>
<g id="a_node9"><a xlink:href="api_2traffic__mngr_8h.html" target="_top" xlink:title="ODP Traffic manager. ">
<polygon fill="white" stroke="black" points="606,-224.5 606,-243.5 689,-243.5 689,-224.5 606,-224.5"/>
<text text-anchor="middle" x="647.5" y="-231.5" font-family="Helvetica,sans-Serif" font-size="10.00">traffic_mngr.h</text>
</a>
</g>
</g>
<!-- Node17&#45;&gt;Node18 -->
<g id="edge8" class="edge"><title>Node17&#45;&gt;Node18</title>
<path fill="none" stroke="midnightblue" d="M647.5,-269.805C647.5,-260.91 647.5,-250.78 647.5,-243.751"/>
<polygon fill="midnightblue" stroke="midnightblue" points="644,-270.083 647.5,-280.083 651,-270.083 644,-270.083"/>
</g>
<!-- Node19 -->
<g id="node10" class="node"><title>Node19</title>
<g id="a_node10"><a xlink:href="api_2spec_2ipsec_8h.html" target="_top" xlink:title="ODP IPSEC API. ">
<polygon fill="white" stroke="black" points="596.5,-168.5 596.5,-187.5 646.5,-187.5 646.5,-168.5 596.5,-168.5"/>
<text text-anchor="middle" x="621.5" y="-175.5" font-family="Helvetica,sans-Serif" font-size="10.00">ipsec.h</text>
</a>
</g>
</g>
<!-- Node18&#45;&gt;Node19 -->
<g id="edge9" class="edge"><title>Node18&#45;&gt;Node19</title>
<path fill="none" stroke="midnightblue" d="M638.825,-214.983C634.412,-205.817 629.248,-195.092 625.713,-187.751"/>
<polygon fill="midnightblue" stroke="midnightblue" points="635.715,-216.591 643.207,-224.083 642.022,-213.555 635.715,-216.591"/>
</g>
<!-- Node21 -->
<g id="node12" class="node"><title>Node21</title>
<g id="a_node12"><a xlink:href="odp__api_8h.html" target="_top" xlink:title="The OpenDataPlane API. ">
<polygon fill="white" stroke="black" points="616,-56.5 616,-75.5 679,-75.5 679,-56.5 616,-56.5"/>
<text text-anchor="middle" x="647.5" y="-63.5" font-family="Helvetica,sans-Serif" font-size="10.00">odp_api.h</text>
</a>
</g>
</g>
<!-- Node18&#45;&gt;Node21 -->
<g id="edge13" class="edge"><title>Node18&#45;&gt;Node21</title>
<path fill="none" stroke="midnightblue" d="M651.531,-214.57C653.109,-206.464 654.724,-196.803 655.5,-188 658.468,-154.353 658.468,-145.647 655.5,-112 654.371,-99.195 651.467,-84.576 649.487,-75.5666"/>
<polygon fill="midnightblue" stroke="midnightblue" points="648.09,-213.931 649.487,-224.433 654.944,-215.352 648.09,-213.931"/>
</g>
<!-- Node20 -->
<g id="node11" class="node"><title>Node20</title>
<g id="a_node11"><a xlink:href="api_2ipsec_8h.html" target="_top" xlink:title="ODP IPSEC API &#45; platform specific header. ">
<polygon fill="white" stroke="black" points="596.5,-112.5 596.5,-131.5 646.5,-131.5 646.5,-112.5 596.5,-112.5"/>
<text text-anchor="middle" x="621.5" y="-119.5" font-family="Helvetica,sans-Serif" font-size="10.00">ipsec.h</text>
</a>
</g>
</g>
<!-- Node19&#45;&gt;Node20 -->
<g id="edge10" class="edge"><title>Node19&#45;&gt;Node20</title>
<path fill="none" stroke="midnightblue" d="M621.5,-157.805C621.5,-148.91 621.5,-138.78 621.5,-131.751"/>
<polygon fill="midnightblue" stroke="midnightblue" points="618,-158.083 621.5,-168.083 625,-158.083 618,-158.083"/>
</g>
<!-- Node20&#45;&gt;Node21 -->
<g id="edge11" class="edge"><title>Node20&#45;&gt;Node21</title>
<path fill="none" stroke="midnightblue" d="M630.175,-102.983C634.588,-93.8168 639.752,-83.0922 643.287,-75.7511"/>
<polygon fill="midnightblue" stroke="midnightblue" points="626.978,-101.555 625.793,-112.083 633.285,-104.591 626.978,-101.555"/>
</g>
<!-- Node22 -->
<g id="node13" class="node"><title>Node22</title>
<g id="a_node13"><a xlink:href="odp_8h.html" target="_top" xlink:title="WARNING: THIS FILE IS DEPRECATED AND WILL BE REMOVED!!! ODP APPLICATIONS SHOULD NOW INCLUDE odp_api...">
<polygon fill="white" stroke="black" points="625.5,-0.5 625.5,-19.5 669.5,-19.5 669.5,-0.5 625.5,-0.5"/>
<text text-anchor="middle" x="647.5" y="-7.5" font-family="Helvetica,sans-Serif" font-size="10.00">odp.h</text>
</a>
</g>
</g>
<!-- Node21&#45;&gt;Node22 -->
<g id="edge12" class="edge"><title>Node21&#45;&gt;Node22</title>
<path fill="none" stroke="midnightblue" d="M647.5,-45.8045C647.5,-36.9102 647.5,-26.7798 647.5,-19.7511"/>
<polygon fill="midnightblue" stroke="midnightblue" points="644,-46.083 647.5,-56.083 651,-46.083 644,-46.083"/>
</g>
</g>
</svg>
