<?xml version="1.0" encoding="UTF-8" standalone="no"?>
<!DOCTYPE svg PUBLIC "-//W3C//DTD SVG 1.1//EN"
 "http://www.w3.org/Graphics/SVG/1.1/DTD/svg11.dtd">
<!-- Generated by graphviz version 2.38.0 (20140413.2041)
 -->
<!-- Title: hash.h Pages: 1 -->
<svg width="409pt" height="364pt"
 viewBox="0.00 0.00 409.00 364.00" xmlns="http://www.w3.org/2000/svg" xmlns:xlink="http://www.w3.org/1999/xlink">
<g id="graph0" class="graph" transform="scale(1 1) rotate(0) translate(4 360)">
<title>hash.h</title>
<polygon fill="white" stroke="none" points="-4,4 -4,-360 405,-360 405,4 -4,4"/>
<!-- Node0 -->
<g id="node1" class="node"><title>Node0</title>
<polygon fill="#bfbfbf" stroke="black" points="99,-336.5 99,-355.5 148,-355.5 148,-336.5 99,-336.5"/>
<text text-anchor="middle" x="123.5" y="-343.5" font-family="Helvetica,sans-Serif" font-size="10.00">hash.h</text>
</g>
<!-- Node1 -->
<g id="node2" class="node"><title>Node1</title>
<polygon fill="white" stroke="#bfbfbf" points="8.5,-280.5 8.5,-299.5 112.5,-299.5 112.5,-280.5 8.5,-280.5"/>
<text text-anchor="middle" x="60.5" y="-287.5" font-family="Helvetica,sans-Serif" font-size="10.00">odp/api/abi/hash.h</text>
</g>
<!-- Node0&#45;&gt;Node1 -->
<g id="edge1" class="edge"><title>Node0&#45;&gt;Node1</title>
<path fill="none" stroke="midnightblue" d="M113.378,-336.324C103.974,-328.263 89.7559,-316.077 78.431,-306.369"/>
<polygon fill="midnightblue" stroke="midnightblue" points="80.6766,-303.684 70.8062,-299.834 76.121,-308.999 80.6766,-303.684"/>
</g>
<!-- Node2 -->
<g id="node3" class="node"><title>Node2</title>
<g id="a_node3"><a xlink:href="api_2spec_2hash_8h.html" target="_top" xlink:title="ODP Hash functions. ">
<polygon fill="white" stroke="black" points="131,-280.5 131,-299.5 244,-299.5 244,-280.5 131,-280.5"/>
<text text-anchor="middle" x="187.5" y="-287.5" font-family="Helvetica,sans-Serif" font-size="10.00">odp/api/spec/hash.h</text>
</a>
</g>
</g>
<!-- Node0&#45;&gt;Node2 -->
<g id="edge2" class="edge"><title>Node0&#45;&gt;Node2</title>
<path fill="none" stroke="midnightblue" d="M133.783,-336.324C143.336,-328.263 157.78,-316.077 169.284,-306.369"/>
<polygon fill="midnightblue" stroke="midnightblue" points="171.644,-308.958 177.03,-299.834 167.13,-303.608 171.644,-308.958"/>
</g>
<!-- Node3 -->
<g id="node4" class="node"><title>Node3</title>
<g id="a_node4"><a xlink:href="visibility__begin_8h_source.html" target="_top" xlink:title="odp/visibility_begin.h">
<polygon fill="white" stroke="black" points="0,-0.5 0,-19.5 115,-19.5 115,-0.5 0,-0.5"/>
<text text-anchor="middle" x="57.5" y="-7.5" font-family="Helvetica,sans-Serif" font-size="10.00">odp/visibility_begin.h</text>
</a>
</g>
</g>
<!-- Node2&#45;&gt;Node3 -->
<g id="edge3" class="edge"><title>Node2&#45;&gt;Node3</title>
<path fill="none" stroke="midnightblue" d="M144.236,-280.389C94.4586,-267.668 19.5,-238.615 19.5,-179 19.5,-179 19.5,-179 19.5,-121 19.5,-86.8131 36.1005,-49.7639 47.3573,-28.5707"/>
<polygon fill="midnightblue" stroke="midnightblue" points="50.4473,-30.2151 52.2163,-19.769 44.3191,-26.832 50.4473,-30.2151"/>
</g>
<!-- Node4 -->
<g id="node5" class="node"><title>Node4</title>
<g id="a_node5"><a xlink:href="api_2std__types_8h.html" target="_top" xlink:title="Standard C language types and definitions for ODP. ">
<polygon fill="white" stroke="black" points="132.5,-224.5 132.5,-243.5 242.5,-243.5 242.5,-224.5 132.5,-224.5"/>
<text text-anchor="middle" x="187.5" y="-231.5" font-family="Helvetica,sans-Serif" font-size="10.00">odp/api/std_types.h</text>
</a>
</g>
</g>
<!-- Node2&#45;&gt;Node4 -->
<g id="edge4" class="edge"><title>Node2&#45;&gt;Node4</title>
<path fill="none" stroke="midnightblue" d="M187.5,-280.083C187.5,-273.006 187.5,-262.861 187.5,-253.986"/>
<polygon fill="midnightblue" stroke="midnightblue" points="191,-253.751 187.5,-243.751 184,-253.751 191,-253.751"/>
</g>
<!-- Node11 -->
<g id="node12" class="node"><title>Node11</title>
<g id="a_node12"><a xlink:href="visibility__end_8h_source.html" target="_top" xlink:title="odp/visibility_end.h">
<polygon fill="white" stroke="black" points="294,-0.5 294,-19.5 401,-19.5 401,-0.5 294,-0.5"/>
<text text-anchor="middle" x="347.5" y="-7.5" font-family="Helvetica,sans-Serif" font-size="10.00">odp/visibility_end.h</text>
</a>
</g>
</g>
<!-- Node2&#45;&gt;Node11 -->
<g id="edge15" class="edge"><title>Node2&#45;&gt;Node11</title>
<path fill="none" stroke="midnightblue" d="M244.239,-281.878C302.747,-270.988 385.5,-244.081 385.5,-179 385.5,-179 385.5,-179 385.5,-121 385.5,-86.8131 368.9,-49.7639 357.643,-28.5707"/>
<polygon fill="midnightblue" stroke="midnightblue" points="360.681,-26.832 352.784,-19.769 354.553,-30.2151 360.681,-26.832"/>
</g>
<!-- Node5 -->
<g id="node6" class="node"><title>Node5</title>
<polygon fill="white" stroke="#bfbfbf" points="48.5,-168.5 48.5,-187.5 176.5,-187.5 176.5,-168.5 48.5,-168.5"/>
<text text-anchor="middle" x="112.5" y="-175.5" font-family="Helvetica,sans-Serif" font-size="10.00">odp/api/abi/std_types.h</text>
</g>
<!-- Node4&#45;&gt;Node5 -->
<g id="edge5" class="edge"><title>Node4&#45;&gt;Node5</title>
<path fill="none" stroke="midnightblue" d="M175.45,-224.324C164.037,-216.107 146.669,-203.602 133.065,-193.807"/>
<polygon fill="midnightblue" stroke="midnightblue" points="134.93,-190.837 124.769,-187.834 130.84,-196.517 134.93,-190.837"/>
</g>
<!-- Node6 -->
<g id="node7" class="node"><title>Node6</title>
<g id="a_node7"><a xlink:href="api_2spec_2std__types_8h.html" target="_top" xlink:title="Standard C language types and definitions for ODP. ">
<polygon fill="white" stroke="black" points="194.5,-168.5 194.5,-187.5 330.5,-187.5 330.5,-168.5 194.5,-168.5"/>
<text text-anchor="middle" x="262.5" y="-175.5" font-family="Helvetica,sans-Serif" font-size="10.00">odp/api/spec/std_types.h</text>
</a>
</g>
</g>
<!-- Node4&#45;&gt;Node6 -->
<g id="edge6" class="edge"><title>Node4&#45;&gt;Node6</title>
<path fill="none" stroke="midnightblue" d="M199.55,-224.324C210.963,-216.107 228.331,-203.602 241.935,-193.807"/>
<polygon fill="midnightblue" stroke="midnightblue" points="244.16,-196.517 250.231,-187.834 240.07,-190.837 244.16,-196.517"/>
</g>
<!-- Node6&#45;&gt;Node3 -->
<g id="edge7" class="edge"><title>Node6&#45;&gt;Node3</title>
<path fill="none" stroke="midnightblue" d="M229.142,-168.496C203.503,-161.105 167.802,-148.914 139.5,-132 107.343,-112.781 96.535,-107.655 76.5,-76 67.5598,-61.8746 62.6894,-43.3883 60.1259,-29.7429"/>
<polygon fill="midnightblue" stroke="midnightblue" points="63.5394,-28.9282 58.4764,-19.6214 56.6305,-30.0542 63.5394,-28.9282"/>
</g>
<!-- Node7 -->
<g id="node8" class="node"><title>Node7</title>
<polygon fill="white" stroke="#bfbfbf" points="148,-112.5 148,-131.5 201,-131.5 201,-112.5 148,-112.5"/>
<text text-anchor="middle" x="174.5" y="-119.5" font-family="Helvetica,sans-Serif" font-size="10.00">stdint.h</text>
</g>
<!-- Node6&#45;&gt;Node7 -->
<g id="edge8" class="edge"><title>Node6&#45;&gt;Node7</title>
<path fill="none" stroke="midnightblue" d="M248.361,-168.324C234.634,-159.9 213.564,-146.971 197.436,-137.074"/>
<polygon fill="midnightblue" stroke="midnightblue" points="198.957,-133.902 188.604,-131.655 195.296,-139.868 198.957,-133.902"/>
</g>
<!-- Node8 -->
<g id="node9" class="node"><title>Node8</title>
<g id="a_node9"><a xlink:href="api_2align_8h.html" target="_top" xlink:title="ODP alignments. ">
<polygon fill="white" stroke="black" points="219.5,-112.5 219.5,-131.5 305.5,-131.5 305.5,-112.5 219.5,-112.5"/>
<text text-anchor="middle" x="262.5" y="-119.5" font-family="Helvetica,sans-Serif" font-size="10.00">odp/api/align.h</text>
</a>
</g>
</g>
<!-- Node6&#45;&gt;Node8 -->
<g id="edge9" class="edge"><title>Node6&#45;&gt;Node8</title>
<path fill="none" stroke="midnightblue" d="M262.5,-168.083C262.5,-161.006 262.5,-150.861 262.5,-141.986"/>
<polygon fill="midnightblue" stroke="midnightblue" points="266,-141.751 262.5,-131.751 259,-141.751 266,-141.751"/>
</g>
<!-- Node6&#45;&gt;Node11 -->
<g id="edge14" class="edge"><title>Node6&#45;&gt;Node11</title>
<path fill="none" stroke="midnightblue" d="M276.486,-168.358C288.313,-160.342 304.832,-147.357 314.5,-132 334.829,-99.7076 342.79,-54.9245 345.789,-29.8847"/>
<polygon fill="midnightblue" stroke="midnightblue" points="349.305,-29.9127 346.87,-19.6015 342.344,-29.1806 349.305,-29.9127"/>
</g>
<!-- Node9 -->
<g id="node10" class="node"><title>Node9</title>
<polygon fill="white" stroke="#bfbfbf" points="85.5,-56.5 85.5,-75.5 189.5,-75.5 189.5,-56.5 85.5,-56.5"/>
<text text-anchor="middle" x="137.5" y="-63.5" font-family="Helvetica,sans-Serif" font-size="10.00">odp/api/abi/align.h</text>
</g>
<!-- Node8&#45;&gt;Node9 -->
<g id="edge10" class="edge"><title>Node8&#45;&gt;Node9</title>
<path fill="none" stroke="midnightblue" d="M242.693,-112.444C222.213,-103.596 190.017,-89.6875 166.635,-79.5865"/>
<polygon fill="midnightblue" stroke="midnightblue" points="167.782,-76.2692 157.214,-75.5164 165.006,-82.6953 167.782,-76.2692"/>
</g>
<!-- Node10 -->
<g id="node11" class="node"><title>Node10</title>
<g id="a_node11"><a xlink:href="api_2spec_2align_8h.html" target="_top" xlink:title="ODP alignments. ">
<polygon fill="white" stroke="black" points="207.5,-56.5 207.5,-75.5 319.5,-75.5 319.5,-56.5 207.5,-56.5"/>
<text text-anchor="middle" x="263.5" y="-63.5" font-family="Helvetica,sans-Serif" font-size="10.00">odp/api/spec/align.h</text>
</a>
</g>
</g>
<!-- Node8&#45;&gt;Node10 -->
<g id="edge11" class="edge"><title>Node8&#45;&gt;Node10</title>
<path fill="none" stroke="midnightblue" d="M262.665,-112.083C262.796,-105.006 262.984,-94.8611 263.148,-85.9865"/>
<polygon fill="midnightblue" stroke="midnightblue" points="266.652,-85.8142 263.338,-75.7511 259.653,-85.6845 266.652,-85.8142"/>
</g>
<!-- Node10&#45;&gt;Node3 -->
<g id="edge12" class="edge"><title>Node10&#45;&gt;Node3</title>
<path fill="none" stroke="midnightblue" d="M230.859,-56.4435C195.45,-47.1616 138.791,-32.3093 99.9473,-22.127"/>
<polygon fill="midnightblue" stroke="midnightblue" points="100.549,-18.6666 89.9886,-19.5164 98.7743,-25.4378 100.549,-18.6666"/>
</g>
<!-- Node10&#45;&gt;Node11 -->
<g id="edge13" class="edge"><title>Node10&#45;&gt;Node11</title>
<path fill="none" stroke="midnightblue" d="M276.996,-56.324C290.1,-47.9002 310.212,-34.9709 325.607,-25.0741"/>
<polygon fill="midnightblue" stroke="midnightblue" points="327.518,-28.0063 334.037,-19.6545 323.733,-22.118 327.518,-28.0063"/>
</g>
</g>
</svg>
