<?xml version="1.0" encoding="UTF-8" standalone="no"?>
<!DOCTYPE svg PUBLIC "-//W3C//DTD SVG 1.1//EN"
 "http://www.w3.org/Graphics/SVG/1.1/DTD/svg11.dtd">
<!-- Generated by graphviz version 2.38.0 (20140413.2041)
 -->
<!-- Title: schedule_types.h Pages: 1 -->
<svg width="461pt" height="644pt"
 viewBox="0.00 0.00 460.58 644.00" xmlns="http://www.w3.org/2000/svg" xmlns:xlink="http://www.w3.org/1999/xlink">
<g id="graph0" class="graph" transform="scale(1 1) rotate(0) translate(4 640)">
<title>schedule_types.h</title>
<polygon fill="white" stroke="none" points="-4,4 -4,-640 456.575,-640 456.575,4 -4,4"/>
<!-- Node7 -->
<g id="node1" class="node"><title>Node7</title>
<polygon fill="#bfbfbf" stroke="black" points="332.575,-616.5 332.575,-635.5 432.575,-635.5 432.575,-616.5 332.575,-616.5"/>
<text text-anchor="middle" x="382.575" y="-623.5" font-family="Helvetica,sans-Serif" font-size="10.00">schedule_types.h</text>
</g>
<!-- Node8 -->
<g id="node2" class="node"><title>Node8</title>
<g id="a_node2"><a xlink:href="queue__types_8h.html" target="_top" xlink:title="ODP queue types. ">
<polygon fill="white" stroke="black" points="303.075,-560.5 303.075,-579.5 390.075,-579.5 390.075,-560.5 303.075,-560.5"/>
<text text-anchor="middle" x="346.575" y="-567.5" font-family="Helvetica,sans-Serif" font-size="10.00">queue_types.h</text>
</a>
</g>
</g>
<!-- Node7&#45;&gt;Node8 -->
<g id="edge1" class="edge"><title>Node7&#45;&gt;Node8</title>
<path fill="none" stroke="midnightblue" d="M370.953,-607.566C364.759,-598.275 357.408,-587.248 352.41,-579.751"/>
<polygon fill="midnightblue" stroke="midnightblue" points="368.172,-609.704 376.631,-616.083 373.996,-605.821 368.172,-609.704"/>
</g>
<!-- Node22 -->
<g id="node16" class="node"><title>Node22</title>
<g id="a_node16"><a xlink:href="api_2spec_2schedule_8h.html" target="_top" xlink:title="ODP schedule. ">
<polygon fill="white" stroke="black" points="384.575,-392.5 384.575,-411.5 452.575,-411.5 452.575,-392.5 384.575,-392.5"/>
<text text-anchor="middle" x="418.575" y="-399.5" font-family="Helvetica,sans-Serif" font-size="10.00">schedule.h</text>
</a>
</g>
</g>
<!-- Node7&#45;&gt;Node22 -->
<g id="edge26" class="edge"><title>Node7&#45;&gt;Node22</title>
<path fill="none" stroke="midnightblue" d="M390.145,-606.729C393.205,-598.662 396.499,-588.988 398.575,-580 413.265,-516.424 417.326,-437.406 418.3,-411.591"/>
<polygon fill="midnightblue" stroke="midnightblue" points="386.816,-605.629 386.378,-616.215 393.322,-608.213 386.816,-605.629"/>
</g>
<!-- Node9 -->
<g id="node3" class="node"><title>Node9</title>
<g id="a_node3"><a xlink:href="api_2spec_2queue_8h.html" target="_top" xlink:title="ODP queue. ">
<polygon fill="white" stroke="black" points="318.575,-504.5 318.575,-523.5 374.575,-523.5 374.575,-504.5 318.575,-504.5"/>
<text text-anchor="middle" x="346.575" y="-511.5" font-family="Helvetica,sans-Serif" font-size="10.00">queue.h</text>
</a>
</g>
</g>
<!-- Node8&#45;&gt;Node9 -->
<g id="edge2" class="edge"><title>Node8&#45;&gt;Node9</title>
<path fill="none" stroke="midnightblue" d="M346.575,-549.805C346.575,-540.91 346.575,-530.78 346.575,-523.751"/>
<polygon fill="midnightblue" stroke="midnightblue" points="343.076,-550.083 346.575,-560.083 350.076,-550.083 343.076,-550.083"/>
</g>
<!-- Node10 -->
<g id="node4" class="node"><title>Node10</title>
<g id="a_node4"><a xlink:href="api_2queue_8h.html" target="_top" xlink:title="ODP queue. ">
<polygon fill="white" stroke="black" points="318.575,-448.5 318.575,-467.5 374.575,-467.5 374.575,-448.5 318.575,-448.5"/>
<text text-anchor="middle" x="346.575" y="-455.5" font-family="Helvetica,sans-Serif" font-size="10.00">queue.h</text>
</a>
</g>
</g>
<!-- Node9&#45;&gt;Node10 -->
<g id="edge3" class="edge"><title>Node9&#45;&gt;Node10</title>
<path fill="none" stroke="midnightblue" d="M346.575,-493.805C346.575,-484.91 346.575,-474.78 346.575,-467.751"/>
<polygon fill="midnightblue" stroke="midnightblue" points="343.076,-494.083 346.575,-504.083 350.076,-494.083 343.076,-494.083"/>
</g>
<!-- Node11 -->
<g id="node5" class="node"><title>Node11</title>
<g id="a_node5"><a xlink:href="api_2crypto_8h.html" target="_top" xlink:title="ODP crypto. ">
<polygon fill="white" stroke="black" points="272.575,-224.5 272.575,-243.5 328.575,-243.5 328.575,-224.5 272.575,-224.5"/>
<text text-anchor="middle" x="300.575" y="-231.5" font-family="Helvetica,sans-Serif" font-size="10.00">crypto.h</text>
</a>
</g>
</g>
<!-- Node10&#45;&gt;Node11 -->
<g id="edge4" class="edge"><title>Node10&#45;&gt;Node11</title>
<path fill="none" stroke="midnightblue" d="M342.7,-438.295C333.24,-392.644 309.248,-276.854 302.416,-243.884"/>
<polygon fill="midnightblue" stroke="midnightblue" points="339.316,-439.216 344.772,-448.297 346.17,-437.795 339.316,-439.216"/>
</g>
<!-- Node14 -->
<g id="node8" class="node"><title>Node14</title>
<g id="a_node8"><a xlink:href="odp__api_8h.html" target="_top" xlink:title="The OpenDataPlane API. ">
<polygon fill="white" stroke="black" points="207.075,-56.5 207.075,-75.5 270.075,-75.5 270.075,-56.5 207.075,-56.5"/>
<text text-anchor="middle" x="238.575" y="-63.5" font-family="Helvetica,sans-Serif" font-size="10.00">odp_api.h</text>
</a>
</g>
</g>
<!-- Node10&#45;&gt;Node14 -->
<g id="edge25" class="edge"><title>Node10&#45;&gt;Node14</title>
<path fill="none" stroke="midnightblue" d="M349.317,-438.298C352.277,-416.448 356.575,-379.184 356.575,-347 356.575,-347 356.575,-347 356.575,-177 356.575,-125.047 294.619,-90.6289 260.494,-75.6121"/>
<polygon fill="midnightblue" stroke="midnightblue" points="345.814,-438.075 347.883,-448.466 352.745,-439.053 345.814,-438.075"/>
</g>
<!-- Node16 -->
<g id="node10" class="node"><title>Node16</title>
<g id="a_node10"><a xlink:href="api_2spec_2packet__io_8h.html" target="_top" xlink:title="ODP Packet IO. ">
<polygon fill="white" stroke="black" points="170.075,-392.5 170.075,-411.5 241.075,-411.5 241.075,-392.5 170.075,-392.5"/>
<text text-anchor="middle" x="205.575" y="-399.5" font-family="Helvetica,sans-Serif" font-size="10.00">packet_io.h</text>
</a>
</g>
</g>
<!-- Node10&#45;&gt;Node16 -->
<g id="edge10" class="edge"><title>Node10&#45;&gt;Node16</title>
<path fill="none" stroke="midnightblue" d="M314.647,-444.772C288.161,-434.629 251.183,-420.467 227.813,-411.516"/>
<polygon fill="midnightblue" stroke="midnightblue" points="313.643,-448.136 324.234,-448.444 316.147,-441.599 313.643,-448.136"/>
</g>
<!-- Node10&#45;&gt;Node22 -->
<g id="edge22" class="edge"><title>Node10&#45;&gt;Node22</title>
<path fill="none" stroke="midnightblue" d="M366.441,-442.101C379.399,-432.382 395.873,-420.027 406.797,-411.834"/>
<polygon fill="midnightblue" stroke="midnightblue" points="364.044,-439.524 358.143,-448.324 368.244,-445.124 364.044,-439.524"/>
</g>
<!-- Node12 -->
<g id="node6" class="node"><title>Node12</title>
<g id="a_node6"><a xlink:href="api_2spec_2ipsec_8h.html" target="_top" xlink:title="ODP IPSEC API. ">
<polygon fill="white" stroke="black" points="213.575,-168.5 213.575,-187.5 263.575,-187.5 263.575,-168.5 213.575,-168.5"/>
<text text-anchor="middle" x="238.575" y="-175.5" font-family="Helvetica,sans-Serif" font-size="10.00">ipsec.h</text>
</a>
</g>
</g>
<!-- Node11&#45;&gt;Node12 -->
<g id="edge5" class="edge"><title>Node11&#45;&gt;Node12</title>
<path fill="none" stroke="midnightblue" d="M282.822,-217.537C271.767,-207.909 257.944,-195.869 248.718,-187.834"/>
<polygon fill="midnightblue" stroke="midnightblue" points="280.774,-220.395 290.614,-224.324 285.372,-215.117 280.774,-220.395"/>
</g>
<!-- Node11&#45;&gt;Node14 -->
<g id="edge9" class="edge"><title>Node11&#45;&gt;Node14</title>
<path fill="none" stroke="midnightblue" d="M298.707,-214.332C295.72,-189.865 288.497,-146.063 272.575,-112 266.025,-97.9844 254.609,-84.1279 246.828,-75.5729"/>
<polygon fill="midnightblue" stroke="midnightblue" points="295.241,-214.835 299.825,-224.387 302.198,-214.061 295.241,-214.835"/>
</g>
<!-- Node13 -->
<g id="node7" class="node"><title>Node13</title>
<g id="a_node7"><a xlink:href="api_2ipsec_8h.html" target="_top" xlink:title="ODP IPSEC API &#45; platform specific header. ">
<polygon fill="white" stroke="black" points="213.575,-112.5 213.575,-131.5 263.575,-131.5 263.575,-112.5 213.575,-112.5"/>
<text text-anchor="middle" x="238.575" y="-119.5" font-family="Helvetica,sans-Serif" font-size="10.00">ipsec.h</text>
</a>
</g>
</g>
<!-- Node12&#45;&gt;Node13 -->
<g id="edge6" class="edge"><title>Node12&#45;&gt;Node13</title>
<path fill="none" stroke="midnightblue" d="M238.575,-157.805C238.575,-148.91 238.575,-138.78 238.575,-131.751"/>
<polygon fill="midnightblue" stroke="midnightblue" points="235.076,-158.083 238.575,-168.083 242.076,-158.083 235.076,-158.083"/>
</g>
<!-- Node13&#45;&gt;Node14 -->
<g id="edge7" class="edge"><title>Node13&#45;&gt;Node14</title>
<path fill="none" stroke="midnightblue" d="M238.575,-101.805C238.575,-92.9102 238.575,-82.7798 238.575,-75.7511"/>
<polygon fill="midnightblue" stroke="midnightblue" points="235.076,-102.083 238.575,-112.083 242.076,-102.083 235.076,-102.083"/>
</g>
<!-- Node15 -->
<g id="node9" class="node"><title>Node15</title>
<g id="a_node9"><a xlink:href="odp_8h.html" target="_top" xlink:title="WARNING: THIS FILE IS DEPRECATED AND WILL BE REMOVED!!! ODP APPLICATIONS SHOULD NOW INCLUDE odp_api...">
<polygon fill="white" stroke="black" points="216.575,-0.5 216.575,-19.5 260.575,-19.5 260.575,-0.5 216.575,-0.5"/>
<text text-anchor="middle" x="238.575" y="-7.5" font-family="Helvetica,sans-Serif" font-size="10.00">odp.h</text>
</a>
</g>
</g>
<!-- Node14&#45;&gt;Node15 -->
<g id="edge8" class="edge"><title>Node14&#45;&gt;Node15</title>
<path fill="none" stroke="midnightblue" d="M238.575,-45.8045C238.575,-36.9102 238.575,-26.7798 238.575,-19.7511"/>
<polygon fill="midnightblue" stroke="midnightblue" points="235.076,-46.083 238.575,-56.083 242.076,-46.083 235.076,-46.083"/>
</g>
<!-- Node17 -->
<g id="node11" class="node"><title>Node17</title>
<g id="a_node11"><a xlink:href="api_2packet__io_8h.html" target="_top" xlink:title="ODP Packet IO. ">
<polygon fill="white" stroke="black" points="139.075,-336.5 139.075,-355.5 210.075,-355.5 210.075,-336.5 139.075,-336.5"/>
<text text-anchor="middle" x="174.575" y="-343.5" font-family="Helvetica,sans-Serif" font-size="10.00">packet_io.h</text>
</a>
</g>
</g>
<!-- Node16&#45;&gt;Node17 -->
<g id="edge11" class="edge"><title>Node16&#45;&gt;Node17</title>
<path fill="none" stroke="midnightblue" d="M195.4,-383.275C190.102,-374.045 183.858,-363.17 179.599,-355.751"/>
<polygon fill="midnightblue" stroke="midnightblue" points="192.442,-385.153 200.456,-392.083 198.513,-381.668 192.442,-385.153"/>
</g>
<!-- Node17&#45;&gt;Node12 -->
<g id="edge16" class="edge"><title>Node17&#45;&gt;Node12</title>
<path fill="none" stroke="midnightblue" d="M197.198,-330.382C207.289,-322.618 218.297,-312.161 224.575,-300 244.269,-261.855 241.533,-208.121 239.556,-187.507"/>
<polygon fill="midnightblue" stroke="midnightblue" points="195.125,-327.562 189.06,-336.25 199.219,-333.24 195.125,-327.562"/>
</g>
<!-- Node17&#45;&gt;Node14 -->
<g id="edge21" class="edge"><title>Node17&#45;&gt;Node14</title>
<path fill="none" stroke="midnightblue" d="M128.643,-343.145C94.2389,-339.328 48.3316,-328.704 19.5755,-300 -1.72636,-278.737 0.575452,-265.098 0.575452,-235 0.575452,-235 0.575452,-235 0.575452,-177 0.575452,-87.0995 142.23,-70.442 206.971,-67.5235"/>
<polygon fill="midnightblue" stroke="midnightblue" points="128.632,-346.66 138.919,-344.124 129.296,-339.691 128.632,-346.66"/>
</g>
<!-- Node18 -->
<g id="node12" class="node"><title>Node18</title>
<g id="a_node12"><a xlink:href="api_2spec_2classification_8h.html" target="_top" xlink:title="ODP classification descriptor. ">
<polygon fill="white" stroke="black" points="28.5755,-280.5 28.5755,-299.5 114.575,-299.5 114.575,-280.5 28.5755,-280.5"/>
<text text-anchor="middle" x="71.5755" y="-287.5" font-family="Helvetica,sans-Serif" font-size="10.00">classification.h</text>
</a>
</g>
</g>
<!-- Node17&#45;&gt;Node18 -->
<g id="edge12" class="edge"><title>Node17&#45;&gt;Node18</title>
<path fill="none" stroke="midnightblue" d="M148.996,-331.59C129.952,-321.605 104.511,-308.267 88.0831,-299.655"/>
<polygon fill="midnightblue" stroke="midnightblue" points="147.545,-334.78 158.027,-336.324 150.795,-328.581 147.545,-334.78"/>
</g>
<!-- Node20 -->
<g id="node14" class="node"><title>Node20</title>
<g id="a_node14"><a xlink:href="api_2spec_2traffic__mngr_8h.html" target="_top" xlink:title="Copyright (c) 2015&#45;2018, Linaro Limited All rights reserved. ">
<polygon fill="white" stroke="black" points="133.075,-280.5 133.075,-299.5 216.075,-299.5 216.075,-280.5 133.075,-280.5"/>
<text text-anchor="middle" x="174.575" y="-287.5" font-family="Helvetica,sans-Serif" font-size="10.00">traffic_mngr.h</text>
</a>
</g>
</g>
<!-- Node17&#45;&gt;Node20 -->
<g id="edge17" class="edge"><title>Node17&#45;&gt;Node20</title>
<path fill="none" stroke="midnightblue" d="M174.575,-325.805C174.575,-316.91 174.575,-306.78 174.575,-299.751"/>
<polygon fill="midnightblue" stroke="midnightblue" points="171.076,-326.083 174.575,-336.083 178.076,-326.083 171.076,-326.083"/>
</g>
<!-- Node19 -->
<g id="node13" class="node"><title>Node19</title>
<g id="a_node13"><a xlink:href="api_2classification_8h.html" target="_top" xlink:title="ODP classification descriptor. ">
<polygon fill="white" stroke="black" points="28.5755,-224.5 28.5755,-243.5 114.575,-243.5 114.575,-224.5 28.5755,-224.5"/>
<text text-anchor="middle" x="71.5755" y="-231.5" font-family="Helvetica,sans-Serif" font-size="10.00">classification.h</text>
</a>
</g>
</g>
<!-- Node18&#45;&gt;Node19 -->
<g id="edge13" class="edge"><title>Node18&#45;&gt;Node19</title>
<path fill="none" stroke="midnightblue" d="M71.5755,-269.805C71.5755,-260.91 71.5755,-250.78 71.5755,-243.751"/>
<polygon fill="midnightblue" stroke="midnightblue" points="68.0755,-270.083 71.5755,-280.083 75.0755,-270.083 68.0755,-270.083"/>
</g>
<!-- Node19&#45;&gt;Node12 -->
<g id="edge14" class="edge"><title>Node19&#45;&gt;Node12</title>
<path fill="none" stroke="midnightblue" d="M107.865,-221.266C139.737,-210.96 185.277,-196.234 213.331,-187.163"/>
<polygon fill="midnightblue" stroke="midnightblue" points="106.475,-218.037 98.0371,-224.444 108.629,-224.697 106.475,-218.037"/>
</g>
<!-- Node19&#45;&gt;Node14 -->
<g id="edge15" class="edge"><title>Node19&#45;&gt;Node14</title>
<path fill="none" stroke="midnightblue" d="M88.0225,-216.651C122.944,-181.939 203.467,-101.898 229.956,-75.5681"/>
<polygon fill="midnightblue" stroke="midnightblue" points="85.179,-214.543 80.5541,-224.075 90.1138,-219.508 85.179,-214.543"/>
</g>
<!-- Node21 -->
<g id="node15" class="node"><title>Node21</title>
<g id="a_node15"><a xlink:href="api_2traffic__mngr_8h.html" target="_top" xlink:title="ODP Traffic manager. ">
<polygon fill="white" stroke="black" points="133.075,-224.5 133.075,-243.5 216.075,-243.5 216.075,-224.5 133.075,-224.5"/>
<text text-anchor="middle" x="174.575" y="-231.5" font-family="Helvetica,sans-Serif" font-size="10.00">traffic_mngr.h</text>
</a>
</g>
</g>
<!-- Node20&#45;&gt;Node21 -->
<g id="edge18" class="edge"><title>Node20&#45;&gt;Node21</title>
<path fill="none" stroke="midnightblue" d="M174.575,-269.805C174.575,-260.91 174.575,-250.78 174.575,-243.751"/>
<polygon fill="midnightblue" stroke="midnightblue" points="171.076,-270.083 174.575,-280.083 178.076,-270.083 171.076,-270.083"/>
</g>
<!-- Node21&#45;&gt;Node12 -->
<g id="edge19" class="edge"><title>Node21&#45;&gt;Node12</title>
<path fill="none" stroke="midnightblue" d="M192.567,-217.82C204.033,-208.145 218.489,-195.948 228.106,-187.834"/>
<polygon fill="midnightblue" stroke="midnightblue" points="190.244,-215.2 184.858,-224.324 194.758,-220.55 190.244,-215.2"/>
</g>
<!-- Node21&#45;&gt;Node14 -->
<g id="edge20" class="edge"><title>Node21&#45;&gt;Node14</title>
<path fill="none" stroke="midnightblue" d="M176.825,-214.333C180.295,-189.866 188.328,-146.065 204.575,-112 211.236,-98.036 222.626,-84.1674 230.371,-75.5956"/>
<polygon fill="midnightblue" stroke="midnightblue" points="173.336,-214.017 175.505,-224.387 180.277,-214.928 173.336,-214.017"/>
</g>
<!-- Node23 -->
<g id="node17" class="node"><title>Node23</title>
<g id="a_node17"><a xlink:href="api_2schedule_8h.html" target="_top" xlink:title="ODP schedule. ">
<polygon fill="white" stroke="black" points="384.575,-168.5 384.575,-187.5 452.575,-187.5 452.575,-168.5 384.575,-168.5"/>
<text text-anchor="middle" x="418.575" y="-175.5" font-family="Helvetica,sans-Serif" font-size="10.00">schedule.h</text>
</a>
</g>
</g>
<!-- Node22&#45;&gt;Node23 -->
<g id="edge23" class="edge"><title>Node22&#45;&gt;Node23</title>
<path fill="none" stroke="midnightblue" d="M418.575,-382.295C418.575,-336.644 418.575,-220.854 418.575,-187.884"/>
<polygon fill="midnightblue" stroke="midnightblue" points="415.076,-382.297 418.575,-392.297 422.076,-382.297 415.076,-382.297"/>
</g>
<!-- Node23&#45;&gt;Node14 -->
<g id="edge24" class="edge"><title>Node23&#45;&gt;Node14</title>
<path fill="none" stroke="midnightblue" d="M409.353,-159.041C401.028,-144.471 387.501,-124.383 370.575,-112 340.386,-89.9123 298.557,-78.0948 270.135,-72.196"/>
<polygon fill="midnightblue" stroke="midnightblue" points="406.416,-160.966 414.264,-168.084 412.568,-157.626 406.416,-160.966"/>
</g>
</g>
</svg>
