<?xml version="1.0" encoding="UTF-8" standalone="no"?>
<!DOCTYPE svg PUBLIC "-//W3C//DTD SVG 1.1//EN"
 "http://www.w3.org/Graphics/SVG/1.1/DTD/svg11.dtd">
<!-- Generated by graphviz version 2.38.0 (20140413.2041)
 -->
<!-- Title: schedule.h Pages: 1 -->
<svg width="1417pt" height="722pt"
 viewBox="0.00 0.00 1417.00 722.00" xmlns="http://www.w3.org/2000/svg" xmlns:xlink="http://www.w3.org/1999/xlink">
<g id="graph0" class="graph" transform="scale(1 1) rotate(0) translate(4 718)">
<title>schedule.h</title>
<polygon fill="white" stroke="none" points="-4,4 -4,-718 1413,-718 1413,4 -4,4"/>
<!-- Node0 -->
<g id="node1" class="node"><title>Node0</title>
<polygon fill="#bfbfbf" stroke="black" points="808,-694.5 808,-713.5 876,-713.5 876,-694.5 808,-694.5"/>
<text text-anchor="middle" x="842" y="-701.5" font-family="Helvetica,sans-Serif" font-size="10.00">schedule.h</text>
</g>
<!-- Node1 -->
<g id="node2" class="node"><title>Node1</title>
<g id="a_node2"><a xlink:href="visibility__begin_8h_source.html" target="_top" xlink:title="odp/visibility_begin.h">
<polygon fill="white" stroke="black" points="505.5,-0.5 505.5,-19.5 620.5,-19.5 620.5,-0.5 505.5,-0.5"/>
<text text-anchor="middle" x="563" y="-7.5" font-family="Helvetica,sans-Serif" font-size="10.00">odp/visibility_begin.h</text>
</a>
</g>
</g>
<!-- Node0&#45;&gt;Node1 -->
<g id="edge1" class="edge"><title>Node0&#45;&gt;Node1</title>
<path fill="none" stroke="midnightblue" d="M807.592,-702.852C682.149,-702.003 249.819,-696.303 118,-658 60.5033,-641.293 0,-652.875 0,-593 0,-593 0,-593 0,-121 0,-21.19 345.14,-10.2417 494.953,-10.1909"/>
<polygon fill="midnightblue" stroke="midnightblue" points="495.39,-13.6914 505.395,-10.205 495.4,-6.69139 495.39,-13.6914"/>
</g>
<!-- Node2 -->
<g id="node3" class="node"><title>Node2</title>
<g id="a_node3"><a xlink:href="api_2std__types_8h.html" target="_top" xlink:title="Standard C language types and definitions for ODP. ">
<polygon fill="white" stroke="black" points="346,-235.5 346,-254.5 456,-254.5 456,-235.5 346,-235.5"/>
<text text-anchor="middle" x="401" y="-242.5" font-family="Helvetica,sans-Serif" font-size="10.00">odp/api/std_types.h</text>
</a>
</g>
</g>
<!-- Node0&#45;&gt;Node2 -->
<g id="edge2" class="edge"><title>Node0&#45;&gt;Node2</title>
<path fill="none" stroke="midnightblue" d="M807.967,-701.988C654.937,-696.998 38,-671.983 38,-593 38,-593 38,-593 38,-367 38,-332.183 31.0074,-314.165 57,-291 97.0085,-255.343 247.619,-247.514 335.732,-246.055"/>
<polygon fill="midnightblue" stroke="midnightblue" points="335.945,-249.552 345.894,-245.91 335.845,-242.553 335.945,-249.552"/>
</g>
<!-- Node9 -->
<g id="node10" class="node"><title>Node9</title>
<g id="a_node10"><a xlink:href="visibility__end_8h_source.html" target="_top" xlink:title="odp/visibility_end.h">
<polygon fill="white" stroke="black" points="1112.5,-0.5 1112.5,-19.5 1219.5,-19.5 1219.5,-0.5 1112.5,-0.5"/>
<text text-anchor="middle" x="1166" y="-7.5" font-family="Helvetica,sans-Serif" font-size="10.00">odp/visibility_end.h</text>
</a>
</g>
</g>
<!-- Node0&#45;&gt;Node9 -->
<g id="edge67" class="edge"><title>Node0&#45;&gt;Node9</title>
<path fill="none" stroke="midnightblue" d="M876.192,-703.678C998.778,-705.208 1409,-702.172 1409,-593 1409,-593 1409,-593 1409,-121 1409,-42.3242 1301.98,-19.6273 1229.98,-13.2599"/>
<polygon fill="midnightblue" stroke="midnightblue" points="1229.87,-9.74049 1219.63,-12.4342 1229.32,-16.7183 1229.87,-9.74049"/>
</g>
<!-- Node10 -->
<g id="node11" class="node"><title>Node10</title>
<g id="a_node11"><a xlink:href="api_2event_8h.html" target="_top" xlink:title="ODP event. ">
<polygon fill="white" stroke="black" points="914.5,-526.5 914.5,-545.5 1005.5,-545.5 1005.5,-526.5 914.5,-526.5"/>
<text text-anchor="middle" x="960" y="-533.5" font-family="Helvetica,sans-Serif" font-size="10.00">odp/api/event.h</text>
</a>
</g>
</g>
<!-- Node0&#45;&gt;Node10 -->
<g id="edge13" class="edge"><title>Node0&#45;&gt;Node10</title>
<path fill="none" stroke="midnightblue" d="M855.808,-694.353C868.067,-686.15 885.867,-672.89 898,-658 924.365,-625.642 943.889,-580.253 953.444,-555.275"/>
<polygon fill="midnightblue" stroke="midnightblue" points="956.823,-556.228 957.02,-545.635 950.26,-553.793 956.823,-556.228"/>
</g>
<!-- Node22 -->
<g id="node23" class="node"><title>Node22</title>
<g id="a_node23"><a xlink:href="api_2queue_8h.html" target="_top" xlink:title="ODP queue. ">
<polygon fill="white" stroke="black" points="795,-638.5 795,-657.5 889,-657.5 889,-638.5 795,-638.5"/>
<text text-anchor="middle" x="842" y="-645.5" font-family="Helvetica,sans-Serif" font-size="10.00">odp/api/queue.h</text>
</a>
</g>
</g>
<!-- Node0&#45;&gt;Node22 -->
<g id="edge34" class="edge"><title>Node0&#45;&gt;Node22</title>
<path fill="none" stroke="midnightblue" d="M842,-694.083C842,-687.006 842,-676.861 842,-667.986"/>
<polygon fill="midnightblue" stroke="midnightblue" points="845.5,-667.751 842,-657.751 838.5,-667.751 845.5,-667.751"/>
</g>
<!-- Node26 -->
<g id="node27" class="node"><title>Node26</title>
<g id="a_node27"><a xlink:href="api_2schedule__types_8h.html" target="_top" xlink:title="ODP schedule. ">
<polygon fill="white" stroke="black" points="1167,-235.5 1167,-254.5 1305,-254.5 1305,-235.5 1167,-235.5"/>
<text text-anchor="middle" x="1236" y="-242.5" font-family="Helvetica,sans-Serif" font-size="10.00">odp/api/schedule_types.h</text>
</a>
</g>
</g>
<!-- Node0&#45;&gt;Node26 -->
<g id="edge60" class="edge"><title>Node0&#45;&gt;Node26</title>
<path fill="none" stroke="midnightblue" d="M876.049,-702.027C981.399,-698.105 1295,-679.192 1295,-593 1295,-593 1295,-593 1295,-367 1295,-332.183 1292.26,-321.789 1276,-291 1270.29,-280.185 1261.44,-269.856 1253.52,-261.828"/>
<polygon fill="midnightblue" stroke="midnightblue" points="1255.69,-259.054 1246.06,-254.634 1250.83,-264.094 1255.69,-259.054"/>
</g>
<!-- Node33 -->
<g id="node34" class="node"><title>Node33</title>
<g id="a_node34"><a xlink:href="api_2thrmask_8h.html" target="_top" xlink:title="ODP thread masks. ">
<polygon fill="white" stroke="black" points="105,-358.5 105,-377.5 209,-377.5 209,-358.5 105,-358.5"/>
<text text-anchor="middle" x="157" y="-365.5" font-family="Helvetica,sans-Serif" font-size="10.00">odp/api/thrmask.h</text>
</a>
</g>
</g>
<!-- Node0&#45;&gt;Node33 -->
<g id="edge61" class="edge"><title>Node0&#45;&gt;Node33</title>
<path fill="none" stroke="midnightblue" d="M807.699,-700.986C671.73,-692.551 178,-657.486 178,-593 178,-593 178,-593 178,-479 178,-446.384 168.982,-409.278 162.765,-387.573"/>
<polygon fill="midnightblue" stroke="midnightblue" points="166.043,-386.316 159.832,-377.732 159.334,-388.315 166.043,-386.316"/>
</g>
<!-- Node3 -->
<g id="node4" class="node"><title>Node3</title>
<polygon fill="white" stroke="#bfbfbf" points="346,-174 346,-193 474,-193 474,-174 346,-174"/>
<text text-anchor="middle" x="410" y="-181" font-family="Helvetica,sans-Serif" font-size="10.00">odp/api/abi/std_types.h</text>
</g>
<!-- Node2&#45;&gt;Node3 -->
<g id="edge3" class="edge"><title>Node2&#45;&gt;Node3</title>
<path fill="none" stroke="midnightblue" d="M402.289,-235.475C403.559,-227.08 405.541,-213.981 407.177,-203.163"/>
<polygon fill="midnightblue" stroke="midnightblue" points="410.678,-203.42 408.713,-193.009 403.757,-202.373 410.678,-203.42"/>
</g>
<!-- Node4 -->
<g id="node5" class="node"><title>Node4</title>
<g id="a_node5"><a xlink:href="api_2spec_2std__types_8h.html" target="_top" xlink:title="Standard C language types and definitions for ODP. ">
<polygon fill="white" stroke="black" points="154,-174 154,-193 290,-193 290,-174 154,-174"/>
<text text-anchor="middle" x="222" y="-181" font-family="Helvetica,sans-Serif" font-size="10.00">odp/api/spec/std_types.h</text>
</a>
</g>
</g>
<!-- Node2&#45;&gt;Node4 -->
<g id="edge4" class="edge"><title>Node2&#45;&gt;Node4</title>
<path fill="none" stroke="midnightblue" d="M375.354,-235.475C344.383,-225.18 292.127,-207.81 257.349,-196.25"/>
<polygon fill="midnightblue" stroke="midnightblue" points="258.192,-192.842 247.599,-193.009 255.984,-199.485 258.192,-192.842"/>
</g>
<!-- Node4&#45;&gt;Node1 -->
<g id="edge5" class="edge"><title>Node4&#45;&gt;Node1</title>
<path fill="none" stroke="midnightblue" d="M219.787,-173.998C217.314,-164.022 213.465,-146.943 212,-132 208.423,-95.5251 213.667,-76.5697 244,-56 283.786,-29.0199 413.972,-17.9832 495.217,-13.6434"/>
<polygon fill="midnightblue" stroke="midnightblue" points="495.554,-17.1308 505.362,-13.1226 495.195,-10.14 495.554,-17.1308"/>
</g>
<!-- Node5 -->
<g id="node6" class="node"><title>Node5</title>
<polygon fill="white" stroke="#bfbfbf" points="221.5,-112.5 221.5,-131.5 274.5,-131.5 274.5,-112.5 221.5,-112.5"/>
<text text-anchor="middle" x="248" y="-119.5" font-family="Helvetica,sans-Serif" font-size="10.00">stdint.h</text>
</g>
<!-- Node4&#45;&gt;Node5 -->
<g id="edge6" class="edge"><title>Node4&#45;&gt;Node5</title>
<path fill="none" stroke="midnightblue" d="M225.725,-173.975C229.471,-165.404 235.36,-151.927 240.142,-140.983"/>
<polygon fill="midnightblue" stroke="midnightblue" points="243.485,-142.074 244.282,-131.509 237.07,-139.271 243.485,-142.074"/>
</g>
<!-- Node6 -->
<g id="node7" class="node"><title>Node6</title>
<g id="a_node7"><a xlink:href="api_2align_8h.html" target="_top" xlink:title="ODP alignments. ">
<polygon fill="white" stroke="black" points="369,-112.5 369,-131.5 455,-131.5 455,-112.5 369,-112.5"/>
<text text-anchor="middle" x="412" y="-119.5" font-family="Helvetica,sans-Serif" font-size="10.00">odp/api/align.h</text>
</a>
</g>
</g>
<!-- Node4&#45;&gt;Node6 -->
<g id="edge7" class="edge"><title>Node4&#45;&gt;Node6</title>
<path fill="none" stroke="midnightblue" d="M249.222,-173.975C282.237,-163.636 338.04,-146.161 374.953,-134.602"/>
<polygon fill="midnightblue" stroke="midnightblue" points="376.331,-137.838 384.828,-131.509 374.239,-131.158 376.331,-137.838"/>
</g>
<!-- Node4&#45;&gt;Node9 -->
<g id="edge12" class="edge"><title>Node4&#45;&gt;Node9</title>
<path fill="none" stroke="midnightblue" d="M268.658,-173.969C317.589,-164.741 396.593,-149.046 464,-132 578.651,-103.007 602.981,-78.9142 719,-56 853.879,-29.3607 1014.94,-18.0718 1102.18,-13.624"/>
<polygon fill="midnightblue" stroke="midnightblue" points="1102.38,-17.1187 1112.19,-13.1273 1102.03,-10.1273 1102.38,-17.1187"/>
</g>
<!-- Node7 -->
<g id="node8" class="node"><title>Node7</title>
<polygon fill="white" stroke="#bfbfbf" points="324,-56.5 324,-75.5 428,-75.5 428,-56.5 324,-56.5"/>
<text text-anchor="middle" x="376" y="-63.5" font-family="Helvetica,sans-Serif" font-size="10.00">odp/api/abi/align.h</text>
</g>
<!-- Node6&#45;&gt;Node7 -->
<g id="edge8" class="edge"><title>Node6&#45;&gt;Node7</title>
<path fill="none" stroke="midnightblue" d="M406.055,-112.083C401.023,-104.534 393.663,-93.4948 387.487,-84.2298"/>
<polygon fill="midnightblue" stroke="midnightblue" points="390.293,-82.1301 381.834,-75.7511 384.469,-86.0131 390.293,-82.1301"/>
</g>
<!-- Node8 -->
<g id="node9" class="node"><title>Node8</title>
<g id="a_node9"><a xlink:href="api_2spec_2align_8h.html" target="_top" xlink:title="ODP alignments. ">
<polygon fill="white" stroke="black" points="446,-56.5 446,-75.5 558,-75.5 558,-56.5 446,-56.5"/>
<text text-anchor="middle" x="502" y="-63.5" font-family="Helvetica,sans-Serif" font-size="10.00">odp/api/spec/align.h</text>
</a>
</g>
</g>
<!-- Node6&#45;&gt;Node8 -->
<g id="edge9" class="edge"><title>Node6&#45;&gt;Node8</title>
<path fill="none" stroke="midnightblue" d="M426.46,-112.324C440.5,-103.9 462.048,-90.9709 478.543,-81.0741"/>
<polygon fill="midnightblue" stroke="midnightblue" points="480.802,-83.8007 487.576,-75.6545 477.2,-77.7983 480.802,-83.8007"/>
</g>
<!-- Node8&#45;&gt;Node1 -->
<g id="edge10" class="edge"><title>Node8&#45;&gt;Node1</title>
<path fill="none" stroke="midnightblue" d="M511.801,-56.324C520.818,-48.3414 534.406,-36.3128 545.318,-26.6529"/>
<polygon fill="midnightblue" stroke="midnightblue" points="547.853,-29.083 553.021,-19.8339 543.213,-23.8416 547.853,-29.083"/>
</g>
<!-- Node8&#45;&gt;Node9 -->
<g id="edge11" class="edge"><title>Node8&#45;&gt;Node9</title>
<path fill="none" stroke="midnightblue" d="M558.134,-57.5206C562.821,-56.9758 567.49,-56.4605 572,-56 764.613,-36.3353 993.178,-21.3664 1102.1,-14.7418"/>
<polygon fill="midnightblue" stroke="midnightblue" points="1102.5,-18.2245 1112.27,-14.1268 1102.07,-11.2373 1102.5,-18.2245"/>
</g>
<!-- Node11 -->
<g id="node12" class="node"><title>Node11</title>
<polygon fill="white" stroke="#bfbfbf" points="265,-358.5 265,-377.5 373,-377.5 373,-358.5 265,-358.5"/>
<text text-anchor="middle" x="319" y="-365.5" font-family="Helvetica,sans-Serif" font-size="10.00">odp/api/abi/event.h</text>
</g>
<!-- Node10&#45;&gt;Node11 -->
<g id="edge14" class="edge"><title>Node10&#45;&gt;Node11</title>
<path fill="none" stroke="midnightblue" d="M926.887,-526.425C819.647,-498.653 481.873,-411.179 361.844,-380.095"/>
<polygon fill="midnightblue" stroke="midnightblue" points="362.473,-376.643 351.915,-377.524 360.718,-383.419 362.473,-376.643"/>
</g>
<!-- Node12 -->
<g id="node13" class="node"><title>Node12</title>
<g id="a_node13"><a xlink:href="api_2spec_2event_8h.html" target="_top" xlink:title="ODP event. ">
<polygon fill="white" stroke="black" points="908,-470.5 908,-489.5 1024,-489.5 1024,-470.5 908,-470.5"/>
<text text-anchor="middle" x="966" y="-477.5" font-family="Helvetica,sans-Serif" font-size="10.00">odp/api/spec/event.h</text>
</a>
</g>
</g>
<!-- Node10&#45;&gt;Node12 -->
<g id="edge15" class="edge"><title>Node10&#45;&gt;Node12</title>
<path fill="none" stroke="midnightblue" d="M960.991,-526.083C961.786,-518.927 962.929,-508.635 963.923,-499.691"/>
<polygon fill="midnightblue" stroke="midnightblue" points="967.402,-500.076 965.028,-489.751 960.445,-499.303 967.402,-500.076"/>
</g>
<!-- Node12&#45;&gt;Node1 -->
<g id="edge16" class="edge"><title>Node12&#45;&gt;Node1</title>
<path fill="none" stroke="midnightblue" d="M959.02,-470.47C939.942,-447.811 884.244,-385.947 823,-358 728.071,-314.682 679.873,-376.677 591,-322 519.798,-278.195 552.006,-215.189 483,-168 425.694,-128.811 383.792,-177.086 331,-132 304.164,-109.082 285.317,-83.0358 308,-56 331.464,-28.033 427.792,-17.4396 495.086,-13.432"/>
<polygon fill="midnightblue" stroke="midnightblue" points="495.418,-16.919 505.206,-12.8654 495.026,-9.92993 495.418,-16.919"/>
</g>
<!-- Node12&#45;&gt;Node9 -->
<g id="edge33" class="edge"><title>Node12&#45;&gt;Node9</title>
<path fill="none" stroke="midnightblue" d="M1024.15,-477.474C1127.64,-471.333 1333,-442.18 1333,-307.5 1333,-307.5 1333,-307.5 1333,-121 1333,-65.2971 1267.4,-36.2083 1218.43,-22.2536"/>
<polygon fill="midnightblue" stroke="midnightblue" points="1219.14,-18.8198 1208.57,-19.5812 1217.31,-25.5759 1219.14,-18.8198"/>
</g>
<!-- Node13 -->
<g id="node14" class="node"><title>Node13</title>
<g id="a_node14"><a xlink:href="api_2packet_8h.html" target="_top" xlink:title="ODP packet descriptor. ">
<polygon fill="white" stroke="black" points="658,-414.5 658,-433.5 754,-433.5 754,-414.5 658,-414.5"/>
<text text-anchor="middle" x="706" y="-421.5" font-family="Helvetica,sans-Serif" font-size="10.00">odp/api/packet.h</text>
</a>
</g>
</g>
<!-- Node12&#45;&gt;Node13 -->
<g id="edge17" class="edge"><title>Node12&#45;&gt;Node13</title>
<path fill="none" stroke="midnightblue" d="M924.802,-470.444C879.351,-461.004 806.158,-445.802 757.091,-435.611"/>
<polygon fill="midnightblue" stroke="midnightblue" points="757.508,-432.123 747.005,-433.516 756.084,-438.977 757.508,-432.123"/>
</g>
<!-- Node13&#45;&gt;Node2 -->
<g id="edge18" class="edge"><title>Node13&#45;&gt;Node2</title>
<path fill="none" stroke="midnightblue" d="M657.913,-415.801C576.979,-403.634 422.085,-380.113 420,-378 390.135,-347.741 393.338,-292.977 397.536,-264.43"/>
<polygon fill="midnightblue" stroke="midnightblue" points="400.988,-265.007 399.186,-254.567 394.084,-263.852 400.988,-265.007"/>
</g>
<!-- Node13&#45;&gt;Node11 -->
<g id="edge19" class="edge"><title>Node13&#45;&gt;Node11</title>
<path fill="none" stroke="midnightblue" d="M657.941,-415.992C653.231,-415.315 648.523,-414.641 644,-414 553.528,-401.17 448.824,-386.749 383.25,-377.77"/>
<polygon fill="midnightblue" stroke="midnightblue" points="383.452,-374.265 373.07,-376.376 382.503,-381.2 383.452,-374.265"/>
</g>
<!-- Node14 -->
<g id="node15" class="node"><title>Node14</title>
<polygon fill="white" stroke="#bfbfbf" points="429.5,-358.5 429.5,-377.5 556.5,-377.5 556.5,-358.5 429.5,-358.5"/>
<text text-anchor="middle" x="493" y="-365.5" font-family="Helvetica,sans-Serif" font-size="10.00">odp/api/abi/packet_io.h</text>
</g>
<!-- Node13&#45;&gt;Node14 -->
<g id="edge20" class="edge"><title>Node13&#45;&gt;Node14</title>
<path fill="none" stroke="midnightblue" d="M672.25,-414.444C635.482,-405.122 576.554,-390.183 536.378,-379.997"/>
<polygon fill="midnightblue" stroke="midnightblue" points="537.146,-376.581 526.593,-377.516 535.426,-383.367 537.146,-376.581"/>
</g>
<!-- Node15 -->
<g id="node16" class="node"><title>Node15</title>
<polygon fill="white" stroke="#bfbfbf" points="574.5,-358.5 574.5,-377.5 687.5,-377.5 687.5,-358.5 574.5,-358.5"/>
<text text-anchor="middle" x="631" y="-365.5" font-family="Helvetica,sans-Serif" font-size="10.00">odp/api/abi/packet.h</text>
</g>
<!-- Node13&#45;&gt;Node15 -->
<g id="edge21" class="edge"><title>Node13&#45;&gt;Node15</title>
<path fill="none" stroke="midnightblue" d="M693.95,-414.324C682.537,-406.107 665.169,-393.602 651.565,-383.807"/>
<polygon fill="midnightblue" stroke="midnightblue" points="653.43,-380.837 643.269,-377.834 649.34,-386.517 653.43,-380.837"/>
</g>
<!-- Node16 -->
<g id="node17" class="node"><title>Node16</title>
<polygon fill="white" stroke="#bfbfbf" points="706,-358.5 706,-377.5 814,-377.5 814,-358.5 706,-358.5"/>
<text text-anchor="middle" x="760" y="-365.5" font-family="Helvetica,sans-Serif" font-size="10.00">odp/api/abi/buffer.h</text>
</g>
<!-- Node13&#45;&gt;Node16 -->
<g id="edge22" class="edge"><title>Node13&#45;&gt;Node16</title>
<path fill="none" stroke="midnightblue" d="M714.917,-414.083C722.78,-406.22 734.431,-394.569 743.919,-385.081"/>
<polygon fill="midnightblue" stroke="midnightblue" points="746.653,-387.297 751.249,-377.751 741.703,-382.347 746.653,-387.297"/>
</g>
<!-- Node17 -->
<g id="node18" class="node"><title>Node17</title>
<polygon fill="white" stroke="#bfbfbf" points="1010.5,-358.5 1010.5,-377.5 1111.5,-377.5 1111.5,-358.5 1010.5,-358.5"/>
<text text-anchor="middle" x="1061" y="-365.5" font-family="Helvetica,sans-Serif" font-size="10.00">odp/api/abi/pool.h</text>
</g>
<!-- Node13&#45;&gt;Node17 -->
<g id="edge23" class="edge"><title>Node13&#45;&gt;Node17</title>
<path fill="none" stroke="midnightblue" d="M754.246,-415.661C818.121,-405.945 930.768,-388.81 1000.34,-378.228"/>
<polygon fill="midnightblue" stroke="midnightblue" points="1000.92,-381.68 1010.28,-376.716 999.863,-374.759 1000.92,-381.68"/>
</g>
<!-- Node18 -->
<g id="node19" class="node"><title>Node18</title>
<g id="a_node19"><a xlink:href="api_2spec_2packet_8h.html" target="_top" xlink:title="ODP packet descriptor. ">
<polygon fill="white" stroke="black" points="870,-358.5 870,-377.5 992,-377.5 992,-358.5 870,-358.5"/>
<text text-anchor="middle" x="931" y="-365.5" font-family="Helvetica,sans-Serif" font-size="10.00">odp/api/spec/packet.h</text>
</a>
</g>
</g>
<!-- Node13&#45;&gt;Node18 -->
<g id="edge24" class="edge"><title>Node13&#45;&gt;Node18</title>
<path fill="none" stroke="midnightblue" d="M741.652,-414.444C780.656,-405.083 843.266,-390.056 885.717,-379.868"/>
<polygon fill="midnightblue" stroke="midnightblue" points="886.608,-383.254 895.515,-377.516 884.974,-376.447 886.608,-383.254"/>
</g>
<!-- Node18&#45;&gt;Node1 -->
<g id="edge25" class="edge"><title>Node18&#45;&gt;Node1</title>
<path fill="none" stroke="midnightblue" d="M869.759,-358.595C794.032,-347.967 672.672,-330.083 653,-322 605.546,-302.501 592.258,-294.064 559,-255 531.039,-222.159 549.827,-194.76 516,-168 460.195,-123.854 420.274,-169.817 360,-132 332.954,-115.031 325.601,-106.118 315,-76 312.049,-67.6154 309.303,-62.8234 315,-56 337.561,-28.9775 429.722,-18.1467 495.086,-13.8289"/>
<polygon fill="midnightblue" stroke="midnightblue" points="495.569,-17.3057 505.332,-13.1904 495.134,-10.3193 495.569,-17.3057"/>
</g>
<!-- Node18&#45;&gt;Node9 -->
<g id="edge32" class="edge"><title>Node18&#45;&gt;Node9</title>
<path fill="none" stroke="midnightblue" d="M941.395,-358.321C976.322,-328.864 1091.71,-229.124 1171,-132 1194.76,-102.898 1221.78,-90.951 1208,-56 1203.49,-44.5479 1194.53,-34.291 1186.05,-26.4724"/>
<polygon fill="midnightblue" stroke="midnightblue" points="1188.09,-23.6113 1178.21,-19.7638 1183.53,-28.9275 1188.09,-23.6113"/>
</g>
<!-- Node19 -->
<g id="node20" class="node"><title>Node19</title>
<g id="a_node20"><a xlink:href="api_2time_8h.html" target="_top" xlink:title="ODP time. ">
<polygon fill="white" stroke="black" points="662,-297 662,-316 748,-316 748,-297 662,-297"/>
<text text-anchor="middle" x="705" y="-304" font-family="Helvetica,sans-Serif" font-size="10.00">odp/api/time.h</text>
</a>
</g>
</g>
<!-- Node18&#45;&gt;Node19 -->
<g id="edge26" class="edge"><title>Node18&#45;&gt;Node19</title>
<path fill="none" stroke="midnightblue" d="M898.62,-358.475C858.762,-347.982 790.981,-330.137 747.112,-318.587"/>
<polygon fill="midnightblue" stroke="midnightblue" points="747.882,-315.17 737.32,-316.009 746.1,-321.94 747.882,-315.17"/>
</g>
<!-- Node19&#45;&gt;Node2 -->
<g id="edge27" class="edge"><title>Node19&#45;&gt;Node2</title>
<path fill="none" stroke="midnightblue" d="M661.767,-297.038C607.221,-286.362 513.433,-268.006 454.449,-256.461"/>
<polygon fill="midnightblue" stroke="midnightblue" points="455.062,-253.015 444.576,-254.529 453.717,-259.885 455.062,-253.015"/>
</g>
<!-- Node20 -->
<g id="node21" class="node"><title>Node20</title>
<polygon fill="white" stroke="#bfbfbf" points="568.5,-235.5 568.5,-254.5 671.5,-254.5 671.5,-235.5 568.5,-235.5"/>
<text text-anchor="middle" x="620" y="-242.5" font-family="Helvetica,sans-Serif" font-size="10.00">odp/api/abi/time.h</text>
</g>
<!-- Node19&#45;&gt;Node20 -->
<g id="edge28" class="edge"><title>Node19&#45;&gt;Node20</title>
<path fill="none" stroke="midnightblue" d="M692.822,-296.975C679.188,-287.431 656.868,-271.807 640.526,-260.368"/>
<polygon fill="midnightblue" stroke="midnightblue" points="642.355,-257.376 632.156,-254.509 638.341,-263.111 642.355,-257.376"/>
</g>
<!-- Node21 -->
<g id="node22" class="node"><title>Node21</title>
<g id="a_node22"><a xlink:href="api_2spec_2time_8h.html" target="_top" xlink:title="ODP time. ">
<polygon fill="white" stroke="black" points="728.5,-56.5 728.5,-75.5 839.5,-75.5 839.5,-56.5 728.5,-56.5"/>
<text text-anchor="middle" x="784" y="-63.5" font-family="Helvetica,sans-Serif" font-size="10.00">odp/api/spec/time.h</text>
</a>
</g>
</g>
<!-- Node19&#45;&gt;Node21 -->
<g id="edge29" class="edge"><title>Node19&#45;&gt;Node21</title>
<path fill="none" stroke="midnightblue" d="M707.905,-296.729C719.424,-261.956 762.022,-133.351 777.944,-85.2836"/>
<polygon fill="midnightblue" stroke="midnightblue" points="781.33,-86.1928 781.152,-75.5994 774.685,-83.9917 781.33,-86.1928"/>
</g>
<!-- Node21&#45;&gt;Node1 -->
<g id="edge30" class="edge"><title>Node21&#45;&gt;Node1</title>
<path fill="none" stroke="midnightblue" d="M748.982,-56.4435C710.752,-47.1024 649.433,-32.1194 607.743,-21.9326"/>
<polygon fill="midnightblue" stroke="midnightblue" points="608.399,-18.4901 597.854,-19.5164 606.738,-25.2901 608.399,-18.4901"/>
</g>
<!-- Node21&#45;&gt;Node9 -->
<g id="edge31" class="edge"><title>Node21&#45;&gt;Node9</title>
<path fill="none" stroke="midnightblue" d="M839.546,-57.1479C909.31,-47.286 1028.75,-30.4022 1102.19,-20.0202"/>
<polygon fill="midnightblue" stroke="midnightblue" points="1102.83,-23.4652 1112.24,-18.5998 1101.85,-16.5341 1102.83,-23.4652"/>
</g>
<!-- Node22&#45;&gt;Node2 -->
<g id="edge35" class="edge"><title>Node22&#45;&gt;Node2</title>
<path fill="none" stroke="midnightblue" d="M794.779,-643.403C652.393,-631.932 237,-593.614 237,-537 237,-537 237,-537 237,-423 237,-392.902 235.897,-380.4 256,-358 283.95,-326.857 309.83,-347.512 343,-322 363.896,-305.928 381.189,-280.545 391.306,-263.59"/>
<polygon fill="midnightblue" stroke="midnightblue" points="394.458,-265.13 396.407,-254.716 388.389,-261.642 394.458,-265.13"/>
</g>
<!-- Node22&#45;&gt;Node11 -->
<g id="edge36" class="edge"><title>Node22&#45;&gt;Node11</title>
<path fill="none" stroke="midnightblue" d="M794.886,-643.145C694.168,-633.604 467,-604.593 467,-537 467,-537 467,-537 467,-479 467,-426.022 405.156,-395.571 361.423,-380.661"/>
<polygon fill="midnightblue" stroke="midnightblue" points="362.438,-377.311 351.846,-377.542 360.27,-383.967 362.438,-377.311"/>
</g>
<!-- Node22&#45;&gt;Node16 -->
<g id="edge38" class="edge"><title>Node22&#45;&gt;Node16</title>
<path fill="none" stroke="midnightblue" d="M833.403,-638.465C816.813,-621.039 782,-579.419 782,-537 782,-537 782,-537 782,-479 782,-446.328 772.553,-409.24 766.04,-387.553"/>
<polygon fill="midnightblue" stroke="midnightblue" points="769.291,-386.222 762.967,-377.721 762.609,-388.31 769.291,-386.222"/>
</g>
<!-- Node22&#45;&gt;Node17 -->
<g id="edge39" class="edge"><title>Node22&#45;&gt;Node17</title>
<path fill="none" stroke="midnightblue" d="M847.284,-638.231C857.725,-620.043 880,-576.601 880,-537 880,-537 880,-537 880,-479 880,-421.482 947.574,-393.186 1000.14,-379.875"/>
<polygon fill="midnightblue" stroke="midnightblue" points="1001.19,-383.222 1010.1,-377.484 999.559,-376.416 1001.19,-383.222"/>
</g>
<!-- Node23 -->
<g id="node24" class="node"><title>Node23</title>
<polygon fill="white" stroke="#bfbfbf" points="1145.5,-582.5 1145.5,-601.5 1256.5,-601.5 1256.5,-582.5 1145.5,-582.5"/>
<text text-anchor="middle" x="1201" y="-589.5" font-family="Helvetica,sans-Serif" font-size="10.00">odp/api/abi/queue.h</text>
</g>
<!-- Node22&#45;&gt;Node23 -->
<g id="edge37" class="edge"><title>Node22&#45;&gt;Node23</title>
<path fill="none" stroke="midnightblue" d="M889.302,-639.885C952.273,-630.413 1063.95,-613.614 1135.14,-602.907"/>
<polygon fill="midnightblue" stroke="midnightblue" points="1135.97,-606.322 1145.33,-601.373 1134.93,-599.4 1135.97,-606.322"/>
</g>
<!-- Node24 -->
<g id="node25" class="node"><title>Node24</title>
<g id="a_node25"><a xlink:href="api_2spec_2queue_8h.html" target="_top" xlink:title="ODP queue. ">
<polygon fill="white" stroke="black" points="1008.5,-582.5 1008.5,-601.5 1127.5,-601.5 1127.5,-582.5 1008.5,-582.5"/>
<text text-anchor="middle" x="1068" y="-589.5" font-family="Helvetica,sans-Serif" font-size="10.00">odp/api/spec/queue.h</text>
</a>
</g>
</g>
<!-- Node22&#45;&gt;Node24 -->
<g id="edge40" class="edge"><title>Node22&#45;&gt;Node24</title>
<path fill="none" stroke="midnightblue" d="M877.81,-638.444C916.988,-629.083 979.877,-614.056 1022.52,-603.868"/>
<polygon fill="midnightblue" stroke="midnightblue" points="1023.44,-607.245 1032.36,-601.516 1021.82,-600.436 1023.44,-607.245"/>
</g>
<!-- Node24&#45;&gt;Node1 -->
<g id="edge41" class="edge"><title>Node24&#45;&gt;Node1</title>
<path fill="none" stroke="midnightblue" d="M1078.94,-582.297C1099.08,-565.203 1140,-525.051 1140,-481 1140,-481 1140,-481 1140,-423 1140,-392.902 1141.26,-380.26 1121,-358 1037.62,-266.38 973.245,-309.504 862,-255 817.987,-233.436 806.353,-228.216 767,-199 690.71,-142.362 610.853,-61.3702 578.233,-27.1958"/>
<polygon fill="midnightblue" stroke="midnightblue" points="580.41,-24.4053 570.989,-19.5594 575.332,-29.2231 580.41,-24.4053"/>
</g>
<!-- Node24&#45;&gt;Node9 -->
<g id="edge59" class="edge"><title>Node24&#45;&gt;Node9</title>
<path fill="none" stroke="midnightblue" d="M1117.32,-582.47C1145.02,-575.892 1179.1,-564.656 1205,-546 1309.79,-470.516 1371,-436.648 1371,-307.5 1371,-307.5 1371,-307.5 1371,-121 1371,-55.9962 1289.98,-29.2494 1229.81,-18.3488"/>
<polygon fill="midnightblue" stroke="midnightblue" points="1230.04,-14.8379 1219.59,-16.6117 1228.87,-21.7388 1230.04,-14.8379"/>
</g>
<!-- Node24&#45;&gt;Node10 -->
<g id="edge42" class="edge"><title>Node24&#45;&gt;Node10</title>
<path fill="none" stroke="midnightblue" d="M1050.65,-582.324C1033.33,-573.664 1006.48,-560.242 986.498,-550.249"/>
<polygon fill="midnightblue" stroke="midnightblue" points="987.819,-546.996 977.309,-545.655 984.688,-553.257 987.819,-546.996"/>
</g>
<!-- Node25 -->
<g id="node26" class="node"><title>Node25</title>
<g id="a_node26"><a xlink:href="queue__types_8h.html" target="_top" xlink:title="ODP queue types. ">
<polygon fill="white" stroke="black" points="1157,-291.5 1157,-321.5 1267,-321.5 1267,-291.5 1157,-291.5"/>
<text text-anchor="start" x="1165" y="-309.5" font-family="Helvetica,sans-Serif" font-size="10.00">odp/api/spec/queue</text>
<text text-anchor="middle" x="1212" y="-298.5" font-family="Helvetica,sans-Serif" font-size="10.00">_types.h</text>
</a>
</g>
</g>
<!-- Node24&#45;&gt;Node25 -->
<g id="edge43" class="edge"><title>Node24&#45;&gt;Node25</title>
<path fill="none" stroke="midnightblue" d="M1102.26,-582.44C1146.82,-569.016 1219,-538.408 1219,-481 1219,-481 1219,-481 1219,-423 1219,-391.437 1216.36,-355.111 1214.33,-331.757"/>
<polygon fill="midnightblue" stroke="midnightblue" points="1217.8,-331.352 1213.42,-321.708 1210.83,-331.983 1217.8,-331.352"/>
</g>
<!-- Node25&#45;&gt;Node1 -->
<g id="edge44" class="edge"><title>Node25&#45;&gt;Node1</title>
<path fill="none" stroke="midnightblue" d="M1156.69,-293.591C1152.07,-292.682 1147.46,-291.806 1143,-291 1038.16,-272.037 1004.35,-295.971 906,-255 769.051,-197.948 761.312,-138.486 638,-56 621.435,-44.9189 602.141,-33.3718 587.271,-24.7491"/>
<polygon fill="midnightblue" stroke="midnightblue" points="588.625,-21.4903 578.211,-19.5395 585.135,-27.5586 588.625,-21.4903"/>
</g>
<!-- Node25&#45;&gt;Node9 -->
<g id="edge58" class="edge"><title>Node25&#45;&gt;Node9</title>
<path fill="none" stroke="midnightblue" d="M1189.63,-291.346C1177.83,-282.499 1164.49,-269.954 1158,-255 1154.46,-246.846 1156.54,-243.768 1158,-235 1163.18,-203.946 1159.63,-191.119 1181,-168 1208.29,-138.473 1241.94,-165.617 1264,-132 1282.53,-103.761 1282.23,-84.4345 1264,-56 1253.73,-39.9762 1236.15,-29.5824 1218.7,-22.874"/>
<polygon fill="midnightblue" stroke="midnightblue" points="1219.66,-19.5018 1209.07,-19.5139 1217.36,-26.1114 1219.66,-19.5018"/>
</g>
<!-- Node25&#45;&gt;Node26 -->
<g id="edge45" class="edge"><title>Node25&#45;&gt;Node26</title>
<path fill="none" stroke="midnightblue" d="M1217.69,-291.399C1221,-283.199 1225.2,-272.781 1228.74,-263.994"/>
<polygon fill="midnightblue" stroke="midnightblue" points="1232.01,-265.241 1232.51,-254.658 1225.52,-262.622 1232.01,-265.241"/>
</g>
<!-- Node31 -->
<g id="node32" class="node"><title>Node31</title>
<g id="a_node32"><a xlink:href="deprecated_8h.html" target="_top" xlink:title="Control deprecated API definitions. ">
<polygon fill="white" stroke="black" points="915.5,-235.5 915.5,-254.5 1034.5,-254.5 1034.5,-235.5 915.5,-235.5"/>
<text text-anchor="middle" x="975" y="-242.5" font-family="Helvetica,sans-Serif" font-size="10.00">odp/api/deprecated.h</text>
</a>
</g>
</g>
<!-- Node25&#45;&gt;Node31 -->
<g id="edge54" class="edge"><title>Node25&#45;&gt;Node31</title>
<path fill="none" stroke="midnightblue" d="M1156.73,-291.625C1114.8,-281.096 1057.92,-266.816 1019.03,-257.054"/>
<polygon fill="midnightblue" stroke="midnightblue" points="1019.61,-253.591 1009.06,-254.55 1017.9,-260.38 1019.61,-253.591"/>
</g>
<!-- Node27 -->
<g id="node28" class="node"><title>Node27</title>
<polygon fill="white" stroke="#bfbfbf" points="1189.5,-168.5 1189.5,-198.5 1304.5,-198.5 1304.5,-168.5 1189.5,-168.5"/>
<text text-anchor="start" x="1197.5" y="-186.5" font-family="Helvetica,sans-Serif" font-size="10.00">odp/api/abi/schedule</text>
<text text-anchor="middle" x="1247" y="-175.5" font-family="Helvetica,sans-Serif" font-size="10.00">_types.h</text>
</g>
<!-- Node26&#45;&gt;Node27 -->
<g id="edge46" class="edge"><title>Node26&#45;&gt;Node27</title>
<path fill="none" stroke="midnightblue" d="M1237.58,-235.475C1238.88,-228.396 1240.81,-217.97 1242.58,-208.39"/>
<polygon fill="midnightblue" stroke="midnightblue" points="1246.03,-208.993 1244.41,-198.523 1239.15,-207.72 1246.03,-208.993"/>
</g>
<!-- Node28 -->
<g id="node29" class="node"><title>Node28</title>
<g id="a_node29"><a xlink:href="api_2spec_2schedule__types_8h.html" target="_top" xlink:title="ODP schedule types. ">
<polygon fill="white" stroke="black" points="971.5,-168.5 971.5,-198.5 1094.5,-198.5 1094.5,-168.5 971.5,-168.5"/>
<text text-anchor="start" x="979.5" y="-186.5" font-family="Helvetica,sans-Serif" font-size="10.00">odp/api/spec/schedule</text>
<text text-anchor="middle" x="1033" y="-175.5" font-family="Helvetica,sans-Serif" font-size="10.00">_types.h</text>
</a>
</g>
</g>
<!-- Node26&#45;&gt;Node28 -->
<g id="edge47" class="edge"><title>Node26&#45;&gt;Node28</title>
<path fill="none" stroke="midnightblue" d="M1206.92,-235.475C1176.72,-226.626 1128.7,-212.549 1090.75,-201.428"/>
<polygon fill="midnightblue" stroke="midnightblue" points="1091.42,-197.977 1080.84,-198.523 1089.45,-204.694 1091.42,-197.977"/>
</g>
<!-- Node28&#45;&gt;Node1 -->
<g id="edge48" class="edge"><title>Node28&#45;&gt;Node1</title>
<path fill="none" stroke="midnightblue" d="M986.405,-168.435C924.584,-149.379 812.374,-113.422 719,-76 699.436,-68.1591 695.354,-64.3467 676,-56 648.975,-44.3451 617.883,-32.0424 595.162,-23.252"/>
<polygon fill="midnightblue" stroke="midnightblue" points="596.255,-19.9225 585.666,-19.5937 593.739,-26.4546 596.255,-19.9225"/>
</g>
<!-- Node28&#45;&gt;Node9 -->
<g id="edge53" class="edge"><title>Node28&#45;&gt;Node9</title>
<path fill="none" stroke="midnightblue" d="M1078.05,-168.459C1118.02,-153.12 1173.08,-124.093 1193,-76 1199.76,-59.6727 1190.27,-41.048 1180.72,-27.9327"/>
<polygon fill="midnightblue" stroke="midnightblue" points="1183.26,-25.4977 1174.31,-19.829 1177.77,-29.8422 1183.26,-25.4977"/>
</g>
<!-- Node29 -->
<g id="node30" class="node"><title>Node29</title>
<g id="a_node30"><a xlink:href="support_8h.html" target="_top" xlink:title="ODP support API &#45; platform specific header. ">
<polygon fill="white" stroke="black" points="1026.5,-112.5 1026.5,-131.5 1127.5,-131.5 1127.5,-112.5 1026.5,-112.5"/>
<text text-anchor="middle" x="1077" y="-119.5" font-family="Helvetica,sans-Serif" font-size="10.00">odp/api/support.h</text>
</a>
</g>
</g>
<!-- Node28&#45;&gt;Node29 -->
<g id="edge49" class="edge"><title>Node28&#45;&gt;Node29</title>
<path fill="none" stroke="midnightblue" d="M1043.43,-168.399C1049.76,-159.842 1057.87,-148.871 1064.53,-139.857"/>
<polygon fill="midnightblue" stroke="midnightblue" points="1067.47,-141.779 1070.6,-131.658 1061.84,-137.617 1067.47,-141.779"/>
</g>
<!-- Node30 -->
<g id="node31" class="node"><title>Node30</title>
<g id="a_node31"><a xlink:href="spec_2support_8h.html" target="_top" xlink:title="ODP support API. ">
<polygon fill="white" stroke="black" points="1058,-56.5 1058,-75.5 1184,-75.5 1184,-56.5 1058,-56.5"/>
<text text-anchor="middle" x="1121" y="-63.5" font-family="Helvetica,sans-Serif" font-size="10.00">odp/api/spec/support.h</text>
</a>
</g>
</g>
<!-- Node29&#45;&gt;Node30 -->
<g id="edge50" class="edge"><title>Node29&#45;&gt;Node30</title>
<path fill="none" stroke="midnightblue" d="M1084.27,-112.083C1090.54,-104.377 1099.79,-93.0333 1107.43,-83.6531"/>
<polygon fill="midnightblue" stroke="midnightblue" points="1110.27,-85.7143 1113.87,-75.7511 1104.84,-81.2926 1110.27,-85.7143"/>
</g>
<!-- Node30&#45;&gt;Node1 -->
<g id="edge51" class="edge"><title>Node30&#45;&gt;Node1</title>
<path fill="none" stroke="midnightblue" d="M1057.8,-56.9835C1054.82,-56.6429 1051.88,-56.3133 1049,-56 900.007,-39.7943 724.905,-24.5013 630.891,-16.5954"/>
<polygon fill="midnightblue" stroke="midnightblue" points="630.923,-13.0859 620.666,-15.7378 630.338,-20.0614 630.923,-13.0859"/>
</g>
<!-- Node30&#45;&gt;Node9 -->
<g id="edge52" class="edge"><title>Node30&#45;&gt;Node9</title>
<path fill="none" stroke="midnightblue" d="M1128.43,-56.083C1134.85,-48.3768 1144.31,-37.0333 1152.12,-27.6531"/>
<polygon fill="midnightblue" stroke="midnightblue" points="1154.99,-29.674 1158.71,-19.7511 1149.62,-25.1927 1154.99,-29.674"/>
</g>
<!-- Node32 -->
<g id="node33" class="node"><title>Node32</title>
<g id="a_node33"><a xlink:href="spec_2deprecated_8h.html" target="_top" xlink:title="Macro for deprecated API definitions. ">
<polygon fill="white" stroke="black" points="896,-56.5 896,-75.5 1040,-75.5 1040,-56.5 896,-56.5"/>
<text text-anchor="middle" x="968" y="-63.5" font-family="Helvetica,sans-Serif" font-size="10.00">odp/api/spec/deprecated.h</text>
</a>
</g>
</g>
<!-- Node31&#45;&gt;Node32 -->
<g id="edge55" class="edge"><title>Node31&#45;&gt;Node32</title>
<path fill="none" stroke="midnightblue" d="M971.656,-235.197C968.446,-226.24 963.824,-211.883 962,-199 956.34,-159.015 961.301,-111.603 964.953,-85.8863"/>
<polygon fill="midnightblue" stroke="midnightblue" points="968.459,-86.1131 966.496,-75.7017 961.537,-85.0647 968.459,-86.1131"/>
</g>
<!-- Node32&#45;&gt;Node1 -->
<g id="edge56" class="edge"><title>Node32&#45;&gt;Node1</title>
<path fill="none" stroke="midnightblue" d="M903.827,-56.4435C829.222,-46.4963 706.635,-30.1513 630.598,-20.013"/>
<polygon fill="midnightblue" stroke="midnightblue" points="631.021,-16.5386 620.646,-18.6861 630.096,-23.4772 631.021,-16.5386"/>
</g>
<!-- Node32&#45;&gt;Node9 -->
<g id="edge57" class="edge"><title>Node32&#45;&gt;Node9</title>
<path fill="none" stroke="midnightblue" d="M999.374,-56.4435C1033.26,-47.2011 1087.4,-32.4356 1124.72,-22.2572"/>
<polygon fill="midnightblue" stroke="midnightblue" points="1126.05,-25.5243 1134.77,-19.5164 1124.2,-18.771 1126.05,-25.5243"/>
</g>
<!-- Node34 -->
<g id="node35" class="node"><title>Node34</title>
<polygon fill="white" stroke="#bfbfbf" points="66.5,-297 66.5,-316 187.5,-316 187.5,-297 66.5,-297"/>
<text text-anchor="middle" x="127" y="-304" font-family="Helvetica,sans-Serif" font-size="10.00">odp/api/abi/thrmask.h</text>
</g>
<!-- Node33&#45;&gt;Node34 -->
<g id="edge62" class="edge"><title>Node33&#45;&gt;Node34</title>
<path fill="none" stroke="midnightblue" d="M152.702,-358.475C148.335,-349.815 141.445,-336.149 135.897,-325.145"/>
<polygon fill="midnightblue" stroke="midnightblue" points="138.918,-323.363 131.29,-316.009 132.667,-326.514 138.918,-323.363"/>
</g>
<!-- Node35 -->
<g id="node36" class="node"><title>Node35</title>
<g id="a_node36"><a xlink:href="api_2spec_2thrmask_8h.html" target="_top" xlink:title="ODP thread masks. ">
<polygon fill="white" stroke="black" points="205.5,-297 205.5,-316 334.5,-316 334.5,-297 205.5,-297"/>
<text text-anchor="middle" x="270" y="-304" font-family="Helvetica,sans-Serif" font-size="10.00">odp/api/spec/thrmask.h</text>
</a>
</g>
</g>
<!-- Node33&#45;&gt;Node35 -->
<g id="edge63" class="edge"><title>Node33&#45;&gt;Node35</title>
<path fill="none" stroke="midnightblue" d="M173.19,-358.475C191.902,-348.622 222.923,-332.288 244.799,-320.77"/>
<polygon fill="midnightblue" stroke="midnightblue" points="246.622,-323.765 253.84,-316.009 243.361,-317.571 246.622,-323.765"/>
</g>
<!-- Node35&#45;&gt;Node1 -->
<g id="edge64" class="edge"><title>Node35&#45;&gt;Node1</title>
<path fill="none" stroke="midnightblue" d="M243.588,-296.93C202.017,-281.59 126,-245.237 126,-184.5 126,-184.5 126,-184.5 126,-121 126,-45.7606 372.691,-21.4857 495.376,-14.0654"/>
<polygon fill="midnightblue" stroke="midnightblue" points="495.642,-17.556 505.421,-13.4788 495.233,-10.5679 495.642,-17.556"/>
</g>
<!-- Node35&#45;&gt;Node2 -->
<g id="edge65" class="edge"><title>Node35&#45;&gt;Node2</title>
<path fill="none" stroke="midnightblue" d="M288.769,-296.975C310.851,-286.945 347.719,-270.2 373.139,-258.655"/>
<polygon fill="midnightblue" stroke="midnightblue" points="374.608,-261.831 382.266,-254.509 371.713,-255.458 374.608,-261.831"/>
</g>
<!-- Node35&#45;&gt;Node9 -->
<g id="edge66" class="edge"><title>Node35&#45;&gt;Node9</title>
<path fill="none" stroke="midnightblue" d="M271.471,-296.684C276.092,-271.943 292.743,-201.488 337,-168 348.501,-159.297 834.337,-80.6188 848,-76 866.454,-69.7617 868.49,-62.07 887,-56 958.688,-32.4913 1044.92,-20.9885 1102.35,-15.5503"/>
<polygon fill="midnightblue" stroke="midnightblue" points="1102.74,-19.0299 1112.38,-14.6351 1102.1,-12.0588 1102.74,-19.0299"/>
</g>
</g>
</svg>
