<?xml version="1.0" encoding="UTF-8" standalone="no"?>
<!DOCTYPE svg PUBLIC "-//W3C//DTD SVG 1.1//EN"
 "http://www.w3.org/Graphics/SVG/1.1/DTD/svg11.dtd">
<!-- Generated by graphviz version 2.38.0 (20140413.2041)
 -->
<!-- Title: crypto.h Pages: 1 -->
<svg width="1111pt" height="476pt"
 viewBox="0.00 0.00 1111.00 476.00" xmlns="http://www.w3.org/2000/svg" xmlns:xlink="http://www.w3.org/1999/xlink">
<g id="graph0" class="graph" transform="scale(1 1) rotate(0) translate(4 472)">
<title>crypto.h</title>
<polygon fill="white" stroke="none" points="-4,4 -4,-472 1107,-472 1107,4 -4,4"/>
<!-- Node0 -->
<g id="node1" class="node"><title>Node0</title>
<polygon fill="#bfbfbf" stroke="black" points="148,-448.5 148,-467.5 204,-467.5 204,-448.5 148,-448.5"/>
<text text-anchor="middle" x="176" y="-455.5" font-family="Helvetica,sans-Serif" font-size="10.00">crypto.h</text>
</g>
<!-- Node1 -->
<g id="node2" class="node"><title>Node1</title>
<g id="a_node2"><a xlink:href="visibility__begin_8h_source.html" target="_top" xlink:title="odp/visibility_begin.h">
<polygon fill="white" stroke="black" points="538.5,-0.5 538.5,-19.5 653.5,-19.5 653.5,-0.5 538.5,-0.5"/>
<text text-anchor="middle" x="596" y="-7.5" font-family="Helvetica,sans-Serif" font-size="10.00">odp/visibility_begin.h</text>
</a>
</g>
</g>
<!-- Node0&#45;&gt;Node1 -->
<g id="edge1" class="edge"><title>Node0&#45;&gt;Node1</title>
<path fill="none" stroke="midnightblue" d="M204.249,-456.69C359.607,-454.624 1103,-439.884 1103,-347 1103,-347 1103,-347 1103,-121 1103,-32.1417 801.813,-14.9124 663.719,-11.6827"/>
<polygon fill="midnightblue" stroke="midnightblue" points="663.739,-8.18241 653.666,-11.4656 663.588,-15.1808 663.739,-8.18241"/>
</g>
<!-- Node2 -->
<g id="node3" class="node"><title>Node2</title>
<g id="a_node3"><a xlink:href="deprecated_8h.html" target="_top" xlink:title="Control deprecated API definitions. ">
<polygon fill="white" stroke="black" points="28.5,-280.5 28.5,-299.5 147.5,-299.5 147.5,-280.5 28.5,-280.5"/>
<text text-anchor="middle" x="88" y="-287.5" font-family="Helvetica,sans-Serif" font-size="10.00">odp/api/deprecated.h</text>
</a>
</g>
</g>
<!-- Node0&#45;&gt;Node2 -->
<g id="edge2" class="edge"><title>Node0&#45;&gt;Node2</title>
<path fill="none" stroke="midnightblue" d="M158.59,-448.352C144.928,-440.665 126.518,-428.147 116,-412 95.2826,-380.195 89.8177,-334.915 88.425,-309.731"/>
<polygon fill="midnightblue" stroke="midnightblue" points="91.9207,-309.551 88.0315,-299.695 84.9261,-309.825 91.9207,-309.551"/>
</g>
<!-- Node4 -->
<g id="node5" class="node"><title>Node4</title>
<g id="a_node5"><a xlink:href="visibility__end_8h_source.html" target="_top" xlink:title="odp/visibility_end.h">
<polygon fill="white" stroke="black" points="237.5,-0.5 237.5,-19.5 344.5,-19.5 344.5,-0.5 237.5,-0.5"/>
<text text-anchor="middle" x="291" y="-7.5" font-family="Helvetica,sans-Serif" font-size="10.00">odp/visibility_end.h</text>
</a>
</g>
</g>
<!-- Node0&#45;&gt;Node4 -->
<g id="edge36" class="edge"><title>Node0&#45;&gt;Node4</title>
<path fill="none" stroke="midnightblue" d="M147.723,-452.637C97.9714,-443.181 0,-415.822 0,-347 0,-347 0,-347 0,-121 0,-84.5528 18.925,-75.0458 50,-56 79.0907,-38.1704 166.267,-25.0235 227.365,-17.687"/>
<polygon fill="midnightblue" stroke="midnightblue" points="227.79,-21.1613 237.312,-16.516 226.972,-14.2093 227.79,-21.1613"/>
</g>
<!-- Node5 -->
<g id="node6" class="node"><title>Node5</title>
<g id="a_node6"><a xlink:href="support_8h.html" target="_top" xlink:title="ODP support API &#45; platform specific header. ">
<polygon fill="white" stroke="black" points="125.5,-392.5 125.5,-411.5 226.5,-411.5 226.5,-392.5 125.5,-392.5"/>
<text text-anchor="middle" x="176" y="-399.5" font-family="Helvetica,sans-Serif" font-size="10.00">odp/api/support.h</text>
</a>
</g>
</g>
<!-- Node0&#45;&gt;Node5 -->
<g id="edge6" class="edge"><title>Node0&#45;&gt;Node5</title>
<path fill="none" stroke="midnightblue" d="M176,-448.083C176,-441.006 176,-430.861 176,-421.986"/>
<polygon fill="midnightblue" stroke="midnightblue" points="179.5,-421.751 176,-411.751 172.5,-421.751 179.5,-421.751"/>
</g>
<!-- Node7 -->
<g id="node8" class="node"><title>Node7</title>
<g id="a_node8"><a xlink:href="api_2packet_8h.html" target="_top" xlink:title="ODP packet descriptor. ">
<polygon fill="white" stroke="black" points="593,-392.5 593,-411.5 689,-411.5 689,-392.5 593,-392.5"/>
<text text-anchor="middle" x="641" y="-399.5" font-family="Helvetica,sans-Serif" font-size="10.00">odp/api/packet.h</text>
</a>
</g>
</g>
<!-- Node0&#45;&gt;Node7 -->
<g id="edge10" class="edge"><title>Node0&#45;&gt;Node7</title>
<path fill="none" stroke="midnightblue" d="M204.041,-453.744C278.456,-445.102 482.117,-421.451 582.915,-409.745"/>
<polygon fill="midnightblue" stroke="midnightblue" points="583.398,-413.213 592.927,-408.583 582.59,-406.26 583.398,-413.213"/>
</g>
<!-- Node3 -->
<g id="node4" class="node"><title>Node3</title>
<g id="a_node4"><a xlink:href="spec_2deprecated_8h.html" target="_top" xlink:title="Macro for deprecated API definitions. ">
<polygon fill="white" stroke="black" points="66,-56.5 66,-75.5 210,-75.5 210,-56.5 66,-56.5"/>
<text text-anchor="middle" x="138" y="-63.5" font-family="Helvetica,sans-Serif" font-size="10.00">odp/api/spec/deprecated.h</text>
</a>
</g>
</g>
<!-- Node2&#45;&gt;Node3 -->
<g id="edge3" class="edge"><title>Node2&#45;&gt;Node3</title>
<path fill="none" stroke="midnightblue" d="M89.9601,-280.297C97.3326,-247.563 123.501,-131.375 133.796,-85.6664"/>
<polygon fill="midnightblue" stroke="midnightblue" points="137.216,-86.4084 135.999,-75.8837 130.387,-84.8703 137.216,-86.4084"/>
</g>
<!-- Node3&#45;&gt;Node1 -->
<g id="edge4" class="edge"><title>Node3&#45;&gt;Node1</title>
<path fill="none" stroke="midnightblue" d="M210.066,-56.5031C297.333,-46.214 443.185,-29.0174 528.396,-18.9708"/>
<polygon fill="midnightblue" stroke="midnightblue" points="528.958,-22.4289 538.479,-17.782 528.138,-15.477 528.958,-22.4289"/>
</g>
<!-- Node3&#45;&gt;Node4 -->
<g id="edge5" class="edge"><title>Node3&#45;&gt;Node4</title>
<path fill="none" stroke="midnightblue" d="M162.243,-56.4435C187.871,-47.3986 228.485,-33.064 257.238,-22.9158"/>
<polygon fill="midnightblue" stroke="midnightblue" points="258.605,-26.1452 266.87,-19.5164 256.275,-19.5442 258.605,-26.1452"/>
</g>
<!-- Node6 -->
<g id="node7" class="node"><title>Node6</title>
<g id="a_node7"><a xlink:href="spec_2support_8h.html" target="_top" xlink:title="ODP support API. ">
<polygon fill="white" stroke="black" points="228,-56.5 228,-75.5 354,-75.5 354,-56.5 228,-56.5"/>
<text text-anchor="middle" x="291" y="-63.5" font-family="Helvetica,sans-Serif" font-size="10.00">odp/api/spec/support.h</text>
</a>
</g>
</g>
<!-- Node5&#45;&gt;Node6 -->
<g id="edge7" class="edge"><title>Node5&#45;&gt;Node6</title>
<path fill="none" stroke="midnightblue" d="M176,-392.442C176,-373.936 176,-328.812 176,-291 176,-291 176,-291 176,-177 176,-129.902 226.995,-96.7518 261.069,-79.8588"/>
<polygon fill="midnightblue" stroke="midnightblue" points="262.648,-82.9836 270.174,-75.5271 259.641,-76.6625 262.648,-82.9836"/>
</g>
<!-- Node6&#45;&gt;Node1 -->
<g id="edge8" class="edge"><title>Node6&#45;&gt;Node1</title>
<path fill="none" stroke="midnightblue" d="M339.328,-56.4435C393.204,-46.9049 480.307,-31.4834 537.864,-21.293"/>
<polygon fill="midnightblue" stroke="midnightblue" points="538.661,-24.7063 547.898,-19.5164 537.441,-17.8135 538.661,-24.7063"/>
</g>
<!-- Node6&#45;&gt;Node4 -->
<g id="edge9" class="edge"><title>Node6&#45;&gt;Node4</title>
<path fill="none" stroke="midnightblue" d="M291,-56.083C291,-49.0059 291,-38.8611 291,-29.9865"/>
<polygon fill="midnightblue" stroke="midnightblue" points="294.5,-29.751 291,-19.7511 287.5,-29.7511 294.5,-29.751"/>
</g>
<!-- Node8 -->
<g id="node9" class="node"><title>Node8</title>
<g id="a_node9"><a xlink:href="api_2std__types_8h.html" target="_top" xlink:title="Standard C language types and definitions for ODP. ">
<polygon fill="white" stroke="black" points="580,-224.5 580,-243.5 690,-243.5 690,-224.5 580,-224.5"/>
<text text-anchor="middle" x="635" y="-231.5" font-family="Helvetica,sans-Serif" font-size="10.00">odp/api/std_types.h</text>
</a>
</g>
</g>
<!-- Node7&#45;&gt;Node8 -->
<g id="edge11" class="edge"><title>Node7&#45;&gt;Node8</title>
<path fill="none" stroke="midnightblue" d="M648.151,-392.364C654.773,-383.763 664.157,-369.873 668,-356 678.222,-319.094 658.823,-275.788 645.679,-252.294"/>
<polygon fill="midnightblue" stroke="midnightblue" points="648.609,-250.372 640.533,-243.515 642.57,-253.912 648.609,-250.372"/>
</g>
<!-- Node15 -->
<g id="node16" class="node"><title>Node15</title>
<polygon fill="white" stroke="#bfbfbf" points="405,-336.5 405,-355.5 513,-355.5 513,-336.5 405,-336.5"/>
<text text-anchor="middle" x="459" y="-343.5" font-family="Helvetica,sans-Serif" font-size="10.00">odp/api/abi/event.h</text>
</g>
<!-- Node7&#45;&gt;Node15 -->
<g id="edge22" class="edge"><title>Node7&#45;&gt;Node15</title>
<path fill="none" stroke="midnightblue" d="M612.162,-392.444C581.144,-383.241 531.671,-368.562 497.382,-358.388"/>
<polygon fill="midnightblue" stroke="midnightblue" points="498.286,-355.006 487.704,-355.516 496.295,-361.716 498.286,-355.006"/>
</g>
<!-- Node16 -->
<g id="node17" class="node"><title>Node16</title>
<polygon fill="white" stroke="#bfbfbf" points="531.5,-336.5 531.5,-355.5 658.5,-355.5 658.5,-336.5 531.5,-336.5"/>
<text text-anchor="middle" x="595" y="-343.5" font-family="Helvetica,sans-Serif" font-size="10.00">odp/api/abi/packet_io.h</text>
</g>
<!-- Node7&#45;&gt;Node16 -->
<g id="edge23" class="edge"><title>Node7&#45;&gt;Node16</title>
<path fill="none" stroke="midnightblue" d="M633.404,-392.083C626.773,-384.298 616.979,-372.801 608.942,-363.367"/>
<polygon fill="midnightblue" stroke="midnightblue" points="611.604,-361.094 602.455,-355.751 606.275,-365.633 611.604,-361.094"/>
</g>
<!-- Node17 -->
<g id="node18" class="node"><title>Node17</title>
<polygon fill="white" stroke="#bfbfbf" points="715.5,-336.5 715.5,-355.5 828.5,-355.5 828.5,-336.5 715.5,-336.5"/>
<text text-anchor="middle" x="772" y="-343.5" font-family="Helvetica,sans-Serif" font-size="10.00">odp/api/abi/packet.h</text>
</g>
<!-- Node7&#45;&gt;Node17 -->
<g id="edge24" class="edge"><title>Node7&#45;&gt;Node17</title>
<path fill="none" stroke="midnightblue" d="M661.757,-392.444C683.316,-383.557 717.263,-369.563 741.794,-359.451"/>
<polygon fill="midnightblue" stroke="midnightblue" points="743.428,-362.563 751.34,-355.516 740.761,-356.092 743.428,-362.563"/>
</g>
<!-- Node18 -->
<g id="node19" class="node"><title>Node18</title>
<polygon fill="white" stroke="#bfbfbf" points="847,-336.5 847,-355.5 955,-355.5 955,-336.5 847,-336.5"/>
<text text-anchor="middle" x="901" y="-343.5" font-family="Helvetica,sans-Serif" font-size="10.00">odp/api/abi/buffer.h</text>
</g>
<!-- Node7&#45;&gt;Node18 -->
<g id="edge25" class="edge"><title>Node7&#45;&gt;Node18</title>
<path fill="none" stroke="midnightblue" d="M682.198,-392.444C727.649,-383.004 800.842,-367.802 849.909,-357.611"/>
<polygon fill="midnightblue" stroke="midnightblue" points="850.916,-360.977 859.995,-355.516 849.492,-354.123 850.916,-360.977"/>
</g>
<!-- Node19 -->
<g id="node20" class="node"><title>Node19</title>
<polygon fill="white" stroke="#bfbfbf" points="973.5,-336.5 973.5,-355.5 1074.5,-355.5 1074.5,-336.5 973.5,-336.5"/>
<text text-anchor="middle" x="1024" y="-343.5" font-family="Helvetica,sans-Serif" font-size="10.00">odp/api/abi/pool.h</text>
</g>
<!-- Node7&#45;&gt;Node19 -->
<g id="edge26" class="edge"><title>Node7&#45;&gt;Node19</title>
<path fill="none" stroke="midnightblue" d="M689.179,-394.448C750.348,-386.094 859.413,-371.08 963.237,-356.098"/>
<polygon fill="midnightblue" stroke="midnightblue" points="963.87,-359.543 973.266,-354.648 962.869,-352.615 963.87,-359.543"/>
</g>
<!-- Node20 -->
<g id="node21" class="node"><title>Node20</title>
<g id="a_node21"><a xlink:href="api_2spec_2packet_8h.html" target="_top" xlink:title="ODP packet descriptor. ">
<polygon fill="white" stroke="black" points="265,-336.5 265,-355.5 387,-355.5 387,-336.5 265,-336.5"/>
<text text-anchor="middle" x="326" y="-343.5" font-family="Helvetica,sans-Serif" font-size="10.00">odp/api/spec/packet.h</text>
</a>
</g>
</g>
<!-- Node7&#45;&gt;Node20 -->
<g id="edge27" class="edge"><title>Node7&#45;&gt;Node20</title>
<path fill="none" stroke="midnightblue" d="M592.815,-392.74C537.26,-383.216 445.897,-367.554 385.836,-357.258"/>
<polygon fill="midnightblue" stroke="midnightblue" points="386.187,-353.767 375.74,-355.527 385.004,-360.666 386.187,-353.767"/>
</g>
<!-- Node9 -->
<g id="node10" class="node"><title>Node9</title>
<polygon fill="white" stroke="#bfbfbf" points="665,-168.5 665,-187.5 793,-187.5 793,-168.5 665,-168.5"/>
<text text-anchor="middle" x="729" y="-175.5" font-family="Helvetica,sans-Serif" font-size="10.00">odp/api/abi/std_types.h</text>
</g>
<!-- Node8&#45;&gt;Node9 -->
<g id="edge12" class="edge"><title>Node8&#45;&gt;Node9</title>
<path fill="none" stroke="midnightblue" d="M650.103,-224.324C664.903,-215.822 687.694,-202.729 704.982,-192.797"/>
<polygon fill="midnightblue" stroke="midnightblue" points="707.007,-195.671 713.935,-187.655 703.52,-189.601 707.007,-195.671"/>
</g>
<!-- Node10 -->
<g id="node11" class="node"><title>Node10</title>
<g id="a_node11"><a xlink:href="api_2spec_2std__types_8h.html" target="_top" xlink:title="Standard C language types and definitions for ODP. ">
<polygon fill="white" stroke="black" points="511,-168.5 511,-187.5 647,-187.5 647,-168.5 511,-168.5"/>
<text text-anchor="middle" x="579" y="-175.5" font-family="Helvetica,sans-Serif" font-size="10.00">odp/api/spec/std_types.h</text>
</a>
</g>
</g>
<!-- Node8&#45;&gt;Node10 -->
<g id="edge13" class="edge"><title>Node8&#45;&gt;Node10</title>
<path fill="none" stroke="midnightblue" d="M626.003,-224.324C617.806,-216.42 605.494,-204.548 595.528,-194.938"/>
<polygon fill="midnightblue" stroke="midnightblue" points="597.789,-192.256 588.161,-187.834 592.93,-197.295 597.789,-192.256"/>
</g>
<!-- Node10&#45;&gt;Node1 -->
<g id="edge14" class="edge"><title>Node10&#45;&gt;Node1</title>
<path fill="none" stroke="midnightblue" d="M635.534,-168.436C686.242,-157.225 756.604,-131.933 783,-76 786.794,-67.9613 788.501,-62.9821 783,-56 768.144,-37.1449 710.993,-25.2749 663.739,-18.4913"/>
<polygon fill="midnightblue" stroke="midnightblue" points="664.21,-15.0232 653.825,-17.1202 663.251,-21.9572 664.21,-15.0232"/>
</g>
<!-- Node10&#45;&gt;Node4 -->
<g id="edge21" class="edge"><title>Node10&#45;&gt;Node4</title>
<path fill="none" stroke="midnightblue" d="M570.82,-168.364C562.63,-159.538 549.861,-145.28 540,-132 516.183,-99.9249 524.657,-79.0128 492,-56 451.898,-27.741 397.054,-16.8464 354.784,-12.8208"/>
<polygon fill="midnightblue" stroke="midnightblue" points="354.859,-9.31478 344.6,-11.9593 354.269,-16.2899 354.859,-9.31478"/>
</g>
<!-- Node11 -->
<g id="node12" class="node"><title>Node11</title>
<polygon fill="white" stroke="#bfbfbf" points="548.5,-112.5 548.5,-131.5 601.5,-131.5 601.5,-112.5 548.5,-112.5"/>
<text text-anchor="middle" x="575" y="-119.5" font-family="Helvetica,sans-Serif" font-size="10.00">stdint.h</text>
</g>
<!-- Node10&#45;&gt;Node11 -->
<g id="edge15" class="edge"><title>Node10&#45;&gt;Node11</title>
<path fill="none" stroke="midnightblue" d="M578.339,-168.083C577.815,-161.006 577.064,-150.861 576.406,-141.986"/>
<polygon fill="midnightblue" stroke="midnightblue" points="579.877,-141.465 575.648,-131.751 572.897,-141.982 579.877,-141.465"/>
</g>
<!-- Node12 -->
<g id="node13" class="node"><title>Node12</title>
<g id="a_node13"><a xlink:href="api_2align_8h.html" target="_top" xlink:title="ODP alignments. ">
<polygon fill="white" stroke="black" points="620,-112.5 620,-131.5 706,-131.5 706,-112.5 620,-112.5"/>
<text text-anchor="middle" x="663" y="-119.5" font-family="Helvetica,sans-Serif" font-size="10.00">odp/api/align.h</text>
</a>
</g>
</g>
<!-- Node10&#45;&gt;Node12 -->
<g id="edge16" class="edge"><title>Node10&#45;&gt;Node12</title>
<path fill="none" stroke="midnightblue" d="M592.496,-168.324C605.6,-159.9 625.712,-146.971 641.107,-137.074"/>
<polygon fill="midnightblue" stroke="midnightblue" points="643.018,-140.006 649.537,-131.655 639.233,-134.118 643.018,-140.006"/>
</g>
<!-- Node13 -->
<g id="node14" class="node"><title>Node13</title>
<polygon fill="white" stroke="#bfbfbf" points="670,-56.5 670,-75.5 774,-75.5 774,-56.5 670,-56.5"/>
<text text-anchor="middle" x="722" y="-63.5" font-family="Helvetica,sans-Serif" font-size="10.00">odp/api/abi/align.h</text>
</g>
<!-- Node12&#45;&gt;Node13 -->
<g id="edge17" class="edge"><title>Node12&#45;&gt;Node13</title>
<path fill="none" stroke="midnightblue" d="M672.479,-112.324C681.201,-104.341 694.343,-92.3128 704.898,-82.6529"/>
<polygon fill="midnightblue" stroke="midnightblue" points="707.334,-85.1674 712.348,-75.8339 702.608,-80.0036 707.334,-85.1674"/>
</g>
<!-- Node14 -->
<g id="node15" class="node"><title>Node14</title>
<g id="a_node15"><a xlink:href="api_2spec_2align_8h.html" target="_top" xlink:title="ODP alignments. ">
<polygon fill="white" stroke="black" points="540,-56.5 540,-75.5 652,-75.5 652,-56.5 540,-56.5"/>
<text text-anchor="middle" x="596" y="-63.5" font-family="Helvetica,sans-Serif" font-size="10.00">odp/api/spec/align.h</text>
</a>
</g>
</g>
<!-- Node12&#45;&gt;Node14 -->
<g id="edge18" class="edge"><title>Node12&#45;&gt;Node14</title>
<path fill="none" stroke="midnightblue" d="M652.235,-112.324C642.234,-104.263 627.113,-92.0765 615.07,-82.3695"/>
<polygon fill="midnightblue" stroke="midnightblue" points="616.943,-79.3841 606.961,-75.8339 612.55,-84.8343 616.943,-79.3841"/>
</g>
<!-- Node14&#45;&gt;Node1 -->
<g id="edge19" class="edge"><title>Node14&#45;&gt;Node1</title>
<path fill="none" stroke="midnightblue" d="M596,-56.083C596,-49.0059 596,-38.8611 596,-29.9865"/>
<polygon fill="midnightblue" stroke="midnightblue" points="599.5,-29.751 596,-19.7511 592.5,-29.7511 599.5,-29.751"/>
</g>
<!-- Node14&#45;&gt;Node4 -->
<g id="edge20" class="edge"><title>Node14&#45;&gt;Node4</title>
<path fill="none" stroke="midnightblue" d="M547.672,-56.4435C493.796,-46.9049 406.693,-31.4834 349.136,-21.293"/>
<polygon fill="midnightblue" stroke="midnightblue" points="349.559,-17.8135 339.102,-19.5164 348.339,-24.7063 349.559,-17.8135"/>
</g>
<!-- Node20&#45;&gt;Node1 -->
<g id="edge28" class="edge"><title>Node20&#45;&gt;Node1</title>
<path fill="none" stroke="midnightblue" d="M377.983,-336.486C492.017,-316.549 757.529,-262.796 802,-188 819.144,-159.165 888.418,-164.742 798,-56 780.933,-35.4744 715.622,-23.6155 663.823,-17.2777"/>
<polygon fill="midnightblue" stroke="midnightblue" points="664.002,-13.7747 653.662,-16.0828 663.184,-20.7268 664.002,-13.7747"/>
</g>
<!-- Node20&#45;&gt;Node4 -->
<g id="edge35" class="edge"><title>Node20&#45;&gt;Node4</title>
<path fill="none" stroke="midnightblue" d="M311.359,-336.403C263.432,-307.289 111.214,-206.884 57,-76 53.5984,-67.7877 51.3391,-62.8532 57,-56 78.2444,-30.2809 165.588,-19.1075 227.318,-14.3601"/>
<polygon fill="midnightblue" stroke="midnightblue" points="227.655,-17.8449 237.374,-13.6255 227.145,-10.8635 227.655,-17.8449"/>
</g>
<!-- Node21 -->
<g id="node22" class="node"><title>Node21</title>
<g id="a_node22"><a xlink:href="api_2time_8h.html" target="_top" xlink:title="ODP time. ">
<polygon fill="white" stroke="black" points="345,-280.5 345,-299.5 431,-299.5 431,-280.5 345,-280.5"/>
<text text-anchor="middle" x="388" y="-287.5" font-family="Helvetica,sans-Serif" font-size="10.00">odp/api/time.h</text>
</a>
</g>
</g>
<!-- Node20&#45;&gt;Node21 -->
<g id="edge29" class="edge"><title>Node20&#45;&gt;Node21</title>
<path fill="none" stroke="midnightblue" d="M335.961,-336.324C345.127,-328.341 358.937,-316.313 370.028,-306.653"/>
<polygon fill="midnightblue" stroke="midnightblue" points="372.615,-309.041 377.857,-299.834 368.018,-303.762 372.615,-309.041"/>
</g>
<!-- Node21&#45;&gt;Node8 -->
<g id="edge30" class="edge"><title>Node21&#45;&gt;Node8</title>
<path fill="none" stroke="midnightblue" d="M427.138,-280.444C470.226,-271.023 539.559,-255.866 586.171,-245.675"/>
<polygon fill="midnightblue" stroke="midnightblue" points="587.024,-249.072 596.045,-243.516 585.528,-242.233 587.024,-249.072"/>
</g>
<!-- Node22 -->
<g id="node23" class="node"><title>Node22</title>
<polygon fill="white" stroke="#bfbfbf" points="296.5,-224.5 296.5,-243.5 399.5,-243.5 399.5,-224.5 296.5,-224.5"/>
<text text-anchor="middle" x="348" y="-231.5" font-family="Helvetica,sans-Serif" font-size="10.00">odp/api/abi/time.h</text>
</g>
<!-- Node21&#45;&gt;Node22 -->
<g id="edge31" class="edge"><title>Node21&#45;&gt;Node22</title>
<path fill="none" stroke="midnightblue" d="M381.395,-280.083C375.745,-272.455 367.455,-261.264 360.549,-251.941"/>
<polygon fill="midnightblue" stroke="midnightblue" points="363.247,-249.703 354.482,-243.751 357.622,-253.87 363.247,-249.703"/>
</g>
<!-- Node23 -->
<g id="node24" class="node"><title>Node23</title>
<g id="a_node24"><a xlink:href="api_2spec_2time_8h.html" target="_top" xlink:title="ODP time. ">
<polygon fill="white" stroke="black" points="372.5,-56.5 372.5,-75.5 483.5,-75.5 483.5,-56.5 372.5,-56.5"/>
<text text-anchor="middle" x="428" y="-63.5" font-family="Helvetica,sans-Serif" font-size="10.00">odp/api/spec/time.h</text>
</a>
</g>
</g>
<!-- Node21&#45;&gt;Node23 -->
<g id="edge32" class="edge"><title>Node21&#45;&gt;Node23</title>
<path fill="none" stroke="midnightblue" d="M392.815,-280.331C397.497,-271.478 404.412,-257.2 408,-244 423.241,-187.92 426.884,-118.795 427.743,-85.9965"/>
<polygon fill="midnightblue" stroke="midnightblue" points="431.249,-85.7158 427.95,-75.6478 424.25,-85.5758 431.249,-85.7158"/>
</g>
<!-- Node23&#45;&gt;Node1 -->
<g id="edge33" class="edge"><title>Node23&#45;&gt;Node1</title>
<path fill="none" stroke="midnightblue" d="M454.62,-56.4435C483.006,-47.3196 528.137,-32.8133 559.753,-22.6509"/>
<polygon fill="midnightblue" stroke="midnightblue" points="561.055,-25.9087 569.504,-19.5164 558.913,-19.2445 561.055,-25.9087"/>
</g>
<!-- Node23&#45;&gt;Node4 -->
<g id="edge34" class="edge"><title>Node23&#45;&gt;Node4</title>
<path fill="none" stroke="midnightblue" d="M406.292,-56.4435C383.645,-47.5171 347.928,-33.4387 322.248,-23.3168"/>
<polygon fill="midnightblue" stroke="midnightblue" points="323.193,-19.9273 312.606,-19.5164 320.626,-26.4397 323.193,-19.9273"/>
</g>
</g>
</svg>
