<?xml version="1.0" encoding="UTF-8" standalone="no"?>
<!DOCTYPE svg PUBLIC "-//W3C//DTD SVG 1.1//EN"
 "http://www.w3.org/Graphics/SVG/1.1/DTD/svg11.dtd">
<!-- Generated by graphviz version 2.38.0 (20140413.2041)
 -->
<!-- Title: pool.h Pages: 1 -->
<svg width="645pt" height="375pt"
 viewBox="0.00 0.00 645.00 375.00" xmlns="http://www.w3.org/2000/svg" xmlns:xlink="http://www.w3.org/1999/xlink">
<g id="graph0" class="graph" transform="scale(1 1) rotate(0) translate(4 371)">
<title>pool.h</title>
<polygon fill="white" stroke="none" points="-4,4 -4,-371 641,-371 641,4 -4,4"/>
<!-- Node0 -->
<g id="node1" class="node"><title>Node0</title>
<polygon fill="#bfbfbf" stroke="black" points="210.5,-347.5 210.5,-366.5 256.5,-366.5 256.5,-347.5 210.5,-347.5"/>
<text text-anchor="middle" x="233.5" y="-354.5" font-family="Helvetica,sans-Serif" font-size="10.00">pool.h</text>
</g>
<!-- Node1 -->
<g id="node2" class="node"><title>Node1</title>
<polygon fill="white" stroke="#bfbfbf" points="0,-286 0,-305 101,-305 101,-286 0,-286"/>
<text text-anchor="middle" x="50.5" y="-293" font-family="Helvetica,sans-Serif" font-size="10.00">odp/api/abi/pool.h</text>
</g>
<!-- Node0&#45;&gt;Node1 -->
<g id="edge1" class="edge"><title>Node0&#45;&gt;Node1</title>
<path fill="none" stroke="midnightblue" d="M210.323,-348.464C179.114,-338.317 123.268,-320.16 86.5492,-308.221"/>
<polygon fill="midnightblue" stroke="midnightblue" points="87.3284,-304.794 76.7362,-305.03 85.1639,-311.451 87.3284,-304.794"/>
</g>
<!-- Node2 -->
<g id="node3" class="node"><title>Node2</title>
<polygon fill="white" stroke="#bfbfbf" points="119,-280.5 119,-310.5 224,-310.5 224,-280.5 119,-280.5"/>
<text text-anchor="start" x="127" y="-298.5" font-family="Helvetica,sans-Serif" font-size="10.00">odp/api/abi/shared</text>
<text text-anchor="middle" x="171.5" y="-287.5" font-family="Helvetica,sans-Serif" font-size="10.00">_memory.h</text>
</g>
<!-- Node0&#45;&gt;Node2 -->
<g id="edge2" class="edge"><title>Node0&#45;&gt;Node2</title>
<path fill="none" stroke="midnightblue" d="M224.617,-347.475C216.534,-339.718 204.265,-327.943 193.554,-317.665"/>
<polygon fill="midnightblue" stroke="midnightblue" points="195.751,-314.922 186.112,-310.523 190.904,-319.972 195.751,-314.922"/>
</g>
<!-- Node3 -->
<g id="node4" class="node"><title>Node3</title>
<polygon fill="white" stroke="#bfbfbf" points="242.5,-286 242.5,-305 350.5,-305 350.5,-286 242.5,-286"/>
<text text-anchor="middle" x="296.5" y="-293" font-family="Helvetica,sans-Serif" font-size="10.00">odp/api/abi/event.h</text>
</g>
<!-- Node0&#45;&gt;Node3 -->
<g id="edge3" class="edge"><title>Node0&#45;&gt;Node3</title>
<path fill="none" stroke="midnightblue" d="M242.526,-347.475C252.257,-338.285 267.958,-323.456 279.923,-312.156"/>
<polygon fill="midnightblue" stroke="midnightblue" points="282.623,-314.42 287.49,-305.009 277.817,-309.331 282.623,-314.42"/>
</g>
<!-- Node4 -->
<g id="node5" class="node"><title>Node4</title>
<g id="a_node5"><a xlink:href="api_2spec_2pool_8h.html" target="_top" xlink:title="ODP pool. ">
<polygon fill="white" stroke="black" points="368.5,-286 368.5,-305 478.5,-305 478.5,-286 368.5,-286"/>
<text text-anchor="middle" x="423.5" y="-293" font-family="Helvetica,sans-Serif" font-size="10.00">odp/api/spec/pool.h</text>
</a>
</g>
</g>
<!-- Node0&#45;&gt;Node4 -->
<g id="edge4" class="edge"><title>Node0&#45;&gt;Node4</title>
<path fill="none" stroke="midnightblue" d="M256.798,-348.704C289.181,-338.563 348.139,-320.1 386.555,-308.07"/>
<polygon fill="midnightblue" stroke="midnightblue" points="387.831,-311.338 396.328,-305.009 385.739,-304.658 387.831,-311.338"/>
</g>
<!-- Node5 -->
<g id="node6" class="node"><title>Node5</title>
<g id="a_node6"><a xlink:href="visibility__begin_8h_source.html" target="_top" xlink:title="odp/visibility_begin.h">
<polygon fill="white" stroke="black" points="236,-0.5 236,-19.5 351,-19.5 351,-0.5 236,-0.5"/>
<text text-anchor="middle" x="293.5" y="-7.5" font-family="Helvetica,sans-Serif" font-size="10.00">odp/visibility_begin.h</text>
</a>
</g>
</g>
<!-- Node4&#45;&gt;Node5 -->
<g id="edge5" class="edge"><title>Node4&#45;&gt;Node5</title>
<path fill="none" stroke="midnightblue" d="M384.535,-285.962C334.906,-272.526 255.5,-241.295 255.5,-179 255.5,-179 255.5,-179 255.5,-121 255.5,-86.8131 272.1,-49.7639 283.357,-28.5707"/>
<polygon fill="midnightblue" stroke="midnightblue" points="286.447,-30.2151 288.216,-19.769 280.319,-26.832 286.447,-30.2151"/>
</g>
<!-- Node6 -->
<g id="node7" class="node"><title>Node6</title>
<g id="a_node7"><a xlink:href="api_2std__types_8h.html" target="_top" xlink:title="Standard C language types and definitions for ODP. ">
<polygon fill="white" stroke="black" points="368.5,-224.5 368.5,-243.5 478.5,-243.5 478.5,-224.5 368.5,-224.5"/>
<text text-anchor="middle" x="423.5" y="-231.5" font-family="Helvetica,sans-Serif" font-size="10.00">odp/api/std_types.h</text>
</a>
</g>
</g>
<!-- Node4&#45;&gt;Node6 -->
<g id="edge6" class="edge"><title>Node4&#45;&gt;Node6</title>
<path fill="none" stroke="midnightblue" d="M423.5,-285.975C423.5,-277.58 423.5,-264.481 423.5,-253.663"/>
<polygon fill="midnightblue" stroke="midnightblue" points="427,-253.509 423.5,-243.509 420,-253.509 427,-253.509"/>
</g>
<!-- Node13 -->
<g id="node14" class="node"><title>Node13</title>
<g id="a_node14"><a xlink:href="visibility__end_8h_source.html" target="_top" xlink:title="odp/visibility_end.h">
<polygon fill="white" stroke="black" points="530,-0.5 530,-19.5 637,-19.5 637,-0.5 530,-0.5"/>
<text text-anchor="middle" x="583.5" y="-7.5" font-family="Helvetica,sans-Serif" font-size="10.00">odp/visibility_end.h</text>
</a>
</g>
</g>
<!-- Node4&#45;&gt;Node13 -->
<g id="edge17" class="edge"><title>Node4&#45;&gt;Node13</title>
<path fill="none" stroke="midnightblue" d="M478.654,-286.425C537.241,-274.361 621.5,-245.459 621.5,-179 621.5,-179 621.5,-179 621.5,-121 621.5,-86.8131 604.9,-49.7639 593.643,-28.5707"/>
<polygon fill="midnightblue" stroke="midnightblue" points="596.681,-26.832 588.784,-19.769 590.553,-30.2151 596.681,-26.832"/>
</g>
<!-- Node7 -->
<g id="node8" class="node"><title>Node7</title>
<polygon fill="white" stroke="#bfbfbf" points="284.5,-168.5 284.5,-187.5 412.5,-187.5 412.5,-168.5 284.5,-168.5"/>
<text text-anchor="middle" x="348.5" y="-175.5" font-family="Helvetica,sans-Serif" font-size="10.00">odp/api/abi/std_types.h</text>
</g>
<!-- Node6&#45;&gt;Node7 -->
<g id="edge7" class="edge"><title>Node6&#45;&gt;Node7</title>
<path fill="none" stroke="midnightblue" d="M411.45,-224.324C400.037,-216.107 382.669,-203.602 369.065,-193.807"/>
<polygon fill="midnightblue" stroke="midnightblue" points="370.93,-190.837 360.769,-187.834 366.84,-196.517 370.93,-190.837"/>
</g>
<!-- Node8 -->
<g id="node9" class="node"><title>Node8</title>
<g id="a_node9"><a xlink:href="api_2spec_2std__types_8h.html" target="_top" xlink:title="Standard C language types and definitions for ODP. ">
<polygon fill="white" stroke="black" points="430.5,-168.5 430.5,-187.5 566.5,-187.5 566.5,-168.5 430.5,-168.5"/>
<text text-anchor="middle" x="498.5" y="-175.5" font-family="Helvetica,sans-Serif" font-size="10.00">odp/api/spec/std_types.h</text>
</a>
</g>
</g>
<!-- Node6&#45;&gt;Node8 -->
<g id="edge8" class="edge"><title>Node6&#45;&gt;Node8</title>
<path fill="none" stroke="midnightblue" d="M435.55,-224.324C446.963,-216.107 464.331,-203.602 477.935,-193.807"/>
<polygon fill="midnightblue" stroke="midnightblue" points="480.16,-196.517 486.231,-187.834 476.07,-190.837 480.16,-196.517"/>
</g>
<!-- Node8&#45;&gt;Node5 -->
<g id="edge9" class="edge"><title>Node8&#45;&gt;Node5</title>
<path fill="none" stroke="midnightblue" d="M465.142,-168.496C439.503,-161.105 403.802,-148.914 375.5,-132 343.343,-112.781 332.535,-107.655 312.5,-76 303.56,-61.8746 298.689,-43.3883 296.126,-29.7429"/>
<polygon fill="midnightblue" stroke="midnightblue" points="299.539,-28.9282 294.476,-19.6214 292.631,-30.0542 299.539,-28.9282"/>
</g>
<!-- Node9 -->
<g id="node10" class="node"><title>Node9</title>
<polygon fill="white" stroke="#bfbfbf" points="384,-112.5 384,-131.5 437,-131.5 437,-112.5 384,-112.5"/>
<text text-anchor="middle" x="410.5" y="-119.5" font-family="Helvetica,sans-Serif" font-size="10.00">stdint.h</text>
</g>
<!-- Node8&#45;&gt;Node9 -->
<g id="edge10" class="edge"><title>Node8&#45;&gt;Node9</title>
<path fill="none" stroke="midnightblue" d="M484.361,-168.324C470.634,-159.9 449.564,-146.971 433.436,-137.074"/>
<polygon fill="midnightblue" stroke="midnightblue" points="434.957,-133.902 424.604,-131.655 431.296,-139.868 434.957,-133.902"/>
</g>
<!-- Node10 -->
<g id="node11" class="node"><title>Node10</title>
<g id="a_node11"><a xlink:href="api_2align_8h.html" target="_top" xlink:title="ODP alignments. ">
<polygon fill="white" stroke="black" points="455.5,-112.5 455.5,-131.5 541.5,-131.5 541.5,-112.5 455.5,-112.5"/>
<text text-anchor="middle" x="498.5" y="-119.5" font-family="Helvetica,sans-Serif" font-size="10.00">odp/api/align.h</text>
</a>
</g>
</g>
<!-- Node8&#45;&gt;Node10 -->
<g id="edge11" class="edge"><title>Node8&#45;&gt;Node10</title>
<path fill="none" stroke="midnightblue" d="M498.5,-168.083C498.5,-161.006 498.5,-150.861 498.5,-141.986"/>
<polygon fill="midnightblue" stroke="midnightblue" points="502,-141.751 498.5,-131.751 495,-141.751 502,-141.751"/>
</g>
<!-- Node8&#45;&gt;Node13 -->
<g id="edge16" class="edge"><title>Node8&#45;&gt;Node13</title>
<path fill="none" stroke="midnightblue" d="M512.486,-168.358C524.313,-160.342 540.832,-147.357 550.5,-132 570.829,-99.7076 578.79,-54.9245 581.789,-29.8847"/>
<polygon fill="midnightblue" stroke="midnightblue" points="585.305,-29.9127 582.87,-19.6015 578.344,-29.1806 585.305,-29.9127"/>
</g>
<!-- Node11 -->
<g id="node12" class="node"><title>Node11</title>
<polygon fill="white" stroke="#bfbfbf" points="321.5,-56.5 321.5,-75.5 425.5,-75.5 425.5,-56.5 321.5,-56.5"/>
<text text-anchor="middle" x="373.5" y="-63.5" font-family="Helvetica,sans-Serif" font-size="10.00">odp/api/abi/align.h</text>
</g>
<!-- Node10&#45;&gt;Node11 -->
<g id="edge12" class="edge"><title>Node10&#45;&gt;Node11</title>
<path fill="none" stroke="midnightblue" d="M478.693,-112.444C458.213,-103.596 426.017,-89.6875 402.635,-79.5865"/>
<polygon fill="midnightblue" stroke="midnightblue" points="403.782,-76.2692 393.214,-75.5164 401.006,-82.6953 403.782,-76.2692"/>
</g>
<!-- Node12 -->
<g id="node13" class="node"><title>Node12</title>
<g id="a_node13"><a xlink:href="api_2spec_2align_8h.html" target="_top" xlink:title="ODP alignments. ">
<polygon fill="white" stroke="black" points="443.5,-56.5 443.5,-75.5 555.5,-75.5 555.5,-56.5 443.5,-56.5"/>
<text text-anchor="middle" x="499.5" y="-63.5" font-family="Helvetica,sans-Serif" font-size="10.00">odp/api/spec/align.h</text>
</a>
</g>
</g>
<!-- Node10&#45;&gt;Node12 -->
<g id="edge13" class="edge"><title>Node10&#45;&gt;Node12</title>
<path fill="none" stroke="midnightblue" d="M498.665,-112.083C498.796,-105.006 498.984,-94.8611 499.148,-85.9865"/>
<polygon fill="midnightblue" stroke="midnightblue" points="502.652,-85.8142 499.338,-75.7511 495.653,-85.6845 502.652,-85.8142"/>
</g>
<!-- Node12&#45;&gt;Node5 -->
<g id="edge14" class="edge"><title>Node12&#45;&gt;Node5</title>
<path fill="none" stroke="midnightblue" d="M466.859,-56.4435C431.45,-47.1616 374.791,-32.3093 335.947,-22.127"/>
<polygon fill="midnightblue" stroke="midnightblue" points="336.549,-18.6666 325.989,-19.5164 334.774,-25.4378 336.549,-18.6666"/>
</g>
<!-- Node12&#45;&gt;Node13 -->
<g id="edge15" class="edge"><title>Node12&#45;&gt;Node13</title>
<path fill="none" stroke="midnightblue" d="M512.996,-56.324C526.1,-47.9002 546.212,-34.9709 561.607,-25.0741"/>
<polygon fill="midnightblue" stroke="midnightblue" points="563.518,-28.0063 570.037,-19.6545 559.733,-22.118 563.518,-28.0063"/>
</g>
</g>
</svg>
