<?xml version="1.0" encoding="UTF-8" standalone="no"?>
<!DOCTYPE svg PUBLIC "-//W3C//DTD SVG 1.1//EN"
 "http://www.w3.org/Graphics/SVG/1.1/DTD/svg11.dtd">
<!-- Generated by graphviz version 2.38.0 (20140413.2041)
 -->
<!-- Title: timer.h Pages: 1 -->
<svg width="880pt" height="308pt"
 viewBox="0.00 0.00 880.47 308.00" xmlns="http://www.w3.org/2000/svg" xmlns:xlink="http://www.w3.org/1999/xlink">
<g id="graph0" class="graph" transform="scale(1 1) rotate(0) translate(4 304)">
<title>timer.h</title>
<polygon fill="white" stroke="none" points="-4,4 -4,-304 876.467,-304 876.467,4 -4,4"/>
<!-- Node0 -->
<g id="node1" class="node"><title>Node0</title>
<polygon fill="#bfbfbf" stroke="black" points="482.467,-280.5 482.467,-299.5 532.467,-299.5 532.467,-280.5 482.467,-280.5"/>
<text text-anchor="middle" x="507.467" y="-287.5" font-family="Helvetica,sans-Serif" font-size="10.00">timer.h</text>
</g>
<!-- Node1 -->
<g id="node2" class="node"><title>Node1</title>
<g id="a_node2"><a xlink:href="api_2std__types_8h.html" target="_top" xlink:title="Standard C language types and definitions for ODP. ">
<polygon fill="white" stroke="black" points="217.467,-224.5 217.467,-243.5 327.467,-243.5 327.467,-224.5 217.467,-224.5"/>
<text text-anchor="middle" x="272.467" y="-231.5" font-family="Helvetica,sans-Serif" font-size="10.00">odp/api/std_types.h</text>
</a>
</g>
</g>
<!-- Node0&#45;&gt;Node1 -->
<g id="edge1" class="edge"><title>Node0&#45;&gt;Node1</title>
<path fill="none" stroke="midnightblue" d="M482.318,-283.221C443.628,-274.331 368.85,-257.148 319.805,-245.878"/>
<polygon fill="midnightblue" stroke="midnightblue" points="320.282,-242.396 309.752,-243.568 318.714,-249.218 320.282,-242.396"/>
</g>
<!-- Node10 -->
<g id="node11" class="node"><title>Node10</title>
<polygon fill="white" stroke="#bfbfbf" points="392.467,-224.5 392.467,-243.5 500.467,-243.5 500.467,-224.5 392.467,-224.5"/>
<text text-anchor="middle" x="446.467" y="-231.5" font-family="Helvetica,sans-Serif" font-size="10.00">odp/api/abi/event.h</text>
</g>
<!-- Node0&#45;&gt;Node10 -->
<g id="edge12" class="edge"><title>Node0&#45;&gt;Node10</title>
<path fill="none" stroke="midnightblue" d="M497.666,-280.324C488.649,-272.341 475.061,-260.313 464.149,-250.653"/>
<polygon fill="midnightblue" stroke="midnightblue" points="466.253,-247.842 456.446,-243.834 461.614,-253.083 466.253,-247.842"/>
</g>
<!-- Node11 -->
<g id="node12" class="node"><title>Node11</title>
<polygon fill="white" stroke="#bfbfbf" points="518.967,-224.5 518.967,-243.5 619.967,-243.5 619.967,-224.5 518.967,-224.5"/>
<text text-anchor="middle" x="569.467" y="-231.5" font-family="Helvetica,sans-Serif" font-size="10.00">odp/api/abi/pool.h</text>
</g>
<!-- Node0&#45;&gt;Node11 -->
<g id="edge13" class="edge"><title>Node0&#45;&gt;Node11</title>
<path fill="none" stroke="midnightblue" d="M517.428,-280.324C526.593,-272.341 540.404,-260.313 551.495,-250.653"/>
<polygon fill="midnightblue" stroke="midnightblue" points="554.082,-253.041 559.324,-243.834 549.485,-247.762 554.082,-253.041"/>
</g>
<!-- Node12 -->
<g id="node13" class="node"><title>Node12</title>
<polygon fill="white" stroke="#bfbfbf" points="637.967,-224.5 637.967,-243.5 748.967,-243.5 748.967,-224.5 637.967,-224.5"/>
<text text-anchor="middle" x="693.467" y="-231.5" font-family="Helvetica,sans-Serif" font-size="10.00">odp/api/abi/queue.h</text>
</g>
<!-- Node0&#45;&gt;Node12 -->
<g id="edge14" class="edge"><title>Node0&#45;&gt;Node12</title>
<path fill="none" stroke="midnightblue" d="M532.552,-281.717C563.731,-272.665 617.305,-257.111 654.007,-246.456"/>
<polygon fill="midnightblue" stroke="midnightblue" points="655.251,-249.739 663.879,-243.59 653.3,-243.017 655.251,-249.739"/>
</g>
<!-- Node13 -->
<g id="node14" class="node"><title>Node13</title>
<polygon fill="white" stroke="#bfbfbf" points="766.467,-224.5 766.467,-243.5 872.467,-243.5 872.467,-224.5 766.467,-224.5"/>
<text text-anchor="middle" x="819.467" y="-231.5" font-family="Helvetica,sans-Serif" font-size="10.00">odp/api/abi/timer.h</text>
</g>
<!-- Node0&#45;&gt;Node13 -->
<g id="edge15" class="edge"><title>Node0&#45;&gt;Node13</title>
<path fill="none" stroke="midnightblue" d="M532.472,-284.672C581.436,-276.198 691.166,-257.206 759.868,-245.315"/>
<polygon fill="midnightblue" stroke="midnightblue" points="760.854,-248.697 770.11,-243.542 759.66,-241.799 760.854,-248.697"/>
</g>
<!-- Node14 -->
<g id="node15" class="node"><title>Node14</title>
<g id="a_node15"><a xlink:href="api_2spec_2timer_8h.html" target="_top" xlink:title="ODP timer service. ">
<polygon fill="white" stroke="black" points="307.467,-56.5 307.467,-75.5 421.467,-75.5 421.467,-56.5 307.467,-56.5"/>
<text text-anchor="middle" x="364.467" y="-63.5" font-family="Helvetica,sans-Serif" font-size="10.00">odp/api/spec/timer.h</text>
</a>
</g>
</g>
<!-- Node0&#45;&gt;Node14 -->
<g id="edge16" class="edge"><title>Node0&#45;&gt;Node14</title>
<path fill="none" stroke="midnightblue" d="M482.254,-287.467C453.461,-284.257 407.273,-274.371 383.467,-244 346.81,-197.233 354.497,-120.876 360.597,-85.7538"/>
<polygon fill="midnightblue" stroke="midnightblue" points="364.112,-86.0034 362.539,-75.5261 357.235,-84.6979 364.112,-86.0034"/>
</g>
<!-- Node2 -->
<g id="node3" class="node"><title>Node2</title>
<polygon fill="white" stroke="#bfbfbf" points="208.467,-168.5 208.467,-187.5 336.467,-187.5 336.467,-168.5 208.467,-168.5"/>
<text text-anchor="middle" x="272.467" y="-175.5" font-family="Helvetica,sans-Serif" font-size="10.00">odp/api/abi/std_types.h</text>
</g>
<!-- Node1&#45;&gt;Node2 -->
<g id="edge2" class="edge"><title>Node1&#45;&gt;Node2</title>
<path fill="none" stroke="midnightblue" d="M272.467,-224.083C272.467,-217.006 272.467,-206.861 272.467,-197.986"/>
<polygon fill="midnightblue" stroke="midnightblue" points="275.967,-197.751 272.467,-187.751 268.967,-197.751 275.967,-197.751"/>
</g>
<!-- Node3 -->
<g id="node4" class="node"><title>Node3</title>
<g id="a_node4"><a xlink:href="api_2spec_2std__types_8h.html" target="_top" xlink:title="Standard C language types and definitions for ODP. ">
<polygon fill="white" stroke="black" points="54.4668,-168.5 54.4668,-187.5 190.467,-187.5 190.467,-168.5 54.4668,-168.5"/>
<text text-anchor="middle" x="122.467" y="-175.5" font-family="Helvetica,sans-Serif" font-size="10.00">odp/api/spec/std_types.h</text>
</a>
</g>
</g>
<!-- Node1&#45;&gt;Node3 -->
<g id="edge3" class="edge"><title>Node1&#45;&gt;Node3</title>
<path fill="none" stroke="midnightblue" d="M248.699,-224.444C223.574,-215.399 183.756,-201.064 155.566,-190.916"/>
<polygon fill="midnightblue" stroke="midnightblue" points="156.718,-187.611 146.124,-187.516 154.347,-194.197 156.718,-187.611"/>
</g>
<!-- Node4 -->
<g id="node5" class="node"><title>Node4</title>
<g id="a_node5"><a xlink:href="visibility__begin_8h_source.html" target="_top" xlink:title="odp/visibility_begin.h">
<polygon fill="white" stroke="black" points="114.967,-0.5 114.967,-19.5 229.967,-19.5 229.967,-0.5 114.967,-0.5"/>
<text text-anchor="middle" x="172.467" y="-7.5" font-family="Helvetica,sans-Serif" font-size="10.00">odp/visibility_begin.h</text>
</a>
</g>
</g>
<!-- Node3&#45;&gt;Node4 -->
<g id="edge4" class="edge"><title>Node3&#45;&gt;Node4</title>
<path fill="none" stroke="midnightblue" d="M102.849,-168.468C61.8438,-149.454 -26.3605,-101.671 8.46678,-56 20.515,-40.2005 65.2273,-28.5755 104.927,-21.1027"/>
<polygon fill="midnightblue" stroke="midnightblue" points="105.676,-24.524 114.889,-19.2923 104.424,-17.6368 105.676,-24.524"/>
</g>
<!-- Node5 -->
<g id="node6" class="node"><title>Node5</title>
<polygon fill="white" stroke="#bfbfbf" points="156.967,-112.5 156.967,-131.5 209.967,-131.5 209.967,-112.5 156.967,-112.5"/>
<text text-anchor="middle" x="183.467" y="-119.5" font-family="Helvetica,sans-Serif" font-size="10.00">stdint.h</text>
</g>
<!-- Node3&#45;&gt;Node5 -->
<g id="edge5" class="edge"><title>Node3&#45;&gt;Node5</title>
<path fill="none" stroke="midnightblue" d="M132.267,-168.324C141.285,-160.341 154.873,-148.313 165.785,-138.653"/>
<polygon fill="midnightblue" stroke="midnightblue" points="168.32,-141.083 173.488,-131.834 163.68,-135.842 168.32,-141.083"/>
</g>
<!-- Node6 -->
<g id="node7" class="node"><title>Node6</title>
<g id="a_node7"><a xlink:href="api_2align_8h.html" target="_top" xlink:title="ODP alignments. ">
<polygon fill="white" stroke="black" points="52.4668,-112.5 52.4668,-131.5 138.467,-131.5 138.467,-112.5 52.4668,-112.5"/>
<text text-anchor="middle" x="95.4668" y="-119.5" font-family="Helvetica,sans-Serif" font-size="10.00">odp/api/align.h</text>
</a>
</g>
</g>
<!-- Node3&#45;&gt;Node6 -->
<g id="edge6" class="edge"><title>Node3&#45;&gt;Node6</title>
<path fill="none" stroke="midnightblue" d="M118.008,-168.083C114.312,-160.691 108.943,-149.953 104.372,-140.811"/>
<polygon fill="midnightblue" stroke="midnightblue" points="107.445,-139.13 99.8423,-131.751 101.184,-142.261 107.445,-139.13"/>
</g>
<!-- Node9 -->
<g id="node10" class="node"><title>Node9</title>
<g id="a_node10"><a xlink:href="visibility__end_8h_source.html" target="_top" xlink:title="odp/visibility_end.h">
<polygon fill="white" stroke="black" points="247.967,-0.5 247.967,-19.5 354.967,-19.5 354.967,-0.5 247.967,-0.5"/>
<text text-anchor="middle" x="301.467" y="-7.5" font-family="Helvetica,sans-Serif" font-size="10.00">odp/visibility_end.h</text>
</a>
</g>
</g>
<!-- Node3&#45;&gt;Node9 -->
<g id="edge11" class="edge"><title>Node3&#45;&gt;Node9</title>
<path fill="none" stroke="midnightblue" d="M149.282,-168.454C169.712,-161.041 197.761,-148.841 218.467,-132 254.075,-103.039 280.674,-54.9068 293.307,-28.935"/>
<polygon fill="midnightblue" stroke="midnightblue" points="296.624,-30.108 297.721,-19.5701 290.292,-27.1238 296.624,-30.108"/>
</g>
<!-- Node7 -->
<g id="node8" class="node"><title>Node7</title>
<polygon fill="white" stroke="#bfbfbf" points="17.4668,-56.5 17.4668,-75.5 121.467,-75.5 121.467,-56.5 17.4668,-56.5"/>
<text text-anchor="middle" x="69.4668" y="-63.5" font-family="Helvetica,sans-Serif" font-size="10.00">odp/api/abi/align.h</text>
</g>
<!-- Node6&#45;&gt;Node7 -->
<g id="edge7" class="edge"><title>Node6&#45;&gt;Node7</title>
<path fill="none" stroke="midnightblue" d="M91.1734,-112.083C87.6145,-104.691 82.4443,-93.9533 78.0425,-84.8111"/>
<polygon fill="midnightblue" stroke="midnightblue" points="81.172,-83.2427 73.6803,-75.7511 74.865,-86.2795 81.172,-83.2427"/>
</g>
<!-- Node8 -->
<g id="node9" class="node"><title>Node8</title>
<g id="a_node9"><a xlink:href="api_2spec_2align_8h.html" target="_top" xlink:title="ODP alignments. ">
<polygon fill="white" stroke="black" points="139.467,-56.5 139.467,-75.5 251.467,-75.5 251.467,-56.5 139.467,-56.5"/>
<text text-anchor="middle" x="195.467" y="-63.5" font-family="Helvetica,sans-Serif" font-size="10.00">odp/api/spec/align.h</text>
</a>
</g>
</g>
<!-- Node6&#45;&gt;Node8 -->
<g id="edge8" class="edge"><title>Node6&#45;&gt;Node8</title>
<path fill="none" stroke="midnightblue" d="M111.534,-112.324C127.425,-103.743 151.974,-90.486 170.425,-80.5224"/>
<polygon fill="midnightblue" stroke="midnightblue" points="172.304,-83.4857 179.44,-75.6545 168.978,-77.3264 172.304,-83.4857"/>
</g>
<!-- Node8&#45;&gt;Node4 -->
<g id="edge9" class="edge"><title>Node8&#45;&gt;Node4</title>
<path fill="none" stroke="midnightblue" d="M191.669,-56.083C188.554,-48.77 184.044,-38.1814 180.177,-29.1034"/>
<polygon fill="midnightblue" stroke="midnightblue" points="183.333,-27.5798 176.194,-19.7511 176.893,-30.3229 183.333,-27.5798"/>
</g>
<!-- Node8&#45;&gt;Node9 -->
<g id="edge10" class="edge"><title>Node8&#45;&gt;Node9</title>
<path fill="none" stroke="midnightblue" d="M212.498,-56.324C229.497,-47.6641 255.843,-34.2424 275.459,-24.249"/>
<polygon fill="midnightblue" stroke="midnightblue" points="277.157,-27.3125 284.478,-19.6545 273.979,-21.0752 277.157,-27.3125"/>
</g>
<!-- Node14&#45;&gt;Node4 -->
<g id="edge17" class="edge"><title>Node14&#45;&gt;Node4</title>
<path fill="none" stroke="midnightblue" d="M334.044,-56.4435C301.182,-47.2011 248.682,-32.4356 212.492,-22.2572"/>
<polygon fill="midnightblue" stroke="midnightblue" points="213.322,-18.8547 202.747,-19.5164 211.426,-25.5932 213.322,-18.8547"/>
</g>
<!-- Node14&#45;&gt;Node9 -->
<g id="edge18" class="edge"><title>Node14&#45;&gt;Node9</title>
<path fill="none" stroke="midnightblue" d="M354.345,-56.324C344.94,-48.2631 330.723,-36.0765 319.398,-26.3695"/>
<polygon fill="midnightblue" stroke="midnightblue" points="321.643,-23.6844 311.773,-19.8339 317.088,-28.9993 321.643,-23.6844"/>
</g>
</g>
</svg>
