<?xml version="1.0" encoding="UTF-8" standalone="no"?>
<!DOCTYPE svg PUBLIC "-//W3C//DTD SVG 1.1//EN"
 "http://www.w3.org/Graphics/SVG/1.1/DTD/svg11.dtd">
<!-- Generated by graphviz version 2.38.0 (20140413.2041)
 -->
<!-- Title: comp.h Pages: 1 -->
<svg width="912pt" height="476pt"
 viewBox="0.00 0.00 911.68 476.00" xmlns="http://www.w3.org/2000/svg" xmlns:xlink="http://www.w3.org/1999/xlink">
<g id="graph0" class="graph" transform="scale(1 1) rotate(0) translate(4 472)">
<title>comp.h</title>
<polygon fill="white" stroke="none" points="-4,4 -4,-472 907.681,-472 907.681,4 -4,4"/>
<!-- Node0 -->
<g id="node1" class="node"><title>Node0</title>
<polygon fill="#bfbfbf" stroke="black" points="571.5,-448.5 571.5,-467.5 624.5,-467.5 624.5,-448.5 571.5,-448.5"/>
<text text-anchor="middle" x="598" y="-455.5" font-family="Helvetica,sans-Serif" font-size="10.00">comp.h</text>
</g>
<!-- Node1 -->
<g id="node2" class="node"><title>Node1</title>
<g id="a_node2"><a xlink:href="visibility__begin_8h_source.html" target="_top" xlink:title="odp/visibility_begin.h">
<polygon fill="white" stroke="black" points="247.5,-0.5 247.5,-19.5 362.5,-19.5 362.5,-0.5 247.5,-0.5"/>
<text text-anchor="middle" x="305" y="-7.5" font-family="Helvetica,sans-Serif" font-size="10.00">odp/visibility_begin.h</text>
</a>
</g>
</g>
<!-- Node0&#45;&gt;Node1 -->
<g id="edge1" class="edge"><title>Node0&#45;&gt;Node1</title>
<path fill="none" stroke="midnightblue" d="M571.143,-454.953C454.783,-445.73 0,-405.916 0,-347 0,-347 0,-347 0,-121 0,-70.7286 148.478,-37.0585 238.242,-21.2963"/>
<polygon fill="midnightblue" stroke="midnightblue" points="239.087,-24.7023 248.347,-19.5538 237.897,-17.8041 239.087,-24.7023"/>
</g>
<!-- Node2 -->
<g id="node3" class="node"><title>Node2</title>
<g id="a_node3"><a xlink:href="support_8h.html" target="_top" xlink:title="ODP support API &#45; platform specific header. ">
<polygon fill="white" stroke="black" points="684.5,-392.5 684.5,-411.5 785.5,-411.5 785.5,-392.5 684.5,-392.5"/>
<text text-anchor="middle" x="735" y="-399.5" font-family="Helvetica,sans-Serif" font-size="10.00">odp/api/support.h</text>
</a>
</g>
</g>
<!-- Node0&#45;&gt;Node2 -->
<g id="edge2" class="edge"><title>Node0&#45;&gt;Node2</title>
<path fill="none" stroke="midnightblue" d="M619.708,-448.444C642.355,-439.517 678.072,-425.439 703.752,-415.317"/>
<polygon fill="midnightblue" stroke="midnightblue" points="705.374,-418.44 713.394,-411.516 702.807,-411.927 705.374,-418.44"/>
</g>
<!-- Node4 -->
<g id="node5" class="node"><title>Node4</title>
<g id="a_node5"><a xlink:href="visibility__end_8h_source.html" target="_top" xlink:title="odp/visibility_end.h">
<polygon fill="white" stroke="black" points="648.5,-0.5 648.5,-19.5 755.5,-19.5 755.5,-0.5 648.5,-0.5"/>
<text text-anchor="middle" x="702" y="-7.5" font-family="Helvetica,sans-Serif" font-size="10.00">odp/visibility_end.h</text>
</a>
</g>
</g>
<!-- Node0&#45;&gt;Node4 -->
<g id="edge32" class="edge"><title>Node0&#45;&gt;Node4</title>
<path fill="none" stroke="midnightblue" d="M624.533,-453.267C698.738,-442.089 903,-405.964 903,-347 903,-347 903,-347 903,-121 903,-90.9022 905.724,-76.8308 884,-56 867.018,-39.7167 811.176,-27.4736 765.779,-19.9004"/>
<polygon fill="midnightblue" stroke="midnightblue" points="766.111,-16.4086 755.68,-18.2625 764.99,-23.3183 766.111,-16.4086"/>
</g>
<!-- Node5 -->
<g id="node6" class="node"><title>Node5</title>
<g id="a_node6"><a xlink:href="api_2packet_8h.html" target="_top" xlink:title="ODP packet descriptor. ">
<polygon fill="white" stroke="black" points="414,-392.5 414,-411.5 510,-411.5 510,-392.5 414,-392.5"/>
<text text-anchor="middle" x="462" y="-399.5" font-family="Helvetica,sans-Serif" font-size="10.00">odp/api/packet.h</text>
</a>
</g>
</g>
<!-- Node0&#45;&gt;Node5 -->
<g id="edge6" class="edge"><title>Node0&#45;&gt;Node5</title>
<path fill="none" stroke="midnightblue" d="M576.45,-448.444C553.969,-439.517 518.512,-425.439 493.02,-415.317"/>
<polygon fill="midnightblue" stroke="midnightblue" points="494.035,-411.954 483.449,-411.516 491.451,-418.46 494.035,-411.954"/>
</g>
<!-- Node3 -->
<g id="node4" class="node"><title>Node3</title>
<g id="a_node4"><a xlink:href="spec_2support_8h.html" target="_top" xlink:title="ODP support API. ">
<polygon fill="white" stroke="black" points="749,-56.5 749,-75.5 875,-75.5 875,-56.5 749,-56.5"/>
<text text-anchor="middle" x="812" y="-63.5" font-family="Helvetica,sans-Serif" font-size="10.00">odp/api/spec/support.h</text>
</a>
</g>
</g>
<!-- Node2&#45;&gt;Node3 -->
<g id="edge3" class="edge"><title>Node2&#45;&gt;Node3</title>
<path fill="none" stroke="midnightblue" d="M779.083,-392.43C801.604,-385.944 827.808,-374.809 845,-356 865.392,-333.689 865,-321.225 865,-291 865,-291 865,-291 865,-177 865,-140.992 841.666,-104.339 825.963,-83.7501"/>
<polygon fill="midnightblue" stroke="midnightblue" points="828.55,-81.3793 819.594,-75.7193 823.065,-85.7291 828.55,-81.3793"/>
</g>
<!-- Node3&#45;&gt;Node1 -->
<g id="edge4" class="edge"><title>Node3&#45;&gt;Node1</title>
<path fill="none" stroke="midnightblue" d="M748.813,-58.27C652.928,-48.0575 471.437,-28.727 372.855,-18.2272"/>
<polygon fill="midnightblue" stroke="midnightblue" points="373.023,-14.7253 362.708,-17.1464 372.281,-21.6859 373.023,-14.7253"/>
</g>
<!-- Node3&#45;&gt;Node4 -->
<g id="edge5" class="edge"><title>Node3&#45;&gt;Node4</title>
<path fill="none" stroke="midnightblue" d="M794.327,-56.324C776.606,-47.6247 749.097,-34.1202 728.712,-24.113"/>
<polygon fill="midnightblue" stroke="midnightblue" points="730.149,-20.9195 719.63,-19.6545 727.064,-27.2031 730.149,-20.9195"/>
</g>
<!-- Node6 -->
<g id="node7" class="node"><title>Node6</title>
<g id="a_node7"><a xlink:href="api_2std__types_8h.html" target="_top" xlink:title="Standard C language types and definitions for ODP. ">
<polygon fill="white" stroke="black" points="310,-224.5 310,-243.5 420,-243.5 420,-224.5 310,-224.5"/>
<text text-anchor="middle" x="365" y="-231.5" font-family="Helvetica,sans-Serif" font-size="10.00">odp/api/std_types.h</text>
</a>
</g>
</g>
<!-- Node5&#45;&gt;Node6 -->
<g id="edge7" class="edge"><title>Node5&#45;&gt;Node6</title>
<path fill="none" stroke="midnightblue" d="M413.812,-399.185C311.598,-394.839 80.4433,-382.192 57,-356 -15.824,-274.636 189.266,-247.391 299.74,-238.753"/>
<polygon fill="midnightblue" stroke="midnightblue" points="300.089,-242.237 309.798,-237.998 299.564,-235.257 300.089,-242.237"/>
</g>
<!-- Node13 -->
<g id="node14" class="node"><title>Node13</title>
<polygon fill="white" stroke="#bfbfbf" points="66,-336.5 66,-355.5 174,-355.5 174,-336.5 66,-336.5"/>
<text text-anchor="middle" x="120" y="-343.5" font-family="Helvetica,sans-Serif" font-size="10.00">odp/api/abi/event.h</text>
</g>
<!-- Node5&#45;&gt;Node13 -->
<g id="edge18" class="edge"><title>Node5&#45;&gt;Node13</title>
<path fill="none" stroke="midnightblue" d="M413.725,-393.378C353.566,-383.879 250.575,-367.617 183.916,-357.092"/>
<polygon fill="midnightblue" stroke="midnightblue" points="184.372,-353.621 173.948,-355.518 183.28,-360.535 184.372,-353.621"/>
</g>
<!-- Node14 -->
<g id="node15" class="node"><title>Node14</title>
<polygon fill="white" stroke="#bfbfbf" points="192.5,-336.5 192.5,-355.5 319.5,-355.5 319.5,-336.5 192.5,-336.5"/>
<text text-anchor="middle" x="256" y="-343.5" font-family="Helvetica,sans-Serif" font-size="10.00">odp/api/abi/packet_io.h</text>
</g>
<!-- Node5&#45;&gt;Node14 -->
<g id="edge19" class="edge"><title>Node5&#45;&gt;Node14</title>
<path fill="none" stroke="midnightblue" d="M429.359,-392.444C393.95,-383.162 337.291,-368.309 298.447,-358.127"/>
<polygon fill="midnightblue" stroke="midnightblue" points="299.049,-354.667 288.489,-355.516 297.274,-361.438 299.049,-354.667"/>
</g>
<!-- Node15 -->
<g id="node16" class="node"><title>Node15</title>
<polygon fill="white" stroke="#bfbfbf" points="337.5,-336.5 337.5,-355.5 450.5,-355.5 450.5,-336.5 337.5,-336.5"/>
<text text-anchor="middle" x="394" y="-343.5" font-family="Helvetica,sans-Serif" font-size="10.00">odp/api/abi/packet.h</text>
</g>
<!-- Node5&#45;&gt;Node15 -->
<g id="edge20" class="edge"><title>Node5&#45;&gt;Node15</title>
<path fill="none" stroke="midnightblue" d="M451.075,-392.324C440.825,-384.185 425.279,-371.839 412.999,-362.087"/>
<polygon fill="midnightblue" stroke="midnightblue" points="415.132,-359.312 405.124,-355.834 410.779,-364.794 415.132,-359.312"/>
</g>
<!-- Node16 -->
<g id="node17" class="node"><title>Node16</title>
<polygon fill="white" stroke="#bfbfbf" points="609,-336.5 609,-355.5 717,-355.5 717,-336.5 609,-336.5"/>
<text text-anchor="middle" x="663" y="-343.5" font-family="Helvetica,sans-Serif" font-size="10.00">odp/api/abi/buffer.h</text>
</g>
<!-- Node5&#45;&gt;Node16 -->
<g id="edge21" class="edge"><title>Node5&#45;&gt;Node16</title>
<path fill="none" stroke="midnightblue" d="M493.849,-392.444C528.398,-383.162 583.682,-368.309 621.583,-358.127"/>
<polygon fill="midnightblue" stroke="midnightblue" points="622.551,-361.491 631.3,-355.516 620.734,-354.731 622.551,-361.491"/>
</g>
<!-- Node17 -->
<g id="node18" class="node"><title>Node17</title>
<polygon fill="white" stroke="#bfbfbf" points="735.5,-336.5 735.5,-355.5 836.5,-355.5 836.5,-336.5 735.5,-336.5"/>
<text text-anchor="middle" x="786" y="-343.5" font-family="Helvetica,sans-Serif" font-size="10.00">odp/api/abi/pool.h</text>
</g>
<!-- Node5&#45;&gt;Node17 -->
<g id="edge22" class="edge"><title>Node5&#45;&gt;Node17</title>
<path fill="none" stroke="midnightblue" d="M510.156,-392.974C567.432,-383.428 663.099,-367.483 725.366,-357.106"/>
<polygon fill="midnightblue" stroke="midnightblue" points="726.154,-360.523 735.442,-355.426 725.003,-353.618 726.154,-360.523"/>
</g>
<!-- Node18 -->
<g id="node19" class="node"><title>Node18</title>
<g id="a_node19"><a xlink:href="api_2spec_2packet_8h.html" target="_top" xlink:title="ODP packet descriptor. ">
<polygon fill="white" stroke="black" points="469,-336.5 469,-355.5 591,-355.5 591,-336.5 469,-336.5"/>
<text text-anchor="middle" x="530" y="-343.5" font-family="Helvetica,sans-Serif" font-size="10.00">odp/api/spec/packet.h</text>
</a>
</g>
</g>
<!-- Node5&#45;&gt;Node18 -->
<g id="edge23" class="edge"><title>Node5&#45;&gt;Node18</title>
<path fill="none" stroke="midnightblue" d="M472.925,-392.324C483.175,-384.185 498.721,-371.839 511.001,-362.087"/>
<polygon fill="midnightblue" stroke="midnightblue" points="513.221,-364.794 518.876,-355.834 508.868,-359.312 513.221,-364.794"/>
</g>
<!-- Node7 -->
<g id="node8" class="node"><title>Node7</title>
<polygon fill="white" stroke="#bfbfbf" points="433,-168.5 433,-187.5 561,-187.5 561,-168.5 433,-168.5"/>
<text text-anchor="middle" x="497" y="-175.5" font-family="Helvetica,sans-Serif" font-size="10.00">odp/api/abi/std_types.h</text>
</g>
<!-- Node6&#45;&gt;Node7 -->
<g id="edge8" class="edge"><title>Node6&#45;&gt;Node7</title>
<path fill="none" stroke="midnightblue" d="M385.916,-224.444C407.736,-215.517 442.15,-201.439 466.892,-191.317"/>
<polygon fill="midnightblue" stroke="midnightblue" points="468.252,-194.542 476.182,-187.516 465.601,-188.063 468.252,-194.542"/>
</g>
<!-- Node8 -->
<g id="node9" class="node"><title>Node8</title>
<g id="a_node9"><a xlink:href="api_2spec_2std__types_8h.html" target="_top" xlink:title="Standard C language types and definitions for ODP. ">
<polygon fill="white" stroke="black" points="279,-168.5 279,-187.5 415,-187.5 415,-168.5 279,-168.5"/>
<text text-anchor="middle" x="347" y="-175.5" font-family="Helvetica,sans-Serif" font-size="10.00">odp/api/spec/std_types.h</text>
</a>
</g>
</g>
<!-- Node6&#45;&gt;Node8 -->
<g id="edge9" class="edge"><title>Node6&#45;&gt;Node8</title>
<path fill="none" stroke="midnightblue" d="M362.028,-224.083C359.616,-216.849 356.136,-206.409 353.132,-197.397"/>
<polygon fill="midnightblue" stroke="midnightblue" points="356.4,-196.131 349.917,-187.751 349.759,-198.345 356.4,-196.131"/>
</g>
<!-- Node8&#45;&gt;Node1 -->
<g id="edge10" class="edge"><title>Node8&#45;&gt;Node1</title>
<path fill="none" stroke="midnightblue" d="M331.339,-168.452C318.642,-160.665 301.37,-147.959 292,-132 274.751,-102.62 274.026,-89.1226 282,-56 284.307,-46.4183 289.017,-36.5813 293.578,-28.5579"/>
<polygon fill="midnightblue" stroke="midnightblue" points="296.692,-30.1727 298.895,-19.8095 290.711,-26.537 296.692,-30.1727"/>
</g>
<!-- Node8&#45;&gt;Node4 -->
<g id="edge17" class="edge"><title>Node8&#45;&gt;Node4</title>
<path fill="none" stroke="midnightblue" d="M415.222,-169.382C484.065,-158.678 590.31,-133.573 663,-76 678.441,-63.7705 689.157,-43.6226 695.396,-28.9958"/>
<polygon fill="midnightblue" stroke="midnightblue" points="698.723,-30.0993 699.151,-19.5131 692.215,-27.5222 698.723,-30.0993"/>
</g>
<!-- Node9 -->
<g id="node10" class="node"><title>Node9</title>
<polygon fill="white" stroke="#bfbfbf" points="301.5,-112.5 301.5,-131.5 354.5,-131.5 354.5,-112.5 301.5,-112.5"/>
<text text-anchor="middle" x="328" y="-119.5" font-family="Helvetica,sans-Serif" font-size="10.00">stdint.h</text>
</g>
<!-- Node8&#45;&gt;Node9 -->
<g id="edge11" class="edge"><title>Node8&#45;&gt;Node9</title>
<path fill="none" stroke="midnightblue" d="M343.863,-168.083C341.317,-160.849 337.644,-150.409 334.473,-141.397"/>
<polygon fill="midnightblue" stroke="midnightblue" points="337.7,-140.023 331.079,-131.751 331.097,-142.346 337.7,-140.023"/>
</g>
<!-- Node10 -->
<g id="node11" class="node"><title>Node10</title>
<g id="a_node11"><a xlink:href="api_2align_8h.html" target="_top" xlink:title="ODP alignments. ">
<polygon fill="white" stroke="black" points="373,-112.5 373,-131.5 459,-131.5 459,-112.5 373,-112.5"/>
<text text-anchor="middle" x="416" y="-119.5" font-family="Helvetica,sans-Serif" font-size="10.00">odp/api/align.h</text>
</a>
</g>
</g>
<!-- Node8&#45;&gt;Node10 -->
<g id="edge12" class="edge"><title>Node8&#45;&gt;Node10</title>
<path fill="none" stroke="midnightblue" d="M358.086,-168.324C368.486,-160.185 384.261,-147.839 396.722,-138.087"/>
<polygon fill="midnightblue" stroke="midnightblue" points="398.994,-140.753 404.712,-131.834 394.68,-135.241 398.994,-140.753"/>
</g>
<!-- Node11 -->
<g id="node12" class="node"><title>Node11</title>
<polygon fill="white" stroke="#bfbfbf" points="421,-56.5 421,-75.5 525,-75.5 525,-56.5 421,-56.5"/>
<text text-anchor="middle" x="473" y="-63.5" font-family="Helvetica,sans-Serif" font-size="10.00">odp/api/abi/align.h</text>
</g>
<!-- Node10&#45;&gt;Node11 -->
<g id="edge13" class="edge"><title>Node10&#45;&gt;Node11</title>
<path fill="none" stroke="midnightblue" d="M425.158,-112.324C433.501,-104.42 446.032,-92.5482 456.177,-82.9377"/>
<polygon fill="midnightblue" stroke="midnightblue" points="458.823,-85.2522 463.675,-75.8339 454.009,-80.1705 458.823,-85.2522"/>
</g>
<!-- Node12 -->
<g id="node13" class="node"><title>Node12</title>
<g id="a_node13"><a xlink:href="api_2spec_2align_8h.html" target="_top" xlink:title="ODP alignments. ">
<polygon fill="white" stroke="black" points="291,-56.5 291,-75.5 403,-75.5 403,-56.5 291,-56.5"/>
<text text-anchor="middle" x="347" y="-63.5" font-family="Helvetica,sans-Serif" font-size="10.00">odp/api/spec/align.h</text>
</a>
</g>
</g>
<!-- Node10&#45;&gt;Node12 -->
<g id="edge14" class="edge"><title>Node10&#45;&gt;Node12</title>
<path fill="none" stroke="midnightblue" d="M404.914,-112.324C394.514,-104.185 378.739,-91.8395 366.278,-82.0874"/>
<polygon fill="midnightblue" stroke="midnightblue" points="368.32,-79.2407 358.288,-75.8339 364.006,-84.7533 368.32,-79.2407"/>
</g>
<!-- Node12&#45;&gt;Node1 -->
<g id="edge15" class="edge"><title>Node12&#45;&gt;Node1</title>
<path fill="none" stroke="midnightblue" d="M340.065,-56.083C334.071,-48.3768 325.248,-37.0333 317.952,-27.6531"/>
<polygon fill="midnightblue" stroke="midnightblue" points="320.709,-25.4958 311.806,-19.7511 315.183,-29.7934 320.709,-25.4958"/>
</g>
<!-- Node12&#45;&gt;Node4 -->
<g id="edge16" class="edge"><title>Node12&#45;&gt;Node4</title>
<path fill="none" stroke="midnightblue" d="M403.251,-56.4435C467.222,-46.7127 571.441,-30.8597 638.339,-20.6836"/>
<polygon fill="midnightblue" stroke="midnightblue" points="638.976,-24.1271 648.336,-19.1629 637.924,-17.2067 638.976,-24.1271"/>
</g>
<!-- Node18&#45;&gt;Node1 -->
<g id="edge24" class="edge"><title>Node18&#45;&gt;Node1</title>
<path fill="none" stroke="midnightblue" d="M473.347,-336.446C385.143,-321.512 225,-287.209 225,-235 225,-235 225,-235 225,-121 225,-80.6206 260.695,-45.1055 284.398,-25.9729"/>
<polygon fill="midnightblue" stroke="midnightblue" points="286.745,-28.582 292.5,-19.6866 282.454,-23.0515 286.745,-28.582"/>
</g>
<!-- Node18&#45;&gt;Node4 -->
<g id="edge31" class="edge"><title>Node18&#45;&gt;Node4</title>
<path fill="none" stroke="midnightblue" d="M588.344,-336.473C644.514,-324.574 721,-296.991 721,-235 721,-235 721,-235 721,-121 721,-88.4885 712.841,-51.3503 707.216,-29.6103"/>
<polygon fill="midnightblue" stroke="midnightblue" points="710.541,-28.498 704.562,-19.7514 703.782,-30.3175 710.541,-28.498"/>
</g>
<!-- Node19 -->
<g id="node20" class="node"><title>Node19</title>
<g id="a_node20"><a xlink:href="api_2time_8h.html" target="_top" xlink:title="ODP time. ">
<polygon fill="white" stroke="black" points="481,-280.5 481,-299.5 567,-299.5 567,-280.5 481,-280.5"/>
<text text-anchor="middle" x="524" y="-287.5" font-family="Helvetica,sans-Serif" font-size="10.00">odp/api/time.h</text>
</a>
</g>
</g>
<!-- Node18&#45;&gt;Node19 -->
<g id="edge25" class="edge"><title>Node18&#45;&gt;Node19</title>
<path fill="none" stroke="midnightblue" d="M529.009,-336.083C528.214,-328.927 527.071,-318.635 526.077,-309.691"/>
<polygon fill="midnightblue" stroke="midnightblue" points="529.555,-309.303 524.972,-299.751 522.598,-310.076 529.555,-309.303"/>
</g>
<!-- Node19&#45;&gt;Node6 -->
<g id="edge26" class="edge"><title>Node19&#45;&gt;Node6</title>
<path fill="none" stroke="midnightblue" d="M498.806,-280.444C472.057,-271.359 429.597,-256.939 399.695,-246.783"/>
<polygon fill="midnightblue" stroke="midnightblue" points="400.671,-243.418 390.076,-243.516 398.419,-250.046 400.671,-243.418"/>
</g>
<!-- Node20 -->
<g id="node21" class="node"><title>Node20</title>
<polygon fill="white" stroke="#bfbfbf" points="467.5,-224.5 467.5,-243.5 570.5,-243.5 570.5,-224.5 467.5,-224.5"/>
<text text-anchor="middle" x="519" y="-231.5" font-family="Helvetica,sans-Serif" font-size="10.00">odp/api/abi/time.h</text>
</g>
<!-- Node19&#45;&gt;Node20 -->
<g id="edge27" class="edge"><title>Node19&#45;&gt;Node20</title>
<path fill="none" stroke="midnightblue" d="M523.174,-280.083C522.519,-273.006 521.58,-262.861 520.758,-253.986"/>
<polygon fill="midnightblue" stroke="midnightblue" points="524.217,-253.386 519.81,-243.751 517.247,-254.031 524.217,-253.386"/>
</g>
<!-- Node21 -->
<g id="node22" class="node"><title>Node21</title>
<g id="a_node22"><a xlink:href="api_2spec_2time_8h.html" target="_top" xlink:title="ODP time. ">
<polygon fill="white" stroke="black" points="543.5,-56.5 543.5,-75.5 654.5,-75.5 654.5,-56.5 543.5,-56.5"/>
<text text-anchor="middle" x="599" y="-63.5" font-family="Helvetica,sans-Serif" font-size="10.00">odp/api/spec/time.h</text>
</a>
</g>
</g>
<!-- Node19&#45;&gt;Node21 -->
<g id="edge28" class="edge"><title>Node19&#45;&gt;Node21</title>
<path fill="none" stroke="midnightblue" d="M540.184,-280.448C553.017,-272.739 570.206,-260.143 579,-244 607.054,-192.5 604.519,-120.17 601.32,-86.1323"/>
<polygon fill="midnightblue" stroke="midnightblue" points="604.757,-85.3561 600.21,-75.7866 597.797,-86.103 604.757,-85.3561"/>
</g>
<!-- Node21&#45;&gt;Node1 -->
<g id="edge29" class="edge"><title>Node21&#45;&gt;Node1</title>
<path fill="none" stroke="midnightblue" d="M552.415,-56.4435C500.59,-46.9246 416.868,-31.5472 361.385,-21.3563"/>
<polygon fill="midnightblue" stroke="midnightblue" points="361.835,-17.8806 351.367,-19.5164 360.57,-24.7654 361.835,-17.8806"/>
</g>
<!-- Node21&#45;&gt;Node4 -->
<g id="edge30" class="edge"><title>Node21&#45;&gt;Node4</title>
<path fill="none" stroke="midnightblue" d="M615.549,-56.324C631.992,-47.7034 657.435,-34.3643 676.468,-24.3855"/>
<polygon fill="midnightblue" stroke="midnightblue" points="678.261,-27.3977 685.492,-19.6545 675.011,-21.198 678.261,-27.3977"/>
</g>
</g>
</svg>
