<?xml version="1.0" encoding="UTF-8" standalone="no"?>
<!DOCTYPE svg PUBLIC "-//W3C//DTD SVG 1.1//EN"
 "http://www.w3.org/Graphics/SVG/1.1/DTD/svg11.dtd">
<!-- Generated by graphviz version 2.38.0 (20140413.2041)
 -->
<!-- Title: schedule_types.h Pages: 1 -->
<svg width="898pt" height="756pt"
 viewBox="0.00 0.00 898.00 756.00" xmlns="http://www.w3.org/2000/svg" xmlns:xlink="http://www.w3.org/1999/xlink">
<g id="graph0" class="graph" transform="scale(1 1) rotate(0) translate(4 752)">
<title>schedule_types.h</title>
<polygon fill="white" stroke="none" points="-4,4 -4,-752 894,-752 894,4 -4,4"/>
<!-- Node1 -->
<g id="node1" class="node"><title>Node1</title>
<polygon fill="#bfbfbf" stroke="black" points="354,-728.5 354,-747.5 454,-747.5 454,-728.5 354,-728.5"/>
<text text-anchor="middle" x="404" y="-735.5" font-family="Helvetica,sans-Serif" font-size="10.00">schedule_types.h</text>
</g>
<!-- Node2 -->
<g id="node2" class="node"><title>Node2</title>
<g id="a_node2"><a xlink:href="arch_2arm32-linux_2odp_2api_2abi_2schedule__types_8h_source.html" target="_top" xlink:title="schedule_types.h">
<polygon fill="white" stroke="black" points="0,-672.5 0,-691.5 100,-691.5 100,-672.5 0,-672.5"/>
<text text-anchor="middle" x="50" y="-679.5" font-family="Helvetica,sans-Serif" font-size="10.00">schedule_types.h</text>
</a>
</g>
</g>
<!-- Node1&#45;&gt;Node2 -->
<g id="edge1" class="edge"><title>Node1&#45;&gt;Node2</title>
<path fill="none" stroke="midnightblue" d="M343.43,-727.761C274.794,-717.291 164.178,-700.417 100.17,-690.653"/>
<polygon fill="midnightblue" stroke="midnightblue" points="343.243,-731.272 353.656,-729.32 344.299,-724.352 343.243,-731.272"/>
</g>
<!-- Node3 -->
<g id="node3" class="node"><title>Node3</title>
<g id="a_node3"><a xlink:href="arch_2arm64-linux_2odp_2api_2abi_2schedule__types_8h_source.html" target="_top" xlink:title="schedule_types.h">
<polygon fill="white" stroke="black" points="118,-672.5 118,-691.5 218,-691.5 218,-672.5 118,-672.5"/>
<text text-anchor="middle" x="168" y="-679.5" font-family="Helvetica,sans-Serif" font-size="10.00">schedule_types.h</text>
</a>
</g>
</g>
<!-- Node1&#45;&gt;Node3 -->
<g id="edge2" class="edge"><title>Node1&#45;&gt;Node3</title>
<path fill="none" stroke="midnightblue" d="M356.594,-726.153C312.003,-715.95 246.146,-700.881 205.22,-691.516"/>
<polygon fill="midnightblue" stroke="midnightblue" points="356.076,-729.625 366.605,-728.444 357.638,-722.801 356.076,-729.625"/>
</g>
<!-- Node4 -->
<g id="node4" class="node"><title>Node4</title>
<g id="a_node4"><a xlink:href="arch_2default-linux_2odp_2api_2abi_2schedule__types_8h_source.html" target="_top" xlink:title="schedule_types.h">
<polygon fill="white" stroke="black" points="236,-672.5 236,-691.5 336,-691.5 336,-672.5 236,-672.5"/>
<text text-anchor="middle" x="286" y="-679.5" font-family="Helvetica,sans-Serif" font-size="10.00">schedule_types.h</text>
</a>
</g>
</g>
<!-- Node1&#45;&gt;Node4 -->
<g id="edge3" class="edge"><title>Node1&#45;&gt;Node4</title>
<path fill="none" stroke="midnightblue" d="M376.1,-724.232C354.027,-714.131 323.824,-700.309 304.61,-691.516"/>
<polygon fill="midnightblue" stroke="midnightblue" points="374.753,-727.465 385.303,-728.444 377.666,-721.1 374.753,-727.465"/>
</g>
<!-- Node5 -->
<g id="node5" class="node"><title>Node5</title>
<g id="a_node5"><a xlink:href="arch_2mips64-linux_2odp_2api_2abi_2schedule__types_8h_source.html" target="_top" xlink:title="schedule_types.h">
<polygon fill="white" stroke="black" points="354,-672.5 354,-691.5 454,-691.5 454,-672.5 354,-672.5"/>
<text text-anchor="middle" x="404" y="-679.5" font-family="Helvetica,sans-Serif" font-size="10.00">schedule_types.h</text>
</a>
</g>
</g>
<!-- Node1&#45;&gt;Node5 -->
<g id="edge4" class="edge"><title>Node1&#45;&gt;Node5</title>
<path fill="none" stroke="midnightblue" d="M404,-717.805C404,-708.91 404,-698.78 404,-691.751"/>
<polygon fill="midnightblue" stroke="midnightblue" points="400.5,-718.083 404,-728.083 407.5,-718.083 400.5,-718.083"/>
</g>
<!-- Node6 -->
<g id="node6" class="node"><title>Node6</title>
<g id="a_node6"><a xlink:href="arch_2power64-linux_2odp_2api_2abi_2schedule__types_8h_source.html" target="_top" xlink:title="schedule_types.h">
<polygon fill="white" stroke="black" points="472,-672.5 472,-691.5 572,-691.5 572,-672.5 472,-672.5"/>
<text text-anchor="middle" x="522" y="-679.5" font-family="Helvetica,sans-Serif" font-size="10.00">schedule_types.h</text>
</a>
</g>
</g>
<!-- Node1&#45;&gt;Node6 -->
<g id="edge5" class="edge"><title>Node1&#45;&gt;Node6</title>
<path fill="none" stroke="midnightblue" d="M431.9,-724.232C453.973,-714.131 484.176,-700.309 503.39,-691.516"/>
<polygon fill="midnightblue" stroke="midnightblue" points="430.334,-721.1 422.697,-728.444 433.247,-727.465 430.334,-721.1"/>
</g>
<!-- Node7 -->
<g id="node7" class="node"><title>Node7</title>
<g id="a_node7"><a xlink:href="arch_2x86__32-linux_2odp_2api_2abi_2schedule__types_8h_source.html" target="_top" xlink:title="schedule_types.h">
<polygon fill="white" stroke="black" points="590,-672.5 590,-691.5 690,-691.5 690,-672.5 590,-672.5"/>
<text text-anchor="middle" x="640" y="-679.5" font-family="Helvetica,sans-Serif" font-size="10.00">schedule_types.h</text>
</a>
</g>
</g>
<!-- Node1&#45;&gt;Node7 -->
<g id="edge6" class="edge"><title>Node1&#45;&gt;Node7</title>
<path fill="none" stroke="midnightblue" d="M451.406,-726.153C495.997,-715.95 561.854,-700.881 602.78,-691.516"/>
<polygon fill="midnightblue" stroke="midnightblue" points="450.362,-722.801 441.395,-728.444 451.924,-729.625 450.362,-722.801"/>
</g>
<!-- Node8 -->
<g id="node8" class="node"><title>Node8</title>
<g id="a_node8"><a xlink:href="arch_2x86__64-linux_2odp_2api_2abi_2schedule__types_8h_source.html" target="_top" xlink:title="schedule_types.h">
<polygon fill="white" stroke="black" points="708,-672.5 708,-691.5 808,-691.5 808,-672.5 708,-672.5"/>
<text text-anchor="middle" x="758" y="-679.5" font-family="Helvetica,sans-Serif" font-size="10.00">schedule_types.h</text>
</a>
</g>
</g>
<!-- Node1&#45;&gt;Node8 -->
<g id="edge7" class="edge"><title>Node1&#45;&gt;Node8</title>
<path fill="none" stroke="midnightblue" d="M464.57,-727.761C533.206,-717.291 643.822,-700.417 707.83,-690.653"/>
<polygon fill="midnightblue" stroke="midnightblue" points="463.701,-724.352 454.344,-729.32 464.757,-731.272 463.701,-724.352"/>
</g>
<!-- Node9 -->
<g id="node9" class="node"><title>Node9</title>
<g id="a_node9"><a xlink:href="api_2schedule_8h.html" target="_top" xlink:title="ODP schedule. ">
<polygon fill="white" stroke="black" points="763,-336.5 763,-355.5 831,-355.5 831,-336.5 763,-336.5"/>
<text text-anchor="middle" x="797" y="-343.5" font-family="Helvetica,sans-Serif" font-size="10.00">schedule.h</text>
</a>
</g>
</g>
<!-- Node8&#45;&gt;Node9 -->
<g id="edge8" class="edge"><title>Node8&#45;&gt;Node9</title>
<path fill="none" stroke="midnightblue" d="M768.41,-663.463C779.963,-642.302 797,-605.284 797,-571 797,-571 797,-571 797,-457 797,-419.188 797,-374.064 797,-355.558"/>
<polygon fill="midnightblue" stroke="midnightblue" points="765.315,-661.825 763.423,-672.25 771.403,-665.28 765.315,-661.825"/>
</g>
<!-- Node12 -->
<g id="node12" class="node"><title>Node12</title>
<g id="a_node12"><a xlink:href="api_2schedule__types_8h.html" target="_top" xlink:title="ODP schedule. ">
<polygon fill="white" stroke="black" points="669,-616.5 669,-635.5 769,-635.5 769,-616.5 669,-616.5"/>
<text text-anchor="middle" x="719" y="-623.5" font-family="Helvetica,sans-Serif" font-size="10.00">schedule_types.h</text>
</a>
</g>
</g>
<!-- Node8&#45;&gt;Node12 -->
<g id="edge11" class="edge"><title>Node8&#45;&gt;Node12</title>
<path fill="none" stroke="midnightblue" d="M745.618,-663.855C738.865,-654.505 730.791,-643.327 725.32,-635.751"/>
<polygon fill="midnightblue" stroke="midnightblue" points="742.868,-666.025 751.56,-672.083 748.542,-661.927 742.868,-666.025"/>
</g>
<!-- Node10 -->
<g id="node10" class="node"><title>Node10</title>
<g id="a_node10"><a xlink:href="odp__api_8h.html" target="_top" xlink:title="The OpenDataPlane API. ">
<polygon fill="white" stroke="black" points="662.5,-56.5 662.5,-75.5 725.5,-75.5 725.5,-56.5 662.5,-56.5"/>
<text text-anchor="middle" x="694" y="-63.5" font-family="Helvetica,sans-Serif" font-size="10.00">odp_api.h</text>
</a>
</g>
</g>
<!-- Node9&#45;&gt;Node10 -->
<g id="edge9" class="edge"><title>Node9&#45;&gt;Node10</title>
<path fill="none" stroke="midnightblue" d="M821.093,-330.72C848.649,-312.357 890,-277.689 890,-235 890,-235 890,-235 890,-177 890,-102.666 781.466,-78.05 725.927,-70.3196"/>
<polygon fill="midnightblue" stroke="midnightblue" points="818.894,-327.972 812.357,-336.31 822.667,-333.868 818.894,-327.972"/>
</g>
<!-- Node11 -->
<g id="node11" class="node"><title>Node11</title>
<g id="a_node11"><a xlink:href="odp_8h.html" target="_top" xlink:title="WARNING: THIS FILE IS DEPRECATED AND WILL BE REMOVED!!! ODP APPLICATIONS SHOULD NOW INCLUDE odp_api...">
<polygon fill="white" stroke="black" points="672,-0.5 672,-19.5 716,-19.5 716,-0.5 672,-0.5"/>
<text text-anchor="middle" x="694" y="-7.5" font-family="Helvetica,sans-Serif" font-size="10.00">odp.h</text>
</a>
</g>
</g>
<!-- Node10&#45;&gt;Node11 -->
<g id="edge10" class="edge"><title>Node10&#45;&gt;Node11</title>
<path fill="none" stroke="midnightblue" d="M694,-45.8045C694,-36.9102 694,-26.7798 694,-19.7511"/>
<polygon fill="midnightblue" stroke="midnightblue" points="690.5,-46.083 694,-56.083 697.5,-46.083 690.5,-46.083"/>
</g>
<!-- Node13 -->
<g id="node13" class="node"><title>Node13</title>
<g id="a_node13"><a xlink:href="queue__types_8h.html" target="_top" xlink:title="ODP queue types. ">
<polygon fill="white" stroke="black" points="609.5,-560.5 609.5,-579.5 696.5,-579.5 696.5,-560.5 609.5,-560.5"/>
<text text-anchor="middle" x="653" y="-567.5" font-family="Helvetica,sans-Serif" font-size="10.00">queue_types.h</text>
</a>
</g>
</g>
<!-- Node12&#45;&gt;Node13 -->
<g id="edge12" class="edge"><title>Node12&#45;&gt;Node13</title>
<path fill="none" stroke="midnightblue" d="M700.446,-609.82C688.622,-600.145 673.714,-587.948 663.797,-579.834"/>
<polygon fill="midnightblue" stroke="midnightblue" points="698.44,-612.7 708.396,-616.324 702.873,-607.283 698.44,-612.7"/>
</g>
<!-- Node25 -->
<g id="node25" class="node"><title>Node25</title>
<g id="a_node25"><a xlink:href="api_2spec_2schedule_8h.html" target="_top" xlink:title="ODP schedule. ">
<polygon fill="white" stroke="black" points="701,-392.5 701,-411.5 769,-411.5 769,-392.5 701,-392.5"/>
<text text-anchor="middle" x="735" y="-399.5" font-family="Helvetica,sans-Serif" font-size="10.00">schedule.h</text>
</a>
</g>
</g>
<!-- Node12&#45;&gt;Node25 -->
<g id="edge35" class="edge"><title>Node12&#45;&gt;Node25</title>
<path fill="none" stroke="midnightblue" d="M720.348,-606.295C723.638,-560.644 731.984,-444.854 734.36,-411.884"/>
<polygon fill="midnightblue" stroke="midnightblue" points="716.855,-606.072 719.627,-616.297 723.837,-606.575 716.855,-606.072"/>
</g>
<!-- Node14 -->
<g id="node14" class="node"><title>Node14</title>
<g id="a_node14"><a xlink:href="api_2spec_2queue_8h.html" target="_top" xlink:title="ODP queue. ">
<polygon fill="white" stroke="black" points="621,-504.5 621,-523.5 677,-523.5 677,-504.5 621,-504.5"/>
<text text-anchor="middle" x="649" y="-511.5" font-family="Helvetica,sans-Serif" font-size="10.00">queue.h</text>
</a>
</g>
</g>
<!-- Node13&#45;&gt;Node14 -->
<g id="edge13" class="edge"><title>Node13&#45;&gt;Node14</title>
<path fill="none" stroke="midnightblue" d="M651.6,-550.101C650.936,-541.136 650.175,-530.858 649.648,-523.751"/>
<polygon fill="midnightblue" stroke="midnightblue" points="648.11,-550.369 652.339,-560.083 655.091,-549.852 648.11,-550.369"/>
</g>
<!-- Node15 -->
<g id="node15" class="node"><title>Node15</title>
<g id="a_node15"><a xlink:href="api_2queue_8h.html" target="_top" xlink:title="ODP queue. ">
<polygon fill="white" stroke="black" points="619,-448.5 619,-467.5 675,-467.5 675,-448.5 619,-448.5"/>
<text text-anchor="middle" x="647" y="-455.5" font-family="Helvetica,sans-Serif" font-size="10.00">queue.h</text>
</a>
</g>
</g>
<!-- Node14&#45;&gt;Node15 -->
<g id="edge14" class="edge"><title>Node14&#45;&gt;Node15</title>
<path fill="none" stroke="midnightblue" d="M648.289,-493.805C647.96,-484.91 647.584,-474.78 647.324,-467.751"/>
<polygon fill="midnightblue" stroke="midnightblue" points="644.802,-494.219 648.67,-504.083 651.797,-493.96 644.802,-494.219"/>
</g>
<!-- Node15&#45;&gt;Node10 -->
<g id="edge34" class="edge"><title>Node15&#45;&gt;Node10</title>
<path fill="none" stroke="midnightblue" d="M609.252,-447.372C564.527,-433.427 496,-402.934 496,-347 496,-347 496,-347 496,-177 496,-101.892 606.218,-77.627 662.188,-70.1471"/>
<polygon fill="midnightblue" stroke="midnightblue" points="608.369,-450.761 618.952,-450.256 610.364,-444.051 608.369,-450.761"/>
</g>
<!-- Node16 -->
<g id="node16" class="node"><title>Node16</title>
<g id="a_node16"><a xlink:href="api_2crypto_8h.html" target="_top" xlink:title="ODP crypto. ">
<polygon fill="white" stroke="black" points="524,-224.5 524,-243.5 580,-243.5 580,-224.5 524,-224.5"/>
<text text-anchor="middle" x="552" y="-231.5" font-family="Helvetica,sans-Serif" font-size="10.00">crypto.h</text>
</a>
</g>
</g>
<!-- Node15&#45;&gt;Node16 -->
<g id="edge15" class="edge"><title>Node15&#45;&gt;Node16</title>
<path fill="none" stroke="midnightblue" d="M628.063,-441.562C619.328,-433.556 609.483,-423.133 603,-412 568.882,-353.414 556.297,-270.476 552.978,-243.697"/>
<polygon fill="midnightblue" stroke="midnightblue" points="625.81,-444.242 635.644,-448.186 630.416,-438.971 625.81,-444.242"/>
</g>
<!-- Node19 -->
<g id="node19" class="node"><title>Node19</title>
<g id="a_node19"><a xlink:href="api_2spec_2packet__io_8h.html" target="_top" xlink:title="ODP Packet IO. ">
<polygon fill="white" stroke="black" points="611.5,-392.5 611.5,-411.5 682.5,-411.5 682.5,-392.5 611.5,-392.5"/>
<text text-anchor="middle" x="647" y="-399.5" font-family="Helvetica,sans-Serif" font-size="10.00">packet_io.h</text>
</a>
</g>
</g>
<!-- Node15&#45;&gt;Node19 -->
<g id="edge20" class="edge"><title>Node15&#45;&gt;Node19</title>
<path fill="none" stroke="midnightblue" d="M647,-437.805C647,-428.91 647,-418.78 647,-411.751"/>
<polygon fill="midnightblue" stroke="midnightblue" points="643.5,-438.083 647,-448.083 650.5,-438.083 643.5,-438.083"/>
</g>
<!-- Node15&#45;&gt;Node25 -->
<g id="edge32" class="edge"><title>Node15&#45;&gt;Node25</title>
<path fill="none" stroke="midnightblue" d="M669.977,-442.901C686.113,-432.999 707.181,-420.071 720.896,-411.655"/>
<polygon fill="midnightblue" stroke="midnightblue" points="667.831,-440.111 661.139,-448.324 671.493,-446.077 667.831,-440.111"/>
</g>
<!-- Node16&#45;&gt;Node10 -->
<g id="edge19" class="edge"><title>Node16&#45;&gt;Node10</title>
<path fill="none" stroke="midnightblue" d="M556.36,-214.308C563.218,-188.484 578.749,-141.721 607,-112 623.519,-94.6212 648.234,-82.735 667.105,-75.5631"/>
<polygon fill="midnightblue" stroke="midnightblue" points="552.898,-213.724 553.872,-224.274 559.69,-215.42 552.898,-213.724"/>
</g>
<!-- Node17 -->
<g id="node17" class="node"><title>Node17</title>
<g id="a_node17"><a xlink:href="api_2spec_2ipsec_8h.html" target="_top" xlink:title="ODP IPSEC API. ">
<polygon fill="white" stroke="black" points="616,-168.5 616,-187.5 666,-187.5 666,-168.5 616,-168.5"/>
<text text-anchor="middle" x="641" y="-175.5" font-family="Helvetica,sans-Serif" font-size="10.00">ipsec.h</text>
</a>
</g>
</g>
<!-- Node16&#45;&gt;Node17 -->
<g id="edge16" class="edge"><title>Node16&#45;&gt;Node17</title>
<path fill="none" stroke="midnightblue" d="M575.238,-218.901C591.558,-208.999 612.865,-196.071 626.736,-187.655"/>
<polygon fill="midnightblue" stroke="midnightblue" points="573.033,-216.144 566.299,-224.324 576.664,-222.129 573.033,-216.144"/>
</g>
<!-- Node18 -->
<g id="node18" class="node"><title>Node18</title>
<g id="a_node18"><a xlink:href="api_2ipsec_8h.html" target="_top" xlink:title="ODP IPSEC API &#45; platform specific header. ">
<polygon fill="white" stroke="black" points="616,-112.5 616,-131.5 666,-131.5 666,-112.5 616,-112.5"/>
<text text-anchor="middle" x="641" y="-119.5" font-family="Helvetica,sans-Serif" font-size="10.00">ipsec.h</text>
</a>
</g>
</g>
<!-- Node17&#45;&gt;Node18 -->
<g id="edge17" class="edge"><title>Node17&#45;&gt;Node18</title>
<path fill="none" stroke="midnightblue" d="M641,-157.805C641,-148.91 641,-138.78 641,-131.751"/>
<polygon fill="midnightblue" stroke="midnightblue" points="637.5,-158.083 641,-168.083 644.5,-158.083 637.5,-158.083"/>
</g>
<!-- Node18&#45;&gt;Node10 -->
<g id="edge18" class="edge"><title>Node18&#45;&gt;Node10</title>
<path fill="none" stroke="midnightblue" d="M656.981,-104.718C666.322,-95.1997 677.746,-83.5608 685.411,-75.7511"/>
<polygon fill="midnightblue" stroke="midnightblue" points="654.259,-102.494 649.752,-112.083 659.254,-107.398 654.259,-102.494"/>
</g>
<!-- Node20 -->
<g id="node20" class="node"><title>Node20</title>
<g id="a_node20"><a xlink:href="api_2packet__io_8h.html" target="_top" xlink:title="ODP Packet IO. ">
<polygon fill="white" stroke="black" points="642.5,-336.5 642.5,-355.5 713.5,-355.5 713.5,-336.5 642.5,-336.5"/>
<text text-anchor="middle" x="678" y="-343.5" font-family="Helvetica,sans-Serif" font-size="10.00">packet_io.h</text>
</a>
</g>
</g>
<!-- Node19&#45;&gt;Node20 -->
<g id="edge21" class="edge"><title>Node19&#45;&gt;Node20</title>
<path fill="none" stroke="midnightblue" d="M657.176,-383.275C662.474,-374.045 668.717,-363.17 672.976,-355.751"/>
<polygon fill="midnightblue" stroke="midnightblue" points="654.062,-381.668 652.119,-392.083 660.133,-385.153 654.062,-381.668"/>
</g>
<!-- Node20&#45;&gt;Node10 -->
<g id="edge31" class="edge"><title>Node20&#45;&gt;Node10</title>
<path fill="none" stroke="midnightblue" d="M723.551,-336.802C763.499,-328.738 817.551,-315.42 833,-300 854.302,-278.737 852,-265.098 852,-235 852,-235 852,-235 852,-177 852,-116.002 771.702,-86.0703 725.594,-73.9112"/>
<polygon fill="midnightblue" stroke="midnightblue" points="722.866,-333.369 713.731,-338.737 724.219,-340.237 722.866,-333.369"/>
</g>
<!-- Node20&#45;&gt;Node17 -->
<g id="edge26" class="edge"><title>Node20&#45;&gt;Node17</title>
<path fill="none" stroke="midnightblue" d="M654.751,-330.683C644.516,-322.988 633.568,-312.502 628,-300 610.637,-261.013 628.769,-208.216 637.191,-187.676"/>
<polygon fill="midnightblue" stroke="midnightblue" points="652.844,-333.621 663.048,-336.474 656.851,-327.881 652.844,-333.621"/>
</g>
<!-- Node21 -->
<g id="node21" class="node"><title>Node21</title>
<g id="a_node21"><a xlink:href="api_2spec_2classification_8h.html" target="_top" xlink:title="ODP classification descriptor. ">
<polygon fill="white" stroke="black" points="738,-280.5 738,-299.5 824,-299.5 824,-280.5 738,-280.5"/>
<text text-anchor="middle" x="781" y="-287.5" font-family="Helvetica,sans-Serif" font-size="10.00">classification.h</text>
</a>
</g>
</g>
<!-- Node20&#45;&gt;Node21 -->
<g id="edge22" class="edge"><title>Node20&#45;&gt;Node21</title>
<path fill="none" stroke="midnightblue" d="M703.579,-331.59C722.623,-321.605 748.064,-308.267 764.492,-299.655"/>
<polygon fill="midnightblue" stroke="midnightblue" points="701.78,-328.581 694.549,-336.324 705.031,-334.78 701.78,-328.581"/>
</g>
<!-- Node23 -->
<g id="node23" class="node"><title>Node23</title>
<g id="a_node23"><a xlink:href="api_2spec_2traffic__mngr_8h.html" target="_top" xlink:title="Copyright (c) 2015&#45;2018, Linaro Limited All rights reserved. ">
<polygon fill="white" stroke="black" points="636.5,-280.5 636.5,-299.5 719.5,-299.5 719.5,-280.5 636.5,-280.5"/>
<text text-anchor="middle" x="678" y="-287.5" font-family="Helvetica,sans-Serif" font-size="10.00">traffic_mngr.h</text>
</a>
</g>
</g>
<!-- Node20&#45;&gt;Node23 -->
<g id="edge27" class="edge"><title>Node20&#45;&gt;Node23</title>
<path fill="none" stroke="midnightblue" d="M678,-325.805C678,-316.91 678,-306.78 678,-299.751"/>
<polygon fill="midnightblue" stroke="midnightblue" points="674.5,-326.083 678,-336.083 681.5,-326.083 674.5,-326.083"/>
</g>
<!-- Node22 -->
<g id="node22" class="node"><title>Node22</title>
<g id="a_node22"><a xlink:href="api_2classification_8h.html" target="_top" xlink:title="ODP classification descriptor. ">
<polygon fill="white" stroke="black" points="738,-224.5 738,-243.5 824,-243.5 824,-224.5 738,-224.5"/>
<text text-anchor="middle" x="781" y="-231.5" font-family="Helvetica,sans-Serif" font-size="10.00">classification.h</text>
</a>
</g>
</g>
<!-- Node21&#45;&gt;Node22 -->
<g id="edge23" class="edge"><title>Node21&#45;&gt;Node22</title>
<path fill="none" stroke="midnightblue" d="M781,-269.805C781,-260.91 781,-250.78 781,-243.751"/>
<polygon fill="midnightblue" stroke="midnightblue" points="777.5,-270.083 781,-280.083 784.5,-270.083 777.5,-270.083"/>
</g>
<!-- Node22&#45;&gt;Node10 -->
<g id="edge25" class="edge"><title>Node22&#45;&gt;Node10</title>
<path fill="none" stroke="midnightblue" d="M771.491,-214.856C752.831,-179.252 712.057,-101.453 698.491,-75.5681"/>
<polygon fill="midnightblue" stroke="midnightblue" points="768.58,-216.843 776.323,-224.075 774.78,-213.593 768.58,-216.843"/>
</g>
<!-- Node22&#45;&gt;Node17 -->
<g id="edge24" class="edge"><title>Node22&#45;&gt;Node17</title>
<path fill="none" stroke="midnightblue" d="M749.298,-220.772C723,-210.629 686.284,-196.467 663.08,-187.516"/>
<polygon fill="midnightblue" stroke="midnightblue" points="748.227,-224.11 758.817,-224.444 750.746,-217.579 748.227,-224.11"/>
</g>
<!-- Node24 -->
<g id="node24" class="node"><title>Node24</title>
<g id="a_node24"><a xlink:href="api_2traffic__mngr_8h.html" target="_top" xlink:title="ODP Traffic manager. ">
<polygon fill="white" stroke="black" points="636.5,-224.5 636.5,-243.5 719.5,-243.5 719.5,-224.5 636.5,-224.5"/>
<text text-anchor="middle" x="678" y="-231.5" font-family="Helvetica,sans-Serif" font-size="10.00">traffic_mngr.h</text>
</a>
</g>
</g>
<!-- Node23&#45;&gt;Node24 -->
<g id="edge28" class="edge"><title>Node23&#45;&gt;Node24</title>
<path fill="none" stroke="midnightblue" d="M678,-269.805C678,-260.91 678,-250.78 678,-243.751"/>
<polygon fill="midnightblue" stroke="midnightblue" points="674.5,-270.083 678,-280.083 681.5,-270.083 674.5,-270.083"/>
</g>
<!-- Node24&#45;&gt;Node10 -->
<g id="edge30" class="edge"><title>Node24&#45;&gt;Node10</title>
<path fill="none" stroke="midnightblue" d="M679.838,-213.93C683.309,-177.92 690.701,-101.231 693.174,-75.5681"/>
<polygon fill="midnightblue" stroke="midnightblue" points="676.336,-213.785 678.86,-224.075 683.304,-214.457 676.336,-213.785"/>
</g>
<!-- Node24&#45;&gt;Node17 -->
<g id="edge29" class="edge"><title>Node24&#45;&gt;Node17</title>
<path fill="none" stroke="midnightblue" d="M666.054,-215.566C659.688,-206.275 652.133,-195.248 646.996,-187.751"/>
<polygon fill="midnightblue" stroke="midnightblue" points="663.351,-217.812 671.89,-224.083 669.125,-213.855 663.351,-217.812"/>
</g>
<!-- Node25&#45;&gt;Node9 -->
<g id="edge33" class="edge"><title>Node25&#45;&gt;Node9</title>
<path fill="none" stroke="midnightblue" d="M752.754,-385.537C763.808,-375.909 777.631,-363.869 786.857,-355.834"/>
<polygon fill="midnightblue" stroke="midnightblue" points="750.203,-383.117 744.961,-392.324 754.801,-388.395 750.203,-383.117"/>
</g>
</g>
</svg>
