<?xml version="1.0" encoding="UTF-8" standalone="no"?>
<!DOCTYPE svg PUBLIC "-//W3C//DTD SVG 1.1//EN"
 "http://www.w3.org/Graphics/SVG/1.1/DTD/svg11.dtd">
<!-- Generated by graphviz version 2.38.0 (20140413.2041)
 -->
<!-- Title: packet_io.h Pages: 1 -->
<svg width="262pt" height="420pt"
 viewBox="0.00 0.00 261.53 420.00" xmlns="http://www.w3.org/2000/svg" xmlns:xlink="http://www.w3.org/1999/xlink">
<g id="graph0" class="graph" transform="scale(1 1) rotate(0) translate(4 416)">
<title>packet_io.h</title>
<polygon fill="white" stroke="none" points="-4,4 -4,-416 257.533,-416 257.533,4 -4,4"/>
<!-- Node35 -->
<g id="node1" class="node"><title>Node35</title>
<polygon fill="#bfbfbf" stroke="black" points="70.5333,-392.5 70.5333,-411.5 141.533,-411.5 141.533,-392.5 70.5333,-392.5"/>
<text text-anchor="middle" x="106.033" y="-399.5" font-family="Helvetica,sans-Serif" font-size="10.00">packet_io.h</text>
</g>
<!-- Node36 -->
<g id="node2" class="node"><title>Node36</title>
<g id="a_node2"><a xlink:href="api_2packet__io_8h.html" target="_top" xlink:title="ODP Packet IO. ">
<polygon fill="white" stroke="black" points="70.5333,-336.5 70.5333,-355.5 141.533,-355.5 141.533,-336.5 70.5333,-336.5"/>
<text text-anchor="middle" x="106.033" y="-343.5" font-family="Helvetica,sans-Serif" font-size="10.00">packet_io.h</text>
</a>
</g>
</g>
<!-- Node35&#45;&gt;Node36 -->
<g id="edge1" class="edge"><title>Node35&#45;&gt;Node36</title>
<path fill="none" stroke="midnightblue" d="M106.033,-381.805C106.033,-372.91 106.033,-362.78 106.033,-355.751"/>
<polygon fill="midnightblue" stroke="midnightblue" points="102.533,-382.083 106.033,-392.083 109.533,-382.083 102.533,-382.083"/>
</g>
<!-- Node37 -->
<g id="node3" class="node"><title>Node37</title>
<g id="a_node3"><a xlink:href="api_2spec_2classification_8h.html" target="_top" xlink:title="ODP classification descriptor. ">
<polygon fill="white" stroke="black" points="28.0333,-280.5 28.0333,-299.5 114.033,-299.5 114.033,-280.5 28.0333,-280.5"/>
<text text-anchor="middle" x="71.0333" y="-287.5" font-family="Helvetica,sans-Serif" font-size="10.00">classification.h</text>
</a>
</g>
</g>
<!-- Node36&#45;&gt;Node37 -->
<g id="edge2" class="edge"><title>Node36&#45;&gt;Node37</title>
<path fill="none" stroke="midnightblue" d="M94.7332,-327.566C88.7114,-318.275 81.5647,-307.248 76.7053,-299.751"/>
<polygon fill="midnightblue" stroke="midnightblue" points="91.8777,-329.595 100.254,-336.083 97.7518,-325.788 91.8777,-329.595"/>
</g>
<!-- Node39 -->
<g id="node5" class="node"><title>Node39</title>
<g id="a_node5"><a xlink:href="api_2spec_2ipsec_8h.html" target="_top" xlink:title="ODP IPSEC API. ">
<polygon fill="white" stroke="black" points="114.033,-168.5 114.033,-187.5 164.033,-187.5 164.033,-168.5 114.033,-168.5"/>
<text text-anchor="middle" x="139.033" y="-175.5" font-family="Helvetica,sans-Serif" font-size="10.00">ipsec.h</text>
</a>
</g>
</g>
<!-- Node36&#45;&gt;Node39 -->
<g id="edge9" class="edge"><title>Node36&#45;&gt;Node39</title>
<path fill="none" stroke="midnightblue" d="M114.019,-326.751C117.261,-318.688 120.768,-309.01 123.033,-300 133.419,-258.694 137.36,-207.659 138.573,-187.636"/>
<polygon fill="midnightblue" stroke="midnightblue" points="110.684,-325.654 110.038,-336.229 117.138,-328.365 110.684,-325.654"/>
</g>
<!-- Node41 -->
<g id="node7" class="node"><title>Node41</title>
<g id="a_node7"><a xlink:href="odp__api_8h.html" target="_top" xlink:title="The OpenDataPlane API. ">
<polygon fill="white" stroke="black" points="69.5333,-56.5 69.5333,-75.5 132.533,-75.5 132.533,-56.5 69.5333,-56.5"/>
<text text-anchor="middle" x="101.033" y="-63.5" font-family="Helvetica,sans-Serif" font-size="10.00">odp_api.h</text>
</a>
</g>
</g>
<!-- Node36&#45;&gt;Node41 -->
<g id="edge14" class="edge"><title>Node36&#45;&gt;Node41</title>
<path fill="none" stroke="midnightblue" d="M66.6616,-332.578C49.8552,-325.467 31.3231,-314.923 19.0333,-300 -0.0999205,-276.766 0.0333068,-265.098 0.0333068,-235 0.0333068,-235 0.0333068,-235 0.0333068,-177 0.0333068,-127.999 55.0843,-91.3947 83.9,-75.5909"/>
<polygon fill="midnightblue" stroke="midnightblue" points="65.7103,-335.965 76.2972,-336.375 68.2767,-329.452 65.7103,-335.965"/>
</g>
<!-- Node43 -->
<g id="node9" class="node"><title>Node43</title>
<g id="a_node9"><a xlink:href="api_2spec_2traffic__mngr_8h.html" target="_top" xlink:title="Copyright (c) 2015&#45;2018, Linaro Limited All rights reserved. ">
<polygon fill="white" stroke="black" points="170.533,-280.5 170.533,-299.5 253.533,-299.5 253.533,-280.5 170.533,-280.5"/>
<text text-anchor="middle" x="212.033" y="-287.5" font-family="Helvetica,sans-Serif" font-size="10.00">traffic_mngr.h</text>
</a>
</g>
</g>
<!-- Node36&#45;&gt;Node43 -->
<g id="edge10" class="edge"><title>Node36&#45;&gt;Node43</title>
<path fill="none" stroke="midnightblue" d="M132.089,-331.726C151.717,-321.727 178.061,-308.307 195.045,-299.655"/>
<polygon fill="midnightblue" stroke="midnightblue" points="130.386,-328.666 123.064,-336.324 133.563,-334.903 130.386,-328.666"/>
</g>
<!-- Node38 -->
<g id="node4" class="node"><title>Node38</title>
<g id="a_node4"><a xlink:href="api_2classification_8h.html" target="_top" xlink:title="ODP classification descriptor. ">
<polygon fill="white" stroke="black" points="28.0333,-224.5 28.0333,-243.5 114.033,-243.5 114.033,-224.5 28.0333,-224.5"/>
<text text-anchor="middle" x="71.0333" y="-231.5" font-family="Helvetica,sans-Serif" font-size="10.00">classification.h</text>
</a>
</g>
</g>
<!-- Node37&#45;&gt;Node38 -->
<g id="edge3" class="edge"><title>Node37&#45;&gt;Node38</title>
<path fill="none" stroke="midnightblue" d="M71.0333,-269.805C71.0333,-260.91 71.0333,-250.78 71.0333,-243.751"/>
<polygon fill="midnightblue" stroke="midnightblue" points="67.5334,-270.083 71.0333,-280.083 74.5334,-270.083 67.5334,-270.083"/>
</g>
<!-- Node38&#45;&gt;Node39 -->
<g id="edge4" class="edge"><title>Node38&#45;&gt;Node39</title>
<path fill="none" stroke="midnightblue" d="M89.7953,-218.101C102.033,-208.382 117.592,-196.027 127.909,-187.834"/>
<polygon fill="midnightblue" stroke="midnightblue" points="87.6132,-215.364 81.9587,-224.324 91.9664,-220.846 87.6132,-215.364"/>
</g>
<!-- Node38&#45;&gt;Node41 -->
<g id="edge8" class="edge"><title>Node38&#45;&gt;Node41</title>
<path fill="none" stroke="midnightblue" d="M74.4798,-213.93C80.9875,-177.92 94.8469,-101.231 99.4849,-75.5681"/>
<polygon fill="midnightblue" stroke="midnightblue" points="70.9805,-213.612 72.6462,-224.075 77.8689,-214.857 70.9805,-213.612"/>
</g>
<!-- Node40 -->
<g id="node6" class="node"><title>Node40</title>
<g id="a_node6"><a xlink:href="api_2ipsec_8h.html" target="_top" xlink:title="ODP IPSEC API &#45; platform specific header. ">
<polygon fill="white" stroke="black" points="105.033,-112.5 105.033,-131.5 155.033,-131.5 155.033,-112.5 105.033,-112.5"/>
<text text-anchor="middle" x="130.033" y="-119.5" font-family="Helvetica,sans-Serif" font-size="10.00">ipsec.h</text>
</a>
</g>
</g>
<!-- Node39&#45;&gt;Node40 -->
<g id="edge5" class="edge"><title>Node39&#45;&gt;Node40</title>
<path fill="none" stroke="midnightblue" d="M135.883,-158.101C134.389,-149.136 132.676,-138.858 131.492,-131.751"/>
<polygon fill="midnightblue" stroke="midnightblue" points="132.451,-158.794 137.547,-168.083 139.355,-157.644 132.451,-158.794"/>
</g>
<!-- Node40&#45;&gt;Node41 -->
<g id="edge6" class="edge"><title>Node40&#45;&gt;Node41</title>
<path fill="none" stroke="midnightblue" d="M120.357,-102.983C115.435,-93.8168 109.675,-83.0922 105.733,-75.7511"/>
<polygon fill="midnightblue" stroke="midnightblue" points="117.43,-104.929 125.245,-112.083 123.597,-101.617 117.43,-104.929"/>
</g>
<!-- Node42 -->
<g id="node8" class="node"><title>Node42</title>
<g id="a_node8"><a xlink:href="odp_8h.html" target="_top" xlink:title="WARNING: THIS FILE IS DEPRECATED AND WILL BE REMOVED!!! ODP APPLICATIONS SHOULD NOW INCLUDE odp_api...">
<polygon fill="white" stroke="black" points="79.0333,-0.5 79.0333,-19.5 123.033,-19.5 123.033,-0.5 79.0333,-0.5"/>
<text text-anchor="middle" x="101.033" y="-7.5" font-family="Helvetica,sans-Serif" font-size="10.00">odp.h</text>
</a>
</g>
</g>
<!-- Node41&#45;&gt;Node42 -->
<g id="edge7" class="edge"><title>Node41&#45;&gt;Node42</title>
<path fill="none" stroke="midnightblue" d="M101.033,-45.8045C101.033,-36.9102 101.033,-26.7798 101.033,-19.7511"/>
<polygon fill="midnightblue" stroke="midnightblue" points="97.5334,-46.083 101.033,-56.083 104.533,-46.083 97.5334,-46.083"/>
</g>
<!-- Node44 -->
<g id="node10" class="node"><title>Node44</title>
<g id="a_node10"><a xlink:href="api_2traffic__mngr_8h.html" target="_top" xlink:title="ODP Traffic manager. ">
<polygon fill="white" stroke="black" points="170.533,-224.5 170.533,-243.5 253.533,-243.5 253.533,-224.5 170.533,-224.5"/>
<text text-anchor="middle" x="212.033" y="-231.5" font-family="Helvetica,sans-Serif" font-size="10.00">traffic_mngr.h</text>
</a>
</g>
</g>
<!-- Node43&#45;&gt;Node44 -->
<g id="edge11" class="edge"><title>Node43&#45;&gt;Node44</title>
<path fill="none" stroke="midnightblue" d="M212.033,-269.805C212.033,-260.91 212.033,-250.78 212.033,-243.751"/>
<polygon fill="midnightblue" stroke="midnightblue" points="208.533,-270.083 212.033,-280.083 215.533,-270.083 208.533,-270.083"/>
</g>
<!-- Node44&#45;&gt;Node39 -->
<g id="edge12" class="edge"><title>Node44&#45;&gt;Node39</title>
<path fill="none" stroke="midnightblue" d="M191.892,-218.101C178.754,-208.382 162.051,-196.027 150.975,-187.834"/>
<polygon fill="midnightblue" stroke="midnightblue" points="190.184,-221.191 200.305,-224.324 194.347,-215.563 190.184,-221.191"/>
</g>
<!-- Node44&#45;&gt;Node41 -->
<g id="edge13" class="edge"><title>Node44&#45;&gt;Node41</title>
<path fill="none" stroke="midnightblue" d="M208.168,-214.47C202.17,-189.197 188.665,-143.47 164.033,-112 151.607,-96.1232 132.113,-83.4025 118.101,-75.5902"/>
<polygon fill="midnightblue" stroke="midnightblue" points="204.753,-215.238 210.349,-224.234 211.585,-213.711 204.753,-215.238"/>
</g>
</g>
</svg>
