<?xml version="1.0" encoding="UTF-8" standalone="no"?>
<!DOCTYPE svg PUBLIC "-//W3C//DTD SVG 1.1//EN"
 "http://www.w3.org/Graphics/SVG/1.1/DTD/svg11.dtd">
<!-- Generated by graphviz version 2.38.0 (20140413.2041)
 -->
<!-- Title: time.h Pages: 1 -->
<svg width="1098pt" height="924pt"
 viewBox="0.00 0.00 1097.50 924.00" xmlns="http://www.w3.org/2000/svg" xmlns:xlink="http://www.w3.org/1999/xlink">
<g id="graph0" class="graph" transform="scale(1 1) rotate(0) translate(4 920)">
<title>time.h</title>
<polygon fill="white" stroke="none" points="-4,4 -4,-920 1093.5,-920 1093.5,4 -4,4"/>
<!-- Node1 -->
<g id="node1" class="node"><title>Node1</title>
<polygon fill="#bfbfbf" stroke="black" points="195,-896.5 195,-915.5 242,-915.5 242,-896.5 195,-896.5"/>
<text text-anchor="middle" x="218.5" y="-903.5" font-family="Helvetica,sans-Serif" font-size="10.00">time.h</text>
</g>
<!-- Node2 -->
<g id="node2" class="node"><title>Node2</title>
<g id="a_node2"><a xlink:href="arch_2arm32-linux_2odp_2api_2abi_2time_8h_source.html" target="_top" xlink:title="time.h">
<polygon fill="white" stroke="black" points="0,-840.5 0,-859.5 47,-859.5 47,-840.5 0,-840.5"/>
<text text-anchor="middle" x="23.5" y="-847.5" font-family="Helvetica,sans-Serif" font-size="10.00">time.h</text>
</a>
</g>
</g>
<!-- Node1&#45;&gt;Node2 -->
<g id="edge1" class="edge"><title>Node1&#45;&gt;Node2</title>
<path fill="none" stroke="midnightblue" d="M184.715,-895.724C151.741,-886.658 100.157,-872.444 55.5,-860 52.8315,-859.256 50.0388,-858.475 47.2621,-857.697"/>
<polygon fill="midnightblue" stroke="midnightblue" points="184.165,-899.202 194.735,-898.478 186.02,-892.453 184.165,-899.202"/>
</g>
<!-- Node3 -->
<g id="node3" class="node"><title>Node3</title>
<g id="a_node3"><a xlink:href="arch_2arm64-linux_2odp_2api_2abi_2time_8h_source.html" target="_top" xlink:title="time.h">
<polygon fill="white" stroke="black" points="65,-840.5 65,-859.5 112,-859.5 112,-840.5 65,-840.5"/>
<text text-anchor="middle" x="88.5" y="-847.5" font-family="Helvetica,sans-Serif" font-size="10.00">time.h</text>
</a>
</g>
</g>
<!-- Node1&#45;&gt;Node3 -->
<g id="edge2" class="edge"><title>Node1&#45;&gt;Node3</title>
<path fill="none" stroke="midnightblue" d="M188.415,-892.503C164.043,-882.38 130.36,-868.388 109.003,-859.516"/>
<polygon fill="midnightblue" stroke="midnightblue" points="187.323,-895.84 197.901,-896.444 190.009,-889.375 187.323,-895.84"/>
</g>
<!-- Node4 -->
<g id="node4" class="node"><title>Node4</title>
<g id="a_node4"><a xlink:href="arch_2default-linux_2odp_2api_2abi_2time_8h_source.html" target="_top" xlink:title="time.h">
<polygon fill="white" stroke="black" points="130,-840.5 130,-859.5 177,-859.5 177,-840.5 130,-840.5"/>
<text text-anchor="middle" x="153.5" y="-847.5" font-family="Helvetica,sans-Serif" font-size="10.00">time.h</text>
</a>
</g>
</g>
<!-- Node1&#45;&gt;Node4 -->
<g id="edge3" class="edge"><title>Node1&#45;&gt;Node4</title>
<path fill="none" stroke="midnightblue" d="M200.227,-889.82C188.582,-880.145 173.901,-867.948 164.133,-859.834"/>
<polygon fill="midnightblue" stroke="midnightblue" points="198.128,-892.626 208.057,-896.324 202.601,-887.242 198.128,-892.626"/>
</g>
<!-- Node5 -->
<g id="node5" class="node"><title>Node5</title>
<g id="a_node5"><a xlink:href="arch_2mips64-linux_2odp_2api_2abi_2time_8h_source.html" target="_top" xlink:title="time.h">
<polygon fill="white" stroke="black" points="195,-840.5 195,-859.5 242,-859.5 242,-840.5 195,-840.5"/>
<text text-anchor="middle" x="218.5" y="-847.5" font-family="Helvetica,sans-Serif" font-size="10.00">time.h</text>
</a>
</g>
</g>
<!-- Node1&#45;&gt;Node5 -->
<g id="edge4" class="edge"><title>Node1&#45;&gt;Node5</title>
<path fill="none" stroke="midnightblue" d="M218.5,-885.805C218.5,-876.91 218.5,-866.78 218.5,-859.751"/>
<polygon fill="midnightblue" stroke="midnightblue" points="215,-886.083 218.5,-896.083 222,-886.083 215,-886.083"/>
</g>
<!-- Node6 -->
<g id="node6" class="node"><title>Node6</title>
<g id="a_node6"><a xlink:href="arch_2power64-linux_2odp_2api_2abi_2time_8h_source.html" target="_top" xlink:title="time.h">
<polygon fill="white" stroke="black" points="260,-840.5 260,-859.5 307,-859.5 307,-840.5 260,-840.5"/>
<text text-anchor="middle" x="283.5" y="-847.5" font-family="Helvetica,sans-Serif" font-size="10.00">time.h</text>
</a>
</g>
</g>
<!-- Node1&#45;&gt;Node6 -->
<g id="edge5" class="edge"><title>Node1&#45;&gt;Node6</title>
<path fill="none" stroke="midnightblue" d="M236.773,-889.82C248.418,-880.145 263.099,-867.948 272.867,-859.834"/>
<polygon fill="midnightblue" stroke="midnightblue" points="234.399,-887.242 228.943,-896.324 238.872,-892.626 234.399,-887.242"/>
</g>
<!-- Node7 -->
<g id="node7" class="node"><title>Node7</title>
<g id="a_node7"><a xlink:href="arch_2x86__32-linux_2odp_2api_2abi_2time_8h_source.html" target="_top" xlink:title="time.h">
<polygon fill="white" stroke="black" points="325,-840.5 325,-859.5 372,-859.5 372,-840.5 325,-840.5"/>
<text text-anchor="middle" x="348.5" y="-847.5" font-family="Helvetica,sans-Serif" font-size="10.00">time.h</text>
</a>
</g>
</g>
<!-- Node1&#45;&gt;Node7 -->
<g id="edge6" class="edge"><title>Node1&#45;&gt;Node7</title>
<path fill="none" stroke="midnightblue" d="M248.585,-892.503C272.957,-882.38 306.64,-868.388 327.997,-859.516"/>
<polygon fill="midnightblue" stroke="midnightblue" points="246.991,-889.375 239.099,-896.444 249.677,-895.84 246.991,-889.375"/>
</g>
<!-- Node8 -->
<g id="node8" class="node"><title>Node8</title>
<g id="a_node8"><a xlink:href="arch_2x86__64-linux_2odp_2api_2abi_2time_8h_source.html" target="_top" xlink:title="time.h">
<polygon fill="white" stroke="black" points="390,-840.5 390,-859.5 437,-859.5 437,-840.5 390,-840.5"/>
<text text-anchor="middle" x="413.5" y="-847.5" font-family="Helvetica,sans-Serif" font-size="10.00">time.h</text>
</a>
</g>
</g>
<!-- Node1&#45;&gt;Node8 -->
<g id="edge7" class="edge"><title>Node1&#45;&gt;Node8</title>
<path fill="none" stroke="midnightblue" d="M252.285,-895.724C285.259,-886.658 336.843,-872.444 381.5,-860 384.168,-859.256 386.961,-858.475 389.738,-857.697"/>
<polygon fill="midnightblue" stroke="midnightblue" points="250.98,-892.453 242.265,-898.478 252.835,-899.202 250.98,-892.453"/>
</g>
<!-- Node9 -->
<g id="node9" class="node"><title>Node9</title>
<g id="a_node9"><a xlink:href="api_2time_8h.html" target="_top" xlink:title="ODP time. ">
<polygon fill="white" stroke="black" points="390,-784.5 390,-803.5 437,-803.5 437,-784.5 390,-784.5"/>
<text text-anchor="middle" x="413.5" y="-791.5" font-family="Helvetica,sans-Serif" font-size="10.00">time.h</text>
</a>
</g>
</g>
<!-- Node8&#45;&gt;Node9 -->
<g id="edge8" class="edge"><title>Node8&#45;&gt;Node9</title>
<path fill="none" stroke="midnightblue" d="M413.5,-829.805C413.5,-820.91 413.5,-810.78 413.5,-803.751"/>
<polygon fill="midnightblue" stroke="midnightblue" points="410,-830.083 413.5,-840.083 417,-830.083 410,-830.083"/>
</g>
<!-- Node10 -->
<g id="node10" class="node"><title>Node10</title>
<g id="a_node10"><a xlink:href="api_2spec_2packet_8h.html" target="_top" xlink:title="ODP packet descriptor. ">
<polygon fill="white" stroke="black" points="565.5,-728.5 565.5,-747.5 623.5,-747.5 623.5,-728.5 565.5,-728.5"/>
<text text-anchor="middle" x="594.5" y="-735.5" font-family="Helvetica,sans-Serif" font-size="10.00">packet.h</text>
</a>
</g>
</g>
<!-- Node9&#45;&gt;Node10 -->
<g id="edge9" class="edge"><title>Node9&#45;&gt;Node10</title>
<path fill="none" stroke="midnightblue" d="M447.127,-782.968C481.248,-772.788 533.503,-757.198 565.754,-747.576"/>
<polygon fill="midnightblue" stroke="midnightblue" points="445.745,-779.728 437.163,-785.94 447.746,-786.435 445.745,-779.728"/>
</g>
<!-- Node14 -->
<g id="node14" class="node"><title>Node14</title>
<g id="a_node14"><a xlink:href="odp__api_8h.html" target="_top" xlink:title="The OpenDataPlane API. ">
<polygon fill="white" stroke="black" points="710,-56.5 710,-75.5 773,-75.5 773,-56.5 710,-56.5"/>
<text text-anchor="middle" x="741.5" y="-63.5" font-family="Helvetica,sans-Serif" font-size="10.00">odp_api.h</text>
</a>
</g>
</g>
<!-- Node9&#45;&gt;Node14 -->
<g id="edge50" class="edge"><title>Node9&#45;&gt;Node14</title>
<path fill="none" stroke="midnightblue" d="M403.357,-775.429C392.1,-754.236 375.5,-717.187 375.5,-683 375.5,-683 375.5,-683 375.5,-177 375.5,-135.192 405.97,-130.424 443.5,-112 490.057,-89.144 643.221,-74.7008 709.955,-69.3475"/>
<polygon fill="midnightblue" stroke="midnightblue" points="400.319,-777.168 408.216,-784.231 406.447,-773.785 400.319,-777.168"/>
</g>
<!-- Node24 -->
<g id="node24" class="node"><title>Node24</title>
<g id="a_node24"><a xlink:href="api_2spec_2packet__io_8h.html" target="_top" xlink:title="ODP Packet IO. ">
<polygon fill="white" stroke="black" points="611,-392.5 611,-411.5 682,-411.5 682,-392.5 611,-392.5"/>
<text text-anchor="middle" x="646.5" y="-399.5" font-family="Helvetica,sans-Serif" font-size="10.00">packet_io.h</text>
</a>
</g>
</g>
<!-- Node9&#45;&gt;Node24 -->
<g id="edge49" class="edge"><title>Node9&#45;&gt;Node24</title>
<path fill="none" stroke="midnightblue" d="M413.5,-774.251C413.5,-752.357 413.5,-715.052 413.5,-683 413.5,-683 413.5,-683 413.5,-513 413.5,-426.778 545.588,-408.035 610.859,-404.036"/>
<polygon fill="midnightblue" stroke="midnightblue" points="410,-774.442 413.5,-784.442 417,-774.442 410,-774.442"/>
</g>
<!-- Node11 -->
<g id="node11" class="node"><title>Node11</title>
<g id="a_node11"><a xlink:href="api_2packet_8h.html" target="_top" xlink:title="ODP packet descriptor. ">
<polygon fill="white" stroke="black" points="690.5,-672.5 690.5,-691.5 748.5,-691.5 748.5,-672.5 690.5,-672.5"/>
<text text-anchor="middle" x="719.5" y="-679.5" font-family="Helvetica,sans-Serif" font-size="10.00">packet.h</text>
</a>
</g>
</g>
<!-- Node10&#45;&gt;Node11 -->
<g id="edge10" class="edge"><title>Node10&#45;&gt;Node11</title>
<path fill="none" stroke="midnightblue" d="M623.741,-724.368C647.15,-714.255 679.341,-700.349 699.786,-691.516"/>
<polygon fill="midnightblue" stroke="midnightblue" points="622.099,-721.265 614.307,-728.444 624.875,-727.691 622.099,-721.265"/>
</g>
<!-- Node12 -->
<g id="node12" class="node"><title>Node12</title>
<g id="a_node12"><a xlink:href="api_2spec_2comp_8h.html" target="_top" xlink:title="ODP Compression. ">
<polygon fill="white" stroke="black" points="540,-616.5 540,-635.5 593,-635.5 593,-616.5 540,-616.5"/>
<text text-anchor="middle" x="566.5" y="-623.5" font-family="Helvetica,sans-Serif" font-size="10.00">comp.h</text>
</a>
</g>
</g>
<!-- Node11&#45;&gt;Node12 -->
<g id="edge11" class="edge"><title>Node11&#45;&gt;Node12</title>
<path fill="none" stroke="midnightblue" d="M685.611,-669.039C656.823,-658.879 616.213,-644.546 590.63,-635.516"/>
<polygon fill="midnightblue" stroke="midnightblue" points="684.662,-672.416 695.257,-672.444 686.992,-665.815 684.662,-672.416"/>
</g>
<!-- Node11&#45;&gt;Node14 -->
<g id="edge48" class="edge"><title>Node11&#45;&gt;Node14</title>
<path fill="none" stroke="midnightblue" d="M758.904,-681.243C830.702,-679.399 975.5,-664.134 975.5,-571 975.5,-571 975.5,-571 975.5,-177 975.5,-88.5671 836.93,-71.0983 773.058,-67.7435"/>
<polygon fill="midnightblue" stroke="midnightblue" points="758.801,-677.744 748.866,-681.425 758.928,-684.743 758.801,-677.744"/>
</g>
<!-- Node16 -->
<g id="node16" class="node"><title>Node16</title>
<g id="a_node16"><a xlink:href="api_2spec_2crypto_8h.html" target="_top" xlink:title="ODP crypto. ">
<polygon fill="white" stroke="black" points="691.5,-448.5 691.5,-467.5 747.5,-467.5 747.5,-448.5 691.5,-448.5"/>
<text text-anchor="middle" x="719.5" y="-455.5" font-family="Helvetica,sans-Serif" font-size="10.00">crypto.h</text>
</a>
</g>
</g>
<!-- Node11&#45;&gt;Node16 -->
<g id="edge15" class="edge"><title>Node11&#45;&gt;Node16</title>
<path fill="none" stroke="midnightblue" d="M719.5,-662.295C719.5,-616.644 719.5,-500.854 719.5,-467.884"/>
<polygon fill="midnightblue" stroke="midnightblue" points="716,-662.297 719.5,-672.297 723,-662.297 716,-662.297"/>
</g>
<!-- Node20 -->
<g id="node20" class="node"><title>Node20</title>
<g id="a_node20"><a xlink:href="api_2spec_2event_8h.html" target="_top" xlink:title="ODP event. ">
<polygon fill="white" stroke="black" points="763,-616.5 763,-635.5 816,-635.5 816,-616.5 763,-616.5"/>
<text text-anchor="middle" x="789.5" y="-623.5" font-family="Helvetica,sans-Serif" font-size="10.00">event.h</text>
</a>
</g>
</g>
<!-- Node11&#45;&gt;Node20 -->
<g id="edge21" class="edge"><title>Node11&#45;&gt;Node20</title>
<path fill="none" stroke="midnightblue" d="M738.814,-666.101C751.412,-656.382 767.428,-644.027 778.049,-635.834"/>
<polygon fill="midnightblue" stroke="midnightblue" points="736.527,-663.445 730.747,-672.324 740.802,-668.987 736.527,-663.445"/>
</g>
<!-- Node11&#45;&gt;Node24 -->
<g id="edge47" class="edge"><title>Node11&#45;&gt;Node24</title>
<path fill="none" stroke="midnightblue" d="M702.854,-664.995C683.892,-644.96 655.5,-608.673 655.5,-571 655.5,-571 655.5,-571 655.5,-513 655.5,-475.061 650.116,-430.006 647.677,-411.538"/>
<polygon fill="midnightblue" stroke="midnightblue" points="700.547,-667.64 710.057,-672.311 705.536,-662.73 700.547,-667.64"/>
</g>
<!-- Node32 -->
<g id="node32" class="node"><title>Node32</title>
<g id="a_node32"><a xlink:href="api_2spec_2packet__flags_8h.html" target="_top" xlink:title="ODP packet flags. ">
<polygon fill="white" stroke="black" points="1003.5,-560.5 1003.5,-579.5 1089.5,-579.5 1089.5,-560.5 1003.5,-560.5"/>
<text text-anchor="middle" x="1046.5" y="-567.5" font-family="Helvetica,sans-Serif" font-size="10.00">packet_flags.h</text>
</a>
</g>
</g>
<!-- Node11&#45;&gt;Node32 -->
<g id="edge44" class="edge"><title>Node11&#45;&gt;Node32</title>
<path fill="none" stroke="midnightblue" d="M759.221,-677.674C824.39,-671.675 950.661,-657.624 989.5,-636 1013.89,-622.42 1032.93,-594.26 1041.52,-579.876"/>
<polygon fill="midnightblue" stroke="midnightblue" points="758.576,-674.217 748.931,-678.6 759.204,-681.189 758.576,-674.217"/>
</g>
<!-- Node13 -->
<g id="node13" class="node"><title>Node13</title>
<g id="a_node13"><a xlink:href="api_2comp_8h.html" target="_top" xlink:title="ODP crypto. ">
<polygon fill="white" stroke="black" points="506,-504.5 506,-523.5 559,-523.5 559,-504.5 506,-504.5"/>
<text text-anchor="middle" x="532.5" y="-511.5" font-family="Helvetica,sans-Serif" font-size="10.00">comp.h</text>
</a>
</g>
</g>
<!-- Node12&#45;&gt;Node13 -->
<g id="edge12" class="edge"><title>Node12&#45;&gt;Node13</title>
<path fill="none" stroke="midnightblue" d="M560.836,-606.674C553.402,-582.625 540.656,-541.388 535.156,-523.591"/>
<polygon fill="midnightblue" stroke="midnightblue" points="557.535,-607.848 563.832,-616.368 564.223,-605.781 557.535,-607.848"/>
</g>
<!-- Node13&#45;&gt;Node14 -->
<g id="edge13" class="edge"><title>Node13&#45;&gt;Node14</title>
<path fill="none" stroke="midnightblue" d="M520.019,-496.193C490.241,-454.376 417.5,-341.342 417.5,-235 417.5,-235 417.5,-235 417.5,-177 417.5,-130.842 456.538,-131.228 498.5,-112 569.294,-79.5602 661.85,-70.4994 709.725,-67.973"/>
<polygon fill="midnightblue" stroke="midnightblue" points="517.284,-498.384 525.988,-504.425 522.951,-494.275 517.284,-498.384"/>
</g>
<!-- Node15 -->
<g id="node15" class="node"><title>Node15</title>
<g id="a_node15"><a xlink:href="odp_8h.html" target="_top" xlink:title="WARNING: THIS FILE IS DEPRECATED AND WILL BE REMOVED!!! ODP APPLICATIONS SHOULD NOW INCLUDE odp_api...">
<polygon fill="white" stroke="black" points="719.5,-0.5 719.5,-19.5 763.5,-19.5 763.5,-0.5 719.5,-0.5"/>
<text text-anchor="middle" x="741.5" y="-7.5" font-family="Helvetica,sans-Serif" font-size="10.00">odp.h</text>
</a>
</g>
</g>
<!-- Node14&#45;&gt;Node15 -->
<g id="edge14" class="edge"><title>Node14&#45;&gt;Node15</title>
<path fill="none" stroke="midnightblue" d="M741.5,-45.8045C741.5,-36.9102 741.5,-26.7798 741.5,-19.7511"/>
<polygon fill="midnightblue" stroke="midnightblue" points="738,-46.083 741.5,-56.083 745,-46.083 738,-46.083"/>
</g>
<!-- Node17 -->
<g id="node17" class="node"><title>Node17</title>
<g id="a_node17"><a xlink:href="api_2crypto_8h.html" target="_top" xlink:title="ODP crypto. ">
<polygon fill="white" stroke="black" points="709.5,-336.5 709.5,-355.5 765.5,-355.5 765.5,-336.5 709.5,-336.5"/>
<text text-anchor="middle" x="737.5" y="-343.5" font-family="Helvetica,sans-Serif" font-size="10.00">crypto.h</text>
</a>
</g>
</g>
<!-- Node16&#45;&gt;Node17 -->
<g id="edge16" class="edge"><title>Node16&#45;&gt;Node17</title>
<path fill="none" stroke="midnightblue" d="M722.552,-438.348C726.495,-414.254 733.195,-373.308 736.094,-355.591"/>
<polygon fill="midnightblue" stroke="midnightblue" points="719.073,-437.934 720.912,-448.368 725.981,-439.065 719.073,-437.934"/>
</g>
<!-- Node17&#45;&gt;Node14 -->
<g id="edge20" class="edge"><title>Node17&#45;&gt;Node14</title>
<path fill="none" stroke="midnightblue" d="M747.643,-327.429C758.9,-306.236 775.5,-269.187 775.5,-235 775.5,-235 775.5,-235 775.5,-177 775.5,-137.622 755.366,-93.7097 746.085,-75.5604"/>
<polygon fill="midnightblue" stroke="midnightblue" points="744.553,-325.785 742.784,-336.231 750.681,-329.168 744.553,-325.785"/>
</g>
<!-- Node18 -->
<g id="node18" class="node"><title>Node18</title>
<g id="a_node18"><a xlink:href="api_2spec_2ipsec_8h.html" target="_top" xlink:title="ODP IPSEC API. ">
<polygon fill="white" stroke="black" points="674.5,-168.5 674.5,-187.5 724.5,-187.5 724.5,-168.5 674.5,-168.5"/>
<text text-anchor="middle" x="699.5" y="-175.5" font-family="Helvetica,sans-Serif" font-size="10.00">ipsec.h</text>
</a>
</g>
</g>
<!-- Node17&#45;&gt;Node18 -->
<g id="edge17" class="edge"><title>Node17&#45;&gt;Node18</title>
<path fill="none" stroke="midnightblue" d="M734.425,-326.304C730.35,-302.413 722.606,-259.855 713.5,-224 710.237,-211.153 705.498,-196.545 702.457,-187.55"/>
<polygon fill="midnightblue" stroke="midnightblue" points="731.016,-327.138 736.12,-336.422 737.919,-325.981 731.016,-327.138"/>
</g>
<!-- Node19 -->
<g id="node19" class="node"><title>Node19</title>
<g id="a_node19"><a xlink:href="api_2ipsec_8h.html" target="_top" xlink:title="ODP IPSEC API &#45; platform specific header. ">
<polygon fill="white" stroke="black" points="678.5,-112.5 678.5,-131.5 728.5,-131.5 728.5,-112.5 678.5,-112.5"/>
<text text-anchor="middle" x="703.5" y="-119.5" font-family="Helvetica,sans-Serif" font-size="10.00">ipsec.h</text>
</a>
</g>
</g>
<!-- Node18&#45;&gt;Node19 -->
<g id="edge18" class="edge"><title>Node18&#45;&gt;Node19</title>
<path fill="none" stroke="midnightblue" d="M700.9,-158.101C701.564,-149.136 702.325,-138.858 702.852,-131.751"/>
<polygon fill="midnightblue" stroke="midnightblue" points="697.409,-157.852 700.161,-168.083 704.39,-158.369 697.409,-157.852"/>
</g>
<!-- Node19&#45;&gt;Node14 -->
<g id="edge19" class="edge"><title>Node19&#45;&gt;Node14</title>
<path fill="none" stroke="midnightblue" d="M715.565,-103.855C722.145,-94.5048 730.011,-83.3265 735.342,-75.7511"/>
<polygon fill="midnightblue" stroke="midnightblue" points="712.668,-101.891 709.775,-112.083 718.392,-105.919 712.668,-101.891"/>
</g>
<!-- Node21 -->
<g id="node21" class="node"><title>Node21</title>
<g id="a_node21"><a xlink:href="api_2event_8h.html" target="_top" xlink:title="ODP event. ">
<polygon fill="white" stroke="black" points="777,-560.5 777,-579.5 830,-579.5 830,-560.5 777,-560.5"/>
<text text-anchor="middle" x="803.5" y="-567.5" font-family="Helvetica,sans-Serif" font-size="10.00">event.h</text>
</a>
</g>
</g>
<!-- Node20&#45;&gt;Node21 -->
<g id="edge22" class="edge"><title>Node20&#45;&gt;Node21</title>
<path fill="none" stroke="midnightblue" d="M794.323,-606.396C796.665,-597.362 799.368,-586.936 801.231,-579.751"/>
<polygon fill="midnightblue" stroke="midnightblue" points="790.934,-605.525 791.812,-616.083 797.71,-607.281 790.934,-605.525"/>
</g>
<!-- Node21&#45;&gt;Node14 -->
<g id="edge43" class="edge"><title>Node21&#45;&gt;Node14</title>
<path fill="none" stroke="midnightblue" d="M798.965,-550.596C797.191,-542.495 795.374,-532.83 794.5,-524 791.172,-490.387 792.998,-481.744 794.5,-448 798.726,-353.051 813.5,-330.043 813.5,-235 813.5,-235 813.5,-235 813.5,-177 813.5,-132.949 772.577,-92.7974 752.435,-75.7031"/>
<polygon fill="midnightblue" stroke="midnightblue" points="795.584,-551.506 801.265,-560.449 802.401,-549.915 795.584,-551.506"/>
</g>
<!-- Node22 -->
<g id="node22" class="node"><title>Node22</title>
<g id="a_node22"><a xlink:href="api_2spec_2queue_8h.html" target="_top" xlink:title="ODP queue. ">
<polygon fill="white" stroke="black" points="803.5,-504.5 803.5,-523.5 859.5,-523.5 859.5,-504.5 803.5,-504.5"/>
<text text-anchor="middle" x="831.5" y="-511.5" font-family="Helvetica,sans-Serif" font-size="10.00">queue.h</text>
</a>
</g>
</g>
<!-- Node21&#45;&gt;Node22 -->
<g id="edge23" class="edge"><title>Node21&#45;&gt;Node22</title>
<path fill="none" stroke="midnightblue" d="M812.842,-550.983C817.595,-541.817 823.156,-531.092 826.962,-523.751"/>
<polygon fill="midnightblue" stroke="midnightblue" points="809.62,-549.594 808.124,-560.083 815.834,-552.817 809.62,-549.594"/>
</g>
<!-- Node30 -->
<g id="node30" class="node"><title>Node30</title>
<g id="a_node30"><a xlink:href="api_2spec_2schedule_8h.html" target="_top" xlink:title="ODP schedule. ">
<polygon fill="white" stroke="black" points="879.5,-392.5 879.5,-411.5 947.5,-411.5 947.5,-392.5 879.5,-392.5"/>
<text text-anchor="middle" x="913.5" y="-399.5" font-family="Helvetica,sans-Serif" font-size="10.00">schedule.h</text>
</a>
</g>
</g>
<!-- Node21&#45;&gt;Node30 -->
<g id="edge42" class="edge"><title>Node21&#45;&gt;Node30</title>
<path fill="none" stroke="midnightblue" d="M830.519,-555.385C843.505,-547.687 858.402,-536.994 868.5,-524 896.419,-488.075 908.356,-433.04 912.102,-411.792"/>
<polygon fill="midnightblue" stroke="midnightblue" points="828.503,-552.503 821.497,-560.45 831.93,-558.606 828.503,-552.503"/>
</g>
<!-- Node23 -->
<g id="node23" class="node"><title>Node23</title>
<g id="a_node23"><a xlink:href="api_2queue_8h.html" target="_top" xlink:title="ODP queue. ">
<polygon fill="white" stroke="black" points="803.5,-448.5 803.5,-467.5 859.5,-467.5 859.5,-448.5 803.5,-448.5"/>
<text text-anchor="middle" x="831.5" y="-455.5" font-family="Helvetica,sans-Serif" font-size="10.00">queue.h</text>
</a>
</g>
</g>
<!-- Node22&#45;&gt;Node23 -->
<g id="edge24" class="edge"><title>Node22&#45;&gt;Node23</title>
<path fill="none" stroke="midnightblue" d="M831.5,-493.805C831.5,-484.91 831.5,-474.78 831.5,-467.751"/>
<polygon fill="midnightblue" stroke="midnightblue" points="828,-494.083 831.5,-504.083 835,-494.083 828,-494.083"/>
</g>
<!-- Node23&#45;&gt;Node14 -->
<g id="edge41" class="edge"><title>Node23&#45;&gt;Node14</title>
<path fill="none" stroke="midnightblue" d="M836.991,-438.408C842.912,-416.685 851.5,-379.562 851.5,-347 851.5,-347 851.5,-347 851.5,-177 851.5,-146.205 847.834,-135.127 827.5,-112 812.034,-94.4092 788.009,-82.6543 769.279,-75.5838"/>
<polygon fill="midnightblue" stroke="midnightblue" points="833.558,-437.683 834.197,-448.258 840.293,-439.592 833.558,-437.683"/>
</g>
<!-- Node23&#45;&gt;Node17 -->
<g id="edge25" class="edge"><title>Node23&#45;&gt;Node17</title>
<path fill="none" stroke="midnightblue" d="M817.473,-440.586C797.208,-416.871 760.461,-373.869 744.842,-355.591"/>
<polygon fill="midnightblue" stroke="midnightblue" points="814.967,-443.04 824.124,-448.368 820.288,-438.492 814.967,-443.04"/>
</g>
<!-- Node23&#45;&gt;Node24 -->
<g id="edge26" class="edge"><title>Node23&#45;&gt;Node24</title>
<path fill="none" stroke="midnightblue" d="M793.573,-445.929C758.671,-435.742 707.636,-420.845 675.78,-411.547"/>
<polygon fill="midnightblue" stroke="midnightblue" points="792.822,-449.356 803.402,-448.799 794.784,-442.637 792.822,-449.356"/>
</g>
<!-- Node23&#45;&gt;Node30 -->
<g id="edge38" class="edge"><title>Node23&#45;&gt;Node30</title>
<path fill="none" stroke="midnightblue" d="M853.333,-442.622C868.313,-432.757 887.697,-419.992 900.358,-411.655"/>
<polygon fill="midnightblue" stroke="midnightblue" points="851.101,-439.901 844.675,-448.324 854.951,-445.747 851.101,-439.901"/>
</g>
<!-- Node25 -->
<g id="node25" class="node"><title>Node25</title>
<g id="a_node25"><a xlink:href="api_2packet__io_8h.html" target="_top" xlink:title="ODP Packet IO. ">
<polygon fill="white" stroke="black" points="594,-336.5 594,-355.5 665,-355.5 665,-336.5 594,-336.5"/>
<text text-anchor="middle" x="629.5" y="-343.5" font-family="Helvetica,sans-Serif" font-size="10.00">packet_io.h</text>
</a>
</g>
</g>
<!-- Node24&#45;&gt;Node25 -->
<g id="edge27" class="edge"><title>Node24&#45;&gt;Node25</title>
<path fill="none" stroke="midnightblue" d="M640.643,-382.396C637.799,-373.362 634.517,-362.936 632.255,-355.751"/>
<polygon fill="midnightblue" stroke="midnightblue" points="637.351,-383.596 643.693,-392.083 644.028,-381.493 637.351,-383.596"/>
</g>
<!-- Node25&#45;&gt;Node14 -->
<g id="edge37" class="edge"><title>Node25&#45;&gt;Node14</title>
<path fill="none" stroke="midnightblue" d="M583.567,-343.145C549.163,-339.328 503.256,-328.704 474.5,-300 453.198,-278.737 455.5,-265.098 455.5,-235 455.5,-235 455.5,-235 455.5,-177 455.5,-123.003 635.337,-85.4741 709.8,-72.249"/>
<polygon fill="midnightblue" stroke="midnightblue" points="583.557,-346.66 593.844,-344.124 584.22,-339.691 583.557,-346.66"/>
</g>
<!-- Node25&#45;&gt;Node18 -->
<g id="edge32" class="edge"><title>Node25&#45;&gt;Node18</title>
<path fill="none" stroke="midnightblue" d="M652.353,-330.357C662.595,-322.586 673.844,-312.132 680.5,-300 701.263,-262.155 701.044,-208.245 700.064,-187.545"/>
<polygon fill="midnightblue" stroke="midnightblue" points="650.222,-327.577 644.109,-336.231 654.284,-333.278 650.222,-327.577"/>
</g>
<!-- Node26 -->
<g id="node26" class="node"><title>Node26</title>
<g id="a_node26"><a xlink:href="api_2spec_2classification_8h.html" target="_top" xlink:title="ODP classification descriptor. ">
<polygon fill="white" stroke="black" points="483.5,-280.5 483.5,-299.5 569.5,-299.5 569.5,-280.5 483.5,-280.5"/>
<text text-anchor="middle" x="526.5" y="-287.5" font-family="Helvetica,sans-Serif" font-size="10.00">classification.h</text>
</a>
</g>
</g>
<!-- Node25&#45;&gt;Node26 -->
<g id="edge28" class="edge"><title>Node25&#45;&gt;Node26</title>
<path fill="none" stroke="midnightblue" d="M603.921,-331.59C584.877,-321.605 559.436,-308.267 543.008,-299.655"/>
<polygon fill="midnightblue" stroke="midnightblue" points="602.469,-334.78 612.951,-336.324 605.72,-328.581 602.469,-334.78"/>
</g>
<!-- Node28 -->
<g id="node28" class="node"><title>Node28</title>
<g id="a_node28"><a xlink:href="api_2spec_2traffic__mngr_8h.html" target="_top" xlink:title="Copyright (c) 2015&#45;2018, Linaro Limited All rights reserved. ">
<polygon fill="white" stroke="black" points="588,-280.5 588,-299.5 671,-299.5 671,-280.5 588,-280.5"/>
<text text-anchor="middle" x="629.5" y="-287.5" font-family="Helvetica,sans-Serif" font-size="10.00">traffic_mngr.h</text>
</a>
</g>
</g>
<!-- Node25&#45;&gt;Node28 -->
<g id="edge33" class="edge"><title>Node25&#45;&gt;Node28</title>
<path fill="none" stroke="midnightblue" d="M629.5,-325.805C629.5,-316.91 629.5,-306.78 629.5,-299.751"/>
<polygon fill="midnightblue" stroke="midnightblue" points="626,-326.083 629.5,-336.083 633,-326.083 626,-326.083"/>
</g>
<!-- Node27 -->
<g id="node27" class="node"><title>Node27</title>
<g id="a_node27"><a xlink:href="api_2classification_8h.html" target="_top" xlink:title="ODP classification descriptor. ">
<polygon fill="white" stroke="black" points="483.5,-224.5 483.5,-243.5 569.5,-243.5 569.5,-224.5 483.5,-224.5"/>
<text text-anchor="middle" x="526.5" y="-231.5" font-family="Helvetica,sans-Serif" font-size="10.00">classification.h</text>
</a>
</g>
</g>
<!-- Node26&#45;&gt;Node27 -->
<g id="edge29" class="edge"><title>Node26&#45;&gt;Node27</title>
<path fill="none" stroke="midnightblue" d="M526.5,-269.805C526.5,-260.91 526.5,-250.78 526.5,-243.751"/>
<polygon fill="midnightblue" stroke="midnightblue" points="523,-270.083 526.5,-280.083 530,-270.083 523,-270.083"/>
</g>
<!-- Node27&#45;&gt;Node14 -->
<g id="edge31" class="edge"><title>Node27&#45;&gt;Node14</title>
<path fill="none" stroke="midnightblue" d="M540.534,-216.714C562.544,-191.865 607.349,-144.006 652.5,-112 674.112,-96.6804 701.681,-83.5988 720.367,-75.5522"/>
<polygon fill="midnightblue" stroke="midnightblue" points="537.689,-214.65 533.736,-224.48 542.957,-219.26 537.689,-214.65"/>
</g>
<!-- Node27&#45;&gt;Node18 -->
<g id="edge30" class="edge"><title>Node27&#45;&gt;Node18</title>
<path fill="none" stroke="midnightblue" d="M563.785,-221.362C597.24,-210.919 645.416,-195.882 674.463,-186.815"/>
<polygon fill="midnightblue" stroke="midnightblue" points="562.415,-218.123 553.912,-224.444 564.501,-224.805 562.415,-218.123"/>
</g>
<!-- Node29 -->
<g id="node29" class="node"><title>Node29</title>
<g id="a_node29"><a xlink:href="api_2traffic__mngr_8h.html" target="_top" xlink:title="ODP Traffic manager. ">
<polygon fill="white" stroke="black" points="588,-224.5 588,-243.5 671,-243.5 671,-224.5 588,-224.5"/>
<text text-anchor="middle" x="629.5" y="-231.5" font-family="Helvetica,sans-Serif" font-size="10.00">traffic_mngr.h</text>
</a>
</g>
</g>
<!-- Node28&#45;&gt;Node29 -->
<g id="edge34" class="edge"><title>Node28&#45;&gt;Node29</title>
<path fill="none" stroke="midnightblue" d="M629.5,-269.805C629.5,-260.91 629.5,-250.78 629.5,-243.751"/>
<polygon fill="midnightblue" stroke="midnightblue" points="626,-270.083 629.5,-280.083 633,-270.083 626,-270.083"/>
</g>
<!-- Node29&#45;&gt;Node14 -->
<g id="edge36" class="edge"><title>Node29&#45;&gt;Node14</title>
<path fill="none" stroke="midnightblue" d="M631.673,-214.302C635.461,-188.803 645.325,-142.783 669.5,-112 682.701,-95.1902 704.047,-82.986 720.075,-75.563"/>
<polygon fill="midnightblue" stroke="midnightblue" points="628.172,-214.072 630.33,-224.445 635.112,-214.99 628.172,-214.072"/>
</g>
<!-- Node29&#45;&gt;Node18 -->
<g id="edge35" class="edge"><title>Node29&#45;&gt;Node18</title>
<path fill="none" stroke="midnightblue" d="M648.814,-218.101C661.412,-208.382 677.428,-196.027 688.049,-187.834"/>
<polygon fill="midnightblue" stroke="midnightblue" points="646.527,-215.445 640.747,-224.324 650.802,-220.987 646.527,-215.445"/>
</g>
<!-- Node31 -->
<g id="node31" class="node"><title>Node31</title>
<g id="a_node31"><a xlink:href="api_2schedule_8h.html" target="_top" xlink:title="ODP schedule. ">
<polygon fill="white" stroke="black" points="879.5,-168.5 879.5,-187.5 947.5,-187.5 947.5,-168.5 879.5,-168.5"/>
<text text-anchor="middle" x="913.5" y="-175.5" font-family="Helvetica,sans-Serif" font-size="10.00">schedule.h</text>
</a>
</g>
</g>
<!-- Node30&#45;&gt;Node31 -->
<g id="edge39" class="edge"><title>Node30&#45;&gt;Node31</title>
<path fill="none" stroke="midnightblue" d="M913.5,-382.295C913.5,-336.644 913.5,-220.854 913.5,-187.884"/>
<polygon fill="midnightblue" stroke="midnightblue" points="910,-382.297 913.5,-392.297 917,-382.297 910,-382.297"/>
</g>
<!-- Node31&#45;&gt;Node14 -->
<g id="edge40" class="edge"><title>Node31&#45;&gt;Node14</title>
<path fill="none" stroke="midnightblue" d="M904.215,-159.127C895.851,-144.608 882.304,-124.548 865.5,-112 837.884,-91.3773 799.882,-79.4497 773.25,-73.1212"/>
<polygon fill="midnightblue" stroke="midnightblue" points="901.276,-161.047 909.153,-168.132 907.414,-157.681 901.276,-161.047"/>
</g>
<!-- Node33 -->
<g id="node33" class="node"><title>Node33</title>
<g id="a_node33"><a xlink:href="api_2packet__flags_8h.html" target="_top" xlink:title="ODP packet flags. ">
<polygon fill="white" stroke="black" points="1003.5,-112.5 1003.5,-131.5 1089.5,-131.5 1089.5,-112.5 1003.5,-112.5"/>
<text text-anchor="middle" x="1046.5" y="-119.5" font-family="Helvetica,sans-Serif" font-size="10.00">packet_flags.h</text>
</a>
</g>
</g>
<!-- Node32&#45;&gt;Node33 -->
<g id="edge45" class="edge"><title>Node32&#45;&gt;Node33</title>
<path fill="none" stroke="midnightblue" d="M1046.5,-550.251C1046.5,-528.357 1046.5,-491.052 1046.5,-459 1046.5,-459 1046.5,-459 1046.5,-233 1046.5,-195.188 1046.5,-150.064 1046.5,-131.558"/>
<polygon fill="midnightblue" stroke="midnightblue" points="1043,-550.442 1046.5,-560.442 1050,-550.442 1043,-550.442"/>
</g>
<!-- Node33&#45;&gt;Node14 -->
<g id="edge46" class="edge"><title>Node33&#45;&gt;Node14</title>
<path fill="none" stroke="midnightblue" d="M993.218,-111.566C929.601,-100.303 825.281,-81.8333 773.181,-72.6091"/>
<polygon fill="midnightblue" stroke="midnightblue" points="992.991,-115.081 1003.45,-113.378 994.211,-108.188 992.991,-115.081"/>
</g>
</g>
</svg>
