<?xml version="1.0" encoding="UTF-8" standalone="no"?>
<!DOCTYPE svg PUBLIC "-//W3C//DTD SVG 1.1//EN"
 "http://www.w3.org/Graphics/SVG/1.1/DTD/svg11.dtd">
<!-- Generated by graphviz version 2.38.0 (20140413.2041)
 -->
<!-- Title: align.h Pages: 1 -->
<svg width="2809pt" height="476pt"
 viewBox="0.00 0.00 2808.50 476.00" xmlns="http://www.w3.org/2000/svg" xmlns:xlink="http://www.w3.org/1999/xlink">
<g id="graph0" class="graph" transform="scale(1 1) rotate(0) translate(4 472)">
<title>align.h</title>
<polygon fill="white" stroke="none" points="-4,4 -4,-472 2804.5,-472 2804.5,4 -4,4"/>
<!-- Node5 -->
<g id="node1" class="node"><title>Node5</title>
<polygon fill="#bfbfbf" stroke="black" points="2001.5,-448.5 2001.5,-467.5 2049.5,-467.5 2049.5,-448.5 2001.5,-448.5"/>
<text text-anchor="middle" x="2025.5" y="-455.5" font-family="Helvetica,sans-Serif" font-size="10.00">align.h</text>
</g>
<!-- Node6 -->
<g id="node2" class="node"><title>Node6</title>
<g id="a_node2"><a xlink:href="api_2abi-default_2atomic_8h.html" target="_top" xlink:title="ODP atomic operations. ">
<polygon fill="white" stroke="black" points="231,-280.5 231,-299.5 290,-299.5 290,-280.5 231,-280.5"/>
<text text-anchor="middle" x="260.5" y="-287.5" font-family="Helvetica,sans-Serif" font-size="10.00">atomic.h</text>
</a>
</g>
</g>
<!-- Node5&#45;&gt;Node6 -->
<g id="edge1" class="edge"><title>Node5&#45;&gt;Node6</title>
<path fill="none" stroke="midnightblue" d="M1991.11,-455.116C1813.44,-445.121 981.767,-395.133 307.5,-300 301.824,-299.199 295.793,-298.176 290.011,-297.109"/>
<polygon fill="midnightblue" stroke="midnightblue" points="1990.99,-458.615 2001.17,-455.679 1991.39,-451.626 1990.99,-458.615"/>
</g>
<!-- Node24 -->
<g id="node13" class="node"><title>Node24</title>
<g id="a_node13"><a xlink:href="odp__api_8h.html" target="_top" xlink:title="The OpenDataPlane API. ">
<polygon fill="white" stroke="black" points="1960,-56.5 1960,-75.5 2023,-75.5 2023,-56.5 1960,-56.5"/>
<text text-anchor="middle" x="1991.5" y="-63.5" font-family="Helvetica,sans-Serif" font-size="10.00">odp_api.h</text>
</a>
</g>
</g>
<!-- Node5&#45;&gt;Node24 -->
<g id="edge67" class="edge"><title>Node5&#45;&gt;Node24</title>
<path fill="none" stroke="midnightblue" d="M2059.98,-455.796C2210.27,-450.101 2800.5,-422.902 2800.5,-347 2800.5,-347 2800.5,-347 2800.5,-177 2800.5,-97.0919 2172.79,-72.609 2023.21,-67.9094"/>
<polygon fill="midnightblue" stroke="midnightblue" points="2059.41,-452.315 2049.54,-456.184 2059.67,-459.31 2059.41,-452.315"/>
</g>
<!-- Node53 -->
<g id="node15" class="node"><title>Node53</title>
<g id="a_node15"><a xlink:href="api_2abi-default_2cpumask_8h.html" target="_top" xlink:title="ODP CPU masks and enumeration. ">
<polygon fill="white" stroke="black" points="2355,-280.5 2355,-299.5 2424,-299.5 2424,-280.5 2355,-280.5"/>
<text text-anchor="middle" x="2389.5" y="-287.5" font-family="Helvetica,sans-Serif" font-size="10.00">cpumask.h</text>
</a>
</g>
</g>
<!-- Node5&#45;&gt;Node53 -->
<g id="edge15" class="edge"><title>Node5&#45;&gt;Node53</title>
<path fill="none" stroke="midnightblue" d="M2053.55,-444.207C2124.68,-411.771 2310.65,-326.957 2370.59,-299.624"/>
<polygon fill="midnightblue" stroke="midnightblue" points="2051.95,-441.091 2044.3,-448.425 2054.85,-447.46 2051.95,-441.091"/>
</g>
<!-- Node77 -->
<g id="node25" class="node"><title>Node77</title>
<g id="a_node25"><a xlink:href="api_2spec_2std__types_8h.html" target="_top" xlink:title="Standard C language types and definitions for ODP. ">
<polygon fill="white" stroke="black" points="1847.5,-392.5 1847.5,-411.5 1919.5,-411.5 1919.5,-392.5 1847.5,-392.5"/>
<text text-anchor="middle" x="1883.5" y="-399.5" font-family="Helvetica,sans-Serif" font-size="10.00">std_types.h</text>
</a>
</g>
</g>
<!-- Node5&#45;&gt;Node77 -->
<g id="edge26" class="edge"><title>Node5&#45;&gt;Node77</title>
<path fill="none" stroke="midnightblue" d="M1993.34,-444.772C1966.67,-434.629 1929.43,-420.467 1905.9,-411.516"/>
<polygon fill="midnightblue" stroke="midnightblue" points="1992.41,-448.16 2003,-448.444 1994.9,-441.618 1992.41,-448.16"/>
</g>
<!-- Node7 -->
<g id="node3" class="node"><title>Node7</title>
<g id="a_node3"><a xlink:href="arch_2arm32-linux_2odp_2api_2abi_2atomic_8h_source.html" target="_top" xlink:title="atomic.h">
<polygon fill="white" stroke="black" points="385,-224.5 385,-243.5 444,-243.5 444,-224.5 385,-224.5"/>
<text text-anchor="middle" x="414.5" y="-231.5" font-family="Helvetica,sans-Serif" font-size="10.00">atomic.h</text>
</a>
</g>
</g>
<!-- Node6&#45;&gt;Node7 -->
<g id="edge2" class="edge"><title>Node6&#45;&gt;Node7</title>
<path fill="none" stroke="midnightblue" d="M294.611,-277.039C323.587,-266.879 364.462,-252.546 390.212,-243.516"/>
<polygon fill="midnightblue" stroke="midnightblue" points="293.18,-273.832 284.902,-280.444 295.497,-280.437 293.18,-273.832"/>
</g>
<!-- Node8 -->
<g id="node4" class="node"><title>Node8</title>
<g id="a_node4"><a xlink:href="arch_2arm64-linux_2odp_2api_2abi_2atomic_8h_source.html" target="_top" xlink:title="atomic.h">
<polygon fill="white" stroke="black" points="0,-224.5 0,-243.5 59,-243.5 59,-224.5 0,-224.5"/>
<text text-anchor="middle" x="29.5" y="-231.5" font-family="Helvetica,sans-Serif" font-size="10.00">atomic.h</text>
</a>
</g>
</g>
<!-- Node6&#45;&gt;Node8 -->
<g id="edge3" class="edge"><title>Node6&#45;&gt;Node8</title>
<path fill="none" stroke="midnightblue" d="M220.829,-279.793C181.805,-270.726 120.536,-256.464 67.5,-244 64.86,-243.38 62.1173,-242.733 59.3684,-242.084"/>
<polygon fill="midnightblue" stroke="midnightblue" points="220.203,-283.241 230.736,-282.094 221.787,-276.422 220.203,-283.241"/>
</g>
<!-- Node9 -->
<g id="node5" class="node"><title>Node9</title>
<g id="a_node5"><a xlink:href="arch_2default-linux_2odp_2api_2abi_2atomic_8h_source.html" target="_top" xlink:title="atomic.h">
<polygon fill="white" stroke="black" points="77,-224.5 77,-243.5 136,-243.5 136,-224.5 77,-224.5"/>
<text text-anchor="middle" x="106.5" y="-231.5" font-family="Helvetica,sans-Serif" font-size="10.00">atomic.h</text>
</a>
</g>
</g>
<!-- Node6&#45;&gt;Node9 -->
<g id="edge4" class="edge"><title>Node6&#45;&gt;Node9</title>
<path fill="none" stroke="midnightblue" d="M226.389,-277.039C197.413,-266.879 156.538,-252.546 130.788,-243.516"/>
<polygon fill="midnightblue" stroke="midnightblue" points="225.503,-280.437 236.098,-280.444 227.82,-273.832 225.503,-280.437"/>
</g>
<!-- Node10 -->
<g id="node6" class="node"><title>Node10</title>
<g id="a_node6"><a xlink:href="arch_2mips64-linux_2odp_2api_2abi_2atomic_8h_source.html" target="_top" xlink:title="atomic.h">
<polygon fill="white" stroke="black" points="154,-224.5 154,-243.5 213,-243.5 213,-224.5 154,-224.5"/>
<text text-anchor="middle" x="183.5" y="-231.5" font-family="Helvetica,sans-Serif" font-size="10.00">atomic.h</text>
</a>
</g>
</g>
<!-- Node6&#45;&gt;Node10 -->
<g id="edge5" class="edge"><title>Node6&#45;&gt;Node10</title>
<path fill="none" stroke="midnightblue" d="M239.599,-274.342C225.589,-264.517 207.617,-251.913 195.841,-243.655"/>
<polygon fill="midnightblue" stroke="midnightblue" points="237.932,-277.448 248.129,-280.324 241.951,-271.717 237.932,-277.448"/>
</g>
<!-- Node11 -->
<g id="node7" class="node"><title>Node11</title>
<g id="a_node7"><a xlink:href="arch_2power64-linux_2odp_2api_2abi_2atomic_8h_source.html" target="_top" xlink:title="atomic.h">
<polygon fill="white" stroke="black" points="231,-224.5 231,-243.5 290,-243.5 290,-224.5 231,-224.5"/>
<text text-anchor="middle" x="260.5" y="-231.5" font-family="Helvetica,sans-Serif" font-size="10.00">atomic.h</text>
</a>
</g>
</g>
<!-- Node6&#45;&gt;Node11 -->
<g id="edge6" class="edge"><title>Node6&#45;&gt;Node11</title>
<path fill="none" stroke="midnightblue" d="M260.5,-269.805C260.5,-260.91 260.5,-250.78 260.5,-243.751"/>
<polygon fill="midnightblue" stroke="midnightblue" points="257,-270.083 260.5,-280.083 264,-270.083 257,-270.083"/>
</g>
<!-- Node12 -->
<g id="node8" class="node"><title>Node12</title>
<g id="a_node8"><a xlink:href="arch_2x86__32-linux_2odp_2api_2abi_2atomic_8h_source.html" target="_top" xlink:title="atomic.h">
<polygon fill="white" stroke="black" points="308,-224.5 308,-243.5 367,-243.5 367,-224.5 308,-224.5"/>
<text text-anchor="middle" x="337.5" y="-231.5" font-family="Helvetica,sans-Serif" font-size="10.00">atomic.h</text>
</a>
</g>
</g>
<!-- Node6&#45;&gt;Node12 -->
<g id="edge7" class="edge"><title>Node6&#45;&gt;Node12</title>
<path fill="none" stroke="midnightblue" d="M281.401,-274.342C295.411,-264.517 313.383,-251.913 325.159,-243.655"/>
<polygon fill="midnightblue" stroke="midnightblue" points="279.049,-271.717 272.871,-280.324 283.068,-277.448 279.049,-271.717"/>
</g>
<!-- Node13 -->
<g id="node9" class="node"><title>Node13</title>
<g id="a_node9"><a xlink:href="arch_2x86__64-linux_2odp_2api_2abi_2atomic_8h_source.html" target="_top" xlink:title="atomic.h">
<polygon fill="white" stroke="black" points="462,-224.5 462,-243.5 521,-243.5 521,-224.5 462,-224.5"/>
<text text-anchor="middle" x="491.5" y="-231.5" font-family="Helvetica,sans-Serif" font-size="10.00">atomic.h</text>
</a>
</g>
</g>
<!-- Node6&#45;&gt;Node13 -->
<g id="edge8" class="edge"><title>Node6&#45;&gt;Node13</title>
<path fill="none" stroke="midnightblue" d="M300.129,-279.736C346.064,-268.998 420.713,-251.548 461.888,-241.922"/>
<polygon fill="midnightblue" stroke="midnightblue" points="299.167,-276.367 290.226,-282.051 300.761,-283.183 299.167,-276.367"/>
</g>
<!-- Node14 -->
<g id="node10" class="node"><title>Node14</title>
<g id="a_node10"><a xlink:href="api_2atomic_8h.html" target="_top" xlink:title="ODP atomic operations. ">
<polygon fill="white" stroke="red" points="566,-168.5 566,-187.5 625,-187.5 625,-168.5 566,-168.5"/>
<text text-anchor="middle" x="595.5" y="-175.5" font-family="Helvetica,sans-Serif" font-size="10.00">atomic.h</text>
</a>
</g>
</g>
<!-- Node13&#45;&gt;Node14 -->
<g id="edge9" class="edge"><title>Node13&#45;&gt;Node14</title>
<path fill="none" stroke="midnightblue" d="M517.328,-219.59C536.557,-209.605 562.245,-196.267 578.832,-187.655"/>
<polygon fill="midnightblue" stroke="midnightblue" points="515.471,-216.61 508.209,-224.324 518.697,-222.822 515.471,-216.61"/>
</g>
<!-- Node15 -->
<g id="node11" class="node"><title>Node15</title>
<g id="a_node11"><a xlink:href="api_2abi-default_2barrier_8h.html" target="_top" xlink:title="ODP barrier. ">
<polygon fill="white" stroke="red" points="1756.5,-112.5 1756.5,-131.5 1812.5,-131.5 1812.5,-112.5 1756.5,-112.5"/>
<text text-anchor="middle" x="1784.5" y="-119.5" font-family="Helvetica,sans-Serif" font-size="10.00">barrier.h</text>
</a>
</g>
</g>
<!-- Node14&#45;&gt;Node15 -->
<g id="edge10" class="edge"><title>Node14&#45;&gt;Node15</title>
<path fill="none" stroke="midnightblue" d="M635.316,-175.192C820.88,-166.764 1598.47,-131.449 1756.43,-124.275"/>
<polygon fill="midnightblue" stroke="midnightblue" points="635.019,-171.702 625.188,-175.652 635.336,-178.694 635.019,-171.702"/>
</g>
<!-- Node23 -->
<g id="node12" class="node"><title>Node23</title>
<g id="a_node12"><a xlink:href="api_2barrier_8h.html" target="_top" xlink:title="ODP execution barriers. ">
<polygon fill="white" stroke="black" points="625.5,-112.5 625.5,-131.5 681.5,-131.5 681.5,-112.5 625.5,-112.5"/>
<text text-anchor="middle" x="653.5" y="-119.5" font-family="Helvetica,sans-Serif" font-size="10.00">barrier.h</text>
</a>
</g>
</g>
<!-- Node14&#45;&gt;Node23 -->
<g id="edge11" class="edge"><title>Node14&#45;&gt;Node23</title>
<path fill="none" stroke="midnightblue" d="M612.413,-161.253C622.703,-151.673 635.466,-139.791 644.012,-131.834"/>
<polygon fill="midnightblue" stroke="midnightblue" points="609.753,-158.948 604.819,-168.324 614.523,-164.071 609.753,-158.948"/>
</g>
<!-- Node14&#45;&gt;Node24 -->
<g id="edge14" class="edge"><title>Node14&#45;&gt;Node24</title>
<path fill="none" stroke="midnightblue" d="M596.066,-157.76C597.638,-142.693 602.459,-122.575 616.5,-112 671.917,-70.2627 1759.65,-67.219 1959.95,-67.0126"/>
<polygon fill="midnightblue" stroke="midnightblue" points="592.553,-157.849 595.4,-168.055 599.539,-158.302 592.553,-157.849"/>
</g>
<!-- Node23&#45;&gt;Node24 -->
<g id="edge12" class="edge"><title>Node23&#45;&gt;Node24</title>
<path fill="none" stroke="midnightblue" d="M691.893,-119.451C888.523,-111.515 1780.5,-75.5159 1959.98,-68.2721"/>
<polygon fill="midnightblue" stroke="midnightblue" points="691.605,-115.959 681.755,-119.86 691.888,-122.953 691.605,-115.959"/>
</g>
<!-- Node25 -->
<g id="node14" class="node"><title>Node25</title>
<g id="a_node14"><a xlink:href="odp_8h.html" target="_top" xlink:title="WARNING: THIS FILE IS DEPRECATED AND WILL BE REMOVED!!! ODP APPLICATIONS SHOULD NOW INCLUDE odp_api...">
<polygon fill="white" stroke="black" points="1969.5,-0.5 1969.5,-19.5 2013.5,-19.5 2013.5,-0.5 1969.5,-0.5"/>
<text text-anchor="middle" x="1991.5" y="-7.5" font-family="Helvetica,sans-Serif" font-size="10.00">odp.h</text>
</a>
</g>
</g>
<!-- Node24&#45;&gt;Node25 -->
<g id="edge13" class="edge"><title>Node24&#45;&gt;Node25</title>
<path fill="none" stroke="midnightblue" d="M1991.5,-45.8045C1991.5,-36.9102 1991.5,-26.7798 1991.5,-19.7511"/>
<polygon fill="midnightblue" stroke="midnightblue" points="1988,-46.083 1991.5,-56.083 1995,-46.083 1988,-46.083"/>
</g>
<!-- Node54 -->
<g id="node16" class="node"><title>Node54</title>
<g id="a_node16"><a xlink:href="arch_2arm32-linux_2odp_2api_2abi_2cpumask_8h_source.html" target="_top" xlink:title="cpumask.h">
<polygon fill="white" stroke="black" points="2529,-224.5 2529,-243.5 2598,-243.5 2598,-224.5 2529,-224.5"/>
<text text-anchor="middle" x="2563.5" y="-231.5" font-family="Helvetica,sans-Serif" font-size="10.00">cpumask.h</text>
</a>
</g>
</g>
<!-- Node53&#45;&gt;Node54 -->
<g id="edge16" class="edge"><title>Node53&#45;&gt;Node54</title>
<path fill="none" stroke="midnightblue" d="M2426.76,-277.436C2459.57,-267.255 2506.58,-252.664 2536.06,-243.516"/>
<polygon fill="midnightblue" stroke="midnightblue" points="2425.58,-274.137 2417.07,-280.444 2427.66,-280.822 2425.58,-274.137"/>
</g>
<!-- Node55 -->
<g id="node17" class="node"><title>Node55</title>
<g id="a_node17"><a xlink:href="arch_2arm64-linux_2odp_2api_2abi_2cpumask_8h_source.html" target="_top" xlink:title="cpumask.h">
<polygon fill="white" stroke="black" points="2616,-224.5 2616,-243.5 2685,-243.5 2685,-224.5 2616,-224.5"/>
<text text-anchor="middle" x="2650.5" y="-231.5" font-family="Helvetica,sans-Serif" font-size="10.00">cpumask.h</text>
</a>
</g>
</g>
<!-- Node53&#45;&gt;Node55 -->
<g id="edge17" class="edge"><title>Node53&#45;&gt;Node55</title>
<path fill="none" stroke="midnightblue" d="M2433.99,-279.796C2485.37,-269.165 2568.82,-251.899 2615.7,-242.2"/>
<polygon fill="midnightblue" stroke="midnightblue" points="2433.24,-276.376 2424.16,-281.829 2434.66,-283.23 2433.24,-276.376"/>
</g>
<!-- Node56 -->
<g id="node18" class="node"><title>Node56</title>
<g id="a_node18"><a xlink:href="arch_2default-linux_2odp_2api_2abi_2cpumask_8h_source.html" target="_top" xlink:title="cpumask.h">
<polygon fill="white" stroke="black" points="2181,-224.5 2181,-243.5 2250,-243.5 2250,-224.5 2181,-224.5"/>
<text text-anchor="middle" x="2215.5" y="-231.5" font-family="Helvetica,sans-Serif" font-size="10.00">cpumask.h</text>
</a>
</g>
</g>
<!-- Node53&#45;&gt;Node56 -->
<g id="edge18" class="edge"><title>Node53&#45;&gt;Node56</title>
<path fill="none" stroke="midnightblue" d="M2352.24,-277.436C2319.43,-267.255 2272.42,-252.664 2242.94,-243.516"/>
<polygon fill="midnightblue" stroke="midnightblue" points="2351.34,-280.822 2361.93,-280.444 2353.42,-274.137 2351.34,-280.822"/>
</g>
<!-- Node57 -->
<g id="node19" class="node"><title>Node57</title>
<g id="a_node19"><a xlink:href="arch_2mips64-linux_2odp_2api_2abi_2cpumask_8h_source.html" target="_top" xlink:title="cpumask.h">
<polygon fill="white" stroke="black" points="2268,-224.5 2268,-243.5 2337,-243.5 2337,-224.5 2268,-224.5"/>
<text text-anchor="middle" x="2302.5" y="-231.5" font-family="Helvetica,sans-Serif" font-size="10.00">cpumask.h</text>
</a>
</g>
</g>
<!-- Node53&#45;&gt;Node57 -->
<g id="edge19" class="edge"><title>Node53&#45;&gt;Node57</title>
<path fill="none" stroke="midnightblue" d="M2366.78,-274.901C2350.83,-264.999 2330,-252.071 2316.44,-243.655"/>
<polygon fill="midnightblue" stroke="midnightblue" points="2365.18,-278.024 2375.52,-280.324 2368.87,-272.077 2365.18,-278.024"/>
</g>
<!-- Node58 -->
<g id="node20" class="node"><title>Node58</title>
<g id="a_node20"><a xlink:href="arch_2power64-linux_2odp_2api_2abi_2cpumask_8h_source.html" target="_top" xlink:title="cpumask.h">
<polygon fill="white" stroke="black" points="2355,-224.5 2355,-243.5 2424,-243.5 2424,-224.5 2355,-224.5"/>
<text text-anchor="middle" x="2389.5" y="-231.5" font-family="Helvetica,sans-Serif" font-size="10.00">cpumask.h</text>
</a>
</g>
</g>
<!-- Node53&#45;&gt;Node58 -->
<g id="edge20" class="edge"><title>Node53&#45;&gt;Node58</title>
<path fill="none" stroke="midnightblue" d="M2389.5,-269.805C2389.5,-260.91 2389.5,-250.78 2389.5,-243.751"/>
<polygon fill="midnightblue" stroke="midnightblue" points="2386,-270.083 2389.5,-280.083 2393,-270.083 2386,-270.083"/>
</g>
<!-- Node59 -->
<g id="node21" class="node"><title>Node59</title>
<g id="a_node21"><a xlink:href="arch_2x86__32-linux_2odp_2api_2abi_2cpumask_8h_source.html" target="_top" xlink:title="cpumask.h">
<polygon fill="white" stroke="black" points="2442,-224.5 2442,-243.5 2511,-243.5 2511,-224.5 2442,-224.5"/>
<text text-anchor="middle" x="2476.5" y="-231.5" font-family="Helvetica,sans-Serif" font-size="10.00">cpumask.h</text>
</a>
</g>
</g>
<!-- Node53&#45;&gt;Node59 -->
<g id="edge21" class="edge"><title>Node53&#45;&gt;Node59</title>
<path fill="none" stroke="midnightblue" d="M2412.22,-274.901C2428.17,-264.999 2449,-252.071 2462.56,-243.655"/>
<polygon fill="midnightblue" stroke="midnightblue" points="2410.13,-272.077 2403.48,-280.324 2413.82,-278.024 2410.13,-272.077"/>
</g>
<!-- Node60 -->
<g id="node22" class="node"><title>Node60</title>
<g id="a_node22"><a xlink:href="arch_2x86__64-linux_2odp_2api_2abi_2cpumask_8h_source.html" target="_top" xlink:title="cpumask.h">
<polygon fill="white" stroke="black" points="2703,-224.5 2703,-243.5 2772,-243.5 2772,-224.5 2703,-224.5"/>
<text text-anchor="middle" x="2737.5" y="-231.5" font-family="Helvetica,sans-Serif" font-size="10.00">cpumask.h</text>
</a>
</g>
</g>
<!-- Node53&#45;&gt;Node60 -->
<g id="edge22" class="edge"><title>Node53&#45;&gt;Node60</title>
<path fill="none" stroke="midnightblue" d="M2434.41,-283.135C2493.84,-275.196 2601.8,-260.153 2693.5,-244 2696.57,-243.459 2699.76,-242.867 2702.95,-242.254"/>
<polygon fill="midnightblue" stroke="midnightblue" points="2433.7,-279.699 2424.25,-284.487 2434.62,-286.638 2433.7,-279.699"/>
</g>
<!-- Node61 -->
<g id="node23" class="node"><title>Node61</title>
<g id="a_node23"><a xlink:href="api_2cpumask_8h.html" target="_top" xlink:title="ODP CPU masks and enumeration. ">
<polygon fill="white" stroke="red" points="2281,-168.5 2281,-187.5 2350,-187.5 2350,-168.5 2281,-168.5"/>
<text text-anchor="middle" x="2315.5" y="-175.5" font-family="Helvetica,sans-Serif" font-size="10.00">cpumask.h</text>
</a>
</g>
</g>
<!-- Node60&#45;&gt;Node61 -->
<g id="edge23" class="edge"><title>Node60&#45;&gt;Node61</title>
<path fill="none" stroke="midnightblue" d="M2693.02,-224.054C2560.26,-202.924 2415.05,-188.26 2350.03,-182.14"/>
<polygon fill="midnightblue" stroke="midnightblue" points="2692.53,-227.521 2702.96,-225.653 2693.65,-220.609 2692.53,-227.521"/>
</g>
<!-- Node61&#45;&gt;Node24 -->
<g id="edge25" class="edge"><title>Node61&#45;&gt;Node24</title>
<path fill="none" stroke="midnightblue" d="M2311.85,-158.027C2307.95,-143.116 2300.22,-123.077 2285.5,-112 2244.55,-81.1837 2090.34,-71.1014 2023.14,-68.1269"/>
<polygon fill="midnightblue" stroke="midnightblue" points="2308.53,-159.209 2314.14,-168.196 2315.36,-157.671 2308.53,-159.209"/>
</g>
<!-- Node73 -->
<g id="node24" class="node"><title>Node73</title>
<g id="a_node24"><a xlink:href="api_2spec_2init_8h.html" target="_top" xlink:title="init.h">
<polygon fill="white" stroke="red" points="2236.5,-112.5 2236.5,-131.5 2276.5,-131.5 2276.5,-112.5 2236.5,-112.5"/>
<text text-anchor="middle" x="2256.5" y="-119.5" font-family="Helvetica,sans-Serif" font-size="10.00">init.h</text>
</a>
</g>
</g>
<!-- Node61&#45;&gt;Node73 -->
<g id="edge24" class="edge"><title>Node61&#45;&gt;Node73</title>
<path fill="none" stroke="midnightblue" d="M2298.61,-161.537C2288.09,-151.909 2274.93,-139.869 2266.15,-131.834"/>
<polygon fill="midnightblue" stroke="midnightblue" points="2296.28,-164.154 2306.02,-168.324 2301.01,-158.99 2296.28,-164.154"/>
</g>
<!-- Node78 -->
<g id="node26" class="node"><title>Node78</title>
<g id="a_node26"><a xlink:href="api_2std__types_8h.html" target="_top" xlink:title="Standard C language types and definitions for ODP. ">
<polygon fill="white" stroke="red" points="1406.5,-336.5 1406.5,-355.5 1478.5,-355.5 1478.5,-336.5 1406.5,-336.5"/>
<text text-anchor="middle" x="1442.5" y="-343.5" font-family="Helvetica,sans-Serif" font-size="10.00">std_types.h</text>
</a>
</g>
</g>
<!-- Node77&#45;&gt;Node78 -->
<g id="edge27" class="edge"><title>Node77&#45;&gt;Node78</title>
<path fill="none" stroke="midnightblue" d="M1837.44,-395.36C1749.33,-384.572 1558.6,-361.216 1478.78,-351.442"/>
<polygon fill="midnightblue" stroke="midnightblue" points="1837.06,-398.84 1847.41,-396.581 1837.91,-391.891 1837.06,-398.84"/>
</g>
<!-- Node78&#45;&gt;Node6 -->
<g id="edge28" class="edge"><title>Node78&#45;&gt;Node6</title>
<path fill="none" stroke="midnightblue" d="M1396.26,-344.173C1210.89,-340.705 521.238,-326.275 304.5,-300 299.856,-299.437 294.972,-298.643 290.215,-297.758"/>
<polygon fill="midnightblue" stroke="midnightblue" points="1396.41,-347.677 1406.48,-344.363 1396.54,-340.678 1396.41,-347.677"/>
</g>
<!-- Node78&#45;&gt;Node15 -->
<g id="edge29" class="edge"><title>Node78&#45;&gt;Node15</title>
<path fill="none" stroke="midnightblue" d="M1488.72,-342.684C1582.4,-337.515 1787.62,-323.601 1808.5,-300 1852.47,-250.294 1806.16,-160.004 1789.78,-131.716"/>
<polygon fill="midnightblue" stroke="midnightblue" points="1488.46,-339.193 1478.67,-343.229 1488.84,-346.182 1488.46,-339.193"/>
</g>
<!-- Node78&#45;&gt;Node23 -->
<g id="edge39" class="edge"><title>Node78&#45;&gt;Node23</title>
<path fill="none" stroke="midnightblue" d="M1396.02,-344.811C1195.3,-343.772 411.288,-337.329 375.5,-300 369.348,-293.584 369.723,-286.756 375.5,-280 442.456,-201.696 520.915,-304.235 604.5,-244 642.561,-216.571 651.108,-154.387 652.985,-131.587"/>
<polygon fill="midnightblue" stroke="midnightblue" points="1396.21,-348.312 1406.23,-344.862 1396.25,-341.312 1396.21,-348.312"/>
</g>
<!-- Node78&#45;&gt;Node24 -->
<g id="edge66" class="edge"><title>Node78&#45;&gt;Node24</title>
<path fill="none" stroke="midnightblue" d="M1488.77,-344.127C1615.61,-341.341 1962.12,-330.949 2002.5,-300 2069.83,-248.392 2067.52,-190.557 2035.5,-112 2029.23,-96.6205 2014.89,-83.6399 2004.28,-75.6314"/>
<polygon fill="midnightblue" stroke="midnightblue" points="1488.53,-340.631 1478.61,-344.344 1488.68,-347.63 1488.53,-340.631"/>
</g>
<!-- Node78&#45;&gt;Node53 -->
<g id="edge31" class="edge"><title>Node78&#45;&gt;Node53</title>
<path fill="none" stroke="midnightblue" d="M1489.06,-342.345C1654.14,-332.932 2209.39,-301.27 2354.54,-292.993"/>
<polygon fill="midnightblue" stroke="midnightblue" points="1488.54,-338.869 1478.75,-342.933 1488.94,-345.858 1488.54,-338.869"/>
</g>
<!-- Node78&#45;&gt;Node73 -->
<g id="edge59" class="edge"><title>Node78&#45;&gt;Node73</title>
<path fill="none" stroke="midnightblue" d="M1488.57,-343.843C1629.34,-340.033 2047.6,-326.578 2102.5,-300 2143.56,-280.121 2136.02,-252.682 2171.5,-224 2196.28,-203.968 2213.16,-212.526 2233.5,-188 2247.56,-171.047 2253.29,-144.885 2255.4,-131.51"/>
<polygon fill="midnightblue" stroke="midnightblue" points="1488.43,-340.345 1478.53,-344.111 1488.62,-347.343 1488.43,-340.345"/>
</g>
<!-- Node79 -->
<g id="node27" class="node"><title>Node79</title>
<g id="a_node27"><a xlink:href="api_2abi-default_2byteorder_8h.html" target="_top" xlink:title="ODP byteorder. ">
<polygon fill="white" stroke="red" points="385,-280.5 385,-299.5 456,-299.5 456,-280.5 385,-280.5"/>
<text text-anchor="middle" x="420.5" y="-287.5" font-family="Helvetica,sans-Serif" font-size="10.00">byteorder.h</text>
</a>
</g>
</g>
<!-- Node78&#45;&gt;Node79 -->
<g id="edge30" class="edge"><title>Node78&#45;&gt;Node79</title>
<path fill="none" stroke="midnightblue" d="M1396.01,-345.348C1255.25,-345.868 821.539,-343.549 465.5,-300 462.495,-299.632 459.39,-299.176 456.282,-298.664"/>
<polygon fill="midnightblue" stroke="midnightblue" points="1396.42,-348.846 1406.41,-345.302 1396.39,-341.846 1396.42,-348.846"/>
</g>
<!-- Node88 -->
<g id="node28" class="node"><title>Node88</title>
<g id="a_node28"><a xlink:href="api_2abi-default_2init_8h.html" target="_top" xlink:title="ODP initialization. ">
<polygon fill="white" stroke="red" points="474.5,-280.5 474.5,-299.5 514.5,-299.5 514.5,-280.5 474.5,-280.5"/>
<text text-anchor="middle" x="494.5" y="-287.5" font-family="Helvetica,sans-Serif" font-size="10.00">init.h</text>
</a>
</g>
</g>
<!-- Node78&#45;&gt;Node88 -->
<g id="edge32" class="edge"><title>Node78&#45;&gt;Node88</title>
<path fill="none" stroke="midnightblue" d="M1396.32,-344.275C1234.53,-341.497 693.969,-330.127 523.5,-300 520.593,-299.486 517.57,-298.767 514.621,-297.956"/>
<polygon fill="midnightblue" stroke="midnightblue" points="1396.36,-347.776 1406.42,-344.446 1396.48,-340.777 1396.36,-347.776"/>
</g>
<!-- Node96 -->
<g id="node29" class="node"><title>Node96</title>
<g id="a_node29"><a xlink:href="api_2abi-default_2ipsec_8h.html" target="_top" xlink:title="ODP IPSEC API &#45; platform specific types. ">
<polygon fill="white" stroke="red" points="532.5,-280.5 532.5,-299.5 582.5,-299.5 582.5,-280.5 532.5,-280.5"/>
<text text-anchor="middle" x="557.5" y="-287.5" font-family="Helvetica,sans-Serif" font-size="10.00">ipsec.h</text>
</a>
</g>
</g>
<!-- Node78&#45;&gt;Node96 -->
<g id="edge33" class="edge"><title>Node78&#45;&gt;Node96</title>
<path fill="none" stroke="midnightblue" d="M1396.22,-343.809C1242.34,-339.653 748.662,-324.686 591.5,-300 588.605,-299.545 585.6,-298.945 582.628,-298.269"/>
<polygon fill="midnightblue" stroke="midnightblue" points="1396.19,-347.31 1406.28,-344.079 1396.38,-340.312 1396.19,-347.31"/>
</g>
<!-- Node105 -->
<g id="node30" class="node"><title>Node105</title>
<g id="a_node30"><a xlink:href="api_2abi-default_2packet__io_8h.html" target="_top" xlink:title="ODP Packet IO. ">
<polygon fill="white" stroke="red" points="601,-280.5 601,-299.5 672,-299.5 672,-280.5 601,-280.5"/>
<text text-anchor="middle" x="636.5" y="-287.5" font-family="Helvetica,sans-Serif" font-size="10.00">packet_io.h</text>
</a>
</g>
</g>
<!-- Node78&#45;&gt;Node105 -->
<g id="edge34" class="edge"><title>Node78&#45;&gt;Node105</title>
<path fill="none" stroke="midnightblue" d="M1396.07,-344.486C1276.9,-342.685 950.668,-334.706 681.5,-300 678.497,-299.613 675.395,-299.142 672.288,-298.622"/>
<polygon fill="midnightblue" stroke="midnightblue" points="1396.24,-347.989 1406.29,-344.633 1396.34,-340.99 1396.24,-347.989"/>
</g>
<!-- Node35 -->
<g id="node31" class="node"><title>Node35</title>
<g id="a_node31"><a xlink:href="api_2abi-default_2rwlock__recursive_8h.html" target="_top" xlink:title="ODP recursive read/write lock. ">
<polygon fill="white" stroke="red" points="690.5,-280.5 690.5,-299.5 794.5,-299.5 794.5,-280.5 690.5,-280.5"/>
<text text-anchor="middle" x="742.5" y="-287.5" font-family="Helvetica,sans-Serif" font-size="10.00">rwlock_recursive.h</text>
</a>
</g>
</g>
<!-- Node78&#45;&gt;Node35 -->
<g id="edge35" class="edge"><title>Node78&#45;&gt;Node35</title>
<path fill="none" stroke="midnightblue" d="M1396.09,-342.946C1290.59,-338.011 1024.76,-324.078 803.5,-300 800.627,-299.687 797.681,-299.34 794.71,-298.97"/>
<polygon fill="midnightblue" stroke="midnightblue" points="1396.23,-346.456 1406.38,-343.422 1396.56,-339.464 1396.23,-346.456"/>
</g>
<!-- Node131 -->
<g id="node32" class="node"><title>Node131</title>
<g id="a_node32"><a xlink:href="api_2abi-default_2schedule_8h.html" target="_top" xlink:title="ODP schedule. ">
<polygon fill="white" stroke="red" points="812.5,-280.5 812.5,-299.5 880.5,-299.5 880.5,-280.5 812.5,-280.5"/>
<text text-anchor="middle" x="846.5" y="-287.5" font-family="Helvetica,sans-Serif" font-size="10.00">schedule.h</text>
</a>
</g>
</g>
<!-- Node78&#45;&gt;Node131 -->
<g id="edge36" class="edge"><title>Node78&#45;&gt;Node131</title>
<path fill="none" stroke="midnightblue" d="M1396.26,-343.194C1301.03,-339.045 1076.26,-327.035 889.5,-300 886.632,-299.585 883.667,-299.095 880.699,-298.561"/>
<polygon fill="midnightblue" stroke="midnightblue" points="1396.28,-346.698 1406.42,-343.628 1396.58,-339.704 1396.28,-346.698"/>
</g>
<!-- Node139 -->
<g id="node33" class="node"><title>Node139</title>
<g id="a_node33"><a xlink:href="api_2abi-default_2spinlock__recursive_8h.html" target="_top" xlink:title="ODP recursive spinlock. ">
<polygon fill="white" stroke="red" points="899,-280.5 899,-299.5 1012,-299.5 1012,-280.5 899,-280.5"/>
<text text-anchor="middle" x="955.5" y="-287.5" font-family="Helvetica,sans-Serif" font-size="10.00">spinlock_recursive.h</text>
</a>
</g>
</g>
<!-- Node78&#45;&gt;Node139 -->
<g id="edge37" class="edge"><title>Node78&#45;&gt;Node139</title>
<path fill="none" stroke="midnightblue" d="M1395.91,-340.514C1318.08,-332.911 1156.7,-316.687 1020.5,-300 1017.79,-299.668 1015.01,-299.318 1012.21,-298.958"/>
<polygon fill="midnightblue" stroke="midnightblue" points="1396.04,-344.043 1406.33,-341.529 1396.72,-337.076 1396.04,-344.043"/>
</g>
<!-- Node148 -->
<g id="node34" class="node"><title>Node148</title>
<g id="a_node34"><a xlink:href="api_2abi-default_2traffic__mngr_8h.html" target="_top" xlink:title="ODP traffic mngr. ">
<polygon fill="white" stroke="red" points="1030,-280.5 1030,-299.5 1113,-299.5 1113,-280.5 1030,-280.5"/>
<text text-anchor="middle" x="1071.5" y="-287.5" font-family="Helvetica,sans-Serif" font-size="10.00">traffic_mngr.h</text>
</a>
</g>
</g>
<!-- Node78&#45;&gt;Node148 -->
<g id="edge38" class="edge"><title>Node78&#45;&gt;Node148</title>
<path fill="none" stroke="midnightblue" d="M1396.4,-339.109C1333.98,-331.002 1219.14,-315.626 1121.5,-300 1118.8,-299.568 1116.02,-299.109 1113.22,-298.635"/>
<polygon fill="midnightblue" stroke="midnightblue" points="1395.96,-342.581 1406.33,-340.394 1396.86,-335.639 1395.96,-342.581"/>
</g>
<!-- Node156 -->
<g id="node35" class="node"><title>Node156</title>
<g id="a_node35"><a xlink:href="api_2buffer_8h.html" target="_top" xlink:title="ODP buffer descriptor. ">
<polygon fill="white" stroke="black" points="2067,-168.5 2067,-187.5 2120,-187.5 2120,-168.5 2067,-168.5"/>
<text text-anchor="middle" x="2093.5" y="-175.5" font-family="Helvetica,sans-Serif" font-size="10.00">buffer.h</text>
</a>
</g>
</g>
<!-- Node78&#45;&gt;Node156 -->
<g id="edge40" class="edge"><title>Node78&#45;&gt;Node156</title>
<path fill="none" stroke="midnightblue" d="M1488.77,-344.49C1623.41,-342.608 2008.26,-334.255 2052.5,-300 2088.8,-271.891 2093.2,-210.127 2093.56,-187.513"/>
<polygon fill="midnightblue" stroke="midnightblue" points="1488.72,-340.99 1478.77,-344.624 1488.82,-347.99 1488.72,-340.99"/>
</g>
<!-- Node113 -->
<g id="node36" class="node"><title>Node113</title>
<g id="a_node36"><a xlink:href="api_2classification_8h.html" target="_top" xlink:title="ODP classification descriptor. ">
<polygon fill="white" stroke="red" points="2138.5,-168.5 2138.5,-187.5 2224.5,-187.5 2224.5,-168.5 2138.5,-168.5"/>
<text text-anchor="middle" x="2181.5" y="-175.5" font-family="Helvetica,sans-Serif" font-size="10.00">classification.h</text>
</a>
</g>
</g>
<!-- Node78&#45;&gt;Node113 -->
<g id="edge42" class="edge"><title>Node78&#45;&gt;Node113</title>
<path fill="none" stroke="midnightblue" d="M1489.03,-343.794C1626.38,-339.942 2023.75,-326.6 2075.5,-300 2114.52,-279.942 2109.33,-256.77 2138.5,-224 2150,-211.087 2163.92,-196.737 2172.74,-187.79"/>
<polygon fill="midnightblue" stroke="midnightblue" points="1488.73,-340.301 1478.83,-344.076 1488.93,-347.298 1488.73,-340.301"/>
</g>
<!-- Node119 -->
<g id="node37" class="node"><title>Node119</title>
<g id="a_node37"><a xlink:href="api_2crypto_8h.html" target="_top" xlink:title="ODP crypto. ">
<polygon fill="white" stroke="red" points="539.5,-224.5 539.5,-243.5 595.5,-243.5 595.5,-224.5 539.5,-224.5"/>
<text text-anchor="middle" x="567.5" y="-231.5" font-family="Helvetica,sans-Serif" font-size="10.00">crypto.h</text>
</a>
</g>
</g>
<!-- Node78&#45;&gt;Node119 -->
<g id="edge44" class="edge"><title>Node78&#45;&gt;Node119</title>
<path fill="none" stroke="midnightblue" d="M1396.05,-343.97C1189.18,-339.276 361.029,-319.302 342.5,-300 297.965,-253.605 234.478,-307.305 529.5,-244 532.682,-243.317 536.006,-242.574 539.308,-241.817"/>
<polygon fill="midnightblue" stroke="midnightblue" points="1396.19,-347.474 1406.27,-344.201 1396.35,-340.476 1396.19,-347.474"/>
</g>
<!-- Node115 -->
<g id="node38" class="node"><title>Node115</title>
<g id="a_node38"><a xlink:href="api_2packet_8h.html" target="_top" xlink:title="ODP packet descriptor. ">
<polygon fill="white" stroke="red" points="1914.5,-280.5 1914.5,-299.5 1972.5,-299.5 1972.5,-280.5 1914.5,-280.5"/>
<text text-anchor="middle" x="1943.5" y="-287.5" font-family="Helvetica,sans-Serif" font-size="10.00">packet.h</text>
</a>
</g>
</g>
<!-- Node78&#45;&gt;Node115 -->
<g id="edge46" class="edge"><title>Node78&#45;&gt;Node115</title>
<path fill="none" stroke="midnightblue" d="M1488.68,-342.125C1571.53,-336.598 1750.73,-322.961 1900.5,-300 1905.02,-299.306 1909.79,-298.444 1914.43,-297.529"/>
<polygon fill="midnightblue" stroke="midnightblue" points="1488.34,-338.64 1478.59,-342.79 1488.8,-345.625 1488.34,-338.64"/>
</g>
<!-- Node129 -->
<g id="node39" class="node"><title>Node129</title>
<g id="a_node39"><a xlink:href="api_2spec_2packet__flags_8h.html" target="_top" xlink:title="ODP packet flags. ">
<polygon fill="white" stroke="red" points="1846.5,-224.5 1846.5,-243.5 1932.5,-243.5 1932.5,-224.5 1846.5,-224.5"/>
<text text-anchor="middle" x="1889.5" y="-231.5" font-family="Helvetica,sans-Serif" font-size="10.00">packet_flags.h</text>
</a>
</g>
</g>
<!-- Node78&#45;&gt;Node129 -->
<g id="edge60" class="edge"><title>Node78&#45;&gt;Node129</title>
<path fill="none" stroke="midnightblue" d="M1488.76,-345.813C1585.36,-346.609 1804.41,-343.423 1862.5,-300 1880.7,-286.392 1886.71,-258.245 1888.63,-243.87"/>
<polygon fill="midnightblue" stroke="midnightblue" points="1488.73,-342.313 1478.7,-345.712 1488.66,-349.313 1488.73,-342.313"/>
</g>
<!-- Node125 -->
<g id="node40" class="node"><title>Node125</title>
<g id="a_node40"><a xlink:href="api_2packet__io_8h.html" target="_top" xlink:title="ODP Packet IO. ">
<polygon fill="white" stroke="red" points="1956,-112.5 1956,-131.5 2027,-131.5 2027,-112.5 1956,-112.5"/>
<text text-anchor="middle" x="1991.5" y="-119.5" font-family="Helvetica,sans-Serif" font-size="10.00">packet_io.h</text>
</a>
</g>
</g>
<!-- Node78&#45;&gt;Node125 -->
<g id="edge49" class="edge"><title>Node78&#45;&gt;Node125</title>
<path fill="none" stroke="midnightblue" d="M1489.19,-344.53C1613.88,-342.805 1947.49,-334.937 1981.5,-300 2027.66,-252.584 2003.34,-159.967 1994.36,-131.517"/>
<polygon fill="midnightblue" stroke="midnightblue" points="1488.79,-341.035 1478.84,-344.665 1488.88,-348.034 1488.79,-341.035"/>
</g>
<!-- Node123 -->
<g id="node41" class="node"><title>Node123</title>
<g id="a_node41"><a xlink:href="api_2queue_8h.html" target="_top" xlink:title="ODP queue. ">
<polygon fill="white" stroke="red" points="1726.5,-280.5 1726.5,-299.5 1782.5,-299.5 1782.5,-280.5 1726.5,-280.5"/>
<text text-anchor="middle" x="1754.5" y="-287.5" font-family="Helvetica,sans-Serif" font-size="10.00">queue.h</text>
</a>
</g>
</g>
<!-- Node78&#45;&gt;Node123 -->
<g id="edge51" class="edge"><title>Node78&#45;&gt;Node123</title>
<path fill="none" stroke="midnightblue" d="M1488.61,-338.432C1543.2,-330.423 1636.79,-315.964 1716.5,-300 1719.69,-299.361 1723.02,-298.645 1726.33,-297.904"/>
<polygon fill="midnightblue" stroke="midnightblue" points="1487.94,-334.992 1478.55,-339.899 1488.95,-341.919 1487.94,-334.992"/>
</g>
<!-- Node71 -->
<g id="node42" class="node"><title>Node71</title>
<g id="a_node42"><a xlink:href="api_2spec_2schedule_8h.html" target="_top" xlink:title="ODP schedule. ">
<polygon fill="white" stroke="red" points="1722.5,-224.5 1722.5,-243.5 1790.5,-243.5 1790.5,-224.5 1722.5,-224.5"/>
<text text-anchor="middle" x="1756.5" y="-231.5" font-family="Helvetica,sans-Serif" font-size="10.00">schedule.h</text>
</a>
</g>
</g>
<!-- Node78&#45;&gt;Node71 -->
<g id="edge62" class="edge"><title>Node78&#45;&gt;Node71</title>
<path fill="none" stroke="midnightblue" d="M1488.78,-342.385C1579.1,-336.808 1771.81,-322.396 1791.5,-300 1806.99,-282.387 1782.45,-256.74 1767.19,-243.545"/>
<polygon fill="midnightblue" stroke="midnightblue" points="1488.32,-338.907 1478.55,-343.006 1488.74,-345.894 1488.32,-338.907"/>
</g>
<!-- Node157 -->
<g id="node43" class="node"><title>Node157</title>
<g id="a_node43"><a xlink:href="spec_2chksum_8h.html" target="_top" xlink:title="ODP checksum functions. ">
<polygon fill="white" stroke="red" points="1131,-280.5 1131,-299.5 1194,-299.5 1194,-280.5 1131,-280.5"/>
<text text-anchor="middle" x="1162.5" y="-287.5" font-family="Helvetica,sans-Serif" font-size="10.00">chksum.h</text>
</a>
</g>
</g>
<!-- Node78&#45;&gt;Node157 -->
<g id="edge55" class="edge"><title>Node78&#45;&gt;Node157</title>
<path fill="none" stroke="midnightblue" d="M1396.37,-336.86C1347.98,-328.201 1269.75,-313.866 1202.5,-300 1199.85,-299.454 1197.11,-298.871 1194.35,-298.276"/>
<polygon fill="midnightblue" stroke="midnightblue" points="1395.77,-340.308 1406.23,-338.619 1397,-333.417 1395.77,-340.308"/>
</g>
<!-- Node159 -->
<g id="node44" class="node"><title>Node159</title>
<g id="a_node44"><a xlink:href="api_2spec_2cpu_8h.html" target="_top" xlink:title="ODP CPU API. ">
<polygon fill="white" stroke="red" points="1212,-280.5 1212,-299.5 1255,-299.5 1255,-280.5 1212,-280.5"/>
<text text-anchor="middle" x="1233.5" y="-287.5" font-family="Helvetica,sans-Serif" font-size="10.00">cpu.h</text>
</a>
</g>
</g>
<!-- Node78&#45;&gt;Node159 -->
<g id="edge56" class="edge"><title>Node78&#45;&gt;Node159</title>
<path fill="none" stroke="midnightblue" d="M1397.55,-334.097C1361.49,-325.24 1309.63,-312.252 1264.5,-300 1261.47,-299.178 1258.28,-298.285 1255.15,-297.391"/>
<polygon fill="midnightblue" stroke="midnightblue" points="1396.73,-337.501 1407.28,-336.481 1398.4,-330.702 1396.73,-337.501"/>
</g>
<!-- Node161 -->
<g id="node45" class="node"><title>Node161</title>
<g id="a_node45"><a xlink:href="spec_2feature_8h.html" target="_top" xlink:title="ODP features. ">
<polygon fill="white" stroke="red" points="1273.5,-280.5 1273.5,-299.5 1333.5,-299.5 1333.5,-280.5 1273.5,-280.5"/>
<text text-anchor="middle" x="1303.5" y="-287.5" font-family="Helvetica,sans-Serif" font-size="10.00">feature.h</text>
</a>
</g>
</g>
<!-- Node78&#45;&gt;Node161 -->
<g id="edge57" class="edge"><title>Node78&#45;&gt;Node161</title>
<path fill="none" stroke="midnightblue" d="M1411.02,-332.772C1384.91,-322.629 1348.46,-308.467 1325.42,-299.516"/>
<polygon fill="midnightblue" stroke="midnightblue" points="1409.89,-336.085 1420.48,-336.444 1412.42,-329.56 1409.89,-336.085"/>
</g>
<!-- Node163 -->
<g id="node46" class="node"><title>Node163</title>
<g id="a_node46"><a xlink:href="api_2spec_2hash_8h.html" target="_top" xlink:title="ODP Hash functions. ">
<polygon fill="white" stroke="red" points="1352,-280.5 1352,-299.5 1401,-299.5 1401,-280.5 1352,-280.5"/>
<text text-anchor="middle" x="1376.5" y="-287.5" font-family="Helvetica,sans-Serif" font-size="10.00">hash.h</text>
</a>
</g>
</g>
<!-- Node78&#45;&gt;Node163 -->
<g id="edge58" class="edge"><title>Node78&#45;&gt;Node163</title>
<path fill="none" stroke="midnightblue" d="M1423.95,-329.82C1412.12,-320.145 1397.21,-307.948 1387.3,-299.834"/>
<polygon fill="midnightblue" stroke="midnightblue" points="1421.94,-332.7 1431.9,-336.324 1426.37,-327.283 1421.94,-332.7"/>
</g>
<!-- Node165 -->
<g id="node47" class="node"><title>Node165</title>
<g id="a_node47"><a xlink:href="api_2spec_2pool_8h.html" target="_top" xlink:title="ODP pool. ">
<polygon fill="white" stroke="red" points="1419.5,-280.5 1419.5,-299.5 1465.5,-299.5 1465.5,-280.5 1419.5,-280.5"/>
<text text-anchor="middle" x="1442.5" y="-287.5" font-family="Helvetica,sans-Serif" font-size="10.00">pool.h</text>
</a>
</g>
</g>
<!-- Node78&#45;&gt;Node165 -->
<g id="edge61" class="edge"><title>Node78&#45;&gt;Node165</title>
<path fill="none" stroke="midnightblue" d="M1442.5,-325.805C1442.5,-316.91 1442.5,-306.78 1442.5,-299.751"/>
<polygon fill="midnightblue" stroke="midnightblue" points="1439,-326.083 1442.5,-336.083 1446,-326.083 1439,-326.083"/>
</g>
<!-- Node167 -->
<g id="node48" class="node"><title>Node167</title>
<g id="a_node48"><a xlink:href="api_2spec_2stash_8h.html" target="_top" xlink:title="ODP stash. ">
<polygon fill="white" stroke="red" points="1483.5,-280.5 1483.5,-299.5 1535.5,-299.5 1535.5,-280.5 1483.5,-280.5"/>
<text text-anchor="middle" x="1509.5" y="-287.5" font-family="Helvetica,sans-Serif" font-size="10.00">stash.h</text>
</a>
</g>
</g>
<!-- Node78&#45;&gt;Node167 -->
<g id="edge63" class="edge"><title>Node78&#45;&gt;Node167</title>
<path fill="none" stroke="midnightblue" d="M1461.33,-329.82C1473.34,-320.145 1488.47,-307.948 1498.54,-299.834"/>
<polygon fill="midnightblue" stroke="midnightblue" points="1458.85,-327.324 1453.26,-336.324 1463.25,-332.774 1458.85,-327.324"/>
</g>
<!-- Node169 -->
<g id="node49" class="node"><title>Node169</title>
<g id="a_node49"><a xlink:href="spec_2threshold_8h.html" target="_top" xlink:title="ODP threshold descriptor. ">
<polygon fill="white" stroke="red" points="1554,-280.5 1554,-299.5 1625,-299.5 1625,-280.5 1554,-280.5"/>
<text text-anchor="middle" x="1589.5" y="-287.5" font-family="Helvetica,sans-Serif" font-size="10.00">threshold.h</text>
</a>
</g>
</g>
<!-- Node78&#45;&gt;Node169 -->
<g id="edge64" class="edge"><title>Node78&#45;&gt;Node169</title>
<path fill="none" stroke="midnightblue" d="M1475.42,-332.906C1503.06,-322.754 1541.84,-308.506 1566.32,-299.516"/>
<polygon fill="midnightblue" stroke="midnightblue" points="1473.97,-329.71 1465.79,-336.444 1476.39,-336.281 1473.97,-329.71"/>
</g>
<!-- Node171 -->
<g id="node50" class="node"><title>Node171</title>
<g id="a_node50"><a xlink:href="api_2spec_2thrmask_8h.html" target="_top" xlink:title="ODP thread masks. ">
<polygon fill="white" stroke="red" points="1643,-280.5 1643,-299.5 1708,-299.5 1708,-280.5 1643,-280.5"/>
<text text-anchor="middle" x="1675.5" y="-287.5" font-family="Helvetica,sans-Serif" font-size="10.00">thrmask.h</text>
</a>
</g>
</g>
<!-- Node78&#45;&gt;Node171 -->
<g id="edge65" class="edge"><title>Node78&#45;&gt;Node171</title>
<path fill="none" stroke="midnightblue" d="M1488.55,-334.327C1534.02,-323.788 1602.42,-307.936 1642.66,-298.612"/>
<polygon fill="midnightblue" stroke="midnightblue" points="1487.6,-330.954 1478.65,-336.622 1489.18,-337.774 1487.6,-330.954"/>
</g>
<!-- Node156&#45;&gt;Node24 -->
<g id="edge41" class="edge"><title>Node156&#45;&gt;Node24</title>
<path fill="none" stroke="midnightblue" d="M2090.23,-158.511C2086.97,-144.465 2080.76,-125.351 2069.5,-112 2055.09,-94.9099 2032.44,-82.8714 2015.25,-75.5735"/>
<polygon fill="midnightblue" stroke="midnightblue" points="2086.84,-159.38 2092.26,-168.483 2093.7,-157.986 2086.84,-159.38"/>
</g>
<!-- Node113&#45;&gt;Node24 -->
<g id="edge43" class="edge"><title>Node113&#45;&gt;Node24</title>
<path fill="none" stroke="midnightblue" d="M2162.59,-162.075C2144.46,-148.146 2116,-127.272 2089.5,-112 2064.19,-97.4177 2033.34,-83.8974 2013.09,-75.5597"/>
<polygon fill="midnightblue" stroke="midnightblue" points="2160.57,-164.933 2170.61,-168.301 2164.86,-159.404 2160.57,-164.933"/>
</g>
<!-- Node119&#45;&gt;Node24 -->
<g id="edge45" class="edge"><title>Node119&#45;&gt;Node24</title>
<path fill="none" stroke="midnightblue" d="M559.792,-214.974C555.231,-201.713 551.272,-183.392 556.5,-168 566.592,-138.287 571.582,-126.327 599.5,-112 661.986,-79.9333 1757.97,-69.0039 1959.72,-67.2597"/>
<polygon fill="midnightblue" stroke="midnightblue" points="556.553,-216.301 563.415,-224.373 563.084,-213.783 556.553,-216.301"/>
</g>
<!-- Node115&#45;&gt;Node24 -->
<g id="edge48" class="edge"><title>Node115&#45;&gt;Node24</title>
<path fill="none" stroke="midnightblue" d="M1943.03,-270.302C1942.07,-227.751 1940.45,-126.254 1946.5,-112 1953.06,-96.5396 1967.69,-83.5742 1978.5,-75.5913"/>
<polygon fill="midnightblue" stroke="midnightblue" points="1939.53,-270.493 1943.27,-280.407 1946.53,-270.326 1939.53,-270.493"/>
</g>
<!-- Node115&#45;&gt;Node129 -->
<g id="edge47" class="edge"><title>Node115&#45;&gt;Node129</title>
<path fill="none" stroke="midnightblue" d="M1927.5,-273.002C1917.93,-263.433 1906.14,-251.639 1898.25,-243.751"/>
<polygon fill="midnightblue" stroke="midnightblue" points="1925.04,-275.487 1934.58,-280.083 1929.99,-270.537 1925.04,-275.487"/>
</g>
<!-- Node125&#45;&gt;Node24 -->
<g id="edge50" class="edge"><title>Node125&#45;&gt;Node24</title>
<path fill="none" stroke="midnightblue" d="M1991.5,-101.805C1991.5,-92.9102 1991.5,-82.7798 1991.5,-75.7511"/>
<polygon fill="midnightblue" stroke="midnightblue" points="1988,-102.083 1991.5,-112.083 1995,-102.083 1988,-102.083"/>
</g>
<!-- Node123&#45;&gt;Node24 -->
<g id="edge54" class="edge"><title>Node123&#45;&gt;Node24</title>
<path fill="none" stroke="midnightblue" d="M1735.25,-273.745C1726.87,-265.869 1717.95,-255.502 1713.5,-244 1696.52,-200.142 1696.02,-157.997 1747.5,-112 1778.42,-84.3755 1900.8,-72.8512 1959.62,-68.8337"/>
<polygon fill="midnightblue" stroke="midnightblue" points="1733.13,-276.54 1742.96,-280.49 1737.74,-271.271 1733.13,-276.54"/>
</g>
<!-- Node123&#45;&gt;Node119 -->
<g id="edge52" class="edge"><title>Node123&#45;&gt;Node119</title>
<path fill="none" stroke="midnightblue" d="M1716.8,-280.042C1716.7,-280.028 1716.6,-280.014 1716.5,-280 1490.03,-249.043 749.315,-237.462 595.59,-235.363"/>
<polygon fill="midnightblue" stroke="midnightblue" points="1715.94,-283.445 1726.39,-281.703 1717.14,-276.547 1715.94,-283.445"/>
</g>
<!-- Node123&#45;&gt;Node71 -->
<g id="edge53" class="edge"><title>Node123&#45;&gt;Node71</title>
<path fill="none" stroke="midnightblue" d="M1755.21,-269.805C1755.54,-260.91 1755.92,-250.78 1756.18,-243.751"/>
<polygon fill="midnightblue" stroke="midnightblue" points="1751.7,-269.96 1754.83,-280.083 1758.7,-270.219 1751.7,-269.96"/>
</g>
</g>
</svg>
