<?xml version="1.0" encoding="UTF-8" standalone="no"?>
<!DOCTYPE svg PUBLIC "-//W3C//DTD SVG 1.1//EN"
 "http://www.w3.org/Graphics/SVG/1.1/DTD/svg11.dtd">
<!-- Generated by graphviz version 2.38.0 (20140413.2041)
 -->
<!-- Title: queue.h Pages: 1 -->
<svg width="1329pt" height="666pt"
 viewBox="0.00 0.00 1329.00 666.00" xmlns="http://www.w3.org/2000/svg" xmlns:xlink="http://www.w3.org/1999/xlink">
<g id="graph0" class="graph" transform="scale(1 1) rotate(0) translate(4 662)">
<title>queue.h</title>
<polygon fill="white" stroke="none" points="-4,4 -4,-662 1325,-662 1325,4 -4,4"/>
<!-- Node0 -->
<g id="node1" class="node"><title>Node0</title>
<polygon fill="#bfbfbf" stroke="black" points="136,-638.5 136,-657.5 192,-657.5 192,-638.5 136,-638.5"/>
<text text-anchor="middle" x="164" y="-645.5" font-family="Helvetica,sans-Serif" font-size="10.00">queue.h</text>
</g>
<!-- Node1 -->
<g id="node2" class="node"><title>Node1</title>
<g id="a_node2"><a xlink:href="api_2std__types_8h.html" target="_top" xlink:title="Standard C language types and definitions for ODP. ">
<polygon fill="white" stroke="black" points="396,-235.5 396,-254.5 506,-254.5 506,-235.5 396,-235.5"/>
<text text-anchor="middle" x="451" y="-242.5" font-family="Helvetica,sans-Serif" font-size="10.00">odp/api/std_types.h</text>
</a>
</g>
</g>
<!-- Node0&#45;&gt;Node1 -->
<g id="edge1" class="edge"><title>Node0&#45;&gt;Node1</title>
<path fill="none" stroke="midnightblue" d="M135.807,-641.569C88.9174,-630.719 0,-601.625 0,-537 0,-537 0,-537 0,-367 0,-288.149 260.421,-259.265 385.481,-249.94"/>
<polygon fill="midnightblue" stroke="midnightblue" points="385.978,-253.413 395.699,-249.199 385.472,-246.432 385.978,-253.413"/>
</g>
<!-- Node10 -->
<g id="node11" class="node"><title>Node10</title>
<polygon fill="white" stroke="#bfbfbf" points="898,-358.5 898,-377.5 1006,-377.5 1006,-358.5 898,-358.5"/>
<text text-anchor="middle" x="952" y="-365.5" font-family="Helvetica,sans-Serif" font-size="10.00">odp/api/abi/event.h</text>
</g>
<!-- Node0&#45;&gt;Node10 -->
<g id="edge12" class="edge"><title>Node0&#45;&gt;Node10</title>
<path fill="none" stroke="midnightblue" d="M192.107,-645.367C318.49,-637.656 828,-602.508 828,-537 828,-537 828,-537 828,-479 828,-430.261 882.274,-397.866 919.008,-381.521"/>
<polygon fill="midnightblue" stroke="midnightblue" points="920.558,-384.665 928.385,-377.524 917.813,-378.226 920.558,-384.665"/>
</g>
<!-- Node11 -->
<g id="node12" class="node"><title>Node11</title>
<polygon fill="white" stroke="#bfbfbf" points="66.5,-582.5 66.5,-601.5 177.5,-601.5 177.5,-582.5 66.5,-582.5"/>
<text text-anchor="middle" x="122" y="-589.5" font-family="Helvetica,sans-Serif" font-size="10.00">odp/api/abi/queue.h</text>
</g>
<!-- Node0&#45;&gt;Node11 -->
<g id="edge13" class="edge"><title>Node0&#45;&gt;Node11</title>
<path fill="none" stroke="midnightblue" d="M157.065,-638.083C151.071,-630.377 142.248,-619.033 134.952,-609.653"/>
<polygon fill="midnightblue" stroke="midnightblue" points="137.709,-607.496 128.806,-601.751 132.183,-611.793 137.709,-607.496"/>
</g>
<!-- Node12 -->
<g id="node13" class="node"><title>Node12</title>
<polygon fill="white" stroke="#bfbfbf" points="29,-358.5 29,-377.5 137,-377.5 137,-358.5 29,-358.5"/>
<text text-anchor="middle" x="83" y="-365.5" font-family="Helvetica,sans-Serif" font-size="10.00">odp/api/abi/buffer.h</text>
</g>
<!-- Node0&#45;&gt;Node12 -->
<g id="edge14" class="edge"><title>Node0&#45;&gt;Node12</title>
<path fill="none" stroke="midnightblue" d="M135.944,-642.181C111.738,-636.586 77.5281,-625.006 57,-602 36.9615,-579.543 38,-567.098 38,-537 38,-537 38,-537 38,-479 38,-443.93 57.8368,-406.939 71.1694,-386.037"/>
<polygon fill="midnightblue" stroke="midnightblue" points="74.1342,-387.899 76.7429,-377.63 68.3,-384.031 74.1342,-387.899"/>
</g>
<!-- Node13 -->
<g id="node14" class="node"><title>Node13</title>
<polygon fill="white" stroke="#bfbfbf" points="295.5,-358.5 295.5,-377.5 396.5,-377.5 396.5,-358.5 295.5,-358.5"/>
<text text-anchor="middle" x="346" y="-365.5" font-family="Helvetica,sans-Serif" font-size="10.00">odp/api/abi/pool.h</text>
</g>
<!-- Node0&#45;&gt;Node13 -->
<g id="edge15" class="edge"><title>Node0&#45;&gt;Node13</title>
<path fill="none" stroke="midnightblue" d="M169.646,-638.375C195.177,-599.378 300.079,-439.143 334.79,-386.123"/>
<polygon fill="midnightblue" stroke="midnightblue" points="337.87,-387.808 340.419,-377.524 332.014,-383.974 337.87,-387.808"/>
</g>
<!-- Node14 -->
<g id="node15" class="node"><title>Node14</title>
<g id="a_node15"><a xlink:href="api_2spec_2queue_8h.html" target="_top" xlink:title="ODP queue. ">
<polygon fill="white" stroke="black" points="878.5,-582.5 878.5,-601.5 997.5,-601.5 997.5,-582.5 878.5,-582.5"/>
<text text-anchor="middle" x="938" y="-589.5" font-family="Helvetica,sans-Serif" font-size="10.00">odp/api/spec/queue.h</text>
</a>
</g>
</g>
<!-- Node0&#45;&gt;Node14 -->
<g id="edge16" class="edge"><title>Node0&#45;&gt;Node14</title>
<path fill="none" stroke="midnightblue" d="M192.114,-645.409C284.936,-640.097 590.061,-622.167 842,-602 850.547,-601.316 859.517,-600.545 868.399,-599.75"/>
<polygon fill="midnightblue" stroke="midnightblue" points="868.72,-603.235 878.362,-598.845 868.086,-596.264 868.72,-603.235"/>
</g>
<!-- Node2 -->
<g id="node3" class="node"><title>Node2</title>
<polygon fill="white" stroke="#bfbfbf" points="387,-174 387,-193 515,-193 515,-174 387,-174"/>
<text text-anchor="middle" x="451" y="-181" font-family="Helvetica,sans-Serif" font-size="10.00">odp/api/abi/std_types.h</text>
</g>
<!-- Node1&#45;&gt;Node2 -->
<g id="edge2" class="edge"><title>Node1&#45;&gt;Node2</title>
<path fill="none" stroke="midnightblue" d="M451,-235.475C451,-227.08 451,-213.981 451,-203.163"/>
<polygon fill="midnightblue" stroke="midnightblue" points="454.5,-203.009 451,-193.009 447.5,-203.009 454.5,-203.009"/>
</g>
<!-- Node3 -->
<g id="node4" class="node"><title>Node3</title>
<g id="a_node4"><a xlink:href="api_2spec_2std__types_8h.html" target="_top" xlink:title="Standard C language types and definitions for ODP. ">
<polygon fill="white" stroke="black" points="233,-174 233,-193 369,-193 369,-174 233,-174"/>
<text text-anchor="middle" x="301" y="-181" font-family="Helvetica,sans-Serif" font-size="10.00">odp/api/spec/std_types.h</text>
</a>
</g>
</g>
<!-- Node1&#45;&gt;Node3 -->
<g id="edge3" class="edge"><title>Node1&#45;&gt;Node3</title>
<path fill="none" stroke="midnightblue" d="M429.509,-235.475C403.89,-225.313 360.89,-208.256 331.755,-196.7"/>
<polygon fill="midnightblue" stroke="midnightblue" points="333.037,-193.443 322.451,-193.009 330.456,-199.95 333.037,-193.443"/>
</g>
<!-- Node4 -->
<g id="node5" class="node"><title>Node4</title>
<g id="a_node5"><a xlink:href="visibility__begin_8h_source.html" target="_top" xlink:title="odp/visibility_begin.h">
<polygon fill="white" stroke="black" points="1065.5,-0.5 1065.5,-19.5 1180.5,-19.5 1180.5,-0.5 1065.5,-0.5"/>
<text text-anchor="middle" x="1123" y="-7.5" font-family="Helvetica,sans-Serif" font-size="10.00">odp/visibility_begin.h</text>
</a>
</g>
</g>
<!-- Node3&#45;&gt;Node4 -->
<g id="edge4" class="edge"><title>Node3&#45;&gt;Node4</title>
<path fill="none" stroke="midnightblue" d="M344.934,-173.98C355.734,-171.954 367.275,-169.846 378,-168 639.547,-122.993 716.047,-159.378 968,-76 986.119,-70.004 988.619,-63.8836 1006,-56 1033.23,-43.6503 1064.92,-31.5965 1088.45,-23.0773"/>
<polygon fill="midnightblue" stroke="midnightblue" points="1089.77,-26.3235 1098,-19.6521 1087.41,-19.7347 1089.77,-26.3235"/>
</g>
<!-- Node5 -->
<g id="node6" class="node"><title>Node5</title>
<polygon fill="white" stroke="#bfbfbf" points="233.5,-112.5 233.5,-131.5 286.5,-131.5 286.5,-112.5 233.5,-112.5"/>
<text text-anchor="middle" x="260" y="-119.5" font-family="Helvetica,sans-Serif" font-size="10.00">stdint.h</text>
</g>
<!-- Node3&#45;&gt;Node5 -->
<g id="edge5" class="edge"><title>Node3&#45;&gt;Node5</title>
<path fill="none" stroke="midnightblue" d="M295.126,-173.975C289.037,-165.138 279.355,-151.089 271.697,-139.975"/>
<polygon fill="midnightblue" stroke="midnightblue" points="274.42,-137.758 265.863,-131.509 268.656,-141.729 274.42,-137.758"/>
</g>
<!-- Node6 -->
<g id="node7" class="node"><title>Node6</title>
<g id="a_node7"><a xlink:href="api_2align_8h.html" target="_top" xlink:title="ODP alignments. ">
<polygon fill="white" stroke="black" points="343,-112.5 343,-131.5 429,-131.5 429,-112.5 343,-112.5"/>
<text text-anchor="middle" x="386" y="-119.5" font-family="Helvetica,sans-Serif" font-size="10.00">odp/api/align.h</text>
</a>
</g>
</g>
<!-- Node3&#45;&gt;Node6 -->
<g id="edge6" class="edge"><title>Node3&#45;&gt;Node6</title>
<path fill="none" stroke="midnightblue" d="M313.178,-173.975C326.812,-164.431 349.132,-148.807 365.474,-137.368"/>
<polygon fill="midnightblue" stroke="midnightblue" points="367.659,-140.111 373.844,-131.509 363.645,-134.376 367.659,-140.111"/>
</g>
<!-- Node9 -->
<g id="node10" class="node"><title>Node9</title>
<g id="a_node10"><a xlink:href="visibility__end_8h_source.html" target="_top" xlink:title="odp/visibility_end.h">
<polygon fill="white" stroke="black" points="523.5,-0.5 523.5,-19.5 630.5,-19.5 630.5,-0.5 523.5,-0.5"/>
<text text-anchor="middle" x="577" y="-7.5" font-family="Helvetica,sans-Serif" font-size="10.00">odp/visibility_end.h</text>
</a>
</g>
</g>
<!-- Node3&#45;&gt;Node9 -->
<g id="edge11" class="edge"><title>Node3&#45;&gt;Node9</title>
<path fill="none" stroke="midnightblue" d="M300.289,-173.742C298.395,-147.981 294.382,-73.1936 310,-56 336.511,-26.8154 442.923,-16.5564 513.139,-12.9514"/>
<polygon fill="midnightblue" stroke="midnightblue" points="513.402,-16.4429 523.223,-12.4663 513.066,-9.45097 513.402,-16.4429"/>
</g>
<!-- Node7 -->
<g id="node8" class="node"><title>Node7</title>
<polygon fill="white" stroke="#bfbfbf" points="319,-56.5 319,-75.5 423,-75.5 423,-56.5 319,-56.5"/>
<text text-anchor="middle" x="371" y="-63.5" font-family="Helvetica,sans-Serif" font-size="10.00">odp/api/abi/align.h</text>
</g>
<!-- Node6&#45;&gt;Node7 -->
<g id="edge7" class="edge"><title>Node6&#45;&gt;Node7</title>
<path fill="none" stroke="midnightblue" d="M383.523,-112.083C381.514,-104.849 378.614,-94.4087 376.11,-85.3968"/>
<polygon fill="midnightblue" stroke="midnightblue" points="379.48,-84.4495 373.431,-75.7511 372.735,-86.323 379.48,-84.4495"/>
</g>
<!-- Node8 -->
<g id="node9" class="node"><title>Node8</title>
<g id="a_node9"><a xlink:href="api_2spec_2align_8h.html" target="_top" xlink:title="ODP alignments. ">
<polygon fill="white" stroke="black" points="479,-56.5 479,-75.5 591,-75.5 591,-56.5 479,-56.5"/>
<text text-anchor="middle" x="535" y="-63.5" font-family="Helvetica,sans-Serif" font-size="10.00">odp/api/spec/align.h</text>
</a>
</g>
</g>
<!-- Node6&#45;&gt;Node8 -->
<g id="edge8" class="edge"><title>Node6&#45;&gt;Node8</title>
<path fill="none" stroke="midnightblue" d="M409.609,-112.444C434.458,-103.438 473.774,-89.1891 501.754,-79.049"/>
<polygon fill="midnightblue" stroke="midnightblue" points="503.292,-82.2144 511.501,-75.5164 500.907,-75.6332 503.292,-82.2144"/>
</g>
<!-- Node8&#45;&gt;Node4 -->
<g id="edge9" class="edge"><title>Node8&#45;&gt;Node4</title>
<path fill="none" stroke="midnightblue" d="M591.114,-59.8467C699.647,-49.8794 937.932,-27.996 1055.15,-17.2309"/>
<polygon fill="midnightblue" stroke="midnightblue" points="1055.79,-20.6871 1065.43,-16.2872 1055.15,-13.7165 1055.79,-20.6871"/>
</g>
<!-- Node8&#45;&gt;Node9 -->
<g id="edge10" class="edge"><title>Node8&#45;&gt;Node9</title>
<path fill="none" stroke="midnightblue" d="M541.935,-56.083C547.929,-48.3768 556.752,-37.0333 564.048,-27.6531"/>
<polygon fill="midnightblue" stroke="midnightblue" points="566.817,-29.7934 570.194,-19.7511 561.291,-25.4958 566.817,-29.7934"/>
</g>
<!-- Node14&#45;&gt;Node4 -->
<g id="edge17" class="edge"><title>Node14&#45;&gt;Node4</title>
<path fill="none" stroke="midnightblue" d="M997.844,-586.265C1105.56,-576.082 1321,-547.414 1321,-481 1321,-481 1321,-481 1321,-121 1321,-59.8839 1248.02,-32.4322 1190.68,-20.2952"/>
<polygon fill="midnightblue" stroke="midnightblue" points="1191.03,-16.7962 1180.54,-18.2706 1189.66,-23.6607 1191.03,-16.7962"/>
</g>
<!-- Node14&#45;&gt;Node9 -->
<g id="edge55" class="edge"><title>Node14&#45;&gt;Node9</title>
<path fill="none" stroke="midnightblue" d="M878.462,-590.848C697.617,-588.797 167,-570.394 167,-425 167,-425 167,-425 167,-121 167,-73.7946 207.482,-74.2899 251,-56 336.92,-19.8892 445.71,-11.5271 513.337,-10.2125"/>
<polygon fill="midnightblue" stroke="midnightblue" points="513.471,-13.711 523.418,-10.063 513.367,-6.71177 513.471,-13.711"/>
</g>
<!-- Node15 -->
<g id="node16" class="node"><title>Node15</title>
<g id="a_node16"><a xlink:href="api_2event_8h.html" target="_top" xlink:title="ODP event. ">
<polygon fill="white" stroke="black" points="892.5,-526.5 892.5,-545.5 983.5,-545.5 983.5,-526.5 892.5,-526.5"/>
<text text-anchor="middle" x="938" y="-533.5" font-family="Helvetica,sans-Serif" font-size="10.00">odp/api/event.h</text>
</a>
</g>
</g>
<!-- Node14&#45;&gt;Node15 -->
<g id="edge18" class="edge"><title>Node14&#45;&gt;Node15</title>
<path fill="none" stroke="midnightblue" d="M938,-582.083C938,-575.006 938,-564.861 938,-555.986"/>
<polygon fill="midnightblue" stroke="midnightblue" points="941.5,-555.751 938,-545.751 934.5,-555.751 941.5,-555.751"/>
</g>
<!-- Node24 -->
<g id="node25" class="node"><title>Node24</title>
<g id="a_node25"><a xlink:href="queue__types_8h.html" target="_top" xlink:title="ODP queue types. ">
<polygon fill="white" stroke="black" points="979,-291.5 979,-321.5 1089,-321.5 1089,-291.5 979,-291.5"/>
<text text-anchor="start" x="987" y="-309.5" font-family="Helvetica,sans-Serif" font-size="10.00">odp/api/spec/queue</text>
<text text-anchor="middle" x="1034" y="-298.5" font-family="Helvetica,sans-Serif" font-size="10.00">_types.h</text>
</a>
</g>
</g>
<!-- Node14&#45;&gt;Node24 -->
<g id="edge39" class="edge"><title>Node14&#45;&gt;Node24</title>
<path fill="none" stroke="midnightblue" d="M953.852,-582.439C981.119,-566.425 1034,-529.16 1034,-481 1034,-481 1034,-481 1034,-423 1034,-391.495 1034,-355.155 1034,-331.783"/>
<polygon fill="midnightblue" stroke="midnightblue" points="1037.5,-331.725 1034,-321.725 1030.5,-331.725 1037.5,-331.725"/>
</g>
<!-- Node15&#45;&gt;Node10 -->
<g id="edge19" class="edge"><title>Node15&#45;&gt;Node10</title>
<path fill="none" stroke="midnightblue" d="M938.753,-526.075C940.956,-499.945 947.428,-423.211 950.433,-387.577"/>
<polygon fill="midnightblue" stroke="midnightblue" points="953.925,-387.827 951.277,-377.568 946.949,-387.239 953.925,-387.827"/>
</g>
<!-- Node16 -->
<g id="node17" class="node"><title>Node16</title>
<g id="a_node17"><a xlink:href="api_2spec_2event_8h.html" target="_top" xlink:title="ODP event. ">
<polygon fill="white" stroke="black" points="598,-470.5 598,-489.5 714,-489.5 714,-470.5 598,-470.5"/>
<text text-anchor="middle" x="656" y="-477.5" font-family="Helvetica,sans-Serif" font-size="10.00">odp/api/spec/event.h</text>
</a>
</g>
</g>
<!-- Node15&#45;&gt;Node16 -->
<g id="edge20" class="edge"><title>Node15&#45;&gt;Node16</title>
<path fill="none" stroke="midnightblue" d="M893.316,-526.444C843.71,-516.944 763.635,-501.611 710.415,-491.42"/>
<polygon fill="midnightblue" stroke="midnightblue" points="710.955,-487.96 700.475,-489.516 709.638,-494.835 710.955,-487.96"/>
</g>
<!-- Node16&#45;&gt;Node4 -->
<g id="edge21" class="edge"><title>Node16&#45;&gt;Node4</title>
<path fill="none" stroke="midnightblue" d="M714.143,-478.195C869.579,-472.676 1283,-434.498 1283,-184.5 1283,-184.5 1283,-184.5 1283,-121 1283,-66.241 1218.58,-36.6847 1171.49,-22.3953"/>
<polygon fill="midnightblue" stroke="midnightblue" points="1172.31,-18.99 1161.73,-19.5742 1170.37,-25.7145 1172.31,-18.99"/>
</g>
<!-- Node16&#45;&gt;Node9 -->
<g id="edge38" class="edge"><title>Node16&#45;&gt;Node9</title>
<path fill="none" stroke="midnightblue" d="M597.994,-479.132C517.632,-476.162 372.567,-458.957 286,-378 224.508,-320.493 237.971,-282.025 224,-199 217.583,-160.869 206.671,-146.566 224,-112 242.644,-74.8116 260.699,-72.2351 299,-56 368.537,-26.5247 455.378,-16.2361 513.32,-12.7114"/>
<polygon fill="midnightblue" stroke="midnightblue" points="513.645,-16.1988 523.434,-12.147 513.255,-9.20971 513.645,-16.1988"/>
</g>
<!-- Node17 -->
<g id="node18" class="node"><title>Node17</title>
<g id="a_node18"><a xlink:href="api_2packet_8h.html" target="_top" xlink:title="ODP packet descriptor. ">
<polygon fill="white" stroke="black" points="565,-414.5 565,-433.5 661,-433.5 661,-414.5 565,-414.5"/>
<text text-anchor="middle" x="613" y="-421.5" font-family="Helvetica,sans-Serif" font-size="10.00">odp/api/packet.h</text>
</a>
</g>
</g>
<!-- Node16&#45;&gt;Node17 -->
<g id="edge22" class="edge"><title>Node16&#45;&gt;Node17</title>
<path fill="none" stroke="midnightblue" d="M648.899,-470.083C642.763,-462.377 633.73,-451.033 626.261,-441.653"/>
<polygon fill="midnightblue" stroke="midnightblue" points="628.936,-439.394 619.968,-433.751 623.46,-443.754 628.936,-439.394"/>
</g>
<!-- Node17&#45;&gt;Node1 -->
<g id="edge23" class="edge"><title>Node17&#45;&gt;Node1</title>
<path fill="none" stroke="midnightblue" d="M564.795,-420.178C533.71,-415.711 494.942,-404.701 472,-378 444.487,-345.979 445.473,-292.803 448.347,-264.713"/>
<polygon fill="midnightblue" stroke="midnightblue" points="451.838,-265.002 449.573,-254.652 444.889,-264.156 451.838,-265.002"/>
</g>
<!-- Node17&#45;&gt;Node10 -->
<g id="edge24" class="edge"><title>Node17&#45;&gt;Node10</title>
<path fill="none" stroke="midnightblue" d="M661.21,-415.32C720.726,-405.84 822.136,-389.686 888.093,-379.18"/>
<polygon fill="midnightblue" stroke="midnightblue" points="889.038,-382.574 898.363,-377.544 887.937,-375.661 889.038,-382.574"/>
</g>
<!-- Node17&#45;&gt;Node12 -->
<g id="edge27" class="edge"><title>Node17&#45;&gt;Node12</title>
<path fill="none" stroke="midnightblue" d="M564.561,-418.065C468.634,-408.291 254.503,-386.474 147.066,-375.527"/>
<polygon fill="midnightblue" stroke="midnightblue" points="147.313,-372.035 137.009,-374.503 146.603,-378.999 147.313,-372.035"/>
</g>
<!-- Node17&#45;&gt;Node13 -->
<g id="edge28" class="edge"><title>Node17&#45;&gt;Node13</title>
<path fill="none" stroke="midnightblue" d="M570.693,-414.444C523.92,-404.984 448.54,-389.738 398.15,-379.547"/>
<polygon fill="midnightblue" stroke="midnightblue" points="398.604,-376.068 388.109,-377.516 397.217,-382.929 398.604,-376.068"/>
</g>
<!-- Node18 -->
<g id="node19" class="node"><title>Node18</title>
<polygon fill="white" stroke="#bfbfbf" points="621.5,-358.5 621.5,-377.5 748.5,-377.5 748.5,-358.5 621.5,-358.5"/>
<text text-anchor="middle" x="685" y="-365.5" font-family="Helvetica,sans-Serif" font-size="10.00">odp/api/abi/packet_io.h</text>
</g>
<!-- Node17&#45;&gt;Node18 -->
<g id="edge25" class="edge"><title>Node17&#45;&gt;Node18</title>
<path fill="none" stroke="midnightblue" d="M624.568,-414.324C635.42,-406.185 651.881,-393.839 664.883,-384.087"/>
<polygon fill="midnightblue" stroke="midnightblue" points="667.321,-386.634 673.221,-377.834 663.121,-381.034 667.321,-386.634"/>
</g>
<!-- Node19 -->
<g id="node20" class="node"><title>Node19</title>
<polygon fill="white" stroke="#bfbfbf" points="766.5,-358.5 766.5,-377.5 879.5,-377.5 879.5,-358.5 766.5,-358.5"/>
<text text-anchor="middle" x="823" y="-365.5" font-family="Helvetica,sans-Serif" font-size="10.00">odp/api/abi/packet.h</text>
</g>
<!-- Node17&#45;&gt;Node19 -->
<g id="edge26" class="edge"><title>Node17&#45;&gt;Node19</title>
<path fill="none" stroke="midnightblue" d="M646.275,-414.444C682.448,-405.142 740.377,-390.246 779.981,-380.062"/>
<polygon fill="midnightblue" stroke="midnightblue" points="781.067,-383.397 789.881,-377.516 779.324,-376.617 781.067,-383.397"/>
</g>
<!-- Node20 -->
<g id="node21" class="node"><title>Node20</title>
<g id="a_node21"><a xlink:href="api_2spec_2packet_8h.html" target="_top" xlink:title="ODP packet descriptor. ">
<polygon fill="white" stroke="black" points="481,-358.5 481,-377.5 603,-377.5 603,-358.5 481,-358.5"/>
<text text-anchor="middle" x="542" y="-365.5" font-family="Helvetica,sans-Serif" font-size="10.00">odp/api/spec/packet.h</text>
</a>
</g>
</g>
<!-- Node17&#45;&gt;Node20 -->
<g id="edge29" class="edge"><title>Node17&#45;&gt;Node20</title>
<path fill="none" stroke="midnightblue" d="M601.593,-414.324C590.891,-406.185 574.659,-393.839 561.837,-384.087"/>
<polygon fill="midnightblue" stroke="midnightblue" points="563.693,-381.102 553.615,-377.834 559.456,-386.673 563.693,-381.102"/>
</g>
<!-- Node20&#45;&gt;Node4 -->
<g id="edge30" class="edge"><title>Node20&#45;&gt;Node4</title>
<path fill="none" stroke="midnightblue" d="M571.888,-358.493C598.484,-350.477 638.145,-337.414 671,-322 752.944,-283.557 936.842,-147.74 1020,-112 1075.08,-88.3271 1113.7,-123.715 1150,-76 1161.15,-61.342 1149.81,-41.4133 1138.6,-27.5009"/>
<polygon fill="midnightblue" stroke="midnightblue" points="1141.04,-24.9707 1131.84,-19.7168 1135.76,-29.5614 1141.04,-24.9707"/>
</g>
<!-- Node20&#45;&gt;Node9 -->
<g id="edge37" class="edge"><title>Node20&#45;&gt;Node9</title>
<path fill="none" stroke="midnightblue" d="M542.537,-358.396C544.02,-330.253 546.681,-238.686 524,-168 507.116,-115.381 439.423,-102.031 470,-56 480.775,-39.779 498.662,-29.3921 516.755,-22.7461"/>
<polygon fill="midnightblue" stroke="midnightblue" points="518.104,-25.9864 526.491,-19.5132 515.898,-19.3431 518.104,-25.9864"/>
</g>
<!-- Node21 -->
<g id="node22" class="node"><title>Node21</title>
<g id="a_node22"><a xlink:href="api_2time_8h.html" target="_top" xlink:title="ODP time. ">
<polygon fill="white" stroke="black" points="576,-297 576,-316 662,-316 662,-297 576,-297"/>
<text text-anchor="middle" x="619" y="-304" font-family="Helvetica,sans-Serif" font-size="10.00">odp/api/time.h</text>
</a>
</g>
</g>
<!-- Node20&#45;&gt;Node21 -->
<g id="edge31" class="edge"><title>Node20&#45;&gt;Node21</title>
<path fill="none" stroke="midnightblue" d="M553.032,-358.475C565.268,-349.02 585.229,-333.596 599.993,-322.187"/>
<polygon fill="midnightblue" stroke="midnightblue" points="602.215,-324.893 607.988,-316.009 597.935,-319.354 602.215,-324.893"/>
</g>
<!-- Node21&#45;&gt;Node1 -->
<g id="edge32" class="edge"><title>Node21&#45;&gt;Node1</title>
<path fill="none" stroke="midnightblue" d="M594.93,-296.975C565.987,-286.725 517.238,-269.459 484.598,-257.899"/>
<polygon fill="midnightblue" stroke="midnightblue" points="485.62,-254.548 475.026,-254.509 483.283,-261.147 485.62,-254.548"/>
</g>
<!-- Node22 -->
<g id="node23" class="node"><title>Node22</title>
<polygon fill="white" stroke="#bfbfbf" points="571.5,-235.5 571.5,-254.5 674.5,-254.5 674.5,-235.5 571.5,-235.5"/>
<text text-anchor="middle" x="623" y="-242.5" font-family="Helvetica,sans-Serif" font-size="10.00">odp/api/abi/time.h</text>
</g>
<!-- Node21&#45;&gt;Node22 -->
<g id="edge33" class="edge"><title>Node21&#45;&gt;Node22</title>
<path fill="none" stroke="midnightblue" d="M619.573,-296.975C620.137,-288.58 621.018,-275.481 621.745,-264.663"/>
<polygon fill="midnightblue" stroke="midnightblue" points="625.249,-264.721 622.428,-254.509 618.265,-264.252 625.249,-264.721"/>
</g>
<!-- Node23 -->
<g id="node24" class="node"><title>Node23</title>
<g id="a_node24"><a xlink:href="api_2spec_2time_8h.html" target="_top" xlink:title="ODP time. ">
<polygon fill="white" stroke="black" points="647.5,-56.5 647.5,-75.5 758.5,-75.5 758.5,-56.5 647.5,-56.5"/>
<text text-anchor="middle" x="703" y="-63.5" font-family="Helvetica,sans-Serif" font-size="10.00">odp/api/spec/time.h</text>
</a>
</g>
</g>
<!-- Node21&#45;&gt;Node23 -->
<g id="edge34" class="edge"><title>Node21&#45;&gt;Node23</title>
<path fill="none" stroke="midnightblue" d="M636.368,-296.926C651.446,-288.481 672.467,-274.082 683,-255 713.497,-199.751 709.466,-121.447 705.569,-85.8824"/>
<polygon fill="midnightblue" stroke="midnightblue" points="708.994,-85.0544 704.303,-75.5548 702.046,-85.9065 708.994,-85.0544"/>
</g>
<!-- Node23&#45;&gt;Node4 -->
<g id="edge35" class="edge"><title>Node23&#45;&gt;Node4</title>
<path fill="none" stroke="midnightblue" d="M758.773,-57.8292C835.352,-47.9834 972.912,-30.297 1055.3,-19.7045"/>
<polygon fill="midnightblue" stroke="midnightblue" points="1055.84,-23.1639 1065.31,-18.4172 1054.95,-16.2211 1055.84,-23.1639"/>
</g>
<!-- Node23&#45;&gt;Node9 -->
<g id="edge36" class="edge"><title>Node23&#45;&gt;Node9</title>
<path fill="none" stroke="midnightblue" d="M683.035,-56.4435C662.391,-47.5961 629.937,-33.6875 606.368,-23.5865"/>
<polygon fill="midnightblue" stroke="midnightblue" points="607.442,-20.2387 596.872,-19.5164 604.684,-26.6727 607.442,-20.2387"/>
</g>
<!-- Node24&#45;&gt;Node4 -->
<g id="edge40" class="edge"><title>Node24&#45;&gt;Node4</title>
<path fill="none" stroke="midnightblue" d="M1089.16,-298.066C1151.68,-286.178 1245,-256.393 1245,-184.5 1245,-184.5 1245,-184.5 1245,-121 1245,-72.5682 1191.31,-39.986 1155.17,-23.5381"/>
<polygon fill="midnightblue" stroke="midnightblue" points="1156.51,-20.3069 1145.95,-19.5154 1153.71,-26.7227 1156.51,-20.3069"/>
</g>
<!-- Node24&#45;&gt;Node9 -->
<g id="edge54" class="edge"><title>Node24&#45;&gt;Node9</title>
<path fill="none" stroke="midnightblue" d="M978.827,-301.131C933.066,-295.585 867.552,-283.08 817,-255 709.828,-195.471 619.513,-73.404 588.497,-28.2725"/>
<polygon fill="midnightblue" stroke="midnightblue" points="591.303,-26.1732 582.794,-19.8598 585.509,-30.1011 591.303,-26.1732"/>
</g>
<!-- Node25 -->
<g id="node26" class="node"><title>Node25</title>
<g id="a_node26"><a xlink:href="api_2schedule__types_8h.html" target="_top" xlink:title="ODP schedule. ">
<polygon fill="white" stroke="black" points="965,-235.5 965,-254.5 1103,-254.5 1103,-235.5 965,-235.5"/>
<text text-anchor="middle" x="1034" y="-242.5" font-family="Helvetica,sans-Serif" font-size="10.00">odp/api/schedule_types.h</text>
</a>
</g>
</g>
<!-- Node24&#45;&gt;Node25 -->
<g id="edge41" class="edge"><title>Node24&#45;&gt;Node25</title>
<path fill="none" stroke="midnightblue" d="M1034,-291.399C1034,-283.466 1034,-273.458 1034,-264.858"/>
<polygon fill="midnightblue" stroke="midnightblue" points="1037.5,-264.658 1034,-254.658 1030.5,-264.658 1037.5,-264.658"/>
</g>
<!-- Node30 -->
<g id="node31" class="node"><title>Node30</title>
<g id="a_node31"><a xlink:href="deprecated_8h.html" target="_top" xlink:title="Control deprecated API definitions. ">
<polygon fill="white" stroke="black" points="826.5,-235.5 826.5,-254.5 945.5,-254.5 945.5,-235.5 826.5,-235.5"/>
<text text-anchor="middle" x="886" y="-242.5" font-family="Helvetica,sans-Serif" font-size="10.00">odp/api/deprecated.h</text>
</a>
</g>
</g>
<!-- Node24&#45;&gt;Node30 -->
<g id="edge50" class="edge"><title>Node24&#45;&gt;Node30</title>
<path fill="none" stroke="midnightblue" d="M998.926,-291.399C973.983,-281.372 940.792,-268.028 916.856,-258.405"/>
<polygon fill="midnightblue" stroke="midnightblue" points="918.119,-255.141 907.535,-254.658 915.508,-261.635 918.119,-255.141"/>
</g>
<!-- Node26 -->
<g id="node27" class="node"><title>Node26</title>
<polygon fill="white" stroke="#bfbfbf" points="1101.5,-168.5 1101.5,-198.5 1216.5,-198.5 1216.5,-168.5 1101.5,-168.5"/>
<text text-anchor="start" x="1109.5" y="-186.5" font-family="Helvetica,sans-Serif" font-size="10.00">odp/api/abi/schedule</text>
<text text-anchor="middle" x="1159" y="-175.5" font-family="Helvetica,sans-Serif" font-size="10.00">_types.h</text>
</g>
<!-- Node25&#45;&gt;Node26 -->
<g id="edge42" class="edge"><title>Node25&#45;&gt;Node26</title>
<path fill="none" stroke="midnightblue" d="M1051.91,-235.475C1069.71,-227.002 1097.58,-213.737 1120.42,-202.863"/>
<polygon fill="midnightblue" stroke="midnightblue" points="1122.01,-205.981 1129.54,-198.523 1119.01,-199.661 1122.01,-205.981"/>
</g>
<!-- Node27 -->
<g id="node28" class="node"><title>Node27</title>
<g id="a_node28"><a xlink:href="api_2spec_2schedule__types_8h.html" target="_top" xlink:title="ODP schedule types. ">
<polygon fill="white" stroke="black" points="960.5,-168.5 960.5,-198.5 1083.5,-198.5 1083.5,-168.5 960.5,-168.5"/>
<text text-anchor="start" x="968.5" y="-186.5" font-family="Helvetica,sans-Serif" font-size="10.00">odp/api/spec/schedule</text>
<text text-anchor="middle" x="1022" y="-175.5" font-family="Helvetica,sans-Serif" font-size="10.00">_types.h</text>
</a>
</g>
</g>
<!-- Node25&#45;&gt;Node27 -->
<g id="edge43" class="edge"><title>Node25&#45;&gt;Node27</title>
<path fill="none" stroke="midnightblue" d="M1032.28,-235.475C1030.85,-228.396 1028.75,-217.97 1026.82,-208.39"/>
<polygon fill="midnightblue" stroke="midnightblue" points="1030.24,-207.634 1024.83,-198.523 1023.37,-209.018 1030.24,-207.634"/>
</g>
<!-- Node27&#45;&gt;Node4 -->
<g id="edge44" class="edge"><title>Node27&#45;&gt;Node4</title>
<path fill="none" stroke="midnightblue" d="M1070.28,-168.481C1111.29,-153.408 1166.13,-124.776 1183,-76 1185.91,-67.5994 1186.98,-63.9505 1183,-56 1176.27,-42.5432 1163.39,-32.0665 1151.29,-24.6212"/>
<polygon fill="midnightblue" stroke="midnightblue" points="1152.72,-21.4101 1142.3,-19.5195 1149.27,-27.4985 1152.72,-21.4101"/>
</g>
<!-- Node27&#45;&gt;Node9 -->
<g id="edge49" class="edge"><title>Node27&#45;&gt;Node9</title>
<path fill="none" stroke="midnightblue" d="M992.93,-168.347C951.384,-148.08 872.675,-109.531 806,-76 788.597,-67.2481 785.277,-62.7381 767,-56 724.81,-40.4462 675.331,-28.9292 637.443,-21.4416"/>
<polygon fill="midnightblue" stroke="midnightblue" points="638.06,-17.9961 627.577,-19.5308 636.729,-24.8684 638.06,-17.9961"/>
</g>
<!-- Node28 -->
<g id="node29" class="node"><title>Node28</title>
<g id="a_node29"><a xlink:href="support_8h.html" target="_top" xlink:title="ODP support API &#45; platform specific header. ">
<polygon fill="white" stroke="black" points="1028.5,-112.5 1028.5,-131.5 1129.5,-131.5 1129.5,-112.5 1028.5,-112.5"/>
<text text-anchor="middle" x="1079" y="-119.5" font-family="Helvetica,sans-Serif" font-size="10.00">odp/api/support.h</text>
</a>
</g>
</g>
<!-- Node27&#45;&gt;Node28 -->
<g id="edge45" class="edge"><title>Node27&#45;&gt;Node28</title>
<path fill="none" stroke="midnightblue" d="M1035.51,-168.399C1043.96,-159.575 1054.88,-148.183 1063.66,-139.018"/>
<polygon fill="midnightblue" stroke="midnightblue" points="1066.32,-141.3 1070.71,-131.658 1061.26,-136.458 1066.32,-141.3"/>
</g>
<!-- Node29 -->
<g id="node30" class="node"><title>Node29</title>
<g id="a_node30"><a xlink:href="spec_2support_8h.html" target="_top" xlink:title="ODP support API. ">
<polygon fill="white" stroke="black" points="1015,-56.5 1015,-75.5 1141,-75.5 1141,-56.5 1015,-56.5"/>
<text text-anchor="middle" x="1078" y="-63.5" font-family="Helvetica,sans-Serif" font-size="10.00">odp/api/spec/support.h</text>
</a>
</g>
</g>
<!-- Node28&#45;&gt;Node29 -->
<g id="edge46" class="edge"><title>Node28&#45;&gt;Node29</title>
<path fill="none" stroke="midnightblue" d="M1078.83,-112.083C1078.7,-105.006 1078.52,-94.8611 1078.35,-85.9865"/>
<polygon fill="midnightblue" stroke="midnightblue" points="1081.85,-85.6845 1078.16,-75.7511 1074.85,-85.8142 1081.85,-85.6845"/>
</g>
<!-- Node29&#45;&gt;Node4 -->
<g id="edge47" class="edge"><title>Node29&#45;&gt;Node4</title>
<path fill="none" stroke="midnightblue" d="M1085.43,-56.083C1091.85,-48.3768 1101.31,-37.0333 1109.12,-27.6531"/>
<polygon fill="midnightblue" stroke="midnightblue" points="1111.99,-29.674 1115.71,-19.7511 1106.62,-25.1927 1111.99,-29.674"/>
</g>
<!-- Node29&#45;&gt;Node9 -->
<g id="edge48" class="edge"><title>Node29&#45;&gt;Node9</title>
<path fill="none" stroke="midnightblue" d="M1014.8,-58.1882C918.862,-47.8474 737.459,-28.2949 641.028,-17.9013"/>
<polygon fill="midnightblue" stroke="midnightblue" points="641.152,-14.3944 630.834,-16.8025 640.401,-21.354 641.152,-14.3944"/>
</g>
<!-- Node31 -->
<g id="node32" class="node"><title>Node31</title>
<g id="a_node32"><a xlink:href="spec_2deprecated_8h.html" target="_top" xlink:title="Macro for deprecated API definitions. ">
<polygon fill="white" stroke="black" points="815,-56.5 815,-75.5 959,-75.5 959,-56.5 815,-56.5"/>
<text text-anchor="middle" x="887" y="-63.5" font-family="Helvetica,sans-Serif" font-size="10.00">odp/api/spec/deprecated.h</text>
</a>
</g>
</g>
<!-- Node30&#45;&gt;Node31 -->
<g id="edge51" class="edge"><title>Node30&#45;&gt;Node31</title>
<path fill="none" stroke="midnightblue" d="M886.048,-235.463C886.201,-208.428 886.677,-124.239 886.892,-86.109"/>
<polygon fill="midnightblue" stroke="midnightblue" points="890.393,-85.888 886.95,-75.8684 883.393,-85.8484 890.393,-85.888"/>
</g>
<!-- Node31&#45;&gt;Node4 -->
<g id="edge52" class="edge"><title>Node31&#45;&gt;Node4</title>
<path fill="none" stroke="midnightblue" d="M924.395,-56.4435C965.392,-47.0629 1031.25,-31.9926 1075.78,-21.8036"/>
<polygon fill="midnightblue" stroke="midnightblue" points="1076.81,-25.1588 1085.78,-19.5164 1075.25,-18.3352 1076.81,-25.1588"/>
</g>
<!-- Node31&#45;&gt;Node9 -->
<g id="edge53" class="edge"><title>Node31&#45;&gt;Node9</title>
<path fill="none" stroke="midnightblue" d="M837.88,-56.4435C783.121,-46.9049 694.59,-31.4834 636.089,-21.293"/>
<polygon fill="midnightblue" stroke="midnightblue" points="636.343,-17.7845 625.891,-19.5164 635.142,-24.6807 636.343,-17.7845"/>
</g>
</g>
</svg>
