<?xml version="1.0" encoding="UTF-8" standalone="no"?>
<!DOCTYPE svg PUBLIC "-//W3C//DTD SVG 1.1//EN"
 "http://www.w3.org/Graphics/SVG/1.1/DTD/svg11.dtd">
<!-- Generated by graphviz version 2.38.0 (20140413.2041)
 -->
<!-- Title: event.h Pages: 1 -->
<svg width="463pt" height="644pt"
 viewBox="0.00 0.00 463.00 644.00" xmlns="http://www.w3.org/2000/svg" xmlns:xlink="http://www.w3.org/1999/xlink">
<g id="graph0" class="graph" transform="scale(1 1) rotate(0) translate(4 640)">
<title>event.h</title>
<polygon fill="white" stroke="none" points="-4,4 -4,-640 459,-640 459,4 -4,4"/>
<!-- Node20 -->
<g id="node1" class="node"><title>Node20</title>
<polygon fill="#bfbfbf" stroke="black" points="244.5,-616.5 244.5,-635.5 297.5,-635.5 297.5,-616.5 244.5,-616.5"/>
<text text-anchor="middle" x="271" y="-623.5" font-family="Helvetica,sans-Serif" font-size="10.00">event.h</text>
</g>
<!-- Node21 -->
<g id="node2" class="node"><title>Node21</title>
<g id="a_node2"><a xlink:href="api_2event_8h.html" target="_top" xlink:title="ODP event. ">
<polygon fill="white" stroke="black" points="244.5,-560.5 244.5,-579.5 297.5,-579.5 297.5,-560.5 244.5,-560.5"/>
<text text-anchor="middle" x="271" y="-567.5" font-family="Helvetica,sans-Serif" font-size="10.00">event.h</text>
</a>
</g>
</g>
<!-- Node20&#45;&gt;Node21 -->
<g id="edge1" class="edge"><title>Node20&#45;&gt;Node21</title>
<path fill="none" stroke="midnightblue" d="M271,-605.805C271,-596.91 271,-586.78 271,-579.751"/>
<polygon fill="midnightblue" stroke="midnightblue" points="267.5,-606.083 271,-616.083 274.5,-606.083 267.5,-606.083"/>
</g>
<!-- Node22 -->
<g id="node3" class="node"><title>Node22</title>
<g id="a_node3"><a xlink:href="api_2spec_2queue_8h.html" target="_top" xlink:title="ODP queue. ">
<polygon fill="white" stroke="black" points="243,-504.5 243,-523.5 299,-523.5 299,-504.5 243,-504.5"/>
<text text-anchor="middle" x="271" y="-511.5" font-family="Helvetica,sans-Serif" font-size="10.00">queue.h</text>
</a>
</g>
</g>
<!-- Node21&#45;&gt;Node22 -->
<g id="edge2" class="edge"><title>Node21&#45;&gt;Node22</title>
<path fill="none" stroke="midnightblue" d="M271,-549.805C271,-540.91 271,-530.78 271,-523.751"/>
<polygon fill="midnightblue" stroke="midnightblue" points="267.5,-550.083 271,-560.083 274.5,-550.083 267.5,-550.083"/>
</g>
<!-- Node27 -->
<g id="node8" class="node"><title>Node27</title>
<g id="a_node8"><a xlink:href="odp__api_8h.html" target="_top" xlink:title="The OpenDataPlane API. ">
<polygon fill="white" stroke="black" points="172.5,-56.5 172.5,-75.5 235.5,-75.5 235.5,-56.5 172.5,-56.5"/>
<text text-anchor="middle" x="204" y="-63.5" font-family="Helvetica,sans-Serif" font-size="10.00">odp_api.h</text>
</a>
</g>
</g>
<!-- Node21&#45;&gt;Node27 -->
<g id="edge27" class="edge"><title>Node21&#45;&gt;Node27</title>
<path fill="none" stroke="midnightblue" d="M234.165,-562.077C160.067,-547.095 0,-508.951 0,-459 0,-459 0,-459 0,-177 0,-99.7443 114.75,-76.4971 172.125,-69.7021"/>
<polygon fill="midnightblue" stroke="midnightblue" points="233.534,-565.52 244.025,-564.036 234.899,-558.654 233.534,-565.52"/>
</g>
<!-- Node35 -->
<g id="node16" class="node"><title>Node35</title>
<g id="a_node16"><a xlink:href="api_2spec_2schedule_8h.html" target="_top" xlink:title="ODP schedule. ">
<polygon fill="white" stroke="black" points="386,-392.5 386,-411.5 454,-411.5 454,-392.5 386,-392.5"/>
<text text-anchor="middle" x="420" y="-399.5" font-family="Helvetica,sans-Serif" font-size="10.00">schedule.h</text>
</a>
</g>
</g>
<!-- Node21&#45;&gt;Node35 -->
<g id="edge26" class="edge"><title>Node21&#45;&gt;Node35</title>
<path fill="none" stroke="midnightblue" d="M286.071,-552.21C317.438,-517.264 388.776,-437.787 412.309,-411.568"/>
<polygon fill="midnightblue" stroke="midnightblue" points="283.086,-550.295 279.011,-560.075 288.295,-554.971 283.086,-550.295"/>
</g>
<!-- Node23 -->
<g id="node4" class="node"><title>Node23</title>
<g id="a_node4"><a xlink:href="api_2queue_8h.html" target="_top" xlink:title="ODP queue. ">
<polygon fill="white" stroke="black" points="243,-448.5 243,-467.5 299,-467.5 299,-448.5 243,-448.5"/>
<text text-anchor="middle" x="271" y="-455.5" font-family="Helvetica,sans-Serif" font-size="10.00">queue.h</text>
</a>
</g>
</g>
<!-- Node22&#45;&gt;Node23 -->
<g id="edge3" class="edge"><title>Node22&#45;&gt;Node23</title>
<path fill="none" stroke="midnightblue" d="M271,-493.805C271,-484.91 271,-474.78 271,-467.751"/>
<polygon fill="midnightblue" stroke="midnightblue" points="267.5,-494.083 271,-504.083 274.5,-494.083 267.5,-494.083"/>
</g>
<!-- Node24 -->
<g id="node5" class="node"><title>Node24</title>
<g id="a_node5"><a xlink:href="api_2crypto_8h.html" target="_top" xlink:title="ODP crypto. ">
<polygon fill="white" stroke="black" points="348,-224.5 348,-243.5 404,-243.5 404,-224.5 348,-224.5"/>
<text text-anchor="middle" x="376" y="-231.5" font-family="Helvetica,sans-Serif" font-size="10.00">crypto.h</text>
</a>
</g>
</g>
<!-- Node23&#45;&gt;Node24 -->
<g id="edge4" class="edge"><title>Node23&#45;&gt;Node24</title>
<path fill="none" stroke="midnightblue" d="M279.439,-439.157C300.741,-394.119 356.105,-277.063 371.798,-243.884"/>
<polygon fill="midnightblue" stroke="midnightblue" points="276.228,-437.761 275.116,-448.297 282.556,-440.754 276.228,-437.761"/>
</g>
<!-- Node23&#45;&gt;Node27 -->
<g id="edge25" class="edge"><title>Node23&#45;&gt;Node27</title>
<path fill="none" stroke="midnightblue" d="M232.857,-455.805C166.777,-451.482 38,-432.135 38,-347 38,-347 38,-347 38,-177 38,-113.214 124.223,-84.2339 172.386,-73.0218"/>
<polygon fill="midnightblue" stroke="midnightblue" points="232.712,-459.302 242.895,-456.378 233.11,-452.314 232.712,-459.302"/>
</g>
<!-- Node29 -->
<g id="node10" class="node"><title>Node29</title>
<g id="a_node10"><a xlink:href="api_2spec_2packet__io_8h.html" target="_top" xlink:title="ODP Packet IO. ">
<polygon fill="white" stroke="black" points="198.5,-392.5 198.5,-411.5 269.5,-411.5 269.5,-392.5 198.5,-392.5"/>
<text text-anchor="middle" x="234" y="-399.5" font-family="Helvetica,sans-Serif" font-size="10.00">packet_io.h</text>
</a>
</g>
</g>
<!-- Node23&#45;&gt;Node29 -->
<g id="edge10" class="edge"><title>Node23&#45;&gt;Node29</title>
<path fill="none" stroke="midnightblue" d="M259.054,-439.566C252.688,-430.275 245.133,-419.248 239.996,-411.751"/>
<polygon fill="midnightblue" stroke="midnightblue" points="256.351,-441.812 264.89,-448.083 262.125,-437.855 256.351,-441.812"/>
</g>
<!-- Node23&#45;&gt;Node35 -->
<g id="edge22" class="edge"><title>Node23&#45;&gt;Node35</title>
<path fill="none" stroke="midnightblue" d="M304.371,-444.906C332.384,-434.754 371.696,-420.506 396.501,-411.516"/>
<polygon fill="midnightblue" stroke="midnightblue" points="302.819,-441.746 294.609,-448.444 305.204,-448.327 302.819,-441.746"/>
</g>
<!-- Node25 -->
<g id="node6" class="node"><title>Node25</title>
<g id="a_node6"><a xlink:href="api_2spec_2ipsec_8h.html" target="_top" xlink:title="ODP IPSEC API. ">
<polygon fill="white" stroke="black" points="206,-168.5 206,-187.5 256,-187.5 256,-168.5 206,-168.5"/>
<text text-anchor="middle" x="231" y="-175.5" font-family="Helvetica,sans-Serif" font-size="10.00">ipsec.h</text>
</a>
</g>
</g>
<!-- Node24&#45;&gt;Node25 -->
<g id="edge5" class="edge"><title>Node24&#45;&gt;Node25</title>
<path fill="none" stroke="midnightblue" d="M343.525,-220.906C316.264,-210.754 278.008,-196.506 253.868,-187.516"/>
<polygon fill="midnightblue" stroke="midnightblue" points="342.432,-224.233 353.024,-224.444 344.875,-217.674 342.432,-224.233"/>
</g>
<!-- Node24&#45;&gt;Node27 -->
<g id="edge9" class="edge"><title>Node24&#45;&gt;Node27</title>
<path fill="none" stroke="midnightblue" d="M365.984,-215.627C350.783,-190.394 319.838,-143.214 284,-112 265.855,-96.1961 241.282,-83.3796 224.177,-75.5248"/>
<polygon fill="midnightblue" stroke="midnightblue" points="363.081,-217.596 371.179,-224.427 369.109,-214.037 363.081,-217.596"/>
</g>
<!-- Node26 -->
<g id="node7" class="node"><title>Node26</title>
<g id="a_node7"><a xlink:href="api_2ipsec_8h.html" target="_top" xlink:title="ODP IPSEC API &#45; platform specific header. ">
<polygon fill="white" stroke="black" points="206,-112.5 206,-131.5 256,-131.5 256,-112.5 206,-112.5"/>
<text text-anchor="middle" x="231" y="-119.5" font-family="Helvetica,sans-Serif" font-size="10.00">ipsec.h</text>
</a>
</g>
</g>
<!-- Node25&#45;&gt;Node26 -->
<g id="edge6" class="edge"><title>Node25&#45;&gt;Node26</title>
<path fill="none" stroke="midnightblue" d="M231,-157.805C231,-148.91 231,-138.78 231,-131.751"/>
<polygon fill="midnightblue" stroke="midnightblue" points="227.5,-158.083 231,-168.083 234.5,-158.083 227.5,-158.083"/>
</g>
<!-- Node26&#45;&gt;Node27 -->
<g id="edge7" class="edge"><title>Node26&#45;&gt;Node27</title>
<path fill="none" stroke="midnightblue" d="M221.991,-102.983C217.408,-93.8168 212.046,-83.0922 208.376,-75.7511"/>
<polygon fill="midnightblue" stroke="midnightblue" points="218.939,-104.704 226.541,-112.083 225.2,-101.573 218.939,-104.704"/>
</g>
<!-- Node28 -->
<g id="node9" class="node"><title>Node28</title>
<g id="a_node9"><a xlink:href="odp_8h.html" target="_top" xlink:title="WARNING: THIS FILE IS DEPRECATED AND WILL BE REMOVED!!! ODP APPLICATIONS SHOULD NOW INCLUDE odp_api...">
<polygon fill="white" stroke="black" points="182,-0.5 182,-19.5 226,-19.5 226,-0.5 182,-0.5"/>
<text text-anchor="middle" x="204" y="-7.5" font-family="Helvetica,sans-Serif" font-size="10.00">odp.h</text>
</a>
</g>
</g>
<!-- Node27&#45;&gt;Node28 -->
<g id="edge8" class="edge"><title>Node27&#45;&gt;Node28</title>
<path fill="none" stroke="midnightblue" d="M204,-45.8045C204,-36.9102 204,-26.7798 204,-19.7511"/>
<polygon fill="midnightblue" stroke="midnightblue" points="200.5,-46.083 204,-56.083 207.5,-46.083 200.5,-46.083"/>
</g>
<!-- Node30 -->
<g id="node11" class="node"><title>Node30</title>
<g id="a_node11"><a xlink:href="api_2packet__io_8h.html" target="_top" xlink:title="ODP Packet IO. ">
<polygon fill="white" stroke="black" points="180.5,-336.5 180.5,-355.5 251.5,-355.5 251.5,-336.5 180.5,-336.5"/>
<text text-anchor="middle" x="216" y="-343.5" font-family="Helvetica,sans-Serif" font-size="10.00">packet_io.h</text>
</a>
</g>
</g>
<!-- Node29&#45;&gt;Node30 -->
<g id="edge11" class="edge"><title>Node29&#45;&gt;Node30</title>
<path fill="none" stroke="midnightblue" d="M227.799,-382.396C224.787,-373.362 221.312,-362.936 218.917,-355.751"/>
<polygon fill="midnightblue" stroke="midnightblue" points="224.545,-383.703 231.028,-392.083 231.186,-381.489 224.545,-383.703"/>
</g>
<!-- Node30&#45;&gt;Node25 -->
<g id="edge16" class="edge"><title>Node30&#45;&gt;Node25</title>
<path fill="none" stroke="midnightblue" d="M217.723,-325.93C220.977,-289.92 227.907,-213.231 230.226,-187.568"/>
<polygon fill="midnightblue" stroke="midnightblue" points="214.221,-325.801 216.806,-336.075 221.192,-326.431 214.221,-325.801"/>
</g>
<!-- Node30&#45;&gt;Node27 -->
<g id="edge21" class="edge"><title>Node30&#45;&gt;Node27</title>
<path fill="none" stroke="midnightblue" d="M205.857,-327.429C194.6,-306.236 178,-269.187 178,-235 178,-235 178,-235 178,-177 178,-138.342 193.397,-94.0414 200.494,-75.675"/>
<polygon fill="midnightblue" stroke="midnightblue" points="202.819,-329.168 210.716,-336.231 208.947,-325.785 202.819,-329.168"/>
</g>
<!-- Node31 -->
<g id="node12" class="node"><title>Node31</title>
<g id="a_node12"><a xlink:href="api_2spec_2classification_8h.html" target="_top" xlink:title="ODP classification descriptor. ">
<polygon fill="white" stroke="black" points="244,-280.5 244,-299.5 330,-299.5 330,-280.5 244,-280.5"/>
<text text-anchor="middle" x="287" y="-287.5" font-family="Helvetica,sans-Serif" font-size="10.00">classification.h</text>
</a>
</g>
</g>
<!-- Node30&#45;&gt;Node31 -->
<g id="edge12" class="edge"><title>Node30&#45;&gt;Node31</title>
<path fill="none" stroke="midnightblue" d="M235.59,-330.101C248.368,-320.382 264.613,-308.027 275.385,-299.834"/>
<polygon fill="midnightblue" stroke="midnightblue" points="233.248,-327.484 227.407,-336.324 237.486,-333.056 233.248,-327.484"/>
</g>
<!-- Node33 -->
<g id="node14" class="node"><title>Node33</title>
<g id="a_node14"><a xlink:href="api_2spec_2traffic__mngr_8h.html" target="_top" xlink:title="Copyright (c) 2015&#45;2018, Linaro Limited All rights reserved. ">
<polygon fill="white" stroke="black" points="66.5,-280.5 66.5,-299.5 149.5,-299.5 149.5,-280.5 66.5,-280.5"/>
<text text-anchor="middle" x="108" y="-287.5" font-family="Helvetica,sans-Serif" font-size="10.00">traffic_mngr.h</text>
</a>
</g>
</g>
<!-- Node30&#45;&gt;Node33 -->
<g id="edge17" class="edge"><title>Node30&#45;&gt;Node33</title>
<path fill="none" stroke="midnightblue" d="M189.452,-331.726C169.454,-321.727 142.613,-308.307 125.309,-299.655"/>
<polygon fill="midnightblue" stroke="midnightblue" points="188.138,-334.982 198.648,-336.324 191.269,-328.721 188.138,-334.982"/>
</g>
<!-- Node32 -->
<g id="node13" class="node"><title>Node32</title>
<g id="a_node13"><a xlink:href="api_2classification_8h.html" target="_top" xlink:title="ODP classification descriptor. ">
<polygon fill="white" stroke="black" points="244,-224.5 244,-243.5 330,-243.5 330,-224.5 244,-224.5"/>
<text text-anchor="middle" x="287" y="-231.5" font-family="Helvetica,sans-Serif" font-size="10.00">classification.h</text>
</a>
</g>
</g>
<!-- Node31&#45;&gt;Node32 -->
<g id="edge13" class="edge"><title>Node31&#45;&gt;Node32</title>
<path fill="none" stroke="midnightblue" d="M287,-269.805C287,-260.91 287,-250.78 287,-243.751"/>
<polygon fill="midnightblue" stroke="midnightblue" points="283.5,-270.083 287,-280.083 290.5,-270.083 283.5,-270.083"/>
</g>
<!-- Node32&#45;&gt;Node25 -->
<g id="edge14" class="edge"><title>Node32&#45;&gt;Node25</title>
<path fill="none" stroke="midnightblue" d="M270.67,-217.253C260.735,-207.673 248.412,-195.791 240.161,-187.834"/>
<polygon fill="midnightblue" stroke="midnightblue" points="268.375,-219.902 278.003,-224.324 273.234,-214.863 268.375,-219.902"/>
</g>
<!-- Node32&#45;&gt;Node27 -->
<g id="edge15" class="edge"><title>Node32&#45;&gt;Node27</title>
<path fill="none" stroke="midnightblue" d="M287.722,-214.295C287.826,-189.141 284.887,-143.895 265,-112 254.764,-95.5842 236.17,-83.1832 222.192,-75.599"/>
<polygon fill="midnightblue" stroke="midnightblue" points="284.223,-214.246 287.51,-224.318 291.221,-214.394 284.223,-214.246"/>
</g>
<!-- Node34 -->
<g id="node15" class="node"><title>Node34</title>
<g id="a_node15"><a xlink:href="api_2traffic__mngr_8h.html" target="_top" xlink:title="ODP Traffic manager. ">
<polygon fill="white" stroke="black" points="66.5,-224.5 66.5,-243.5 149.5,-243.5 149.5,-224.5 66.5,-224.5"/>
<text text-anchor="middle" x="108" y="-231.5" font-family="Helvetica,sans-Serif" font-size="10.00">traffic_mngr.h</text>
</a>
</g>
</g>
<!-- Node33&#45;&gt;Node34 -->
<g id="edge18" class="edge"><title>Node33&#45;&gt;Node34</title>
<path fill="none" stroke="midnightblue" d="M108,-269.805C108,-260.91 108,-250.78 108,-243.751"/>
<polygon fill="midnightblue" stroke="midnightblue" points="104.5,-270.083 108,-280.083 111.5,-270.083 104.5,-270.083"/>
</g>
<!-- Node34&#45;&gt;Node25 -->
<g id="edge19" class="edge"><title>Node34&#45;&gt;Node25</title>
<path fill="none" stroke="midnightblue" d="M136.773,-220.368C159.807,-210.255 191.484,-196.349 211.601,-187.516"/>
<polygon fill="midnightblue" stroke="midnightblue" points="135.239,-217.219 127.49,-224.444 138.053,-223.628 135.239,-217.219"/>
</g>
<!-- Node34&#45;&gt;Node27 -->
<g id="edge20" class="edge"><title>Node34&#45;&gt;Node27</title>
<path fill="none" stroke="midnightblue" d="M114.453,-214.903C123.584,-190.469 141.677,-146.069 164,-112 173.051,-98.1859 186.167,-84.2822 194.882,-75.6615"/>
<polygon fill="midnightblue" stroke="midnightblue" points="111.149,-213.747 111.003,-224.34 117.724,-216.15 111.149,-213.747"/>
</g>
<!-- Node36 -->
<g id="node17" class="node"><title>Node36</title>
<g id="a_node17"><a xlink:href="api_2schedule_8h.html" target="_top" xlink:title="ODP schedule. ">
<polygon fill="white" stroke="black" points="387,-168.5 387,-187.5 455,-187.5 455,-168.5 387,-168.5"/>
<text text-anchor="middle" x="421" y="-175.5" font-family="Helvetica,sans-Serif" font-size="10.00">schedule.h</text>
</a>
</g>
</g>
<!-- Node35&#45;&gt;Node36 -->
<g id="edge23" class="edge"><title>Node35&#45;&gt;Node36</title>
<path fill="none" stroke="midnightblue" d="M420.084,-382.295C420.29,-336.644 420.811,-220.854 420.96,-187.884"/>
<polygon fill="midnightblue" stroke="midnightblue" points="416.584,-382.282 420.039,-392.297 423.584,-382.313 416.584,-382.282"/>
</g>
<!-- Node36&#45;&gt;Node27 -->
<g id="edge24" class="edge"><title>Node36&#45;&gt;Node27</title>
<path fill="none" stroke="midnightblue" d="M406.502,-160.324C392.962,-145.697 371.509,-124.817 349,-112 312.81,-91.3927 266.059,-79.0811 235.568,-72.6749"/>
<polygon fill="midnightblue" stroke="midnightblue" points="404.215,-163.016 413.508,-168.106 409.418,-158.332 404.215,-163.016"/>
</g>
</g>
</svg>
