<?xml version="1.0" encoding="UTF-8" standalone="no"?>
<!DOCTYPE svg PUBLIC "-//W3C//DTD SVG 1.1//EN"
 "http://www.w3.org/Graphics/SVG/1.1/DTD/svg11.dtd">
<!-- Generated by graphviz version 2.38.0 (20140413.2041)
 -->
<!-- Title: align.h Pages: 1 -->
<svg width="2645pt" height="532pt"
 viewBox="0.00 0.00 2644.50 532.00" xmlns="http://www.w3.org/2000/svg" xmlns:xlink="http://www.w3.org/1999/xlink">
<g id="graph0" class="graph" transform="scale(1 1) rotate(0) translate(4 528)">
<title>align.h</title>
<polygon fill="white" stroke="none" points="-4,4 -4,-528 2640.5,-528 2640.5,4 -4,4"/>
<!-- Node3 -->
<g id="node1" class="node"><title>Node3</title>
<polygon fill="#bfbfbf" stroke="black" points="1909.5,-504.5 1909.5,-523.5 1957.5,-523.5 1957.5,-504.5 1909.5,-504.5"/>
<text text-anchor="middle" x="1933.5" y="-511.5" font-family="Helvetica,sans-Serif" font-size="10.00">align.h</text>
</g>
<!-- Node4 -->
<g id="node2" class="node"><title>Node4</title>
<g id="a_node2"><a xlink:href="api_2align_8h.html" target="_top" xlink:title="ODP alignments. ">
<polygon fill="white" stroke="black" points="1909.5,-448.5 1909.5,-467.5 1957.5,-467.5 1957.5,-448.5 1909.5,-448.5"/>
<text text-anchor="middle" x="1933.5" y="-455.5" font-family="Helvetica,sans-Serif" font-size="10.00">align.h</text>
</a>
</g>
</g>
<!-- Node3&#45;&gt;Node4 -->
<g id="edge1" class="edge"><title>Node3&#45;&gt;Node4</title>
<path fill="none" stroke="midnightblue" d="M1933.5,-493.805C1933.5,-484.91 1933.5,-474.78 1933.5,-467.751"/>
<polygon fill="midnightblue" stroke="midnightblue" points="1930,-494.083 1933.5,-504.083 1937,-494.083 1930,-494.083"/>
</g>
<!-- Node5 -->
<g id="node3" class="node"><title>Node5</title>
<g id="a_node3"><a xlink:href="api_2abi-default_2atomic_8h.html" target="_top" xlink:title="ODP atomic operations. ">
<polygon fill="white" stroke="black" points="192,-280.5 192,-299.5 251,-299.5 251,-280.5 192,-280.5"/>
<text text-anchor="middle" x="221.5" y="-287.5" font-family="Helvetica,sans-Serif" font-size="10.00">atomic.h</text>
</a>
</g>
</g>
<!-- Node4&#45;&gt;Node5 -->
<g id="edge2" class="edge"><title>Node4&#45;&gt;Node5</title>
<path fill="none" stroke="midnightblue" d="M1899.12,-455.478C1724.02,-447.374 914.236,-405.623 260.5,-300 257.482,-299.512 254.349,-298.926 251.23,-298.29"/>
<polygon fill="midnightblue" stroke="midnightblue" points="1899.12,-458.982 1909.27,-455.943 1899.45,-451.99 1899.12,-458.982"/>
</g>
<!-- Node23 -->
<g id="node14" class="node"><title>Node23</title>
<g id="a_node14"><a xlink:href="odp__api_8h.html" target="_top" xlink:title="The OpenDataPlane API. ">
<polygon fill="white" stroke="black" points="1700,-56.5 1700,-75.5 1763,-75.5 1763,-56.5 1700,-56.5"/>
<text text-anchor="middle" x="1731.5" y="-63.5" font-family="Helvetica,sans-Serif" font-size="10.00">odp_api.h</text>
</a>
</g>
</g>
<!-- Node4&#45;&gt;Node23 -->
<g id="edge67" class="edge"><title>Node4&#45;&gt;Node23</title>
<path fill="none" stroke="midnightblue" d="M1967.93,-455.295C2109.15,-447.852 2636.5,-415.476 2636.5,-347 2636.5,-347 2636.5,-347 2636.5,-177 2636.5,-87.0804 1923.36,-70.1229 1763.18,-67.4482"/>
<polygon fill="midnightblue" stroke="midnightblue" points="1967.5,-451.812 1957.7,-455.826 1967.87,-458.803 1967.5,-451.812"/>
</g>
<!-- Node52 -->
<g id="node16" class="node"><title>Node52</title>
<g id="a_node16"><a xlink:href="api_2abi-default_2cpumask_8h.html" target="_top" xlink:title="ODP CPU masks and enumeration. ">
<polygon fill="white" stroke="black" points="2191,-280.5 2191,-299.5 2260,-299.5 2260,-280.5 2191,-280.5"/>
<text text-anchor="middle" x="2225.5" y="-287.5" font-family="Helvetica,sans-Serif" font-size="10.00">cpumask.h</text>
</a>
</g>
</g>
<!-- Node4&#45;&gt;Node52 -->
<g id="edge16" class="edge"><title>Node4&#45;&gt;Node52</title>
<path fill="none" stroke="midnightblue" d="M1957.66,-443.265C2015.91,-410.152 2162.78,-326.659 2210.36,-299.605"/>
<polygon fill="midnightblue" stroke="midnightblue" points="1955.75,-440.324 1948.79,-448.309 1959.21,-446.409 1955.75,-440.324"/>
</g>
<!-- Node76 -->
<g id="node26" class="node"><title>Node76</title>
<g id="a_node26"><a xlink:href="api_2spec_2std__types_8h.html" target="_top" xlink:title="Standard C language types and definitions for ODP. ">
<polygon fill="white" stroke="black" points="1768.5,-392.5 1768.5,-411.5 1840.5,-411.5 1840.5,-392.5 1768.5,-392.5"/>
<text text-anchor="middle" x="1804.5" y="-399.5" font-family="Helvetica,sans-Serif" font-size="10.00">std_types.h</text>
</a>
</g>
</g>
<!-- Node4&#45;&gt;Node76 -->
<g id="edge27" class="edge"><title>Node4&#45;&gt;Node76</title>
<path fill="none" stroke="midnightblue" d="M1903.65,-444.503C1879.46,-434.38 1846.04,-420.388 1824.84,-411.516"/>
<polygon fill="midnightblue" stroke="midnightblue" points="1902.48,-447.811 1913.06,-448.444 1905.19,-441.354 1902.48,-447.811"/>
</g>
<!-- Node6 -->
<g id="node4" class="node"><title>Node6</title>
<g id="a_node4"><a xlink:href="arch_2arm32-linux_2odp_2api_2abi_2atomic_8h_source.html" target="_top" xlink:title="atomic.h">
<polygon fill="white" stroke="black" points="462,-224.5 462,-243.5 521,-243.5 521,-224.5 462,-224.5"/>
<text text-anchor="middle" x="491.5" y="-231.5" font-family="Helvetica,sans-Serif" font-size="10.00">atomic.h</text>
</a>
</g>
</g>
<!-- Node5&#45;&gt;Node6 -->
<g id="edge3" class="edge"><title>Node5&#45;&gt;Node6</title>
<path fill="none" stroke="midnightblue" d="M261.217,-279.925C347.158,-262.178 370.587,-261.123 452.5,-244 455.493,-243.374 458.609,-242.698 461.718,-242.007"/>
<polygon fill="midnightblue" stroke="midnightblue" points="260.359,-276.529 251.282,-281.993 261.786,-283.382 260.359,-276.529"/>
</g>
<!-- Node7 -->
<g id="node5" class="node"><title>Node7</title>
<g id="a_node5"><a xlink:href="arch_2arm64-linux_2odp_2api_2abi_2atomic_8h_source.html" target="_top" xlink:title="atomic.h">
<polygon fill="white" stroke="black" points="0,-224.5 0,-243.5 59,-243.5 59,-224.5 0,-224.5"/>
<text text-anchor="middle" x="29.5" y="-231.5" font-family="Helvetica,sans-Serif" font-size="10.00">atomic.h</text>
</a>
</g>
</g>
<!-- Node5&#45;&gt;Node7 -->
<g id="edge4" class="edge"><title>Node5&#45;&gt;Node7</title>
<path fill="none" stroke="midnightblue" d="M182.106,-277.92C145.601,-267.653 92.1065,-252.608 59.1128,-243.329"/>
<polygon fill="midnightblue" stroke="midnightblue" points="181.347,-281.343 191.921,-280.681 183.242,-274.604 181.347,-281.343"/>
</g>
<!-- Node8 -->
<g id="node6" class="node"><title>Node8</title>
<g id="a_node6"><a xlink:href="arch_2default-linux_2odp_2api_2abi_2atomic_8h_source.html" target="_top" xlink:title="atomic.h">
<polygon fill="white" stroke="black" points="154,-224.5 154,-243.5 213,-243.5 213,-224.5 154,-224.5"/>
<text text-anchor="middle" x="183.5" y="-231.5" font-family="Helvetica,sans-Serif" font-size="10.00">atomic.h</text>
</a>
</g>
</g>
<!-- Node5&#45;&gt;Node8 -->
<g id="edge5" class="edge"><title>Node5&#45;&gt;Node8</title>
<path fill="none" stroke="midnightblue" d="M209.435,-271.855C202.855,-262.505 194.989,-251.327 189.658,-243.751"/>
<polygon fill="midnightblue" stroke="midnightblue" points="206.608,-273.919 215.225,-280.083 212.332,-269.891 206.608,-273.919"/>
</g>
<!-- Node9 -->
<g id="node7" class="node"><title>Node9</title>
<g id="a_node7"><a xlink:href="arch_2mips64-linux_2odp_2api_2abi_2atomic_8h_source.html" target="_top" xlink:title="atomic.h">
<polygon fill="white" stroke="black" points="231,-224.5 231,-243.5 290,-243.5 290,-224.5 231,-224.5"/>
<text text-anchor="middle" x="260.5" y="-231.5" font-family="Helvetica,sans-Serif" font-size="10.00">atomic.h</text>
</a>
</g>
</g>
<!-- Node5&#45;&gt;Node9 -->
<g id="edge6" class="edge"><title>Node5&#45;&gt;Node9</title>
<path fill="none" stroke="midnightblue" d="M233.882,-271.855C240.635,-262.505 248.709,-251.327 254.18,-243.751"/>
<polygon fill="midnightblue" stroke="midnightblue" points="230.958,-269.927 227.94,-280.083 236.632,-274.025 230.958,-269.927"/>
</g>
<!-- Node10 -->
<g id="node8" class="node"><title>Node10</title>
<g id="a_node8"><a xlink:href="arch_2power64-linux_2odp_2api_2abi_2atomic_8h_source.html" target="_top" xlink:title="atomic.h">
<polygon fill="white" stroke="black" points="308,-224.5 308,-243.5 367,-243.5 367,-224.5 308,-224.5"/>
<text text-anchor="middle" x="337.5" y="-231.5" font-family="Helvetica,sans-Serif" font-size="10.00">atomic.h</text>
</a>
</g>
</g>
<!-- Node5&#45;&gt;Node10 -->
<g id="edge7" class="edge"><title>Node5&#45;&gt;Node10</title>
<path fill="none" stroke="midnightblue" d="M249.22,-276.096C270.892,-266.007 300.402,-252.27 319.205,-243.516"/>
<polygon fill="midnightblue" stroke="midnightblue" points="247.469,-273.05 239.881,-280.444 250.423,-279.396 247.469,-273.05"/>
</g>
<!-- Node11 -->
<g id="node9" class="node"><title>Node11</title>
<g id="a_node9"><a xlink:href="arch_2x86__32-linux_2odp_2api_2abi_2atomic_8h_source.html" target="_top" xlink:title="atomic.h">
<polygon fill="white" stroke="black" points="385,-224.5 385,-243.5 444,-243.5 444,-224.5 385,-224.5"/>
<text text-anchor="middle" x="414.5" y="-231.5" font-family="Helvetica,sans-Serif" font-size="10.00">atomic.h</text>
</a>
</g>
</g>
<!-- Node5&#45;&gt;Node11 -->
<g id="edge8" class="edge"><title>Node5&#45;&gt;Node11</title>
<path fill="none" stroke="midnightblue" d="M261.099,-277.92C297.795,-267.653 351.567,-252.608 384.733,-243.329"/>
<polygon fill="midnightblue" stroke="midnightblue" points="259.92,-274.616 251.233,-280.681 261.807,-281.357 259.92,-274.616"/>
</g>
<!-- Node12 -->
<g id="node10" class="node"><title>Node12</title>
<g id="a_node10"><a xlink:href="arch_2x86__64-linux_2odp_2api_2abi_2atomic_8h_source.html" target="_top" xlink:title="atomic.h">
<polygon fill="white" stroke="black" points="77,-224.5 77,-243.5 136,-243.5 136,-224.5 77,-224.5"/>
<text text-anchor="middle" x="106.5" y="-231.5" font-family="Helvetica,sans-Serif" font-size="10.00">atomic.h</text>
</a>
</g>
</g>
<!-- Node5&#45;&gt;Node12 -->
<g id="edge9" class="edge"><title>Node5&#45;&gt;Node12</title>
<path fill="none" stroke="midnightblue" d="M194.019,-276.096C172.534,-266.007 143.278,-252.27 124.637,-243.516"/>
<polygon fill="midnightblue" stroke="midnightblue" points="192.738,-279.361 203.278,-280.444 195.714,-273.025 192.738,-279.361"/>
</g>
<!-- Node13 -->
<g id="node11" class="node"><title>Node13</title>
<g id="a_node11"><a xlink:href="api_2atomic_8h.html" target="_top" xlink:title="ODP atomic operations. ">
<polygon fill="white" stroke="red" points="1311,-168.5 1311,-187.5 1370,-187.5 1370,-168.5 1311,-168.5"/>
<text text-anchor="middle" x="1340.5" y="-175.5" font-family="Helvetica,sans-Serif" font-size="10.00">atomic.h</text>
</a>
</g>
</g>
<!-- Node12&#45;&gt;Node13 -->
<g id="edge10" class="edge"><title>Node12&#45;&gt;Node13</title>
<path fill="none" stroke="midnightblue" d="M146.184,-224.062C400.323,-191.696 1152.53,-181.22 1311,-179.33"/>
<polygon fill="midnightblue" stroke="midnightblue" points="145.724,-220.592 136.268,-225.371 146.64,-227.532 145.724,-220.592"/>
</g>
<!-- Node14 -->
<g id="node12" class="node"><title>Node14</title>
<g id="a_node12"><a xlink:href="api_2abi-default_2barrier_8h.html" target="_top" xlink:title="ODP barrier. ">
<polygon fill="white" stroke="red" points="1421.5,-112.5 1421.5,-131.5 1477.5,-131.5 1477.5,-112.5 1421.5,-112.5"/>
<text text-anchor="middle" x="1449.5" y="-119.5" font-family="Helvetica,sans-Serif" font-size="10.00">barrier.h</text>
</a>
</g>
</g>
<!-- Node13&#45;&gt;Node14 -->
<g id="edge11" class="edge"><title>Node13&#45;&gt;Node14</title>
<path fill="none" stroke="midnightblue" d="M1367.02,-163.862C1387.23,-153.849 1414.49,-140.346 1432.03,-131.655"/>
<polygon fill="midnightblue" stroke="midnightblue" points="1365.42,-160.748 1358.01,-168.324 1368.53,-167.021 1365.42,-160.748"/>
</g>
<!-- Node22 -->
<g id="node13" class="node"><title>Node22</title>
<g id="a_node13"><a xlink:href="api_2barrier_8h.html" target="_top" xlink:title="ODP execution barriers. ">
<polygon fill="white" stroke="black" points="1347.5,-112.5 1347.5,-131.5 1403.5,-131.5 1403.5,-112.5 1347.5,-112.5"/>
<text text-anchor="middle" x="1375.5" y="-119.5" font-family="Helvetica,sans-Serif" font-size="10.00">barrier.h</text>
</a>
</g>
</g>
<!-- Node13&#45;&gt;Node22 -->
<g id="edge12" class="edge"><title>Node13&#45;&gt;Node22</title>
<path fill="none" stroke="midnightblue" d="M1351.8,-159.566C1357.82,-150.275 1364.97,-139.248 1369.83,-131.751"/>
<polygon fill="midnightblue" stroke="midnightblue" points="1348.78,-157.788 1346.28,-168.083 1354.66,-161.595 1348.78,-157.788"/>
</g>
<!-- Node13&#45;&gt;Node23 -->
<g id="edge15" class="edge"><title>Node13&#45;&gt;Node23</title>
<path fill="none" stroke="midnightblue" d="M1333.68,-158.308C1329.74,-143.879 1327.48,-124.353 1338.5,-112 1362.44,-85.1587 1610.39,-72.112 1699.68,-68.258"/>
<polygon fill="midnightblue" stroke="midnightblue" points="1330.45,-159.69 1336.83,-168.146 1337.12,-157.555 1330.45,-159.69"/>
</g>
<!-- Node22&#45;&gt;Node23 -->
<g id="edge13" class="edge"><title>Node22&#45;&gt;Node23</title>
<path fill="none" stroke="midnightblue" d="M1413.69,-111.931C1524.14,-91.1184 1643.72,-76.7082 1699.63,-70.4419"/>
<polygon fill="midnightblue" stroke="midnightblue" points="1412.89,-108.521 1403.72,-113.833 1414.2,-115.398 1412.89,-108.521"/>
</g>
<!-- Node24 -->
<g id="node15" class="node"><title>Node24</title>
<g id="a_node15"><a xlink:href="odp_8h.html" target="_top" xlink:title="WARNING: THIS FILE IS DEPRECATED AND WILL BE REMOVED!!! ODP APPLICATIONS SHOULD NOW INCLUDE odp_api...">
<polygon fill="white" stroke="black" points="1709.5,-0.5 1709.5,-19.5 1753.5,-19.5 1753.5,-0.5 1709.5,-0.5"/>
<text text-anchor="middle" x="1731.5" y="-7.5" font-family="Helvetica,sans-Serif" font-size="10.00">odp.h</text>
</a>
</g>
</g>
<!-- Node23&#45;&gt;Node24 -->
<g id="edge14" class="edge"><title>Node23&#45;&gt;Node24</title>
<path fill="none" stroke="midnightblue" d="M1731.5,-45.8045C1731.5,-36.9102 1731.5,-26.7798 1731.5,-19.7511"/>
<polygon fill="midnightblue" stroke="midnightblue" points="1728,-46.083 1731.5,-56.083 1735,-46.083 1728,-46.083"/>
</g>
<!-- Node53 -->
<g id="node17" class="node"><title>Node53</title>
<g id="a_node17"><a xlink:href="arch_2arm32-linux_2odp_2api_2abi_2cpumask_8h_source.html" target="_top" xlink:title="cpumask.h">
<polygon fill="white" stroke="black" points="2452,-224.5 2452,-243.5 2521,-243.5 2521,-224.5 2452,-224.5"/>
<text text-anchor="middle" x="2486.5" y="-231.5" font-family="Helvetica,sans-Serif" font-size="10.00">cpumask.h</text>
</a>
</g>
</g>
<!-- Node52&#45;&gt;Node53 -->
<g id="edge17" class="edge"><title>Node52&#45;&gt;Node53</title>
<path fill="none" stroke="midnightblue" d="M2269.99,-279.796C2321.37,-269.165 2404.82,-251.899 2451.7,-242.2"/>
<polygon fill="midnightblue" stroke="midnightblue" points="2269.24,-276.376 2260.16,-281.829 2270.66,-283.23 2269.24,-276.376"/>
</g>
<!-- Node54 -->
<g id="node18" class="node"><title>Node54</title>
<g id="a_node18"><a xlink:href="arch_2arm64-linux_2odp_2api_2abi_2cpumask_8h_source.html" target="_top" xlink:title="cpumask.h">
<polygon fill="white" stroke="black" points="2539,-224.5 2539,-243.5 2608,-243.5 2608,-224.5 2539,-224.5"/>
<text text-anchor="middle" x="2573.5" y="-231.5" font-family="Helvetica,sans-Serif" font-size="10.00">cpumask.h</text>
</a>
</g>
</g>
<!-- Node52&#45;&gt;Node54 -->
<g id="edge18" class="edge"><title>Node52&#45;&gt;Node54</title>
<path fill="none" stroke="midnightblue" d="M2270.41,-283.135C2329.84,-275.196 2437.8,-260.153 2529.5,-244 2532.57,-243.459 2535.76,-242.867 2538.95,-242.254"/>
<polygon fill="midnightblue" stroke="midnightblue" points="2269.7,-279.699 2260.25,-284.487 2270.62,-286.638 2269.7,-279.699"/>
</g>
<!-- Node55 -->
<g id="node19" class="node"><title>Node55</title>
<g id="a_node19"><a xlink:href="arch_2default-linux_2odp_2api_2abi_2cpumask_8h_source.html" target="_top" xlink:title="cpumask.h">
<polygon fill="white" stroke="black" points="2104,-224.5 2104,-243.5 2173,-243.5 2173,-224.5 2104,-224.5"/>
<text text-anchor="middle" x="2138.5" y="-231.5" font-family="Helvetica,sans-Serif" font-size="10.00">cpumask.h</text>
</a>
</g>
</g>
<!-- Node52&#45;&gt;Node55 -->
<g id="edge19" class="edge"><title>Node52&#45;&gt;Node55</title>
<path fill="none" stroke="midnightblue" d="M2202.78,-274.901C2186.83,-264.999 2166,-252.071 2152.44,-243.655"/>
<polygon fill="midnightblue" stroke="midnightblue" points="2201.18,-278.024 2211.52,-280.324 2204.87,-272.077 2201.18,-278.024"/>
</g>
<!-- Node56 -->
<g id="node20" class="node"><title>Node56</title>
<g id="a_node20"><a xlink:href="arch_2mips64-linux_2odp_2api_2abi_2cpumask_8h_source.html" target="_top" xlink:title="cpumask.h">
<polygon fill="white" stroke="black" points="2191,-224.5 2191,-243.5 2260,-243.5 2260,-224.5 2191,-224.5"/>
<text text-anchor="middle" x="2225.5" y="-231.5" font-family="Helvetica,sans-Serif" font-size="10.00">cpumask.h</text>
</a>
</g>
</g>
<!-- Node52&#45;&gt;Node56 -->
<g id="edge20" class="edge"><title>Node52&#45;&gt;Node56</title>
<path fill="none" stroke="midnightblue" d="M2225.5,-269.805C2225.5,-260.91 2225.5,-250.78 2225.5,-243.751"/>
<polygon fill="midnightblue" stroke="midnightblue" points="2222,-270.083 2225.5,-280.083 2229,-270.083 2222,-270.083"/>
</g>
<!-- Node57 -->
<g id="node21" class="node"><title>Node57</title>
<g id="a_node21"><a xlink:href="arch_2power64-linux_2odp_2api_2abi_2cpumask_8h_source.html" target="_top" xlink:title="cpumask.h">
<polygon fill="white" stroke="black" points="2278,-224.5 2278,-243.5 2347,-243.5 2347,-224.5 2278,-224.5"/>
<text text-anchor="middle" x="2312.5" y="-231.5" font-family="Helvetica,sans-Serif" font-size="10.00">cpumask.h</text>
</a>
</g>
</g>
<!-- Node52&#45;&gt;Node57 -->
<g id="edge21" class="edge"><title>Node52&#45;&gt;Node57</title>
<path fill="none" stroke="midnightblue" d="M2248.22,-274.901C2264.17,-264.999 2285,-252.071 2298.56,-243.655"/>
<polygon fill="midnightblue" stroke="midnightblue" points="2246.13,-272.077 2239.48,-280.324 2249.82,-278.024 2246.13,-272.077"/>
</g>
<!-- Node58 -->
<g id="node22" class="node"><title>Node58</title>
<g id="a_node22"><a xlink:href="arch_2x86__32-linux_2odp_2api_2abi_2cpumask_8h_source.html" target="_top" xlink:title="cpumask.h">
<polygon fill="white" stroke="black" points="2365,-224.5 2365,-243.5 2434,-243.5 2434,-224.5 2365,-224.5"/>
<text text-anchor="middle" x="2399.5" y="-231.5" font-family="Helvetica,sans-Serif" font-size="10.00">cpumask.h</text>
</a>
</g>
</g>
<!-- Node52&#45;&gt;Node58 -->
<g id="edge22" class="edge"><title>Node52&#45;&gt;Node58</title>
<path fill="none" stroke="midnightblue" d="M2262.76,-277.436C2295.57,-267.255 2342.58,-252.664 2372.06,-243.516"/>
<polygon fill="midnightblue" stroke="midnightblue" points="2261.58,-274.137 2253.07,-280.444 2263.66,-280.822 2261.58,-274.137"/>
</g>
<!-- Node59 -->
<g id="node23" class="node"><title>Node59</title>
<g id="a_node23"><a xlink:href="arch_2x86__64-linux_2odp_2api_2abi_2cpumask_8h_source.html" target="_top" xlink:title="cpumask.h">
<polygon fill="white" stroke="black" points="2017,-224.5 2017,-243.5 2086,-243.5 2086,-224.5 2017,-224.5"/>
<text text-anchor="middle" x="2051.5" y="-231.5" font-family="Helvetica,sans-Serif" font-size="10.00">cpumask.h</text>
</a>
</g>
</g>
<!-- Node52&#45;&gt;Node59 -->
<g id="edge23" class="edge"><title>Node52&#45;&gt;Node59</title>
<path fill="none" stroke="midnightblue" d="M2188.24,-277.436C2155.43,-267.255 2108.42,-252.664 2078.94,-243.516"/>
<polygon fill="midnightblue" stroke="midnightblue" points="2187.34,-280.822 2197.93,-280.444 2189.42,-274.137 2187.34,-280.822"/>
</g>
<!-- Node60 -->
<g id="node24" class="node"><title>Node60</title>
<g id="a_node24"><a xlink:href="api_2cpumask_8h.html" target="_top" xlink:title="ODP CPU masks and enumeration. ">
<polygon fill="white" stroke="red" points="2017,-168.5 2017,-187.5 2086,-187.5 2086,-168.5 2017,-168.5"/>
<text text-anchor="middle" x="2051.5" y="-175.5" font-family="Helvetica,sans-Serif" font-size="10.00">cpumask.h</text>
</a>
</g>
</g>
<!-- Node59&#45;&gt;Node60 -->
<g id="edge24" class="edge"><title>Node59&#45;&gt;Node60</title>
<path fill="none" stroke="midnightblue" d="M2051.5,-213.805C2051.5,-204.91 2051.5,-194.78 2051.5,-187.751"/>
<polygon fill="midnightblue" stroke="midnightblue" points="2048,-214.083 2051.5,-224.083 2055,-214.083 2048,-214.083"/>
</g>
<!-- Node60&#45;&gt;Node23 -->
<g id="edge26" class="edge"><title>Node60&#45;&gt;Node23</title>
<path fill="none" stroke="midnightblue" d="M2043,-159.216C2034.81,-144.117 2020.94,-123.173 2002.5,-112 1962.63,-87.8437 1825.61,-74.3386 1763.07,-69.3045"/>
<polygon fill="midnightblue" stroke="midnightblue" points="2039.89,-160.82 2047.56,-168.133 2046.12,-157.636 2039.89,-160.82"/>
</g>
<!-- Node72 -->
<g id="node25" class="node"><title>Node72</title>
<g id="a_node25"><a xlink:href="api_2spec_2init_8h.html" target="_top" xlink:title="init.h">
<polygon fill="white" stroke="red" points="1920.5,-112.5 1920.5,-131.5 1960.5,-131.5 1960.5,-112.5 1920.5,-112.5"/>
<text text-anchor="middle" x="1940.5" y="-119.5" font-family="Helvetica,sans-Serif" font-size="10.00">init.h</text>
</a>
</g>
</g>
<!-- Node60&#45;&gt;Node72 -->
<g id="edge25" class="edge"><title>Node60&#45;&gt;Node72</title>
<path fill="none" stroke="midnightblue" d="M2024.49,-163.862C2003.91,-153.849 1976.16,-140.346 1958.29,-131.655"/>
<polygon fill="midnightblue" stroke="midnightblue" points="2023.14,-167.097 2033.67,-168.324 2026.2,-160.802 2023.14,-167.097"/>
</g>
<!-- Node77 -->
<g id="node27" class="node"><title>Node77</title>
<g id="a_node27"><a xlink:href="api_2std__types_8h.html" target="_top" xlink:title="Standard C language types and definitions for ODP. ">
<polygon fill="white" stroke="red" points="1380.5,-336.5 1380.5,-355.5 1452.5,-355.5 1452.5,-336.5 1380.5,-336.5"/>
<text text-anchor="middle" x="1416.5" y="-343.5" font-family="Helvetica,sans-Serif" font-size="10.00">std_types.h</text>
</a>
</g>
</g>
<!-- Node76&#45;&gt;Node77 -->
<g id="edge28" class="edge"><title>Node76&#45;&gt;Node77</title>
<path fill="none" stroke="midnightblue" d="M1758.31,-394.572C1680.17,-383.696 1523.5,-361.892 1452.7,-352.039"/>
<polygon fill="midnightblue" stroke="midnightblue" points="1757.96,-398.056 1768.35,-395.968 1758.92,-391.123 1757.96,-398.056"/>
</g>
<!-- Node77&#45;&gt;Node5 -->
<g id="edge29" class="edge"><title>Node77&#45;&gt;Node5</title>
<path fill="none" stroke="midnightblue" d="M1370.41,-344.362C1183.39,-341.596 480.672,-329.424 260.5,-300 257.469,-299.595 254.329,-299.063 251.205,-298.461"/>
<polygon fill="midnightblue" stroke="midnightblue" points="1370.41,-347.863 1380.46,-344.509 1370.51,-340.863 1370.41,-347.863"/>
</g>
<!-- Node77&#45;&gt;Node14 -->
<g id="edge30" class="edge"><title>Node77&#45;&gt;Node14</title>
<path fill="none" stroke="midnightblue" d="M1438.21,-330.066C1447.56,-322.308 1457.47,-311.947 1462.5,-300 1487.83,-239.789 1462.29,-157.918 1452.76,-131.553"/>
<polygon fill="midnightblue" stroke="midnightblue" points="1436.06,-327.306 1430.29,-336.189 1440.34,-332.845 1436.06,-327.306"/>
</g>
<!-- Node77&#45;&gt;Node22 -->
<g id="edge40" class="edge"><title>Node77&#45;&gt;Node22</title>
<path fill="none" stroke="midnightblue" d="M1423.34,-326.56C1427.32,-313.566 1431.09,-295.747 1428.5,-280 1418.85,-221.237 1390.15,-154.855 1379.52,-131.595"/>
<polygon fill="midnightblue" stroke="midnightblue" points="1419.98,-325.594 1420.09,-336.188 1426.61,-327.837 1419.98,-325.594"/>
</g>
<!-- Node77&#45;&gt;Node23 -->
<g id="edge66" class="edge"><title>Node77&#45;&gt;Node23</title>
<path fill="none" stroke="midnightblue" d="M1462.75,-345.316C1537.48,-343.135 1676.5,-326.749 1676.5,-235 1676.5,-235 1676.5,-235 1676.5,-177 1676.5,-135.365 1708.41,-93.3346 1723.62,-75.6684"/>
<polygon fill="midnightblue" stroke="midnightblue" points="1462.57,-341.819 1452.65,-345.536 1462.73,-348.817 1462.57,-341.819"/>
</g>
<!-- Node77&#45;&gt;Node52 -->
<g id="edge32" class="edge"><title>Node77&#45;&gt;Node52</title>
<path fill="none" stroke="midnightblue" d="M1462.7,-342C1572.57,-334.853 1858.07,-316.206 2096.5,-300 2128.42,-297.83 2164.77,-295.288 2190.74,-293.459"/>
<polygon fill="midnightblue" stroke="midnightblue" points="1462.38,-338.513 1452.63,-342.655 1462.83,-345.499 1462.38,-338.513"/>
</g>
<!-- Node77&#45;&gt;Node72 -->
<g id="edge60" class="edge"><title>Node77&#45;&gt;Node72</title>
<path fill="none" stroke="midnightblue" d="M1462.87,-342.044C1542.71,-336.421 1702.46,-322.682 1753.5,-300 1788.65,-284.378 1803.34,-278.91 1819.5,-244 1833.7,-213.324 1797.1,-195.682 1816.5,-168 1840.16,-134.243 1891.85,-125.71 1920.46,-123.618"/>
<polygon fill="midnightblue" stroke="midnightblue" points="1462.35,-338.571 1452.62,-342.752 1462.84,-345.554 1462.35,-338.571"/>
</g>
<!-- Node78 -->
<g id="node28" class="node"><title>Node78</title>
<g id="a_node28"><a xlink:href="api_2abi-default_2byteorder_8h.html" target="_top" xlink:title="ODP byteorder. ">
<polygon fill="white" stroke="red" points="2017,-280.5 2017,-299.5 2088,-299.5 2088,-280.5 2017,-280.5"/>
<text text-anchor="middle" x="2052.5" y="-287.5" font-family="Helvetica,sans-Serif" font-size="10.00">byteorder.h</text>
</a>
</g>
</g>
<!-- Node77&#45;&gt;Node78 -->
<g id="edge31" class="edge"><title>Node77&#45;&gt;Node78</title>
<path fill="none" stroke="midnightblue" d="M1462.69,-343.392C1562.52,-339.499 1805.66,-327.763 2007.5,-300 2010.5,-299.587 2013.6,-299.099 2016.71,-298.566"/>
<polygon fill="midnightblue" stroke="midnightblue" points="1462.5,-339.897 1452.64,-343.776 1462.77,-346.892 1462.5,-339.897"/>
</g>
<!-- Node87 -->
<g id="node29" class="node"><title>Node87</title>
<g id="a_node29"><a xlink:href="api_2abi-default_2init_8h.html" target="_top" xlink:title="ODP initialization. ">
<polygon fill="white" stroke="red" points="269.5,-280.5 269.5,-299.5 309.5,-299.5 309.5,-280.5 269.5,-280.5"/>
<text text-anchor="middle" x="289.5" y="-287.5" font-family="Helvetica,sans-Serif" font-size="10.00">init.h</text>
</a>
</g>
</g>
<!-- Node77&#45;&gt;Node87 -->
<g id="edge33" class="edge"><title>Node77&#45;&gt;Node87</title>
<path fill="none" stroke="midnightblue" d="M1370.29,-344.703C1188.92,-343.29 525.516,-335.736 318.5,-300 315.591,-299.498 312.567,-298.785 309.617,-297.977"/>
<polygon fill="midnightblue" stroke="midnightblue" points="1370.28,-348.203 1380.3,-344.778 1370.33,-341.203 1370.28,-348.203"/>
</g>
<!-- Node95 -->
<g id="node30" class="node"><title>Node95</title>
<g id="a_node30"><a xlink:href="api_2abi-default_2ipsec_8h.html" target="_top" xlink:title="ODP IPSEC API &#45; platform specific types. ">
<polygon fill="white" stroke="red" points="327.5,-280.5 327.5,-299.5 377.5,-299.5 377.5,-280.5 327.5,-280.5"/>
<text text-anchor="middle" x="352.5" y="-287.5" font-family="Helvetica,sans-Serif" font-size="10.00">ipsec.h</text>
</a>
</g>
</g>
<!-- Node77&#45;&gt;Node95 -->
<g id="edge34" class="edge"><title>Node77&#45;&gt;Node95</title>
<path fill="none" stroke="midnightblue" d="M1370.38,-344.303C1196.43,-341.469 580.28,-329.528 386.5,-300 383.603,-299.558 380.596,-298.966 377.624,-298.295"/>
<polygon fill="midnightblue" stroke="midnightblue" points="1370.42,-347.804 1380.47,-344.465 1370.53,-340.805 1370.42,-347.804"/>
</g>
<!-- Node104 -->
<g id="node31" class="node"><title>Node104</title>
<g id="a_node31"><a xlink:href="api_2abi-default_2packet__io_8h.html" target="_top" xlink:title="ODP Packet IO. ">
<polygon fill="white" stroke="red" points="396,-280.5 396,-299.5 467,-299.5 467,-280.5 396,-280.5"/>
<text text-anchor="middle" x="431.5" y="-287.5" font-family="Helvetica,sans-Serif" font-size="10.00">packet_io.h</text>
</a>
</g>
</g>
<!-- Node77&#45;&gt;Node104 -->
<g id="edge35" class="edge"><title>Node77&#45;&gt;Node104</title>
<path fill="none" stroke="midnightblue" d="M1370.35,-345.227C1233.45,-345.378 817.861,-342.067 476.5,-300 473.495,-299.63 470.391,-299.171 467.283,-298.658"/>
<polygon fill="midnightblue" stroke="midnightblue" points="1370.48,-348.727 1380.48,-345.209 1370.47,-341.727 1370.48,-348.727"/>
</g>
<!-- Node34 -->
<g id="node32" class="node"><title>Node34</title>
<g id="a_node32"><a xlink:href="api_2abi-default_2rwlock__recursive_8h.html" target="_top" xlink:title="ODP recursive read/write lock. ">
<polygon fill="white" stroke="red" points="485.5,-280.5 485.5,-299.5 589.5,-299.5 589.5,-280.5 485.5,-280.5"/>
<text text-anchor="middle" x="537.5" y="-287.5" font-family="Helvetica,sans-Serif" font-size="10.00">rwlock_recursive.h</text>
</a>
</g>
</g>
<!-- Node77&#45;&gt;Node34 -->
<g id="edge36" class="edge"><title>Node77&#45;&gt;Node34</title>
<path fill="none" stroke="midnightblue" d="M1369.76,-343.926C1244.52,-340.725 891.032,-329.564 598.5,-300 595.624,-299.709 592.677,-299.38 589.704,-299.023"/>
<polygon fill="midnightblue" stroke="midnightblue" points="1370.04,-347.434 1380.12,-344.186 1370.22,-340.436 1370.04,-347.434"/>
</g>
<!-- Node130 -->
<g id="node33" class="node"><title>Node130</title>
<g id="a_node33"><a xlink:href="api_2abi-default_2schedule_8h.html" target="_top" xlink:title="ODP schedule. ">
<polygon fill="white" stroke="red" points="607.5,-280.5 607.5,-299.5 675.5,-299.5 675.5,-280.5 607.5,-280.5"/>
<text text-anchor="middle" x="641.5" y="-287.5" font-family="Helvetica,sans-Serif" font-size="10.00">schedule.h</text>
</a>
</g>
</g>
<!-- Node77&#45;&gt;Node130 -->
<g id="edge37" class="edge"><title>Node77&#45;&gt;Node130</title>
<path fill="none" stroke="midnightblue" d="M1369.83,-344.472C1253.55,-342.649 941.771,-334.646 684.5,-300 681.628,-299.613 678.661,-299.143 675.69,-298.622"/>
<polygon fill="midnightblue" stroke="midnightblue" points="1370.09,-347.976 1380.14,-344.625 1370.19,-340.977 1370.09,-347.976"/>
</g>
<!-- Node138 -->
<g id="node34" class="node"><title>Node138</title>
<g id="a_node34"><a xlink:href="api_2abi-default_2spinlock__recursive_8h.html" target="_top" xlink:title="ODP recursive spinlock. ">
<polygon fill="white" stroke="red" points="694,-280.5 694,-299.5 807,-299.5 807,-280.5 694,-280.5"/>
<text text-anchor="middle" x="750.5" y="-287.5" font-family="Helvetica,sans-Serif" font-size="10.00">spinlock_recursive.h</text>
</a>
</g>
</g>
<!-- Node77&#45;&gt;Node138 -->
<g id="edge38" class="edge"><title>Node77&#45;&gt;Node138</title>
<path fill="none" stroke="midnightblue" d="M1370.01,-342.517C1268.95,-336.902 1021.75,-321.978 815.5,-300 812.781,-299.71 810.001,-299.396 807.195,-299.064"/>
<polygon fill="midnightblue" stroke="midnightblue" points="1370.01,-346.022 1380.18,-343.079 1370.39,-339.033 1370.01,-346.022"/>
</g>
<!-- Node147 -->
<g id="node35" class="node"><title>Node147</title>
<g id="a_node35"><a xlink:href="api_2abi-default_2traffic__mngr_8h.html" target="_top" xlink:title="ODP traffic mngr. ">
<polygon fill="white" stroke="red" points="825,-280.5 825,-299.5 908,-299.5 908,-280.5 825,-280.5"/>
<text text-anchor="middle" x="866.5" y="-287.5" font-family="Helvetica,sans-Serif" font-size="10.00">traffic_mngr.h</text>
</a>
</g>
</g>
<!-- Node77&#45;&gt;Node147 -->
<g id="edge39" class="edge"><title>Node77&#45;&gt;Node147</title>
<path fill="none" stroke="midnightblue" d="M1370.06,-342.196C1281.55,-336.548 1082.71,-322.394 916.5,-300 913.79,-299.635 911.004,-299.226 908.198,-298.79"/>
<polygon fill="midnightblue" stroke="midnightblue" points="1370.1,-345.705 1380.3,-342.843 1370.54,-338.719 1370.1,-345.705"/>
</g>
<!-- Node155 -->
<g id="node36" class="node"><title>Node155</title>
<g id="a_node36"><a xlink:href="api_2buffer_8h.html" target="_top" xlink:title="ODP buffer descriptor. ">
<polygon fill="white" stroke="black" points="1705,-168.5 1705,-187.5 1758,-187.5 1758,-168.5 1705,-168.5"/>
<text text-anchor="middle" x="1731.5" y="-175.5" font-family="Helvetica,sans-Serif" font-size="10.00">buffer.h</text>
</a>
</g>
</g>
<!-- Node77&#45;&gt;Node155 -->
<g id="edge41" class="edge"><title>Node77&#45;&gt;Node155</title>
<path fill="none" stroke="midnightblue" d="M1462.85,-343.046C1531.82,-339.223 1656.93,-328.473 1690.5,-300 1725.35,-270.445 1730.66,-210.105 1731.41,-187.662"/>
<polygon fill="midnightblue" stroke="midnightblue" points="1462.5,-339.56 1452.7,-343.582 1462.87,-346.55 1462.5,-339.56"/>
</g>
<!-- Node112 -->
<g id="node37" class="node"><title>Node112</title>
<g id="a_node37"><a xlink:href="api_2classification_8h.html" target="_top" xlink:title="ODP classification descriptor. ">
<polygon fill="white" stroke="red" points="1825.5,-168.5 1825.5,-187.5 1911.5,-187.5 1911.5,-168.5 1825.5,-168.5"/>
<text text-anchor="middle" x="1868.5" y="-175.5" font-family="Helvetica,sans-Serif" font-size="10.00">classification.h</text>
</a>
</g>
</g>
<!-- Node77&#45;&gt;Node112 -->
<g id="edge43" class="edge"><title>Node77&#45;&gt;Node112</title>
<path fill="none" stroke="midnightblue" d="M1462.8,-343.414C1569.35,-339.319 1824.94,-326.785 1852.5,-300 1883.8,-269.579 1875.09,-209.767 1870.49,-187.563"/>
<polygon fill="midnightblue" stroke="midnightblue" points="1462.53,-339.922 1452.67,-343.795 1462.79,-346.917 1462.53,-339.922"/>
</g>
<!-- Node118 -->
<g id="node38" class="node"><title>Node118</title>
<g id="a_node38"><a xlink:href="api_2crypto_8h.html" target="_top" xlink:title="ODP crypto. ">
<polygon fill="white" stroke="red" points="1904.5,-224.5 1904.5,-243.5 1960.5,-243.5 1960.5,-224.5 1904.5,-224.5"/>
<text text-anchor="middle" x="1932.5" y="-231.5" font-family="Helvetica,sans-Serif" font-size="10.00">crypto.h</text>
</a>
</g>
</g>
<!-- Node77&#45;&gt;Node118 -->
<g id="edge45" class="edge"><title>Node77&#45;&gt;Node118</title>
<path fill="none" stroke="midnightblue" d="M1463.14,-345.635C1568.16,-346.269 1819.55,-343.099 1890.5,-300 1912.09,-286.886 1924.62,-257.978 1929.75,-243.546"/>
<polygon fill="midnightblue" stroke="midnightblue" points="1462.87,-342.133 1452.85,-345.558 1462.82,-349.133 1462.87,-342.133"/>
</g>
<!-- Node114 -->
<g id="node39" class="node"><title>Node114</title>
<g id="a_node39"><a xlink:href="api_2packet_8h.html" target="_top" xlink:title="ODP packet descriptor. ">
<polygon fill="white" stroke="red" points="1514.5,-280.5 1514.5,-299.5 1572.5,-299.5 1572.5,-280.5 1514.5,-280.5"/>
<text text-anchor="middle" x="1543.5" y="-287.5" font-family="Helvetica,sans-Serif" font-size="10.00">packet.h</text>
</a>
</g>
</g>
<!-- Node77&#45;&gt;Node114 -->
<g id="edge47" class="edge"><title>Node77&#45;&gt;Node114</title>
<path fill="none" stroke="midnightblue" d="M1445.89,-332.503C1469.7,-322.38 1502.61,-308.388 1523.47,-299.516"/>
<polygon fill="midnightblue" stroke="midnightblue" points="1444.46,-329.31 1436.62,-336.444 1447.2,-335.751 1444.46,-329.31"/>
</g>
<!-- Node128 -->
<g id="node40" class="node"><title>Node128</title>
<g id="a_node40"><a xlink:href="api_2spec_2packet__flags_8h.html" target="_top" xlink:title="ODP packet flags. ">
<polygon fill="white" stroke="red" points="1524.5,-224.5 1524.5,-243.5 1610.5,-243.5 1610.5,-224.5 1524.5,-224.5"/>
<text text-anchor="middle" x="1567.5" y="-231.5" font-family="Helvetica,sans-Serif" font-size="10.00">packet_flags.h</text>
</a>
</g>
</g>
<!-- Node77&#45;&gt;Node128 -->
<g id="edge61" class="edge"><title>Node77&#45;&gt;Node128</title>
<path fill="none" stroke="midnightblue" d="M1462.87,-338.686C1506.46,-331.687 1567.11,-318.841 1581.5,-300 1594.39,-283.12 1581.52,-256.926 1573.26,-243.527"/>
<polygon fill="midnightblue" stroke="midnightblue" points="1462.09,-335.264 1452.75,-340.256 1463.17,-342.182 1462.09,-335.264"/>
</g>
<!-- Node124 -->
<g id="node41" class="node"><title>Node124</title>
<g id="a_node41"><a xlink:href="api_2packet__io_8h.html" target="_top" xlink:title="ODP Packet IO. ">
<polygon fill="white" stroke="red" points="1577,-112.5 1577,-131.5 1648,-131.5 1648,-112.5 1577,-112.5"/>
<text text-anchor="middle" x="1612.5" y="-119.5" font-family="Helvetica,sans-Serif" font-size="10.00">packet_io.h</text>
</a>
</g>
</g>
<!-- Node77&#45;&gt;Node124 -->
<g id="edge50" class="edge"><title>Node77&#45;&gt;Node124</title>
<path fill="none" stroke="midnightblue" d="M1462.98,-345.093C1503.43,-342.735 1561.26,-333.142 1598.5,-300 1648.01,-255.942 1624.23,-161.043 1615.35,-131.776"/>
<polygon fill="midnightblue" stroke="midnightblue" points="1462.67,-341.604 1452.84,-345.556 1462.99,-348.597 1462.67,-341.604"/>
</g>
<!-- Node122 -->
<g id="node42" class="node"><title>Node122</title>
<g id="a_node42"><a xlink:href="api_2queue_8h.html" target="_top" xlink:title="ODP queue. ">
<polygon fill="white" stroke="red" points="1942.5,-280.5 1942.5,-299.5 1998.5,-299.5 1998.5,-280.5 1942.5,-280.5"/>
<text text-anchor="middle" x="1970.5" y="-287.5" font-family="Helvetica,sans-Serif" font-size="10.00">queue.h</text>
</a>
</g>
</g>
<!-- Node77&#45;&gt;Node122 -->
<g id="edge52" class="edge"><title>Node77&#45;&gt;Node122</title>
<path fill="none" stroke="midnightblue" d="M1462.84,-342.847C1552.94,-338.236 1757.9,-325.676 1928.5,-300 1932.92,-299.334 1937.58,-298.486 1942.12,-297.578"/>
<polygon fill="midnightblue" stroke="midnightblue" points="1462.5,-339.36 1452.68,-343.357 1462.85,-346.351 1462.5,-339.36"/>
</g>
<!-- Node70 -->
<g id="node43" class="node"><title>Node70</title>
<g id="a_node43"><a xlink:href="api_2spec_2schedule_8h.html" target="_top" xlink:title="ODP schedule. ">
<polygon fill="white" stroke="red" points="1742.5,-224.5 1742.5,-243.5 1810.5,-243.5 1810.5,-224.5 1742.5,-224.5"/>
<text text-anchor="middle" x="1776.5" y="-231.5" font-family="Helvetica,sans-Serif" font-size="10.00">schedule.h</text>
</a>
</g>
</g>
<!-- Node77&#45;&gt;Node70 -->
<g id="edge63" class="edge"><title>Node77&#45;&gt;Node70</title>
<path fill="none" stroke="midnightblue" d="M1462.76,-342.676C1538.42,-338.163 1684.59,-326.257 1728.5,-300 1750.89,-286.608 1766.09,-258.363 1772.72,-243.918"/>
<polygon fill="midnightblue" stroke="midnightblue" points="1462.35,-339.193 1452.57,-343.264 1462.76,-346.182 1462.35,-339.193"/>
</g>
<!-- Node156 -->
<g id="node44" class="node"><title>Node156</title>
<g id="a_node44"><a xlink:href="spec_2chksum_8h.html" target="_top" xlink:title="ODP checksum functions. ">
<polygon fill="white" stroke="red" points="926,-280.5 926,-299.5 989,-299.5 989,-280.5 926,-280.5"/>
<text text-anchor="middle" x="957.5" y="-287.5" font-family="Helvetica,sans-Serif" font-size="10.00">chksum.h</text>
</a>
</g>
</g>
<!-- Node77&#45;&gt;Node156 -->
<g id="edge56" class="edge"><title>Node77&#45;&gt;Node156</title>
<path fill="none" stroke="midnightblue" d="M1370.06,-341.757C1292.52,-335.952 1131.92,-322.266 997.5,-300 994.831,-299.558 992.074,-299.049 989.312,-298.502"/>
<polygon fill="midnightblue" stroke="midnightblue" points="1370.21,-345.277 1380.44,-342.524 1370.73,-338.296 1370.21,-345.277"/>
</g>
<!-- Node158 -->
<g id="node45" class="node"><title>Node158</title>
<g id="a_node45"><a xlink:href="api_2spec_2cpu_8h.html" target="_top" xlink:title="ODP CPU API. ">
<polygon fill="white" stroke="red" points="1007,-280.5 1007,-299.5 1050,-299.5 1050,-280.5 1007,-280.5"/>
<text text-anchor="middle" x="1028.5" y="-287.5" font-family="Helvetica,sans-Serif" font-size="10.00">cpu.h</text>
</a>
</g>
</g>
<!-- Node77&#45;&gt;Node158 -->
<g id="edge57" class="edge"><title>Node77&#45;&gt;Node158</title>
<path fill="none" stroke="midnightblue" d="M1370.46,-341.525C1302.09,-335.841 1169.91,-322.838 1059.5,-300 1056.43,-299.364 1053.21,-298.576 1050.07,-297.732"/>
<polygon fill="midnightblue" stroke="midnightblue" points="1370.22,-345.017 1380.47,-342.343 1370.79,-338.04 1370.22,-345.017"/>
</g>
<!-- Node160 -->
<g id="node46" class="node"><title>Node160</title>
<g id="a_node46"><a xlink:href="spec_2feature_8h.html" target="_top" xlink:title="ODP features. ">
<polygon fill="white" stroke="red" points="1068.5,-280.5 1068.5,-299.5 1128.5,-299.5 1128.5,-280.5 1068.5,-280.5"/>
<text text-anchor="middle" x="1098.5" y="-287.5" font-family="Helvetica,sans-Serif" font-size="10.00">feature.h</text>
</a>
</g>
</g>
<!-- Node77&#45;&gt;Node160 -->
<g id="edge58" class="edge"><title>Node77&#45;&gt;Node160</title>
<path fill="none" stroke="midnightblue" d="M1370.03,-338.476C1314.51,-330.458 1218.92,-315.942 1137.5,-300 1134.64,-299.439 1131.66,-298.82 1128.69,-298.177"/>
<polygon fill="midnightblue" stroke="midnightblue" points="1369.85,-341.986 1380.25,-339.944 1370.85,-335.057 1369.85,-341.986"/>
</g>
<!-- Node162 -->
<g id="node47" class="node"><title>Node162</title>
<g id="a_node47"><a xlink:href="api_2spec_2hash_8h.html" target="_top" xlink:title="ODP Hash functions. ">
<polygon fill="white" stroke="red" points="1147,-280.5 1147,-299.5 1196,-299.5 1196,-280.5 1147,-280.5"/>
<text text-anchor="middle" x="1171.5" y="-287.5" font-family="Helvetica,sans-Serif" font-size="10.00">hash.h</text>
</a>
</g>
</g>
<!-- Node77&#45;&gt;Node162 -->
<g id="edge59" class="edge"><title>Node77&#45;&gt;Node162</title>
<path fill="none" stroke="midnightblue" d="M1370.31,-335.823C1327.47,-327.151 1261.99,-313.493 1205.5,-300 1202.53,-299.291 1199.42,-298.515 1196.35,-297.726"/>
<polygon fill="midnightblue" stroke="midnightblue" points="1369.67,-339.264 1380.16,-337.81 1371.05,-332.402 1369.67,-339.264"/>
</g>
<!-- Node164 -->
<g id="node48" class="node"><title>Node164</title>
<g id="a_node48"><a xlink:href="api_2spec_2pool_8h.html" target="_top" xlink:title="ODP pool. ">
<polygon fill="white" stroke="red" points="1214.5,-280.5 1214.5,-299.5 1260.5,-299.5 1260.5,-280.5 1214.5,-280.5"/>
<text text-anchor="middle" x="1237.5" y="-287.5" font-family="Helvetica,sans-Serif" font-size="10.00">pool.h</text>
</a>
</g>
</g>
<!-- Node77&#45;&gt;Node164 -->
<g id="edge62" class="edge"><title>Node77&#45;&gt;Node164</title>
<path fill="none" stroke="midnightblue" d="M1378.53,-333.546C1342.8,-322.767 1290.45,-306.975 1260.61,-297.971"/>
<polygon fill="midnightblue" stroke="midnightblue" points="1377.55,-336.906 1388.14,-336.444 1379.57,-330.204 1377.55,-336.906"/>
</g>
<!-- Node166 -->
<g id="node49" class="node"><title>Node166</title>
<g id="a_node49"><a xlink:href="api_2spec_2stash_8h.html" target="_top" xlink:title="ODP stash. ">
<polygon fill="white" stroke="red" points="1278.5,-280.5 1278.5,-299.5 1330.5,-299.5 1330.5,-280.5 1278.5,-280.5"/>
<text text-anchor="middle" x="1304.5" y="-287.5" font-family="Helvetica,sans-Serif" font-size="10.00">stash.h</text>
</a>
</g>
</g>
<!-- Node77&#45;&gt;Node166 -->
<g id="edge64" class="edge"><title>Node77&#45;&gt;Node166</title>
<path fill="none" stroke="midnightblue" d="M1389.25,-331.862C1368.48,-321.849 1340.48,-308.346 1322.45,-299.655"/>
<polygon fill="midnightblue" stroke="midnightblue" points="1387.98,-335.134 1398.51,-336.324 1391.02,-328.828 1387.98,-335.134"/>
</g>
<!-- Node168 -->
<g id="node50" class="node"><title>Node168</title>
<g id="a_node50"><a xlink:href="spec_2threshold_8h.html" target="_top" xlink:title="ODP threshold descriptor. ">
<polygon fill="white" stroke="red" points="1349,-280.5 1349,-299.5 1420,-299.5 1420,-280.5 1349,-280.5"/>
<text text-anchor="middle" x="1384.5" y="-287.5" font-family="Helvetica,sans-Serif" font-size="10.00">threshold.h</text>
</a>
</g>
</g>
<!-- Node77&#45;&gt;Node168 -->
<g id="edge65" class="edge"><title>Node77&#45;&gt;Node168</title>
<path fill="none" stroke="midnightblue" d="M1406,-327.275C1400.53,-318.045 1394.08,-307.17 1389.69,-299.751"/>
<polygon fill="midnightblue" stroke="midnightblue" points="1403.11,-329.264 1411.22,-336.083 1409.13,-325.696 1403.11,-329.264"/>
</g>
<!-- Node155&#45;&gt;Node23 -->
<g id="edge42" class="edge"><title>Node155&#45;&gt;Node23</title>
<path fill="none" stroke="midnightblue" d="M1731.5,-158.348C1731.5,-134.254 1731.5,-93.3079 1731.5,-75.5914"/>
<polygon fill="midnightblue" stroke="midnightblue" points="1728,-158.368 1731.5,-168.368 1735,-158.369 1728,-158.368"/>
</g>
<!-- Node112&#45;&gt;Node23 -->
<g id="edge44" class="edge"><title>Node112&#45;&gt;Node23</title>
<path fill="none" stroke="midnightblue" d="M1849.59,-161.816C1820.41,-138.387 1765.36,-94.1898 1742.2,-75.5914"/>
<polygon fill="midnightblue" stroke="midnightblue" points="1847.76,-164.837 1857.75,-168.368 1852.14,-159.378 1847.76,-164.837"/>
</g>
<!-- Node118&#45;&gt;Node23 -->
<g id="edge46" class="edge"><title>Node118&#45;&gt;Node23</title>
<path fill="none" stroke="midnightblue" d="M1933.2,-213.692C1932.76,-199.764 1930.13,-181.172 1920.5,-168 1881.64,-114.841 1806.16,-86.9085 1763.28,-74.7314"/>
<polygon fill="midnightblue" stroke="midnightblue" points="1929.7,-214.058 1933.16,-224.073 1936.7,-214.087 1929.7,-214.058"/>
</g>
<!-- Node114&#45;&gt;Node23 -->
<g id="edge49" class="edge"><title>Node114&#45;&gt;Node23</title>
<path fill="none" stroke="midnightblue" d="M1529.99,-272.301C1524.33,-264.253 1518.4,-254.156 1515.5,-244 1513.06,-235.453 1513.58,-232.68 1515.5,-224 1527.33,-170.41 1525.59,-147.438 1567.5,-112 1605.26,-80.0669 1663.82,-70.6565 1699.79,-67.9665"/>
<polygon fill="midnightblue" stroke="midnightblue" points="1527.28,-274.521 1536.09,-280.411 1532.88,-270.315 1527.28,-274.521"/>
</g>
<!-- Node114&#45;&gt;Node128 -->
<g id="edge48" class="edge"><title>Node114&#45;&gt;Node128</title>
<path fill="none" stroke="midnightblue" d="M1551.64,-270.69C1555.68,-261.589 1560.38,-251.014 1563.61,-243.751"/>
<polygon fill="midnightblue" stroke="midnightblue" points="1548.33,-269.523 1547.46,-280.083 1554.72,-272.366 1548.33,-269.523"/>
</g>
<!-- Node124&#45;&gt;Node23 -->
<g id="edge51" class="edge"><title>Node124&#45;&gt;Node23</title>
<path fill="none" stroke="midnightblue" d="M1640.64,-108.232C1662.9,-98.1312 1693.36,-84.3091 1712.73,-75.5164"/>
<polygon fill="midnightblue" stroke="midnightblue" points="1639.02,-105.124 1631.36,-112.444 1641.91,-111.498 1639.02,-105.124"/>
</g>
<!-- Node122&#45;&gt;Node23 -->
<g id="edge55" class="edge"><title>Node122&#45;&gt;Node23</title>
<path fill="none" stroke="midnightblue" d="M1977.23,-270.451C1988.74,-235.108 2007.49,-157.584 1969.5,-112 1943.59,-80.9078 1822.07,-71.1309 1763.38,-68.1936"/>
<polygon fill="midnightblue" stroke="midnightblue" points="1973.77,-269.755 1973.83,-280.35 1980.39,-272.03 1973.77,-269.755"/>
</g>
<!-- Node122&#45;&gt;Node118 -->
<g id="edge53" class="edge"><title>Node122&#45;&gt;Node118</title>
<path fill="none" stroke="midnightblue" d="M1958.44,-271.855C1951.86,-262.505 1943.99,-251.327 1938.66,-243.751"/>
<polygon fill="midnightblue" stroke="midnightblue" points="1955.61,-273.919 1964.23,-280.083 1961.33,-269.891 1955.61,-273.919"/>
</g>
<!-- Node122&#45;&gt;Node70 -->
<g id="edge54" class="edge"><title>Node122&#45;&gt;Node70</title>
<path fill="none" stroke="midnightblue" d="M1932.48,-278.418C1895.89,-268.233 1841.26,-253.026 1807.31,-243.576"/>
<polygon fill="midnightblue" stroke="midnightblue" points="1931.72,-281.838 1942.29,-281.148 1933.6,-275.094 1931.72,-281.838"/>
</g>
</g>
</svg>
