<?xml version="1.0" encoding="UTF-8" standalone="no"?>
<!DOCTYPE svg PUBLIC "-//W3C//DTD SVG 1.1//EN"
 "http://www.w3.org/Graphics/SVG/1.1/DTD/svg11.dtd">
<!-- Generated by graphviz version 2.38.0 (20140413.2041)
 -->
<!-- Title: spinlock_recursive.h Pages: 1 -->
<svg width="576pt" height="308pt"
 viewBox="0.00 0.00 576.26 308.00" xmlns="http://www.w3.org/2000/svg" xmlns:xlink="http://www.w3.org/1999/xlink">
<g id="graph0" class="graph" transform="scale(1 1) rotate(0) translate(4 304)">
<title>spinlock_recursive.h</title>
<polygon fill="white" stroke="none" points="-4,4 -4,-304 572.258,-304 572.258,4 -4,4"/>
<!-- Node0 -->
<g id="node1" class="node"><title>Node0</title>
<polygon fill="#bfbfbf" stroke="black" points="85,-280.5 85,-299.5 198,-299.5 198,-280.5 85,-280.5"/>
<text text-anchor="middle" x="141.5" y="-287.5" font-family="Helvetica,sans-Serif" font-size="10.00">spinlock_recursive.h</text>
</g>
<!-- Node1 -->
<g id="node2" class="node"><title>Node1</title>
<g id="a_node2"><a xlink:href="api_2spinlock_8h.html" target="_top" xlink:title="ODP spinlock. ">
<polygon fill="white" stroke="black" points="44.5,-112.5 44.5,-131.5 146.5,-131.5 146.5,-112.5 44.5,-112.5"/>
<text text-anchor="middle" x="95.5" y="-119.5" font-family="Helvetica,sans-Serif" font-size="10.00">odp/api/spinlock.h</text>
</a>
</g>
</g>
<!-- Node0&#45;&gt;Node1 -->
<g id="edge1" class="edge"><title>Node0&#45;&gt;Node1</title>
<path fill="none" stroke="midnightblue" d="M137.505,-280.181C133.553,-271.212 127.529,-256.846 123.5,-244 112.302,-208.301 103.42,-165.405 98.8595,-141.47"/>
<polygon fill="midnightblue" stroke="midnightblue" points="102.298,-140.819 97.0257,-131.629 95.4169,-142.101 102.298,-140.819"/>
</g>
<!-- Node6 -->
<g id="node7" class="node"><title>Node6</title>
<g id="a_node7"><a xlink:href="api_2std__types_8h.html" target="_top" xlink:title="Standard C language types and definitions for ODP. ">
<polygon fill="white" stroke="black" points="132.5,-224.5 132.5,-243.5 242.5,-243.5 242.5,-224.5 132.5,-224.5"/>
<text text-anchor="middle" x="187.5" y="-231.5" font-family="Helvetica,sans-Serif" font-size="10.00">odp/api/std_types.h</text>
</a>
</g>
</g>
<!-- Node0&#45;&gt;Node6 -->
<g id="edge6" class="edge"><title>Node0&#45;&gt;Node6</title>
<path fill="none" stroke="midnightblue" d="M149.096,-280.083C155.727,-272.298 165.521,-260.801 173.558,-251.367"/>
<polygon fill="midnightblue" stroke="midnightblue" points="176.225,-253.633 180.045,-243.751 170.896,-249.094 176.225,-253.633"/>
</g>
<!-- Node2 -->
<g id="node3" class="node"><title>Node2</title>
<polygon fill="white" stroke="#bfbfbf" points="0,-56.5 0,-75.5 119,-75.5 119,-56.5 0,-56.5"/>
<text text-anchor="middle" x="59.5" y="-63.5" font-family="Helvetica,sans-Serif" font-size="10.00">odp/api/abi/spinlock.h</text>
</g>
<!-- Node1&#45;&gt;Node2 -->
<g id="edge2" class="edge"><title>Node1&#45;&gt;Node2</title>
<path fill="none" stroke="midnightblue" d="M89.5553,-112.083C84.5227,-104.534 77.1632,-93.4948 70.9865,-84.2298"/>
<polygon fill="midnightblue" stroke="midnightblue" points="73.7933,-82.1301 65.3341,-75.7511 67.9689,-86.0131 73.7933,-82.1301"/>
</g>
<!-- Node3 -->
<g id="node4" class="node"><title>Node3</title>
<g id="a_node4"><a xlink:href="api_2spec_2spinlock_8h.html" target="_top" xlink:title="ODP spinlock. ">
<polygon fill="white" stroke="black" points="137.5,-56.5 137.5,-75.5 265.5,-75.5 265.5,-56.5 137.5,-56.5"/>
<text text-anchor="middle" x="201.5" y="-63.5" font-family="Helvetica,sans-Serif" font-size="10.00">odp/api/spec/spinlock.h</text>
</a>
</g>
</g>
<!-- Node1&#45;&gt;Node3 -->
<g id="edge3" class="edge"><title>Node1&#45;&gt;Node3</title>
<path fill="none" stroke="midnightblue" d="M112.531,-112.324C129.53,-103.664 155.876,-90.2424 175.493,-80.249"/>
<polygon fill="midnightblue" stroke="midnightblue" points="177.19,-83.3125 184.512,-75.6545 174.012,-77.0752 177.19,-83.3125"/>
</g>
<!-- Node4 -->
<g id="node5" class="node"><title>Node4</title>
<g id="a_node5"><a xlink:href="visibility__begin_8h_source.html" target="_top" xlink:title="odp/visibility_begin.h">
<polygon fill="white" stroke="black" points="442,-0.5 442,-19.5 557,-19.5 557,-0.5 442,-0.5"/>
<text text-anchor="middle" x="499.5" y="-7.5" font-family="Helvetica,sans-Serif" font-size="10.00">odp/visibility_begin.h</text>
</a>
</g>
</g>
<!-- Node3&#45;&gt;Node4 -->
<g id="edge4" class="edge"><title>Node3&#45;&gt;Node4</title>
<path fill="none" stroke="midnightblue" d="M248.719,-56.4435C301.249,-46.9246 386.11,-31.5472 442.348,-21.3563"/>
<polygon fill="midnightblue" stroke="midnightblue" points="443.286,-24.7435 452.502,-19.5164 442.038,-17.8556 443.286,-24.7435"/>
</g>
<!-- Node5 -->
<g id="node6" class="node"><title>Node5</title>
<g id="a_node6"><a xlink:href="visibility__end_8h_source.html" target="_top" xlink:title="odp/visibility_end.h">
<polygon fill="white" stroke="black" points="240,-0.5 240,-19.5 347,-19.5 347,-0.5 240,-0.5"/>
<text text-anchor="middle" x="293.5" y="-7.5" font-family="Helvetica,sans-Serif" font-size="10.00">odp/visibility_end.h</text>
</a>
</g>
</g>
<!-- Node3&#45;&gt;Node5 -->
<g id="edge5" class="edge"><title>Node3&#45;&gt;Node5</title>
<path fill="none" stroke="midnightblue" d="M216.281,-56.324C230.767,-47.8215 253.073,-34.7288 269.993,-24.7975"/>
<polygon fill="midnightblue" stroke="midnightblue" points="271.903,-27.735 278.755,-19.6545 268.359,-21.6981 271.903,-27.735"/>
</g>
<!-- Node7 -->
<g id="node8" class="node"><title>Node7</title>
<polygon fill="white" stroke="#bfbfbf" points="123.5,-168.5 123.5,-187.5 251.5,-187.5 251.5,-168.5 123.5,-168.5"/>
<text text-anchor="middle" x="187.5" y="-175.5" font-family="Helvetica,sans-Serif" font-size="10.00">odp/api/abi/std_types.h</text>
</g>
<!-- Node6&#45;&gt;Node7 -->
<g id="edge7" class="edge"><title>Node6&#45;&gt;Node7</title>
<path fill="none" stroke="midnightblue" d="M187.5,-224.083C187.5,-217.006 187.5,-206.861 187.5,-197.986"/>
<polygon fill="midnightblue" stroke="midnightblue" points="191,-197.751 187.5,-187.751 184,-197.751 191,-197.751"/>
</g>
<!-- Node8 -->
<g id="node9" class="node"><title>Node8</title>
<g id="a_node9"><a xlink:href="api_2spec_2std__types_8h.html" target="_top" xlink:title="Standard C language types and definitions for ODP. ">
<polygon fill="white" stroke="black" points="269.5,-168.5 269.5,-187.5 405.5,-187.5 405.5,-168.5 269.5,-168.5"/>
<text text-anchor="middle" x="337.5" y="-175.5" font-family="Helvetica,sans-Serif" font-size="10.00">odp/api/spec/std_types.h</text>
</a>
</g>
</g>
<!-- Node6&#45;&gt;Node8 -->
<g id="edge8" class="edge"><title>Node6&#45;&gt;Node8</title>
<path fill="none" stroke="midnightblue" d="M211.268,-224.444C236.393,-215.399 276.211,-201.064 304.4,-190.916"/>
<polygon fill="midnightblue" stroke="midnightblue" points="305.62,-194.197 313.843,-187.516 303.249,-187.611 305.62,-194.197"/>
</g>
<!-- Node8&#45;&gt;Node4 -->
<g id="edge9" class="edge"><title>Node8&#45;&gt;Node4</title>
<path fill="none" stroke="midnightblue" d="M398.353,-168.477C452.302,-157.348 528.021,-132.158 564.5,-76 577.795,-55.533 552.009,-36.323 529.091,-24.1721"/>
<polygon fill="midnightblue" stroke="midnightblue" points="530.4,-20.9134 519.891,-19.567 527.266,-27.173 530.4,-20.9134"/>
</g>
<!-- Node8&#45;&gt;Node5 -->
<g id="edge16" class="edge"><title>Node8&#45;&gt;Node5</title>
<path fill="none" stroke="midnightblue" d="M334.138,-168.469C330.676,-159.488 325.27,-144.892 321.5,-132 311.046,-96.2522 301.952,-53.6568 297.142,-29.7298"/>
<polygon fill="midnightblue" stroke="midnightblue" points="300.511,-28.7262 295.137,-19.5953 293.644,-30.0844 300.511,-28.7262"/>
</g>
<!-- Node9 -->
<g id="node10" class="node"><title>Node9</title>
<polygon fill="white" stroke="#bfbfbf" points="212,-112.5 212,-131.5 265,-131.5 265,-112.5 212,-112.5"/>
<text text-anchor="middle" x="238.5" y="-119.5" font-family="Helvetica,sans-Serif" font-size="10.00">stdint.h</text>
</g>
<!-- Node8&#45;&gt;Node9 -->
<g id="edge10" class="edge"><title>Node8&#45;&gt;Node9</title>
<path fill="none" stroke="midnightblue" d="M321.594,-168.324C305.862,-159.743 281.558,-146.486 263.291,-136.522"/>
<polygon fill="midnightblue" stroke="midnightblue" points="264.822,-133.37 254.367,-131.655 261.47,-139.516 264.822,-133.37"/>
</g>
<!-- Node10 -->
<g id="node11" class="node"><title>Node10</title>
<g id="a_node11"><a xlink:href="api_2align_8h.html" target="_top" xlink:title="ODP alignments. ">
<polygon fill="white" stroke="black" points="330.5,-112.5 330.5,-131.5 416.5,-131.5 416.5,-112.5 330.5,-112.5"/>
<text text-anchor="middle" x="373.5" y="-119.5" font-family="Helvetica,sans-Serif" font-size="10.00">odp/api/align.h</text>
</a>
</g>
</g>
<!-- Node8&#45;&gt;Node10 -->
<g id="edge11" class="edge"><title>Node8&#45;&gt;Node10</title>
<path fill="none" stroke="midnightblue" d="M343.445,-168.083C348.477,-160.534 355.837,-149.495 362.013,-140.23"/>
<polygon fill="midnightblue" stroke="midnightblue" points="365.031,-142.013 367.666,-131.751 359.207,-138.13 365.031,-142.013"/>
</g>
<!-- Node11 -->
<g id="node12" class="node"><title>Node11</title>
<polygon fill="white" stroke="#bfbfbf" points="321.5,-56.5 321.5,-75.5 425.5,-75.5 425.5,-56.5 321.5,-56.5"/>
<text text-anchor="middle" x="373.5" y="-63.5" font-family="Helvetica,sans-Serif" font-size="10.00">odp/api/abi/align.h</text>
</g>
<!-- Node10&#45;&gt;Node11 -->
<g id="edge12" class="edge"><title>Node10&#45;&gt;Node11</title>
<path fill="none" stroke="midnightblue" d="M373.5,-112.083C373.5,-105.006 373.5,-94.8611 373.5,-85.9865"/>
<polygon fill="midnightblue" stroke="midnightblue" points="377,-85.751 373.5,-75.7511 370,-85.7511 377,-85.751"/>
</g>
<!-- Node12 -->
<g id="node13" class="node"><title>Node12</title>
<g id="a_node13"><a xlink:href="api_2spec_2align_8h.html" target="_top" xlink:title="ODP alignments. ">
<polygon fill="white" stroke="black" points="443.5,-56.5 443.5,-75.5 555.5,-75.5 555.5,-56.5 443.5,-56.5"/>
<text text-anchor="middle" x="499.5" y="-63.5" font-family="Helvetica,sans-Serif" font-size="10.00">odp/api/spec/align.h</text>
</a>
</g>
</g>
<!-- Node10&#45;&gt;Node12 -->
<g id="edge13" class="edge"><title>Node10&#45;&gt;Node12</title>
<path fill="none" stroke="midnightblue" d="M393.465,-112.444C414.109,-103.596 446.563,-89.6875 470.132,-79.5865"/>
<polygon fill="midnightblue" stroke="midnightblue" points="471.816,-82.6727 479.628,-75.5164 469.058,-76.2387 471.816,-82.6727"/>
</g>
<!-- Node12&#45;&gt;Node4 -->
<g id="edge14" class="edge"><title>Node12&#45;&gt;Node4</title>
<path fill="none" stroke="midnightblue" d="M499.5,-56.083C499.5,-49.0059 499.5,-38.8611 499.5,-29.9865"/>
<polygon fill="midnightblue" stroke="midnightblue" points="503,-29.751 499.5,-19.7511 496,-29.7511 503,-29.751"/>
</g>
<!-- Node12&#45;&gt;Node5 -->
<g id="edge15" class="edge"><title>Node12&#45;&gt;Node5</title>
<path fill="none" stroke="midnightblue" d="M466.859,-56.4435C431.45,-47.1616 374.791,-32.3093 335.947,-22.127"/>
<polygon fill="midnightblue" stroke="midnightblue" points="336.549,-18.6666 325.989,-19.5164 334.774,-25.4378 336.549,-18.6666"/>
</g>
</g>
</svg>
