<?xml version="1.0" encoding="UTF-8" standalone="no"?>
<!DOCTYPE svg PUBLIC "-//W3C//DTD SVG 1.1//EN"
 "http://www.w3.org/Graphics/SVG/1.1/DTD/svg11.dtd">
<!-- Generated by graphviz version 2.38.0 (20140413.2041)
 -->
<!-- Title: packet_flags.h Pages: 1 -->
<svg width="933pt" height="543pt"
 viewBox="0.00 0.00 933.00 543.00" xmlns="http://www.w3.org/2000/svg" xmlns:xlink="http://www.w3.org/1999/xlink">
<g id="graph0" class="graph" transform="scale(1 1) rotate(0) translate(4 539)">
<title>packet_flags.h</title>
<polygon fill="white" stroke="none" points="-4,4 -4,-539 929,-539 929,4 -4,4"/>
<!-- Node0 -->
<g id="node1" class="node"><title>Node0</title>
<polygon fill="#bfbfbf" stroke="black" points="72,-515.5 72,-534.5 158,-534.5 158,-515.5 72,-515.5"/>
<text text-anchor="middle" x="115" y="-522.5" font-family="Helvetica,sans-Serif" font-size="10.00">packet_flags.h</text>
</g>
<!-- Node1 -->
<g id="node2" class="node"><title>Node1</title>
<polygon fill="white" stroke="#bfbfbf" points="0,-448.5 0,-478.5 104,-478.5 104,-448.5 0,-448.5"/>
<text text-anchor="start" x="8" y="-466.5" font-family="Helvetica,sans-Serif" font-size="10.00">odp/api/abi/packet</text>
<text text-anchor="middle" x="52" y="-455.5" font-family="Helvetica,sans-Serif" font-size="10.00">_flags.h</text>
</g>
<!-- Node0&#45;&gt;Node1 -->
<g id="edge1" class="edge"><title>Node0&#45;&gt;Node1</title>
<path fill="none" stroke="midnightblue" d="M105.974,-515.475C97.7601,-507.718 85.2931,-495.943 74.4095,-485.665"/>
<polygon fill="midnightblue" stroke="midnightblue" points="76.5212,-482.845 66.8479,-478.523 71.7148,-487.934 76.5212,-482.845"/>
</g>
<!-- Node2 -->
<g id="node3" class="node"><title>Node2</title>
<g id="a_node3"><a xlink:href="api_2spec_2packet__flags_8h.html" target="_top" xlink:title="ODP packet flags. ">
<polygon fill="white" stroke="black" points="122.5,-448.5 122.5,-478.5 235.5,-478.5 235.5,-448.5 122.5,-448.5"/>
<text text-anchor="start" x="130.5" y="-466.5" font-family="Helvetica,sans-Serif" font-size="10.00">odp/api/spec/packet</text>
<text text-anchor="middle" x="179" y="-455.5" font-family="Helvetica,sans-Serif" font-size="10.00">_flags.h</text>
</a>
</g>
</g>
<!-- Node0&#45;&gt;Node2 -->
<g id="edge2" class="edge"><title>Node0&#45;&gt;Node2</title>
<path fill="none" stroke="midnightblue" d="M124.17,-515.475C132.595,-507.643 145.425,-495.714 156.556,-485.366"/>
<polygon fill="midnightblue" stroke="midnightblue" points="158.976,-487.895 163.916,-478.523 154.209,-482.769 158.976,-487.895"/>
</g>
<!-- Node3 -->
<g id="node4" class="node"><title>Node3</title>
<g id="a_node4"><a xlink:href="visibility__begin_8h_source.html" target="_top" xlink:title="odp/visibility_begin.h">
<polygon fill="white" stroke="black" points="489.5,-0.5 489.5,-19.5 604.5,-19.5 604.5,-0.5 489.5,-0.5"/>
<text text-anchor="middle" x="547" y="-7.5" font-family="Helvetica,sans-Serif" font-size="10.00">odp/visibility_begin.h</text>
</a>
</g>
</g>
<!-- Node2&#45;&gt;Node3 -->
<g id="edge3" class="edge"><title>Node2&#45;&gt;Node3</title>
<path fill="none" stroke="midnightblue" d="M235.684,-459.693C409.774,-450.323 925,-416.706 925,-347 925,-347 925,-347 925,-121 925,-57.1888 723.894,-27.9427 615.056,-16.7872"/>
<polygon fill="midnightblue" stroke="midnightblue" points="615.12,-13.2762 604.822,-15.7636 614.424,-20.2415 615.12,-13.2762"/>
</g>
<!-- Node4 -->
<g id="node5" class="node"><title>Node4</title>
<g id="a_node5"><a xlink:href="api_2std__types_8h.html" target="_top" xlink:title="Standard C language types and definitions for ODP. ">
<polygon fill="white" stroke="black" points="176,-224.5 176,-243.5 286,-243.5 286,-224.5 176,-224.5"/>
<text text-anchor="middle" x="231" y="-231.5" font-family="Helvetica,sans-Serif" font-size="10.00">odp/api/std_types.h</text>
</a>
</g>
</g>
<!-- Node2&#45;&gt;Node4 -->
<g id="edge4" class="edge"><title>Node2&#45;&gt;Node4</title>
<path fill="none" stroke="midnightblue" d="M161.926,-448.393C137.533,-426.443 96.4341,-381.847 104,-336 108.279,-310.068 105.055,-299.203 123,-280 138.017,-263.93 159.653,-253.404 179.621,-246.606"/>
<polygon fill="midnightblue" stroke="midnightblue" points="180.774,-249.913 189.253,-243.561 178.663,-243.238 180.774,-249.913"/>
</g>
<!-- Node11 -->
<g id="node12" class="node"><title>Node11</title>
<g id="a_node12"><a xlink:href="visibility__end_8h_source.html" target="_top" xlink:title="odp/visibility_end.h">
<polygon fill="white" stroke="black" points="119.5,-0.5 119.5,-19.5 226.5,-19.5 226.5,-0.5 119.5,-0.5"/>
<text text-anchor="middle" x="173" y="-7.5" font-family="Helvetica,sans-Serif" font-size="10.00">odp/visibility_end.h</text>
</a>
</g>
</g>
<!-- Node2&#45;&gt;Node11 -->
<g id="edge31" class="edge"><title>Node2&#45;&gt;Node11</title>
<path fill="none" stroke="midnightblue" d="M127.702,-448.436C81.5669,-432.298 21,-400.856 21,-347 21,-347 21,-347 21,-121 21,-67.4368 83.7119,-37.2997 128.573,-22.5935"/>
<polygon fill="midnightblue" stroke="midnightblue" points="129.63,-25.9301 138.128,-19.6023 127.539,-19.2497 129.63,-25.9301"/>
</g>
<!-- Node12 -->
<g id="node13" class="node"><title>Node12</title>
<g id="a_node13"><a xlink:href="api_2packet_8h.html" target="_top" xlink:title="ODP packet descriptor. ">
<polygon fill="white" stroke="black" points="319,-392.5 319,-411.5 415,-411.5 415,-392.5 319,-392.5"/>
<text text-anchor="middle" x="367" y="-399.5" font-family="Helvetica,sans-Serif" font-size="10.00">odp/api/packet.h</text>
</a>
</g>
</g>
<!-- Node2&#45;&gt;Node12 -->
<g id="edge15" class="edge"><title>Node2&#45;&gt;Node12</title>
<path fill="none" stroke="midnightblue" d="M223.553,-448.399C256.039,-438.118 299.539,-424.351 330.089,-414.682"/>
<polygon fill="midnightblue" stroke="midnightblue" points="331.441,-417.925 339.919,-411.571 329.329,-411.252 331.441,-417.925"/>
</g>
<!-- Node5 -->
<g id="node6" class="node"><title>Node5</title>
<polygon fill="white" stroke="#bfbfbf" points="317,-168.5 317,-187.5 445,-187.5 445,-168.5 317,-168.5"/>
<text text-anchor="middle" x="381" y="-175.5" font-family="Helvetica,sans-Serif" font-size="10.00">odp/api/abi/std_types.h</text>
</g>
<!-- Node4&#45;&gt;Node5 -->
<g id="edge5" class="edge"><title>Node4&#45;&gt;Node5</title>
<path fill="none" stroke="midnightblue" d="M254.768,-224.444C279.893,-215.399 319.711,-201.064 347.9,-190.916"/>
<polygon fill="midnightblue" stroke="midnightblue" points="349.12,-194.197 357.343,-187.516 346.749,-187.611 349.12,-194.197"/>
</g>
<!-- Node6 -->
<g id="node7" class="node"><title>Node6</title>
<g id="a_node7"><a xlink:href="api_2spec_2std__types_8h.html" target="_top" xlink:title="Standard C language types and definitions for ODP. ">
<polygon fill="white" stroke="black" points="163,-168.5 163,-187.5 299,-187.5 299,-168.5 163,-168.5"/>
<text text-anchor="middle" x="231" y="-175.5" font-family="Helvetica,sans-Serif" font-size="10.00">odp/api/spec/std_types.h</text>
</a>
</g>
</g>
<!-- Node4&#45;&gt;Node6 -->
<g id="edge6" class="edge"><title>Node4&#45;&gt;Node6</title>
<path fill="none" stroke="midnightblue" d="M231,-224.083C231,-217.006 231,-206.861 231,-197.986"/>
<polygon fill="midnightblue" stroke="midnightblue" points="234.5,-197.751 231,-187.751 227.5,-197.751 234.5,-197.751"/>
</g>
<!-- Node6&#45;&gt;Node3 -->
<g id="edge7" class="edge"><title>Node6&#45;&gt;Node3</title>
<path fill="none" stroke="midnightblue" d="M266.643,-168.487C295.387,-160.915 336.415,-148.488 370,-132 378.343,-127.904 481.418,-56.5397 526.32,-25.3701"/>
<polygon fill="midnightblue" stroke="midnightblue" points="528.505,-28.1142 534.722,-19.5354 524.512,-22.3645 528.505,-28.1142"/>
</g>
<!-- Node7 -->
<g id="node8" class="node"><title>Node7</title>
<polygon fill="white" stroke="#bfbfbf" points="203.5,-112.5 203.5,-131.5 256.5,-131.5 256.5,-112.5 203.5,-112.5"/>
<text text-anchor="middle" x="230" y="-119.5" font-family="Helvetica,sans-Serif" font-size="10.00">stdint.h</text>
</g>
<!-- Node6&#45;&gt;Node7 -->
<g id="edge8" class="edge"><title>Node6&#45;&gt;Node7</title>
<path fill="none" stroke="midnightblue" d="M230.835,-168.083C230.704,-161.006 230.516,-150.861 230.352,-141.986"/>
<polygon fill="midnightblue" stroke="midnightblue" points="233.847,-141.685 230.162,-131.751 226.848,-141.814 233.847,-141.685"/>
</g>
<!-- Node8 -->
<g id="node9" class="node"><title>Node8</title>
<g id="a_node9"><a xlink:href="api_2align_8h.html" target="_top" xlink:title="ODP alignments. ">
<polygon fill="white" stroke="black" points="275,-112.5 275,-131.5 361,-131.5 361,-112.5 275,-112.5"/>
<text text-anchor="middle" x="318" y="-119.5" font-family="Helvetica,sans-Serif" font-size="10.00">odp/api/align.h</text>
</a>
</g>
</g>
<!-- Node6&#45;&gt;Node8 -->
<g id="edge9" class="edge"><title>Node6&#45;&gt;Node8</title>
<path fill="none" stroke="midnightblue" d="M244.978,-168.324C258.55,-159.9 279.38,-146.971 295.325,-137.074"/>
<polygon fill="midnightblue" stroke="midnightblue" points="297.406,-139.902 304.057,-131.655 293.714,-133.954 297.406,-139.902"/>
</g>
<!-- Node6&#45;&gt;Node11 -->
<g id="edge14" class="edge"><title>Node6&#45;&gt;Node11</title>
<path fill="none" stroke="midnightblue" d="M221.484,-168.33C212.878,-159.915 200.577,-146.342 194,-132 178.501,-98.2045 174.373,-54.3056 173.316,-29.7493"/>
<polygon fill="midnightblue" stroke="midnightblue" points="176.812,-29.5447 173.012,-19.6546 169.815,-29.7555 176.812,-29.5447"/>
</g>
<!-- Node9 -->
<g id="node10" class="node"><title>Node9</title>
<polygon fill="white" stroke="#bfbfbf" points="201,-56.5 201,-75.5 305,-75.5 305,-56.5 201,-56.5"/>
<text text-anchor="middle" x="253" y="-63.5" font-family="Helvetica,sans-Serif" font-size="10.00">odp/api/abi/align.h</text>
</g>
<!-- Node8&#45;&gt;Node9 -->
<g id="edge10" class="edge"><title>Node8&#45;&gt;Node9</title>
<path fill="none" stroke="midnightblue" d="M307.557,-112.324C297.854,-104.263 283.185,-92.0765 271.5,-82.3695"/>
<polygon fill="midnightblue" stroke="midnightblue" points="273.562,-79.532 263.633,-75.8339 269.089,-84.9163 273.562,-79.532"/>
</g>
<!-- Node10 -->
<g id="node11" class="node"><title>Node10</title>
<g id="a_node11"><a xlink:href="api_2spec_2align_8h.html" target="_top" xlink:title="ODP alignments. ">
<polygon fill="white" stroke="black" points="323,-56.5 323,-75.5 435,-75.5 435,-56.5 323,-56.5"/>
<text text-anchor="middle" x="379" y="-63.5" font-family="Helvetica,sans-Serif" font-size="10.00">odp/api/spec/align.h</text>
</a>
</g>
</g>
<!-- Node8&#45;&gt;Node10 -->
<g id="edge11" class="edge"><title>Node8&#45;&gt;Node10</title>
<path fill="none" stroke="midnightblue" d="M327.801,-112.324C336.818,-104.341 350.406,-92.3128 361.318,-82.6529"/>
<polygon fill="midnightblue" stroke="midnightblue" points="363.853,-85.083 369.021,-75.8339 359.213,-79.8416 363.853,-85.083"/>
</g>
<!-- Node10&#45;&gt;Node3 -->
<g id="edge12" class="edge"><title>Node10&#45;&gt;Node3</title>
<path fill="none" stroke="midnightblue" d="M405.62,-56.4435C434.006,-47.3196 479.137,-32.8133 510.753,-22.6509"/>
<polygon fill="midnightblue" stroke="midnightblue" points="512.055,-25.9087 520.504,-19.5164 509.913,-19.2445 512.055,-25.9087"/>
</g>
<!-- Node10&#45;&gt;Node11 -->
<g id="edge13" class="edge"><title>Node10&#45;&gt;Node11</title>
<path fill="none" stroke="midnightblue" d="M346.359,-56.4435C310.95,-47.1616 254.291,-32.3093 215.447,-22.127"/>
<polygon fill="midnightblue" stroke="midnightblue" points="216.049,-18.6666 205.489,-19.5164 214.274,-25.4378 216.049,-18.6666"/>
</g>
<!-- Node12&#45;&gt;Node4 -->
<g id="edge16" class="edge"><title>Node12&#45;&gt;Node4</title>
<path fill="none" stroke="midnightblue" d="M318.888,-399.457C253.382,-396.226 141.354,-386.304 116,-356 81.4354,-314.688 157.678,-269.582 202.05,-247.968"/>
<polygon fill="midnightblue" stroke="midnightblue" points="203.715,-251.052 211.246,-243.6 200.712,-244.729 203.715,-251.052"/>
</g>
<!-- Node13 -->
<g id="node14" class="node"><title>Node13</title>
<polygon fill="white" stroke="#bfbfbf" points="245,-336.5 245,-355.5 353,-355.5 353,-336.5 245,-336.5"/>
<text text-anchor="middle" x="299" y="-343.5" font-family="Helvetica,sans-Serif" font-size="10.00">odp/api/abi/event.h</text>
</g>
<!-- Node12&#45;&gt;Node13 -->
<g id="edge17" class="edge"><title>Node12&#45;&gt;Node13</title>
<path fill="none" stroke="midnightblue" d="M356.075,-392.324C345.825,-384.185 330.279,-371.839 317.999,-362.087"/>
<polygon fill="midnightblue" stroke="midnightblue" points="320.132,-359.312 310.124,-355.834 315.779,-364.794 320.132,-359.312"/>
</g>
<!-- Node14 -->
<g id="node15" class="node"><title>Node14</title>
<polygon fill="white" stroke="#bfbfbf" points="371.5,-336.5 371.5,-355.5 498.5,-355.5 498.5,-336.5 371.5,-336.5"/>
<text text-anchor="middle" x="435" y="-343.5" font-family="Helvetica,sans-Serif" font-size="10.00">odp/api/abi/packet_io.h</text>
</g>
<!-- Node12&#45;&gt;Node14 -->
<g id="edge18" class="edge"><title>Node12&#45;&gt;Node14</title>
<path fill="none" stroke="midnightblue" d="M377.925,-392.324C388.175,-384.185 403.721,-371.839 416.001,-362.087"/>
<polygon fill="midnightblue" stroke="midnightblue" points="418.221,-364.794 423.876,-355.834 413.868,-359.312 418.221,-364.794"/>
</g>
<!-- Node15 -->
<g id="node16" class="node"><title>Node15</title>
<polygon fill="white" stroke="#bfbfbf" points="657.5,-336.5 657.5,-355.5 770.5,-355.5 770.5,-336.5 657.5,-336.5"/>
<text text-anchor="middle" x="714" y="-343.5" font-family="Helvetica,sans-Serif" font-size="10.00">odp/api/abi/packet.h</text>
</g>
<!-- Node12&#45;&gt;Node15 -->
<g id="edge19" class="edge"><title>Node12&#45;&gt;Node15</title>
<path fill="none" stroke="midnightblue" d="M415.249,-393.492C476.182,-384.009 581.246,-367.659 649.151,-357.092"/>
<polygon fill="midnightblue" stroke="midnightblue" points="649.961,-360.508 659.304,-355.512 648.885,-353.591 649.961,-360.508"/>
</g>
<!-- Node16 -->
<g id="node17" class="node"><title>Node16</title>
<polygon fill="white" stroke="#bfbfbf" points="789,-336.5 789,-355.5 897,-355.5 897,-336.5 789,-336.5"/>
<text text-anchor="middle" x="843" y="-343.5" font-family="Helvetica,sans-Serif" font-size="10.00">odp/api/abi/buffer.h</text>
</g>
<!-- Node12&#45;&gt;Node16 -->
<g id="edge20" class="edge"><title>Node12&#45;&gt;Node16</title>
<path fill="none" stroke="midnightblue" d="M415.07,-396.288C490.273,-388.801 640.579,-373.374 778.397,-356.167"/>
<polygon fill="midnightblue" stroke="midnightblue" points="779.233,-359.589 788.719,-354.872 778.361,-352.644 779.233,-359.589"/>
</g>
<!-- Node17 -->
<g id="node18" class="node"><title>Node17</title>
<polygon fill="white" stroke="#bfbfbf" points="125.5,-336.5 125.5,-355.5 226.5,-355.5 226.5,-336.5 125.5,-336.5"/>
<text text-anchor="middle" x="176" y="-343.5" font-family="Helvetica,sans-Serif" font-size="10.00">odp/api/abi/pool.h</text>
</g>
<!-- Node12&#45;&gt;Node17 -->
<g id="edge21" class="edge"><title>Node12&#45;&gt;Node17</title>
<path fill="none" stroke="midnightblue" d="M336.735,-392.444C304.045,-383.201 251.818,-368.436 215.817,-358.257"/>
<polygon fill="midnightblue" stroke="midnightblue" points="216.698,-354.869 206.123,-355.516 214.794,-361.605 216.698,-354.869"/>
</g>
<!-- Node18 -->
<g id="node19" class="node"><title>Node18</title>
<g id="a_node19"><a xlink:href="api_2spec_2packet_8h.html" target="_top" xlink:title="ODP packet descriptor. ">
<polygon fill="white" stroke="black" points="517,-336.5 517,-355.5 639,-355.5 639,-336.5 517,-336.5"/>
<text text-anchor="middle" x="578" y="-343.5" font-family="Helvetica,sans-Serif" font-size="10.00">odp/api/spec/packet.h</text>
</a>
</g>
</g>
<!-- Node12&#45;&gt;Node18 -->
<g id="edge22" class="edge"><title>Node12&#45;&gt;Node18</title>
<path fill="none" stroke="midnightblue" d="M400.434,-392.444C436.856,-383.122 495.23,-368.183 535.029,-357.997"/>
<polygon fill="midnightblue" stroke="midnightblue" points="535.903,-361.387 544.723,-355.516 534.167,-354.605 535.903,-361.387"/>
</g>
<!-- Node18&#45;&gt;Node3 -->
<g id="edge23" class="edge"><title>Node18&#45;&gt;Node3</title>
<path fill="none" stroke="midnightblue" d="M585.594,-336.281C600.249,-318.523 631,-276.337 631,-235 631,-235 631,-235 631,-121 631,-90.9022 629.606,-80.4114 612,-56 602.503,-42.832 587.905,-32.2252 574.947,-24.6242"/>
<polygon fill="midnightblue" stroke="midnightblue" points="576.344,-21.3975 565.898,-19.6271 572.96,-27.5252 576.344,-21.3975"/>
</g>
<!-- Node18&#45;&gt;Node11 -->
<g id="edge30" class="edge"><title>Node18&#45;&gt;Node11</title>
<path fill="none" stroke="midnightblue" d="M518.715,-336.453C398.001,-318.241 135,-274.078 135,-235 135,-235 135,-235 135,-121 135,-86.8131 151.6,-49.7639 162.857,-28.5707"/>
<polygon fill="midnightblue" stroke="midnightblue" points="165.947,-30.2151 167.716,-19.769 159.819,-26.832 165.947,-30.2151"/>
</g>
<!-- Node19 -->
<g id="node20" class="node"><title>Node19</title>
<g id="a_node20"><a xlink:href="api_2time_8h.html" target="_top" xlink:title="ODP time. ">
<polygon fill="white" stroke="black" points="464,-280.5 464,-299.5 550,-299.5 550,-280.5 464,-280.5"/>
<text text-anchor="middle" x="507" y="-287.5" font-family="Helvetica,sans-Serif" font-size="10.00">odp/api/time.h</text>
</a>
</g>
</g>
<!-- Node18&#45;&gt;Node19 -->
<g id="edge24" class="edge"><title>Node18&#45;&gt;Node19</title>
<path fill="none" stroke="midnightblue" d="M566.593,-336.324C555.891,-328.185 539.659,-315.839 526.837,-306.087"/>
<polygon fill="midnightblue" stroke="midnightblue" points="528.693,-303.102 518.615,-299.834 524.456,-308.673 528.693,-303.102"/>
</g>
<!-- Node19&#45;&gt;Node4 -->
<g id="edge25" class="edge"><title>Node19&#45;&gt;Node4</title>
<path fill="none" stroke="midnightblue" d="M463.875,-280.562C415.549,-271.107 337.137,-255.766 284.83,-245.532"/>
<polygon fill="midnightblue" stroke="midnightblue" points="285.219,-242.042 274.733,-243.556 283.875,-248.912 285.219,-242.042"/>
</g>
<!-- Node20 -->
<g id="node21" class="node"><title>Node20</title>
<polygon fill="white" stroke="#bfbfbf" points="415.5,-224.5 415.5,-243.5 518.5,-243.5 518.5,-224.5 415.5,-224.5"/>
<text text-anchor="middle" x="467" y="-231.5" font-family="Helvetica,sans-Serif" font-size="10.00">odp/api/abi/time.h</text>
</g>
<!-- Node19&#45;&gt;Node20 -->
<g id="edge26" class="edge"><title>Node19&#45;&gt;Node20</title>
<path fill="none" stroke="midnightblue" d="M500.395,-280.083C494.745,-272.455 486.455,-261.264 479.549,-251.941"/>
<polygon fill="midnightblue" stroke="midnightblue" points="482.247,-249.703 473.482,-243.751 476.622,-253.87 482.247,-249.703"/>
</g>
<!-- Node21 -->
<g id="node22" class="node"><title>Node21</title>
<g id="a_node22"><a xlink:href="api_2spec_2time_8h.html" target="_top" xlink:title="ODP time. ">
<polygon fill="white" stroke="black" points="491.5,-56.5 491.5,-75.5 602.5,-75.5 602.5,-56.5 491.5,-56.5"/>
<text text-anchor="middle" x="547" y="-63.5" font-family="Helvetica,sans-Serif" font-size="10.00">odp/api/spec/time.h</text>
</a>
</g>
</g>
<!-- Node19&#45;&gt;Node21 -->
<g id="edge27" class="edge"><title>Node19&#45;&gt;Node21</title>
<path fill="none" stroke="midnightblue" d="M512.082,-280.368C517.02,-271.544 524.297,-257.288 528,-244 543.591,-188.053 546.531,-118.866 546.991,-86.0248"/>
<polygon fill="midnightblue" stroke="midnightblue" points="550.494,-85.6872 547.068,-75.6617 543.494,-85.6355 550.494,-85.6872"/>
</g>
<!-- Node21&#45;&gt;Node3 -->
<g id="edge28" class="edge"><title>Node21&#45;&gt;Node3</title>
<path fill="none" stroke="midnightblue" d="M547,-56.083C547,-49.0059 547,-38.8611 547,-29.9865"/>
<polygon fill="midnightblue" stroke="midnightblue" points="550.5,-29.751 547,-19.7511 543.5,-29.7511 550.5,-29.751"/>
</g>
<!-- Node21&#45;&gt;Node11 -->
<g id="edge29" class="edge"><title>Node21&#45;&gt;Node11</title>
<path fill="none" stroke="midnightblue" d="M491.412,-56.974C423.434,-47.1589 308.606,-30.5795 237.007,-20.2416"/>
<polygon fill="midnightblue" stroke="midnightblue" points="237.165,-16.7282 226.767,-18.7632 236.165,-23.6564 237.165,-16.7282"/>
</g>
</g>
</svg>
