<?xml version="1.0" encoding="UTF-8" standalone="no"?>
<!DOCTYPE svg PUBLIC "-//W3C//DTD SVG 1.1//EN"
 "http://www.w3.org/Graphics/SVG/1.1/DTD/svg11.dtd">
<!-- Generated by graphviz version 2.38.0 (20140413.2041)
 -->
<!-- Title: rwlock_recursive.h Pages: 1 -->
<svg width="986pt" height="319pt"
 viewBox="0.00 0.00 985.50 319.00" xmlns="http://www.w3.org/2000/svg" xmlns:xlink="http://www.w3.org/1999/xlink">
<g id="graph0" class="graph" transform="scale(1 1) rotate(0) translate(4 315)">
<title>rwlock_recursive.h</title>
<polygon fill="white" stroke="none" points="-4,4 -4,-315 981.5,-315 981.5,4 -4,4"/>
<!-- Node0 -->
<g id="node1" class="node"><title>Node0</title>
<polygon fill="#bfbfbf" stroke="black" points="384,-291.5 384,-310.5 488,-310.5 488,-291.5 384,-291.5"/>
<text text-anchor="middle" x="436" y="-298.5" font-family="Helvetica,sans-Serif" font-size="10.00">rwlock_recursive.h</text>
</g>
<!-- Node1 -->
<g id="node2" class="node"><title>Node1</title>
<g id="a_node2"><a xlink:href="api_2rwlock_8h.html" target="_top" xlink:title="ODP RW Locks. ">
<polygon fill="white" stroke="black" points="141.5,-123.5 141.5,-142.5 234.5,-142.5 234.5,-123.5 141.5,-123.5"/>
<text text-anchor="middle" x="188" y="-130.5" font-family="Helvetica,sans-Serif" font-size="10.00">odp/api/rwlock.h</text>
</a>
</g>
</g>
<!-- Node0&#45;&gt;Node1 -->
<g id="edge1" class="edge"><title>Node0&#45;&gt;Node1</title>
<path fill="none" stroke="midnightblue" d="M422.962,-291.391C396.645,-274.003 335.309,-233.416 284,-199 258.17,-181.674 228.544,-161.581 209.117,-148.375"/>
<polygon fill="midnightblue" stroke="midnightblue" points="210.947,-145.387 200.71,-142.657 207.01,-151.175 210.947,-145.387"/>
</g>
<!-- Node6 -->
<g id="node7" class="node"><title>Node6</title>
<g id="a_node7"><a xlink:href="api_2std__types_8h.html" target="_top" xlink:title="Standard C language types and definitions for ODP. ">
<polygon fill="white" stroke="black" points="381,-235.5 381,-254.5 491,-254.5 491,-235.5 381,-235.5"/>
<text text-anchor="middle" x="436" y="-242.5" font-family="Helvetica,sans-Serif" font-size="10.00">odp/api/std_types.h</text>
</a>
</g>
</g>
<!-- Node0&#45;&gt;Node6 -->
<g id="edge6" class="edge"><title>Node0&#45;&gt;Node6</title>
<path fill="none" stroke="midnightblue" d="M436,-291.083C436,-284.006 436,-273.861 436,-264.986"/>
<polygon fill="midnightblue" stroke="midnightblue" points="439.5,-264.751 436,-254.751 432.5,-264.751 439.5,-264.751"/>
</g>
<!-- Node13 -->
<g id="node14" class="node"><title>Node13</title>
<g id="a_node14"><a xlink:href="api_2thread_8h.html" target="_top" xlink:title="ODP thread API. ">
<polygon fill="white" stroke="black" points="674.5,-123.5 674.5,-142.5 769.5,-142.5 769.5,-123.5 674.5,-123.5"/>
<text text-anchor="middle" x="722" y="-130.5" font-family="Helvetica,sans-Serif" font-size="10.00">odp/api/thread.h</text>
</a>
</g>
</g>
<!-- Node0&#45;&gt;Node13 -->
<g id="edge17" class="edge"><title>Node0&#45;&gt;Node13</title>
<path fill="none" stroke="midnightblue" d="M450.974,-291.309C497.79,-264.136 641.651,-180.636 698.518,-147.63"/>
<polygon fill="midnightblue" stroke="midnightblue" points="700.283,-150.652 707.174,-142.605 696.769,-144.598 700.283,-150.652"/>
</g>
<!-- Node2 -->
<g id="node3" class="node"><title>Node2</title>
<polygon fill="white" stroke="#bfbfbf" points="0,-62 0,-81 110,-81 110,-62 0,-62"/>
<text text-anchor="middle" x="55" y="-69" font-family="Helvetica,sans-Serif" font-size="10.00">odp/api/abi/rwlock.h</text>
</g>
<!-- Node1&#45;&gt;Node2 -->
<g id="edge2" class="edge"><title>Node1&#45;&gt;Node2</title>
<path fill="none" stroke="midnightblue" d="M168.944,-123.475C146.525,-113.445 109.095,-96.7002 83.2868,-85.1546"/>
<polygon fill="midnightblue" stroke="midnightblue" points="84.5778,-81.8979 74.0203,-81.0091 81.7192,-88.2877 84.5778,-81.8979"/>
</g>
<!-- Node3 -->
<g id="node4" class="node"><title>Node3</title>
<g id="a_node4"><a xlink:href="api_2spec_2rwlock_8h.html" target="_top" xlink:title="ODP RW Locks. ">
<polygon fill="white" stroke="black" points="128.5,-62 128.5,-81 247.5,-81 247.5,-62 128.5,-62"/>
<text text-anchor="middle" x="188" y="-69" font-family="Helvetica,sans-Serif" font-size="10.00">odp/api/spec/rwlock.h</text>
</a>
</g>
</g>
<!-- Node1&#45;&gt;Node3 -->
<g id="edge3" class="edge"><title>Node1&#45;&gt;Node3</title>
<path fill="none" stroke="midnightblue" d="M188,-123.475C188,-115.08 188,-101.981 188,-91.1631"/>
<polygon fill="midnightblue" stroke="midnightblue" points="191.5,-91.0091 188,-81.0091 184.5,-91.0091 191.5,-91.0091"/>
</g>
<!-- Node4 -->
<g id="node5" class="node"><title>Node4</title>
<g id="a_node5"><a xlink:href="visibility__begin_8h_source.html" target="_top" xlink:title="odp/visibility_begin.h">
<polygon fill="white" stroke="black" points="467.5,-0.5 467.5,-19.5 582.5,-19.5 582.5,-0.5 467.5,-0.5"/>
<text text-anchor="middle" x="525" y="-7.5" font-family="Helvetica,sans-Serif" font-size="10.00">odp/visibility_begin.h</text>
</a>
</g>
</g>
<!-- Node3&#45;&gt;Node4 -->
<g id="edge4" class="edge"><title>Node3&#45;&gt;Node4</title>
<path fill="none" stroke="midnightblue" d="M236.284,-61.9751C297.094,-51.2385 401.492,-32.8063 466.691,-21.2949"/>
<polygon fill="midnightblue" stroke="midnightblue" points="467.567,-24.6945 476.806,-19.5091 466.349,-17.8012 467.567,-24.6945"/>
</g>
<!-- Node5 -->
<g id="node6" class="node"><title>Node5</title>
<g id="a_node6"><a xlink:href="visibility__end_8h_source.html" target="_top" xlink:title="odp/visibility_end.h">
<polygon fill="white" stroke="black" points="262.5,-0.5 262.5,-19.5 369.5,-19.5 369.5,-0.5 262.5,-0.5"/>
<text text-anchor="middle" x="316" y="-7.5" font-family="Helvetica,sans-Serif" font-size="10.00">odp/visibility_end.h</text>
</a>
</g>
</g>
<!-- Node3&#45;&gt;Node5 -->
<g id="edge5" class="edge"><title>Node3&#45;&gt;Node5</title>
<path fill="none" stroke="midnightblue" d="M206.339,-61.9751C227.821,-51.9897 263.622,-35.3476 288.448,-23.8075"/>
<polygon fill="midnightblue" stroke="midnightblue" points="290.102,-26.8983 297.695,-19.5091 287.151,-20.5506 290.102,-26.8983"/>
</g>
<!-- Node7 -->
<g id="node8" class="node"><title>Node7</title>
<polygon fill="white" stroke="#bfbfbf" points="447,-179.5 447,-198.5 575,-198.5 575,-179.5 447,-179.5"/>
<text text-anchor="middle" x="511" y="-186.5" font-family="Helvetica,sans-Serif" font-size="10.00">odp/api/abi/std_types.h</text>
</g>
<!-- Node6&#45;&gt;Node7 -->
<g id="edge7" class="edge"><title>Node6&#45;&gt;Node7</title>
<path fill="none" stroke="midnightblue" d="M448.05,-235.324C459.463,-227.107 476.831,-214.602 490.435,-204.807"/>
<polygon fill="midnightblue" stroke="midnightblue" points="492.66,-207.517 498.731,-198.834 488.57,-201.837 492.66,-207.517"/>
</g>
<!-- Node8 -->
<g id="node9" class="node"><title>Node8</title>
<g id="a_node9"><a xlink:href="api_2spec_2std__types_8h.html" target="_top" xlink:title="Standard C language types and definitions for ODP. ">
<polygon fill="white" stroke="black" points="293,-179.5 293,-198.5 429,-198.5 429,-179.5 293,-179.5"/>
<text text-anchor="middle" x="361" y="-186.5" font-family="Helvetica,sans-Serif" font-size="10.00">odp/api/spec/std_types.h</text>
</a>
</g>
</g>
<!-- Node6&#45;&gt;Node8 -->
<g id="edge8" class="edge"><title>Node6&#45;&gt;Node8</title>
<path fill="none" stroke="midnightblue" d="M423.95,-235.324C412.537,-227.107 395.169,-214.602 381.565,-204.807"/>
<polygon fill="midnightblue" stroke="midnightblue" points="383.43,-201.837 373.269,-198.834 379.34,-207.517 383.43,-201.837"/>
</g>
<!-- Node8&#45;&gt;Node4 -->
<g id="edge9" class="edge"><title>Node8&#45;&gt;Node4</title>
<path fill="none" stroke="midnightblue" d="M405.991,-179.431C452.468,-167.756 521.682,-141.686 547,-87 555.889,-67.8 546.117,-44.1908 536.922,-28.4292"/>
<polygon fill="midnightblue" stroke="midnightblue" points="539.737,-26.3316 531.443,-19.7391 533.815,-30.0649 539.737,-26.3316"/>
</g>
<!-- Node8&#45;&gt;Node5 -->
<g id="edge16" class="edge"><title>Node8&#45;&gt;Node5</title>
<path fill="none" stroke="midnightblue" d="M344.797,-179.365C331.895,-171.606 314.479,-158.984 305,-143 285.146,-109.523 286.57,-93.9974 295,-56 297.124,-46.426 301.507,-36.4756 305.721,-28.3735"/>
<polygon fill="midnightblue" stroke="midnightblue" points="308.822,-29.9989 310.616,-19.557 302.702,-26.6012 308.822,-29.9989"/>
</g>
<!-- Node9 -->
<g id="node10" class="node"><title>Node9</title>
<polygon fill="white" stroke="#bfbfbf" points="314.5,-123.5 314.5,-142.5 367.5,-142.5 367.5,-123.5 314.5,-123.5"/>
<text text-anchor="middle" x="341" y="-130.5" font-family="Helvetica,sans-Serif" font-size="10.00">stdint.h</text>
</g>
<!-- Node8&#45;&gt;Node9 -->
<g id="edge10" class="edge"><title>Node8&#45;&gt;Node9</title>
<path fill="none" stroke="midnightblue" d="M357.697,-179.083C355.018,-171.849 351.151,-161.409 347.814,-152.397"/>
<polygon fill="midnightblue" stroke="midnightblue" points="350.996,-150.913 344.241,-142.751 344.432,-153.344 350.996,-150.913"/>
</g>
<!-- Node10 -->
<g id="node11" class="node"><title>Node10</title>
<g id="a_node11"><a xlink:href="api_2align_8h.html" target="_top" xlink:title="ODP alignments. ">
<polygon fill="white" stroke="black" points="386,-123.5 386,-142.5 472,-142.5 472,-123.5 386,-123.5"/>
<text text-anchor="middle" x="429" y="-130.5" font-family="Helvetica,sans-Serif" font-size="10.00">odp/api/align.h</text>
</a>
</g>
</g>
<!-- Node8&#45;&gt;Node10 -->
<g id="edge11" class="edge"><title>Node8&#45;&gt;Node10</title>
<path fill="none" stroke="midnightblue" d="M371.925,-179.324C382.175,-171.185 397.721,-158.839 410.001,-149.087"/>
<polygon fill="midnightblue" stroke="midnightblue" points="412.221,-151.794 417.876,-142.834 407.868,-146.312 412.221,-151.794"/>
</g>
<!-- Node11 -->
<g id="node12" class="node"><title>Node11</title>
<polygon fill="white" stroke="#bfbfbf" points="434,-62 434,-81 538,-81 538,-62 434,-62"/>
<text text-anchor="middle" x="486" y="-69" font-family="Helvetica,sans-Serif" font-size="10.00">odp/api/abi/align.h</text>
</g>
<!-- Node10&#45;&gt;Node11 -->
<g id="edge12" class="edge"><title>Node10&#45;&gt;Node11</title>
<path fill="none" stroke="midnightblue" d="M437.167,-123.475C445.886,-114.373 459.904,-99.741 470.689,-88.483"/>
<polygon fill="midnightblue" stroke="midnightblue" points="473.458,-90.6515 477.848,-81.0091 468.403,-85.809 473.458,-90.6515"/>
</g>
<!-- Node12 -->
<g id="node13" class="node"><title>Node12</title>
<g id="a_node13"><a xlink:href="api_2spec_2align_8h.html" target="_top" xlink:title="ODP alignments. ">
<polygon fill="white" stroke="black" points="304,-62 304,-81 416,-81 416,-62 304,-62"/>
<text text-anchor="middle" x="360" y="-69" font-family="Helvetica,sans-Serif" font-size="10.00">odp/api/spec/align.h</text>
</a>
</g>
</g>
<!-- Node10&#45;&gt;Node12 -->
<g id="edge13" class="edge"><title>Node10&#45;&gt;Node12</title>
<path fill="none" stroke="midnightblue" d="M419.114,-123.475C408.354,-114.197 390.929,-99.1706 377.779,-87.831"/>
<polygon fill="midnightblue" stroke="midnightblue" points="379.727,-84.889 369.868,-81.0091 375.155,-90.1902 379.727,-84.889"/>
</g>
<!-- Node12&#45;&gt;Node4 -->
<g id="edge14" class="edge"><title>Node12&#45;&gt;Node4</title>
<path fill="none" stroke="midnightblue" d="M383.64,-61.9751C411.944,-51.7687 459.533,-34.608 491.586,-23.0492"/>
<polygon fill="midnightblue" stroke="midnightblue" points="493.184,-26.1939 501.403,-19.5091 490.809,-19.6089 493.184,-26.1939"/>
</g>
<!-- Node12&#45;&gt;Node5 -->
<g id="edge15" class="edge"><title>Node12&#45;&gt;Node5</title>
<path fill="none" stroke="midnightblue" d="M353.696,-61.9751C347.096,-53.0501 336.563,-38.8071 328.307,-27.6425"/>
<polygon fill="midnightblue" stroke="midnightblue" points="331.052,-25.4684 322.292,-19.5091 325.424,-29.6305 331.052,-25.4684"/>
</g>
<!-- Node14 -->
<g id="node15" class="node"><title>Node14</title>
<g id="a_node15"><a xlink:href="thread__types_8h.html" target="_top" xlink:title="ODP thread API types. ">
<polygon fill="white" stroke="black" points="734,-56.5 734,-86.5 846,-86.5 846,-56.5 734,-56.5"/>
<text text-anchor="start" x="742" y="-74.5" font-family="Helvetica,sans-Serif" font-size="10.00">odp/api/spec/thread</text>
<text text-anchor="middle" x="790" y="-63.5" font-family="Helvetica,sans-Serif" font-size="10.00">_types.h</text>
</a>
</g>
</g>
<!-- Node13&#45;&gt;Node14 -->
<g id="edge18" class="edge"><title>Node13&#45;&gt;Node14</title>
<path fill="none" stroke="midnightblue" d="M731.743,-123.475C740.694,-115.643 754.326,-103.714 766.154,-93.3656"/>
<polygon fill="midnightblue" stroke="midnightblue" points="768.753,-95.7421 773.974,-86.523 764.143,-90.474 768.753,-95.7421"/>
</g>
<!-- Node15 -->
<g id="node16" class="node"><title>Node15</title>
<polygon fill="white" stroke="#bfbfbf" points="864.5,-62 864.5,-81 977.5,-81 977.5,-62 864.5,-62"/>
<text text-anchor="middle" x="921" y="-69" font-family="Helvetica,sans-Serif" font-size="10.00">odp/api/abi/thread.h</text>
</g>
<!-- Node13&#45;&gt;Node15 -->
<g id="edge19" class="edge"><title>Node13&#45;&gt;Node15</title>
<path fill="none" stroke="midnightblue" d="M750.512,-123.475C785.238,-113.092 844.037,-95.5116 882.692,-83.9538"/>
<polygon fill="midnightblue" stroke="midnightblue" points="883.963,-87.2271 892.541,-81.0091 881.957,-80.5205 883.963,-87.2271"/>
</g>
<!-- Node16 -->
<g id="node17" class="node"><title>Node16</title>
<g id="a_node17"><a xlink:href="api_2spec_2thread_8h.html" target="_top" xlink:title="ODP thread API. ">
<polygon fill="white" stroke="black" points="594.5,-62 594.5,-81 715.5,-81 715.5,-62 594.5,-62"/>
<text text-anchor="middle" x="655" y="-69" font-family="Helvetica,sans-Serif" font-size="10.00">odp/api/spec/thread.h</text>
</a>
</g>
</g>
<!-- Node13&#45;&gt;Node16 -->
<g id="edge20" class="edge"><title>Node13&#45;&gt;Node16</title>
<path fill="none" stroke="midnightblue" d="M712.401,-123.475C701.952,-114.197 685.032,-99.1706 672.264,-87.831"/>
<polygon fill="midnightblue" stroke="midnightblue" points="674.383,-85.0323 664.582,-81.0091 669.735,-90.2663 674.383,-85.0323"/>
</g>
<!-- Node16&#45;&gt;Node4 -->
<g id="edge21" class="edge"><title>Node16&#45;&gt;Node4</title>
<path fill="none" stroke="midnightblue" d="M636.374,-61.9751C614.557,-51.9897 578.196,-35.3476 552.983,-23.8075"/>
<polygon fill="midnightblue" stroke="midnightblue" points="554.141,-20.4884 543.591,-19.5091 551.228,-26.8534 554.141,-20.4884"/>
</g>
<!-- Node16&#45;&gt;Node5 -->
<g id="edge22" class="edge"><title>Node16&#45;&gt;Node5</title>
<path fill="none" stroke="midnightblue" d="M606.43,-61.9751C545.258,-51.2385 440.241,-32.8063 374.655,-21.2949"/>
<polygon fill="midnightblue" stroke="midnightblue" points="374.935,-17.7906 364.48,-19.5091 373.725,-24.6852 374.935,-17.7906"/>
</g>
</g>
</svg>
