<?xml version="1.0" encoding="UTF-8" standalone="no"?>
<!DOCTYPE svg PUBLIC "-//W3C//DTD SVG 1.1//EN"
 "http://www.w3.org/Graphics/SVG/1.1/DTD/svg11.dtd">
<!-- Generated by graphviz version 2.38.0 (20140413.2041)
 -->
<!-- Title: crypto.h Pages: 1 -->
<svg width="1576pt" height="722pt"
 viewBox="0.00 0.00 1576.32 722.00" xmlns="http://www.w3.org/2000/svg" xmlns:xlink="http://www.w3.org/1999/xlink">
<g id="graph0" class="graph" transform="scale(1 1) rotate(0) translate(4 718)">
<title>crypto.h</title>
<polygon fill="white" stroke="none" points="-4,4 -4,-718 1572.32,-718 1572.32,4 -4,4"/>
<!-- Node0 -->
<g id="node1" class="node"><title>Node0</title>
<polygon fill="#bfbfbf" stroke="black" points="1295.82,-694.5 1295.82,-713.5 1351.82,-713.5 1351.82,-694.5 1295.82,-694.5"/>
<text text-anchor="middle" x="1323.82" y="-701.5" font-family="Helvetica,sans-Serif" font-size="10.00">crypto.h</text>
</g>
<!-- Node1 -->
<g id="node2" class="node"><title>Node1</title>
<g id="a_node2"><a xlink:href="api_2std__types_8h.html" target="_top" xlink:title="Standard C language types and definitions for ODP. ">
<polygon fill="white" stroke="black" points="225.818,-235.5 225.818,-254.5 335.818,-254.5 335.818,-235.5 225.818,-235.5"/>
<text text-anchor="middle" x="280.818" y="-242.5" font-family="Helvetica,sans-Serif" font-size="10.00">odp/api/std_types.h</text>
</a>
</g>
</g>
<!-- Node0&#45;&gt;Node1 -->
<g id="edge1" class="edge"><title>Node0&#45;&gt;Node1</title>
<path fill="none" stroke="midnightblue" d="M1295.64,-703.322C1120.09,-704.965 183.818,-708.325 183.818,-593 183.818,-593 183.818,-593 183.818,-367 183.818,-319.869 229.174,-280.616 257.857,-260.506"/>
<polygon fill="midnightblue" stroke="midnightblue" points="260.178,-263.161 266.505,-254.663 256.26,-257.361 260.178,-263.161"/>
</g>
<!-- Node10 -->
<g id="node11" class="node"><title>Node10</title>
<polygon fill="white" stroke="#bfbfbf" points="1171.32,-358.5 1171.32,-377.5 1284.32,-377.5 1284.32,-358.5 1171.32,-358.5"/>
<text text-anchor="middle" x="1227.82" y="-365.5" font-family="Helvetica,sans-Serif" font-size="10.00">odp/api/abi/packet.h</text>
</g>
<!-- Node0&#45;&gt;Node10 -->
<g id="edge12" class="edge"><title>Node0&#45;&gt;Node10</title>
<path fill="none" stroke="midnightblue" d="M1321.35,-694.408C1308.69,-650.383 1251.02,-449.74 1233.13,-387.481"/>
<polygon fill="midnightblue" stroke="midnightblue" points="1236.4,-386.179 1230.27,-377.535 1229.67,-388.113 1236.4,-386.179"/>
</g>
<!-- Node11 -->
<g id="node12" class="node"><title>Node11</title>
<polygon fill="white" stroke="#bfbfbf" points="1457.32,-638.5 1457.32,-657.5 1568.32,-657.5 1568.32,-638.5 1457.32,-638.5"/>
<text text-anchor="middle" x="1512.82" y="-645.5" font-family="Helvetica,sans-Serif" font-size="10.00">odp/api/abi/crypto.h</text>
</g>
<!-- Node0&#45;&gt;Node11 -->
<g id="edge13" class="edge"><title>Node0&#45;&gt;Node11</title>
<path fill="none" stroke="midnightblue" d="M1352.11,-694.916C1384.21,-685.745 1436.79,-670.723 1473.01,-660.373"/>
<polygon fill="midnightblue" stroke="midnightblue" points="1474.11,-663.699 1482.76,-657.587 1472.19,-656.968 1474.11,-663.699"/>
</g>
<!-- Node12 -->
<g id="node13" class="node"><title>Node12</title>
<polygon fill="white" stroke="#bfbfbf" points="1421.82,-358.5 1421.82,-377.5 1529.82,-377.5 1529.82,-358.5 1421.82,-358.5"/>
<text text-anchor="middle" x="1475.82" y="-365.5" font-family="Helvetica,sans-Serif" font-size="10.00">odp/api/abi/buffer.h</text>
</g>
<!-- Node0&#45;&gt;Node12 -->
<g id="edge14" class="edge"><title>Node0&#45;&gt;Node12</title>
<path fill="none" stroke="midnightblue" d="M1342.11,-694.345C1372.19,-678.692 1428.82,-642.634 1428.82,-593 1428.82,-593 1428.82,-593 1428.82,-479 1428.82,-443.702 1449.54,-406.786 1463.46,-385.96"/>
<polygon fill="midnightblue" stroke="midnightblue" points="1466.45,-387.796 1469.28,-377.587 1460.7,-383.8 1466.45,-387.796"/>
</g>
<!-- Node13 -->
<g id="node14" class="node"><title>Node13</title>
<polygon fill="white" stroke="#bfbfbf" points="1302.32,-358.5 1302.32,-377.5 1403.32,-377.5 1403.32,-358.5 1302.32,-358.5"/>
<text text-anchor="middle" x="1352.82" y="-365.5" font-family="Helvetica,sans-Serif" font-size="10.00">odp/api/abi/pool.h</text>
</g>
<!-- Node0&#45;&gt;Node13 -->
<g id="edge15" class="edge"><title>Node0&#45;&gt;Node13</title>
<path fill="none" stroke="midnightblue" d="M1327.28,-694.198C1330.62,-685.243 1335.52,-670.887 1337.82,-658 1355.81,-557.236 1354.67,-433.815 1353.45,-387.62"/>
<polygon fill="midnightblue" stroke="midnightblue" points="1356.95,-387.49 1353.15,-377.6 1349.95,-387.7 1356.95,-387.49"/>
</g>
<!-- Node14 -->
<g id="node15" class="node"><title>Node14</title>
<g id="a_node15"><a xlink:href="api_2queue_8h.html" target="_top" xlink:title="ODP queue. ">
<polygon fill="white" stroke="black" points="1116.82,-638.5 1116.82,-657.5 1210.82,-657.5 1210.82,-638.5 1116.82,-638.5"/>
<text text-anchor="middle" x="1163.82" y="-645.5" font-family="Helvetica,sans-Serif" font-size="10.00">odp/api/queue.h</text>
</a>
</g>
</g>
<!-- Node0&#45;&gt;Node14 -->
<g id="edge16" class="edge"><title>Node0&#45;&gt;Node14</title>
<path fill="none" stroke="midnightblue" d="M1298.47,-694.444C1271.55,-685.359 1228.82,-670.939 1198.73,-660.783"/>
<polygon fill="midnightblue" stroke="midnightblue" points="1199.65,-657.398 1189.05,-657.516 1197.41,-664.031 1199.65,-657.398"/>
</g>
<!-- Node34 -->
<g id="node35" class="node"><title>Node34</title>
<g id="a_node35"><a xlink:href="api_2spec_2crypto_8h.html" target="_top" xlink:title="ODP crypto. ">
<polygon fill="white" stroke="black" points="384.318,-470.5 384.318,-489.5 503.318,-489.5 503.318,-470.5 384.318,-470.5"/>
<text text-anchor="middle" x="443.818" y="-477.5" font-family="Helvetica,sans-Serif" font-size="10.00">odp/api/spec/crypto.h</text>
</a>
</g>
</g>
<!-- Node0&#45;&gt;Node34 -->
<g id="edge62" class="edge"><title>Node0&#45;&gt;Node34</title>
<path fill="none" stroke="midnightblue" d="M1295.8,-697.446C1254.55,-689.207 1175.1,-673.089 1107.82,-658 1003.9,-634.692 977.884,-628.843 874.818,-602 729.538,-564.163 558.112,-514.535 482.712,-492.452"/>
<polygon fill="midnightblue" stroke="midnightblue" points="483.303,-488.978 472.722,-489.523 481.334,-495.695 483.303,-488.978"/>
</g>
<!-- Node2 -->
<g id="node3" class="node"><title>Node2</title>
<polygon fill="white" stroke="#bfbfbf" points="26.8178,-174 26.8178,-193 154.818,-193 154.818,-174 26.8178,-174"/>
<text text-anchor="middle" x="90.8178" y="-181" font-family="Helvetica,sans-Serif" font-size="10.00">odp/api/abi/std_types.h</text>
</g>
<!-- Node1&#45;&gt;Node2 -->
<g id="edge2" class="edge"><title>Node1&#45;&gt;Node2</title>
<path fill="none" stroke="midnightblue" d="M253.595,-235.475C220.58,-225.136 164.778,-207.661 127.865,-196.102"/>
<polygon fill="midnightblue" stroke="midnightblue" points="128.579,-192.658 117.99,-193.009 126.487,-199.338 128.579,-192.658"/>
</g>
<!-- Node3 -->
<g id="node4" class="node"><title>Node3</title>
<g id="a_node4"><a xlink:href="api_2spec_2std__types_8h.html" target="_top" xlink:title="Standard C language types and definitions for ODP. ">
<polygon fill="white" stroke="black" points="248.818,-174 248.818,-193 384.818,-193 384.818,-174 248.818,-174"/>
<text text-anchor="middle" x="316.818" y="-181" font-family="Helvetica,sans-Serif" font-size="10.00">odp/api/spec/std_types.h</text>
</a>
</g>
</g>
<!-- Node1&#45;&gt;Node3 -->
<g id="edge3" class="edge"><title>Node1&#45;&gt;Node3</title>
<path fill="none" stroke="midnightblue" d="M285.976,-235.475C291.269,-226.727 299.653,-212.869 306.345,-201.809"/>
<polygon fill="midnightblue" stroke="midnightblue" points="309.487,-203.377 311.669,-193.009 303.498,-199.753 309.487,-203.377"/>
</g>
<!-- Node4 -->
<g id="node5" class="node"><title>Node4</title>
<g id="a_node5"><a xlink:href="visibility__begin_8h_source.html" target="_top" xlink:title="odp/visibility_begin.h">
<polygon fill="white" stroke="black" points="261.318,-0.5 261.318,-19.5 376.318,-19.5 376.318,-0.5 261.318,-0.5"/>
<text text-anchor="middle" x="318.818" y="-7.5" font-family="Helvetica,sans-Serif" font-size="10.00">odp/visibility_begin.h</text>
</a>
</g>
</g>
<!-- Node3&#45;&gt;Node4 -->
<g id="edge4" class="edge"><title>Node3&#45;&gt;Node4</title>
<path fill="none" stroke="midnightblue" d="M280.019,-173.938C213.76,-156.822 85.4036,-114.908 131.818,-56 146.674,-37.1449 203.825,-25.2749 251.078,-18.4913"/>
<polygon fill="midnightblue" stroke="midnightblue" points="251.567,-21.9572 260.993,-17.1202 250.608,-15.0232 251.567,-21.9572"/>
</g>
<!-- Node5 -->
<g id="node6" class="node"><title>Node5</title>
<polygon fill="white" stroke="#bfbfbf" points="203.318,-112.5 203.318,-131.5 256.318,-131.5 256.318,-112.5 203.318,-112.5"/>
<text text-anchor="middle" x="229.818" y="-119.5" font-family="Helvetica,sans-Serif" font-size="10.00">stdint.h</text>
</g>
<!-- Node3&#45;&gt;Node5 -->
<g id="edge5" class="edge"><title>Node3&#45;&gt;Node5</title>
<path fill="none" stroke="midnightblue" d="M304.353,-173.975C290.398,-164.431 267.553,-148.807 250.827,-137.368"/>
<polygon fill="midnightblue" stroke="midnightblue" points="252.49,-134.265 242.26,-131.509 248.538,-140.043 252.49,-134.265"/>
</g>
<!-- Node6 -->
<g id="node7" class="node"><title>Node6</title>
<g id="a_node7"><a xlink:href="api_2align_8h.html" target="_top" xlink:title="ODP alignments. ">
<polygon fill="white" stroke="black" points="274.818,-112.5 274.818,-131.5 360.818,-131.5 360.818,-112.5 274.818,-112.5"/>
<text text-anchor="middle" x="317.818" y="-119.5" font-family="Helvetica,sans-Serif" font-size="10.00">odp/api/align.h</text>
</a>
</g>
</g>
<!-- Node3&#45;&gt;Node6 -->
<g id="edge6" class="edge"><title>Node3&#45;&gt;Node6</title>
<path fill="none" stroke="midnightblue" d="M316.961,-173.975C317.102,-165.58 317.322,-152.481 317.504,-141.663"/>
<polygon fill="midnightblue" stroke="midnightblue" points="321.006,-141.567 317.675,-131.509 314.007,-141.449 321.006,-141.567"/>
</g>
<!-- Node9 -->
<g id="node10" class="node"><title>Node9</title>
<g id="a_node10"><a xlink:href="visibility__end_8h_source.html" target="_top" xlink:title="odp/visibility_end.h">
<polygon fill="white" stroke="black" points="837.318,-0.5 837.318,-19.5 944.318,-19.5 944.318,-0.5 837.318,-0.5"/>
<text text-anchor="middle" x="890.818" y="-7.5" font-family="Helvetica,sans-Serif" font-size="10.00">odp/visibility_end.h</text>
</a>
</g>
</g>
<!-- Node3&#45;&gt;Node9 -->
<g id="edge11" class="edge"><title>Node3&#45;&gt;Node9</title>
<path fill="none" stroke="midnightblue" d="M331.792,-173.78C357.319,-159.225 411.222,-129.822 459.818,-112 521.754,-89.2857 542.188,-99.5311 603.818,-76 621.648,-69.1924 623.773,-62.214 641.818,-56 702.826,-34.9917 775.796,-23.2768 826.918,-17.107"/>
<polygon fill="midnightblue" stroke="midnightblue" points="827.636,-20.547 837.162,-15.9095 826.823,-13.5943 827.636,-20.547"/>
</g>
<!-- Node7 -->
<g id="node8" class="node"><title>Node7</title>
<polygon fill="white" stroke="#bfbfbf" points="140.818,-56.5 140.818,-75.5 244.818,-75.5 244.818,-56.5 140.818,-56.5"/>
<text text-anchor="middle" x="192.818" y="-63.5" font-family="Helvetica,sans-Serif" font-size="10.00">odp/api/abi/align.h</text>
</g>
<!-- Node6&#45;&gt;Node7 -->
<g id="edge7" class="edge"><title>Node6&#45;&gt;Node7</title>
<path fill="none" stroke="midnightblue" d="M298.011,-112.444C277.531,-103.596 245.335,-89.6875 221.953,-79.5865"/>
<polygon fill="midnightblue" stroke="midnightblue" points="223.1,-76.2692 212.532,-75.5164 220.324,-82.6953 223.1,-76.2692"/>
</g>
<!-- Node8 -->
<g id="node9" class="node"><title>Node8</title>
<g id="a_node9"><a xlink:href="api_2spec_2align_8h.html" target="_top" xlink:title="ODP alignments. ">
<polygon fill="white" stroke="black" points="262.818,-56.5 262.818,-75.5 374.818,-75.5 374.818,-56.5 262.818,-56.5"/>
<text text-anchor="middle" x="318.818" y="-63.5" font-family="Helvetica,sans-Serif" font-size="10.00">odp/api/spec/align.h</text>
</a>
</g>
</g>
<!-- Node6&#45;&gt;Node8 -->
<g id="edge8" class="edge"><title>Node6&#45;&gt;Node8</title>
<path fill="none" stroke="midnightblue" d="M317.983,-112.083C318.114,-105.006 318.302,-94.8611 318.466,-85.9865"/>
<polygon fill="midnightblue" stroke="midnightblue" points="321.97,-85.8142 318.656,-75.7511 314.971,-85.6845 321.97,-85.8142"/>
</g>
<!-- Node8&#45;&gt;Node4 -->
<g id="edge9" class="edge"><title>Node8&#45;&gt;Node4</title>
<path fill="none" stroke="midnightblue" d="M318.818,-56.083C318.818,-49.0059 318.818,-38.8611 318.818,-29.9865"/>
<polygon fill="midnightblue" stroke="midnightblue" points="322.318,-29.751 318.818,-19.7511 315.318,-29.7511 322.318,-29.751"/>
</g>
<!-- Node8&#45;&gt;Node9 -->
<g id="edge10" class="edge"><title>Node8&#45;&gt;Node9</title>
<path fill="none" stroke="midnightblue" d="M374.967,-59.6992C481.967,-49.5978 714.435,-27.6516 827.082,-17.017"/>
<polygon fill="midnightblue" stroke="midnightblue" points="827.648,-20.4793 837.275,-16.0548 826.99,-13.5102 827.648,-20.4793"/>
</g>
<!-- Node14&#45;&gt;Node1 -->
<g id="edge17" class="edge"><title>Node14&#45;&gt;Node1</title>
<path fill="none" stroke="midnightblue" d="M1116.8,-641.904C931.244,-621.713 259.818,-547.9 259.818,-537 259.818,-537 259.818,-537 259.818,-367 259.818,-330.188 269.37,-287.992 275.59,-264.419"/>
<polygon fill="midnightblue" stroke="midnightblue" points="278.981,-265.285 278.243,-254.716 272.229,-263.438 278.981,-265.285"/>
</g>
<!-- Node14&#45;&gt;Node12 -->
<g id="edge20" class="edge"><title>Node14&#45;&gt;Node12</title>
<path fill="none" stroke="midnightblue" d="M1185.52,-638.5C1203.98,-630.661 1230.62,-617.853 1250.82,-602 1338.04,-533.545 1333.28,-489.135 1414.82,-414 1427,-402.772 1441.96,-391.703 1454.01,-383.353"/>
<polygon fill="midnightblue" stroke="midnightblue" points="1456.26,-386.055 1462.57,-377.54 1452.33,-380.265 1456.26,-386.055"/>
</g>
<!-- Node14&#45;&gt;Node13 -->
<g id="edge21" class="edge"><title>Node14&#45;&gt;Node13</title>
<path fill="none" stroke="midnightblue" d="M1180.42,-638.471C1194.63,-630.527 1214.95,-617.585 1228.82,-602 1289.91,-533.348 1331.38,-429.271 1346.48,-387.4"/>
<polygon fill="midnightblue" stroke="midnightblue" points="1349.79,-388.539 1349.82,-377.944 1343.19,-386.208 1349.79,-388.539"/>
</g>
<!-- Node15 -->
<g id="node16" class="node"><title>Node15</title>
<polygon fill="white" stroke="#bfbfbf" points="1006.82,-358.5 1006.82,-377.5 1114.82,-377.5 1114.82,-358.5 1006.82,-358.5"/>
<text text-anchor="middle" x="1060.82" y="-365.5" font-family="Helvetica,sans-Serif" font-size="10.00">odp/api/abi/event.h</text>
</g>
<!-- Node14&#45;&gt;Node15 -->
<g id="edge18" class="edge"><title>Node14&#45;&gt;Node15</title>
<path fill="none" stroke="midnightblue" d="M1145.57,-638.415C1131.18,-630.763 1111.63,-618.264 1099.82,-602 1082.05,-577.546 1079.82,-567.225 1079.82,-537 1079.82,-537 1079.82,-537 1079.82,-479 1079.82,-446.489 1071.66,-409.35 1066.03,-387.61"/>
<polygon fill="midnightblue" stroke="midnightblue" points="1069.36,-386.498 1063.38,-377.751 1062.6,-388.317 1069.36,-386.498"/>
</g>
<!-- Node16 -->
<g id="node17" class="node"><title>Node16</title>
<polygon fill="white" stroke="#bfbfbf" points="1108.32,-582.5 1108.32,-601.5 1219.32,-601.5 1219.32,-582.5 1108.32,-582.5"/>
<text text-anchor="middle" x="1163.82" y="-589.5" font-family="Helvetica,sans-Serif" font-size="10.00">odp/api/abi/queue.h</text>
</g>
<!-- Node14&#45;&gt;Node16 -->
<g id="edge19" class="edge"><title>Node14&#45;&gt;Node16</title>
<path fill="none" stroke="midnightblue" d="M1163.82,-638.083C1163.82,-631.006 1163.82,-620.861 1163.82,-611.986"/>
<polygon fill="midnightblue" stroke="midnightblue" points="1167.32,-611.751 1163.82,-601.751 1160.32,-611.751 1167.32,-611.751"/>
</g>
<!-- Node17 -->
<g id="node18" class="node"><title>Node17</title>
<g id="a_node18"><a xlink:href="api_2spec_2queue_8h.html" target="_top" xlink:title="ODP queue. ">
<polygon fill="white" stroke="black" points="884.318,-582.5 884.318,-601.5 1003.32,-601.5 1003.32,-582.5 884.318,-582.5"/>
<text text-anchor="middle" x="943.818" y="-589.5" font-family="Helvetica,sans-Serif" font-size="10.00">odp/api/spec/queue.h</text>
</a>
</g>
</g>
<!-- Node14&#45;&gt;Node17 -->
<g id="edge22" class="edge"><title>Node14&#45;&gt;Node17</title>
<path fill="none" stroke="midnightblue" d="M1128.96,-638.444C1090.9,-629.102 1029.86,-614.119 988.358,-603.933"/>
<polygon fill="midnightblue" stroke="midnightblue" points="989.06,-600.501 978.514,-601.516 987.392,-607.299 989.06,-600.501"/>
</g>
<!-- Node17&#45;&gt;Node4 -->
<g id="edge23" class="edge"><title>Node17&#45;&gt;Node4</title>
<path fill="none" stroke="midnightblue" d="M884.076,-589.516C730.814,-582.496 319.496,-542.912 87.8178,-322 40.4461,-276.83 23.1887,-262.375 6.81783,-199 -10.2532,-132.914 3.87733,-90.4207 62.8178,-56 93.9809,-37.8011 186.133,-24.7771 250.901,-17.5656"/>
<polygon fill="midnightblue" stroke="midnightblue" points="251.486,-21.0226 261.047,-16.4582 250.726,-14.0639 251.486,-21.0226"/>
</g>
<!-- Node17&#45;&gt;Node9 -->
<g id="edge61" class="edge"><title>Node17&#45;&gt;Node9</title>
<path fill="none" stroke="midnightblue" d="M956.266,-582.351C999.832,-550.96 1142.82,-437.991 1142.82,-307.5 1142.82,-307.5 1142.82,-307.5 1142.82,-121 1142.82,-39.0484 1029.49,-17.5429 954.831,-12.2671"/>
<polygon fill="midnightblue" stroke="midnightblue" points="954.768,-8.75642 944.569,-11.6258 954.331,-15.7428 954.768,-8.75642"/>
</g>
<!-- Node18 -->
<g id="node19" class="node"><title>Node18</title>
<g id="a_node19"><a xlink:href="api_2event_8h.html" target="_top" xlink:title="ODP event. ">
<polygon fill="white" stroke="black" points="898.318,-526.5 898.318,-545.5 989.318,-545.5 989.318,-526.5 898.318,-526.5"/>
<text text-anchor="middle" x="943.818" y="-533.5" font-family="Helvetica,sans-Serif" font-size="10.00">odp/api/event.h</text>
</a>
</g>
</g>
<!-- Node17&#45;&gt;Node18 -->
<g id="edge24" class="edge"><title>Node17&#45;&gt;Node18</title>
<path fill="none" stroke="midnightblue" d="M943.818,-582.083C943.818,-575.006 943.818,-564.861 943.818,-555.986"/>
<polygon fill="midnightblue" stroke="midnightblue" points="947.318,-555.751 943.818,-545.751 940.318,-555.751 947.318,-555.751"/>
</g>
<!-- Node26 -->
<g id="node27" class="node"><title>Node26</title>
<g id="a_node27"><a xlink:href="queue__types_8h.html" target="_top" xlink:title="ODP queue types. ">
<polygon fill="white" stroke="black" points="740.818,-291.5 740.818,-321.5 850.818,-321.5 850.818,-291.5 740.818,-291.5"/>
<text text-anchor="start" x="748.818" y="-309.5" font-family="Helvetica,sans-Serif" font-size="10.00">odp/api/spec/queue</text>
<text text-anchor="middle" x="795.818" y="-298.5" font-family="Helvetica,sans-Serif" font-size="10.00">_types.h</text>
</a>
</g>
</g>
<!-- Node17&#45;&gt;Node26 -->
<g id="edge45" class="edge"><title>Node17&#45;&gt;Node26</title>
<path fill="none" stroke="midnightblue" d="M910.379,-582.413C866.449,-568.884 794.818,-538.073 794.818,-481 794.818,-481 794.818,-481 794.818,-423 794.818,-391.494 795.195,-355.155 795.486,-331.783"/>
<polygon fill="midnightblue" stroke="midnightblue" points="798.986,-331.769 795.615,-321.725 791.986,-331.679 798.986,-331.769"/>
</g>
<!-- Node18&#45;&gt;Node15 -->
<g id="edge25" class="edge"><title>Node18&#45;&gt;Node15</title>
<path fill="none" stroke="midnightblue" d="M953.321,-526.214C962.467,-517.502 976.407,-503.532 986.818,-490 1013.36,-455.505 1038.52,-410.963 1051.56,-386.691"/>
<polygon fill="midnightblue" stroke="midnightblue" points="1054.78,-388.092 1056.38,-377.618 1048.6,-384.811 1054.78,-388.092"/>
</g>
<!-- Node19 -->
<g id="node20" class="node"><title>Node19</title>
<g id="a_node20"><a xlink:href="api_2spec_2event_8h.html" target="_top" xlink:title="ODP event. ">
<polygon fill="white" stroke="black" points="861.818,-470.5 861.818,-489.5 977.818,-489.5 977.818,-470.5 861.818,-470.5"/>
<text text-anchor="middle" x="919.818" y="-477.5" font-family="Helvetica,sans-Serif" font-size="10.00">odp/api/spec/event.h</text>
</a>
</g>
</g>
<!-- Node18&#45;&gt;Node19 -->
<g id="edge26" class="edge"><title>Node18&#45;&gt;Node19</title>
<path fill="none" stroke="midnightblue" d="M939.855,-526.083C936.604,-518.77 931.898,-508.181 927.864,-499.103"/>
<polygon fill="midnightblue" stroke="midnightblue" points="930.967,-497.468 923.707,-489.751 924.57,-500.311 930.967,-497.468"/>
</g>
<!-- Node19&#45;&gt;Node4 -->
<g id="edge27" class="edge"><title>Node19&#45;&gt;Node4</title>
<path fill="none" stroke="midnightblue" d="M861.367,-477.482C735.643,-472.627 450.818,-452.424 450.818,-369 450.818,-369 450.818,-369 450.818,-244 450.818,-155.297 437.768,-126.411 383.818,-56 373.809,-42.9374 358.917,-32.2396 345.912,-24.5569"/>
<polygon fill="midnightblue" stroke="midnightblue" points="347.31,-21.3283 336.873,-19.5049 343.894,-27.4388 347.31,-21.3283"/>
</g>
<!-- Node19&#45;&gt;Node9 -->
<g id="edge44" class="edge"><title>Node19&#45;&gt;Node9</title>
<path fill="none" stroke="midnightblue" d="M905.877,-470.329C894.08,-462.295 877.578,-449.299 867.818,-434 849.253,-404.899 829.385,-384.235 851.818,-358 918.774,-279.696 1002.71,-389.19 1080.82,-322 1107.67,-298.899 1104.82,-281.422 1104.82,-246 1104.82,-246 1104.82,-246 1104.82,-121 1104.82,-90.2048 1103.87,-76.4174 1080.82,-56 1062.16,-39.4763 1002.25,-27.0883 954.637,-19.5365"/>
<polygon fill="midnightblue" stroke="midnightblue" points="955.099,-16.0665 944.682,-17.9987 954.03,-22.9844 955.099,-16.0665"/>
</g>
<!-- Node20 -->
<g id="node21" class="node"><title>Node20</title>
<g id="a_node21"><a xlink:href="api_2packet_8h.html" target="_top" xlink:title="ODP packet descriptor. ">
<polygon fill="white" stroke="black" points="876.818,-414.5 876.818,-433.5 972.818,-433.5 972.818,-414.5 876.818,-414.5"/>
<text text-anchor="middle" x="924.818" y="-421.5" font-family="Helvetica,sans-Serif" font-size="10.00">odp/api/packet.h</text>
</a>
</g>
</g>
<!-- Node19&#45;&gt;Node20 -->
<g id="edge28" class="edge"><title>Node19&#45;&gt;Node20</title>
<path fill="none" stroke="midnightblue" d="M920.643,-470.083C921.299,-463.006 922.238,-452.861 923.06,-443.986"/>
<polygon fill="midnightblue" stroke="midnightblue" points="926.571,-444.031 924.008,-433.751 919.6,-443.386 926.571,-444.031"/>
</g>
<!-- Node20&#45;&gt;Node1 -->
<g id="edge29" class="edge"><title>Node20&#45;&gt;Node1</title>
<path fill="none" stroke="midnightblue" d="M876.68,-420.838C810.031,-416.9 686.373,-406.174 584.818,-378 476.216,-347.871 355.832,-286.57 305.275,-259.437"/>
<polygon fill="midnightblue" stroke="midnightblue" points="306.854,-256.312 296.392,-254.635 303.524,-262.47 306.854,-256.312"/>
</g>
<!-- Node20&#45;&gt;Node10 -->
<g id="edge32" class="edge"><title>Node20&#45;&gt;Node10</title>
<path fill="none" stroke="midnightblue" d="M972.829,-414.444C1026.35,-404.905 1112.88,-389.483 1170.06,-379.293"/>
<polygon fill="midnightblue" stroke="midnightblue" points="1170.8,-382.717 1180.03,-377.516 1169.57,-375.825 1170.8,-382.717"/>
</g>
<!-- Node20&#45;&gt;Node12 -->
<g id="edge33" class="edge"><title>Node20&#45;&gt;Node12</title>
<path fill="none" stroke="midnightblue" d="M973.041,-419.356C1059.01,-412.686 1244.62,-397.492 1411.59,-378.093"/>
<polygon fill="midnightblue" stroke="midnightblue" points="1412.02,-381.567 1421.54,-376.929 1411.21,-374.614 1412.02,-381.567"/>
</g>
<!-- Node20&#45;&gt;Node13 -->
<g id="edge34" class="edge"><title>Node20&#45;&gt;Node13</title>
<path fill="none" stroke="midnightblue" d="M972.937,-417.599C1041.51,-409.799 1171.53,-394.629 1292.15,-378.197"/>
<polygon fill="midnightblue" stroke="midnightblue" points="1292.87,-381.631 1302.3,-376.808 1291.92,-374.696 1292.87,-381.631"/>
</g>
<!-- Node20&#45;&gt;Node15 -->
<g id="edge30" class="edge"><title>Node20&#45;&gt;Node15</title>
<path fill="none" stroke="midnightblue" d="M946.367,-414.444C968.849,-405.517 1004.31,-391.439 1029.8,-381.317"/>
<polygon fill="midnightblue" stroke="midnightblue" points="1031.37,-384.46 1039.37,-377.516 1028.78,-377.954 1031.37,-384.46"/>
</g>
<!-- Node21 -->
<g id="node22" class="node"><title>Node21</title>
<polygon fill="white" stroke="#bfbfbf" points="861.318,-358.5 861.318,-377.5 988.318,-377.5 988.318,-358.5 861.318,-358.5"/>
<text text-anchor="middle" x="924.818" y="-365.5" font-family="Helvetica,sans-Serif" font-size="10.00">odp/api/abi/packet_io.h</text>
</g>
<!-- Node20&#45;&gt;Node21 -->
<g id="edge31" class="edge"><title>Node20&#45;&gt;Node21</title>
<path fill="none" stroke="midnightblue" d="M924.818,-414.083C924.818,-407.006 924.818,-396.861 924.818,-387.986"/>
<polygon fill="midnightblue" stroke="midnightblue" points="928.318,-387.751 924.818,-377.751 921.318,-387.751 928.318,-387.751"/>
</g>
<!-- Node22 -->
<g id="node23" class="node"><title>Node22</title>
<g id="a_node23"><a xlink:href="api_2spec_2packet_8h.html" target="_top" xlink:title="ODP packet descriptor. ">
<polygon fill="white" stroke="black" points="593.818,-358.5 593.818,-377.5 715.818,-377.5 715.818,-358.5 593.818,-358.5"/>
<text text-anchor="middle" x="654.818" y="-365.5" font-family="Helvetica,sans-Serif" font-size="10.00">odp/api/spec/packet.h</text>
</a>
</g>
</g>
<!-- Node20&#45;&gt;Node22 -->
<g id="edge35" class="edge"><title>Node20&#45;&gt;Node22</title>
<path fill="none" stroke="midnightblue" d="M882.036,-414.444C834.638,-404.964 758.191,-389.675 707.235,-379.483"/>
<polygon fill="midnightblue" stroke="midnightblue" points="707.892,-376.046 697.4,-377.516 706.519,-382.91 707.892,-376.046"/>
</g>
<!-- Node22&#45;&gt;Node4 -->
<g id="edge36" class="edge"><title>Node22&#45;&gt;Node4</title>
<path fill="none" stroke="midnightblue" d="M633.878,-358.478C611.901,-349.505 576.366,-334.916 545.818,-322 456.16,-284.092 437.109,-265.948 344.818,-235 280.635,-213.477 256.343,-231.24 196.818,-199 179.123,-189.416 179.158,-181.024 163.818,-168 143.759,-150.971 130.696,-154.355 116.818,-132 98.8172,-103.003 84.3229,-82.5105 105.818,-56 123.941,-33.648 195.865,-21.9654 251.174,-16.1678"/>
<polygon fill="midnightblue" stroke="midnightblue" points="251.691,-19.6336 261.291,-15.1525 250.992,-12.6686 251.691,-19.6336"/>
</g>
<!-- Node22&#45;&gt;Node9 -->
<g id="edge43" class="edge"><title>Node22&#45;&gt;Node9</title>
<path fill="none" stroke="midnightblue" d="M716.158,-360.002C822.26,-346.174 1028.82,-310.917 1028.82,-246 1028.82,-246 1028.82,-246 1028.82,-121 1028.82,-87.9763 1017.2,-78.2736 992.818,-56 976.07,-40.7003 953.279,-29.9777 933.488,-22.8481"/>
<polygon fill="midnightblue" stroke="midnightblue" points="934.352,-19.445 923.757,-19.5374 932.097,-26.0719 934.352,-19.445"/>
</g>
<!-- Node23 -->
<g id="node24" class="node"><title>Node23</title>
<g id="a_node24"><a xlink:href="api_2time_8h.html" target="_top" xlink:title="ODP time. ">
<polygon fill="white" stroke="black" points="554.818,-297 554.818,-316 640.818,-316 640.818,-297 554.818,-297"/>
<text text-anchor="middle" x="597.818" y="-304" font-family="Helvetica,sans-Serif" font-size="10.00">odp/api/time.h</text>
</a>
</g>
</g>
<!-- Node22&#45;&gt;Node23 -->
<g id="edge37" class="edge"><title>Node22&#45;&gt;Node23</title>
<path fill="none" stroke="midnightblue" d="M646.651,-358.475C637.932,-349.373 623.914,-334.741 613.129,-323.483"/>
<polygon fill="midnightblue" stroke="midnightblue" points="615.415,-320.809 605.969,-316.009 610.36,-325.651 615.415,-320.809"/>
</g>
<!-- Node23&#45;&gt;Node1 -->
<g id="edge38" class="edge"><title>Node23&#45;&gt;Node1</title>
<path fill="none" stroke="midnightblue" d="M554.736,-297.414C498.05,-286.774 398.345,-268.059 336.139,-256.384"/>
<polygon fill="midnightblue" stroke="midnightblue" points="336.586,-252.907 326.112,-254.502 335.295,-259.786 336.586,-252.907"/>
</g>
<!-- Node24 -->
<g id="node25" class="node"><title>Node24</title>
<polygon fill="white" stroke="#bfbfbf" points="488.318,-235.5 488.318,-254.5 591.318,-254.5 591.318,-235.5 488.318,-235.5"/>
<text text-anchor="middle" x="539.818" y="-242.5" font-family="Helvetica,sans-Serif" font-size="10.00">odp/api/abi/time.h</text>
</g>
<!-- Node23&#45;&gt;Node24 -->
<g id="edge39" class="edge"><title>Node23&#45;&gt;Node24</title>
<path fill="none" stroke="midnightblue" d="M589.508,-296.975C580.636,-287.873 566.372,-273.241 555.398,-261.983"/>
<polygon fill="midnightblue" stroke="midnightblue" points="557.599,-259.227 548.112,-254.509 552.586,-264.113 557.599,-259.227"/>
</g>
<!-- Node25 -->
<g id="node26" class="node"><title>Node25</title>
<g id="a_node26"><a xlink:href="api_2spec_2time_8h.html" target="_top" xlink:title="ODP time. ">
<polygon fill="white" stroke="black" points="651.318,-56.5 651.318,-75.5 762.318,-75.5 762.318,-56.5 651.318,-56.5"/>
<text text-anchor="middle" x="706.818" y="-63.5" font-family="Helvetica,sans-Serif" font-size="10.00">odp/api/spec/time.h</text>
</a>
</g>
</g>
<!-- Node23&#45;&gt;Node25 -->
<g id="edge40" class="edge"><title>Node23&#45;&gt;Node25</title>
<path fill="none" stroke="midnightblue" d="M601.383,-296.74C610.329,-274.859 634.607,-216.112 656.818,-168 670.436,-138.502 687.425,-104.776 697.681,-84.7186"/>
<polygon fill="midnightblue" stroke="midnightblue" points="700.924,-86.0651 702.378,-75.5705 694.697,-82.8681 700.924,-86.0651"/>
</g>
<!-- Node25&#45;&gt;Node4 -->
<g id="edge41" class="edge"><title>Node25&#45;&gt;Node4</title>
<path fill="none" stroke="midnightblue" d="M651.227,-57.2631C581.482,-47.5563 461.937,-30.9187 386.816,-20.4637"/>
<polygon fill="midnightblue" stroke="midnightblue" points="386.908,-16.9428 376.521,-19.0308 385.943,-23.876 386.908,-16.9428"/>
</g>
<!-- Node25&#45;&gt;Node9 -->
<g id="edge42" class="edge"><title>Node25&#45;&gt;Node9</title>
<path fill="none" stroke="midnightblue" d="M735.973,-56.4435C767.331,-47.2406 817.348,-32.5617 852.014,-22.3879"/>
<polygon fill="midnightblue" stroke="midnightblue" points="853.189,-25.6909 861.799,-19.5164 851.218,-18.9742 853.189,-25.6909"/>
</g>
<!-- Node26&#45;&gt;Node4 -->
<g id="edge46" class="edge"><title>Node26&#45;&gt;Node4</title>
<path fill="none" stroke="midnightblue" d="M796.248,-291.296C795.891,-274.922 792.527,-248.532 775.818,-235 683.045,-159.868 352.129,-239.469 239.818,-199 217.653,-191.013 216.584,-180.82 196.818,-168 170.084,-150.662 154.392,-157.143 134.818,-132 113.613,-104.763 97.2545,-82.9542 118.818,-56 135.284,-35.417 199.654,-23.5875 250.979,-17.2728"/>
<polygon fill="midnightblue" stroke="midnightblue" points="251.532,-20.7319 261.052,-16.0824 250.71,-13.7803 251.532,-20.7319"/>
</g>
<!-- Node26&#45;&gt;Node9 -->
<g id="edge60" class="edge"><title>Node26&#45;&gt;Node9</title>
<path fill="none" stroke="midnightblue" d="M850.99,-303.213C889.468,-298.709 939.362,-286.599 970.818,-255 993.796,-231.918 990.818,-217.07 990.818,-184.5 990.818,-184.5 990.818,-184.5 990.818,-121 990.818,-90.9022 990.603,-79.5156 971.818,-56 960.177,-41.428 942.467,-30.8253 926.572,-23.5852"/>
<polygon fill="midnightblue" stroke="midnightblue" points="927.553,-20.199 916.981,-19.5065 924.813,-26.6407 927.553,-20.199"/>
</g>
<!-- Node27 -->
<g id="node28" class="node"><title>Node27</title>
<g id="a_node28"><a xlink:href="api_2schedule__types_8h.html" target="_top" xlink:title="ODP schedule. ">
<polygon fill="white" stroke="black" points="823.818,-235.5 823.818,-254.5 961.818,-254.5 961.818,-235.5 823.818,-235.5"/>
<text text-anchor="middle" x="892.818" y="-242.5" font-family="Helvetica,sans-Serif" font-size="10.00">odp/api/schedule_types.h</text>
</a>
</g>
</g>
<!-- Node26&#45;&gt;Node27 -->
<g id="edge47" class="edge"><title>Node26&#45;&gt;Node27</title>
<path fill="none" stroke="midnightblue" d="M818.805,-291.399C834.209,-281.951 854.411,-269.559 869.817,-260.109"/>
<polygon fill="midnightblue" stroke="midnightblue" points="872.009,-262.87 878.703,-254.658 868.349,-256.903 872.009,-262.87"/>
</g>
<!-- Node32 -->
<g id="node33" class="node"><title>Node32</title>
<g id="a_node33"><a xlink:href="deprecated_8h.html" target="_top" xlink:title="Control deprecated API definitions. ">
<polygon fill="white" stroke="black" points="648.318,-235.5 648.318,-254.5 767.318,-254.5 767.318,-235.5 648.318,-235.5"/>
<text text-anchor="middle" x="707.818" y="-242.5" font-family="Helvetica,sans-Serif" font-size="10.00">odp/api/deprecated.h</text>
</a>
</g>
</g>
<!-- Node26&#45;&gt;Node32 -->
<g id="edge56" class="edge"><title>Node26&#45;&gt;Node32</title>
<path fill="none" stroke="midnightblue" d="M774.963,-291.399C761.121,-282.04 743.007,-269.792 729.081,-260.377"/>
<polygon fill="midnightblue" stroke="midnightblue" points="730.867,-257.36 720.623,-254.658 726.946,-263.158 730.867,-257.36"/>
</g>
<!-- Node28 -->
<g id="node29" class="node"><title>Node28</title>
<polygon fill="white" stroke="#bfbfbf" points="847.318,-168.5 847.318,-198.5 962.318,-198.5 962.318,-168.5 847.318,-168.5"/>
<text text-anchor="start" x="855.318" y="-186.5" font-family="Helvetica,sans-Serif" font-size="10.00">odp/api/abi/schedule</text>
<text text-anchor="middle" x="904.818" y="-175.5" font-family="Helvetica,sans-Serif" font-size="10.00">_types.h</text>
</g>
<!-- Node27&#45;&gt;Node28 -->
<g id="edge48" class="edge"><title>Node27&#45;&gt;Node28</title>
<path fill="none" stroke="midnightblue" d="M894.537,-235.475C895.965,-228.396 898.067,-217.97 900,-208.39"/>
<polygon fill="midnightblue" stroke="midnightblue" points="903.444,-209.018 901.99,-198.523 896.582,-207.634 903.444,-209.018"/>
</g>
<!-- Node29 -->
<g id="node30" class="node"><title>Node29</title>
<g id="a_node30"><a xlink:href="api_2spec_2schedule__types_8h.html" target="_top" xlink:title="ODP schedule types. ">
<polygon fill="white" stroke="black" points="666.318,-168.5 666.318,-198.5 789.318,-198.5 789.318,-168.5 666.318,-168.5"/>
<text text-anchor="start" x="674.318" y="-186.5" font-family="Helvetica,sans-Serif" font-size="10.00">odp/api/spec/schedule</text>
<text text-anchor="middle" x="727.818" y="-175.5" font-family="Helvetica,sans-Serif" font-size="10.00">_types.h</text>
</a>
</g>
</g>
<!-- Node27&#45;&gt;Node29 -->
<g id="edge49" class="edge"><title>Node27&#45;&gt;Node29</title>
<path fill="none" stroke="midnightblue" d="M869.177,-235.475C845.055,-226.776 806.925,-213.026 776.342,-201.998"/>
<polygon fill="midnightblue" stroke="midnightblue" points="777.299,-198.623 766.705,-198.523 774.925,-205.208 777.299,-198.623"/>
</g>
<!-- Node29&#45;&gt;Node4 -->
<g id="edge50" class="edge"><title>Node29&#45;&gt;Node4</title>
<path fill="none" stroke="midnightblue" d="M701.155,-168.407C671.742,-153.212 622.744,-128.929 578.818,-112 527.258,-92.1291 511.443,-95.7009 459.818,-76 440.126,-68.4852 435.951,-64.8422 416.818,-56 393.266,-45.1154 366.493,-32.8278 346.89,-23.8461"/>
<polygon fill="midnightblue" stroke="midnightblue" points="348.167,-20.5815 337.618,-19.5996 345.252,-26.9457 348.167,-20.5815"/>
</g>
<!-- Node29&#45;&gt;Node9 -->
<g id="edge55" class="edge"><title>Node29&#45;&gt;Node9</title>
<path fill="none" stroke="midnightblue" d="M734.113,-168.38C745.912,-143.185 773.48,-89.9464 809.818,-56 824.226,-42.5405 843.404,-31.6542 859.482,-23.9623"/>
<polygon fill="midnightblue" stroke="midnightblue" points="861.389,-26.9387 869.022,-19.5914 858.473,-20.5748 861.389,-26.9387"/>
</g>
<!-- Node30 -->
<g id="node31" class="node"><title>Node30</title>
<g id="a_node31"><a xlink:href="support_8h.html" target="_top" xlink:title="ODP support API &#45; platform specific header. ">
<polygon fill="white" stroke="black" points="469.318,-112.5 469.318,-131.5 570.318,-131.5 570.318,-112.5 469.318,-112.5"/>
<text text-anchor="middle" x="519.818" y="-119.5" font-family="Helvetica,sans-Serif" font-size="10.00">odp/api/support.h</text>
</a>
</g>
</g>
<!-- Node29&#45;&gt;Node30 -->
<g id="edge51" class="edge"><title>Node29&#45;&gt;Node30</title>
<path fill="none" stroke="midnightblue" d="M678.788,-168.475C642.434,-158.075 593.503,-144.078 559.573,-134.372"/>
<polygon fill="midnightblue" stroke="midnightblue" points="560.131,-130.892 549.554,-131.506 558.206,-137.622 560.131,-130.892"/>
</g>
<!-- Node31 -->
<g id="node32" class="node"><title>Node31</title>
<g id="a_node32"><a xlink:href="spec_2support_8h.html" target="_top" xlink:title="ODP support API. ">
<polygon fill="white" stroke="black" points="468.818,-56.5 468.818,-75.5 594.818,-75.5 594.818,-56.5 468.818,-56.5"/>
<text text-anchor="middle" x="531.818" y="-63.5" font-family="Helvetica,sans-Serif" font-size="10.00">odp/api/spec/support.h</text>
</a>
</g>
</g>
<!-- Node30&#45;&gt;Node31 -->
<g id="edge52" class="edge"><title>Node30&#45;&gt;Node31</title>
<path fill="none" stroke="midnightblue" d="M521.799,-112.083C523.39,-104.927 525.677,-94.6353 527.664,-85.6911"/>
<polygon fill="midnightblue" stroke="midnightblue" points="531.12,-86.2722 529.873,-75.7511 524.287,-84.7537 531.12,-86.2722"/>
</g>
<!-- Node31&#45;&gt;Node4 -->
<g id="edge53" class="edge"><title>Node31&#45;&gt;Node4</title>
<path fill="none" stroke="midnightblue" d="M498.067,-56.4435C461.3,-47.1221 402.372,-32.1828 362.196,-21.9972"/>
<polygon fill="midnightblue" stroke="midnightblue" points="362.964,-18.5813 352.41,-19.5164 361.244,-25.3666 362.964,-18.5813"/>
</g>
<!-- Node31&#45;&gt;Node9 -->
<g id="edge54" class="edge"><title>Node31&#45;&gt;Node9</title>
<path fill="none" stroke="midnightblue" d="M588.702,-56.4435C653.582,-46.6845 759.401,-30.7675 827.029,-20.595"/>
<polygon fill="midnightblue" stroke="midnightblue" points="827.763,-24.024 837.131,-19.0755 826.722,-17.1019 827.763,-24.024"/>
</g>
<!-- Node33 -->
<g id="node34" class="node"><title>Node33</title>
<g id="a_node34"><a xlink:href="spec_2deprecated_8h.html" target="_top" xlink:title="Macro for deprecated API definitions. ">
<polygon fill="white" stroke="black" points="818.818,-56.5 818.818,-75.5 962.818,-75.5 962.818,-56.5 818.818,-56.5"/>
<text text-anchor="middle" x="890.818" y="-63.5" font-family="Helvetica,sans-Serif" font-size="10.00">odp/api/spec/deprecated.h</text>
</a>
</g>
</g>
<!-- Node32&#45;&gt;Node33 -->
<g id="edge57" class="edge"><title>Node32&#45;&gt;Node33</title>
<path fill="none" stroke="midnightblue" d="M732.678,-235.427C751.927,-227.929 778.481,-215.632 797.818,-199 836.64,-165.609 867.409,-112.664 881.852,-85.0704"/>
<polygon fill="midnightblue" stroke="midnightblue" points="885.14,-86.3275 886.571,-75.8297 878.906,-83.1439 885.14,-86.3275"/>
</g>
<!-- Node33&#45;&gt;Node4 -->
<g id="edge58" class="edge"><title>Node33&#45;&gt;Node4</title>
<path fill="none" stroke="midnightblue" d="M818.663,-58.1882C707.374,-47.6819 495.363,-27.6668 386.71,-17.4094"/>
<polygon fill="midnightblue" stroke="midnightblue" points="386.81,-13.9033 376.525,-16.4479 386.152,-20.8723 386.81,-13.9033"/>
</g>
<!-- Node33&#45;&gt;Node9 -->
<g id="edge59" class="edge"><title>Node33&#45;&gt;Node9</title>
<path fill="none" stroke="midnightblue" d="M890.818,-56.083C890.818,-49.0059 890.818,-38.8611 890.818,-29.9865"/>
<polygon fill="midnightblue" stroke="midnightblue" points="894.318,-29.751 890.818,-19.7511 887.318,-29.7511 894.318,-29.751"/>
</g>
<!-- Node34&#45;&gt;Node4 -->
<g id="edge63" class="edge"><title>Node34&#45;&gt;Node4</title>
<path fill="none" stroke="midnightblue" d="M414.31,-470.432C332.907,-445.003 105.42,-361.41 17.8178,-199 -13.9916,-140.027 60.3361,-77.1387 91.8178,-56 117.423,-38.8071 193.963,-26.0509 251.134,-18.5937"/>
<polygon fill="midnightblue" stroke="midnightblue" points="251.73,-22.046 261.207,-17.308 250.844,-15.1023 251.73,-22.046"/>
</g>
<!-- Node34&#45;&gt;Node9 -->
<g id="edge67" class="edge"><title>Node34&#45;&gt;Node9</title>
<path fill="none" stroke="midnightblue" d="M471.038,-470.383C535.025,-450.189 700.076,-398.453 838.818,-358 896.374,-341.219 915.228,-348.878 968.818,-322 1018.09,-297.289 1066.82,-301.118 1066.82,-246 1066.82,-246 1066.82,-246 1066.82,-121 1066.82,-64.1305 999.922,-35.5728 948.614,-22.0332"/>
<polygon fill="midnightblue" stroke="midnightblue" points="949.462,-18.6373 938.911,-19.5989 947.758,-25.427 949.462,-18.6373"/>
</g>
<!-- Node34&#45;&gt;Node20 -->
<g id="edge66" class="edge"><title>Node34&#45;&gt;Node20</title>
<path fill="none" stroke="midnightblue" d="M503.764,-472.27C596.854,-461.819 774.993,-441.82 866.857,-431.507"/>
<polygon fill="midnightblue" stroke="midnightblue" points="867.268,-434.983 876.815,-430.389 866.487,-428.027 867.268,-434.983"/>
</g>
<!-- Node34&#45;&gt;Node30 -->
<g id="edge65" class="edge"><title>Node34&#45;&gt;Node30</title>
<path fill="none" stroke="midnightblue" d="M433.637,-470.465C414.443,-453.355 374.818,-412.734 374.818,-369 374.818,-369 374.818,-369 374.818,-305.5 374.818,-227.999 455.969,-164.317 496.852,-137.153"/>
<polygon fill="midnightblue" stroke="midnightblue" points="498.894,-140 505.385,-131.626 495.089,-134.125 498.894,-140"/>
</g>
<!-- Node34&#45;&gt;Node32 -->
<g id="edge64" class="edge"><title>Node34&#45;&gt;Node32</title>
<path fill="none" stroke="midnightblue" d="M452.533,-470.395C473.895,-449.562 531.052,-395.378 584.818,-358 611.933,-339.149 624.825,-343.585 649.818,-322 669.559,-304.951 686.92,-280.193 697.384,-263.616"/>
<polygon fill="midnightblue" stroke="midnightblue" points="700.472,-265.276 702.714,-254.921 694.504,-261.618 700.472,-265.276"/>
</g>
</g>
</svg>
