<?xml version="1.0" encoding="UTF-8" standalone="no"?>
<!DOCTYPE svg PUBLIC "-//W3C//DTD SVG 1.1//EN"
 "http://www.w3.org/Graphics/SVG/1.1/DTD/svg11.dtd">
<!-- Generated by graphviz version 2.38.0 (20140413.2041)
 -->
<!-- Title: packet_io.h Pages: 1 -->
<svg width="924pt" height="812pt"
 viewBox="0.00 0.00 923.50 812.00" xmlns="http://www.w3.org/2000/svg" xmlns:xlink="http://www.w3.org/1999/xlink">
<g id="graph0" class="graph" transform="scale(1 1) rotate(0) translate(4 808)">
<title>packet_io.h</title>
<polygon fill="white" stroke="none" points="-4,4 -4,-808 919.5,-808 919.5,4 -4,4"/>
<!-- Node10 -->
<g id="node1" class="node"><title>Node10</title>
<polygon fill="#bfbfbf" stroke="black" points="267,-784.5 267,-803.5 338,-803.5 338,-784.5 267,-784.5"/>
<text text-anchor="middle" x="302.5" y="-791.5" font-family="Helvetica,sans-Serif" font-size="10.00">packet_io.h</text>
</g>
<!-- Node11 -->
<g id="node2" class="node"><title>Node11</title>
<g id="a_node2"><a xlink:href="arch_2arm32-linux_2odp_2api_2abi_2packet__io_8h_source.html" target="_top" xlink:title="packet_io.h">
<polygon fill="white" stroke="black" points="0,-728.5 0,-747.5 71,-747.5 71,-728.5 0,-728.5"/>
<text text-anchor="middle" x="35.5" y="-735.5" font-family="Helvetica,sans-Serif" font-size="10.00">packet_io.h</text>
</a>
</g>
</g>
<!-- Node10&#45;&gt;Node11 -->
<g id="edge1" class="edge"><title>Node10&#45;&gt;Node11</title>
<path fill="none" stroke="midnightblue" d="M256.7,-783.737C204.084,-773.096 118.869,-755.861 71.0202,-746.184"/>
<polygon fill="midnightblue" stroke="midnightblue" points="256.273,-787.221 266.768,-785.773 257.661,-780.36 256.273,-787.221"/>
</g>
<!-- Node12 -->
<g id="node3" class="node"><title>Node12</title>
<g id="a_node3"><a xlink:href="arch_2arm64-linux_2odp_2api_2abi_2packet__io_8h_source.html" target="_top" xlink:title="packet_io.h">
<polygon fill="white" stroke="black" points="89,-728.5 89,-747.5 160,-747.5 160,-728.5 89,-728.5"/>
<text text-anchor="middle" x="124.5" y="-735.5" font-family="Helvetica,sans-Serif" font-size="10.00">packet_io.h</text>
</a>
</g>
</g>
<!-- Node10&#45;&gt;Node12 -->
<g id="edge2" class="edge"><title>Node10&#45;&gt;Node12</title>
<path fill="none" stroke="midnightblue" d="M264.383,-781.436C230.822,-771.255 182.726,-756.664 152.573,-747.516"/>
<polygon fill="midnightblue" stroke="midnightblue" points="263.71,-784.89 274.295,-784.444 265.742,-778.191 263.71,-784.89"/>
</g>
<!-- Node13 -->
<g id="node4" class="node"><title>Node13</title>
<g id="a_node4"><a xlink:href="arch_2default-linux_2odp_2api_2abi_2packet__io_8h_source.html" target="_top" xlink:title="packet_io.h">
<polygon fill="white" stroke="black" points="178,-728.5 178,-747.5 249,-747.5 249,-728.5 178,-728.5"/>
<text text-anchor="middle" x="213.5" y="-735.5" font-family="Helvetica,sans-Serif" font-size="10.00">packet_io.h</text>
</a>
</g>
</g>
<!-- Node10&#45;&gt;Node13 -->
<g id="edge3" class="edge"><title>Node10&#45;&gt;Node13</title>
<path fill="none" stroke="midnightblue" d="M279.262,-778.901C262.942,-768.999 241.635,-756.071 227.764,-747.655"/>
<polygon fill="midnightblue" stroke="midnightblue" points="277.836,-782.129 288.201,-784.324 281.467,-776.144 277.836,-782.129"/>
</g>
<!-- Node14 -->
<g id="node5" class="node"><title>Node14</title>
<g id="a_node5"><a xlink:href="arch_2mips64-linux_2odp_2api_2abi_2packet__io_8h_source.html" target="_top" xlink:title="packet_io.h">
<polygon fill="white" stroke="black" points="267,-728.5 267,-747.5 338,-747.5 338,-728.5 267,-728.5"/>
<text text-anchor="middle" x="302.5" y="-735.5" font-family="Helvetica,sans-Serif" font-size="10.00">packet_io.h</text>
</a>
</g>
</g>
<!-- Node10&#45;&gt;Node14 -->
<g id="edge4" class="edge"><title>Node10&#45;&gt;Node14</title>
<path fill="none" stroke="midnightblue" d="M302.5,-773.805C302.5,-764.91 302.5,-754.78 302.5,-747.751"/>
<polygon fill="midnightblue" stroke="midnightblue" points="299,-774.083 302.5,-784.083 306,-774.083 299,-774.083"/>
</g>
<!-- Node15 -->
<g id="node6" class="node"><title>Node15</title>
<g id="a_node6"><a xlink:href="arch_2power64-linux_2odp_2api_2abi_2packet__io_8h_source.html" target="_top" xlink:title="packet_io.h">
<polygon fill="white" stroke="black" points="356,-728.5 356,-747.5 427,-747.5 427,-728.5 356,-728.5"/>
<text text-anchor="middle" x="391.5" y="-735.5" font-family="Helvetica,sans-Serif" font-size="10.00">packet_io.h</text>
</a>
</g>
</g>
<!-- Node10&#45;&gt;Node15 -->
<g id="edge5" class="edge"><title>Node10&#45;&gt;Node15</title>
<path fill="none" stroke="midnightblue" d="M325.738,-778.901C342.058,-768.999 363.365,-756.071 377.236,-747.655"/>
<polygon fill="midnightblue" stroke="midnightblue" points="323.533,-776.144 316.799,-784.324 327.164,-782.129 323.533,-776.144"/>
</g>
<!-- Node16 -->
<g id="node7" class="node"><title>Node16</title>
<g id="a_node7"><a xlink:href="arch_2x86__32-linux_2odp_2api_2abi_2packet__io_8h_source.html" target="_top" xlink:title="packet_io.h">
<polygon fill="white" stroke="black" points="445,-728.5 445,-747.5 516,-747.5 516,-728.5 445,-728.5"/>
<text text-anchor="middle" x="480.5" y="-735.5" font-family="Helvetica,sans-Serif" font-size="10.00">packet_io.h</text>
</a>
</g>
</g>
<!-- Node10&#45;&gt;Node16 -->
<g id="edge6" class="edge"><title>Node10&#45;&gt;Node16</title>
<path fill="none" stroke="midnightblue" d="M340.617,-781.436C374.178,-771.255 422.274,-756.664 452.427,-747.516"/>
<polygon fill="midnightblue" stroke="midnightblue" points="339.258,-778.191 330.705,-784.444 341.29,-784.89 339.258,-778.191"/>
</g>
<!-- Node17 -->
<g id="node8" class="node"><title>Node17</title>
<g id="a_node8"><a xlink:href="arch_2x86__64-linux_2odp_2api_2abi_2packet__io_8h_source.html" target="_top" xlink:title="packet_io.h">
<polygon fill="white" stroke="black" points="534,-728.5 534,-747.5 605,-747.5 605,-728.5 534,-728.5"/>
<text text-anchor="middle" x="569.5" y="-735.5" font-family="Helvetica,sans-Serif" font-size="10.00">packet_io.h</text>
</a>
</g>
</g>
<!-- Node10&#45;&gt;Node17 -->
<g id="edge7" class="edge"><title>Node10&#45;&gt;Node17</title>
<path fill="none" stroke="midnightblue" d="M348.084,-783.838C393.159,-774.77 464.098,-760.475 525.5,-748 528.251,-747.441 531.098,-746.861 533.96,-746.278"/>
<polygon fill="midnightblue" stroke="midnightblue" points="347.152,-780.455 338.038,-785.859 348.532,-787.318 347.152,-780.455"/>
</g>
<!-- Node18 -->
<g id="node9" class="node"><title>Node18</title>
<g id="a_node9"><a xlink:href="api_2classification_8h.html" target="_top" xlink:title="ODP classification descriptor. ">
<polygon fill="white" stroke="black" points="385.5,-224.5 385.5,-243.5 471.5,-243.5 471.5,-224.5 385.5,-224.5"/>
<text text-anchor="middle" x="428.5" y="-231.5" font-family="Helvetica,sans-Serif" font-size="10.00">classification.h</text>
</a>
</g>
</g>
<!-- Node17&#45;&gt;Node18 -->
<g id="edge8" class="edge"><title>Node17&#45;&gt;Node18</title>
<path fill="none" stroke="midnightblue" d="M525.652,-725.933C429.677,-701.405 209.5,-643.355 209.5,-627 209.5,-627 209.5,-627 209.5,-345 209.5,-267.032 321.715,-244.322 385.494,-237.712"/>
<polygon fill="midnightblue" stroke="midnightblue" points="525.077,-729.398 535.632,-728.477 526.807,-722.615 525.077,-729.398"/>
</g>
<!-- Node23 -->
<g id="node14" class="node"><title>Node23</title>
<g id="a_node14"><a xlink:href="api_2packet_8h.html" target="_top" xlink:title="ODP packet descriptor. ">
<polygon fill="white" stroke="black" points="540.5,-672.5 540.5,-691.5 598.5,-691.5 598.5,-672.5 540.5,-672.5"/>
<text text-anchor="middle" x="569.5" y="-679.5" font-family="Helvetica,sans-Serif" font-size="10.00">packet.h</text>
</a>
</g>
</g>
<!-- Node17&#45;&gt;Node23 -->
<g id="edge14" class="edge"><title>Node17&#45;&gt;Node23</title>
<path fill="none" stroke="midnightblue" d="M569.5,-717.805C569.5,-708.91 569.5,-698.78 569.5,-691.751"/>
<polygon fill="midnightblue" stroke="midnightblue" points="566,-718.083 569.5,-728.083 573,-718.083 566,-718.083"/>
</g>
<!-- Node33 -->
<g id="node24" class="node"><title>Node33</title>
<g id="a_node24"><a xlink:href="api_2packet__io_8h.html" target="_top" xlink:title="ODP Packet IO. ">
<polygon fill="white" stroke="black" points="572,-336.5 572,-355.5 643,-355.5 643,-336.5 572,-336.5"/>
<text text-anchor="middle" x="607.5" y="-343.5" font-family="Helvetica,sans-Serif" font-size="10.00">packet_io.h</text>
</a>
</g>
</g>
<!-- Node17&#45;&gt;Node33 -->
<g id="edge48" class="edge"><title>Node17&#45;&gt;Node33</title>
<path fill="none" stroke="midnightblue" d="M615.314,-732.16C709.371,-720.948 915.5,-689.273 915.5,-627 915.5,-627 915.5,-627 915.5,-513 915.5,-444.628 878.548,-428.127 820.5,-392 765.147,-357.551 687.68,-349.095 643.033,-347.244"/>
<polygon fill="midnightblue" stroke="midnightblue" points="614.753,-728.701 605.225,-733.335 615.563,-735.654 614.753,-728.701"/>
</g>
<!-- Node19 -->
<g id="node10" class="node"><title>Node19</title>
<g id="a_node10"><a xlink:href="api_2spec_2ipsec_8h.html" target="_top" xlink:title="ODP IPSEC API. ">
<polygon fill="white" stroke="black" points="512.5,-168.5 512.5,-187.5 562.5,-187.5 562.5,-168.5 512.5,-168.5"/>
<text text-anchor="middle" x="537.5" y="-175.5" font-family="Helvetica,sans-Serif" font-size="10.00">ipsec.h</text>
</a>
</g>
</g>
<!-- Node18&#45;&gt;Node19 -->
<g id="edge9" class="edge"><title>Node18&#45;&gt;Node19</title>
<path fill="none" stroke="midnightblue" d="M455.019,-219.862C475.23,-209.849 502.487,-196.346 520.031,-187.655"/>
<polygon fill="midnightblue" stroke="midnightblue" points="453.42,-216.748 446.013,-224.324 456.527,-223.021 453.42,-216.748"/>
</g>
<!-- Node21 -->
<g id="node12" class="node"><title>Node21</title>
<g id="a_node12"><a xlink:href="odp__api_8h.html" target="_top" xlink:title="The OpenDataPlane API. ">
<polygon fill="white" stroke="black" points="576,-56.5 576,-75.5 639,-75.5 639,-56.5 576,-56.5"/>
<text text-anchor="middle" x="607.5" y="-63.5" font-family="Helvetica,sans-Serif" font-size="10.00">odp_api.h</text>
</a>
</g>
</g>
<!-- Node18&#45;&gt;Node21 -->
<g id="edge13" class="edge"><title>Node18&#45;&gt;Node21</title>
<path fill="none" stroke="midnightblue" d="M437.012,-214.883C449.922,-189.069 476.683,-141.562 511.5,-112 531.565,-94.9636 559.168,-82.9189 579.627,-75.605"/>
<polygon fill="midnightblue" stroke="midnightblue" points="433.7,-213.69 432.479,-224.214 439.997,-216.748 433.7,-213.69"/>
</g>
<!-- Node20 -->
<g id="node11" class="node"><title>Node20</title>
<g id="a_node11"><a xlink:href="api_2ipsec_8h.html" target="_top" xlink:title="ODP IPSEC API &#45; platform specific header. ">
<polygon fill="white" stroke="black" points="520.5,-112.5 520.5,-131.5 570.5,-131.5 570.5,-112.5 520.5,-112.5"/>
<text text-anchor="middle" x="545.5" y="-119.5" font-family="Helvetica,sans-Serif" font-size="10.00">ipsec.h</text>
</a>
</g>
</g>
<!-- Node19&#45;&gt;Node20 -->
<g id="edge10" class="edge"><title>Node19&#45;&gt;Node20</title>
<path fill="none" stroke="midnightblue" d="M540.3,-158.101C541.628,-149.136 543.151,-138.858 544.204,-131.751"/>
<polygon fill="midnightblue" stroke="midnightblue" points="536.824,-157.678 538.821,-168.083 543.749,-158.704 536.824,-157.678"/>
</g>
<!-- Node20&#45;&gt;Node21 -->
<g id="edge11" class="edge"><title>Node20&#45;&gt;Node21</title>
<path fill="none" stroke="midnightblue" d="M563.254,-105.537C574.308,-95.9087 588.131,-83.8694 597.357,-75.8339"/>
<polygon fill="midnightblue" stroke="midnightblue" points="560.703,-103.117 555.461,-112.324 565.301,-108.395 560.703,-103.117"/>
</g>
<!-- Node22 -->
<g id="node13" class="node"><title>Node22</title>
<g id="a_node13"><a xlink:href="odp_8h.html" target="_top" xlink:title="WARNING: THIS FILE IS DEPRECATED AND WILL BE REMOVED!!! ODP APPLICATIONS SHOULD NOW INCLUDE odp_api...">
<polygon fill="white" stroke="black" points="585.5,-0.5 585.5,-19.5 629.5,-19.5 629.5,-0.5 585.5,-0.5"/>
<text text-anchor="middle" x="607.5" y="-7.5" font-family="Helvetica,sans-Serif" font-size="10.00">odp.h</text>
</a>
</g>
</g>
<!-- Node21&#45;&gt;Node22 -->
<g id="edge12" class="edge"><title>Node21&#45;&gt;Node22</title>
<path fill="none" stroke="midnightblue" d="M607.5,-45.8045C607.5,-36.9102 607.5,-26.7798 607.5,-19.7511"/>
<polygon fill="midnightblue" stroke="midnightblue" points="604,-46.083 607.5,-56.083 611,-46.083 604,-46.083"/>
</g>
<!-- Node23&#45;&gt;Node21 -->
<g id="edge47" class="edge"><title>Node23&#45;&gt;Node21</title>
<path fill="none" stroke="midnightblue" d="M608.822,-675.422C691.855,-662.539 877.5,-627.425 877.5,-571 877.5,-571 877.5,-571 877.5,-513 877.5,-437.314 915.5,-422.686 915.5,-347 915.5,-347 915.5,-347 915.5,-177 915.5,-128.733 872.547,-131.737 828.5,-112 765.076,-83.58 683.358,-72.9369 639.206,-69.082"/>
<polygon fill="midnightblue" stroke="midnightblue" points="608.114,-671.99 598.754,-676.953 609.166,-678.91 608.114,-671.99"/>
</g>
<!-- Node24 -->
<g id="node15" class="node"><title>Node24</title>
<g id="a_node15"><a xlink:href="api_2spec_2comp_8h.html" target="_top" xlink:title="ODP Compression. ">
<polygon fill="white" stroke="black" points="305,-616.5 305,-635.5 358,-635.5 358,-616.5 305,-616.5"/>
<text text-anchor="middle" x="331.5" y="-623.5" font-family="Helvetica,sans-Serif" font-size="10.00">comp.h</text>
</a>
</g>
</g>
<!-- Node23&#45;&gt;Node24 -->
<g id="edge15" class="edge"><title>Node23&#45;&gt;Node24</title>
<path fill="none" stroke="midnightblue" d="M530.49,-672.149C481.965,-661.139 400.398,-642.632 358.353,-633.093"/>
<polygon fill="midnightblue" stroke="midnightblue" points="529.79,-675.579 540.317,-674.379 531.339,-668.753 529.79,-675.579"/>
</g>
<!-- Node26 -->
<g id="node17" class="node"><title>Node26</title>
<g id="a_node17"><a xlink:href="api_2spec_2crypto_8h.html" target="_top" xlink:title="ODP crypto. ">
<polygon fill="white" stroke="black" points="494.5,-448.5 494.5,-467.5 550.5,-467.5 550.5,-448.5 494.5,-448.5"/>
<text text-anchor="middle" x="522.5" y="-455.5" font-family="Helvetica,sans-Serif" font-size="10.00">crypto.h</text>
</a>
</g>
</g>
<!-- Node23&#45;&gt;Node26 -->
<g id="edge18" class="edge"><title>Node23&#45;&gt;Node26</title>
<path fill="none" stroke="midnightblue" d="M565.54,-662.295C555.875,-616.644 531.361,-500.854 524.381,-467.884"/>
<polygon fill="midnightblue" stroke="midnightblue" points="562.162,-663.239 567.658,-672.297 569.01,-661.789 562.162,-663.239"/>
</g>
<!-- Node28 -->
<g id="node19" class="node"><title>Node28</title>
<g id="a_node19"><a xlink:href="api_2spec_2event_8h.html" target="_top" xlink:title="ODP event. ">
<polygon fill="white" stroke="black" points="672,-616.5 672,-635.5 725,-635.5 725,-616.5 672,-616.5"/>
<text text-anchor="middle" x="698.5" y="-623.5" font-family="Helvetica,sans-Serif" font-size="10.00">event.h</text>
</a>
</g>
</g>
<!-- Node23&#45;&gt;Node28 -->
<g id="edge22" class="edge"><title>Node23&#45;&gt;Node28</title>
<path fill="none" stroke="midnightblue" d="M599.354,-668.503C623.538,-658.38 656.962,-644.388 678.155,-635.516"/>
<polygon fill="midnightblue" stroke="midnightblue" points="597.813,-665.354 589.94,-672.444 600.516,-671.811 597.813,-665.354"/>
</g>
<!-- Node32 -->
<g id="node23" class="node"><title>Node32</title>
<g id="a_node23"><a xlink:href="api_2spec_2packet__io_8h.html" target="_top" xlink:title="ODP Packet IO. ">
<polygon fill="white" stroke="black" points="572,-392.5 572,-411.5 643,-411.5 643,-392.5 572,-392.5"/>
<text text-anchor="middle" x="607.5" y="-399.5" font-family="Helvetica,sans-Serif" font-size="10.00">packet_io.h</text>
</a>
</g>
</g>
<!-- Node23&#45;&gt;Node32 -->
<g id="edge46" class="edge"><title>Node23&#45;&gt;Node32</title>
<path fill="none" stroke="midnightblue" d="M577.073,-662.88C585.366,-641.366 597.5,-604.21 597.5,-571 597.5,-571 597.5,-571 597.5,-513 597.5,-475.032 603.482,-429.993 606.193,-411.534"/>
<polygon fill="midnightblue" stroke="midnightblue" points="573.749,-661.767 573.276,-672.351 580.246,-664.372 573.749,-661.767"/>
</g>
<!-- Node39 -->
<g id="node30" class="node"><title>Node39</title>
<g id="a_node30"><a xlink:href="api_2spec_2packet__flags_8h.html" target="_top" xlink:title="ODP packet flags. ">
<polygon fill="white" stroke="black" points="401.5,-616.5 401.5,-635.5 487.5,-635.5 487.5,-616.5 401.5,-616.5"/>
<text text-anchor="middle" x="444.5" y="-623.5" font-family="Helvetica,sans-Serif" font-size="10.00">packet_flags.h</text>
</a>
</g>
</g>
<!-- Node23&#45;&gt;Node39 -->
<g id="edge43" class="edge"><title>Node23&#45;&gt;Node39</title>
<path fill="none" stroke="midnightblue" d="M540.259,-668.368C516.85,-658.255 484.659,-644.349 464.214,-635.516"/>
<polygon fill="midnightblue" stroke="midnightblue" points="539.125,-671.691 549.693,-672.444 541.901,-665.265 539.125,-671.691"/>
</g>
<!-- Node25 -->
<g id="node16" class="node"><title>Node25</title>
<g id="a_node16"><a xlink:href="api_2comp_8h.html" target="_top" xlink:title="ODP crypto. ">
<polygon fill="white" stroke="black" points="238,-504.5 238,-523.5 291,-523.5 291,-504.5 238,-504.5"/>
<text text-anchor="middle" x="264.5" y="-511.5" font-family="Helvetica,sans-Serif" font-size="10.00">comp.h</text>
</a>
</g>
</g>
<!-- Node24&#45;&gt;Node25 -->
<g id="edge16" class="edge"><title>Node24&#45;&gt;Node25</title>
<path fill="none" stroke="midnightblue" d="M320.926,-607.64C306.371,-583.744 280.719,-541.629 269.733,-523.591"/>
<polygon fill="midnightblue" stroke="midnightblue" points="318.051,-609.649 326.243,-616.368 324.03,-606.007 318.051,-609.649"/>
</g>
<!-- Node25&#45;&gt;Node21 -->
<g id="edge17" class="edge"><title>Node25&#45;&gt;Node21</title>
<path fill="none" stroke="midnightblue" d="M260.107,-494.341C255.371,-472.555 248.5,-435.374 248.5,-403 248.5,-403 248.5,-403 248.5,-177 248.5,-146.902 244.655,-131.596 267.5,-112 313.428,-72.6034 500.746,-67.3986 575.992,-66.9263"/>
<polygon fill="midnightblue" stroke="midnightblue" points="256.723,-495.241 262.342,-504.223 263.55,-493.697 256.723,-495.241"/>
</g>
<!-- Node27 -->
<g id="node18" class="node"><title>Node27</title>
<g id="a_node18"><a xlink:href="api_2crypto_8h.html" target="_top" xlink:title="ODP crypto. ">
<polygon fill="white" stroke="black" points="484.5,-336.5 484.5,-355.5 540.5,-355.5 540.5,-336.5 484.5,-336.5"/>
<text text-anchor="middle" x="512.5" y="-343.5" font-family="Helvetica,sans-Serif" font-size="10.00">crypto.h</text>
</a>
</g>
</g>
<!-- Node26&#45;&gt;Node27 -->
<g id="edge19" class="edge"><title>Node26&#45;&gt;Node27</title>
<path fill="none" stroke="midnightblue" d="M520.804,-438.348C518.614,-414.254 514.892,-373.308 513.281,-355.591"/>
<polygon fill="midnightblue" stroke="midnightblue" points="517.324,-438.726 521.715,-448.368 524.295,-438.093 517.324,-438.726"/>
</g>
<!-- Node27&#45;&gt;Node19 -->
<g id="edge20" class="edge"><title>Node27&#45;&gt;Node19</title>
<path fill="none" stroke="midnightblue" d="M512.981,-326.267C513.873,-302.336 516.399,-259.737 523.5,-224 526.051,-211.16 530.882,-196.792 534.147,-187.821"/>
<polygon fill="midnightblue" stroke="midnightblue" points="509.478,-326.298 512.661,-336.403 516.474,-326.518 509.478,-326.298"/>
</g>
<!-- Node27&#45;&gt;Node21 -->
<g id="edge21" class="edge"><title>Node27&#45;&gt;Node21</title>
<path fill="none" stroke="midnightblue" d="M473.974,-343.887C442.079,-340.679 398.548,-330.519 376.5,-300 356.72,-272.62 363.715,-255.265 376.5,-224 402.909,-159.421 427.958,-149.957 486.5,-112 514.332,-93.9542 550.425,-81.7336 575.925,-74.6342"/>
<polygon fill="midnightblue" stroke="midnightblue" points="474.046,-347.404 484.297,-344.728 474.614,-340.427 474.046,-347.404"/>
</g>
<!-- Node29 -->
<g id="node20" class="node"><title>Node29</title>
<g id="a_node20"><a xlink:href="api_2event_8h.html" target="_top" xlink:title="ODP event. ">
<polygon fill="white" stroke="black" points="719,-560.5 719,-579.5 772,-579.5 772,-560.5 719,-560.5"/>
<text text-anchor="middle" x="745.5" y="-567.5" font-family="Helvetica,sans-Serif" font-size="10.00">event.h</text>
</a>
</g>
</g>
<!-- Node28&#45;&gt;Node29 -->
<g id="edge23" class="edge"><title>Node28&#45;&gt;Node29</title>
<path fill="none" stroke="midnightblue" d="M712.921,-608.431C721.158,-598.967 731.154,-587.483 737.883,-579.751"/>
<polygon fill="midnightblue" stroke="midnightblue" points="710.186,-606.242 706.261,-616.083 715.466,-610.838 710.186,-606.242"/>
</g>
<!-- Node29&#45;&gt;Node21 -->
<g id="edge42" class="edge"><title>Node29&#45;&gt;Node21</title>
<path fill="none" stroke="midnightblue" d="M769.49,-555.022C797.34,-536.786 839.5,-502.068 839.5,-459 839.5,-459 839.5,-459 839.5,-177 839.5,-89.4085 702.811,-71.4743 639.272,-67.8693"/>
<polygon fill="midnightblue" stroke="midnightblue" points="767.62,-552.063 761.022,-560.353 771.349,-557.987 767.62,-552.063"/>
</g>
<!-- Node30 -->
<g id="node21" class="node"><title>Node30</title>
<g id="a_node21"><a xlink:href="api_2spec_2queue_8h.html" target="_top" xlink:title="ODP queue. ">
<polygon fill="white" stroke="black" points="688.5,-504.5 688.5,-523.5 744.5,-523.5 744.5,-504.5 688.5,-504.5"/>
<text text-anchor="middle" x="716.5" y="-511.5" font-family="Helvetica,sans-Serif" font-size="10.00">queue.h</text>
</a>
</g>
</g>
<!-- Node29&#45;&gt;Node30 -->
<g id="edge24" class="edge"><title>Node29&#45;&gt;Node30</title>
<path fill="none" stroke="midnightblue" d="M735.824,-550.983C730.902,-541.817 725.142,-531.092 721.2,-523.751"/>
<polygon fill="midnightblue" stroke="midnightblue" points="732.896,-552.929 740.711,-560.083 739.063,-549.617 732.896,-552.929"/>
</g>
<!-- Node37 -->
<g id="node28" class="node"><title>Node37</title>
<g id="a_node28"><a xlink:href="api_2spec_2schedule_8h.html" target="_top" xlink:title="ODP schedule. ">
<polygon fill="white" stroke="black" points="743.5,-392.5 743.5,-411.5 811.5,-411.5 811.5,-392.5 743.5,-392.5"/>
<text text-anchor="middle" x="777.5" y="-399.5" font-family="Helvetica,sans-Serif" font-size="10.00">schedule.h</text>
</a>
</g>
</g>
<!-- Node29&#45;&gt;Node37 -->
<g id="edge41" class="edge"><title>Node29&#45;&gt;Node37</title>
<path fill="none" stroke="midnightblue" d="M749.176,-549.93C756.118,-513.92 770.901,-437.231 775.848,-411.568"/>
<polygon fill="midnightblue" stroke="midnightblue" points="745.677,-549.593 747.22,-560.075 752.55,-550.918 745.677,-549.593"/>
</g>
<!-- Node31 -->
<g id="node22" class="node"><title>Node31</title>
<g id="a_node22"><a xlink:href="api_2queue_8h.html" target="_top" xlink:title="ODP queue. ">
<polygon fill="white" stroke="black" points="687.5,-448.5 687.5,-467.5 743.5,-467.5 743.5,-448.5 687.5,-448.5"/>
<text text-anchor="middle" x="715.5" y="-455.5" font-family="Helvetica,sans-Serif" font-size="10.00">queue.h</text>
</a>
</g>
</g>
<!-- Node30&#45;&gt;Node31 -->
<g id="edge25" class="edge"><title>Node30&#45;&gt;Node31</title>
<path fill="none" stroke="midnightblue" d="M716.145,-493.805C715.98,-484.91 715.792,-474.78 715.662,-467.751"/>
<polygon fill="midnightblue" stroke="midnightblue" points="712.65,-494.15 716.335,-504.083 719.649,-494.02 712.65,-494.15"/>
</g>
<!-- Node31&#45;&gt;Node21 -->
<g id="edge40" class="edge"><title>Node31&#45;&gt;Node21</title>
<path fill="none" stroke="midnightblue" d="M715.5,-438.251C715.5,-416.357 715.5,-379.052 715.5,-347 715.5,-347 715.5,-347 715.5,-177 715.5,-126.685 657.255,-90.9466 626.312,-75.5104"/>
<polygon fill="midnightblue" stroke="midnightblue" points="712,-438.442 715.5,-448.442 719,-438.442 712,-438.442"/>
</g>
<!-- Node31&#45;&gt;Node27 -->
<g id="edge26" class="edge"><title>Node31&#45;&gt;Node27</title>
<path fill="none" stroke="midnightblue" d="M702.887,-439.884C691.286,-425.26 672.839,-404.639 652.5,-392 617.154,-370.036 570.061,-357.798 540.51,-351.805"/>
<polygon fill="midnightblue" stroke="midnightblue" points="700.318,-442.285 709.181,-448.089 705.872,-438.024 700.318,-442.285"/>
</g>
<!-- Node31&#45;&gt;Node32 -->
<g id="edge27" class="edge"><title>Node31&#45;&gt;Node32</title>
<path fill="none" stroke="midnightblue" d="M688.952,-443.726C668.954,-433.727 642.113,-420.307 624.809,-411.655"/>
<polygon fill="midnightblue" stroke="midnightblue" points="687.638,-446.982 698.148,-448.324 690.769,-440.721 687.638,-446.982"/>
</g>
<!-- Node31&#45;&gt;Node37 -->
<g id="edge37" class="edge"><title>Node31&#45;&gt;Node37</title>
<path fill="none" stroke="midnightblue" d="M733.254,-441.537C744.308,-431.909 758.131,-419.869 767.357,-411.834"/>
<polygon fill="midnightblue" stroke="midnightblue" points="730.703,-439.117 725.461,-448.324 735.301,-444.395 730.703,-439.117"/>
</g>
<!-- Node32&#45;&gt;Node33 -->
<g id="edge28" class="edge"><title>Node32&#45;&gt;Node33</title>
<path fill="none" stroke="midnightblue" d="M607.5,-381.805C607.5,-372.91 607.5,-362.78 607.5,-355.751"/>
<polygon fill="midnightblue" stroke="midnightblue" points="604,-382.083 607.5,-392.083 611,-382.083 604,-382.083"/>
</g>
<!-- Node33&#45;&gt;Node19 -->
<g id="edge31" class="edge"><title>Node33&#45;&gt;Node19</title>
<path fill="none" stroke="midnightblue" d="M585.537,-330.555C575.4,-322.726 564.16,-312.165 557.5,-300 536.744,-262.087 536.33,-208.217 537.048,-187.536"/>
<polygon fill="midnightblue" stroke="midnightblue" points="583.522,-333.417 593.669,-336.463 587.637,-327.754 583.522,-333.417"/>
</g>
<!-- Node33&#45;&gt;Node21 -->
<g id="edge36" class="edge"><title>Node33&#45;&gt;Node21</title>
<path fill="none" stroke="midnightblue" d="M629.274,-330.27C639.462,-322.373 650.979,-311.835 658.5,-300 674.643,-274.598 677.5,-265.098 677.5,-235 677.5,-235 677.5,-235 677.5,-177 677.5,-133.086 637.3,-92.5583 617.829,-75.5036"/>
<polygon fill="midnightblue" stroke="midnightblue" points="627.124,-327.507 621.146,-336.254 631.274,-333.144 627.124,-327.507"/>
</g>
<!-- Node34 -->
<g id="node25" class="node"><title>Node34</title>
<g id="a_node25"><a xlink:href="api_2spec_2classification_8h.html" target="_top" xlink:title="ODP classification descriptor. ">
<polygon fill="white" stroke="black" points="385.5,-280.5 385.5,-299.5 471.5,-299.5 471.5,-280.5 385.5,-280.5"/>
<text text-anchor="middle" x="428.5" y="-287.5" font-family="Helvetica,sans-Serif" font-size="10.00">classification.h</text>
</a>
</g>
</g>
<!-- Node33&#45;&gt;Node34 -->
<g id="edge29" class="edge"><title>Node33&#45;&gt;Node34</title>
<path fill="none" stroke="midnightblue" d="M569.169,-333.436C535.42,-323.255 487.053,-308.664 456.73,-299.516"/>
<polygon fill="midnightblue" stroke="midnightblue" points="568.552,-336.906 579.137,-336.444 570.574,-330.204 568.552,-336.906"/>
</g>
<!-- Node35 -->
<g id="node26" class="node"><title>Node35</title>
<g id="a_node26"><a xlink:href="api_2spec_2traffic__mngr_8h.html" target="_top" xlink:title="Copyright (c) 2015&#45;2018, Linaro Limited All rights reserved. ">
<polygon fill="white" stroke="black" points="566,-280.5 566,-299.5 649,-299.5 649,-280.5 566,-280.5"/>
<text text-anchor="middle" x="607.5" y="-287.5" font-family="Helvetica,sans-Serif" font-size="10.00">traffic_mngr.h</text>
</a>
</g>
</g>
<!-- Node33&#45;&gt;Node35 -->
<g id="edge32" class="edge"><title>Node33&#45;&gt;Node35</title>
<path fill="none" stroke="midnightblue" d="M607.5,-325.805C607.5,-316.91 607.5,-306.78 607.5,-299.751"/>
<polygon fill="midnightblue" stroke="midnightblue" points="604,-326.083 607.5,-336.083 611,-326.083 604,-326.083"/>
</g>
<!-- Node34&#45;&gt;Node18 -->
<g id="edge30" class="edge"><title>Node34&#45;&gt;Node18</title>
<path fill="none" stroke="midnightblue" d="M428.5,-269.805C428.5,-260.91 428.5,-250.78 428.5,-243.751"/>
<polygon fill="midnightblue" stroke="midnightblue" points="425,-270.083 428.5,-280.083 432,-270.083 425,-270.083"/>
</g>
<!-- Node36 -->
<g id="node27" class="node"><title>Node36</title>
<g id="a_node27"><a xlink:href="api_2traffic__mngr_8h.html" target="_top" xlink:title="ODP Traffic manager. ">
<polygon fill="white" stroke="black" points="566,-224.5 566,-243.5 649,-243.5 649,-224.5 566,-224.5"/>
<text text-anchor="middle" x="607.5" y="-231.5" font-family="Helvetica,sans-Serif" font-size="10.00">traffic_mngr.h</text>
</a>
</g>
</g>
<!-- Node35&#45;&gt;Node36 -->
<g id="edge33" class="edge"><title>Node35&#45;&gt;Node36</title>
<path fill="none" stroke="midnightblue" d="M607.5,-269.805C607.5,-260.91 607.5,-250.78 607.5,-243.751"/>
<polygon fill="midnightblue" stroke="midnightblue" points="604,-270.083 607.5,-280.083 611,-270.083 604,-270.083"/>
</g>
<!-- Node36&#45;&gt;Node19 -->
<g id="edge34" class="edge"><title>Node36&#45;&gt;Node19</title>
<path fill="none" stroke="midnightblue" d="M588.186,-218.101C575.588,-208.382 559.572,-196.027 548.951,-187.834"/>
<polygon fill="midnightblue" stroke="midnightblue" points="586.198,-220.987 596.253,-224.324 590.473,-215.445 586.198,-220.987"/>
</g>
<!-- Node36&#45;&gt;Node21 -->
<g id="edge35" class="edge"><title>Node36&#45;&gt;Node21</title>
<path fill="none" stroke="midnightblue" d="M607.5,-213.93C607.5,-177.92 607.5,-101.231 607.5,-75.5681"/>
<polygon fill="midnightblue" stroke="midnightblue" points="604,-214.075 607.5,-224.075 611,-214.075 604,-214.075"/>
</g>
<!-- Node38 -->
<g id="node29" class="node"><title>Node38</title>
<g id="a_node29"><a xlink:href="api_2schedule_8h.html" target="_top" xlink:title="ODP schedule. ">
<polygon fill="white" stroke="black" points="743.5,-168.5 743.5,-187.5 811.5,-187.5 811.5,-168.5 743.5,-168.5"/>
<text text-anchor="middle" x="777.5" y="-175.5" font-family="Helvetica,sans-Serif" font-size="10.00">schedule.h</text>
</a>
</g>
</g>
<!-- Node37&#45;&gt;Node38 -->
<g id="edge38" class="edge"><title>Node37&#45;&gt;Node38</title>
<path fill="none" stroke="midnightblue" d="M777.5,-382.295C777.5,-336.644 777.5,-220.854 777.5,-187.884"/>
<polygon fill="midnightblue" stroke="midnightblue" points="774,-382.297 777.5,-392.297 781,-382.297 774,-382.297"/>
</g>
<!-- Node38&#45;&gt;Node21 -->
<g id="edge39" class="edge"><title>Node38&#45;&gt;Node21</title>
<path fill="none" stroke="midnightblue" d="M768.198,-159.15C759.824,-144.645 746.271,-124.592 729.5,-112 702.421,-91.6673 665.189,-79.7125 639,-73.2984"/>
<polygon fill="midnightblue" stroke="midnightblue" points="765.258,-161.069 773.143,-168.145 771.392,-157.696 765.258,-161.069"/>
</g>
<!-- Node40 -->
<g id="node31" class="node"><title>Node40</title>
<g id="a_node31"><a xlink:href="api_2packet__flags_8h.html" target="_top" xlink:title="ODP packet flags. ">
<polygon fill="white" stroke="black" points="276.5,-112.5 276.5,-131.5 362.5,-131.5 362.5,-112.5 276.5,-112.5"/>
<text text-anchor="middle" x="319.5" y="-119.5" font-family="Helvetica,sans-Serif" font-size="10.00">packet_flags.h</text>
</a>
</g>
</g>
<!-- Node39&#45;&gt;Node40 -->
<g id="edge44" class="edge"><title>Node39&#45;&gt;Node40</title>
<path fill="none" stroke="midnightblue" d="M410.941,-612.422C373.915,-596.108 319.5,-563.827 319.5,-515 319.5,-515 319.5,-515 319.5,-233 319.5,-195.188 319.5,-150.064 319.5,-131.558"/>
<polygon fill="midnightblue" stroke="midnightblue" points="409.825,-615.75 420.399,-616.413 412.546,-609.3 409.825,-615.75"/>
</g>
<!-- Node40&#45;&gt;Node21 -->
<g id="edge45" class="edge"><title>Node40&#45;&gt;Node21</title>
<path fill="none" stroke="midnightblue" d="M372.577,-111.048C432.084,-99.8905 526.648,-82.1597 575.678,-72.9666"/>
<polygon fill="midnightblue" stroke="midnightblue" points="371.8,-107.633 362.617,-112.916 373.09,-114.513 371.8,-107.633"/>
</g>
</g>
</svg>
