<?xml version="1.0" encoding="UTF-8" standalone="no"?>
<!DOCTYPE svg PUBLIC "-//W3C//DTD SVG 1.1//EN"
 "http://www.w3.org/Graphics/SVG/1.1/DTD/svg11.dtd">
<!-- Generated by graphviz version 2.38.0 (20140413.2041)
 -->
<!-- Title: cpu.h Pages: 1 -->
<svg width="786pt" height="375pt"
 viewBox="0.00 0.00 786.00 375.00" xmlns="http://www.w3.org/2000/svg" xmlns:xlink="http://www.w3.org/1999/xlink">
<g id="graph0" class="graph" transform="scale(1 1) rotate(0) translate(4 371)">
<title>cpu.h</title>
<polygon fill="white" stroke="none" points="-4,4 -4,-371 782,-371 782,4 -4,4"/>
<!-- Node0 -->
<g id="node1" class="node"><title>Node0</title>
<polygon fill="#bfbfbf" stroke="black" points="189.5,-347.5 189.5,-366.5 232.5,-366.5 232.5,-347.5 189.5,-347.5"/>
<text text-anchor="middle" x="211" y="-354.5" font-family="Helvetica,sans-Serif" font-size="10.00">cpu.h</text>
</g>
<!-- Node1 -->
<g id="node2" class="node"><title>Node1</title>
<polygon fill="white" stroke="#bfbfbf" points="85,-291.5 85,-310.5 183,-310.5 183,-291.5 85,-291.5"/>
<text text-anchor="middle" x="134" y="-298.5" font-family="Helvetica,sans-Serif" font-size="10.00">odp/api/abi/cpu.h</text>
</g>
<!-- Node0&#45;&gt;Node1 -->
<g id="edge1" class="edge"><title>Node0&#45;&gt;Node1</title>
<path fill="none" stroke="midnightblue" d="M198.629,-347.324C186.842,-339.058 168.868,-326.453 154.864,-316.632"/>
<polygon fill="midnightblue" stroke="midnightblue" points="156.538,-313.531 146.341,-310.655 152.518,-319.262 156.538,-313.531"/>
</g>
<!-- Node2 -->
<g id="node3" class="node"><title>Node2</title>
<g id="a_node3"><a xlink:href="api_2thread_8h.html" target="_top" xlink:title="ODP thread API. ">
<polygon fill="white" stroke="black" points="143.5,-123.5 143.5,-142.5 238.5,-142.5 238.5,-123.5 143.5,-123.5"/>
<text text-anchor="middle" x="191" y="-130.5" font-family="Helvetica,sans-Serif" font-size="10.00">odp/api/thread.h</text>
</a>
</g>
</g>
<!-- Node0&#45;&gt;Node2 -->
<g id="edge2" class="edge"><title>Node0&#45;&gt;Node2</title>
<path fill="none" stroke="midnightblue" d="M210.216,-347.297C207.273,-314.633 196.844,-198.866 192.708,-152.957"/>
<polygon fill="midnightblue" stroke="midnightblue" points="196.184,-152.529 191.8,-142.884 189.212,-153.157 196.184,-152.529"/>
</g>
<!-- Node8 -->
<g id="node9" class="node"><title>Node8</title>
<g id="a_node9"><a xlink:href="api_2spec_2cpu_8h.html" target="_top" xlink:title="ODP CPU API. ">
<polygon fill="white" stroke="black" points="275.5,-291.5 275.5,-310.5 382.5,-310.5 382.5,-291.5 275.5,-291.5"/>
<text text-anchor="middle" x="329" y="-298.5" font-family="Helvetica,sans-Serif" font-size="10.00">odp/api/spec/cpu.h</text>
</a>
</g>
</g>
<!-- Node0&#45;&gt;Node8 -->
<g id="edge8" class="edge"><title>Node0&#45;&gt;Node8</title>
<path fill="none" stroke="midnightblue" d="M229.697,-347.444C248.944,-338.636 279.152,-324.812 301.2,-314.722"/>
<polygon fill="midnightblue" stroke="midnightblue" points="302.753,-317.86 310.39,-310.516 299.84,-311.495 302.753,-317.86"/>
</g>
<!-- Node3 -->
<g id="node4" class="node"><title>Node3</title>
<g id="a_node4"><a xlink:href="thread__types_8h.html" target="_top" xlink:title="ODP thread API types. ">
<polygon fill="white" stroke="black" points="0,-56.5 0,-86.5 112,-86.5 112,-56.5 0,-56.5"/>
<text text-anchor="start" x="8" y="-74.5" font-family="Helvetica,sans-Serif" font-size="10.00">odp/api/spec/thread</text>
<text text-anchor="middle" x="56" y="-63.5" font-family="Helvetica,sans-Serif" font-size="10.00">_types.h</text>
</a>
</g>
</g>
<!-- Node2&#45;&gt;Node3 -->
<g id="edge3" class="edge"><title>Node2&#45;&gt;Node3</title>
<path fill="none" stroke="midnightblue" d="M171.658,-123.475C152.263,-114.927 121.801,-101.501 97.0069,-90.5734"/>
<polygon fill="midnightblue" stroke="midnightblue" points="98.3791,-87.3534 87.8168,-86.523 95.5559,-93.7588 98.3791,-87.3534"/>
</g>
<!-- Node4 -->
<g id="node5" class="node"><title>Node4</title>
<polygon fill="white" stroke="#bfbfbf" points="130.5,-62 130.5,-81 243.5,-81 243.5,-62 130.5,-62"/>
<text text-anchor="middle" x="187" y="-69" font-family="Helvetica,sans-Serif" font-size="10.00">odp/api/abi/thread.h</text>
</g>
<!-- Node2&#45;&gt;Node4 -->
<g id="edge4" class="edge"><title>Node2&#45;&gt;Node4</title>
<path fill="none" stroke="midnightblue" d="M190.427,-123.475C189.863,-115.08 188.982,-101.981 188.255,-91.1631"/>
<polygon fill="midnightblue" stroke="midnightblue" points="191.735,-90.7518 187.572,-81.0091 184.751,-91.2214 191.735,-90.7518"/>
</g>
<!-- Node5 -->
<g id="node6" class="node"><title>Node5</title>
<g id="a_node6"><a xlink:href="api_2spec_2thread_8h.html" target="_top" xlink:title="ODP thread API. ">
<polygon fill="white" stroke="black" points="300.5,-62 300.5,-81 421.5,-81 421.5,-62 300.5,-62"/>
<text text-anchor="middle" x="361" y="-69" font-family="Helvetica,sans-Serif" font-size="10.00">odp/api/spec/thread.h</text>
</a>
</g>
</g>
<!-- Node2&#45;&gt;Node5 -->
<g id="edge5" class="edge"><title>Node2&#45;&gt;Node5</title>
<path fill="none" stroke="midnightblue" d="M215.357,-123.475C244.644,-113.225 293.974,-95.9593 327.002,-84.3994"/>
<polygon fill="midnightblue" stroke="midnightblue" points="328.406,-87.6162 336.688,-81.0091 326.093,-81.0091 328.406,-87.6162"/>
</g>
<!-- Node6 -->
<g id="node7" class="node"><title>Node6</title>
<g id="a_node7"><a xlink:href="visibility__begin_8h_source.html" target="_top" xlink:title="odp/visibility_begin.h">
<polygon fill="white" stroke="black" points="347.5,-0.5 347.5,-19.5 462.5,-19.5 462.5,-0.5 347.5,-0.5"/>
<text text-anchor="middle" x="405" y="-7.5" font-family="Helvetica,sans-Serif" font-size="10.00">odp/visibility_begin.h</text>
</a>
</g>
</g>
<!-- Node5&#45;&gt;Node6 -->
<g id="edge6" class="edge"><title>Node5&#45;&gt;Node6</title>
<path fill="none" stroke="midnightblue" d="M367.304,-61.9751C373.904,-53.0501 384.437,-38.8071 392.693,-27.6425"/>
<polygon fill="midnightblue" stroke="midnightblue" points="395.576,-29.6305 398.708,-19.5091 389.948,-25.4684 395.576,-29.6305"/>
</g>
<!-- Node7 -->
<g id="node8" class="node"><title>Node7</title>
<g id="a_node8"><a xlink:href="visibility__end_8h_source.html" target="_top" xlink:title="odp/visibility_end.h">
<polygon fill="white" stroke="black" points="644.5,-0.5 644.5,-19.5 751.5,-19.5 751.5,-0.5 644.5,-0.5"/>
<text text-anchor="middle" x="698" y="-7.5" font-family="Helvetica,sans-Serif" font-size="10.00">odp/visibility_end.h</text>
</a>
</g>
</g>
<!-- Node5&#45;&gt;Node7 -->
<g id="edge7" class="edge"><title>Node5&#45;&gt;Node7</title>
<path fill="none" stroke="midnightblue" d="M409.284,-61.9751C470.094,-51.2385 574.492,-32.8063 639.691,-21.2949"/>
<polygon fill="midnightblue" stroke="midnightblue" points="640.567,-24.6945 649.806,-19.5091 639.349,-17.8012 640.567,-24.6945"/>
</g>
<!-- Node8&#45;&gt;Node6 -->
<g id="edge9" class="edge"><title>Node8&#45;&gt;Node6</title>
<path fill="none" stroke="midnightblue" d="M320.833,-291.384C305.072,-273.812 272,-231.942 272,-190 272,-190 272,-190 272,-132 272,-97.0722 268.849,-82.1534 292,-56 306.434,-39.6942 327.576,-29.2231 347.679,-22.5319"/>
<polygon fill="midnightblue" stroke="midnightblue" points="348.896,-25.8196 357.43,-19.5417 346.844,-19.1272 348.896,-25.8196"/>
</g>
<!-- Node8&#45;&gt;Node7 -->
<g id="edge21" class="edge"><title>Node8&#45;&gt;Node7</title>
<path fill="none" stroke="midnightblue" d="M382.714,-298.097C501.893,-292.415 778,-270.558 778,-190 778,-190 778,-190 778,-132 778,-87.8468 740.476,-47.4169 716.826,-26.3206"/>
<polygon fill="midnightblue" stroke="midnightblue" points="718.986,-23.5617 709.124,-19.6904 714.419,-28.8669 718.986,-23.5617"/>
</g>
<!-- Node9 -->
<g id="node10" class="node"><title>Node9</title>
<g id="a_node10"><a xlink:href="api_2std__types_8h.html" target="_top" xlink:title="Standard C language types and definitions for ODP. ">
<polygon fill="white" stroke="black" points="309,-235.5 309,-254.5 419,-254.5 419,-235.5 309,-235.5"/>
<text text-anchor="middle" x="364" y="-242.5" font-family="Helvetica,sans-Serif" font-size="10.00">odp/api/std_types.h</text>
</a>
</g>
</g>
<!-- Node8&#45;&gt;Node9 -->
<g id="edge10" class="edge"><title>Node8&#45;&gt;Node9</title>
<path fill="none" stroke="midnightblue" d="M334.78,-291.083C339.672,-283.534 346.827,-272.495 352.833,-263.23"/>
<polygon fill="midnightblue" stroke="midnightblue" points="355.826,-265.046 358.328,-254.751 349.952,-261.239 355.826,-265.046"/>
</g>
<!-- Node10 -->
<g id="node11" class="node"><title>Node10</title>
<polygon fill="white" stroke="#bfbfbf" points="300,-179.5 300,-198.5 428,-198.5 428,-179.5 300,-179.5"/>
<text text-anchor="middle" x="364" y="-186.5" font-family="Helvetica,sans-Serif" font-size="10.00">odp/api/abi/std_types.h</text>
</g>
<!-- Node9&#45;&gt;Node10 -->
<g id="edge11" class="edge"><title>Node9&#45;&gt;Node10</title>
<path fill="none" stroke="midnightblue" d="M364,-235.083C364,-228.006 364,-217.861 364,-208.986"/>
<polygon fill="midnightblue" stroke="midnightblue" points="367.5,-208.751 364,-198.751 360.5,-208.751 367.5,-208.751"/>
</g>
<!-- Node11 -->
<g id="node12" class="node"><title>Node11</title>
<g id="a_node12"><a xlink:href="api_2spec_2std__types_8h.html" target="_top" xlink:title="Standard C language types and definitions for ODP. ">
<polygon fill="white" stroke="black" points="446,-179.5 446,-198.5 582,-198.5 582,-179.5 446,-179.5"/>
<text text-anchor="middle" x="514" y="-186.5" font-family="Helvetica,sans-Serif" font-size="10.00">odp/api/spec/std_types.h</text>
</a>
</g>
</g>
<!-- Node9&#45;&gt;Node11 -->
<g id="edge12" class="edge"><title>Node9&#45;&gt;Node11</title>
<path fill="none" stroke="midnightblue" d="M387.768,-235.444C412.893,-226.399 452.711,-212.064 480.9,-201.916"/>
<polygon fill="midnightblue" stroke="midnightblue" points="482.12,-205.197 490.343,-198.516 479.749,-198.611 482.12,-205.197"/>
</g>
<!-- Node11&#45;&gt;Node6 -->
<g id="edge13" class="edge"><title>Node11&#45;&gt;Node6</title>
<path fill="none" stroke="midnightblue" d="M505.232,-179.228C496.826,-170.525 484.104,-156.562 475,-143 450.851,-107.023 451.624,-94.1073 431,-56 425.999,-46.7605 420.169,-36.6166 415.298,-28.3023"/>
<polygon fill="midnightblue" stroke="midnightblue" points="418.226,-26.3778 410.128,-19.5464 412.199,-29.937 418.226,-26.3778"/>
</g>
<!-- Node11&#45;&gt;Node7 -->
<g id="edge20" class="edge"><title>Node11&#45;&gt;Node7</title>
<path fill="none" stroke="midnightblue" d="M572.115,-179.392C623.324,-168.194 693.871,-142.95 721,-87 730.264,-67.8937 720.054,-44.2655 710.45,-28.4739"/>
<polygon fill="midnightblue" stroke="midnightblue" points="713.144,-26.2004 704.728,-19.7645 707.294,-30.044 713.144,-26.2004"/>
</g>
<!-- Node12 -->
<g id="node13" class="node"><title>Node12</title>
<polygon fill="white" stroke="#bfbfbf" points="483.5,-123.5 483.5,-142.5 536.5,-142.5 536.5,-123.5 483.5,-123.5"/>
<text text-anchor="middle" x="510" y="-130.5" font-family="Helvetica,sans-Serif" font-size="10.00">stdint.h</text>
</g>
<!-- Node11&#45;&gt;Node12 -->
<g id="edge14" class="edge"><title>Node11&#45;&gt;Node12</title>
<path fill="none" stroke="midnightblue" d="M513.339,-179.083C512.815,-172.006 512.064,-161.861 511.406,-152.986"/>
<polygon fill="midnightblue" stroke="midnightblue" points="514.877,-152.465 510.648,-142.751 507.897,-152.982 514.877,-152.465"/>
</g>
<!-- Node13 -->
<g id="node14" class="node"><title>Node13</title>
<g id="a_node14"><a xlink:href="api_2align_8h.html" target="_top" xlink:title="ODP alignments. ">
<polygon fill="white" stroke="black" points="555,-123.5 555,-142.5 641,-142.5 641,-123.5 555,-123.5"/>
<text text-anchor="middle" x="598" y="-130.5" font-family="Helvetica,sans-Serif" font-size="10.00">odp/api/align.h</text>
</a>
</g>
</g>
<!-- Node11&#45;&gt;Node13 -->
<g id="edge15" class="edge"><title>Node11&#45;&gt;Node13</title>
<path fill="none" stroke="midnightblue" d="M527.496,-179.324C540.6,-170.9 560.712,-157.971 576.107,-148.074"/>
<polygon fill="midnightblue" stroke="midnightblue" points="578.018,-151.006 584.537,-142.655 574.233,-145.118 578.018,-151.006"/>
</g>
<!-- Node14 -->
<g id="node15" class="node"><title>Node14</title>
<polygon fill="white" stroke="#bfbfbf" points="478,-62 478,-81 582,-81 582,-62 478,-62"/>
<text text-anchor="middle" x="530" y="-69" font-family="Helvetica,sans-Serif" font-size="10.00">odp/api/abi/align.h</text>
</g>
<!-- Node13&#45;&gt;Node14 -->
<g id="edge16" class="edge"><title>Node13&#45;&gt;Node14</title>
<path fill="none" stroke="midnightblue" d="M588.257,-123.475C577.653,-114.197 560.481,-99.1706 547.521,-87.831"/>
<polygon fill="midnightblue" stroke="midnightblue" points="549.555,-84.9601 539.725,-81.0091 544.946,-90.2282 549.555,-84.9601"/>
</g>
<!-- Node15 -->
<g id="node16" class="node"><title>Node15</title>
<g id="a_node16"><a xlink:href="api_2spec_2align_8h.html" target="_top" xlink:title="ODP alignments. ">
<polygon fill="white" stroke="black" points="600,-62 600,-81 712,-81 712,-62 600,-62"/>
<text text-anchor="middle" x="656" y="-69" font-family="Helvetica,sans-Serif" font-size="10.00">odp/api/spec/align.h</text>
</a>
</g>
</g>
<!-- Node13&#45;&gt;Node15 -->
<g id="edge17" class="edge"><title>Node13&#45;&gt;Node15</title>
<path fill="none" stroke="midnightblue" d="M606.31,-123.475C615.182,-114.373 629.446,-99.741 640.42,-88.483"/>
<polygon fill="midnightblue" stroke="midnightblue" points="643.231,-90.613 647.705,-81.0091 638.219,-85.7268 643.231,-90.613"/>
</g>
<!-- Node15&#45;&gt;Node6 -->
<g id="edge18" class="edge"><title>Node15&#45;&gt;Node6</title>
<path fill="none" stroke="midnightblue" d="M620.038,-61.9751C575.491,-51.4153 499.541,-33.411 450.851,-21.8689"/>
<polygon fill="midnightblue" stroke="midnightblue" points="451.433,-18.4101 440.895,-19.5091 449.818,-25.2214 451.433,-18.4101"/>
</g>
<!-- Node15&#45;&gt;Node7 -->
<g id="edge19" class="edge"><title>Node15&#45;&gt;Node7</title>
<path fill="none" stroke="midnightblue" d="M662.018,-61.9751C668.255,-53.1384 678.173,-39.0886 686.018,-27.975"/>
<polygon fill="midnightblue" stroke="midnightblue" points="689.086,-29.6972 691.994,-19.5091 683.367,-25.6604 689.086,-29.6972"/>
</g>
</g>
</svg>
