<?xml version="1.0" encoding="UTF-8" standalone="no"?>
<!DOCTYPE svg PUBLIC "-//W3C//DTD SVG 1.1//EN"
 "http://www.w3.org/Graphics/SVG/1.1/DTD/svg11.dtd">
<!-- Generated by graphviz version 2.38.0 (20140413.2041)
 -->
<!-- Title: std_types.h Pages: 1 -->
<svg width="293pt" height="196pt"
 viewBox="0.00 0.00 293.07 196.00" xmlns="http://www.w3.org/2000/svg" xmlns:xlink="http://www.w3.org/1999/xlink">
<g id="graph0" class="graph" transform="scale(1 1) rotate(0) translate(4 192)">
<title>std_types.h</title>
<polygon fill="white" stroke="none" points="-4,4 -4,-192 289.074,-192 289.074,4 -4,4"/>
<!-- Node0 -->
<g id="node1" class="node"><title>Node0</title>
<polygon fill="#bfbfbf" stroke="black" points="77.5745,-168.5 77.5745,-187.5 149.574,-187.5 149.574,-168.5 77.5745,-168.5"/>
<text text-anchor="middle" x="113.574" y="-175.5" font-family="Helvetica,sans-Serif" font-size="10.00">std_types.h</text>
</g>
<!-- Node1 -->
<g id="node2" class="node"><title>Node1</title>
<g id="a_node2"><a xlink:href="visibility__begin_8h_source.html" target="_top" xlink:title="odp/visibility_begin.h">
<polygon fill="white" stroke="black" points="7.07448,-0.5 7.07448,-19.5 122.074,-19.5 122.074,-0.5 7.07448,-0.5"/>
<text text-anchor="middle" x="64.5745" y="-7.5" font-family="Helvetica,sans-Serif" font-size="10.00">odp/visibility_begin.h</text>
</a>
</g>
</g>
<!-- Node0&#45;&gt;Node1 -->
<g id="edge1" class="edge"><title>Node0&#45;&gt;Node1</title>
<path fill="none" stroke="midnightblue" d="M91.0376,-168.358C73.6846,-160.822 49.9697,-148.507 33.5745,-132 13.5274,-111.816 9.6895,-103.544 2.57448,-76 0.351311,-67.3936 -1.4629,-63.9191 2.57448,-56 9.57454,-42.2698 22.9402,-31.7496 35.4747,-24.3465"/>
<polygon fill="midnightblue" stroke="midnightblue" points="37.2482,-27.366 44.3519,-19.5055 33.8968,-21.2204 37.2482,-27.366"/>
</g>
<!-- Node2 -->
<g id="node3" class="node"><title>Node2</title>
<polygon fill="white" stroke="#bfbfbf" points="43.0745,-112.5 43.0745,-131.5 96.0745,-131.5 96.0745,-112.5 43.0745,-112.5"/>
<text text-anchor="middle" x="69.5745" y="-119.5" font-family="Helvetica,sans-Serif" font-size="10.00">stdint.h</text>
</g>
<!-- Node0&#45;&gt;Node2 -->
<g id="edge2" class="edge"><title>Node0&#45;&gt;Node2</title>
<path fill="none" stroke="midnightblue" d="M106.309,-168.083C100.03,-160.377 90.7868,-149.033 83.1436,-139.653"/>
<polygon fill="midnightblue" stroke="midnightblue" points="85.7351,-137.293 76.705,-131.751 80.3084,-141.714 85.7351,-137.293"/>
</g>
<!-- Node3 -->
<g id="node4" class="node"><title>Node3</title>
<g id="a_node4"><a xlink:href="api_2align_8h.html" target="_top" xlink:title="ODP alignments. ">
<polygon fill="white" stroke="black" points="114.574,-112.5 114.574,-131.5 200.574,-131.5 200.574,-112.5 114.574,-112.5"/>
<text text-anchor="middle" x="157.574" y="-119.5" font-family="Helvetica,sans-Serif" font-size="10.00">odp/api/align.h</text>
</a>
</g>
</g>
<!-- Node0&#45;&gt;Node3 -->
<g id="edge3" class="edge"><title>Node0&#45;&gt;Node3</title>
<path fill="none" stroke="midnightblue" d="M120.84,-168.083C127.119,-160.377 136.362,-149.033 144.005,-139.653"/>
<polygon fill="midnightblue" stroke="midnightblue" points="146.841,-141.714 150.444,-131.751 141.414,-137.293 146.841,-141.714"/>
</g>
<!-- Node6 -->
<g id="node7" class="node"><title>Node6</title>
<g id="a_node7"><a xlink:href="visibility__end_8h_source.html" target="_top" xlink:title="odp/visibility_end.h">
<polygon fill="white" stroke="black" points="178.074,-0.5 178.074,-19.5 285.074,-19.5 285.074,-0.5 178.074,-0.5"/>
<text text-anchor="middle" x="231.574" y="-7.5" font-family="Helvetica,sans-Serif" font-size="10.00">odp/visibility_end.h</text>
</a>
</g>
</g>
<!-- Node0&#45;&gt;Node6 -->
<g id="edge8" class="edge"><title>Node0&#45;&gt;Node6</title>
<path fill="none" stroke="midnightblue" d="M140.514,-168.444C176.248,-155.31 236.878,-126.274 254.574,-76 260.267,-59.827 252.39,-41.4036 244.345,-28.311"/>
<polygon fill="midnightblue" stroke="midnightblue" points="247.129,-26.1793 238.649,-19.8281 241.318,-30.0814 247.129,-26.1793"/>
</g>
<!-- Node4 -->
<g id="node5" class="node"><title>Node4</title>
<polygon fill="white" stroke="#bfbfbf" points="11.5745,-56.5 11.5745,-75.5 115.574,-75.5 115.574,-56.5 11.5745,-56.5"/>
<text text-anchor="middle" x="63.5745" y="-63.5" font-family="Helvetica,sans-Serif" font-size="10.00">odp/api/abi/align.h</text>
</g>
<!-- Node3&#45;&gt;Node4 -->
<g id="edge4" class="edge"><title>Node3&#45;&gt;Node4</title>
<path fill="none" stroke="midnightblue" d="M142.472,-112.324C127.671,-103.822 104.88,-90.7288 87.5923,-80.7975"/>
<polygon fill="midnightblue" stroke="midnightblue" points="89.0543,-77.6009 78.6397,-75.6545 85.5673,-83.6707 89.0543,-77.6009"/>
</g>
<!-- Node5 -->
<g id="node6" class="node"><title>Node5</title>
<g id="a_node6"><a xlink:href="api_2spec_2align_8h.html" target="_top" xlink:title="ODP alignments. ">
<polygon fill="white" stroke="black" points="133.574,-56.5 133.574,-75.5 245.574,-75.5 245.574,-56.5 133.574,-56.5"/>
<text text-anchor="middle" x="189.574" y="-63.5" font-family="Helvetica,sans-Serif" font-size="10.00">odp/api/spec/align.h</text>
</a>
</g>
</g>
<!-- Node3&#45;&gt;Node5 -->
<g id="edge5" class="edge"><title>Node3&#45;&gt;Node5</title>
<path fill="none" stroke="midnightblue" d="M162.859,-112.083C167.285,-104.613 173.738,-93.7244 179.192,-84.5199"/>
<polygon fill="midnightblue" stroke="midnightblue" points="182.302,-86.1383 184.389,-75.7511 176.28,-82.5697 182.302,-86.1383"/>
</g>
<!-- Node5&#45;&gt;Node1 -->
<g id="edge6" class="edge"><title>Node5&#45;&gt;Node1</title>
<path fill="none" stroke="midnightblue" d="M169.768,-56.4435C149.288,-47.5961 117.092,-33.6875 93.7098,-23.5865"/>
<polygon fill="midnightblue" stroke="midnightblue" points="94.8565,-20.2692 84.2884,-19.5164 92.0804,-26.6953 94.8565,-20.2692"/>
</g>
<!-- Node5&#45;&gt;Node6 -->
<g id="edge7" class="edge"><title>Node5&#45;&gt;Node6</title>
<path fill="none" stroke="midnightblue" d="M196.51,-56.083C202.504,-48.3768 211.326,-37.0333 218.622,-27.6531"/>
<polygon fill="midnightblue" stroke="midnightblue" points="221.391,-29.7934 224.768,-19.7511 215.866,-25.4958 221.391,-29.7934"/>
</g>
</g>
</svg>
