<?xml version="1.0" encoding="UTF-8" standalone="no"?>
<!DOCTYPE svg PUBLIC "-//W3C//DTD SVG 1.1//EN"
 "http://www.w3.org/Graphics/SVG/1.1/DTD/svg11.dtd">
<!-- Generated by graphviz version 2.38.0 (20140413.2041)
 -->
<!-- Title: barrier.h Pages: 1 -->
<svg width="662pt" height="308pt"
 viewBox="0.00 0.00 661.50 308.00" xmlns="http://www.w3.org/2000/svg" xmlns:xlink="http://www.w3.org/1999/xlink">
<g id="graph0" class="graph" transform="scale(1 1) rotate(0) translate(4 304)">
<title>barrier.h</title>
<polygon fill="white" stroke="none" points="-4,4 -4,-304 657.5,-304 657.5,4 -4,4"/>
<!-- Node0 -->
<g id="node1" class="node"><title>Node0</title>
<polygon fill="#bfbfbf" stroke="black" points="371.5,-280.5 371.5,-299.5 427.5,-299.5 427.5,-280.5 371.5,-280.5"/>
<text text-anchor="middle" x="399.5" y="-287.5" font-family="Helvetica,sans-Serif" font-size="10.00">barrier.h</text>
</g>
<!-- Node1 -->
<g id="node2" class="node"><title>Node1</title>
<g id="a_node2"><a xlink:href="api_2std__types_8h.html" target="_top" xlink:title="Standard C language types and definitions for ODP. ">
<polygon fill="white" stroke="black" points="291.5,-224.5 291.5,-243.5 401.5,-243.5 401.5,-224.5 291.5,-224.5"/>
<text text-anchor="middle" x="346.5" y="-231.5" font-family="Helvetica,sans-Serif" font-size="10.00">odp/api/std_types.h</text>
</a>
</g>
</g>
<!-- Node0&#45;&gt;Node1 -->
<g id="edge1" class="edge"><title>Node0&#45;&gt;Node1</title>
<path fill="none" stroke="midnightblue" d="M390.748,-280.083C383.03,-272.22 371.595,-260.569 362.283,-251.081"/>
<polygon fill="midnightblue" stroke="midnightblue" points="364.592,-248.436 355.089,-243.751 359.596,-253.34 364.592,-248.436"/>
</g>
<!-- Node10 -->
<g id="node11" class="node"><title>Node10</title>
<g id="a_node11"><a xlink:href="api_2atomic_8h.html" target="_top" xlink:title="ODP atomic operations. ">
<polygon fill="white" stroke="black" points="412,-112.5 412,-131.5 509,-131.5 509,-112.5 412,-112.5"/>
<text text-anchor="middle" x="460.5" y="-119.5" font-family="Helvetica,sans-Serif" font-size="10.00">odp/api/atomic.h</text>
</a>
</g>
</g>
<!-- Node0&#45;&gt;Node10 -->
<g id="edge12" class="edge"><title>Node0&#45;&gt;Node10</title>
<path fill="none" stroke="midnightblue" d="M402.78,-280.075C412.423,-253.832 440.824,-176.545 453.843,-141.117"/>
<polygon fill="midnightblue" stroke="midnightblue" points="457.187,-142.162 457.351,-131.568 450.617,-139.747 457.187,-142.162"/>
</g>
<!-- Node2 -->
<g id="node3" class="node"><title>Node2</title>
<polygon fill="white" stroke="#bfbfbf" points="282.5,-168.5 282.5,-187.5 410.5,-187.5 410.5,-168.5 282.5,-168.5"/>
<text text-anchor="middle" x="346.5" y="-175.5" font-family="Helvetica,sans-Serif" font-size="10.00">odp/api/abi/std_types.h</text>
</g>
<!-- Node1&#45;&gt;Node2 -->
<g id="edge2" class="edge"><title>Node1&#45;&gt;Node2</title>
<path fill="none" stroke="midnightblue" d="M346.5,-224.083C346.5,-217.006 346.5,-206.861 346.5,-197.986"/>
<polygon fill="midnightblue" stroke="midnightblue" points="350,-197.751 346.5,-187.751 343,-197.751 350,-197.751"/>
</g>
<!-- Node3 -->
<g id="node4" class="node"><title>Node3</title>
<g id="a_node4"><a xlink:href="api_2spec_2std__types_8h.html" target="_top" xlink:title="Standard C language types and definitions for ODP. ">
<polygon fill="white" stroke="black" points="100.5,-168.5 100.5,-187.5 236.5,-187.5 236.5,-168.5 100.5,-168.5"/>
<text text-anchor="middle" x="168.5" y="-175.5" font-family="Helvetica,sans-Serif" font-size="10.00">odp/api/spec/std_types.h</text>
</a>
</g>
</g>
<!-- Node1&#45;&gt;Node3 -->
<g id="edge3" class="edge"><title>Node1&#45;&gt;Node3</title>
<path fill="none" stroke="midnightblue" d="M318.295,-224.444C288.09,-215.28 239.989,-200.688 206.471,-190.519"/>
<polygon fill="midnightblue" stroke="midnightblue" points="207.158,-187.07 196.573,-187.516 205.126,-193.769 207.158,-187.07"/>
</g>
<!-- Node4 -->
<g id="node5" class="node"><title>Node4</title>
<g id="a_node5"><a xlink:href="visibility__begin_8h_source.html" target="_top" xlink:title="odp/visibility_begin.h">
<polygon fill="white" stroke="black" points="336,-0.5 336,-19.5 451,-19.5 451,-0.5 336,-0.5"/>
<text text-anchor="middle" x="393.5" y="-7.5" font-family="Helvetica,sans-Serif" font-size="10.00">odp/visibility_begin.h</text>
</a>
</g>
</g>
<!-- Node3&#45;&gt;Node4 -->
<g id="edge4" class="edge"><title>Node3&#45;&gt;Node4</title>
<path fill="none" stroke="midnightblue" d="M192.39,-168.43C229.979,-154.024 303.67,-121.951 352.5,-76 366.886,-62.4619 378.346,-42.8406 385.453,-28.7015"/>
<polygon fill="midnightblue" stroke="midnightblue" points="388.677,-30.0714 389.837,-19.5402 382.363,-27.0493 388.677,-30.0714"/>
</g>
<!-- Node5 -->
<g id="node6" class="node"><title>Node5</title>
<polygon fill="white" stroke="#bfbfbf" points="0,-112.5 0,-131.5 53,-131.5 53,-112.5 0,-112.5"/>
<text text-anchor="middle" x="26.5" y="-119.5" font-family="Helvetica,sans-Serif" font-size="10.00">stdint.h</text>
</g>
<!-- Node3&#45;&gt;Node5 -->
<g id="edge5" class="edge"><title>Node3&#45;&gt;Node5</title>
<path fill="none" stroke="midnightblue" d="M146,-168.444C122.423,-159.478 85.1776,-145.314 58.536,-135.183"/>
<polygon fill="midnightblue" stroke="midnightblue" points="59.4861,-131.8 48.8951,-131.516 56.9979,-138.342 59.4861,-131.8"/>
</g>
<!-- Node6 -->
<g id="node7" class="node"><title>Node6</title>
<g id="a_node7"><a xlink:href="api_2align_8h.html" target="_top" xlink:title="ODP alignments. ">
<polygon fill="white" stroke="black" points="125.5,-112.5 125.5,-131.5 211.5,-131.5 211.5,-112.5 125.5,-112.5"/>
<text text-anchor="middle" x="168.5" y="-119.5" font-family="Helvetica,sans-Serif" font-size="10.00">odp/api/align.h</text>
</a>
</g>
</g>
<!-- Node3&#45;&gt;Node6 -->
<g id="edge6" class="edge"><title>Node3&#45;&gt;Node6</title>
<path fill="none" stroke="midnightblue" d="M168.5,-168.083C168.5,-161.006 168.5,-150.861 168.5,-141.986"/>
<polygon fill="midnightblue" stroke="midnightblue" points="172,-141.751 168.5,-131.751 165,-141.751 172,-141.751"/>
</g>
<!-- Node9 -->
<g id="node10" class="node"><title>Node9</title>
<g id="a_node10"><a xlink:href="visibility__end_8h_source.html" target="_top" xlink:title="odp/visibility_end.h">
<polygon fill="white" stroke="black" points="211,-0.5 211,-19.5 318,-19.5 318,-0.5 211,-0.5"/>
<text text-anchor="middle" x="264.5" y="-7.5" font-family="Helvetica,sans-Serif" font-size="10.00">odp/visibility_end.h</text>
</a>
</g>
</g>
<!-- Node3&#45;&gt;Node9 -->
<g id="edge11" class="edge"><title>Node3&#45;&gt;Node9</title>
<path fill="none" stroke="midnightblue" d="M154.559,-168.329C142.762,-160.295 126.26,-147.299 116.5,-132 97.9348,-102.899 79.5689,-83.448 100.5,-56 112.946,-39.6791 160.248,-27.8127 200.873,-20.3764"/>
<polygon fill="midnightblue" stroke="midnightblue" points="201.525,-23.8155 210.762,-18.6273 200.306,-16.9225 201.525,-23.8155"/>
</g>
<!-- Node7 -->
<g id="node8" class="node"><title>Node7</title>
<polygon fill="white" stroke="#bfbfbf" points="109.5,-56.5 109.5,-75.5 213.5,-75.5 213.5,-56.5 109.5,-56.5"/>
<text text-anchor="middle" x="161.5" y="-63.5" font-family="Helvetica,sans-Serif" font-size="10.00">odp/api/abi/align.h</text>
</g>
<!-- Node6&#45;&gt;Node7 -->
<g id="edge7" class="edge"><title>Node6&#45;&gt;Node7</title>
<path fill="none" stroke="midnightblue" d="M167.344,-112.083C166.416,-104.927 165.082,-94.6353 163.923,-85.6911"/>
<polygon fill="midnightblue" stroke="midnightblue" points="167.391,-85.2181 162.634,-75.7511 160.449,-86.1181 167.391,-85.2181"/>
</g>
<!-- Node8 -->
<g id="node9" class="node"><title>Node8</title>
<g id="a_node9"><a xlink:href="api_2spec_2align_8h.html" target="_top" xlink:title="ODP alignments. ">
<polygon fill="white" stroke="black" points="231.5,-56.5 231.5,-75.5 343.5,-75.5 343.5,-56.5 231.5,-56.5"/>
<text text-anchor="middle" x="287.5" y="-63.5" font-family="Helvetica,sans-Serif" font-size="10.00">odp/api/spec/align.h</text>
</a>
</g>
</g>
<!-- Node6&#45;&gt;Node8 -->
<g id="edge8" class="edge"><title>Node6&#45;&gt;Node8</title>
<path fill="none" stroke="midnightblue" d="M187.356,-112.444C206.766,-103.636 237.23,-89.8116 259.465,-79.722"/>
<polygon fill="midnightblue" stroke="midnightblue" points="261.072,-82.836 268.732,-75.5164 258.18,-76.4615 261.072,-82.836"/>
</g>
<!-- Node8&#45;&gt;Node4 -->
<g id="edge9" class="edge"><title>Node8&#45;&gt;Node4</title>
<path fill="none" stroke="midnightblue" d="M304.531,-56.324C321.53,-47.6641 347.876,-34.2424 367.493,-24.249"/>
<polygon fill="midnightblue" stroke="midnightblue" points="369.19,-27.3125 376.512,-19.6545 366.012,-21.0752 369.19,-27.3125"/>
</g>
<!-- Node8&#45;&gt;Node9 -->
<g id="edge10" class="edge"><title>Node8&#45;&gt;Node9</title>
<path fill="none" stroke="midnightblue" d="M283.702,-56.083C280.587,-48.77 276.077,-38.1814 272.211,-29.1034"/>
<polygon fill="midnightblue" stroke="midnightblue" points="275.366,-27.5798 268.227,-19.7511 268.926,-30.3229 275.366,-27.5798"/>
</g>
<!-- Node11 -->
<g id="node12" class="node"><title>Node11</title>
<polygon fill="white" stroke="#bfbfbf" points="539.5,-56.5 539.5,-75.5 653.5,-75.5 653.5,-56.5 539.5,-56.5"/>
<text text-anchor="middle" x="596.5" y="-63.5" font-family="Helvetica,sans-Serif" font-size="10.00">odp/api/abi/atomic.h</text>
</g>
<!-- Node10&#45;&gt;Node11 -->
<g id="edge13" class="edge"><title>Node10&#45;&gt;Node11</title>
<path fill="none" stroke="midnightblue" d="M482.05,-112.444C504.531,-103.517 539.988,-89.4387 565.48,-79.3168"/>
<polygon fill="midnightblue" stroke="midnightblue" points="567.049,-82.4598 575.051,-75.5164 564.465,-75.9539 567.049,-82.4598"/>
</g>
<!-- Node12 -->
<g id="node13" class="node"><title>Node12</title>
<g id="a_node13"><a xlink:href="api_2spec_2atomic_8h.html" target="_top" xlink:title="ODP atomic operations. ">
<polygon fill="white" stroke="black" points="399.5,-56.5 399.5,-75.5 521.5,-75.5 521.5,-56.5 399.5,-56.5"/>
<text text-anchor="middle" x="460.5" y="-63.5" font-family="Helvetica,sans-Serif" font-size="10.00">odp/api/spec/atomic.h</text>
</a>
</g>
</g>
<!-- Node10&#45;&gt;Node12 -->
<g id="edge14" class="edge"><title>Node10&#45;&gt;Node12</title>
<path fill="none" stroke="midnightblue" d="M460.5,-112.083C460.5,-105.006 460.5,-94.8611 460.5,-85.9865"/>
<polygon fill="midnightblue" stroke="midnightblue" points="464,-85.751 460.5,-75.7511 457,-85.7511 464,-85.751"/>
</g>
<!-- Node12&#45;&gt;Node4 -->
<g id="edge15" class="edge"><title>Node12&#45;&gt;Node4</title>
<path fill="none" stroke="midnightblue" d="M449.735,-56.324C439.734,-48.2631 424.613,-36.0765 412.57,-26.3695"/>
<polygon fill="midnightblue" stroke="midnightblue" points="414.443,-23.3841 404.461,-19.8339 410.05,-28.8343 414.443,-23.3841"/>
</g>
<!-- Node12&#45;&gt;Node9 -->
<g id="edge16" class="edge"><title>Node12&#45;&gt;Node9</title>
<path fill="none" stroke="midnightblue" d="M429.443,-56.4435C395.897,-47.2011 342.303,-32.4356 305.359,-22.2572"/>
<polygon fill="midnightblue" stroke="midnightblue" points="305.982,-18.7984 295.411,-19.5164 304.123,-25.5469 305.982,-18.7984"/>
</g>
</g>
</svg>
