<?xml version="1.0" encoding="UTF-8" standalone="no"?>
<!DOCTYPE svg PUBLIC "-//W3C//DTD SVG 1.1//EN"
 "http://www.w3.org/Graphics/SVG/1.1/DTD/svg11.dtd">
<!-- Generated by graphviz version 2.38.0 (20140413.2041)
 -->
<!-- Title: queue_types.h Pages: 1 -->
<svg width="460pt" height="588pt"
 viewBox="0.00 0.00 460.00 588.00" xmlns="http://www.w3.org/2000/svg" xmlns:xlink="http://www.w3.org/1999/xlink">
<g id="graph0" class="graph" transform="scale(1 1) rotate(0) translate(4 584)">
<title>queue_types.h</title>
<polygon fill="white" stroke="none" points="-4,4 -4,-584 456,-584 456,4 -4,4"/>
<!-- Node10 -->
<g id="node1" class="node"><title>Node10</title>
<polygon fill="#bfbfbf" stroke="black" points="100.5,-560.5 100.5,-579.5 187.5,-579.5 187.5,-560.5 100.5,-560.5"/>
<text text-anchor="middle" x="144" y="-567.5" font-family="Helvetica,sans-Serif" font-size="10.00">queue_types.h</text>
</g>
<!-- Node11 -->
<g id="node2" class="node"><title>Node11</title>
<g id="a_node2"><a xlink:href="api_2spec_2queue_8h.html" target="_top" xlink:title="ODP queue. ">
<polygon fill="white" stroke="black" points="116,-504.5 116,-523.5 172,-523.5 172,-504.5 116,-504.5"/>
<text text-anchor="middle" x="144" y="-511.5" font-family="Helvetica,sans-Serif" font-size="10.00">queue.h</text>
</a>
</g>
</g>
<!-- Node10&#45;&gt;Node11 -->
<g id="edge1" class="edge"><title>Node10&#45;&gt;Node11</title>
<path fill="none" stroke="midnightblue" d="M144,-549.805C144,-540.91 144,-530.78 144,-523.751"/>
<polygon fill="midnightblue" stroke="midnightblue" points="140.5,-550.083 144,-560.083 147.5,-550.083 140.5,-550.083"/>
</g>
<!-- Node12 -->
<g id="node3" class="node"><title>Node12</title>
<g id="a_node3"><a xlink:href="api_2queue_8h.html" target="_top" xlink:title="ODP queue. ">
<polygon fill="white" stroke="black" points="116,-448.5 116,-467.5 172,-467.5 172,-448.5 116,-448.5"/>
<text text-anchor="middle" x="144" y="-455.5" font-family="Helvetica,sans-Serif" font-size="10.00">queue.h</text>
</a>
</g>
</g>
<!-- Node11&#45;&gt;Node12 -->
<g id="edge2" class="edge"><title>Node11&#45;&gt;Node12</title>
<path fill="none" stroke="midnightblue" d="M144,-493.805C144,-484.91 144,-474.78 144,-467.751"/>
<polygon fill="midnightblue" stroke="midnightblue" points="140.5,-494.083 144,-504.083 147.5,-494.083 140.5,-494.083"/>
</g>
<!-- Node13 -->
<g id="node4" class="node"><title>Node13</title>
<g id="a_node4"><a xlink:href="api_2crypto_8h.html" target="_top" xlink:title="ODP crypto. ">
<polygon fill="white" stroke="black" points="28,-224.5 28,-243.5 84,-243.5 84,-224.5 28,-224.5"/>
<text text-anchor="middle" x="56" y="-231.5" font-family="Helvetica,sans-Serif" font-size="10.00">crypto.h</text>
</a>
</g>
</g>
<!-- Node12&#45;&gt;Node13 -->
<g id="edge3" class="edge"><title>Node12&#45;&gt;Node13</title>
<path fill="none" stroke="midnightblue" d="M136.814,-438.872C118.879,-393.627 72.6461,-276.993 59.5215,-243.884"/>
<polygon fill="midnightblue" stroke="midnightblue" points="133.612,-440.291 140.55,-448.297 140.119,-437.711 133.612,-440.291"/>
</g>
<!-- Node16 -->
<g id="node7" class="node"><title>Node16</title>
<g id="a_node7"><a xlink:href="odp__api_8h.html" target="_top" xlink:title="The OpenDataPlane API. ">
<polygon fill="white" stroke="black" points="177.5,-56.5 177.5,-75.5 240.5,-75.5 240.5,-56.5 177.5,-56.5"/>
<text text-anchor="middle" x="209" y="-63.5" font-family="Helvetica,sans-Serif" font-size="10.00">odp_api.h</text>
</a>
</g>
</g>
<!-- Node12&#45;&gt;Node16 -->
<g id="edge24" class="edge"><title>Node12&#45;&gt;Node16</title>
<path fill="none" stroke="midnightblue" d="M106.346,-446.268C63.6798,-431.528 0,-400.557 0,-347 0,-347 0,-347 0,-177 0,-97.8633 118.79,-75.5287 177.257,-69.3286"/>
<polygon fill="midnightblue" stroke="midnightblue" points="105.3,-449.608 115.894,-449.42 107.495,-442.961 105.3,-449.608"/>
</g>
<!-- Node18 -->
<g id="node9" class="node"><title>Node18</title>
<g id="a_node9"><a xlink:href="api_2spec_2packet__io_8h.html" target="_top" xlink:title="ODP Packet IO. ">
<polygon fill="white" stroke="black" points="139.5,-392.5 139.5,-411.5 210.5,-411.5 210.5,-392.5 139.5,-392.5"/>
<text text-anchor="middle" x="175" y="-399.5" font-family="Helvetica,sans-Serif" font-size="10.00">packet_io.h</text>
</a>
</g>
</g>
<!-- Node12&#45;&gt;Node18 -->
<g id="edge9" class="edge"><title>Node12&#45;&gt;Node18</title>
<path fill="none" stroke="midnightblue" d="M154.176,-439.275C159.474,-430.045 165.717,-419.17 169.976,-411.751"/>
<polygon fill="midnightblue" stroke="midnightblue" points="151.062,-437.668 149.119,-448.083 157.133,-441.153 151.062,-437.668"/>
</g>
<!-- Node24 -->
<g id="node15" class="node"><title>Node24</title>
<g id="a_node15"><a xlink:href="api_2spec_2schedule_8h.html" target="_top" xlink:title="ODP schedule. ">
<polygon fill="white" stroke="black" points="326,-336.5 326,-355.5 394,-355.5 394,-336.5 326,-336.5"/>
<text text-anchor="middle" x="360" y="-343.5" font-family="Helvetica,sans-Serif" font-size="10.00">schedule.h</text>
</a>
</g>
</g>
<!-- Node12&#45;&gt;Node24 -->
<g id="edge21" class="edge"><title>Node12&#45;&gt;Node24</title>
<path fill="none" stroke="midnightblue" d="M170.048,-443.735C214.919,-420.884 305.586,-374.711 343.13,-355.591"/>
<polygon fill="midnightblue" stroke="midnightblue" points="168.272,-440.712 160.949,-448.368 171.449,-446.949 168.272,-440.712"/>
</g>
<!-- Node14 -->
<g id="node5" class="node"><title>Node14</title>
<g id="a_node5"><a xlink:href="api_2spec_2ipsec_8h.html" target="_top" xlink:title="ODP IPSEC API. ">
<polygon fill="white" stroke="black" points="184,-168.5 184,-187.5 234,-187.5 234,-168.5 184,-168.5"/>
<text text-anchor="middle" x="209" y="-175.5" font-family="Helvetica,sans-Serif" font-size="10.00">ipsec.h</text>
</a>
</g>
</g>
<!-- Node13&#45;&gt;Node14 -->
<g id="edge4" class="edge"><title>Node13&#45;&gt;Node14</title>
<path fill="none" stroke="midnightblue" d="M89.889,-221.039C118.677,-210.879 159.287,-196.546 184.87,-187.516"/>
<polygon fill="midnightblue" stroke="midnightblue" points="88.5083,-217.815 80.2433,-224.444 90.8381,-224.416 88.5083,-217.815"/>
</g>
<!-- Node13&#45;&gt;Node16 -->
<g id="edge8" class="edge"><title>Node13&#45;&gt;Node16</title>
<path fill="none" stroke="midnightblue" d="M70.0343,-216.694C90.3681,-193.204 129.382,-148.639 164,-112 176.141,-99.1506 190.684,-84.7849 199.884,-75.8175"/>
<polygon fill="midnightblue" stroke="midnightblue" points="67.3176,-214.485 63.4307,-224.341 72.6156,-219.06 67.3176,-214.485"/>
</g>
<!-- Node15 -->
<g id="node6" class="node"><title>Node15</title>
<g id="a_node6"><a xlink:href="api_2ipsec_8h.html" target="_top" xlink:title="ODP IPSEC API &#45; platform specific header. ">
<polygon fill="white" stroke="black" points="184,-112.5 184,-131.5 234,-131.5 234,-112.5 184,-112.5"/>
<text text-anchor="middle" x="209" y="-119.5" font-family="Helvetica,sans-Serif" font-size="10.00">ipsec.h</text>
</a>
</g>
</g>
<!-- Node14&#45;&gt;Node15 -->
<g id="edge5" class="edge"><title>Node14&#45;&gt;Node15</title>
<path fill="none" stroke="midnightblue" d="M209,-157.805C209,-148.91 209,-138.78 209,-131.751"/>
<polygon fill="midnightblue" stroke="midnightblue" points="205.5,-158.083 209,-168.083 212.5,-158.083 205.5,-158.083"/>
</g>
<!-- Node15&#45;&gt;Node16 -->
<g id="edge6" class="edge"><title>Node15&#45;&gt;Node16</title>
<path fill="none" stroke="midnightblue" d="M209,-101.805C209,-92.9102 209,-82.7798 209,-75.7511"/>
<polygon fill="midnightblue" stroke="midnightblue" points="205.5,-102.083 209,-112.083 212.5,-102.083 205.5,-102.083"/>
</g>
<!-- Node17 -->
<g id="node8" class="node"><title>Node17</title>
<g id="a_node8"><a xlink:href="odp_8h.html" target="_top" xlink:title="WARNING: THIS FILE IS DEPRECATED AND WILL BE REMOVED!!! ODP APPLICATIONS SHOULD NOW INCLUDE odp_api...">
<polygon fill="white" stroke="black" points="187,-0.5 187,-19.5 231,-19.5 231,-0.5 187,-0.5"/>
<text text-anchor="middle" x="209" y="-7.5" font-family="Helvetica,sans-Serif" font-size="10.00">odp.h</text>
</a>
</g>
</g>
<!-- Node16&#45;&gt;Node17 -->
<g id="edge7" class="edge"><title>Node16&#45;&gt;Node17</title>
<path fill="none" stroke="midnightblue" d="M209,-45.8045C209,-36.9102 209,-26.7798 209,-19.7511"/>
<polygon fill="midnightblue" stroke="midnightblue" points="205.5,-46.083 209,-56.083 212.5,-46.083 205.5,-46.083"/>
</g>
<!-- Node19 -->
<g id="node10" class="node"><title>Node19</title>
<g id="a_node10"><a xlink:href="api_2packet__io_8h.html" target="_top" xlink:title="ODP Packet IO. ">
<polygon fill="white" stroke="black" points="178.5,-336.5 178.5,-355.5 249.5,-355.5 249.5,-336.5 178.5,-336.5"/>
<text text-anchor="middle" x="214" y="-343.5" font-family="Helvetica,sans-Serif" font-size="10.00">packet_io.h</text>
</a>
</g>
</g>
<!-- Node18&#45;&gt;Node19 -->
<g id="edge10" class="edge"><title>Node18&#45;&gt;Node19</title>
<path fill="none" stroke="midnightblue" d="M187.382,-383.855C194.135,-374.505 202.209,-363.327 207.68,-355.751"/>
<polygon fill="midnightblue" stroke="midnightblue" points="184.458,-381.927 181.44,-392.083 190.132,-386.025 184.458,-381.927"/>
</g>
<!-- Node19&#45;&gt;Node14 -->
<g id="edge15" class="edge"><title>Node19&#45;&gt;Node14</title>
<path fill="none" stroke="midnightblue" d="M213.426,-325.93C212.341,-289.92 210.031,-213.231 209.258,-187.568"/>
<polygon fill="midnightblue" stroke="midnightblue" points="209.932,-326.185 213.731,-336.075 216.928,-325.974 209.932,-326.185"/>
</g>
<!-- Node19&#45;&gt;Node16 -->
<g id="edge20" class="edge"><title>Node19&#45;&gt;Node16</title>
<path fill="none" stroke="midnightblue" d="M259.782,-338.622C285.722,-332.735 316.906,-321.473 337,-300 357.565,-278.024 356,-265.098 356,-235 356,-235 356,-235 356,-177 356,-119.784 283.729,-88.7241 240.535,-75.27"/>
<polygon fill="midnightblue" stroke="midnightblue" points="258.851,-335.241 249.767,-340.694 260.269,-342.096 258.851,-335.241"/>
</g>
<!-- Node20 -->
<g id="node11" class="node"><title>Node20</title>
<g id="a_node11"><a xlink:href="api_2spec_2classification_8h.html" target="_top" xlink:title="ODP classification descriptor. ">
<polygon fill="white" stroke="black" points="242,-280.5 242,-299.5 328,-299.5 328,-280.5 242,-280.5"/>
<text text-anchor="middle" x="285" y="-287.5" font-family="Helvetica,sans-Serif" font-size="10.00">classification.h</text>
</a>
</g>
</g>
<!-- Node19&#45;&gt;Node20 -->
<g id="edge11" class="edge"><title>Node19&#45;&gt;Node20</title>
<path fill="none" stroke="midnightblue" d="M233.59,-330.101C246.368,-320.382 262.613,-308.027 273.385,-299.834"/>
<polygon fill="midnightblue" stroke="midnightblue" points="231.248,-327.484 225.407,-336.324 235.486,-333.056 231.248,-327.484"/>
</g>
<!-- Node22 -->
<g id="node13" class="node"><title>Node22</title>
<g id="a_node13"><a xlink:href="api_2spec_2traffic__mngr_8h.html" target="_top" xlink:title="Copyright (c) 2015&#45;2018, Linaro Limited All rights reserved. ">
<polygon fill="white" stroke="black" points="102.5,-280.5 102.5,-299.5 185.5,-299.5 185.5,-280.5 102.5,-280.5"/>
<text text-anchor="middle" x="144" y="-287.5" font-family="Helvetica,sans-Serif" font-size="10.00">traffic_mngr.h</text>
</a>
</g>
</g>
<!-- Node19&#45;&gt;Node22 -->
<g id="edge16" class="edge"><title>Node19&#45;&gt;Node22</title>
<path fill="none" stroke="midnightblue" d="M194.686,-330.101C182.088,-320.382 166.072,-308.027 155.451,-299.834"/>
<polygon fill="midnightblue" stroke="midnightblue" points="192.698,-332.987 202.753,-336.324 196.973,-327.445 192.698,-332.987"/>
</g>
<!-- Node21 -->
<g id="node12" class="node"><title>Node21</title>
<g id="a_node12"><a xlink:href="api_2classification_8h.html" target="_top" xlink:title="ODP classification descriptor. ">
<polygon fill="white" stroke="black" points="242,-224.5 242,-243.5 328,-243.5 328,-224.5 242,-224.5"/>
<text text-anchor="middle" x="285" y="-231.5" font-family="Helvetica,sans-Serif" font-size="10.00">classification.h</text>
</a>
</g>
</g>
<!-- Node20&#45;&gt;Node21 -->
<g id="edge12" class="edge"><title>Node20&#45;&gt;Node21</title>
<path fill="none" stroke="midnightblue" d="M285,-269.805C285,-260.91 285,-250.78 285,-243.751"/>
<polygon fill="midnightblue" stroke="midnightblue" points="281.5,-270.083 285,-280.083 288.5,-270.083 281.5,-270.083"/>
</g>
<!-- Node21&#45;&gt;Node14 -->
<g id="edge13" class="edge"><title>Node21&#45;&gt;Node14</title>
<path fill="none" stroke="midnightblue" d="M264.424,-218.38C250.688,-208.62 233.075,-196.106 221.433,-187.834"/>
<polygon fill="midnightblue" stroke="midnightblue" points="262.61,-221.385 272.789,-224.324 266.665,-215.679 262.61,-221.385"/>
</g>
<!-- Node21&#45;&gt;Node16 -->
<g id="edge14" class="edge"><title>Node21&#45;&gt;Node16</title>
<path fill="none" stroke="midnightblue" d="M280.571,-214.705C274.254,-190.351 261.351,-146.358 243,-112 235.711,-98.3537 224.468,-84.4106 216.928,-75.7353"/>
<polygon fill="midnightblue" stroke="midnightblue" points="277.178,-215.561 283.007,-224.408 283.967,-213.857 277.178,-215.561"/>
</g>
<!-- Node23 -->
<g id="node14" class="node"><title>Node23</title>
<g id="a_node14"><a xlink:href="api_2traffic__mngr_8h.html" target="_top" xlink:title="ODP Traffic manager. ">
<polygon fill="white" stroke="black" points="102.5,-224.5 102.5,-243.5 185.5,-243.5 185.5,-224.5 102.5,-224.5"/>
<text text-anchor="middle" x="144" y="-231.5" font-family="Helvetica,sans-Serif" font-size="10.00">traffic_mngr.h</text>
</a>
</g>
</g>
<!-- Node22&#45;&gt;Node23 -->
<g id="edge17" class="edge"><title>Node22&#45;&gt;Node23</title>
<path fill="none" stroke="midnightblue" d="M144,-269.805C144,-260.91 144,-250.78 144,-243.751"/>
<polygon fill="midnightblue" stroke="midnightblue" points="140.5,-270.083 144,-280.083 147.5,-270.083 140.5,-270.083"/>
</g>
<!-- Node23&#45;&gt;Node14 -->
<g id="edge18" class="edge"><title>Node23&#45;&gt;Node14</title>
<path fill="none" stroke="midnightblue" d="M162.273,-217.82C173.918,-208.145 188.599,-195.948 198.367,-187.834"/>
<polygon fill="midnightblue" stroke="midnightblue" points="159.899,-215.242 154.443,-224.324 164.372,-220.626 159.899,-215.242"/>
</g>
<!-- Node23&#45;&gt;Node16 -->
<g id="edge19" class="edge"><title>Node23&#45;&gt;Node16</title>
<path fill="none" stroke="midnightblue" d="M146.439,-214.334C150.151,-189.869 158.588,-146.069 175,-112 181.714,-98.062 193.092,-84.1873 200.819,-75.607"/>
<polygon fill="midnightblue" stroke="midnightblue" points="142.952,-213.996 145.018,-224.388 149.883,-214.976 142.952,-213.996"/>
</g>
<!-- Node25 -->
<g id="node16" class="node"><title>Node25</title>
<g id="a_node16"><a xlink:href="api_2schedule_8h.html" target="_top" xlink:title="ODP schedule. ">
<polygon fill="white" stroke="black" points="384,-168.5 384,-187.5 452,-187.5 452,-168.5 384,-168.5"/>
<text text-anchor="middle" x="418" y="-175.5" font-family="Helvetica,sans-Serif" font-size="10.00">schedule.h</text>
</a>
</g>
</g>
<!-- Node24&#45;&gt;Node25 -->
<g id="edge22" class="edge"><title>Node24&#45;&gt;Node25</title>
<path fill="none" stroke="midnightblue" d="M366.501,-326.395C379.012,-290.585 406.001,-213.342 415.006,-187.568"/>
<polygon fill="midnightblue" stroke="midnightblue" points="363.113,-325.48 363.118,-336.075 369.721,-327.789 363.113,-325.48"/>
</g>
<!-- Node25&#45;&gt;Node16 -->
<g id="edge23" class="edge"><title>Node25&#45;&gt;Node16</title>
<path fill="none" stroke="midnightblue" d="M409.221,-159.27C401.028,-144.512 387.454,-124.034 370,-112 330.575,-84.8173 275.089,-73.9809 240.623,-69.7116"/>
<polygon fill="midnightblue" stroke="midnightblue" points="406.267,-161.174 414.014,-168.4 412.464,-157.919 406.267,-161.174"/>
</g>
</g>
</svg>
