<?xml version="1.0" encoding="UTF-8" standalone="no"?>
<!DOCTYPE svg PUBLIC "-//W3C//DTD SVG 1.1//EN"
 "http://www.w3.org/Graphics/SVG/1.1/DTD/svg11.dtd">
<!-- Generated by graphviz version 2.38.0 (20140413.2041)
 -->
<!-- Title: deprecated.h Pages: 1 -->
<svg width="1036pt" height="700pt"
 viewBox="0.00 0.00 1036.00 700.00" xmlns="http://www.w3.org/2000/svg" xmlns:xlink="http://www.w3.org/1999/xlink">
<g id="graph0" class="graph" transform="scale(1 1) rotate(0) translate(4 696)">
<title>deprecated.h</title>
<polygon fill="white" stroke="none" points="-4,4 -4,-696 1032,-696 1032,4 -4,4"/>
<!-- Node3 -->
<g id="node1" class="node"><title>Node3</title>
<polygon fill="#bfbfbf" stroke="black" points="786,-672.5 786,-691.5 866,-691.5 866,-672.5 786,-672.5"/>
<text text-anchor="middle" x="826" y="-679.5" font-family="Helvetica,sans-Serif" font-size="10.00">deprecated.h</text>
</g>
<!-- Node4 -->
<g id="node2" class="node"><title>Node4</title>
<g id="a_node2"><a xlink:href="deprecated_8h.html" target="_top" xlink:title="Control deprecated API definitions. ">
<polygon fill="white" stroke="black" points="786,-616.5 786,-635.5 866,-635.5 866,-616.5 786,-616.5"/>
<text text-anchor="middle" x="826" y="-623.5" font-family="Helvetica,sans-Serif" font-size="10.00">deprecated.h</text>
</a>
</g>
</g>
<!-- Node3&#45;&gt;Node4 -->
<g id="edge1" class="edge"><title>Node3&#45;&gt;Node4</title>
<path fill="none" stroke="midnightblue" d="M826,-661.805C826,-652.91 826,-642.78 826,-635.751"/>
<polygon fill="midnightblue" stroke="midnightblue" points="822.5,-662.083 826,-672.083 829.5,-662.083 822.5,-662.083"/>
</g>
<!-- Node5 -->
<g id="node3" class="node"><title>Node5</title>
<g id="a_node3"><a xlink:href="api_2abi-default_2classification_8h_source.html" target="_top" xlink:title="classification.h">
<polygon fill="white" stroke="black" points="364,-448.5 364,-467.5 450,-467.5 450,-448.5 364,-448.5"/>
<text text-anchor="middle" x="407" y="-455.5" font-family="Helvetica,sans-Serif" font-size="10.00">classification.h</text>
</a>
</g>
</g>
<!-- Node4&#45;&gt;Node5 -->
<g id="edge2" class="edge"><title>Node4&#45;&gt;Node5</title>
<path fill="none" stroke="midnightblue" d="M794.695,-612.597C713.471,-580.418 497.515,-494.86 428.516,-467.524"/>
<polygon fill="midnightblue" stroke="midnightblue" points="793.769,-615.995 804.355,-616.425 796.347,-609.487 793.769,-615.995"/>
</g>
<!-- Node16 -->
<g id="node14" class="node"><title>Node16</title>
<g id="a_node14"><a xlink:href="odp__api_8h.html" target="_top" xlink:title="The OpenDataPlane API. ">
<polygon fill="white" stroke="black" points="796.5,-56.5 796.5,-75.5 859.5,-75.5 859.5,-56.5 796.5,-56.5"/>
<text text-anchor="middle" x="828" y="-63.5" font-family="Helvetica,sans-Serif" font-size="10.00">odp_api.h</text>
</a>
</g>
</g>
<!-- Node4&#45;&gt;Node16 -->
<g id="edge40" class="edge"><title>Node4&#45;&gt;Node16</title>
<path fill="none" stroke="midnightblue" d="M876.432,-619.514C936.262,-609.886 1028,-583.891 1028,-515 1028,-515 1028,-515 1028,-177 1028,-101.113 916.085,-77.2071 859.691,-69.9779"/>
<polygon fill="midnightblue" stroke="midnightblue" points="875.76,-616.076 866.392,-621.026 876.802,-622.998 875.76,-616.076"/>
</g>
<!-- Node22 -->
<g id="node20" class="node"><title>Node22</title>
<g id="a_node20"><a xlink:href="api_2spec_2crypto_8h.html" target="_top" xlink:title="ODP crypto. ">
<polygon fill="white" stroke="black" points="798,-504.5 798,-523.5 854,-523.5 854,-504.5 798,-504.5"/>
<text text-anchor="middle" x="826" y="-511.5" font-family="Helvetica,sans-Serif" font-size="10.00">crypto.h</text>
</a>
</g>
</g>
<!-- Node4&#45;&gt;Node22 -->
<g id="edge25" class="edge"><title>Node4&#45;&gt;Node22</title>
<path fill="none" stroke="midnightblue" d="M826,-606.348C826,-582.254 826,-541.308 826,-523.591"/>
<polygon fill="midnightblue" stroke="midnightblue" points="822.5,-606.368 826,-616.368 829.5,-606.369 822.5,-606.368"/>
</g>
<!-- Node24 -->
<g id="node22" class="node"><title>Node24</title>
<g id="a_node22"><a xlink:href="api_2spec_2packet__io_8h.html" target="_top" xlink:title="ODP Packet IO. ">
<polygon fill="white" stroke="black" points="728.5,-392.5 728.5,-411.5 799.5,-411.5 799.5,-392.5 728.5,-392.5"/>
<text text-anchor="middle" x="764" y="-399.5" font-family="Helvetica,sans-Serif" font-size="10.00">packet_io.h</text>
</a>
</g>
</g>
<!-- Node4&#45;&gt;Node24 -->
<g id="edge29" class="edge"><title>Node4&#45;&gt;Node24</title>
<path fill="none" stroke="midnightblue" d="M818.541,-607.127C810.417,-587.144 797.455,-553.687 789,-524 777.19,-482.533 768.514,-431.589 765.331,-411.613"/>
<polygon fill="midnightblue" stroke="midnightblue" points="815.354,-608.58 822.398,-616.495 821.827,-605.915 815.354,-608.58"/>
</g>
<!-- Node25 -->
<g id="node23" class="node"><title>Node25</title>
<g id="a_node23"><a xlink:href="queue__types_8h.html" target="_top" xlink:title="ODP queue types. ">
<polygon fill="white" stroke="black" points="855.5,-560.5 855.5,-579.5 942.5,-579.5 942.5,-560.5 855.5,-560.5"/>
<text text-anchor="middle" x="899" y="-567.5" font-family="Helvetica,sans-Serif" font-size="10.00">queue_types.h</text>
</a>
</g>
</g>
<!-- Node4&#45;&gt;Node25 -->
<g id="edge31" class="edge"><title>Node4&#45;&gt;Node25</title>
<path fill="none" stroke="midnightblue" d="M846.142,-610.101C859.279,-600.382 875.982,-588.027 887.058,-579.834"/>
<polygon fill="midnightblue" stroke="midnightblue" points="843.687,-607.563 837.729,-616.324 847.85,-613.191 843.687,-607.563"/>
</g>
<!-- Node6 -->
<g id="node4" class="node"><title>Node6</title>
<g id="a_node4"><a xlink:href="arch_2arm32-linux_2odp_2api_2abi_2classification_8h_source.html" target="_top" xlink:title="classification.h">
<polygon fill="white" stroke="black" points="208,-392.5 208,-411.5 294,-411.5 294,-392.5 208,-392.5"/>
<text text-anchor="middle" x="251" y="-399.5" font-family="Helvetica,sans-Serif" font-size="10.00">classification.h</text>
</a>
</g>
</g>
<!-- Node5&#45;&gt;Node6 -->
<g id="edge3" class="edge"><title>Node5&#45;&gt;Node6</title>
<path fill="none" stroke="midnightblue" d="M372.83,-445.172C343.456,-435.004 301.802,-420.585 275.603,-411.516"/>
<polygon fill="midnightblue" stroke="midnightblue" points="371.687,-448.48 382.281,-448.444 373.976,-441.865 371.687,-448.48"/>
</g>
<!-- Node7 -->
<g id="node5" class="node"><title>Node7</title>
<g id="a_node5"><a xlink:href="arch_2arm64-linux_2odp_2api_2abi_2classification_8h_source.html" target="_top" xlink:title="classification.h">
<polygon fill="white" stroke="black" points="416,-392.5 416,-411.5 502,-411.5 502,-392.5 416,-392.5"/>
<text text-anchor="middle" x="459" y="-399.5" font-family="Helvetica,sans-Serif" font-size="10.00">classification.h</text>
</a>
</g>
</g>
<!-- Node5&#45;&gt;Node7 -->
<g id="edge4" class="edge"><title>Node5&#45;&gt;Node7</title>
<path fill="none" stroke="midnightblue" d="M422.679,-440.718C431.845,-431.2 443.053,-419.561 450.573,-411.751"/>
<polygon fill="midnightblue" stroke="midnightblue" points="420.002,-438.452 415.587,-448.083 425.044,-443.308 420.002,-438.452"/>
</g>
<!-- Node8 -->
<g id="node6" class="node"><title>Node8</title>
<g id="a_node6"><a xlink:href="arch_2default-linux_2odp_2api_2abi_2classification_8h_source.html" target="_top" xlink:title="classification.h">
<polygon fill="white" stroke="black" points="520,-392.5 520,-411.5 606,-411.5 606,-392.5 520,-392.5"/>
<text text-anchor="middle" x="563" y="-399.5" font-family="Helvetica,sans-Serif" font-size="10.00">classification.h</text>
</a>
</g>
</g>
<!-- Node5&#45;&gt;Node8 -->
<g id="edge5" class="edge"><title>Node5&#45;&gt;Node8</title>
<path fill="none" stroke="midnightblue" d="M441.17,-445.172C470.544,-435.004 512.198,-420.585 538.397,-411.516"/>
<polygon fill="midnightblue" stroke="midnightblue" points="440.024,-441.865 431.719,-448.444 442.313,-448.48 440.024,-441.865"/>
</g>
<!-- Node9 -->
<g id="node7" class="node"><title>Node9</title>
<g id="a_node7"><a xlink:href="arch_2mips64-linux_2odp_2api_2abi_2classification_8h_source.html" target="_top" xlink:title="classification.h">
<polygon fill="white" stroke="black" points="624,-392.5 624,-411.5 710,-411.5 710,-392.5 624,-392.5"/>
<text text-anchor="middle" x="667" y="-399.5" font-family="Helvetica,sans-Serif" font-size="10.00">classification.h</text>
</a>
</g>
</g>
<!-- Node5&#45;&gt;Node9 -->
<g id="edge6" class="edge"><title>Node5&#45;&gt;Node9</title>
<path fill="none" stroke="midnightblue" d="M457.991,-446.41C507.128,-436.204 580.527,-420.96 625.995,-411.516"/>
<polygon fill="midnightblue" stroke="midnightblue" points="457.277,-442.983 448.198,-448.444 458.701,-449.837 457.277,-442.983"/>
</g>
<!-- Node10 -->
<g id="node8" class="node"><title>Node10</title>
<g id="a_node8"><a xlink:href="arch_2power64-linux_2odp_2api_2abi_2classification_8h_source.html" target="_top" xlink:title="classification.h">
<polygon fill="white" stroke="black" points="0,-392.5 0,-411.5 86,-411.5 86,-392.5 0,-392.5"/>
<text text-anchor="middle" x="43" y="-399.5" font-family="Helvetica,sans-Serif" font-size="10.00">classification.h</text>
</a>
</g>
</g>
<!-- Node5&#45;&gt;Node10 -->
<g id="edge7" class="edge"><title>Node5&#45;&gt;Node10</title>
<path fill="none" stroke="midnightblue" d="M353.827,-449.795C291.674,-441.265 185.754,-426.396 95,-412 92.1044,-411.541 89.1201,-411.056 86.1147,-410.558"/>
<polygon fill="midnightblue" stroke="midnightblue" points="353.408,-453.27 363.79,-451.159 354.357,-446.335 353.408,-453.27"/>
</g>
<!-- Node11 -->
<g id="node9" class="node"><title>Node11</title>
<g id="a_node9"><a xlink:href="arch_2x86__32-linux_2odp_2api_2abi_2classification_8h_source.html" target="_top" xlink:title="classification.h">
<polygon fill="white" stroke="black" points="104,-392.5 104,-411.5 190,-411.5 190,-392.5 104,-392.5"/>
<text text-anchor="middle" x="147" y="-399.5" font-family="Helvetica,sans-Serif" font-size="10.00">classification.h</text>
</a>
</g>
</g>
<!-- Node5&#45;&gt;Node11 -->
<g id="edge8" class="edge"><title>Node5&#45;&gt;Node11</title>
<path fill="none" stroke="midnightblue" d="M356.009,-446.41C306.872,-436.204 233.473,-420.96 188.005,-411.516"/>
<polygon fill="midnightblue" stroke="midnightblue" points="355.299,-449.837 365.802,-448.444 356.723,-442.983 355.299,-449.837"/>
</g>
<!-- Node12 -->
<g id="node10" class="node"><title>Node12</title>
<g id="a_node10"><a xlink:href="arch_2x86__64-linux_2odp_2api_2abi_2classification_8h_source.html" target="_top" xlink:title="classification.h">
<polygon fill="white" stroke="black" points="312,-392.5 312,-411.5 398,-411.5 398,-392.5 312,-392.5"/>
<text text-anchor="middle" x="355" y="-399.5" font-family="Helvetica,sans-Serif" font-size="10.00">classification.h</text>
</a>
</g>
</g>
<!-- Node5&#45;&gt;Node12 -->
<g id="edge9" class="edge"><title>Node5&#45;&gt;Node12</title>
<path fill="none" stroke="midnightblue" d="M391.321,-440.718C382.155,-431.2 370.947,-419.561 363.427,-411.751"/>
<polygon fill="midnightblue" stroke="midnightblue" points="388.956,-443.308 398.413,-448.083 393.998,-438.452 388.956,-443.308"/>
</g>
<!-- Node13 -->
<g id="node11" class="node"><title>Node13</title>
<g id="a_node11"><a xlink:href="api_2classification_8h.html" target="_top" xlink:title="ODP classification descriptor. ">
<polygon fill="white" stroke="black" points="536,-224.5 536,-243.5 622,-243.5 622,-224.5 536,-224.5"/>
<text text-anchor="middle" x="579" y="-231.5" font-family="Helvetica,sans-Serif" font-size="10.00">classification.h</text>
</a>
</g>
</g>
<!-- Node12&#45;&gt;Node13 -->
<g id="edge10" class="edge"><title>Node12&#45;&gt;Node13</title>
<path fill="none" stroke="midnightblue" d="M374.937,-386.225C420.531,-352.437 531.259,-270.38 567.388,-243.605"/>
<polygon fill="midnightblue" stroke="midnightblue" points="372.678,-383.543 366.728,-392.309 376.846,-389.167 372.678,-383.543"/>
</g>
<!-- Node18 -->
<g id="node16" class="node"><title>Node18</title>
<g id="a_node16"><a xlink:href="api_2packet__io_8h.html" target="_top" xlink:title="ODP Packet IO. ">
<polygon fill="white" stroke="black" points="649.5,-336.5 649.5,-355.5 720.5,-355.5 720.5,-336.5 649.5,-336.5"/>
<text text-anchor="middle" x="685" y="-343.5" font-family="Helvetica,sans-Serif" font-size="10.00">packet_io.h</text>
</a>
</g>
</g>
<!-- Node12&#45;&gt;Node18 -->
<g id="edge16" class="edge"><title>Node12&#45;&gt;Node18</title>
<path fill="none" stroke="midnightblue" d="M408.262,-391.803C501.184,-376.281 598.402,-360.736 649.434,-352.63"/>
<polygon fill="midnightblue" stroke="midnightblue" points="407.409,-388.397 398.124,-393.499 408.565,-395.301 407.409,-388.397"/>
</g>
<!-- Node14 -->
<g id="node12" class="node"><title>Node14</title>
<g id="a_node12"><a xlink:href="api_2spec_2ipsec_8h.html" target="_top" xlink:title="ODP IPSEC API. ">
<polygon fill="white" stroke="black" points="674,-168.5 674,-187.5 724,-187.5 724,-168.5 674,-168.5"/>
<text text-anchor="middle" x="699" y="-175.5" font-family="Helvetica,sans-Serif" font-size="10.00">ipsec.h</text>
</a>
</g>
</g>
<!-- Node13&#45;&gt;Node14 -->
<g id="edge11" class="edge"><title>Node13&#45;&gt;Node14</title>
<path fill="none" stroke="midnightblue" d="M607.373,-220.232C629.82,-210.131 660.535,-196.309 680.075,-187.516"/>
<polygon fill="midnightblue" stroke="midnightblue" points="605.697,-217.148 598.014,-224.444 608.57,-223.532 605.697,-217.148"/>
</g>
<!-- Node13&#45;&gt;Node16 -->
<g id="edge15" class="edge"><title>Node13&#45;&gt;Node16</title>
<path fill="none" stroke="midnightblue" d="M586.803,-215.199C599.366,-188.64 626.614,-138.893 665,-112 704.792,-84.1216 761.259,-73.4817 796.21,-69.443"/>
<polygon fill="midnightblue" stroke="midnightblue" points="583.552,-213.891 582.584,-224.442 589.92,-216.798 583.552,-213.891"/>
</g>
<!-- Node15 -->
<g id="node13" class="node"><title>Node15</title>
<g id="a_node13"><a xlink:href="api_2ipsec_8h.html" target="_top" xlink:title="ODP IPSEC API &#45; platform specific header. ">
<polygon fill="white" stroke="black" points="674,-112.5 674,-131.5 724,-131.5 724,-112.5 674,-112.5"/>
<text text-anchor="middle" x="699" y="-119.5" font-family="Helvetica,sans-Serif" font-size="10.00">ipsec.h</text>
</a>
</g>
</g>
<!-- Node14&#45;&gt;Node15 -->
<g id="edge12" class="edge"><title>Node14&#45;&gt;Node15</title>
<path fill="none" stroke="midnightblue" d="M699,-157.805C699,-148.91 699,-138.78 699,-131.751"/>
<polygon fill="midnightblue" stroke="midnightblue" points="695.5,-158.083 699,-168.083 702.5,-158.083 695.5,-158.083"/>
</g>
<!-- Node15&#45;&gt;Node16 -->
<g id="edge13" class="edge"><title>Node15&#45;&gt;Node16</title>
<path fill="none" stroke="midnightblue" d="M728.854,-108.503C753.038,-98.3795 786.462,-84.388 807.655,-75.5164"/>
<polygon fill="midnightblue" stroke="midnightblue" points="727.313,-105.354 719.44,-112.444 730.016,-111.811 727.313,-105.354"/>
</g>
<!-- Node17 -->
<g id="node15" class="node"><title>Node17</title>
<g id="a_node15"><a xlink:href="odp_8h.html" target="_top" xlink:title="WARNING: THIS FILE IS DEPRECATED AND WILL BE REMOVED!!! ODP APPLICATIONS SHOULD NOW INCLUDE odp_api...">
<polygon fill="white" stroke="black" points="806,-0.5 806,-19.5 850,-19.5 850,-0.5 806,-0.5"/>
<text text-anchor="middle" x="828" y="-7.5" font-family="Helvetica,sans-Serif" font-size="10.00">odp.h</text>
</a>
</g>
</g>
<!-- Node16&#45;&gt;Node17 -->
<g id="edge14" class="edge"><title>Node16&#45;&gt;Node17</title>
<path fill="none" stroke="midnightblue" d="M828,-45.8045C828,-36.9102 828,-26.7798 828,-19.7511"/>
<polygon fill="midnightblue" stroke="midnightblue" points="824.5,-46.083 828,-56.083 831.5,-46.083 824.5,-46.083"/>
</g>
<!-- Node18&#45;&gt;Node14 -->
<g id="edge19" class="edge"><title>Node18&#45;&gt;Node14</title>
<path fill="none" stroke="midnightblue" d="M676.943,-326.827C673.795,-318.778 670.568,-309.09 669,-300 663.259,-266.714 659.212,-256.328 669,-224 673.245,-209.981 683.456,-196.337 690.786,-187.818"/>
<polygon fill="midnightblue" stroke="midnightblue" points="673.806,-328.398 680.889,-336.277 680.265,-325.701 673.806,-328.398"/>
</g>
<!-- Node18&#45;&gt;Node16 -->
<g id="edge24" class="edge"><title>Node18&#45;&gt;Node16</title>
<path fill="none" stroke="midnightblue" d="M722.657,-332.616C739.248,-325.444 757.721,-314.841 770,-300 789.268,-276.712 790,-265.225 790,-235 790,-235 790,-235 790,-177 790,-137.399 812.275,-93.957 822.716,-75.769"/>
<polygon fill="midnightblue" stroke="midnightblue" points="721.13,-329.458 713.167,-336.447 723.75,-335.949 721.13,-329.458"/>
</g>
<!-- Node19 -->
<g id="node17" class="node"><title>Node19</title>
<g id="a_node17"><a xlink:href="api_2spec_2classification_8h.html" target="_top" xlink:title="ODP classification descriptor. ">
<polygon fill="white" stroke="black" points="536,-280.5 536,-299.5 622,-299.5 622,-280.5 536,-280.5"/>
<text text-anchor="middle" x="579" y="-287.5" font-family="Helvetica,sans-Serif" font-size="10.00">classification.h</text>
</a>
</g>
</g>
<!-- Node18&#45;&gt;Node19 -->
<g id="edge17" class="edge"><title>Node18&#45;&gt;Node19</title>
<path fill="none" stroke="midnightblue" d="M658.944,-331.726C639.316,-321.727 612.972,-308.307 595.988,-299.655"/>
<polygon fill="midnightblue" stroke="midnightblue" points="657.47,-334.903 667.969,-336.324 660.648,-328.666 657.47,-334.903"/>
</g>
<!-- Node20 -->
<g id="node18" class="node"><title>Node20</title>
<g id="a_node18"><a xlink:href="api_2spec_2traffic__mngr_8h.html" target="_top" xlink:title="Copyright (c) 2015&#45;2018, Linaro Limited All rights reserved. ">
<polygon fill="white" stroke="black" points="678.5,-280.5 678.5,-299.5 761.5,-299.5 761.5,-280.5 678.5,-280.5"/>
<text text-anchor="middle" x="720" y="-287.5" font-family="Helvetica,sans-Serif" font-size="10.00">traffic_mngr.h</text>
</a>
</g>
</g>
<!-- Node18&#45;&gt;Node20 -->
<g id="edge20" class="edge"><title>Node18&#45;&gt;Node20</title>
<path fill="none" stroke="midnightblue" d="M696.3,-327.566C702.322,-318.275 709.469,-307.248 714.328,-299.751"/>
<polygon fill="midnightblue" stroke="midnightblue" points="693.281,-325.788 690.78,-336.083 699.156,-329.595 693.281,-325.788"/>
</g>
<!-- Node19&#45;&gt;Node13 -->
<g id="edge18" class="edge"><title>Node19&#45;&gt;Node13</title>
<path fill="none" stroke="midnightblue" d="M579,-269.805C579,-260.91 579,-250.78 579,-243.751"/>
<polygon fill="midnightblue" stroke="midnightblue" points="575.5,-270.083 579,-280.083 582.5,-270.083 575.5,-270.083"/>
</g>
<!-- Node21 -->
<g id="node19" class="node"><title>Node21</title>
<g id="a_node19"><a xlink:href="api_2traffic__mngr_8h.html" target="_top" xlink:title="ODP Traffic manager. ">
<polygon fill="white" stroke="black" points="678.5,-224.5 678.5,-243.5 761.5,-243.5 761.5,-224.5 678.5,-224.5"/>
<text text-anchor="middle" x="720" y="-231.5" font-family="Helvetica,sans-Serif" font-size="10.00">traffic_mngr.h</text>
</a>
</g>
</g>
<!-- Node20&#45;&gt;Node21 -->
<g id="edge21" class="edge"><title>Node20&#45;&gt;Node21</title>
<path fill="none" stroke="midnightblue" d="M720,-269.805C720,-260.91 720,-250.78 720,-243.751"/>
<polygon fill="midnightblue" stroke="midnightblue" points="716.5,-270.083 720,-280.083 723.5,-270.083 716.5,-270.083"/>
</g>
<!-- Node21&#45;&gt;Node14 -->
<g id="edge22" class="edge"><title>Node21&#45;&gt;Node14</title>
<path fill="none" stroke="midnightblue" d="M712.879,-214.69C709.34,-205.589 705.228,-195.014 702.403,-187.751"/>
<polygon fill="midnightblue" stroke="midnightblue" points="709.646,-216.032 716.532,-224.083 716.17,-213.494 709.646,-216.032"/>
</g>
<!-- Node21&#45;&gt;Node16 -->
<g id="edge23" class="edge"><title>Node21&#45;&gt;Node16</title>
<path fill="none" stroke="midnightblue" d="M725.69,-214.823C734.051,-189.957 751.377,-144.698 776,-112 787.06,-97.3128 803.631,-84.0117 815.08,-75.7439"/>
<polygon fill="midnightblue" stroke="midnightblue" points="722.335,-213.823 722.572,-224.415 728.992,-215.987 722.335,-213.823"/>
</g>
<!-- Node23 -->
<g id="node21" class="node"><title>Node23</title>
<g id="a_node21"><a xlink:href="api_2crypto_8h.html" target="_top" xlink:title="ODP crypto. ">
<polygon fill="white" stroke="black" points="810,-336.5 810,-355.5 866,-355.5 866,-336.5 810,-336.5"/>
<text text-anchor="middle" x="838" y="-343.5" font-family="Helvetica,sans-Serif" font-size="10.00">crypto.h</text>
</a>
</g>
</g>
<!-- Node22&#45;&gt;Node23 -->
<g id="edge26" class="edge"><title>Node22&#45;&gt;Node23</title>
<path fill="none" stroke="midnightblue" d="M827.379,-493.93C829.982,-457.92 835.525,-381.231 837.381,-355.568"/>
<polygon fill="midnightblue" stroke="midnightblue" points="823.875,-493.849 826.645,-504.075 830.857,-494.354 823.875,-493.849"/>
</g>
<!-- Node23&#45;&gt;Node14 -->
<g id="edge27" class="edge"><title>Node23&#45;&gt;Node14</title>
<path fill="none" stroke="midnightblue" d="M831.215,-327.027C820.982,-301.724 799.6,-255.209 770,-224 754.936,-208.117 733.149,-195.397 717.69,-187.587"/>
<polygon fill="midnightblue" stroke="midnightblue" points="828.006,-328.429 834.91,-336.466 834.524,-325.878 828.006,-328.429"/>
</g>
<!-- Node23&#45;&gt;Node16 -->
<g id="edge28" class="edge"><title>Node23&#45;&gt;Node16</title>
<path fill="none" stroke="midnightblue" d="M845.573,-326.88C853.866,-305.366 866,-268.21 866,-235 866,-235 866,-235 866,-177 866,-137.399 843.725,-93.957 833.284,-75.769"/>
<polygon fill="midnightblue" stroke="midnightblue" points="842.249,-325.767 841.776,-336.351 848.746,-328.372 842.249,-325.767"/>
</g>
<!-- Node24&#45;&gt;Node18 -->
<g id="edge30" class="edge"><title>Node24&#45;&gt;Node18</title>
<path fill="none" stroke="midnightblue" d="M742.966,-386.622C728.534,-376.757 709.859,-363.992 697.661,-355.655"/>
<polygon fill="midnightblue" stroke="midnightblue" points="741.077,-389.57 751.307,-392.324 745.027,-383.791 741.077,-389.57"/>
</g>
<!-- Node26 -->
<g id="node24" class="node"><title>Node26</title>
<g id="a_node24"><a xlink:href="api_2spec_2queue_8h.html" target="_top" xlink:title="ODP queue. ">
<polygon fill="white" stroke="black" points="872,-504.5 872,-523.5 928,-523.5 928,-504.5 872,-504.5"/>
<text text-anchor="middle" x="900" y="-511.5" font-family="Helvetica,sans-Serif" font-size="10.00">queue.h</text>
</a>
</g>
</g>
<!-- Node25&#45;&gt;Node26 -->
<g id="edge32" class="edge"><title>Node25&#45;&gt;Node26</title>
<path fill="none" stroke="midnightblue" d="M899.355,-549.805C899.52,-540.91 899.708,-530.78 899.838,-523.751"/>
<polygon fill="midnightblue" stroke="midnightblue" points="895.851,-550.02 899.165,-560.083 902.85,-550.15 895.851,-550.02"/>
</g>
<!-- Node27 -->
<g id="node25" class="node"><title>Node27</title>
<g id="a_node25"><a xlink:href="api_2queue_8h.html" target="_top" xlink:title="ODP queue. ">
<polygon fill="white" stroke="black" points="872,-448.5 872,-467.5 928,-467.5 928,-448.5 872,-448.5"/>
<text text-anchor="middle" x="900" y="-455.5" font-family="Helvetica,sans-Serif" font-size="10.00">queue.h</text>
</a>
</g>
</g>
<!-- Node26&#45;&gt;Node27 -->
<g id="edge33" class="edge"><title>Node26&#45;&gt;Node27</title>
<path fill="none" stroke="midnightblue" d="M900,-493.805C900,-484.91 900,-474.78 900,-467.751"/>
<polygon fill="midnightblue" stroke="midnightblue" points="896.5,-494.083 900,-504.083 903.5,-494.083 896.5,-494.083"/>
</g>
<!-- Node27&#45;&gt;Node16 -->
<g id="edge39" class="edge"><title>Node27&#45;&gt;Node16</title>
<path fill="none" stroke="midnightblue" d="M901.096,-438.259C902.281,-416.372 904,-379.073 904,-347 904,-347 904,-347 904,-177 904,-132.201 860.804,-92.4292 839.543,-75.5672"/>
<polygon fill="midnightblue" stroke="midnightblue" points="897.591,-438.265 900.523,-448.446 904.58,-438.659 897.591,-438.265"/>
</g>
<!-- Node27&#45;&gt;Node23 -->
<g id="edge34" class="edge"><title>Node27&#45;&gt;Node23</title>
<path fill="none" stroke="midnightblue" d="M890.215,-439.64C876.746,-415.744 853.009,-373.629 842.842,-355.591"/>
<polygon fill="midnightblue" stroke="midnightblue" points="887.176,-441.376 895.135,-448.368 893.274,-437.938 887.176,-441.376"/>
</g>
<!-- Node27&#45;&gt;Node24 -->
<g id="edge35" class="edge"><title>Node27&#45;&gt;Node24</title>
<path fill="none" stroke="midnightblue" d="M868.865,-444.638C843.343,-434.504 807.891,-420.427 785.449,-411.516"/>
<polygon fill="midnightblue" stroke="midnightblue" points="867.865,-448.006 878.45,-448.444 870.448,-441.5 867.865,-448.006"/>
</g>
<!-- Node28 -->
<g id="node26" class="node"><title>Node28</title>
<g id="a_node26"><a xlink:href="api_2spec_2schedule_8h.html" target="_top" xlink:title="ODP schedule. ">
<polygon fill="white" stroke="black" points="932,-392.5 932,-411.5 1000,-411.5 1000,-392.5 932,-392.5"/>
<text text-anchor="middle" x="966" y="-399.5" font-family="Helvetica,sans-Serif" font-size="10.00">schedule.h</text>
</a>
</g>
</g>
<!-- Node27&#45;&gt;Node28 -->
<g id="edge36" class="edge"><title>Node27&#45;&gt;Node28</title>
<path fill="none" stroke="midnightblue" d="M918.554,-441.82C930.378,-432.145 945.286,-419.948 955.203,-411.834"/>
<polygon fill="midnightblue" stroke="midnightblue" points="916.127,-439.283 910.604,-448.324 920.56,-444.7 916.127,-439.283"/>
</g>
<!-- Node29 -->
<g id="node27" class="node"><title>Node29</title>
<g id="a_node27"><a xlink:href="api_2schedule_8h.html" target="_top" xlink:title="ODP schedule. ">
<polygon fill="white" stroke="black" points="932,-168.5 932,-187.5 1000,-187.5 1000,-168.5 932,-168.5"/>
<text text-anchor="middle" x="966" y="-175.5" font-family="Helvetica,sans-Serif" font-size="10.00">schedule.h</text>
</a>
</g>
</g>
<!-- Node28&#45;&gt;Node29 -->
<g id="edge37" class="edge"><title>Node28&#45;&gt;Node29</title>
<path fill="none" stroke="midnightblue" d="M966,-382.295C966,-336.644 966,-220.854 966,-187.884"/>
<polygon fill="midnightblue" stroke="midnightblue" points="962.5,-382.297 966,-392.297 969.5,-382.297 962.5,-382.297"/>
</g>
<!-- Node29&#45;&gt;Node16 -->
<g id="edge38" class="edge"><title>Node29&#45;&gt;Node16</title>
<path fill="none" stroke="midnightblue" d="M956.324,-159.619C947.725,-145.398 934.051,-125.498 918,-112 898.345,-95.4726 871.588,-83.0882 852.365,-75.5383"/>
<polygon fill="midnightblue" stroke="midnightblue" points="953.382,-161.523 961.433,-168.41 959.434,-158.005 953.382,-161.523"/>
</g>
</g>
</svg>
