<?xml version="1.0" encoding="UTF-8" standalone="no"?>
<!DOCTYPE svg PUBLIC "-//W3C//DTD SVG 1.1//EN"
 "http://www.w3.org/Graphics/SVG/1.1/DTD/svg11.dtd">
<!-- Generated by graphviz version 2.38.0 (20140413.2041)
 -->
<!-- Title: support.h Pages: 1 -->
<svg width="589pt" height="756pt"
 viewBox="0.00 0.00 588.50 756.00" xmlns="http://www.w3.org/2000/svg" xmlns:xlink="http://www.w3.org/1999/xlink">
<g id="graph0" class="graph" transform="scale(1 1) rotate(0) translate(4 752)">
<title>support.h</title>
<polygon fill="white" stroke="none" points="-4,4 -4,-752 584.5,-752 584.5,4 -4,4"/>
<!-- Node4 -->
<g id="node1" class="node"><title>Node4</title>
<polygon fill="#bfbfbf" stroke="black" points="168,-728.5 168,-747.5 230,-747.5 230,-728.5 168,-728.5"/>
<text text-anchor="middle" x="199" y="-735.5" font-family="Helvetica,sans-Serif" font-size="10.00">support.h</text>
</g>
<!-- Node5 -->
<g id="node2" class="node"><title>Node5</title>
<g id="a_node2"><a xlink:href="api_2spec_2classification_8h.html" target="_top" xlink:title="ODP classification descriptor. ">
<polygon fill="white" stroke="black" points="28,-280.5 28,-299.5 114,-299.5 114,-280.5 28,-280.5"/>
<text text-anchor="middle" x="71" y="-287.5" font-family="Helvetica,sans-Serif" font-size="10.00">classification.h</text>
</a>
</g>
</g>
<!-- Node4&#45;&gt;Node5 -->
<g id="edge1" class="edge"><title>Node4&#45;&gt;Node5</title>
<path fill="none" stroke="midnightblue" d="M169.952,-723.774C137.063,-706.574 88,-673.176 88,-627 88,-627 88,-627 88,-401 88,-362.932 77.933,-318.313 73.2927,-299.769"/>
<polygon fill="midnightblue" stroke="midnightblue" points="168.648,-727.036 179.155,-728.391 171.786,-720.779 168.648,-727.036"/>
</g>
<!-- Node7 -->
<g id="node4" class="node"><title>Node7</title>
<g id="a_node4"><a xlink:href="api_2spec_2ipsec_8h.html" target="_top" xlink:title="ODP IPSEC API. ">
<polygon fill="white" stroke="black" points="234,-168.5 234,-187.5 284,-187.5 284,-168.5 234,-168.5"/>
<text text-anchor="middle" x="259" y="-175.5" font-family="Helvetica,sans-Serif" font-size="10.00">ipsec.h</text>
</a>
</g>
</g>
<!-- Node4&#45;&gt;Node7 -->
<g id="edge15" class="edge"><title>Node4&#45;&gt;Node7</title>
<path fill="none" stroke="midnightblue" d="M184.21,-720.703C167.321,-700.343 142,-663.7 142,-627 142,-627 142,-627 142,-345 142,-314.902 142.357,-303.628 161,-280 180.976,-254.683 201.486,-267.089 224,-244 240.464,-227.116 251.342,-200.923 256.159,-187.526"/>
<polygon fill="midnightblue" stroke="midnightblue" points="181.652,-723.096 190.833,-728.384 186.954,-718.525 181.652,-723.096"/>
</g>
<!-- Node9 -->
<g id="node6" class="node"><title>Node9</title>
<g id="a_node6"><a xlink:href="odp__api_8h.html" target="_top" xlink:title="The OpenDataPlane API. ">
<polygon fill="white" stroke="black" points="326.5,-56.5 326.5,-75.5 389.5,-75.5 389.5,-56.5 326.5,-56.5"/>
<text text-anchor="middle" x="358" y="-63.5" font-family="Helvetica,sans-Serif" font-size="10.00">odp_api.h</text>
</a>
</g>
</g>
<!-- Node4&#45;&gt;Node9 -->
<g id="edge36" class="edge"><title>Node4&#45;&gt;Node9</title>
<path fill="none" stroke="midnightblue" d="M157.888,-732.624C99.6162,-723.889 0,-698.5 0,-627 0,-627 0,-627 0,-177 0,-109.054 238.614,-78.7338 326.23,-69.891"/>
<polygon fill="midnightblue" stroke="midnightblue" points="157.518,-736.106 167.906,-734.024 158.487,-729.174 157.518,-736.106"/>
</g>
<!-- Node11 -->
<g id="node8" class="node"><title>Node11</title>
<g id="a_node8"><a xlink:href="api_2spec_2comp_8h.html" target="_top" xlink:title="ODP Compression. ">
<polygon fill="white" stroke="black" points="504.5,-616.5 504.5,-635.5 557.5,-635.5 557.5,-616.5 504.5,-616.5"/>
<text text-anchor="middle" x="531" y="-623.5" font-family="Helvetica,sans-Serif" font-size="10.00">comp.h</text>
</a>
</g>
</g>
<!-- Node4&#45;&gt;Node11 -->
<g id="edge8" class="edge"><title>Node4&#45;&gt;Node11</title>
<path fill="none" stroke="midnightblue" d="M240.564,-733.647C307.25,-727.699 434.648,-713.833 474,-692 498.411,-678.456 517.44,-650.28 526.021,-635.884"/>
<polygon fill="midnightblue" stroke="midnightblue" points="240.063,-730.177 230.406,-734.533 240.672,-737.151 240.063,-730.177"/>
</g>
<!-- Node13 -->
<g id="node10" class="node"><title>Node13</title>
<g id="a_node10"><a xlink:href="api_2spec_2crypto_8h.html" target="_top" xlink:title="ODP crypto. ">
<polygon fill="white" stroke="black" points="312,-504.5 312,-523.5 368,-523.5 368,-504.5 312,-504.5"/>
<text text-anchor="middle" x="340" y="-511.5" font-family="Helvetica,sans-Serif" font-size="10.00">crypto.h</text>
</a>
</g>
</g>
<!-- Node4&#45;&gt;Node13 -->
<g id="edge11" class="edge"><title>Node4&#45;&gt;Node13</title>
<path fill="none" stroke="midnightblue" d="M209.974,-719.722C238.311,-675.107 313.195,-557.203 334.358,-523.884"/>
<polygon fill="midnightblue" stroke="midnightblue" points="206.934,-717.98 204.527,-728.297 212.843,-721.733 206.934,-717.98"/>
</g>
<!-- Node15 -->
<g id="node12" class="node"><title>Node15</title>
<g id="a_node12"><a xlink:href="api_2spec_2schedule__types_8h.html" target="_top" xlink:title="ODP schedule types. ">
<polygon fill="white" stroke="black" points="365,-672.5 365,-691.5 465,-691.5 465,-672.5 365,-672.5"/>
<text text-anchor="middle" x="415" y="-679.5" font-family="Helvetica,sans-Serif" font-size="10.00">schedule_types.h</text>
</a>
</g>
</g>
<!-- Node4&#45;&gt;Node15 -->
<g id="edge16" class="edge"><title>Node4&#45;&gt;Node15</title>
<path fill="none" stroke="midnightblue" d="M240.289,-726.678C281.025,-716.494 342.574,-701.107 380.698,-691.576"/>
<polygon fill="midnightblue" stroke="midnightblue" points="239.261,-723.327 230.408,-729.148 240.959,-730.118 239.261,-723.327"/>
</g>
<!-- Node6 -->
<g id="node3" class="node"><title>Node6</title>
<g id="a_node3"><a xlink:href="api_2classification_8h.html" target="_top" xlink:title="ODP classification descriptor. ">
<polygon fill="white" stroke="black" points="28,-224.5 28,-243.5 114,-243.5 114,-224.5 28,-224.5"/>
<text text-anchor="middle" x="71" y="-231.5" font-family="Helvetica,sans-Serif" font-size="10.00">classification.h</text>
</a>
</g>
</g>
<!-- Node5&#45;&gt;Node6 -->
<g id="edge2" class="edge"><title>Node5&#45;&gt;Node6</title>
<path fill="none" stroke="midnightblue" d="M71,-269.805C71,-260.91 71,-250.78 71,-243.751"/>
<polygon fill="midnightblue" stroke="midnightblue" points="67.5001,-270.083 71,-280.083 74.5001,-270.083 67.5001,-270.083"/>
</g>
<!-- Node6&#45;&gt;Node7 -->
<g id="edge3" class="edge"><title>Node6&#45;&gt;Node7</title>
<path fill="none" stroke="midnightblue" d="M110.788,-221.572C147.972,-210.891 202.353,-195.271 233.863,-186.22"/>
<polygon fill="midnightblue" stroke="midnightblue" points="109.434,-218.319 100.789,-224.444 111.367,-225.047 109.434,-218.319"/>
</g>
<!-- Node6&#45;&gt;Node9 -->
<g id="edge7" class="edge"><title>Node6&#45;&gt;Node9</title>
<path fill="none" stroke="midnightblue" d="M88.0615,-217.239C116.056,-192.069 174.312,-142.529 231,-112 261.79,-95.4183 299.93,-82.8568 326.335,-75.275"/>
<polygon fill="midnightblue" stroke="midnightblue" points="85.4264,-214.905 80.3802,-224.221 90.1345,-220.085 85.4264,-214.905"/>
</g>
<!-- Node8 -->
<g id="node5" class="node"><title>Node8</title>
<g id="a_node5"><a xlink:href="api_2ipsec_8h.html" target="_top" xlink:title="ODP IPSEC API &#45; platform specific header. ">
<polygon fill="white" stroke="black" points="264,-112.5 264,-131.5 314,-131.5 314,-112.5 264,-112.5"/>
<text text-anchor="middle" x="289" y="-119.5" font-family="Helvetica,sans-Serif" font-size="10.00">ipsec.h</text>
</a>
</g>
</g>
<!-- Node7&#45;&gt;Node8 -->
<g id="edge4" class="edge"><title>Node7&#45;&gt;Node8</title>
<path fill="none" stroke="midnightblue" d="M268.847,-159.275C273.975,-150.045 280.016,-139.17 284.138,-131.751"/>
<polygon fill="midnightblue" stroke="midnightblue" points="265.751,-157.642 263.954,-168.083 271.87,-161.041 265.751,-157.642"/>
</g>
<!-- Node8&#45;&gt;Node9 -->
<g id="edge5" class="edge"><title>Node8&#45;&gt;Node9</title>
<path fill="none" stroke="midnightblue" d="M308.038,-106.101C320.456,-96.3824 336.243,-84.0269 346.712,-75.8339"/>
<polygon fill="midnightblue" stroke="midnightblue" points="305.804,-103.405 300.086,-112.324 310.118,-108.917 305.804,-103.405"/>
</g>
<!-- Node10 -->
<g id="node7" class="node"><title>Node10</title>
<g id="a_node7"><a xlink:href="odp_8h.html" target="_top" xlink:title="WARNING: THIS FILE IS DEPRECATED AND WILL BE REMOVED!!! ODP APPLICATIONS SHOULD NOW INCLUDE odp_api...">
<polygon fill="white" stroke="black" points="336,-0.5 336,-19.5 380,-19.5 380,-0.5 336,-0.5"/>
<text text-anchor="middle" x="358" y="-7.5" font-family="Helvetica,sans-Serif" font-size="10.00">odp.h</text>
</a>
</g>
</g>
<!-- Node9&#45;&gt;Node10 -->
<g id="edge6" class="edge"><title>Node9&#45;&gt;Node10</title>
<path fill="none" stroke="midnightblue" d="M358,-45.8045C358,-36.9102 358,-26.7798 358,-19.7511"/>
<polygon fill="midnightblue" stroke="midnightblue" points="354.5,-46.083 358,-56.083 361.5,-46.083 354.5,-46.083"/>
</g>
<!-- Node12 -->
<g id="node9" class="node"><title>Node12</title>
<g id="a_node9"><a xlink:href="api_2comp_8h.html" target="_top" xlink:title="ODP crypto. ">
<polygon fill="white" stroke="black" points="527.5,-560.5 527.5,-579.5 580.5,-579.5 580.5,-560.5 527.5,-560.5"/>
<text text-anchor="middle" x="554" y="-567.5" font-family="Helvetica,sans-Serif" font-size="10.00">comp.h</text>
</a>
</g>
</g>
<!-- Node11&#45;&gt;Node12 -->
<g id="edge9" class="edge"><title>Node11&#45;&gt;Node12</title>
<path fill="none" stroke="midnightblue" d="M538.799,-606.69C542.675,-597.589 547.179,-587.014 550.273,-579.751"/>
<polygon fill="midnightblue" stroke="midnightblue" points="535.497,-605.511 534.798,-616.083 541.937,-608.254 535.497,-605.511"/>
</g>
<!-- Node12&#45;&gt;Node9 -->
<g id="edge10" class="edge"><title>Node12&#45;&gt;Node9</title>
<path fill="none" stroke="midnightblue" d="M555.096,-550.259C556.281,-528.372 558,-491.073 558,-459 558,-459 558,-459 558,-177 558,-101.113 446.085,-77.2071 389.691,-69.9779"/>
<polygon fill="midnightblue" stroke="midnightblue" points="551.591,-550.265 554.523,-560.446 558.58,-550.659 551.591,-550.265"/>
</g>
<!-- Node14 -->
<g id="node11" class="node"><title>Node14</title>
<g id="a_node11"><a xlink:href="api_2crypto_8h.html" target="_top" xlink:title="ODP crypto. ">
<polygon fill="white" stroke="black" points="343,-336.5 343,-355.5 399,-355.5 399,-336.5 343,-336.5"/>
<text text-anchor="middle" x="371" y="-343.5" font-family="Helvetica,sans-Serif" font-size="10.00">crypto.h</text>
</a>
</g>
</g>
<!-- Node13&#45;&gt;Node14 -->
<g id="edge12" class="edge"><title>Node13&#45;&gt;Node14</title>
<path fill="none" stroke="midnightblue" d="M343.561,-493.93C350.286,-457.92 364.607,-381.231 369.4,-355.568"/>
<polygon fill="midnightblue" stroke="midnightblue" points="340.062,-493.603 341.667,-504.075 346.943,-494.888 340.062,-493.603"/>
</g>
<!-- Node14&#45;&gt;Node7 -->
<g id="edge13" class="edge"><title>Node14&#45;&gt;Node7</title>
<path fill="none" stroke="midnightblue" d="M359.37,-327.763C335.64,-292.592 282.396,-213.676 264.781,-187.568"/>
<polygon fill="midnightblue" stroke="midnightblue" points="356.484,-329.743 364.978,-336.075 362.287,-325.828 356.484,-329.743"/>
</g>
<!-- Node14&#45;&gt;Node9 -->
<g id="edge14" class="edge"><title>Node14&#45;&gt;Node9</title>
<path fill="none" stroke="midnightblue" d="M377.762,-326.808C385.166,-305.226 396,-268.005 396,-235 396,-235 396,-235 396,-177 396,-137.399 373.725,-93.957 363.284,-75.769"/>
<polygon fill="midnightblue" stroke="midnightblue" points="374.435,-325.718 374.372,-336.313 381.028,-328.07 374.435,-325.718"/>
</g>
<!-- Node16 -->
<g id="node13" class="node"><title>Node16</title>
<g id="a_node13"><a xlink:href="api_2schedule__types_8h.html" target="_top" xlink:title="ODP schedule. ">
<polygon fill="white" stroke="black" points="365,-616.5 365,-635.5 465,-635.5 465,-616.5 365,-616.5"/>
<text text-anchor="middle" x="415" y="-623.5" font-family="Helvetica,sans-Serif" font-size="10.00">schedule_types.h</text>
</a>
</g>
</g>
<!-- Node15&#45;&gt;Node16 -->
<g id="edge17" class="edge"><title>Node15&#45;&gt;Node16</title>
<path fill="none" stroke="midnightblue" d="M415,-661.805C415,-652.91 415,-642.78 415,-635.751"/>
<polygon fill="midnightblue" stroke="midnightblue" points="411.5,-662.083 415,-672.083 418.5,-662.083 411.5,-662.083"/>
</g>
<!-- Node17 -->
<g id="node14" class="node"><title>Node17</title>
<g id="a_node14"><a xlink:href="queue__types_8h.html" target="_top" xlink:title="ODP queue types. ">
<polygon fill="white" stroke="black" points="371.5,-560.5 371.5,-579.5 458.5,-579.5 458.5,-560.5 371.5,-560.5"/>
<text text-anchor="middle" x="415" y="-567.5" font-family="Helvetica,sans-Serif" font-size="10.00">queue_types.h</text>
</a>
</g>
</g>
<!-- Node16&#45;&gt;Node17 -->
<g id="edge18" class="edge"><title>Node16&#45;&gt;Node17</title>
<path fill="none" stroke="midnightblue" d="M415,-605.805C415,-596.91 415,-586.78 415,-579.751"/>
<polygon fill="midnightblue" stroke="midnightblue" points="411.5,-606.083 415,-616.083 418.5,-606.083 411.5,-606.083"/>
</g>
<!-- Node24 -->
<g id="node21" class="node"><title>Node24</title>
<g id="a_node21"><a xlink:href="api_2spec_2schedule_8h.html" target="_top" xlink:title="ODP schedule. ">
<polygon fill="white" stroke="black" points="462,-392.5 462,-411.5 530,-411.5 530,-392.5 462,-392.5"/>
<text text-anchor="middle" x="496" y="-399.5" font-family="Helvetica,sans-Serif" font-size="10.00">schedule.h</text>
</a>
</g>
</g>
<!-- Node16&#45;&gt;Node24 -->
<g id="edge35" class="edge"><title>Node16&#45;&gt;Node24</title>
<path fill="none" stroke="midnightblue" d="M438.263,-610.427C448.698,-602.672 460.171,-592.211 467,-580 499.222,-522.384 497.964,-438.809 496.58,-411.783"/>
<polygon fill="midnightblue" stroke="midnightblue" points="436.067,-607.691 429.867,-616.283 440.071,-613.433 436.067,-607.691"/>
</g>
<!-- Node18 -->
<g id="node15" class="node"><title>Node18</title>
<g id="a_node15"><a xlink:href="api_2spec_2queue_8h.html" target="_top" xlink:title="ODP queue. ">
<polygon fill="white" stroke="black" points="387,-504.5 387,-523.5 443,-523.5 443,-504.5 387,-504.5"/>
<text text-anchor="middle" x="415" y="-511.5" font-family="Helvetica,sans-Serif" font-size="10.00">queue.h</text>
</a>
</g>
</g>
<!-- Node17&#45;&gt;Node18 -->
<g id="edge19" class="edge"><title>Node17&#45;&gt;Node18</title>
<path fill="none" stroke="midnightblue" d="M415,-549.805C415,-540.91 415,-530.78 415,-523.751"/>
<polygon fill="midnightblue" stroke="midnightblue" points="411.5,-550.083 415,-560.083 418.5,-550.083 411.5,-550.083"/>
</g>
<!-- Node19 -->
<g id="node16" class="node"><title>Node19</title>
<g id="a_node16"><a xlink:href="api_2queue_8h.html" target="_top" xlink:title="ODP queue. ">
<polygon fill="white" stroke="black" points="387,-448.5 387,-467.5 443,-467.5 443,-448.5 387,-448.5"/>
<text text-anchor="middle" x="415" y="-455.5" font-family="Helvetica,sans-Serif" font-size="10.00">queue.h</text>
</a>
</g>
</g>
<!-- Node18&#45;&gt;Node19 -->
<g id="edge20" class="edge"><title>Node18&#45;&gt;Node19</title>
<path fill="none" stroke="midnightblue" d="M415,-493.805C415,-484.91 415,-474.78 415,-467.751"/>
<polygon fill="midnightblue" stroke="midnightblue" points="411.5,-494.083 415,-504.083 418.5,-494.083 411.5,-494.083"/>
</g>
<!-- Node19&#45;&gt;Node9 -->
<g id="edge34" class="edge"><title>Node19&#45;&gt;Node9</title>
<path fill="none" stroke="midnightblue" d="M420.216,-438.39C425.841,-416.65 434,-379.511 434,-347 434,-347 434,-347 434,-177 434,-132.201 390.804,-92.4292 369.543,-75.5672"/>
<polygon fill="midnightblue" stroke="midnightblue" points="416.782,-437.683 417.562,-448.249 423.541,-439.502 416.782,-437.683"/>
</g>
<!-- Node19&#45;&gt;Node14 -->
<g id="edge21" class="edge"><title>Node19&#45;&gt;Node14</title>
<path fill="none" stroke="midnightblue" d="M407.799,-438.998C398.199,-414.997 381.587,-373.468 374.437,-355.591"/>
<polygon fill="midnightblue" stroke="midnightblue" points="404.584,-440.384 411.547,-448.368 411.083,-437.784 404.584,-440.384"/>
</g>
<!-- Node20 -->
<g id="node17" class="node"><title>Node20</title>
<g id="a_node17"><a xlink:href="api_2spec_2packet__io_8h.html" target="_top" xlink:title="ODP Packet IO. ">
<polygon fill="white" stroke="black" points="246.5,-392.5 246.5,-411.5 317.5,-411.5 317.5,-392.5 246.5,-392.5"/>
<text text-anchor="middle" x="282" y="-399.5" font-family="Helvetica,sans-Serif" font-size="10.00">packet_io.h</text>
</a>
</g>
</g>
<!-- Node19&#45;&gt;Node20 -->
<g id="edge22" class="edge"><title>Node19&#45;&gt;Node20</title>
<path fill="none" stroke="midnightblue" d="M384.552,-444.638C359.593,-434.504 324.923,-420.427 302.976,-411.516"/>
<polygon fill="midnightblue" stroke="midnightblue" points="383.344,-447.924 393.926,-448.444 385.977,-441.439 383.344,-447.924"/>
</g>
<!-- Node19&#45;&gt;Node24 -->
<g id="edge31" class="edge"><title>Node19&#45;&gt;Node24</title>
<path fill="none" stroke="midnightblue" d="M436.567,-442.622C451.364,-432.757 470.512,-419.992 483.018,-411.655"/>
<polygon fill="midnightblue" stroke="midnightblue" points="434.393,-439.865 428.014,-448.324 438.276,-445.689 434.393,-439.865"/>
</g>
<!-- Node21 -->
<g id="node18" class="node"><title>Node21</title>
<g id="a_node18"><a xlink:href="api_2packet__io_8h.html" target="_top" xlink:title="ODP Packet IO. ">
<polygon fill="white" stroke="black" points="246.5,-336.5 246.5,-355.5 317.5,-355.5 317.5,-336.5 246.5,-336.5"/>
<text text-anchor="middle" x="282" y="-343.5" font-family="Helvetica,sans-Serif" font-size="10.00">packet_io.h</text>
</a>
</g>
</g>
<!-- Node20&#45;&gt;Node21 -->
<g id="edge23" class="edge"><title>Node20&#45;&gt;Node21</title>
<path fill="none" stroke="midnightblue" d="M282,-381.805C282,-372.91 282,-362.78 282,-355.751"/>
<polygon fill="midnightblue" stroke="midnightblue" points="278.5,-382.083 282,-392.083 285.5,-382.083 278.5,-382.083"/>
</g>
<!-- Node21&#45;&gt;Node5 -->
<g id="edge24" class="edge"><title>Node21&#45;&gt;Node5</title>
<path fill="none" stroke="midnightblue" d="M238.858,-333.959C199.006,-323.76 140.637,-308.822 104.277,-299.516"/>
<polygon fill="midnightblue" stroke="midnightblue" points="238.011,-337.355 248.566,-336.444 239.746,-330.573 238.011,-337.355"/>
</g>
<!-- Node21&#45;&gt;Node7 -->
<g id="edge25" class="edge"><title>Node21&#45;&gt;Node7</title>
<path fill="none" stroke="midnightblue" d="M279.358,-325.93C274.368,-289.92 263.743,-213.231 260.187,-187.568"/>
<polygon fill="midnightblue" stroke="midnightblue" points="275.924,-326.65 280.763,-336.075 282.858,-325.689 275.924,-326.65"/>
</g>
<!-- Node21&#45;&gt;Node9 -->
<g id="edge30" class="edge"><title>Node21&#45;&gt;Node9</title>
<path fill="none" stroke="midnightblue" d="M287.087,-326.393C301.988,-271.884 345.154,-113.991 355.67,-75.5243"/>
<polygon fill="midnightblue" stroke="midnightblue" points="283.619,-325.806 284.358,-336.375 290.371,-327.652 283.619,-325.806"/>
</g>
<!-- Node22 -->
<g id="node19" class="node"><title>Node22</title>
<g id="a_node19"><a xlink:href="api_2spec_2traffic__mngr_8h.html" target="_top" xlink:title="Copyright (c) 2015&#45;2018, Linaro Limited All rights reserved. ">
<polygon fill="white" stroke="black" points="170.5,-280.5 170.5,-299.5 253.5,-299.5 253.5,-280.5 170.5,-280.5"/>
<text text-anchor="middle" x="212" y="-287.5" font-family="Helvetica,sans-Serif" font-size="10.00">traffic_mngr.h</text>
</a>
</g>
</g>
<!-- Node21&#45;&gt;Node22 -->
<g id="edge26" class="edge"><title>Node21&#45;&gt;Node22</title>
<path fill="none" stroke="midnightblue" d="M262.686,-330.101C250.088,-320.382 234.072,-308.027 223.451,-299.834"/>
<polygon fill="midnightblue" stroke="midnightblue" points="260.698,-332.987 270.753,-336.324 264.973,-327.445 260.698,-332.987"/>
</g>
<!-- Node23 -->
<g id="node20" class="node"><title>Node23</title>
<g id="a_node20"><a xlink:href="api_2traffic__mngr_8h.html" target="_top" xlink:title="ODP Traffic manager. ">
<polygon fill="white" stroke="black" points="132.5,-224.5 132.5,-243.5 215.5,-243.5 215.5,-224.5 132.5,-224.5"/>
<text text-anchor="middle" x="174" y="-231.5" font-family="Helvetica,sans-Serif" font-size="10.00">traffic_mngr.h</text>
</a>
</g>
</g>
<!-- Node22&#45;&gt;Node23 -->
<g id="edge27" class="edge"><title>Node22&#45;&gt;Node23</title>
<path fill="none" stroke="midnightblue" d="M199.935,-271.855C193.355,-262.505 185.489,-251.327 180.158,-243.751"/>
<polygon fill="midnightblue" stroke="midnightblue" points="197.108,-273.919 205.725,-280.083 202.832,-269.891 197.108,-273.919"/>
</g>
<!-- Node23&#45;&gt;Node7 -->
<g id="edge28" class="edge"><title>Node23&#45;&gt;Node7</title>
<path fill="none" stroke="midnightblue" d="M196.194,-218.901C211.78,-208.999 232.13,-196.071 245.377,-187.655"/>
<polygon fill="midnightblue" stroke="midnightblue" points="194.221,-216.007 187.657,-224.324 197.974,-221.916 194.221,-216.007"/>
</g>
<!-- Node23&#45;&gt;Node9 -->
<g id="edge29" class="edge"><title>Node23&#45;&gt;Node9</title>
<path fill="none" stroke="midnightblue" d="M181.912,-215.132C194.178,-189.245 220.058,-141.217 255,-112 275.959,-94.4756 304.798,-82.6603 326.631,-75.5508"/>
<polygon fill="midnightblue" stroke="midnightblue" points="178.62,-213.916 177.63,-224.465 184.982,-216.836 178.62,-213.916"/>
</g>
<!-- Node25 -->
<g id="node22" class="node"><title>Node25</title>
<g id="a_node22"><a xlink:href="api_2schedule_8h.html" target="_top" xlink:title="ODP schedule. ">
<polygon fill="white" stroke="black" points="462,-168.5 462,-187.5 530,-187.5 530,-168.5 462,-168.5"/>
<text text-anchor="middle" x="496" y="-175.5" font-family="Helvetica,sans-Serif" font-size="10.00">schedule.h</text>
</a>
</g>
</g>
<!-- Node24&#45;&gt;Node25 -->
<g id="edge32" class="edge"><title>Node24&#45;&gt;Node25</title>
<path fill="none" stroke="midnightblue" d="M496,-382.295C496,-336.644 496,-220.854 496,-187.884"/>
<polygon fill="midnightblue" stroke="midnightblue" points="492.5,-382.297 496,-392.297 499.5,-382.297 492.5,-382.297"/>
</g>
<!-- Node25&#45;&gt;Node9 -->
<g id="edge33" class="edge"><title>Node25&#45;&gt;Node9</title>
<path fill="none" stroke="midnightblue" d="M486.324,-159.619C477.725,-145.398 464.051,-125.498 448,-112 428.345,-95.4726 401.588,-83.0882 382.365,-75.5383"/>
<polygon fill="midnightblue" stroke="midnightblue" points="483.382,-161.523 491.433,-168.41 489.434,-158.005 483.382,-161.523"/>
</g>
</g>
</svg>
