<?xml version="1.0" encoding="UTF-8" standalone="no"?>
<!DOCTYPE svg PUBLIC "-//W3C//DTD SVG 1.1//EN"
 "http://www.w3.org/Graphics/SVG/1.1/DTD/svg11.dtd">
<!-- Generated by graphviz version 2.38.0 (20140413.2041)
 -->
<!-- Title: system_info.h Pages: 1 -->
<svg width="432pt" height="319pt"
 viewBox="0.00 0.00 432.44 319.00" xmlns="http://www.w3.org/2000/svg" xmlns:xlink="http://www.w3.org/1999/xlink">
<g id="graph0" class="graph" transform="scale(1 1) rotate(0) translate(4 315)">
<title>system_info.h</title>
<polygon fill="white" stroke="none" points="-4,4 -4,-315 428.445,-315 428.445,4 -4,4"/>
<!-- Node0 -->
<g id="node1" class="node"><title>Node0</title>
<polygon fill="#bfbfbf" stroke="black" points="278.945,-291.5 278.945,-310.5 361.945,-310.5 361.945,-291.5 278.945,-291.5"/>
<text text-anchor="middle" x="320.445" y="-298.5" font-family="Helvetica,sans-Serif" font-size="10.00">system_info.h</text>
</g>
<!-- Node1 -->
<g id="node2" class="node"><title>Node1</title>
<g id="a_node2"><a xlink:href="api_2std__types_8h.html" target="_top" xlink:title="Standard C language types and definitions for ODP. ">
<polygon fill="white" stroke="black" points="219.445,-235.5 219.445,-254.5 329.445,-254.5 329.445,-235.5 219.445,-235.5"/>
<text text-anchor="middle" x="274.445" y="-242.5" font-family="Helvetica,sans-Serif" font-size="10.00">odp/api/std_types.h</text>
</a>
</g>
</g>
<!-- Node0&#45;&gt;Node1 -->
<g id="edge1" class="edge"><title>Node0&#45;&gt;Node1</title>
<path fill="none" stroke="midnightblue" d="M312.849,-291.083C306.217,-283.298 296.424,-271.801 288.386,-262.367"/>
<polygon fill="midnightblue" stroke="midnightblue" points="291.048,-260.094 281.899,-254.751 285.719,-264.633 291.048,-260.094"/>
</g>
<!-- Node10 -->
<g id="node11" class="node"><title>Node10</title>
<g id="a_node11"><a xlink:href="spec_2system__info_8h.html" target="_top" xlink:title="ODP system information. ">
<polygon fill="white" stroke="black" points="308.445,-56.5 308.445,-86.5 424.445,-86.5 424.445,-56.5 308.445,-56.5"/>
<text text-anchor="start" x="316.445" y="-74.5" font-family="Helvetica,sans-Serif" font-size="10.00">odp/api/spec/system</text>
<text text-anchor="middle" x="366.445" y="-63.5" font-family="Helvetica,sans-Serif" font-size="10.00">_info.h</text>
</a>
</g>
</g>
<!-- Node0&#45;&gt;Node10 -->
<g id="edge12" class="edge"><title>Node0&#45;&gt;Node10</title>
<path fill="none" stroke="midnightblue" d="M324.625,-291.236C328.721,-282.31 334.854,-267.975 338.445,-255 353.716,-199.803 361.31,-132.76 364.504,-97.2906"/>
<polygon fill="midnightblue" stroke="midnightblue" points="368.024,-97.2012 365.39,-86.939 361.05,-96.6038 368.024,-97.2012"/>
</g>
<!-- Node2 -->
<g id="node3" class="node"><title>Node2</title>
<polygon fill="white" stroke="#bfbfbf" points="210.445,-179.5 210.445,-198.5 338.445,-198.5 338.445,-179.5 210.445,-179.5"/>
<text text-anchor="middle" x="274.445" y="-186.5" font-family="Helvetica,sans-Serif" font-size="10.00">odp/api/abi/std_types.h</text>
</g>
<!-- Node1&#45;&gt;Node2 -->
<g id="edge2" class="edge"><title>Node1&#45;&gt;Node2</title>
<path fill="none" stroke="midnightblue" d="M274.445,-235.083C274.445,-228.006 274.445,-217.861 274.445,-208.986"/>
<polygon fill="midnightblue" stroke="midnightblue" points="277.945,-208.751 274.445,-198.751 270.945,-208.751 277.945,-208.751"/>
</g>
<!-- Node3 -->
<g id="node4" class="node"><title>Node3</title>
<g id="a_node4"><a xlink:href="api_2spec_2std__types_8h.html" target="_top" xlink:title="Standard C language types and definitions for ODP. ">
<polygon fill="white" stroke="black" points="56.4445,-179.5 56.4445,-198.5 192.445,-198.5 192.445,-179.5 56.4445,-179.5"/>
<text text-anchor="middle" x="124.445" y="-186.5" font-family="Helvetica,sans-Serif" font-size="10.00">odp/api/spec/std_types.h</text>
</a>
</g>
</g>
<!-- Node1&#45;&gt;Node3 -->
<g id="edge3" class="edge"><title>Node1&#45;&gt;Node3</title>
<path fill="none" stroke="midnightblue" d="M250.677,-235.444C225.552,-226.399 185.734,-212.064 157.544,-201.916"/>
<polygon fill="midnightblue" stroke="midnightblue" points="158.696,-198.611 148.101,-198.516 156.325,-205.197 158.696,-198.611"/>
</g>
<!-- Node4 -->
<g id="node5" class="node"><title>Node4</title>
<g id="a_node5"><a xlink:href="visibility__begin_8h_source.html" target="_top" xlink:title="odp/visibility_begin.h">
<polygon fill="white" stroke="black" points="115.945,-0.5 115.945,-19.5 230.945,-19.5 230.945,-0.5 115.945,-0.5"/>
<text text-anchor="middle" x="173.445" y="-7.5" font-family="Helvetica,sans-Serif" font-size="10.00">odp/visibility_begin.h</text>
</a>
</g>
</g>
<!-- Node3&#45;&gt;Node4 -->
<g id="edge4" class="edge"><title>Node3&#45;&gt;Node4</title>
<path fill="none" stroke="midnightblue" d="M103.524,-179.467C86.4756,-171.769 62.514,-159.179 45.4445,-143 15.0731,-114.213 -15.9302,-89.2752 9.44453,-56 21.4928,-40.2005 66.205,-28.5755 105.904,-21.1027"/>
<polygon fill="midnightblue" stroke="midnightblue" points="106.653,-24.524 115.866,-19.2923 105.402,-17.6368 106.653,-24.524"/>
</g>
<!-- Node5 -->
<g id="node6" class="node"><title>Node5</title>
<polygon fill="white" stroke="#bfbfbf" points="158.945,-123.5 158.945,-142.5 211.945,-142.5 211.945,-123.5 158.945,-123.5"/>
<text text-anchor="middle" x="185.445" y="-130.5" font-family="Helvetica,sans-Serif" font-size="10.00">stdint.h</text>
</g>
<!-- Node3&#45;&gt;Node5 -->
<g id="edge5" class="edge"><title>Node3&#45;&gt;Node5</title>
<path fill="none" stroke="midnightblue" d="M134.245,-179.324C143.263,-171.341 156.85,-159.313 167.763,-149.653"/>
<polygon fill="midnightblue" stroke="midnightblue" points="170.298,-152.083 175.466,-142.834 165.658,-146.842 170.298,-152.083"/>
</g>
<!-- Node6 -->
<g id="node7" class="node"><title>Node6</title>
<g id="a_node7"><a xlink:href="api_2align_8h.html" target="_top" xlink:title="ODP alignments. ">
<polygon fill="white" stroke="black" points="54.4445,-123.5 54.4445,-142.5 140.445,-142.5 140.445,-123.5 54.4445,-123.5"/>
<text text-anchor="middle" x="97.4445" y="-130.5" font-family="Helvetica,sans-Serif" font-size="10.00">odp/api/align.h</text>
</a>
</g>
</g>
<!-- Node3&#45;&gt;Node6 -->
<g id="edge6" class="edge"><title>Node3&#45;&gt;Node6</title>
<path fill="none" stroke="midnightblue" d="M119.986,-179.083C116.29,-171.691 110.921,-160.953 106.35,-151.811"/>
<polygon fill="midnightblue" stroke="midnightblue" points="109.423,-150.13 101.82,-142.751 103.162,-153.261 109.423,-150.13"/>
</g>
<!-- Node9 -->
<g id="node10" class="node"><title>Node9</title>
<g id="a_node10"><a xlink:href="visibility__end_8h_source.html" target="_top" xlink:title="odp/visibility_end.h">
<polygon fill="white" stroke="black" points="248.945,-0.5 248.945,-19.5 355.945,-19.5 355.945,-0.5 248.945,-0.5"/>
<text text-anchor="middle" x="302.445" y="-7.5" font-family="Helvetica,sans-Serif" font-size="10.00">odp/visibility_end.h</text>
</a>
</g>
</g>
<!-- Node3&#45;&gt;Node9 -->
<g id="edge11" class="edge"><title>Node3&#45;&gt;Node9</title>
<path fill="none" stroke="midnightblue" d="M151.739,-179.368C172.161,-171.976 199.978,-159.843 220.445,-143 258.681,-111.533 284.241,-57.3308 295.646,-29.1718"/>
<polygon fill="midnightblue" stroke="midnightblue" points="298.946,-30.3446 299.321,-19.7564 292.425,-27.7994 298.946,-30.3446"/>
</g>
<!-- Node7 -->
<g id="node8" class="node"><title>Node7</title>
<polygon fill="white" stroke="#bfbfbf" points="18.4445,-62 18.4445,-81 122.445,-81 122.445,-62 18.4445,-62"/>
<text text-anchor="middle" x="70.4445" y="-69" font-family="Helvetica,sans-Serif" font-size="10.00">odp/api/abi/align.h</text>
</g>
<!-- Node6&#45;&gt;Node7 -->
<g id="edge7" class="edge"><title>Node6&#45;&gt;Node7</title>
<path fill="none" stroke="midnightblue" d="M93.5761,-123.475C89.6464,-114.815 83.4447,-101.149 78.4517,-90.1453"/>
<polygon fill="midnightblue" stroke="midnightblue" points="81.6253,-88.6691 74.3058,-81.0091 75.2509,-91.5617 81.6253,-88.6691"/>
</g>
<!-- Node8 -->
<g id="node9" class="node"><title>Node8</title>
<g id="a_node9"><a xlink:href="api_2spec_2align_8h.html" target="_top" xlink:title="ODP alignments. ">
<polygon fill="white" stroke="black" points="140.445,-62 140.445,-81 252.445,-81 252.445,-62 140.445,-62"/>
<text text-anchor="middle" x="196.445" y="-69" font-family="Helvetica,sans-Serif" font-size="10.00">odp/api/spec/align.h</text>
</a>
</g>
</g>
<!-- Node6&#45;&gt;Node8 -->
<g id="edge8" class="edge"><title>Node6&#45;&gt;Node8</title>
<path fill="none" stroke="midnightblue" d="M111.629,-123.475C127.802,-113.755 154.471,-97.7266 173.588,-86.2372"/>
<polygon fill="midnightblue" stroke="midnightblue" points="175.518,-89.1603 182.287,-81.0091 171.912,-83.1606 175.518,-89.1603"/>
</g>
<!-- Node8&#45;&gt;Node4 -->
<g id="edge9" class="edge"><title>Node8&#45;&gt;Node4</title>
<path fill="none" stroke="midnightblue" d="M193.149,-61.9751C189.836,-53.4035 184.626,-39.9269 180.396,-28.983"/>
<polygon fill="midnightblue" stroke="midnightblue" points="183.604,-27.5745 176.734,-19.5091 177.075,-30.0984 183.604,-27.5745"/>
</g>
<!-- Node8&#45;&gt;Node9 -->
<g id="edge10" class="edge"><title>Node8&#45;&gt;Node9</title>
<path fill="none" stroke="midnightblue" d="M211.632,-61.9751C229.106,-52.1664 258.023,-35.9346 278.528,-24.425"/>
<polygon fill="midnightblue" stroke="midnightblue" points="280.279,-27.456 287.285,-19.5091 276.852,-21.3519 280.279,-27.456"/>
</g>
<!-- Node10&#45;&gt;Node4 -->
<g id="edge13" class="edge"><title>Node10&#45;&gt;Node4</title>
<path fill="none" stroke="midnightblue" d="M320.706,-56.3993C287.212,-46.0733 242.311,-32.2309 210.929,-22.5559"/>
<polygon fill="midnightblue" stroke="midnightblue" points="211.833,-19.1724 201.246,-19.5709 209.771,-25.8617 211.833,-19.1724"/>
</g>
<!-- Node10&#45;&gt;Node9 -->
<g id="edge14" class="edge"><title>Node10&#45;&gt;Node9</title>
<path fill="none" stroke="midnightblue" d="M351.277,-56.3993C341.69,-47.4859 329.284,-35.9523 319.376,-26.7408"/>
<polygon fill="midnightblue" stroke="midnightblue" points="321.464,-23.9033 311.757,-19.6578 316.698,-29.0301 321.464,-23.9033"/>
</g>
</g>
</svg>
