<?xml version="1.0" encoding="UTF-8" standalone="no"?>
<!DOCTYPE svg PUBLIC "-//W3C//DTD SVG 1.1//EN"
 "http://www.w3.org/Graphics/SVG/1.1/DTD/svg11.dtd">
<!-- Generated by graphviz version 2.38.0 (20140413.2041)
 -->
<!-- Title: byteorder.h Pages: 1 -->
<svg width="393pt" height="308pt"
 viewBox="0.00 0.00 392.50 308.00" xmlns="http://www.w3.org/2000/svg" xmlns:xlink="http://www.w3.org/1999/xlink">
<g id="graph0" class="graph" transform="scale(1 1) rotate(0) translate(4 304)">
<title>byteorder.h</title>
<polygon fill="white" stroke="none" points="-4,4 -4,-304 388.5,-304 388.5,4 -4,4"/>
<!-- Node0 -->
<g id="node1" class="node"><title>Node0</title>
<polygon fill="#bfbfbf" stroke="black" points="103.5,-280.5 103.5,-299.5 174.5,-299.5 174.5,-280.5 103.5,-280.5"/>
<text text-anchor="middle" x="139" y="-287.5" font-family="Helvetica,sans-Serif" font-size="10.00">byteorder.h</text>
</g>
<!-- Node1 -->
<g id="node2" class="node"><title>Node1</title>
<g id="a_node2"><a xlink:href="std__types_8h.html" target="_top" xlink:title="Standard C language types and definitions for ODP. ">
<polygon fill="white" stroke="black" points="84,-224.5 84,-243.5 194,-243.5 194,-224.5 84,-224.5"/>
<text text-anchor="middle" x="139" y="-231.5" font-family="Helvetica,sans-Serif" font-size="10.00">odp/api/std_types.h</text>
</a>
</g>
</g>
<!-- Node0&#45;&gt;Node1 -->
<g id="edge1" class="edge"><title>Node0&#45;&gt;Node1</title>
<path fill="none" stroke="midnightblue" d="M139,-280.083C139,-273.006 139,-262.861 139,-253.986"/>
<polygon fill="midnightblue" stroke="midnightblue" points="142.5,-253.751 139,-243.751 135.5,-253.751 142.5,-253.751"/>
</g>
<!-- Node2 -->
<g id="node3" class="node"><title>Node2</title>
<polygon fill="white" stroke="#bfbfbf" points="0,-168.5 0,-187.5 128,-187.5 128,-168.5 0,-168.5"/>
<text text-anchor="middle" x="64" y="-175.5" font-family="Helvetica,sans-Serif" font-size="10.00">odp/api/abi/std_types.h</text>
</g>
<!-- Node1&#45;&gt;Node2 -->
<g id="edge2" class="edge"><title>Node1&#45;&gt;Node2</title>
<path fill="none" stroke="midnightblue" d="M126.95,-224.324C115.537,-216.107 98.169,-203.602 84.5651,-193.807"/>
<polygon fill="midnightblue" stroke="midnightblue" points="86.4297,-190.837 76.2693,-187.834 82.3396,-196.517 86.4297,-190.837"/>
</g>
<!-- Node3 -->
<g id="node4" class="node"><title>Node3</title>
<g id="a_node4"><a xlink:href="spec_2std__types_8h.html" target="_top" xlink:title="Standard C language types and definitions for ODP. ">
<polygon fill="white" stroke="black" points="146,-168.5 146,-187.5 282,-187.5 282,-168.5 146,-168.5"/>
<text text-anchor="middle" x="214" y="-175.5" font-family="Helvetica,sans-Serif" font-size="10.00">odp/api/spec/std_types.h</text>
</a>
</g>
</g>
<!-- Node1&#45;&gt;Node3 -->
<g id="edge3" class="edge"><title>Node1&#45;&gt;Node3</title>
<path fill="none" stroke="midnightblue" d="M151.05,-224.324C162.463,-216.107 179.831,-203.602 193.435,-193.807"/>
<polygon fill="midnightblue" stroke="midnightblue" points="195.66,-196.517 201.731,-187.834 191.57,-190.837 195.66,-196.517"/>
</g>
<!-- Node4 -->
<g id="node5" class="node"><title>Node4</title>
<polygon fill="white" stroke="#bfbfbf" points="106.5,-0.5 106.5,-19.5 221.5,-19.5 221.5,-0.5 106.5,-0.5"/>
<text text-anchor="middle" x="164" y="-7.5" font-family="Helvetica,sans-Serif" font-size="10.00">odp/visibility_begin.h</text>
</g>
<!-- Node3&#45;&gt;Node4 -->
<g id="edge4" class="edge"><title>Node3&#45;&gt;Node4</title>
<path fill="none" stroke="midnightblue" d="M191.88,-168.451C174.531,-160.895 150.62,-148.508 134,-132 113.662,-111.799 109.358,-103.705 102,-76 99.7185,-67.4089 97.9626,-63.9191 102,-56 109,-42.2698 122.366,-31.7496 134.9,-24.3465"/>
<polygon fill="midnightblue" stroke="midnightblue" points="136.674,-27.366 143.777,-19.5055 133.322,-21.2204 136.674,-27.366"/>
</g>
<!-- Node5 -->
<g id="node6" class="node"><title>Node5</title>
<polygon fill="white" stroke="#bfbfbf" points="143.5,-112.5 143.5,-131.5 196.5,-131.5 196.5,-112.5 143.5,-112.5"/>
<text text-anchor="middle" x="170" y="-119.5" font-family="Helvetica,sans-Serif" font-size="10.00">stdint.h</text>
</g>
<!-- Node3&#45;&gt;Node5 -->
<g id="edge5" class="edge"><title>Node3&#45;&gt;Node5</title>
<path fill="none" stroke="midnightblue" d="M206.734,-168.083C200.455,-160.377 191.212,-149.033 183.569,-139.653"/>
<polygon fill="midnightblue" stroke="midnightblue" points="186.161,-137.293 177.131,-131.751 180.734,-141.714 186.161,-137.293"/>
</g>
<!-- Node6 -->
<g id="node7" class="node"><title>Node6</title>
<g id="a_node7"><a xlink:href="align_8h.html" target="_top" xlink:title="ODP alignments. ">
<polygon fill="white" stroke="black" points="215,-112.5 215,-131.5 301,-131.5 301,-112.5 215,-112.5"/>
<text text-anchor="middle" x="258" y="-119.5" font-family="Helvetica,sans-Serif" font-size="10.00">odp/api/align.h</text>
</a>
</g>
</g>
<!-- Node3&#45;&gt;Node6 -->
<g id="edge6" class="edge"><title>Node3&#45;&gt;Node6</title>
<path fill="none" stroke="midnightblue" d="M221.266,-168.083C227.545,-160.377 236.788,-149.033 244.431,-139.653"/>
<polygon fill="midnightblue" stroke="midnightblue" points="247.266,-141.714 250.869,-131.751 241.839,-137.293 247.266,-141.714"/>
</g>
<!-- Node9 -->
<g id="node10" class="node"><title>Node9</title>
<polygon fill="white" stroke="#bfbfbf" points="277.5,-0.5 277.5,-19.5 384.5,-19.5 384.5,-0.5 277.5,-0.5"/>
<text text-anchor="middle" x="331" y="-7.5" font-family="Helvetica,sans-Serif" font-size="10.00">odp/visibility_end.h</text>
</g>
<!-- Node3&#45;&gt;Node9 -->
<g id="edge11" class="edge"><title>Node3&#45;&gt;Node9</title>
<path fill="none" stroke="midnightblue" d="M240.289,-168.477C260.696,-161.007 288.962,-148.722 310,-132 334.779,-112.305 343.654,-105.914 354,-76 359.604,-59.7961 351.737,-41.3764 343.719,-28.293"/>
<polygon fill="midnightblue" stroke="midnightblue" points="346.516,-26.1797 338.044,-19.8174 340.699,-30.0742 346.516,-26.1797"/>
</g>
<!-- Node7 -->
<g id="node8" class="node"><title>Node7</title>
<polygon fill="white" stroke="#bfbfbf" points="111,-56.5 111,-75.5 215,-75.5 215,-56.5 111,-56.5"/>
<text text-anchor="middle" x="163" y="-63.5" font-family="Helvetica,sans-Serif" font-size="10.00">odp/api/abi/align.h</text>
</g>
<!-- Node6&#45;&gt;Node7 -->
<g id="edge7" class="edge"><title>Node6&#45;&gt;Node7</title>
<path fill="none" stroke="midnightblue" d="M242.737,-112.324C227.779,-103.822 204.745,-90.7288 187.273,-80.7975"/>
<polygon fill="midnightblue" stroke="midnightblue" points="188.649,-77.5534 178.226,-75.6545 185.19,-83.639 188.649,-77.5534"/>
</g>
<!-- Node8 -->
<g id="node9" class="node"><title>Node8</title>
<g id="a_node9"><a xlink:href="spec_2align_8h.html" target="_top" xlink:title="ODP alignments. ">
<polygon fill="white" stroke="black" points="233,-56.5 233,-75.5 345,-75.5 345,-56.5 233,-56.5"/>
<text text-anchor="middle" x="289" y="-63.5" font-family="Helvetica,sans-Serif" font-size="10.00">odp/api/spec/align.h</text>
</a>
</g>
</g>
<!-- Node6&#45;&gt;Node8 -->
<g id="edge8" class="edge"><title>Node6&#45;&gt;Node8</title>
<path fill="none" stroke="midnightblue" d="M263.119,-112.083C267.408,-104.613 273.658,-93.7244 278.942,-84.5199"/>
<polygon fill="midnightblue" stroke="midnightblue" points="282.033,-86.1662 283.976,-75.7511 275.962,-82.6811 282.033,-86.1662"/>
</g>
<!-- Node8&#45;&gt;Node4 -->
<g id="edge9" class="edge"><title>Node8&#45;&gt;Node4</title>
<path fill="none" stroke="midnightblue" d="M269.193,-56.4435C248.713,-47.5961 216.517,-33.6875 193.135,-23.5865"/>
<polygon fill="midnightblue" stroke="midnightblue" points="194.282,-20.2692 183.714,-19.5164 191.506,-26.6953 194.282,-20.2692"/>
</g>
<!-- Node8&#45;&gt;Node9 -->
<g id="edge10" class="edge"><title>Node8&#45;&gt;Node9</title>
<path fill="none" stroke="midnightblue" d="M295.935,-56.083C301.929,-48.3768 310.752,-37.0333 318.048,-27.6531"/>
<polygon fill="midnightblue" stroke="midnightblue" points="320.817,-29.7934 324.194,-19.7511 315.291,-25.4958 320.817,-29.7934"/>
</g>
</g>
</svg>
