<?xml version="1.0" encoding="UTF-8" standalone="no"?>
<!DOCTYPE svg PUBLIC "-//W3C//DTD SVG 1.1//EN"
 "http://www.w3.org/Graphics/SVG/1.1/DTD/svg11.dtd">
<!-- Generated by graphviz version 2.38.0 (20140413.2041)
 -->
<!-- Title: atomic.h Pages: 1 -->
<svg width="372pt" height="308pt"
 viewBox="0.00 0.00 371.50 308.00" xmlns="http://www.w3.org/2000/svg" xmlns:xlink="http://www.w3.org/1999/xlink">
<g id="graph0" class="graph" transform="scale(1 1) rotate(0) translate(4 304)">
<title>atomic.h</title>
<polygon fill="white" stroke="none" points="-4,4 -4,-304 367.5,-304 367.5,4 -4,4"/>
<!-- Node0 -->
<g id="node1" class="node"><title>Node0</title>
<polygon fill="#bfbfbf" stroke="black" points="265,-280.5 265,-299.5 324,-299.5 324,-280.5 265,-280.5"/>
<text text-anchor="middle" x="294.5" y="-287.5" font-family="Helvetica,sans-Serif" font-size="10.00">atomic.h</text>
</g>
<!-- Node1 -->
<g id="node2" class="node"><title>Node1</title>
<g id="a_node2"><a xlink:href="std__types_8h.html" target="_top" xlink:title="Standard C language types and definitions for ODP. ">
<polygon fill="white" stroke="black" points="193.5,-224.5 193.5,-243.5 303.5,-243.5 303.5,-224.5 193.5,-224.5"/>
<text text-anchor="middle" x="248.5" y="-231.5" font-family="Helvetica,sans-Serif" font-size="10.00">odp/api/std_types.h</text>
</a>
</g>
</g>
<!-- Node0&#45;&gt;Node1 -->
<g id="edge1" class="edge"><title>Node0&#45;&gt;Node1</title>
<path fill="none" stroke="midnightblue" d="M286.904,-280.083C280.273,-272.298 270.479,-260.801 262.442,-251.367"/>
<polygon fill="midnightblue" stroke="midnightblue" points="265.104,-249.094 255.955,-243.751 259.775,-253.633 265.104,-249.094"/>
</g>
<!-- Node6 -->
<g id="node7" class="node"><title>Node6</title>
<g id="a_node7"><a xlink:href="align_8h.html" target="_top" xlink:title="ODP alignments. ">
<polygon fill="white" stroke="black" points="231.5,-112.5 231.5,-131.5 317.5,-131.5 317.5,-112.5 231.5,-112.5"/>
<text text-anchor="middle" x="274.5" y="-119.5" font-family="Helvetica,sans-Serif" font-size="10.00">odp/api/align.h</text>
</a>
</g>
</g>
<!-- Node0&#45;&gt;Node6 -->
<g id="edge12" class="edge"><title>Node0&#45;&gt;Node6</title>
<path fill="none" stroke="midnightblue" d="M299.876,-280.457C311.892,-260.206 338.574,-207.985 321.5,-168 316.353,-155.947 306.219,-145.576 296.674,-137.839"/>
<polygon fill="midnightblue" stroke="midnightblue" points="298.672,-134.962 288.578,-131.741 294.46,-140.553 298.672,-134.962"/>
</g>
<!-- Node2 -->
<g id="node3" class="node"><title>Node2</title>
<polygon fill="white" stroke="#bfbfbf" points="184.5,-168.5 184.5,-187.5 312.5,-187.5 312.5,-168.5 184.5,-168.5"/>
<text text-anchor="middle" x="248.5" y="-175.5" font-family="Helvetica,sans-Serif" font-size="10.00">odp/api/abi/std_types.h</text>
</g>
<!-- Node1&#45;&gt;Node2 -->
<g id="edge2" class="edge"><title>Node1&#45;&gt;Node2</title>
<path fill="none" stroke="midnightblue" d="M248.5,-224.083C248.5,-217.006 248.5,-206.861 248.5,-197.986"/>
<polygon fill="midnightblue" stroke="midnightblue" points="252,-197.751 248.5,-187.751 245,-197.751 252,-197.751"/>
</g>
<!-- Node3 -->
<g id="node4" class="node"><title>Node3</title>
<g id="a_node4"><a xlink:href="spec_2std__types_8h.html" target="_top" xlink:title="Standard C language types and definitions for ODP. ">
<polygon fill="white" stroke="black" points="30.5,-168.5 30.5,-187.5 166.5,-187.5 166.5,-168.5 30.5,-168.5"/>
<text text-anchor="middle" x="98.5" y="-175.5" font-family="Helvetica,sans-Serif" font-size="10.00">odp/api/spec/std_types.h</text>
</a>
</g>
</g>
<!-- Node1&#45;&gt;Node3 -->
<g id="edge3" class="edge"><title>Node1&#45;&gt;Node3</title>
<path fill="none" stroke="midnightblue" d="M224.732,-224.444C199.607,-215.399 159.789,-201.064 131.6,-190.916"/>
<polygon fill="midnightblue" stroke="midnightblue" points="132.751,-187.611 122.157,-187.516 130.38,-194.197 132.751,-187.611"/>
</g>
<!-- Node4 -->
<g id="node5" class="node"><title>Node4</title>
<polygon fill="white" stroke="#bfbfbf" points="0,-0.5 0,-19.5 115,-19.5 115,-0.5 0,-0.5"/>
<text text-anchor="middle" x="57.5" y="-7.5" font-family="Helvetica,sans-Serif" font-size="10.00">odp/visibility_begin.h</text>
</g>
<!-- Node3&#45;&gt;Node4 -->
<g id="edge4" class="edge"><title>Node3&#45;&gt;Node4</title>
<path fill="none" stroke="midnightblue" d="M95.6047,-168.434C92.6142,-159.426 87.9149,-144.807 84.5,-132 74.9212,-96.0765 65.9763,-53.5426 61.1709,-29.6741"/>
<polygon fill="midnightblue" stroke="midnightblue" points="64.5442,-28.6916 59.1598,-19.567 57.6788,-30.0578 64.5442,-28.6916"/>
</g>
<!-- Node5 -->
<g id="node6" class="node"><title>Node5</title>
<polygon fill="white" stroke="#bfbfbf" points="127,-112.5 127,-131.5 180,-131.5 180,-112.5 127,-112.5"/>
<text text-anchor="middle" x="153.5" y="-119.5" font-family="Helvetica,sans-Serif" font-size="10.00">stdint.h</text>
</g>
<!-- Node3&#45;&gt;Node5 -->
<g id="edge5" class="edge"><title>Node3&#45;&gt;Node5</title>
<path fill="none" stroke="midnightblue" d="M107.582,-168.083C115.671,-160.141 127.695,-148.335 137.41,-138.797"/>
<polygon fill="midnightblue" stroke="midnightblue" points="139.903,-141.254 144.587,-131.751 134.999,-136.26 139.903,-141.254"/>
</g>
<!-- Node3&#45;&gt;Node6 -->
<g id="edge6" class="edge"><title>Node3&#45;&gt;Node6</title>
<path fill="none" stroke="midnightblue" d="M126.388,-168.444C156.254,-159.28 203.815,-144.688 236.956,-134.519"/>
<polygon fill="midnightblue" stroke="midnightblue" points="238.209,-137.796 246.743,-131.516 236.156,-131.104 238.209,-137.796"/>
</g>
<!-- Node9 -->
<g id="node10" class="node"><title>Node9</title>
<polygon fill="white" stroke="#bfbfbf" points="133,-0.5 133,-19.5 240,-19.5 240,-0.5 133,-0.5"/>
<text text-anchor="middle" x="186.5" y="-7.5" font-family="Helvetica,sans-Serif" font-size="10.00">odp/visibility_end.h</text>
</g>
<!-- Node3&#45;&gt;Node9 -->
<g id="edge11" class="edge"><title>Node3&#45;&gt;Node9</title>
<path fill="none" stroke="midnightblue" d="M97.9023,-168.262C96.8895,-147.135 96.8879,-92.347 120.5,-56 129.401,-42.2987 144.087,-31.6778 157.349,-24.2037"/>
<polygon fill="midnightblue" stroke="midnightblue" points="158.998,-27.2908 166.214,-19.533 155.736,-21.0978 158.998,-27.2908"/>
</g>
<!-- Node7 -->
<g id="node8" class="node"><title>Node7</title>
<polygon fill="white" stroke="#bfbfbf" points="259.5,-56.5 259.5,-75.5 363.5,-75.5 363.5,-56.5 259.5,-56.5"/>
<text text-anchor="middle" x="311.5" y="-63.5" font-family="Helvetica,sans-Serif" font-size="10.00">odp/api/abi/align.h</text>
</g>
<!-- Node6&#45;&gt;Node7 -->
<g id="edge7" class="edge"><title>Node6&#45;&gt;Node7</title>
<path fill="none" stroke="midnightblue" d="M280.61,-112.083C285.782,-104.534 293.346,-93.4948 299.694,-84.2298"/>
<polygon fill="midnightblue" stroke="midnightblue" points="302.739,-85.9787 305.504,-75.7511 296.964,-82.0221 302.739,-85.9787"/>
</g>
<!-- Node8 -->
<g id="node9" class="node"><title>Node8</title>
<g id="a_node9"><a xlink:href="spec_2align_8h.html" target="_top" xlink:title="ODP alignments. ">
<polygon fill="white" stroke="black" points="129.5,-56.5 129.5,-75.5 241.5,-75.5 241.5,-56.5 129.5,-56.5"/>
<text text-anchor="middle" x="185.5" y="-63.5" font-family="Helvetica,sans-Serif" font-size="10.00">odp/api/spec/align.h</text>
</a>
</g>
</g>
<!-- Node6&#45;&gt;Node8 -->
<g id="edge8" class="edge"><title>Node6&#45;&gt;Node8</title>
<path fill="none" stroke="midnightblue" d="M260.201,-112.324C246.317,-103.9 225.008,-90.9709 208.696,-81.0741"/>
<polygon fill="midnightblue" stroke="midnightblue" points="210.129,-77.8495 199.764,-75.6545 206.498,-83.8341 210.129,-77.8495"/>
</g>
<!-- Node8&#45;&gt;Node4 -->
<g id="edge9" class="edge"><title>Node8&#45;&gt;Node4</title>
<path fill="none" stroke="midnightblue" d="M165.218,-56.4435C144.153,-47.5566 110.983,-33.5632 87.0145,-23.4514"/>
<polygon fill="midnightblue" stroke="midnightblue" points="88.2612,-20.1787 77.6871,-19.5164 85.5403,-26.6283 88.2612,-20.1787"/>
</g>
<!-- Node8&#45;&gt;Node9 -->
<g id="edge10" class="edge"><title>Node8&#45;&gt;Node9</title>
<path fill="none" stroke="midnightblue" d="M185.665,-56.083C185.796,-49.0059 185.984,-38.8611 186.148,-29.9865"/>
<polygon fill="midnightblue" stroke="midnightblue" points="189.652,-29.8142 186.338,-19.7511 182.653,-29.6845 189.652,-29.8142"/>
</g>
</g>
</svg>
