<?xml version="1.0" encoding="UTF-8" standalone="no"?>
<!DOCTYPE svg PUBLIC "-//W3C//DTD SVG 1.1//EN"
 "http://www.w3.org/Graphics/SVG/1.1/DTD/svg11.dtd">
<!-- Generated by graphviz version 2.38.0 (20140413.2041)
 -->
<!-- Title: align.h Pages: 1 -->
<svg width="2484pt" height="476pt"
 viewBox="0.00 0.00 2483.50 476.00" xmlns="http://www.w3.org/2000/svg" xmlns:xlink="http://www.w3.org/1999/xlink">
<g id="graph0" class="graph" transform="scale(1 1) rotate(0) translate(4 472)">
<title>align.h</title>
<polygon fill="white" stroke="none" points="-4,4 -4,-472 2479.5,-472 2479.5,4 -4,4"/>
<!-- Node5 -->
<g id="node1" class="node"><title>Node5</title>
<polygon fill="#bfbfbf" stroke="black" points="119.5,-448.5 119.5,-467.5 167.5,-467.5 167.5,-448.5 119.5,-448.5"/>
<text text-anchor="middle" x="143.5" y="-455.5" font-family="Helvetica,sans-Serif" font-size="10.00">align.h</text>
</g>
<!-- Node6 -->
<g id="node2" class="node"><title>Node6</title>
<g id="a_node2"><a xlink:href="abi-default_2atomic_8h.html" target="_top" xlink:title="ODP atomic operations. ">
<polygon fill="white" stroke="black" points="0,-280.5 0,-299.5 59,-299.5 59,-280.5 0,-280.5"/>
<text text-anchor="middle" x="29.5" y="-287.5" font-family="Helvetica,sans-Serif" font-size="10.00">atomic.h</text>
</a>
</g>
</g>
<!-- Node5&#45;&gt;Node6 -->
<g id="edge1" class="edge"><title>Node5&#45;&gt;Node6</title>
<path fill="none" stroke="midnightblue" d="M131.663,-439.763C107.509,-404.592 53.3134,-325.676 35.3841,-299.568"/>
<polygon fill="midnightblue" stroke="midnightblue" points="128.825,-441.813 137.371,-448.075 134.595,-437.85 128.825,-441.813"/>
</g>
<!-- Node7 -->
<g id="node3" class="node"><title>Node7</title>
<g id="a_node3"><a xlink:href="abi-default_2cpumask_8h.html" target="_top" xlink:title="ODP CPU masks and enumeration. ">
<polygon fill="white" stroke="black" points="77,-280.5 77,-299.5 146,-299.5 146,-280.5 77,-280.5"/>
<text text-anchor="middle" x="111.5" y="-287.5" font-family="Helvetica,sans-Serif" font-size="10.00">cpumask.h</text>
</a>
</g>
</g>
<!-- Node5&#45;&gt;Node7 -->
<g id="edge2" class="edge"><title>Node5&#45;&gt;Node7</title>
<path fill="none" stroke="midnightblue" d="M137.704,-438.882C135.241,-430.727 132.485,-420.942 130.5,-412 121.235,-370.275 114.806,-319.478 112.471,-299.578"/>
<polygon fill="midnightblue" stroke="midnightblue" points="134.37,-439.948 140.684,-448.456 141.053,-437.867 134.37,-439.948"/>
</g>
<!-- Node8 -->
<g id="node4" class="node"><title>Node8</title>
<g id="a_node4"><a xlink:href="spec_2std__types_8h.html" target="_top" xlink:title="Standard C language types and definitions for ODP. ">
<polygon fill="white" stroke="black" points="139.5,-392.5 139.5,-411.5 211.5,-411.5 211.5,-392.5 139.5,-392.5"/>
<text text-anchor="middle" x="175.5" y="-399.5" font-family="Helvetica,sans-Serif" font-size="10.00">std_types.h</text>
</a>
</g>
</g>
<!-- Node5&#45;&gt;Node8 -->
<g id="edge3" class="edge"><title>Node5&#45;&gt;Node8</title>
<path fill="none" stroke="midnightblue" d="M154.004,-439.275C159.473,-430.045 165.918,-419.17 170.314,-411.751"/>
<polygon fill="midnightblue" stroke="midnightblue" points="150.871,-437.696 148.784,-448.083 156.893,-441.264 150.871,-437.696"/>
</g>
<!-- Node69 -->
<g id="node50" class="node"><title>Node69</title>
<g id="a_node50"><a xlink:href="time__inlines_8h_source.html" target="_top" xlink:title="time_inlines.h">
<polygon fill="white" stroke="black" points="230,-392.5 230,-411.5 313,-411.5 313,-392.5 230,-392.5"/>
<text text-anchor="middle" x="271.5" y="-399.5" font-family="Helvetica,sans-Serif" font-size="10.00">time_inlines.h</text>
</a>
</g>
</g>
<!-- Node5&#45;&gt;Node69 -->
<g id="edge63" class="edge"><title>Node5&#45;&gt;Node69</title>
<path fill="none" stroke="midnightblue" d="M173.123,-444.503C197.119,-434.38 230.284,-420.388 251.313,-411.516"/>
<polygon fill="midnightblue" stroke="midnightblue" points="171.635,-441.332 163.782,-448.444 174.356,-447.781 171.635,-441.332"/>
</g>
<!-- Node9 -->
<g id="node5" class="node"><title>Node9</title>
<g id="a_node5"><a xlink:href="std__types_8h.html" target="_top" xlink:title="Standard C language types and definitions for ODP. ">
<polygon fill="white" stroke="black" points="1078.5,-336.5 1078.5,-355.5 1150.5,-355.5 1150.5,-336.5 1078.5,-336.5"/>
<text text-anchor="middle" x="1114.5" y="-343.5" font-family="Helvetica,sans-Serif" font-size="10.00">std_types.h</text>
</a>
</g>
</g>
<!-- Node8&#45;&gt;Node9 -->
<g id="edge4" class="edge"><title>Node8&#45;&gt;Node9</title>
<path fill="none" stroke="midnightblue" d="M221.197,-392.037C221.298,-392.025 221.399,-392.012 221.5,-392 552.391,-351.504 956.537,-347.283 1078.19,-346.974"/>
<polygon fill="midnightblue" stroke="midnightblue" points="220.974,-388.533 211.581,-393.435 221.981,-395.46 220.974,-388.533"/>
</g>
<!-- Node9&#45;&gt;Node6 -->
<g id="edge5" class="edge"><title>Node9&#45;&gt;Node6</title>
<path fill="none" stroke="midnightblue" d="M1068.23,-344.178C892.313,-340.873 265.079,-327.391 67.5,-300 64.8138,-299.628 62.0393,-299.152 59.2697,-298.614"/>
<polygon fill="midnightblue" stroke="midnightblue" points="1068.37,-347.682 1078.44,-344.368 1068.5,-340.683 1068.37,-347.682"/>
</g>
<!-- Node9&#45;&gt;Node7 -->
<g id="edge8" class="edge"><title>Node9&#45;&gt;Node7</title>
<path fill="none" stroke="midnightblue" d="M1067.89,-345.362C928.699,-345.897 504.074,-343.561 155.5,-300 152.405,-299.613 149.203,-299.128 146.003,-298.583"/>
<polygon fill="midnightblue" stroke="midnightblue" points="1068.2,-348.861 1078.19,-345.315 1068.17,-341.861 1068.2,-348.861"/>
</g>
<!-- Node10 -->
<g id="node6" class="node"><title>Node10</title>
<g id="a_node6"><a xlink:href="abi-default_2barrier_8h.html" target="_top" xlink:title="ODP barrier. ">
<polygon fill="white" stroke="black" points="1991.5,-280.5 1991.5,-299.5 2047.5,-299.5 2047.5,-280.5 1991.5,-280.5"/>
<text text-anchor="middle" x="2019.5" y="-287.5" font-family="Helvetica,sans-Serif" font-size="10.00">barrier.h</text>
</a>
</g>
</g>
<!-- Node9&#45;&gt;Node10 -->
<g id="edge6" class="edge"><title>Node9&#45;&gt;Node10</title>
<path fill="none" stroke="midnightblue" d="M1160.72,-345.627C1290.83,-346.745 1671.04,-345.545 1982.5,-300 1985.38,-299.579 1988.36,-299.037 1991.32,-298.428"/>
<polygon fill="midnightblue" stroke="midnightblue" points="1160.74,-342.127 1150.7,-345.532 1160.67,-349.127 1160.74,-342.127"/>
</g>
<!-- Node11 -->
<g id="node7" class="node"><title>Node11</title>
<g id="a_node7"><a xlink:href="abi-default_2byteorder_8h.html" target="_top" xlink:title="ODP byteorder. ">
<polygon fill="white" stroke="black" points="2066,-280.5 2066,-299.5 2137,-299.5 2137,-280.5 2066,-280.5"/>
<text text-anchor="middle" x="2101.5" y="-287.5" font-family="Helvetica,sans-Serif" font-size="10.00">byteorder.h</text>
</a>
</g>
</g>
<!-- Node9&#45;&gt;Node11 -->
<g id="edge7" class="edge"><title>Node9&#45;&gt;Node11</title>
<path fill="none" stroke="midnightblue" d="M1160.75,-345.234C1297.94,-345.404 1714.41,-342.139 2056.5,-300 2059.5,-299.63 2062.61,-299.171 2065.72,-298.659"/>
<polygon fill="midnightblue" stroke="midnightblue" points="1160.61,-341.734 1150.6,-345.214 1160.59,-348.734 1160.61,-341.734"/>
</g>
<!-- Node12 -->
<g id="node8" class="node"><title>Node12</title>
<g id="a_node8"><a xlink:href="abi-default_2init_8h.html" target="_top" xlink:title="ODP initialization. ">
<polygon fill="white" stroke="black" points="2155.5,-280.5 2155.5,-299.5 2195.5,-299.5 2195.5,-280.5 2155.5,-280.5"/>
<text text-anchor="middle" x="2175.5" y="-287.5" font-family="Helvetica,sans-Serif" font-size="10.00">init.h</text>
</a>
</g>
</g>
<!-- Node9&#45;&gt;Node12 -->
<g id="edge9" class="edge"><title>Node9&#45;&gt;Node12</title>
<path fill="none" stroke="midnightblue" d="M1160.76,-344.562C1335.19,-342.664 1953.01,-333.662 2146.5,-300 2149.41,-299.494 2152.43,-298.779 2155.38,-297.97"/>
<polygon fill="midnightblue" stroke="midnightblue" points="1160.59,-341.063 1150.63,-344.669 1160.67,-348.063 1160.59,-341.063"/>
</g>
<!-- Node13 -->
<g id="node9" class="node"><title>Node13</title>
<g id="a_node9"><a xlink:href="abi-default_2ipsec_8h.html" target="_top" xlink:title="ODP IPSEC API &#45; platform specific types. ">
<polygon fill="white" stroke="black" points="2213.5,-280.5 2213.5,-299.5 2263.5,-299.5 2263.5,-280.5 2213.5,-280.5"/>
<text text-anchor="middle" x="2238.5" y="-287.5" font-family="Helvetica,sans-Serif" font-size="10.00">ipsec.h</text>
</a>
</g>
</g>
<!-- Node9&#45;&gt;Node13 -->
<g id="edge10" class="edge"><title>Node9&#45;&gt;Node13</title>
<path fill="none" stroke="midnightblue" d="M1160.9,-344.428C1341.61,-341.99 1998.51,-331.136 2204.5,-300 2207.4,-299.562 2210.4,-298.972 2213.38,-298.302"/>
<polygon fill="midnightblue" stroke="midnightblue" points="1160.63,-340.931 1150.67,-344.563 1160.72,-347.93 1160.63,-340.931"/>
</g>
<!-- Node14 -->
<g id="node10" class="node"><title>Node14</title>
<g id="a_node10"><a xlink:href="abi-default_2packet__io_8h.html" target="_top" xlink:title="ODP Packet IO. ">
<polygon fill="white" stroke="black" points="2282,-280.5 2282,-299.5 2353,-299.5 2353,-280.5 2282,-280.5"/>
<text text-anchor="middle" x="2317.5" y="-287.5" font-family="Helvetica,sans-Serif" font-size="10.00">packet_io.h</text>
</a>
</g>
</g>
<!-- Node9&#45;&gt;Node14 -->
<g id="edge11" class="edge"><title>Node9&#45;&gt;Node14</title>
<path fill="none" stroke="midnightblue" d="M1160.65,-344.185C1347.9,-340.726 2051.54,-326.222 2272.5,-300 2275.51,-299.643 2278.61,-299.194 2281.72,-298.688"/>
<polygon fill="midnightblue" stroke="midnightblue" points="1160.52,-340.686 1150.59,-344.369 1160.65,-347.685 1160.52,-340.686"/>
</g>
<!-- Node15 -->
<g id="node11" class="node"><title>Node15</title>
<g id="a_node11"><a xlink:href="abi-default_2rwlock__recursive_8h.html" target="_top" xlink:title="ODP recursive read/write lock. ">
<polygon fill="white" stroke="black" points="2371.5,-280.5 2371.5,-299.5 2475.5,-299.5 2475.5,-280.5 2371.5,-280.5"/>
<text text-anchor="middle" x="2423.5" y="-287.5" font-family="Helvetica,sans-Serif" font-size="10.00">rwlock_recursive.h</text>
</a>
</g>
</g>
<!-- Node9&#45;&gt;Node15 -->
<g id="edge12" class="edge"><title>Node9&#45;&gt;Node15</title>
<path fill="none" stroke="midnightblue" d="M1160.81,-345.172C1325.04,-345.389 1894.81,-342.802 2362.5,-300 2365.38,-299.737 2368.33,-299.429 2371.3,-299.088"/>
<polygon fill="midnightblue" stroke="midnightblue" points="1160.59,-341.671 1150.58,-345.154 1160.58,-348.671 1160.59,-341.671"/>
</g>
<!-- Node16 -->
<g id="node12" class="node"><title>Node16</title>
<g id="a_node12"><a xlink:href="abi-default_2schedule_8h.html" target="_top" xlink:title="ODP schedule. ">
<polygon fill="white" stroke="black" points="164.5,-280.5 164.5,-299.5 232.5,-299.5 232.5,-280.5 164.5,-280.5"/>
<text text-anchor="middle" x="198.5" y="-287.5" font-family="Helvetica,sans-Serif" font-size="10.00">schedule.h</text>
</a>
</g>
</g>
<!-- Node9&#45;&gt;Node16 -->
<g id="edge13" class="edge"><title>Node9&#45;&gt;Node16</title>
<path fill="none" stroke="midnightblue" d="M1068.15,-345.051C937.646,-344.671 556.186,-339.946 242.5,-300 239.251,-299.586 235.885,-299.066 232.525,-298.486"/>
<polygon fill="midnightblue" stroke="midnightblue" points="1068.19,-348.551 1078.19,-345.073 1068.2,-341.551 1068.19,-348.551"/>
</g>
<!-- Node17 -->
<g id="node13" class="node"><title>Node17</title>
<g id="a_node13"><a xlink:href="abi-default_2spinlock__recursive_8h.html" target="_top" xlink:title="ODP recursive spinlock. ">
<polygon fill="white" stroke="black" points="251,-280.5 251,-299.5 364,-299.5 364,-280.5 251,-280.5"/>
<text text-anchor="middle" x="307.5" y="-287.5" font-family="Helvetica,sans-Serif" font-size="10.00">spinlock_recursive.h</text>
</a>
</g>
</g>
<!-- Node9&#45;&gt;Node17 -->
<g id="edge14" class="edge"><title>Node9&#45;&gt;Node17</title>
<path fill="none" stroke="midnightblue" d="M1068.16,-343.393C951.37,-339.079 635.584,-325.791 373.5,-300 370.508,-299.706 367.442,-299.378 364.35,-299.027"/>
<polygon fill="midnightblue" stroke="midnightblue" points="1068.06,-346.891 1078.18,-343.759 1068.32,-339.896 1068.06,-346.891"/>
</g>
<!-- Node18 -->
<g id="node14" class="node"><title>Node18</title>
<g id="a_node14"><a xlink:href="abi-default_2traffic__mngr_8h.html" target="_top" xlink:title="ODP traffic mngr. ">
<polygon fill="white" stroke="black" points="382,-280.5 382,-299.5 465,-299.5 465,-280.5 382,-280.5"/>
<text text-anchor="middle" x="423.5" y="-287.5" font-family="Helvetica,sans-Serif" font-size="10.00">traffic_mngr.h</text>
</a>
</g>
</g>
<!-- Node9&#45;&gt;Node18 -->
<g id="edge15" class="edge"><title>Node9&#45;&gt;Node18</title>
<path fill="none" stroke="midnightblue" d="M1068.29,-343.408C962.734,-339.409 695.967,-327.252 474.5,-300 471.466,-299.627 468.338,-299.194 465.195,-298.724"/>
<polygon fill="midnightblue" stroke="midnightblue" points="1068.16,-346.905 1078.29,-343.78 1068.42,-339.91 1068.16,-346.905"/>
</g>
<!-- Node19 -->
<g id="node15" class="node"><title>Node19</title>
<g id="a_node15"><a xlink:href="barrier_8h.html" target="_top" xlink:title="ODP execution barriers. ">
<polygon fill="white" stroke="black" points="483.5,-280.5 483.5,-299.5 539.5,-299.5 539.5,-280.5 483.5,-280.5"/>
<text text-anchor="middle" x="511.5" y="-287.5" font-family="Helvetica,sans-Serif" font-size="10.00">barrier.h</text>
</a>
</g>
</g>
<!-- Node9&#45;&gt;Node19 -->
<g id="edge16" class="edge"><title>Node9&#45;&gt;Node19</title>
<path fill="none" stroke="midnightblue" d="M1068.21,-343.711C971.378,-340.488 740.594,-330.058 549.5,-300 546.285,-299.494 542.94,-298.862 539.626,-298.168"/>
<polygon fill="midnightblue" stroke="midnightblue" points="1068.14,-347.21 1078.25,-344.035 1068.37,-340.214 1068.14,-347.21"/>
</g>
<!-- Node20 -->
<g id="node16" class="node"><title>Node20</title>
<g id="a_node16"><a xlink:href="buffer_8h.html" target="_top" xlink:title="ODP buffer descriptor. ">
<polygon fill="white" stroke="black" points="558,-280.5 558,-299.5 611,-299.5 611,-280.5 558,-280.5"/>
<text text-anchor="middle" x="584.5" y="-287.5" font-family="Helvetica,sans-Serif" font-size="10.00">buffer.h</text>
</a>
</g>
</g>
<!-- Node9&#45;&gt;Node20 -->
<g id="edge17" class="edge"><title>Node9&#45;&gt;Node20</title>
<path fill="none" stroke="midnightblue" d="M1068.35,-342.67C981.333,-337.854 787.209,-325.09 625.5,-300 620.891,-299.285 616.024,-298.365 611.316,-297.387"/>
<polygon fill="midnightblue" stroke="midnightblue" points="1068.25,-346.17 1078.42,-343.219 1068.63,-339.18 1068.25,-346.17"/>
</g>
<!-- Node21 -->
<g id="node17" class="node"><title>Node21</title>
<g id="a_node17"><a xlink:href="classification_8h.html" target="_top" xlink:title="ODP classification descriptor. ">
<polygon fill="white" stroke="black" points="751.5,-56.5 751.5,-75.5 837.5,-75.5 837.5,-56.5 751.5,-56.5"/>
<text text-anchor="middle" x="794.5" y="-63.5" font-family="Helvetica,sans-Serif" font-size="10.00">classification.h</text>
</a>
</g>
</g>
<!-- Node9&#45;&gt;Node21 -->
<g id="edge18" class="edge"><title>Node9&#45;&gt;Node21</title>
<path fill="none" stroke="midnightblue" d="M1068.08,-343.087C966.926,-338.495 729.592,-325.308 653.5,-300 637.226,-294.588 636.346,-286.56 620.5,-280 558.352,-254.27 515.022,-296.918 473.5,-244 431.982,-191.088 486.015,-139.258 547.5,-112 614.643,-82.2337 700.407,-72.1565 751.19,-68.7453"/>
<polygon fill="midnightblue" stroke="midnightblue" points="1068.15,-346.593 1078.29,-343.542 1068.46,-339.6 1068.15,-346.593"/>
</g>
<!-- Node24 -->
<g id="node19" class="node"><title>Node24</title>
<g id="a_node19"><a xlink:href="crypto_8h.html" target="_top" xlink:title="ODP crypto. ">
<polygon fill="white" stroke="black" points="907.5,-168.5 907.5,-187.5 963.5,-187.5 963.5,-168.5 907.5,-168.5"/>
<text text-anchor="middle" x="935.5" y="-175.5" font-family="Helvetica,sans-Serif" font-size="10.00">crypto.h</text>
</a>
</g>
</g>
<!-- Node9&#45;&gt;Node24 -->
<g id="edge20" class="edge"><title>Node9&#45;&gt;Node24</title>
<path fill="none" stroke="midnightblue" d="M1096.24,-329.077C1088.31,-321.141 1079.66,-310.915 1074.5,-300 1059.88,-269.085 1084.36,-250.299 1062.5,-224 1038.05,-194.587 993.03,-184.389 963.685,-180.859"/>
<polygon fill="midnightblue" stroke="midnightblue" points="1094.11,-331.877 1103.79,-336.192 1098.91,-326.785 1094.11,-331.877"/>
</g>
<!-- Node25 -->
<g id="node20" class="node"><title>Node25</title>
<g id="a_node20"><a xlink:href="packet_8h.html" target="_top" xlink:title="ODP packet descriptor. ">
<polygon fill="white" stroke="black" points="743.5,-280.5 743.5,-299.5 801.5,-299.5 801.5,-280.5 743.5,-280.5"/>
<text text-anchor="middle" x="772.5" y="-287.5" font-family="Helvetica,sans-Serif" font-size="10.00">packet.h</text>
</a>
</g>
</g>
<!-- Node9&#45;&gt;Node25 -->
<g id="edge22" class="edge"><title>Node9&#45;&gt;Node25</title>
<path fill="none" stroke="midnightblue" d="M1068.4,-338.892C1009.56,-330.906 904.694,-316.033 815.5,-300 810.996,-299.19 806.241,-298.266 801.6,-297.325"/>
<polygon fill="midnightblue" stroke="midnightblue" points="1068.11,-342.385 1078.49,-340.255 1069.05,-335.448 1068.11,-342.385"/>
</g>
<!-- Node40 -->
<g id="node24" class="node"><title>Node40</title>
<g id="a_node24"><a xlink:href="spec_2packet__flags_8h.html" target="_top" xlink:title="ODP packet flags. ">
<polygon fill="white" stroke="black" points="498.5,-224.5 498.5,-243.5 584.5,-243.5 584.5,-224.5 498.5,-224.5"/>
<text text-anchor="middle" x="541.5" y="-231.5" font-family="Helvetica,sans-Serif" font-size="10.00">packet_flags.h</text>
</a>
</g>
</g>
<!-- Node9&#45;&gt;Node40 -->
<g id="edge51" class="edge"><title>Node9&#45;&gt;Node40</title>
<path fill="none" stroke="midnightblue" d="M1068.24,-344.218C995.754,-341.953 851.604,-333.245 734.5,-300 714.224,-294.244 711.201,-287.492 691.5,-280 652.237,-265.069 605.731,-251.769 575.026,-243.571"/>
<polygon fill="midnightblue" stroke="midnightblue" points="1068.3,-347.721 1078.4,-344.507 1068.5,-340.724 1068.3,-347.721"/>
</g>
<!-- Node34 -->
<g id="node27" class="node"><title>Node34</title>
<g id="a_node27"><a xlink:href="packet__io_8h.html" target="_top" xlink:title="ODP Packet IO. ">
<polygon fill="white" stroke="black" points="794,-168.5 794,-187.5 865,-187.5 865,-168.5 794,-168.5"/>
<text text-anchor="middle" x="829.5" y="-175.5" font-family="Helvetica,sans-Serif" font-size="10.00">packet_io.h</text>
</a>
</g>
</g>
<!-- Node9&#45;&gt;Node34 -->
<g id="edge35" class="edge"><title>Node9&#45;&gt;Node34</title>
<path fill="none" stroke="midnightblue" d="M1068.41,-342.837C1003.08,-338.811 888.141,-327.88 858.5,-300 826.085,-269.512 827.06,-209.74 828.677,-187.555"/>
<polygon fill="midnightblue" stroke="midnightblue" points="1068.27,-346.335 1078.45,-343.426 1068.68,-339.347 1068.27,-346.335"/>
</g>
<!-- Node36 -->
<g id="node29" class="node"><title>Node36</title>
<g id="a_node29"><a xlink:href="spec_2traffic__mngr_8h.html" target="_top" xlink:title="Copyright (c) 2015&#45;2018, Linaro Limited All rights reserved. ">
<polygon fill="white" stroke="red" points="556,-112.5 556,-131.5 639,-131.5 639,-112.5 556,-112.5"/>
<text text-anchor="middle" x="597.5" y="-119.5" font-family="Helvetica,sans-Serif" font-size="10.00">traffic_mngr.h</text>
</a>
</g>
</g>
<!-- Node9&#45;&gt;Node36 -->
<g id="edge57" class="edge"><title>Node9&#45;&gt;Node36</title>
<path fill="none" stroke="midnightblue" d="M1068.1,-345.713C989.029,-345.692 823.867,-340.255 691.5,-300 673.24,-294.447 671.426,-286.549 653.5,-280 583.407,-254.392 536.27,-302.15 489.5,-244 468.33,-217.679 470.763,-196.105 489.5,-168 504.26,-145.86 532.195,-134.595 555.955,-128.873"/>
<polygon fill="midnightblue" stroke="midnightblue" points="1068.23,-349.212 1078.22,-345.685 1068.21,-342.212 1068.23,-349.212"/>
</g>
<!-- Node32 -->
<g id="node30" class="node"><title>Node32</title>
<g id="a_node30"><a xlink:href="queue_8h.html" target="_top" xlink:title="ODP queue. ">
<polygon fill="white" stroke="black" points="932.5,-280.5 932.5,-299.5 988.5,-299.5 988.5,-280.5 932.5,-280.5"/>
<text text-anchor="middle" x="960.5" y="-287.5" font-family="Helvetica,sans-Serif" font-size="10.00">queue.h</text>
</a>
</g>
</g>
<!-- Node9&#45;&gt;Node32 -->
<g id="edge36" class="edge"><title>Node9&#45;&gt;Node32</title>
<path fill="none" stroke="midnightblue" d="M1080.39,-333.039C1051.41,-322.879 1010.54,-308.546 984.788,-299.516"/>
<polygon fill="midnightblue" stroke="midnightblue" points="1079.5,-336.437 1090.1,-336.444 1081.82,-329.832 1079.5,-336.437"/>
</g>
<!-- Node38 -->
<g id="node31" class="node"><title>Node38</title>
<g id="a_node31"><a xlink:href="spec_2schedule_8h.html" target="_top" xlink:title="ODP schedule. ">
<polygon fill="white" stroke="red" points="985.5,-224.5 985.5,-243.5 1053.5,-243.5 1053.5,-224.5 985.5,-224.5"/>
<text text-anchor="middle" x="1019.5" y="-231.5" font-family="Helvetica,sans-Serif" font-size="10.00">schedule.h</text>
</a>
</g>
</g>
<!-- Node9&#45;&gt;Node38 -->
<g id="edge53" class="edge"><title>Node9&#45;&gt;Node38</title>
<path fill="none" stroke="midnightblue" d="M1082.81,-332.031C1068.11,-324.595 1051.51,-313.939 1040.5,-300 1027.12,-283.062 1022.15,-257.355 1020.4,-243.908"/>
<polygon fill="midnightblue" stroke="midnightblue" points="1081.57,-335.32 1092.11,-336.454 1084.58,-328.998 1081.57,-335.32"/>
</g>
<!-- Node42 -->
<g id="node32" class="node"><title>Node42</title>
<g id="a_node32"><a xlink:href="spec_2chksum_8h.html" target="_top" xlink:title="ODP checksum functions. ">
<polygon fill="white" stroke="black" points="1083,-280.5 1083,-299.5 1146,-299.5 1146,-280.5 1083,-280.5"/>
<text text-anchor="middle" x="1114.5" y="-287.5" font-family="Helvetica,sans-Serif" font-size="10.00">chksum.h</text>
</a>
</g>
</g>
<!-- Node9&#45;&gt;Node42 -->
<g id="edge40" class="edge"><title>Node9&#45;&gt;Node42</title>
<path fill="none" stroke="midnightblue" d="M1114.5,-325.805C1114.5,-316.91 1114.5,-306.78 1114.5,-299.751"/>
<polygon fill="midnightblue" stroke="midnightblue" points="1111,-326.083 1114.5,-336.083 1118,-326.083 1111,-326.083"/>
</g>
<!-- Node44 -->
<g id="node34" class="node"><title>Node44</title>
<g id="a_node34"><a xlink:href="spec_2cpu_8h.html" target="_top" xlink:title="ODP CPU API. ">
<polygon fill="white" stroke="black" points="1164,-280.5 1164,-299.5 1207,-299.5 1207,-280.5 1164,-280.5"/>
<text text-anchor="middle" x="1185.5" y="-287.5" font-family="Helvetica,sans-Serif" font-size="10.00">cpu.h</text>
</a>
</g>
</g>
<!-- Node9&#45;&gt;Node44 -->
<g id="edge42" class="edge"><title>Node9&#45;&gt;Node44</title>
<path fill="none" stroke="midnightblue" d="M1134.09,-330.101C1146.87,-320.382 1163.11,-308.027 1173.89,-299.834"/>
<polygon fill="midnightblue" stroke="midnightblue" points="1131.75,-327.484 1125.91,-336.324 1135.99,-333.056 1131.75,-327.484"/>
</g>
<!-- Node47 -->
<g id="node36" class="node"><title>Node47</title>
<g id="a_node36"><a xlink:href="spec_2feature_8h.html" target="_top" xlink:title="ODP features. ">
<polygon fill="white" stroke="black" points="1263.5,-280.5 1263.5,-299.5 1323.5,-299.5 1323.5,-280.5 1263.5,-280.5"/>
<text text-anchor="middle" x="1293.5" y="-287.5" font-family="Helvetica,sans-Serif" font-size="10.00">feature.h</text>
</a>
</g>
</g>
<!-- Node9&#45;&gt;Node47 -->
<g id="edge44" class="edge"><title>Node9&#45;&gt;Node47</title>
<path fill="none" stroke="midnightblue" d="M1152.83,-333.436C1186.58,-323.255 1234.95,-308.664 1265.27,-299.516"/>
<polygon fill="midnightblue" stroke="midnightblue" points="1151.43,-330.204 1142.86,-336.444 1153.45,-336.906 1151.43,-330.204"/>
</g>
<!-- Node49 -->
<g id="node38" class="node"><title>Node49</title>
<g id="a_node38"><a xlink:href="spec_2init_8h.html" target="_top" xlink:title="init.h">
<polygon fill="white" stroke="black" points="1271.5,-168.5 1271.5,-187.5 1311.5,-187.5 1311.5,-168.5 1271.5,-168.5"/>
<text text-anchor="middle" x="1291.5" y="-175.5" font-family="Helvetica,sans-Serif" font-size="10.00">init.h</text>
</a>
</g>
</g>
<!-- Node9&#45;&gt;Node49 -->
<g id="edge50" class="edge"><title>Node9&#45;&gt;Node49</title>
<path fill="none" stroke="midnightblue" d="M1155.71,-333.198C1175.68,-325.981 1199.05,-315.17 1216.5,-300 1254.73,-266.756 1279.83,-209.163 1288.31,-187.535"/>
<polygon fill="midnightblue" stroke="midnightblue" points="1154.54,-329.898 1146.22,-336.455 1156.81,-336.519 1154.54,-329.898"/>
</g>
<!-- Node53 -->
<g id="node40" class="node"><title>Node53</title>
<g id="a_node40"><a xlink:href="spec_2hash_8h.html" target="_top" xlink:title="ODP Hash functions. ">
<polygon fill="white" stroke="black" points="1342,-280.5 1342,-299.5 1391,-299.5 1391,-280.5 1342,-280.5"/>
<text text-anchor="middle" x="1366.5" y="-287.5" font-family="Helvetica,sans-Serif" font-size="10.00">hash.h</text>
</a>
</g>
</g>
<!-- Node9&#45;&gt;Node53 -->
<g id="edge48" class="edge"><title>Node9&#45;&gt;Node53</title>
<path fill="none" stroke="midnightblue" d="M1160.38,-336.293C1204.61,-327.721 1273.35,-313.923 1332.5,-300 1335.47,-299.301 1338.58,-298.531 1341.66,-297.745"/>
<polygon fill="midnightblue" stroke="midnightblue" points="1159.66,-332.867 1150.51,-338.199 1160.99,-339.74 1159.66,-332.867"/>
</g>
<!-- Node55 -->
<g id="node42" class="node"><title>Node55</title>
<g id="a_node42"><a xlink:href="spec_2pool_8h.html" target="_top" xlink:title="ODP pool. ">
<polygon fill="white" stroke="red" points="1409.5,-280.5 1409.5,-299.5 1455.5,-299.5 1455.5,-280.5 1409.5,-280.5"/>
<text text-anchor="middle" x="1432.5" y="-287.5" font-family="Helvetica,sans-Serif" font-size="10.00">pool.h</text>
</a>
</g>
</g>
<!-- Node9&#45;&gt;Node55 -->
<g id="edge52" class="edge"><title>Node9&#45;&gt;Node55</title>
<path fill="none" stroke="midnightblue" d="M1160.98,-339.402C1217.83,-332.163 1316.83,-318.282 1400.5,-300 1403.32,-299.384 1406.26,-298.665 1409.16,-297.908"/>
<polygon fill="midnightblue" stroke="midnightblue" points="1160.36,-335.954 1150.87,-340.676 1161.23,-342.899 1160.36,-335.954"/>
</g>
<!-- Node58 -->
<g id="node43" class="node"><title>Node58</title>
<g id="a_node43"><a xlink:href="spec_2stash_8h.html" target="_top" xlink:title="ODP stash. ">
<polygon fill="white" stroke="red" points="1473.5,-280.5 1473.5,-299.5 1525.5,-299.5 1525.5,-280.5 1473.5,-280.5"/>
<text text-anchor="middle" x="1499.5" y="-287.5" font-family="Helvetica,sans-Serif" font-size="10.00">stash.h</text>
</a>
</g>
</g>
<!-- Node9&#45;&gt;Node58 -->
<g id="edge54" class="edge"><title>Node9&#45;&gt;Node58</title>
<path fill="none" stroke="midnightblue" d="M1160.76,-340.893C1228.02,-334.507 1356.56,-320.734 1464.5,-300 1467.33,-299.456 1470.28,-298.816 1473.21,-298.134"/>
<polygon fill="midnightblue" stroke="midnightblue" points="1160.14,-337.437 1150.51,-341.855 1160.79,-344.406 1160.14,-337.437"/>
</g>
<!-- Node60 -->
<g id="node44" class="node"><title>Node60</title>
<g id="a_node44"><a xlink:href="spec_2threshold_8h.html" target="_top" xlink:title="ODP threshold descriptor. ">
<polygon fill="white" stroke="red" points="1544,-280.5 1544,-299.5 1615,-299.5 1615,-280.5 1544,-280.5"/>
<text text-anchor="middle" x="1579.5" y="-287.5" font-family="Helvetica,sans-Serif" font-size="10.00">threshold.h</text>
</a>
</g>
</g>
<!-- Node9&#45;&gt;Node60 -->
<g id="edge55" class="edge"><title>Node9&#45;&gt;Node60</title>
<path fill="none" stroke="midnightblue" d="M1160.99,-341.405C1238.64,-335.092 1399.5,-320.689 1534.5,-300 1537.49,-299.541 1540.59,-299.021 1543.69,-298.466"/>
<polygon fill="midnightblue" stroke="midnightblue" points="1160.29,-337.951 1150.6,-342.242 1160.85,-344.928 1160.29,-337.951"/>
</g>
<!-- Node62 -->
<g id="node45" class="node"><title>Node62</title>
<g id="a_node45"><a xlink:href="spec_2thrmask_8h.html" target="_top" xlink:title="ODP thread masks. ">
<polygon fill="white" stroke="red" points="1633,-280.5 1633,-299.5 1698,-299.5 1698,-280.5 1633,-280.5"/>
<text text-anchor="middle" x="1665.5" y="-287.5" font-family="Helvetica,sans-Serif" font-size="10.00">thrmask.h</text>
</a>
</g>
</g>
<!-- Node9&#45;&gt;Node62 -->
<g id="edge56" class="edge"><title>Node9&#45;&gt;Node62</title>
<path fill="none" stroke="midnightblue" d="M1160.67,-342.91C1250.44,-338.41 1454.63,-326.029 1624.5,-300 1627.24,-299.581 1630.07,-299.087 1632.9,-298.551"/>
<polygon fill="midnightblue" stroke="midnightblue" points="1160.37,-339.421 1150.55,-343.408 1160.71,-346.412 1160.37,-339.421"/>
</g>
<!-- Node64 -->
<g id="node46" class="node"><title>Node64</title>
<g id="a_node46"><a xlink:href="system__info_8h.html" target="_top" xlink:title="ODP system information. ">
<polygon fill="white" stroke="black" points="1716,-280.5 1716,-299.5 1799,-299.5 1799,-280.5 1716,-280.5"/>
<text text-anchor="middle" x="1757.5" y="-287.5" font-family="Helvetica,sans-Serif" font-size="10.00">system_info.h</text>
</a>
</g>
</g>
<!-- Node9&#45;&gt;Node64 -->
<g id="edge58" class="edge"><title>Node9&#45;&gt;Node64</title>
<path fill="none" stroke="midnightblue" d="M1160.81,-343.101C1260.89,-338.643 1504.72,-325.875 1707.5,-300 1710.21,-299.654 1713,-299.26 1715.81,-298.834"/>
<polygon fill="midnightblue" stroke="midnightblue" points="1160.57,-339.608 1150.73,-343.544 1160.87,-346.602 1160.57,-339.608"/>
</g>
<!-- Node65 -->
<g id="node47" class="node"><title>Node65</title>
<g id="a_node47"><a xlink:href="time_8h.html" target="_top" xlink:title="ODP time. ">
<polygon fill="white" stroke="red" points="867,-280.5 867,-299.5 914,-299.5 914,-280.5 867,-280.5"/>
<text text-anchor="middle" x="890.5" y="-287.5" font-family="Helvetica,sans-Serif" font-size="10.00">time.h</text>
</a>
</g>
</g>
<!-- Node9&#45;&gt;Node65 -->
<g id="edge59" class="edge"><title>Node9&#45;&gt;Node65</title>
<path fill="none" stroke="midnightblue" d="M1068.21,-334.569C1029.46,-325.724 972.754,-312.514 923.5,-300 920.507,-299.24 917.369,-298.417 914.267,-297.588"/>
<polygon fill="midnightblue" stroke="midnightblue" points="1067.62,-338.025 1078.15,-336.832 1069.17,-331.199 1067.62,-338.025"/>
</g>
<!-- Node67 -->
<g id="node48" class="node"><title>Node67</title>
<g id="a_node48"><a xlink:href="timer_8h.html" target="_top" xlink:title="ODP timer service. ">
<polygon fill="white" stroke="black" points="1817.5,-280.5 1817.5,-299.5 1867.5,-299.5 1867.5,-280.5 1817.5,-280.5"/>
<text text-anchor="middle" x="1842.5" y="-287.5" font-family="Helvetica,sans-Serif" font-size="10.00">timer.h</text>
</a>
</g>
</g>
<!-- Node9&#45;&gt;Node67 -->
<g id="edge61" class="edge"><title>Node9&#45;&gt;Node67</title>
<path fill="none" stroke="midnightblue" d="M1160.79,-345.086C1272.79,-344.626 1566.94,-339.419 1808.5,-300 1811.39,-299.528 1814.4,-298.917 1817.37,-298.235"/>
<polygon fill="midnightblue" stroke="midnightblue" points="1160.52,-341.587 1150.53,-345.117 1160.54,-348.587 1160.52,-341.587"/>
</g>
<!-- Node68 -->
<g id="node49" class="node"><title>Node68</title>
<g id="a_node49"><a xlink:href="strong__types_8h.html" target="_top" xlink:title="ODP Strong Types. ">
<polygon fill="white" stroke="black" points="1885.5,-280.5 1885.5,-299.5 1973.5,-299.5 1973.5,-280.5 1885.5,-280.5"/>
<text text-anchor="middle" x="1929.5" y="-287.5" font-family="Helvetica,sans-Serif" font-size="10.00">strong_types.h</text>
</a>
</g>
</g>
<!-- Node9&#45;&gt;Node68 -->
<g id="edge62" class="edge"><title>Node9&#45;&gt;Node68</title>
<path fill="none" stroke="midnightblue" d="M1160.93,-344.023C1280.13,-341.132 1606.5,-330.804 1876.5,-300 1879.37,-299.672 1882.33,-299.292 1885.31,-298.876"/>
<polygon fill="midnightblue" stroke="midnightblue" points="1160.63,-340.529 1150.71,-344.265 1160.79,-347.527 1160.63,-340.529"/>
</g>
<!-- Node22 -->
<g id="node18" class="node"><title>Node22</title>
<g id="a_node18"><a xlink:href="spec_2ipsec_8h.html" target="_top" xlink:title="ODP IPSEC API. ">
<polygon fill="white" stroke="red" points="840.5,-0.5 840.5,-19.5 890.5,-19.5 890.5,-0.5 840.5,-0.5"/>
<text text-anchor="middle" x="865.5" y="-7.5" font-family="Helvetica,sans-Serif" font-size="10.00">ipsec.h</text>
</a>
</g>
</g>
<!-- Node21&#45;&gt;Node22 -->
<g id="edge19" class="edge"><title>Node21&#45;&gt;Node22</title>
<path fill="none" stroke="midnightblue" d="M814.09,-50.1008C826.868,-40.3824 843.113,-28.0269 853.885,-19.8339"/>
<polygon fill="midnightblue" stroke="midnightblue" points="811.748,-47.4844 805.907,-56.324 815.986,-53.0561 811.748,-47.4844"/>
</g>
<!-- Node24&#45;&gt;Node22 -->
<g id="edge21" class="edge"><title>Node24&#45;&gt;Node22</title>
<path fill="none" stroke="midnightblue" d="M927.849,-158.856C912.835,-123.252 880.029,-45.4534 869.113,-19.5681"/>
<polygon fill="midnightblue" stroke="midnightblue" points="924.626,-160.221 931.736,-168.075 931.076,-157.501 924.626,-160.221"/>
</g>
<!-- Node26 -->
<g id="node21" class="node"><title>Node26</title>
<g id="a_node21"><a xlink:href="spec_2comp_8h.html" target="_top" xlink:title="ODP Compression. ">
<polygon fill="white" stroke="red" points="603,-224.5 603,-243.5 656,-243.5 656,-224.5 603,-224.5"/>
<text text-anchor="middle" x="629.5" y="-231.5" font-family="Helvetica,sans-Serif" font-size="10.00">comp.h</text>
</a>
</g>
</g>
<!-- Node25&#45;&gt;Node26 -->
<g id="edge23" class="edge"><title>Node25&#45;&gt;Node26</title>
<path fill="none" stroke="midnightblue" d="M740.473,-276.906C713.588,-266.754 675.859,-252.506 652.053,-243.516"/>
<polygon fill="midnightblue" stroke="midnightblue" points="739.25,-280.185 749.841,-280.444 741.722,-273.636 739.25,-280.185"/>
</g>
<!-- Node28 -->
<g id="node22" class="node"><title>Node28</title>
<g id="a_node22"><a xlink:href="spec_2crypto_8h.html" target="_top" xlink:title="ODP crypto. ">
<polygon fill="white" stroke="black" points="745.5,-224.5 745.5,-243.5 801.5,-243.5 801.5,-224.5 745.5,-224.5"/>
<text text-anchor="middle" x="773.5" y="-231.5" font-family="Helvetica,sans-Serif" font-size="10.00">crypto.h</text>
</a>
</g>
</g>
<!-- Node25&#45;&gt;Node28 -->
<g id="edge24" class="edge"><title>Node25&#45;&gt;Node28</title>
<path fill="none" stroke="midnightblue" d="M772.855,-269.805C773.02,-260.91 773.208,-250.78 773.338,-243.751"/>
<polygon fill="midnightblue" stroke="midnightblue" points="769.351,-270.02 772.665,-280.083 776.35,-270.15 769.351,-270.02"/>
</g>
<!-- Node29 -->
<g id="node23" class="node"><title>Node29</title>
<g id="a_node23"><a xlink:href="spec_2event_8h.html" target="_top" xlink:title="ODP event. ">
<polygon fill="white" stroke="red" points="674,-224.5 674,-243.5 727,-243.5 727,-224.5 674,-224.5"/>
<text text-anchor="middle" x="700.5" y="-231.5" font-family="Helvetica,sans-Serif" font-size="10.00">event.h</text>
</a>
</g>
</g>
<!-- Node25&#45;&gt;Node29 -->
<g id="edge26" class="edge"><title>Node25&#45;&gt;Node29</title>
<path fill="none" stroke="midnightblue" d="M752.634,-274.101C739.677,-264.382 723.203,-252.027 712.279,-243.834"/>
<polygon fill="midnightblue" stroke="midnightblue" points="750.832,-277.124 760.932,-280.324 755.032,-271.524 750.832,-277.124"/>
</g>
<!-- Node25&#45;&gt;Node40 -->
<g id="edge27" class="edge"><title>Node25&#45;&gt;Node40</title>
<path fill="none" stroke="midnightblue" d="M733.334,-279.844C689.928,-269.698 620.478,-253.462 578.123,-243.561"/>
<polygon fill="midnightblue" stroke="midnightblue" points="732.709,-283.293 743.244,-282.161 734.303,-276.476 732.709,-283.293"/>
</g>
<!-- Node33 -->
<g id="node26" class="node"><title>Node33</title>
<g id="a_node26"><a xlink:href="spec_2packet__io_8h.html" target="_top" xlink:title="ODP Packet IO. ">
<polygon fill="white" stroke="black" points="858,-224.5 858,-243.5 929,-243.5 929,-224.5 858,-224.5"/>
<text text-anchor="middle" x="893.5" y="-231.5" font-family="Helvetica,sans-Serif" font-size="10.00">packet_io.h</text>
</a>
</g>
</g>
<!-- Node25&#45;&gt;Node33 -->
<g id="edge29" class="edge"><title>Node25&#45;&gt;Node33</title>
<path fill="none" stroke="midnightblue" d="M800.806,-276.368C823.465,-266.255 854.626,-252.349 874.417,-243.516"/>
<polygon fill="midnightblue" stroke="midnightblue" points="799.378,-273.172 791.673,-280.444 802.231,-279.564 799.378,-273.172"/>
</g>
<!-- Node28&#45;&gt;Node24 -->
<g id="edge25" class="edge"><title>Node28&#45;&gt;Node24</title>
<path fill="none" stroke="midnightblue" d="M808.984,-221.172C839.488,-211.004 882.745,-196.585 909.951,-187.516"/>
<polygon fill="midnightblue" stroke="midnightblue" points="807.549,-217.961 799.169,-224.444 809.763,-224.602 807.549,-217.961"/>
</g>
<!-- Node41 -->
<g id="node25" class="node"><title>Node41</title>
<g id="a_node25"><a xlink:href="packet__flags_8h.html" target="_top" xlink:title="ODP packet flags. ">
<polygon fill="white" stroke="black" points="498.5,-168.5 498.5,-187.5 584.5,-187.5 584.5,-168.5 498.5,-168.5"/>
<text text-anchor="middle" x="541.5" y="-175.5" font-family="Helvetica,sans-Serif" font-size="10.00">packet_flags.h</text>
</a>
</g>
</g>
<!-- Node40&#45;&gt;Node41 -->
<g id="edge28" class="edge"><title>Node40&#45;&gt;Node41</title>
<path fill="none" stroke="midnightblue" d="M541.5,-213.805C541.5,-204.91 541.5,-194.78 541.5,-187.751"/>
<polygon fill="midnightblue" stroke="midnightblue" points="538,-214.083 541.5,-224.083 545,-214.083 538,-214.083"/>
</g>
<!-- Node33&#45;&gt;Node34 -->
<g id="edge30" class="edge"><title>Node33&#45;&gt;Node34</title>
<path fill="none" stroke="midnightblue" d="M875.509,-217.82C864.042,-208.145 849.587,-195.948 839.97,-187.834"/>
<polygon fill="midnightblue" stroke="midnightblue" points="873.317,-220.55 883.217,-224.324 877.831,-215.2 873.317,-220.55"/>
</g>
<!-- Node34&#45;&gt;Node22 -->
<g id="edge33" class="edge"><title>Node34&#45;&gt;Node22</title>
<path fill="none" stroke="midnightblue" d="M837.381,-158.724C840.604,-150.656 844.125,-140.982 846.5,-132 857.425,-90.6785 862.907,-39.6518 864.759,-19.6335"/>
<polygon fill="midnightblue" stroke="midnightblue" points="834.044,-157.634 833.438,-168.212 840.508,-160.321 834.044,-157.634"/>
</g>
<!-- Node35 -->
<g id="node28" class="node"><title>Node35</title>
<g id="a_node28"><a xlink:href="spec_2classification_8h.html" target="_top" xlink:title="ODP classification descriptor. ">
<polygon fill="white" stroke="black" points="751.5,-112.5 751.5,-131.5 837.5,-131.5 837.5,-112.5 751.5,-112.5"/>
<text text-anchor="middle" x="794.5" y="-119.5" font-family="Helvetica,sans-Serif" font-size="10.00">classification.h</text>
</a>
</g>
</g>
<!-- Node34&#45;&gt;Node35 -->
<g id="edge31" class="edge"><title>Node34&#45;&gt;Node35</title>
<path fill="none" stroke="midnightblue" d="M818.2,-159.566C812.178,-150.275 805.031,-139.248 800.172,-131.751"/>
<polygon fill="midnightblue" stroke="midnightblue" points="815.344,-161.595 823.72,-168.083 821.219,-157.788 815.344,-161.595"/>
</g>
<!-- Node34&#45;&gt;Node36 -->
<g id="edge34" class="edge"><title>Node34&#45;&gt;Node36</title>
<path fill="none" stroke="midnightblue" d="M783.924,-166.392C740.065,-156.183 674.593,-140.944 634.048,-131.507"/>
<polygon fill="midnightblue" stroke="midnightblue" points="783.225,-169.823 793.758,-168.681 784.812,-163.005 783.225,-169.823"/>
</g>
<!-- Node35&#45;&gt;Node21 -->
<g id="edge32" class="edge"><title>Node35&#45;&gt;Node21</title>
<path fill="none" stroke="midnightblue" d="M794.5,-101.805C794.5,-92.9102 794.5,-82.7798 794.5,-75.7511"/>
<polygon fill="midnightblue" stroke="midnightblue" points="791,-102.083 794.5,-112.083 798,-102.083 791,-102.083"/>
</g>
<!-- Node32&#45;&gt;Node24 -->
<g id="edge37" class="edge"><title>Node32&#45;&gt;Node24</title>
<path fill="none" stroke="midnightblue" d="M956.261,-270.348C950.785,-246.254 941.479,-205.308 937.453,-187.591"/>
<polygon fill="midnightblue" stroke="midnightblue" points="952.909,-271.393 958.538,-280.368 959.735,-269.841 952.909,-271.393"/>
</g>
<!-- Node32&#45;&gt;Node33 -->
<g id="edge38" class="edge"><title>Node32&#45;&gt;Node33</title>
<path fill="none" stroke="midnightblue" d="M941.665,-273.82C929.662,-264.145 914.528,-251.948 904.461,-243.834"/>
<polygon fill="midnightblue" stroke="midnightblue" points="939.753,-276.774 949.735,-280.324 944.146,-271.324 939.753,-276.774"/>
</g>
<!-- Node32&#45;&gt;Node38 -->
<g id="edge39" class="edge"><title>Node32&#45;&gt;Node38</title>
<path fill="none" stroke="midnightblue" d="M977.395,-273.537C987.915,-263.909 1001.07,-251.869 1009.85,-243.834"/>
<polygon fill="midnightblue" stroke="midnightblue" points="974.993,-270.99 969.979,-280.324 979.719,-276.154 974.993,-270.99"/>
</g>
<!-- Node43 -->
<g id="node33" class="node"><title>Node43</title>
<g id="a_node33"><a xlink:href="chksum_8h.html" target="_top" xlink:title="ODP checksum functions. ">
<polygon fill="white" stroke="black" points="1110,-224.5 1110,-243.5 1173,-243.5 1173,-224.5 1110,-224.5"/>
<text text-anchor="middle" x="1141.5" y="-231.5" font-family="Helvetica,sans-Serif" font-size="10.00">chksum.h</text>
</a>
</g>
</g>
<!-- Node42&#45;&gt;Node43 -->
<g id="edge41" class="edge"><title>Node42&#45;&gt;Node43</title>
<path fill="none" stroke="midnightblue" d="M1123.51,-270.983C1128.09,-261.817 1133.45,-251.092 1137.12,-243.751"/>
<polygon fill="midnightblue" stroke="midnightblue" points="1120.3,-269.573 1118.96,-280.083 1126.56,-272.704 1120.3,-269.573"/>
</g>
<!-- Node45 -->
<g id="node35" class="node"><title>Node45</title>
<g id="a_node35"><a xlink:href="cpu_8h.html" target="_top" xlink:title="ODP CPU. ">
<polygon fill="white" stroke="red" points="1191,-224.5 1191,-243.5 1234,-243.5 1234,-224.5 1191,-224.5"/>
<text text-anchor="middle" x="1212.5" y="-231.5" font-family="Helvetica,sans-Serif" font-size="10.00">cpu.h</text>
</a>
</g>
</g>
<!-- Node44&#45;&gt;Node45 -->
<g id="edge43" class="edge"><title>Node44&#45;&gt;Node45</title>
<path fill="none" stroke="midnightblue" d="M1194.51,-270.983C1199.09,-261.817 1204.45,-251.092 1208.12,-243.751"/>
<polygon fill="midnightblue" stroke="midnightblue" points="1191.3,-269.573 1189.96,-280.083 1197.56,-272.704 1191.3,-269.573"/>
</g>
<!-- Node48 -->
<g id="node37" class="node"><title>Node48</title>
<g id="a_node37"><a xlink:href="feature_8h.html" target="_top" xlink:title="ODP features. ">
<polygon fill="white" stroke="black" points="1290.5,-224.5 1290.5,-243.5 1350.5,-243.5 1350.5,-224.5 1290.5,-224.5"/>
<text text-anchor="middle" x="1320.5" y="-231.5" font-family="Helvetica,sans-Serif" font-size="10.00">feature.h</text>
</a>
</g>
</g>
<!-- Node47&#45;&gt;Node48 -->
<g id="edge45" class="edge"><title>Node47&#45;&gt;Node48</title>
<path fill="none" stroke="midnightblue" d="M1302.51,-270.983C1307.09,-261.817 1312.45,-251.092 1316.12,-243.751"/>
<polygon fill="midnightblue" stroke="midnightblue" points="1299.3,-269.573 1297.96,-280.083 1305.56,-272.704 1299.3,-269.573"/>
</g>
<!-- Node48&#45;&gt;Node49 -->
<g id="edge46" class="edge"><title>Node48&#45;&gt;Node49</title>
<path fill="none" stroke="midnightblue" d="M1310.82,-214.983C1305.9,-205.817 1300.14,-195.092 1296.2,-187.751"/>
<polygon fill="midnightblue" stroke="midnightblue" points="1307.9,-216.929 1315.71,-224.083 1314.06,-213.617 1307.9,-216.929"/>
</g>
<!-- Node50 -->
<g id="node39" class="node"><title>Node50</title>
<g id="a_node39"><a xlink:href="init_8h.html" target="_top" xlink:title="ODP initialization. ">
<polygon fill="white" stroke="red" points="1271.5,-112.5 1271.5,-131.5 1311.5,-131.5 1311.5,-112.5 1271.5,-112.5"/>
<text text-anchor="middle" x="1291.5" y="-119.5" font-family="Helvetica,sans-Serif" font-size="10.00">init.h</text>
</a>
</g>
</g>
<!-- Node49&#45;&gt;Node50 -->
<g id="edge47" class="edge"><title>Node49&#45;&gt;Node50</title>
<path fill="none" stroke="midnightblue" d="M1291.5,-157.805C1291.5,-148.91 1291.5,-138.78 1291.5,-131.751"/>
<polygon fill="midnightblue" stroke="midnightblue" points="1288,-158.083 1291.5,-168.083 1295,-158.083 1288,-158.083"/>
</g>
<!-- Node54 -->
<g id="node41" class="node"><title>Node54</title>
<g id="a_node41"><a xlink:href="hash_8h.html" target="_top" xlink:title="ODP Hash function. ">
<polygon fill="white" stroke="black" points="1369,-224.5 1369,-243.5 1418,-243.5 1418,-224.5 1369,-224.5"/>
<text text-anchor="middle" x="1393.5" y="-231.5" font-family="Helvetica,sans-Serif" font-size="10.00">hash.h</text>
</a>
</g>
</g>
<!-- Node53&#45;&gt;Node54 -->
<g id="edge49" class="edge"><title>Node53&#45;&gt;Node54</title>
<path fill="none" stroke="midnightblue" d="M1375.51,-270.983C1380.09,-261.817 1385.45,-251.092 1389.12,-243.751"/>
<polygon fill="midnightblue" stroke="midnightblue" points="1372.3,-269.573 1370.96,-280.083 1378.56,-272.704 1372.3,-269.573"/>
</g>
<!-- Node65&#45;&gt;Node33 -->
<g id="edge60" class="edge"><title>Node65&#45;&gt;Node33</title>
<path fill="none" stroke="midnightblue" d="M891.566,-269.805C892.061,-260.91 892.623,-250.78 893.014,-243.751"/>
<polygon fill="midnightblue" stroke="midnightblue" points="888.056,-269.904 890.995,-280.083 895.045,-270.293 888.056,-269.904"/>
</g>
</g>
</svg>
