<?xml version="1.0" encoding="UTF-8" standalone="no"?>
<!DOCTYPE svg PUBLIC "-//W3C//DTD SVG 1.1//EN"
 "http://www.w3.org/Graphics/SVG/1.1/DTD/svg11.dtd">
<!-- Generated by graphviz version 2.38.0 (20140413.2041)
 -->
<!-- Title: event.h Pages: 1 -->
<svg width="992pt" height="532pt"
 viewBox="0.00 0.00 992.00 532.00" xmlns="http://www.w3.org/2000/svg" xmlns:xlink="http://www.w3.org/1999/xlink">
<g id="graph0" class="graph" transform="scale(1 1) rotate(0) translate(4 528)">
<title>event.h</title>
<polygon fill="white" stroke="none" points="-4,4 -4,-528 988,-528 988,4 -4,4"/>
<!-- Node0 -->
<g id="node1" class="node"><title>Node0</title>
<polygon fill="#bfbfbf" stroke="black" points="153.5,-504.5 153.5,-523.5 206.5,-523.5 206.5,-504.5 153.5,-504.5"/>
<text text-anchor="middle" x="180" y="-511.5" font-family="Helvetica,sans-Serif" font-size="10.00">event.h</text>
</g>
<!-- Node1 -->
<g id="node2" class="node"><title>Node1</title>
<polygon fill="white" stroke="#bfbfbf" points="0,-336.5 0,-355.5 108,-355.5 108,-336.5 0,-336.5"/>
<text text-anchor="middle" x="54" y="-343.5" font-family="Helvetica,sans-Serif" font-size="10.00">odp/api/abi/event.h</text>
</g>
<!-- Node0&#45;&gt;Node1 -->
<g id="edge1" class="edge"><title>Node0&#45;&gt;Node1</title>
<path fill="none" stroke="midnightblue" d="M173.226,-504.075C153.049,-477.493 93.1192,-398.538 66.724,-363.763"/>
<polygon fill="midnightblue" stroke="midnightblue" points="69.3374,-361.417 60.5035,-355.568 63.7616,-365.65 69.3374,-361.417"/>
</g>
<!-- Node2 -->
<g id="node3" class="node"><title>Node2</title>
<g id="a_node3"><a xlink:href="spec_2event_8h.html" target="_top" xlink:title="ODP event. ">
<polygon fill="white" stroke="black" points="227,-448.5 227,-467.5 343,-467.5 343,-448.5 227,-448.5"/>
<text text-anchor="middle" x="285" y="-455.5" font-family="Helvetica,sans-Serif" font-size="10.00">odp/api/spec/event.h</text>
</a>
</g>
</g>
<!-- Node0&#45;&gt;Node2 -->
<g id="edge2" class="edge"><title>Node0&#45;&gt;Node2</title>
<path fill="none" stroke="midnightblue" d="M196.87,-504.324C213.709,-495.664 239.807,-482.242 259.238,-472.249"/>
<polygon fill="midnightblue" stroke="midnightblue" points="260.88,-475.341 268.172,-467.655 257.678,-469.116 260.88,-475.341"/>
</g>
<!-- Node3 -->
<g id="node4" class="node"><title>Node3</title>
<polygon fill="white" stroke="#bfbfbf" points="804.5,-0.5 804.5,-19.5 919.5,-19.5 919.5,-0.5 804.5,-0.5"/>
<text text-anchor="middle" x="862" y="-7.5" font-family="Helvetica,sans-Serif" font-size="10.00">odp/visibility_begin.h</text>
</g>
<!-- Node2&#45;&gt;Node3 -->
<g id="edge3" class="edge"><title>Node2&#45;&gt;Node3</title>
<path fill="none" stroke="midnightblue" d="M343.095,-453.954C510.83,-444.393 984,-411.687 984,-347 984,-347 984,-347 984,-121 984,-72.5682 930.312,-39.986 894.166,-23.5381"/>
<polygon fill="midnightblue" stroke="midnightblue" points="895.513,-20.3069 884.947,-19.5154 892.713,-26.7227 895.513,-20.3069"/>
</g>
<!-- Node4 -->
<g id="node5" class="node"><title>Node4</title>
<g id="a_node5"><a xlink:href="packet_8h.html" target="_top" xlink:title="ODP packet descriptor. ">
<polygon fill="white" stroke="black" points="360,-392.5 360,-411.5 456,-411.5 456,-392.5 360,-392.5"/>
<text text-anchor="middle" x="408" y="-399.5" font-family="Helvetica,sans-Serif" font-size="10.00">odp/api/packet.h</text>
</a>
</g>
</g>
<!-- Node2&#45;&gt;Node4 -->
<g id="edge4" class="edge"><title>Node2&#45;&gt;Node4</title>
<path fill="none" stroke="midnightblue" d="M304.49,-448.444C324.642,-439.596 356.323,-425.687 379.331,-415.586"/>
<polygon fill="midnightblue" stroke="midnightblue" points="380.852,-418.741 388.601,-411.516 378.038,-412.332 380.852,-418.741"/>
</g>
<!-- Node12 -->
<g id="node13" class="node"><title>Node12</title>
<polygon fill="white" stroke="#bfbfbf" points="434.5,-0.5 434.5,-19.5 541.5,-19.5 541.5,-0.5 434.5,-0.5"/>
<text text-anchor="middle" x="488" y="-7.5" font-family="Helvetica,sans-Serif" font-size="10.00">odp/visibility_end.h</text>
</g>
<!-- Node2&#45;&gt;Node12 -->
<g id="edge30" class="edge"><title>Node2&#45;&gt;Node12</title>
<path fill="none" stroke="midnightblue" d="M251.561,-448.413C207.631,-434.884 136,-404.073 136,-347 136,-347 136,-347 136,-121 136,-61.3442 322.519,-30.2518 424.011,-17.7491"/>
<polygon fill="midnightblue" stroke="midnightblue" points="424.646,-21.1979 434.156,-16.5263 423.809,-14.2482 424.646,-21.1979"/>
</g>
<!-- Node4&#45;&gt;Node1 -->
<g id="edge16" class="edge"><title>Node4&#45;&gt;Node1</title>
<path fill="none" stroke="midnightblue" d="M359.89,-393.661C297.276,-384.11 187.665,-367.39 118.063,-356.772"/>
<polygon fill="midnightblue" stroke="midnightblue" points="118.508,-353.3 108.094,-355.252 117.452,-360.22 118.508,-353.3"/>
</g>
<!-- Node5 -->
<g id="node6" class="node"><title>Node5</title>
<g id="a_node6"><a xlink:href="std__types_8h.html" target="_top" xlink:title="Standard C language types and definitions for ODP. ">
<polygon fill="white" stroke="black" points="563,-224.5 563,-243.5 673,-243.5 673,-224.5 563,-224.5"/>
<text text-anchor="middle" x="618" y="-231.5" font-family="Helvetica,sans-Serif" font-size="10.00">odp/api/std_types.h</text>
</a>
</g>
</g>
<!-- Node4&#45;&gt;Node5 -->
<g id="edge5" class="edge"><title>Node4&#45;&gt;Node5</title>
<path fill="none" stroke="midnightblue" d="M415.123,-392.451C426.155,-379.473 448.363,-354.37 470,-336 511.083,-301.119 564.344,-267.192 594.483,-248.903"/>
<polygon fill="midnightblue" stroke="midnightblue" points="596.646,-251.687 603.412,-243.533 593.038,-245.688 596.646,-251.687"/>
</g>
<!-- Node13 -->
<g id="node14" class="node"><title>Node13</title>
<polygon fill="white" stroke="#bfbfbf" points="164.5,-336.5 164.5,-355.5 291.5,-355.5 291.5,-336.5 164.5,-336.5"/>
<text text-anchor="middle" x="228" y="-343.5" font-family="Helvetica,sans-Serif" font-size="10.00">odp/api/abi/packet_io.h</text>
</g>
<!-- Node4&#45;&gt;Node13 -->
<g id="edge17" class="edge"><title>Node4&#45;&gt;Node13</title>
<path fill="none" stroke="midnightblue" d="M379.478,-392.444C348.934,-383.28 300.292,-368.688 266.397,-358.519"/>
<polygon fill="midnightblue" stroke="midnightblue" points="266.972,-355.038 256.388,-355.516 264.961,-361.742 266.972,-355.038"/>
</g>
<!-- Node14 -->
<g id="node15" class="node"><title>Node14</title>
<polygon fill="white" stroke="#bfbfbf" points="309.5,-336.5 309.5,-355.5 422.5,-355.5 422.5,-336.5 309.5,-336.5"/>
<text text-anchor="middle" x="366" y="-343.5" font-family="Helvetica,sans-Serif" font-size="10.00">odp/api/abi/packet.h</text>
</g>
<!-- Node4&#45;&gt;Node14 -->
<g id="edge18" class="edge"><title>Node4&#45;&gt;Node14</title>
<path fill="none" stroke="midnightblue" d="M401.065,-392.083C395.071,-384.377 386.248,-373.033 378.952,-363.653"/>
<polygon fill="midnightblue" stroke="midnightblue" points="381.709,-361.496 372.806,-355.751 376.183,-365.793 381.709,-361.496"/>
</g>
<!-- Node15 -->
<g id="node16" class="node"><title>Node15</title>
<polygon fill="white" stroke="#bfbfbf" points="479,-336.5 479,-355.5 587,-355.5 587,-336.5 479,-336.5"/>
<text text-anchor="middle" x="533" y="-343.5" font-family="Helvetica,sans-Serif" font-size="10.00">odp/api/abi/buffer.h</text>
</g>
<!-- Node4&#45;&gt;Node15 -->
<g id="edge19" class="edge"><title>Node4&#45;&gt;Node15</title>
<path fill="none" stroke="midnightblue" d="M427.807,-392.444C448.287,-383.596 480.483,-369.687 503.865,-359.586"/>
<polygon fill="midnightblue" stroke="midnightblue" points="505.494,-362.695 513.286,-355.516 502.718,-356.269 505.494,-362.695"/>
</g>
<!-- Node16 -->
<g id="node17" class="node"><title>Node16</title>
<polygon fill="white" stroke="#bfbfbf" points="605.5,-336.5 605.5,-355.5 706.5,-355.5 706.5,-336.5 605.5,-336.5"/>
<text text-anchor="middle" x="656" y="-343.5" font-family="Helvetica,sans-Serif" font-size="10.00">odp/api/abi/pool.h</text>
</g>
<!-- Node4&#45;&gt;Node16 -->
<g id="edge20" class="edge"><title>Node4&#45;&gt;Node16</title>
<path fill="none" stroke="midnightblue" d="M447.296,-392.444C490.559,-383.023 560.173,-367.866 606.973,-357.675"/>
<polygon fill="midnightblue" stroke="midnightblue" points="607.861,-361.064 616.888,-355.516 606.372,-354.224 607.861,-361.064"/>
</g>
<!-- Node17 -->
<g id="node18" class="node"><title>Node17</title>
<g id="a_node18"><a xlink:href="spec_2packet_8h.html" target="_top" xlink:title="ODP packet descriptor. ">
<polygon fill="white" stroke="black" points="725,-336.5 725,-355.5 847,-355.5 847,-336.5 725,-336.5"/>
<text text-anchor="middle" x="786" y="-343.5" font-family="Helvetica,sans-Serif" font-size="10.00">odp/api/spec/packet.h</text>
</a>
</g>
</g>
<!-- Node4&#45;&gt;Node17 -->
<g id="edge21" class="edge"><title>Node4&#45;&gt;Node17</title>
<path fill="none" stroke="midnightblue" d="M456.258,-394.106C522.164,-384.691 640.745,-367.751 716.3,-356.957"/>
<polygon fill="midnightblue" stroke="midnightblue" points="716.803,-360.421 726.207,-355.542 715.813,-353.491 716.803,-360.421"/>
</g>
<!-- Node6 -->
<g id="node7" class="node"><title>Node6</title>
<polygon fill="white" stroke="#bfbfbf" points="479,-168.5 479,-187.5 607,-187.5 607,-168.5 479,-168.5"/>
<text text-anchor="middle" x="543" y="-175.5" font-family="Helvetica,sans-Serif" font-size="10.00">odp/api/abi/std_types.h</text>
</g>
<!-- Node5&#45;&gt;Node6 -->
<g id="edge6" class="edge"><title>Node5&#45;&gt;Node6</title>
<path fill="none" stroke="midnightblue" d="M605.95,-224.324C594.537,-216.107 577.169,-203.602 563.565,-193.807"/>
<polygon fill="midnightblue" stroke="midnightblue" points="565.43,-190.837 555.269,-187.834 561.34,-196.517 565.43,-190.837"/>
</g>
<!-- Node7 -->
<g id="node8" class="node"><title>Node7</title>
<g id="a_node8"><a xlink:href="spec_2std__types_8h.html" target="_top" xlink:title="Standard C language types and definitions for ODP. ">
<polygon fill="white" stroke="black" points="625,-168.5 625,-187.5 761,-187.5 761,-168.5 625,-168.5"/>
<text text-anchor="middle" x="693" y="-175.5" font-family="Helvetica,sans-Serif" font-size="10.00">odp/api/spec/std_types.h</text>
</a>
</g>
</g>
<!-- Node5&#45;&gt;Node7 -->
<g id="edge7" class="edge"><title>Node5&#45;&gt;Node7</title>
<path fill="none" stroke="midnightblue" d="M630.05,-224.324C641.463,-216.107 658.831,-203.602 672.435,-193.807"/>
<polygon fill="midnightblue" stroke="midnightblue" points="674.66,-196.517 680.731,-187.834 670.57,-190.837 674.66,-196.517"/>
</g>
<!-- Node7&#45;&gt;Node3 -->
<g id="edge8" class="edge"><title>Node7&#45;&gt;Node3</title>
<path fill="none" stroke="midnightblue" d="M704.741,-168.494C716.036,-159.989 733.233,-146.168 746,-132 773.398,-101.596 769.245,-85.1243 798,-56 809.826,-44.0222 825.199,-33.096 837.915,-25.01"/>
<polygon fill="midnightblue" stroke="midnightblue" points="839.937,-27.875 846.615,-19.6497 836.265,-21.9153 839.937,-27.875"/>
</g>
<!-- Node8 -->
<g id="node9" class="node"><title>Node8</title>
<polygon fill="white" stroke="#bfbfbf" points="579.5,-112.5 579.5,-131.5 632.5,-131.5 632.5,-112.5 579.5,-112.5"/>
<text text-anchor="middle" x="606" y="-119.5" font-family="Helvetica,sans-Serif" font-size="10.00">stdint.h</text>
</g>
<!-- Node7&#45;&gt;Node8 -->
<g id="edge9" class="edge"><title>Node7&#45;&gt;Node8</title>
<path fill="none" stroke="midnightblue" d="M679.022,-168.324C665.45,-159.9 644.62,-146.971 628.675,-137.074"/>
<polygon fill="midnightblue" stroke="midnightblue" points="630.286,-133.954 619.943,-131.655 626.594,-139.902 630.286,-133.954"/>
</g>
<!-- Node9 -->
<g id="node10" class="node"><title>Node9</title>
<g id="a_node10"><a xlink:href="align_8h.html" target="_top" xlink:title="ODP alignments. ">
<polygon fill="white" stroke="black" points="651,-112.5 651,-131.5 737,-131.5 737,-112.5 651,-112.5"/>
<text text-anchor="middle" x="694" y="-119.5" font-family="Helvetica,sans-Serif" font-size="10.00">odp/api/align.h</text>
</a>
</g>
</g>
<!-- Node7&#45;&gt;Node9 -->
<g id="edge10" class="edge"><title>Node7&#45;&gt;Node9</title>
<path fill="none" stroke="midnightblue" d="M693.165,-168.083C693.296,-161.006 693.484,-150.861 693.648,-141.986"/>
<polygon fill="midnightblue" stroke="midnightblue" points="697.152,-141.814 693.838,-131.751 690.153,-141.685 697.152,-141.814"/>
</g>
<!-- Node7&#45;&gt;Node12 -->
<g id="edge15" class="edge"><title>Node7&#45;&gt;Node12</title>
<path fill="none" stroke="midnightblue" d="M660.216,-168.463C634.788,-161.021 599.239,-148.778 571,-132 538.506,-112.694 527.338,-107.858 507,-76 498.005,-61.9096 493.14,-43.4194 490.593,-29.7637"/>
<polygon fill="midnightblue" stroke="midnightblue" points="494.007,-28.9475 488.959,-19.6327 487.096,-30.0625 494.007,-28.9475"/>
</g>
<!-- Node10 -->
<g id="node11" class="node"><title>Node10</title>
<polygon fill="white" stroke="#bfbfbf" points="516,-56.5 516,-75.5 620,-75.5 620,-56.5 516,-56.5"/>
<text text-anchor="middle" x="568" y="-63.5" font-family="Helvetica,sans-Serif" font-size="10.00">odp/api/abi/align.h</text>
</g>
<!-- Node9&#45;&gt;Node10 -->
<g id="edge11" class="edge"><title>Node9&#45;&gt;Node10</title>
<path fill="none" stroke="midnightblue" d="M674.035,-112.444C653.391,-103.596 620.937,-89.6875 597.368,-79.5865"/>
<polygon fill="midnightblue" stroke="midnightblue" points="598.442,-76.2387 587.872,-75.5164 595.684,-82.6727 598.442,-76.2387"/>
</g>
<!-- Node11 -->
<g id="node12" class="node"><title>Node11</title>
<g id="a_node12"><a xlink:href="spec_2align_8h.html" target="_top" xlink:title="ODP alignments. ">
<polygon fill="white" stroke="black" points="638,-56.5 638,-75.5 750,-75.5 750,-56.5 638,-56.5"/>
<text text-anchor="middle" x="694" y="-63.5" font-family="Helvetica,sans-Serif" font-size="10.00">odp/api/spec/align.h</text>
</a>
</g>
</g>
<!-- Node9&#45;&gt;Node11 -->
<g id="edge12" class="edge"><title>Node9&#45;&gt;Node11</title>
<path fill="none" stroke="midnightblue" d="M694,-112.083C694,-105.006 694,-94.8611 694,-85.9865"/>
<polygon fill="midnightblue" stroke="midnightblue" points="697.5,-85.751 694,-75.7511 690.5,-85.7511 697.5,-85.751"/>
</g>
<!-- Node11&#45;&gt;Node3 -->
<g id="edge13" class="edge"><title>Node11&#45;&gt;Node3</title>
<path fill="none" stroke="midnightblue" d="M720.62,-56.4435C749.006,-47.3196 794.137,-32.8133 825.753,-22.6509"/>
<polygon fill="midnightblue" stroke="midnightblue" points="827.055,-25.9087 835.504,-19.5164 824.913,-19.2445 827.055,-25.9087"/>
</g>
<!-- Node11&#45;&gt;Node12 -->
<g id="edge14" class="edge"><title>Node11&#45;&gt;Node12</title>
<path fill="none" stroke="midnightblue" d="M661.359,-56.4435C625.95,-47.1616 569.291,-32.3093 530.447,-22.127"/>
<polygon fill="midnightblue" stroke="midnightblue" points="531.049,-18.6666 520.489,-19.5164 529.274,-25.4378 531.049,-18.6666"/>
</g>
<!-- Node17&#45;&gt;Node3 -->
<g id="edge22" class="edge"><title>Node17&#45;&gt;Node3</title>
<path fill="none" stroke="midnightblue" d="M824.732,-336.426C872.084,-323.392 946,-293.654 946,-235 946,-235 946,-235 946,-121 946,-90.9022 944.606,-80.4114 927,-56 917.503,-42.832 902.905,-32.2252 889.947,-24.6242"/>
<polygon fill="midnightblue" stroke="midnightblue" points="891.344,-21.3975 880.898,-19.6271 887.96,-27.5252 891.344,-21.3975"/>
</g>
<!-- Node17&#45;&gt;Node12 -->
<g id="edge29" class="edge"><title>Node17&#45;&gt;Node12</title>
<path fill="none" stroke="midnightblue" d="M727.939,-336.499C651.526,-321.728 520.946,-283.194 470,-188 442.119,-135.904 465.957,-62.8314 479.789,-29.2214"/>
<polygon fill="midnightblue" stroke="midnightblue" points="483.117,-30.3418 483.849,-19.7724 476.685,-27.578 483.117,-30.3418"/>
</g>
<!-- Node18 -->
<g id="node19" class="node"><title>Node18</title>
<g id="a_node19"><a xlink:href="time_8h.html" target="_top" xlink:title="ODP time. ">
<polygon fill="white" stroke="black" points="743,-280.5 743,-299.5 829,-299.5 829,-280.5 743,-280.5"/>
<text text-anchor="middle" x="786" y="-287.5" font-family="Helvetica,sans-Serif" font-size="10.00">odp/api/time.h</text>
</a>
</g>
</g>
<!-- Node17&#45;&gt;Node18 -->
<g id="edge23" class="edge"><title>Node17&#45;&gt;Node18</title>
<path fill="none" stroke="midnightblue" d="M786,-336.083C786,-329.006 786,-318.861 786,-309.986"/>
<polygon fill="midnightblue" stroke="midnightblue" points="789.5,-309.751 786,-299.751 782.5,-309.751 789.5,-309.751"/>
</g>
<!-- Node18&#45;&gt;Node5 -->
<g id="edge24" class="edge"><title>Node18&#45;&gt;Node5</title>
<path fill="none" stroke="midnightblue" d="M759.38,-280.444C730.994,-271.32 685.863,-256.813 654.247,-246.651"/>
<polygon fill="midnightblue" stroke="midnightblue" points="655.087,-243.244 644.496,-243.516 652.945,-249.909 655.087,-243.244"/>
</g>
<!-- Node19 -->
<g id="node20" class="node"><title>Node19</title>
<polygon fill="white" stroke="#bfbfbf" points="814.5,-224.5 814.5,-243.5 917.5,-243.5 917.5,-224.5 814.5,-224.5"/>
<text text-anchor="middle" x="866" y="-231.5" font-family="Helvetica,sans-Serif" font-size="10.00">odp/api/abi/time.h</text>
</g>
<!-- Node18&#45;&gt;Node19 -->
<g id="edge25" class="edge"><title>Node18&#45;&gt;Node19</title>
<path fill="none" stroke="midnightblue" d="M798.853,-280.324C811.216,-271.979 830.13,-259.212 844.737,-249.352"/>
<polygon fill="midnightblue" stroke="midnightblue" points="846.848,-252.15 853.179,-243.655 842.932,-246.348 846.848,-252.15"/>
</g>
<!-- Node20 -->
<g id="node21" class="node"><title>Node20</title>
<g id="a_node21"><a xlink:href="spec_2time_8h.html" target="_top" xlink:title="ODP time. ">
<polygon fill="white" stroke="black" points="806.5,-56.5 806.5,-75.5 917.5,-75.5 917.5,-56.5 806.5,-56.5"/>
<text text-anchor="middle" x="862" y="-63.5" font-family="Helvetica,sans-Serif" font-size="10.00">odp/api/spec/time.h</text>
</a>
</g>
</g>
<!-- Node18&#45;&gt;Node20 -->
<g id="edge26" class="edge"><title>Node18&#45;&gt;Node20</title>
<path fill="none" stroke="midnightblue" d="M788.594,-280.129C792.295,-267.579 799.378,-243.946 806,-224 822.737,-173.588 844.262,-114.756 855.105,-85.4933"/>
<polygon fill="midnightblue" stroke="midnightblue" points="858.502,-86.3982 858.705,-75.8053 851.941,-83.9597 858.502,-86.3982"/>
</g>
<!-- Node20&#45;&gt;Node3 -->
<g id="edge27" class="edge"><title>Node20&#45;&gt;Node3</title>
<path fill="none" stroke="midnightblue" d="M862,-56.083C862,-49.0059 862,-38.8611 862,-29.9865"/>
<polygon fill="midnightblue" stroke="midnightblue" points="865.5,-29.751 862,-19.7511 858.5,-29.7511 865.5,-29.751"/>
</g>
<!-- Node20&#45;&gt;Node12 -->
<g id="edge28" class="edge"><title>Node20&#45;&gt;Node12</title>
<path fill="none" stroke="midnightblue" d="M806.412,-56.974C738.434,-47.1589 623.606,-30.5795 552.007,-20.2416"/>
<polygon fill="midnightblue" stroke="midnightblue" points="552.165,-16.7282 541.767,-18.7632 551.165,-23.6564 552.165,-16.7282"/>
</g>
</g>
</svg>
