<?xml version="1.0" encoding="UTF-8" standalone="no"?>
<!DOCTYPE svg PUBLIC "-//W3C//DTD SVG 1.1//EN"
 "http://www.w3.org/Graphics/SVG/1.1/DTD/svg11.dtd">
<!-- Generated by graphviz version 2.38.0 (20140413.2041)
 -->
<!-- Title: packet_io.h Pages: 1 -->
<svg width="1548pt" height="789pt"
 viewBox="0.00 0.00 1548.00 789.00" xmlns="http://www.w3.org/2000/svg" xmlns:xlink="http://www.w3.org/1999/xlink">
<g id="graph0" class="graph" transform="scale(1 1) rotate(0) translate(4 785)">
<title>packet_io.h</title>
<polygon fill="white" stroke="none" points="-4,4 -4,-785 1544,-785 1544,4 -4,4"/>
<!-- Node0 -->
<g id="node1" class="node"><title>Node0</title>
<polygon fill="#bfbfbf" stroke="black" points="200.5,-761.5 200.5,-780.5 271.5,-780.5 271.5,-761.5 200.5,-761.5"/>
<text text-anchor="middle" x="236" y="-768.5" font-family="Helvetica,sans-Serif" font-size="10.00">packet_io.h</text>
</g>
<!-- Node1 -->
<g id="node2" class="node"><title>Node1</title>
<g id="a_node2"><a xlink:href="std__types_8h.html" target="_top" xlink:title="Standard C language types and definitions for ODP. ">
<polygon fill="white" stroke="black" points="301,-246.5 301,-265.5 411,-265.5 411,-246.5 301,-246.5"/>
<text text-anchor="middle" x="356" y="-253.5" font-family="Helvetica,sans-Serif" font-size="10.00">odp/api/std_types.h</text>
</a>
</g>
</g>
<!-- Node0&#45;&gt;Node1 -->
<g id="edge1" class="edge"><title>Node0&#45;&gt;Node1</title>
<path fill="none" stroke="midnightblue" d="M200.413,-769.159C134.484,-765.509 0,-747.357 0,-660 0,-660 0,-660 0,-434 0,-305.579 188.04,-270.333 290.794,-260.659"/>
<polygon fill="midnightblue" stroke="midnightblue" points="291.114,-264.145 300.766,-259.775 290.496,-257.172 291.114,-264.145"/>
</g>
<!-- Node10 -->
<g id="node11" class="node"><title>Node10</title>
<polygon fill="white" stroke="#bfbfbf" points="418.5,-369.5 418.5,-388.5 519.5,-388.5 519.5,-369.5 418.5,-369.5"/>
<text text-anchor="middle" x="469" y="-376.5" font-family="Helvetica,sans-Serif" font-size="10.00">odp/api/abi/pool.h</text>
</g>
<!-- Node0&#45;&gt;Node10 -->
<g id="edge12" class="edge"><title>Node0&#45;&gt;Node10</title>
<path fill="none" stroke="midnightblue" d="M247.543,-761.433C268.804,-744.571 312,-704.799 312,-660 312,-660 312,-660 312,-490 312,-435.739 375.678,-405.976 421.926,-391.516"/>
<polygon fill="midnightblue" stroke="midnightblue" points="423.209,-394.786 431.793,-388.576 421.21,-388.077 423.209,-394.786"/>
</g>
<!-- Node11 -->
<g id="node12" class="node"><title>Node11</title>
<polygon fill="white" stroke="#bfbfbf" points="66,-705.5 66,-724.5 208,-724.5 208,-705.5 66,-705.5"/>
<text text-anchor="middle" x="137" y="-712.5" font-family="Helvetica,sans-Serif" font-size="10.00">odp/api/abi/classification.h</text>
</g>
<!-- Node0&#45;&gt;Node11 -->
<g id="edge13" class="edge"><title>Node0&#45;&gt;Node11</title>
<path fill="none" stroke="midnightblue" d="M220.094,-761.324C204.362,-752.743 180.058,-739.486 161.791,-729.522"/>
<polygon fill="midnightblue" stroke="midnightblue" points="163.322,-726.37 152.867,-724.655 159.97,-732.516 163.322,-726.37"/>
</g>
<!-- Node12 -->
<g id="node13" class="node"><title>Node12</title>
<polygon fill="white" stroke="#bfbfbf" points="142.5,-369.5 142.5,-388.5 255.5,-388.5 255.5,-369.5 142.5,-369.5"/>
<text text-anchor="middle" x="199" y="-376.5" font-family="Helvetica,sans-Serif" font-size="10.00">odp/api/abi/packet.h</text>
</g>
<!-- Node0&#45;&gt;Node12 -->
<g id="edge14" class="edge"><title>Node0&#45;&gt;Node12</title>
<path fill="none" stroke="midnightblue" d="M200.364,-766.178C153.332,-760.315 74.4374,-747.364 57,-725 -28.4252,-615.441 128.979,-447.283 182.272,-395.63"/>
<polygon fill="midnightblue" stroke="midnightblue" points="184.796,-398.058 189.609,-388.62 179.961,-392.997 184.796,-398.058"/>
</g>
<!-- Node13 -->
<g id="node14" class="node"><title>Node13</title>
<polygon fill="white" stroke="#bfbfbf" points="273.5,-369.5 273.5,-388.5 400.5,-388.5 400.5,-369.5 273.5,-369.5"/>
<text text-anchor="middle" x="337" y="-376.5" font-family="Helvetica,sans-Serif" font-size="10.00">odp/api/abi/packet_io.h</text>
</g>
<!-- Node0&#45;&gt;Node13 -->
<g id="edge15" class="edge"><title>Node0&#45;&gt;Node13</title>
<path fill="none" stroke="midnightblue" d="M233.507,-761.447C225.053,-732.156 198,-635.93 198,-604 198,-604 198,-604 198,-490 198,-438.575 257.225,-407.416 298.357,-391.978"/>
<polygon fill="midnightblue" stroke="midnightblue" points="299.632,-395.239 307.861,-388.565 297.267,-388.65 299.632,-395.239"/>
</g>
<!-- Node14 -->
<g id="node15" class="node"><title>Node14</title>
<polygon fill="white" stroke="#bfbfbf" points="340.5,-593.5 340.5,-612.5 451.5,-612.5 451.5,-593.5 340.5,-593.5"/>
<text text-anchor="middle" x="396" y="-600.5" font-family="Helvetica,sans-Serif" font-size="10.00">odp/api/abi/queue.h</text>
</g>
<!-- Node0&#45;&gt;Node14 -->
<g id="edge16" class="edge"><title>Node0&#45;&gt;Node14</title>
<path fill="none" stroke="midnightblue" d="M244.602,-761.075C270.442,-734.267 347.624,-654.19 380.689,-619.885"/>
<polygon fill="midnightblue" stroke="midnightblue" points="383.322,-622.197 387.742,-612.568 378.282,-617.339 383.322,-622.197"/>
</g>
<!-- Node15 -->
<g id="node16" class="node"><title>Node15</title>
<g id="a_node16"><a xlink:href="spec_2packet__io_8h.html" target="_top" xlink:title="ODP Packet IO. ">
<polygon fill="white" stroke="black" points="450.5,-705.5 450.5,-724.5 585.5,-724.5 585.5,-705.5 450.5,-705.5"/>
<text text-anchor="middle" x="518" y="-712.5" font-family="Helvetica,sans-Serif" font-size="10.00">odp/api/spec/packet_io.h</text>
</a>
</g>
</g>
<!-- Node0&#45;&gt;Node15 -->
<g id="edge17" class="edge"><title>Node0&#45;&gt;Node15</title>
<path fill="none" stroke="midnightblue" d="M271.715,-763.161C320.091,-753.898 406.88,-737.278 463.445,-726.447"/>
<polygon fill="midnightblue" stroke="midnightblue" points="464.129,-729.879 473.292,-724.561 462.812,-723.004 464.129,-729.879"/>
</g>
<!-- Node2 -->
<g id="node3" class="node"><title>Node2</title>
<polygon fill="white" stroke="#bfbfbf" points="405,-185 405,-204 533,-204 533,-185 405,-185"/>
<text text-anchor="middle" x="469" y="-192" font-family="Helvetica,sans-Serif" font-size="10.00">odp/api/abi/std_types.h</text>
</g>
<!-- Node1&#45;&gt;Node2 -->
<g id="edge2" class="edge"><title>Node1&#45;&gt;Node2</title>
<path fill="none" stroke="midnightblue" d="M372.19,-246.475C390.902,-236.622 421.923,-220.288 443.799,-208.77"/>
<polygon fill="midnightblue" stroke="midnightblue" points="445.622,-211.765 452.84,-204.009 442.361,-205.571 445.622,-211.765"/>
</g>
<!-- Node3 -->
<g id="node4" class="node"><title>Node3</title>
<g id="a_node4"><a xlink:href="spec_2std__types_8h.html" target="_top" xlink:title="Standard C language types and definitions for ODP. ">
<polygon fill="white" stroke="black" points="251,-185 251,-204 387,-204 387,-185 251,-185"/>
<text text-anchor="middle" x="319" y="-192" font-family="Helvetica,sans-Serif" font-size="10.00">odp/api/spec/std_types.h</text>
</a>
</g>
</g>
<!-- Node1&#45;&gt;Node3 -->
<g id="edge3" class="edge"><title>Node1&#45;&gt;Node3</title>
<path fill="none" stroke="midnightblue" d="M350.699,-246.475C345.259,-237.727 336.641,-223.869 329.764,-212.809"/>
<polygon fill="midnightblue" stroke="midnightblue" points="332.544,-210.653 324.291,-204.009 326.6,-214.349 332.544,-210.653"/>
</g>
<!-- Node4 -->
<g id="node5" class="node"><title>Node4</title>
<polygon fill="white" stroke="#bfbfbf" points="1171.5,-0.5 1171.5,-19.5 1286.5,-19.5 1286.5,-0.5 1171.5,-0.5"/>
<text text-anchor="middle" x="1229" y="-7.5" font-family="Helvetica,sans-Serif" font-size="10.00">odp/visibility_begin.h</text>
</g>
<!-- Node3&#45;&gt;Node4 -->
<g id="edge4" class="edge"><title>Node3&#45;&gt;Node4</title>
<path fill="none" stroke="midnightblue" d="M362.929,-184.955C373.73,-182.929 385.272,-180.828 396,-179 529.625,-156.232 876.253,-144.507 999,-87 1017.82,-78.1841 1015.53,-65.5188 1034,-56 1073.55,-35.6192 1122.33,-24.3683 1161.2,-18.213"/>
<polygon fill="midnightblue" stroke="midnightblue" points="1162,-21.6316 1171.37,-16.6821 1160.96,-14.7095 1162,-21.6316"/>
</g>
<!-- Node5 -->
<g id="node6" class="node"><title>Node5</title>
<polygon fill="white" stroke="#bfbfbf" points="292.5,-123.5 292.5,-142.5 345.5,-142.5 345.5,-123.5 292.5,-123.5"/>
<text text-anchor="middle" x="319" y="-130.5" font-family="Helvetica,sans-Serif" font-size="10.00">stdint.h</text>
</g>
<!-- Node3&#45;&gt;Node5 -->
<g id="edge5" class="edge"><title>Node3&#45;&gt;Node5</title>
<path fill="none" stroke="midnightblue" d="M319,-184.975C319,-176.58 319,-163.481 319,-152.663"/>
<polygon fill="midnightblue" stroke="midnightblue" points="322.5,-152.509 319,-142.509 315.5,-152.509 322.5,-152.509"/>
</g>
<!-- Node6 -->
<g id="node7" class="node"><title>Node6</title>
<g id="a_node7"><a xlink:href="align_8h.html" target="_top" xlink:title="ODP alignments. ">
<polygon fill="white" stroke="black" points="402,-123.5 402,-142.5 488,-142.5 488,-123.5 402,-123.5"/>
<text text-anchor="middle" x="445" y="-130.5" font-family="Helvetica,sans-Serif" font-size="10.00">odp/api/align.h</text>
</a>
</g>
</g>
<!-- Node3&#45;&gt;Node6 -->
<g id="edge6" class="edge"><title>Node3&#45;&gt;Node6</title>
<path fill="none" stroke="midnightblue" d="M337.053,-184.975C358.198,-174.99 393.44,-158.348 417.878,-146.807"/>
<polygon fill="midnightblue" stroke="midnightblue" points="419.433,-149.944 426.981,-142.509 416.444,-143.614 419.433,-149.944"/>
</g>
<!-- Node9 -->
<g id="node10" class="node"><title>Node9</title>
<polygon fill="white" stroke="#bfbfbf" points="595.5,-0.5 595.5,-19.5 702.5,-19.5 702.5,-0.5 595.5,-0.5"/>
<text text-anchor="middle" x="649" y="-7.5" font-family="Helvetica,sans-Serif" font-size="10.00">odp/visibility_end.h</text>
</g>
<!-- Node3&#45;&gt;Node9 -->
<g id="edge11" class="edge"><title>Node3&#45;&gt;Node9</title>
<path fill="none" stroke="midnightblue" d="M310.153,-184.794C301.32,-175.423 288.315,-159.613 283,-143 275.915,-120.857 271.528,-73.3084 288,-56 308.106,-34.8725 487.139,-20.8059 585.289,-14.61"/>
<polygon fill="midnightblue" stroke="midnightblue" points="585.631,-18.0956 595.395,-13.9819 585.197,-11.1091 585.631,-18.0956"/>
</g>
<!-- Node7 -->
<g id="node8" class="node"><title>Node7</title>
<polygon fill="white" stroke="#bfbfbf" points="330,-62 330,-81 434,-81 434,-62 330,-62"/>
<text text-anchor="middle" x="382" y="-69" font-family="Helvetica,sans-Serif" font-size="10.00">odp/api/abi/align.h</text>
</g>
<!-- Node6&#45;&gt;Node7 -->
<g id="edge7" class="edge"><title>Node6&#45;&gt;Node7</title>
<path fill="none" stroke="midnightblue" d="M435.974,-123.475C426.243,-114.285 410.542,-99.4563 398.577,-88.156"/>
<polygon fill="midnightblue" stroke="midnightblue" points="400.683,-85.3308 391.01,-81.0091 395.877,-90.4199 400.683,-85.3308"/>
</g>
<!-- Node8 -->
<g id="node9" class="node"><title>Node8</title>
<g id="a_node9"><a xlink:href="spec_2align_8h.html" target="_top" xlink:title="ODP alignments. ">
<polygon fill="white" stroke="black" points="452,-62 452,-81 564,-81 564,-62 452,-62"/>
<text text-anchor="middle" x="508" y="-69" font-family="Helvetica,sans-Serif" font-size="10.00">odp/api/spec/align.h</text>
</a>
</g>
</g>
<!-- Node6&#45;&gt;Node8 -->
<g id="edge8" class="edge"><title>Node6&#45;&gt;Node8</title>
<path fill="none" stroke="midnightblue" d="M454.026,-123.475C463.757,-114.285 479.458,-99.4563 491.423,-88.156"/>
<polygon fill="midnightblue" stroke="midnightblue" points="494.123,-90.4199 498.99,-81.0091 489.317,-85.3308 494.123,-90.4199"/>
</g>
<!-- Node8&#45;&gt;Node4 -->
<g id="edge9" class="edge"><title>Node8&#45;&gt;Node4</title>
<path fill="none" stroke="midnightblue" d="M564.275,-65.8559C695.142,-55.0563 1019.53,-28.2867 1161.1,-16.6037"/>
<polygon fill="midnightblue" stroke="midnightblue" points="1161.7,-20.0661 1171.38,-15.7554 1161.12,-13.0898 1161.7,-20.0661"/>
</g>
<!-- Node8&#45;&gt;Node9 -->
<g id="edge10" class="edge"><title>Node8&#45;&gt;Node9</title>
<path fill="none" stroke="midnightblue" d="M528.202,-61.9751C552.074,-51.9013 592.002,-35.0525 619.373,-23.5023"/>
<polygon fill="midnightblue" stroke="midnightblue" points="620.983,-26.6217 628.836,-19.5091 618.262,-20.1724 620.983,-26.6217"/>
</g>
<!-- Node15&#45;&gt;Node4 -->
<g id="edge18" class="edge"><title>Node15&#45;&gt;Node4</title>
<path fill="none" stroke="midnightblue" d="M585.846,-712.736C802.546,-708.459 1466.15,-693.42 1505,-669 1532.78,-651.538 1540,-636.811 1540,-604 1540,-604 1540,-604 1540,-132 1540,-91.0725 1522.43,-78.1336 1488,-56 1457.12,-36.1447 1362.75,-23.4722 1296.89,-16.7966"/>
<polygon fill="midnightblue" stroke="midnightblue" points="1296.88,-13.2782 1286.58,-15.7765 1296.19,-20.2442 1296.88,-13.2782"/>
</g>
<!-- Node15&#45;&gt;Node9 -->
<g id="edge72" class="edge"><title>Node15&#45;&gt;Node9</title>
<path fill="none" stroke="midnightblue" d="M483.246,-705.498C454.713,-697.858 413.67,-685.331 380,-669 155.869,-560.287 0,-506.105 0,-257 0,-257 0,-257 0,-132 0,-72.9095 421.149,-30.5011 584.929,-16.243"/>
<polygon fill="midnightblue" stroke="midnightblue" points="585.675,-19.6917 595.337,-15.3447 585.074,-12.7176 585.675,-19.6917"/>
</g>
<!-- Node16 -->
<g id="node17" class="node"><title>Node16</title>
<g id="a_node17"><a xlink:href="deprecated_8h.html" target="_top" xlink:title="Control deprecated API definitions. ">
<polygon fill="white" stroke="black" points="1240.5,-246.5 1240.5,-265.5 1359.5,-265.5 1359.5,-246.5 1240.5,-246.5"/>
<text text-anchor="middle" x="1300" y="-253.5" font-family="Helvetica,sans-Serif" font-size="10.00">odp/api/deprecated.h</text>
</a>
</g>
</g>
<!-- Node15&#45;&gt;Node16 -->
<g id="edge19" class="edge"><title>Node15&#45;&gt;Node16</title>
<path fill="none" stroke="midnightblue" d="M585.696,-711.698C777.707,-704.277 1312,-677.061 1312,-604 1312,-604 1312,-604 1312,-378 1312,-341.717 1306.59,-299.612 1303.04,-275.857"/>
<polygon fill="midnightblue" stroke="midnightblue" points="1306.46,-275.121 1301.47,-265.776 1299.55,-276.195 1306.46,-275.121"/>
</g>
<!-- Node18 -->
<g id="node19" class="node"><title>Node18</title>
<g id="a_node19"><a xlink:href="packet__io__stats_8h.html" target="_top" xlink:title="ODP packet IO stats. ">
<polygon fill="white" stroke="black" points="1356.5,-649.5 1356.5,-668.5 1495.5,-668.5 1495.5,-649.5 1356.5,-649.5"/>
<text text-anchor="middle" x="1426" y="-656.5" font-family="Helvetica,sans-Serif" font-size="10.00">odp/api/packet_io_stats.h</text>
</a>
</g>
</g>
<!-- Node15&#45;&gt;Node18 -->
<g id="edge23" class="edge"><title>Node15&#45;&gt;Node18</title>
<path fill="none" stroke="midnightblue" d="M585.62,-711.015C724.462,-704.713 1051.71,-688.975 1326,-669 1332.6,-668.519 1339.44,-667.983 1346.31,-667.419"/>
<polygon fill="midnightblue" stroke="midnightblue" points="1346.69,-670.9 1356.36,-666.575 1346.1,-663.924 1346.69,-670.9"/>
</g>
<!-- Node20 -->
<g id="node21" class="node"><title>Node20</title>
<g id="a_node21"><a xlink:href="queue_8h.html" target="_top" xlink:title="ODP queue. ">
<polygon fill="white" stroke="black" points="509,-649.5 509,-668.5 603,-668.5 603,-649.5 509,-649.5"/>
<text text-anchor="middle" x="556" y="-656.5" font-family="Helvetica,sans-Serif" font-size="10.00">odp/api/queue.h</text>
</a>
</g>
</g>
<!-- Node15&#45;&gt;Node20 -->
<g id="edge27" class="edge"><title>Node15&#45;&gt;Node20</title>
<path fill="none" stroke="midnightblue" d="M524.275,-705.083C529.642,-697.455 537.518,-686.264 544.079,-676.941"/>
<polygon fill="midnightblue" stroke="midnightblue" points="546.949,-678.943 549.842,-668.751 541.225,-674.915 546.949,-678.943"/>
</g>
<!-- Node26 -->
<g id="node27" class="node"><title>Node26</title>
<g id="a_node27"><a xlink:href="packet_8h.html" target="_top" xlink:title="ODP packet descriptor. ">
<polygon fill="white" stroke="black" points="500,-425.5 500,-444.5 596,-444.5 596,-425.5 500,-425.5"/>
<text text-anchor="middle" x="548" y="-432.5" font-family="Helvetica,sans-Serif" font-size="10.00">odp/api/packet.h</text>
</a>
</g>
</g>
<!-- Node15&#45;&gt;Node26 -->
<g id="edge71" class="edge"><title>Node15&#45;&gt;Node26</title>
<path fill="none" stroke="midnightblue" d="M513.379,-705.339C508.941,-696.493 502.546,-682.22 500,-669 498.319,-660.271 499.017,-657.834 500,-649 508.131,-575.936 531.49,-491.331 542.338,-454.604"/>
<polygon fill="midnightblue" stroke="midnightblue" points="545.756,-455.392 545.272,-444.808 539.05,-453.383 545.756,-455.392"/>
</g>
<!-- Node28 -->
<g id="node29" class="node"><title>Node28</title>
<g id="a_node29"><a xlink:href="time_8h.html" target="_top" xlink:title="ODP time. ">
<polygon fill="white" stroke="black" points="523,-308 523,-327 609,-327 609,-308 523,-308"/>
<text text-anchor="middle" x="566" y="-315" font-family="Helvetica,sans-Serif" font-size="10.00">odp/api/time.h</text>
</a>
</g>
</g>
<!-- Node15&#45;&gt;Node28 -->
<g id="edge70" class="edge"><title>Node15&#45;&gt;Node28</title>
<path fill="none" stroke="midnightblue" d="M496.636,-705.416C460.31,-690.203 385.182,-656.02 331,-613 221.627,-526.157 40.1432,-473.316 133,-369 157.862,-341.07 402.381,-326.167 512.603,-320.823"/>
<polygon fill="midnightblue" stroke="midnightblue" points="513.016,-324.308 522.838,-320.336 512.683,-317.315 513.016,-324.308"/>
</g>
<!-- Node17 -->
<g id="node18" class="node"><title>Node17</title>
<g id="a_node18"><a xlink:href="spec_2deprecated_8h.html" target="_top" xlink:title="Macro for deprecated API definitions. ">
<polygon fill="white" stroke="black" points="1084,-62 1084,-81 1228,-81 1228,-62 1084,-62"/>
<text text-anchor="middle" x="1156" y="-69" font-family="Helvetica,sans-Serif" font-size="10.00">odp/api/spec/deprecated.h</text>
</a>
</g>
</g>
<!-- Node16&#45;&gt;Node17 -->
<g id="edge20" class="edge"><title>Node16&#45;&gt;Node17</title>
<path fill="none" stroke="midnightblue" d="M1293.05,-246.198C1270.48,-217.59 1198.94,-126.915 1169.18,-89.2033"/>
<polygon fill="midnightblue" stroke="midnightblue" points="1171.82,-86.8965 1162.88,-81.214 1166.32,-91.2326 1171.82,-86.8965"/>
</g>
<!-- Node17&#45;&gt;Node4 -->
<g id="edge21" class="edge"><title>Node17&#45;&gt;Node4</title>
<path fill="none" stroke="midnightblue" d="M1166.46,-61.9751C1177.95,-52.6082 1196.63,-37.3839 1210.59,-26.0081"/>
<polygon fill="midnightblue" stroke="midnightblue" points="1213.02,-28.54 1218.56,-19.5091 1208.6,-23.114 1213.02,-28.54"/>
</g>
<!-- Node17&#45;&gt;Node9 -->
<g id="edge22" class="edge"><title>Node17&#45;&gt;Node9</title>
<path fill="none" stroke="midnightblue" d="M1083.9,-62.0383C984.586,-50.3834 807.275,-29.5747 712.638,-18.4683"/>
<polygon fill="midnightblue" stroke="midnightblue" points="712.969,-14.9833 702.63,-17.2938 712.154,-21.9356 712.969,-14.9833"/>
</g>
<!-- Node19 -->
<g id="node20" class="node"><title>Node19</title>
<g id="a_node20"><a xlink:href="spec_2packet__io__stats_8h.html" target="_top" xlink:title="ODP Packet IO. ">
<polygon fill="white" stroke="black" points="1246.5,-56.5 1246.5,-86.5 1359.5,-86.5 1359.5,-56.5 1246.5,-56.5"/>
<text text-anchor="start" x="1254.5" y="-74.5" font-family="Helvetica,sans-Serif" font-size="10.00">odp/api/spec/packet</text>
<text text-anchor="middle" x="1303" y="-63.5" font-family="Helvetica,sans-Serif" font-size="10.00">_io_stats.h</text>
</a>
</g>
</g>
<!-- Node18&#45;&gt;Node19 -->
<g id="edge24" class="edge"><title>Node18&#45;&gt;Node19</title>
<path fill="none" stroke="midnightblue" d="M1431.28,-649.231C1441.73,-631.043 1464,-587.601 1464,-548 1464,-548 1464,-548 1464,-316.5 1464,-219.749 1374.72,-131.788 1329.13,-93.1763"/>
<polygon fill="midnightblue" stroke="midnightblue" points="1331.08,-90.2498 1321.16,-86.55 1326.61,-95.6334 1331.08,-90.2498"/>
</g>
<!-- Node19&#45;&gt;Node4 -->
<g id="edge25" class="edge"><title>Node19&#45;&gt;Node4</title>
<path fill="none" stroke="midnightblue" d="M1285.46,-56.3993C1274.16,-47.3076 1259.46,-35.4899 1247.89,-26.1909"/>
<polygon fill="midnightblue" stroke="midnightblue" points="1249.75,-23.1964 1239.77,-19.6578 1245.37,-28.6517 1249.75,-23.1964"/>
</g>
<!-- Node19&#45;&gt;Node9 -->
<g id="edge26" class="edge"><title>Node19&#45;&gt;Node9</title>
<path fill="none" stroke="midnightblue" d="M1246.21,-57.4952C1243.1,-56.9487 1240.02,-56.4447 1237,-56 1047.62,-28.0907 821.225,-16.945 712.897,-12.9635"/>
<polygon fill="midnightblue" stroke="midnightblue" points="712.907,-9.46167 702.787,-12.6002 712.655,-16.4572 712.907,-9.46167"/>
</g>
<!-- Node20&#45;&gt;Node1 -->
<g id="edge28" class="edge"><title>Node20&#45;&gt;Node1</title>
<path fill="none" stroke="midnightblue" d="M543.73,-649.346C525.627,-636.657 490.595,-612.405 460,-593 309.895,-497.795 203.975,-543.453 116,-389 74.1598,-315.544 206.165,-280.453 290.746,-265.867"/>
<polygon fill="midnightblue" stroke="midnightblue" points="291.522,-269.286 300.81,-264.188 290.371,-262.381 291.522,-269.286"/>
</g>
<!-- Node20&#45;&gt;Node10 -->
<g id="edge32" class="edge"><title>Node20&#45;&gt;Node10</title>
<path fill="none" stroke="midnightblue" d="M554.957,-649.326C552.394,-629.222 545.03,-578.027 532,-537 518.45,-494.335 507.305,-486.691 491,-445 484.898,-429.397 478.861,-411.323 474.66,-398.2"/>
<polygon fill="midnightblue" stroke="midnightblue" points="477.947,-396.988 471.601,-388.504 471.272,-399.094 477.947,-396.988"/>
</g>
<!-- Node20&#45;&gt;Node14 -->
<g id="edge30" class="edge"><title>Node20&#45;&gt;Node14</title>
<path fill="none" stroke="midnightblue" d="M530.648,-649.444C503.731,-640.359 461.004,-625.939 430.913,-615.783"/>
<polygon fill="midnightblue" stroke="midnightblue" points="431.828,-612.398 421.234,-612.516 429.59,-619.031 431.828,-612.398"/>
</g>
<!-- Node21 -->
<g id="node22" class="node"><title>Node21</title>
<polygon fill="white" stroke="#bfbfbf" points="842,-369.5 842,-388.5 950,-388.5 950,-369.5 842,-369.5"/>
<text text-anchor="middle" x="896" y="-376.5" font-family="Helvetica,sans-Serif" font-size="10.00">odp/api/abi/event.h</text>
</g>
<!-- Node20&#45;&gt;Node21 -->
<g id="edge29" class="edge"><title>Node20&#45;&gt;Node21</title>
<path fill="none" stroke="midnightblue" d="M603.021,-656.588C672.382,-651.717 794,-631.3 794,-548 794,-548 794,-548 794,-490 794,-445.392 839.66,-411.234 869.881,-393.511"/>
<polygon fill="midnightblue" stroke="midnightblue" points="871.702,-396.503 878.697,-388.545 868.267,-390.404 871.702,-396.503"/>
</g>
<!-- Node22 -->
<g id="node23" class="node"><title>Node22</title>
<polygon fill="white" stroke="#bfbfbf" points="716,-369.5 716,-388.5 824,-388.5 824,-369.5 716,-369.5"/>
<text text-anchor="middle" x="770" y="-376.5" font-family="Helvetica,sans-Serif" font-size="10.00">odp/api/abi/buffer.h</text>
</g>
<!-- Node20&#45;&gt;Node22 -->
<g id="edge31" class="edge"><title>Node20&#45;&gt;Node22</title>
<path fill="none" stroke="midnightblue" d="M585.902,-649.448C627.292,-635.564 697,-603.885 697,-548 697,-548 697,-548 697,-490 697,-450.776 729.623,-414.836 751.253,-395.318"/>
<polygon fill="midnightblue" stroke="midnightblue" points="753.655,-397.868 758.913,-388.67 749.067,-392.581 753.655,-397.868"/>
</g>
<!-- Node23 -->
<g id="node24" class="node"><title>Node23</title>
<g id="a_node24"><a xlink:href="spec_2queue_8h.html" target="_top" xlink:title="ODP queue. ">
<polygon fill="white" stroke="black" points="1004.5,-593.5 1004.5,-612.5 1123.5,-612.5 1123.5,-593.5 1004.5,-593.5"/>
<text text-anchor="middle" x="1064" y="-600.5" font-family="Helvetica,sans-Serif" font-size="10.00">odp/api/spec/queue.h</text>
</a>
</g>
</g>
<!-- Node20&#45;&gt;Node23 -->
<g id="edge33" class="edge"><title>Node20&#45;&gt;Node23</title>
<path fill="none" stroke="midnightblue" d="M603.335,-652.968C693.202,-643.416 888.915,-622.611 993.988,-611.442"/>
<polygon fill="midnightblue" stroke="midnightblue" points="994.602,-614.897 1004.18,-610.359 993.862,-607.936 994.602,-614.897"/>
</g>
<!-- Node23&#45;&gt;Node4 -->
<g id="edge34" class="edge"><title>Node23&#45;&gt;Node4</title>
<path fill="none" stroke="midnightblue" d="M1088.17,-593.453C1179.99,-559.283 1502,-423.219 1502,-195.5 1502,-195.5 1502,-195.5 1502,-132 1502,-42.3864 1377.53,-18.6241 1296.68,-12.6416"/>
<polygon fill="midnightblue" stroke="midnightblue" points="1296.77,-9.1399 1286.56,-11.9678 1296.31,-16.1244 1296.77,-9.1399"/>
</g>
<!-- Node23&#45;&gt;Node9 -->
<g id="edge69" class="edge"><title>Node23&#45;&gt;Node9</title>
<path fill="none" stroke="midnightblue" d="M1063.74,-593.216C1062.91,-572.882 1059.42,-521.235 1045,-481 1025.51,-426.61 1016.01,-413.364 979,-369 909.759,-286.011 876.193,-281.338 795,-210 761.422,-180.498 752.618,-173.56 720,-143 694.084,-118.719 679.658,-118.365 663,-87 653.48,-69.0746 650.323,-45.7948 649.332,-29.7486"/>
<polygon fill="midnightblue" stroke="midnightblue" points="652.821,-29.3793 648.934,-19.523 645.826,-29.6516 652.821,-29.3793"/>
</g>
<!-- Node24 -->
<g id="node25" class="node"><title>Node24</title>
<g id="a_node25"><a xlink:href="event_8h.html" target="_top" xlink:title="ODP event. ">
<polygon fill="white" stroke="black" points="932.5,-537.5 932.5,-556.5 1023.5,-556.5 1023.5,-537.5 932.5,-537.5"/>
<text text-anchor="middle" x="978" y="-544.5" font-family="Helvetica,sans-Serif" font-size="10.00">odp/api/event.h</text>
</a>
</g>
</g>
<!-- Node23&#45;&gt;Node24 -->
<g id="edge35" class="edge"><title>Node23&#45;&gt;Node24</title>
<path fill="none" stroke="midnightblue" d="M1050.18,-593.324C1036.77,-584.9 1016.18,-571.971 1000.41,-562.074"/>
<polygon fill="midnightblue" stroke="midnightblue" points="1002.11,-559.008 991.783,-556.655 998.391,-564.936 1002.11,-559.008"/>
</g>
<!-- Node31 -->
<g id="node32" class="node"><title>Node31</title>
<g id="a_node32"><a xlink:href="queue__types_8h.html" target="_top" xlink:title="ODP queue types. ">
<polygon fill="white" stroke="black" points="1047,-302.5 1047,-332.5 1157,-332.5 1157,-302.5 1047,-302.5"/>
<text text-anchor="start" x="1055" y="-320.5" font-family="Helvetica,sans-Serif" font-size="10.00">odp/api/spec/queue</text>
<text text-anchor="middle" x="1102" y="-309.5" font-family="Helvetica,sans-Serif" font-size="10.00">_types.h</text>
</a>
</g>
</g>
<!-- Node23&#45;&gt;Node31 -->
<g id="edge56" class="edge"><title>Node23&#45;&gt;Node31</title>
<path fill="none" stroke="midnightblue" d="M1069.28,-593.231C1079.73,-575.043 1102,-531.601 1102,-492 1102,-492 1102,-492 1102,-434 1102,-402.495 1102,-366.155 1102,-342.783"/>
<polygon fill="midnightblue" stroke="midnightblue" points="1105.5,-342.725 1102,-332.725 1098.5,-342.725 1105.5,-342.725"/>
</g>
<!-- Node24&#45;&gt;Node21 -->
<g id="edge36" class="edge"><title>Node24&#45;&gt;Node21</title>
<path fill="none" stroke="midnightblue" d="M956.497,-537.414C941.172,-530.109 921.496,-518.068 911,-501 891.48,-469.258 891.713,-423.954 893.763,-398.75"/>
<polygon fill="midnightblue" stroke="midnightblue" points="897.255,-399.004 894.768,-388.705 890.29,-398.307 897.255,-399.004"/>
</g>
<!-- Node25 -->
<g id="node26" class="node"><title>Node25</title>
<g id="a_node26"><a xlink:href="spec_2event_8h.html" target="_top" xlink:title="ODP event. ">
<polygon fill="white" stroke="black" points="920,-481.5 920,-500.5 1036,-500.5 1036,-481.5 920,-481.5"/>
<text text-anchor="middle" x="978" y="-488.5" font-family="Helvetica,sans-Serif" font-size="10.00">odp/api/spec/event.h</text>
</a>
</g>
</g>
<!-- Node24&#45;&gt;Node25 -->
<g id="edge37" class="edge"><title>Node24&#45;&gt;Node25</title>
<path fill="none" stroke="midnightblue" d="M978,-537.083C978,-530.006 978,-519.861 978,-510.986"/>
<polygon fill="midnightblue" stroke="midnightblue" points="981.5,-510.751 978,-500.751 974.5,-510.751 981.5,-510.751"/>
</g>
<!-- Node25&#45;&gt;Node4 -->
<g id="edge38" class="edge"><title>Node25&#45;&gt;Node4</title>
<path fill="none" stroke="midnightblue" d="M1019.46,-481.459C1117.89,-458.497 1362.12,-384.932 1425,-210 1448.29,-145.199 1459.31,-101.92 1408,-56 1377.77,-28.9483 1333.66,-17.6471 1296.8,-13.134"/>
<polygon fill="midnightblue" stroke="midnightblue" points="1296.93,-9.62774 1286.61,-12.0336 1296.18,-16.5873 1296.93,-9.62774"/>
</g>
<!-- Node25&#45;&gt;Node9 -->
<g id="edge55" class="edge"><title>Node25&#45;&gt;Node9</title>
<path fill="none" stroke="midnightblue" d="M979.329,-481.237C982.102,-459.575 986.168,-402.818 959,-369 931.501,-334.77 907.225,-350.602 867,-333 804.539,-305.667 779.813,-311.459 729,-266 658.883,-203.271 642.14,-177.377 616,-87 612.172,-73.7647 611.713,-69.094 616,-56 619.49,-45.3397 626.573,-35.1174 633.286,-27.1175"/>
<polygon fill="midnightblue" stroke="midnightblue" points="635.904,-29.4395 639.98,-19.66 630.695,-24.7633 635.904,-29.4395"/>
</g>
<!-- Node25&#45;&gt;Node26 -->
<g id="edge39" class="edge"><title>Node25&#45;&gt;Node26</title>
<path fill="none" stroke="midnightblue" d="M919.561,-482.661C837.312,-472.332 688.299,-453.619 606.187,-443.307"/>
<polygon fill="midnightblue" stroke="midnightblue" points="606.387,-439.805 596.029,-442.032 605.515,-446.75 606.387,-439.805"/>
</g>
<!-- Node26&#45;&gt;Node1 -->
<g id="edge40" class="edge"><title>Node26&#45;&gt;Node1</title>
<path fill="none" stroke="midnightblue" d="M547.196,-425.147C545.588,-411.772 540.937,-386.158 528,-369 491.116,-320.082 426.195,-286.353 387.532,-269.476"/>
<polygon fill="midnightblue" stroke="midnightblue" points="388.873,-266.243 378.301,-265.549 386.133,-272.685 388.873,-266.243"/>
</g>
<!-- Node26&#45;&gt;Node10 -->
<g id="edge45" class="edge"><title>Node26&#45;&gt;Node10</title>
<path fill="none" stroke="midnightblue" d="M535.307,-425.324C523.099,-416.979 504.422,-404.212 489.997,-394.352"/>
<polygon fill="midnightblue" stroke="midnightblue" points="491.892,-391.408 481.661,-388.655 487.942,-397.187 491.892,-391.408"/>
</g>
<!-- Node26&#45;&gt;Node12 -->
<g id="edge43" class="edge"><title>Node26&#45;&gt;Node12</title>
<path fill="none" stroke="midnightblue" d="M499.839,-426.548C438.655,-417.081 332.807,-400.704 264.37,-390.115"/>
<polygon fill="midnightblue" stroke="midnightblue" points="264.555,-386.602 254.138,-388.531 263.485,-393.519 264.555,-386.602"/>
</g>
<!-- Node26&#45;&gt;Node13 -->
<g id="edge42" class="edge"><title>Node26&#45;&gt;Node13</title>
<path fill="none" stroke="midnightblue" d="M514.566,-425.444C478.144,-416.122 419.77,-401.183 379.971,-390.997"/>
<polygon fill="midnightblue" stroke="midnightblue" points="380.833,-387.605 370.277,-388.516 379.097,-394.387 380.833,-387.605"/>
</g>
<!-- Node26&#45;&gt;Node21 -->
<g id="edge41" class="edge"><title>Node26&#45;&gt;Node21</title>
<path fill="none" stroke="midnightblue" d="M596.023,-426.548C657.298,-417.04 763.497,-400.561 831.708,-389.976"/>
<polygon fill="midnightblue" stroke="midnightblue" points="832.556,-393.387 841.901,-388.395 831.482,-386.47 832.556,-393.387"/>
</g>
<!-- Node26&#45;&gt;Node22 -->
<g id="edge44" class="edge"><title>Node26&#45;&gt;Node22</title>
<path fill="none" stroke="midnightblue" d="M583.177,-425.444C621.579,-416.102 683.176,-401.119 725.055,-390.933"/>
<polygon fill="midnightblue" stroke="midnightblue" points="726.099,-394.281 734.988,-388.516 724.444,-387.479 726.099,-394.281"/>
</g>
<!-- Node27 -->
<g id="node28" class="node"><title>Node27</title>
<g id="a_node28"><a xlink:href="spec_2packet_8h.html" target="_top" xlink:title="ODP packet descriptor. ">
<polygon fill="white" stroke="black" points="576,-369.5 576,-388.5 698,-388.5 698,-369.5 576,-369.5"/>
<text text-anchor="middle" x="637" y="-376.5" font-family="Helvetica,sans-Serif" font-size="10.00">odp/api/spec/packet.h</text>
</a>
</g>
</g>
<!-- Node26&#45;&gt;Node27 -->
<g id="edge46" class="edge"><title>Node26&#45;&gt;Node27</title>
<path fill="none" stroke="midnightblue" d="M562.299,-425.324C576.183,-416.9 597.492,-403.971 613.804,-394.074"/>
<polygon fill="midnightblue" stroke="midnightblue" points="616.002,-396.834 622.736,-388.655 612.371,-390.85 616.002,-396.834"/>
</g>
<!-- Node27&#45;&gt;Node4 -->
<g id="edge47" class="edge"><title>Node27&#45;&gt;Node4</title>
<path fill="none" stroke="midnightblue" d="M698.063,-369.968C701.083,-369.627 704.075,-369.303 707,-369 855.091,-353.682 1276.48,-382.643 1369,-266 1427.17,-192.665 1441.27,-130.8 1385,-56 1373.57,-40.8022 1330.84,-29.1231 1292.99,-21.4759"/>
<polygon fill="midnightblue" stroke="midnightblue" points="1293.47,-18.0038 1282.99,-19.5228 1292.13,-24.8741 1293.47,-18.0038"/>
</g>
<!-- Node27&#45;&gt;Node9 -->
<g id="edge54" class="edge"><title>Node27&#45;&gt;Node9</title>
<path fill="none" stroke="midnightblue" d="M635.809,-369.385C630.951,-337.847 609.574,-227.98 542,-179 486.839,-139.017 454.373,-172.575 393,-143 374.74,-134.201 329.906,-105.209 321,-87 314.947,-74.6232 311.944,-66.3834 321,-56 354.581,-17.4968 499.694,-10.7686 585.244,-10.252"/>
<polygon fill="midnightblue" stroke="midnightblue" points="585.382,-13.7516 595.37,-10.218 585.358,-6.75166 585.382,-13.7516"/>
</g>
<!-- Node27&#45;&gt;Node28 -->
<g id="edge48" class="edge"><title>Node27&#45;&gt;Node28</title>
<path fill="none" stroke="midnightblue" d="M626.827,-369.475C615.65,-360.108 597.483,-344.884 583.909,-333.508"/>
<polygon fill="midnightblue" stroke="midnightblue" points="586.066,-330.75 576.154,-327.009 581.57,-336.115 586.066,-330.75"/>
</g>
<!-- Node28&#45;&gt;Node1 -->
<g id="edge49" class="edge"><title>Node28&#45;&gt;Node1</title>
<path fill="none" stroke="midnightblue" d="M535.912,-307.975C499.11,-297.548 436.689,-279.862 395.906,-268.307"/>
<polygon fill="midnightblue" stroke="midnightblue" points="396.607,-264.868 386.032,-265.509 394.699,-271.603 396.607,-264.868"/>
</g>
<!-- Node29 -->
<g id="node30" class="node"><title>Node29</title>
<polygon fill="white" stroke="#bfbfbf" points="467.5,-246.5 467.5,-265.5 570.5,-265.5 570.5,-246.5 467.5,-246.5"/>
<text text-anchor="middle" x="519" y="-253.5" font-family="Helvetica,sans-Serif" font-size="10.00">odp/api/abi/time.h</text>
</g>
<!-- Node28&#45;&gt;Node29 -->
<g id="edge50" class="edge"><title>Node28&#45;&gt;Node29</title>
<path fill="none" stroke="midnightblue" d="M559.266,-307.975C552.216,-299.05 540.965,-284.807 532.146,-273.643"/>
<polygon fill="midnightblue" stroke="midnightblue" points="534.667,-271.187 525.721,-265.509 529.174,-275.526 534.667,-271.187"/>
</g>
<!-- Node30 -->
<g id="node31" class="node"><title>Node30</title>
<g id="a_node31"><a xlink:href="spec_2time_8h.html" target="_top" xlink:title="ODP time. ">
<polygon fill="white" stroke="black" points="696.5,-62 696.5,-81 807.5,-81 807.5,-62 696.5,-62"/>
<text text-anchor="middle" x="752" y="-69" font-family="Helvetica,sans-Serif" font-size="10.00">odp/api/spec/time.h</text>
</a>
</g>
</g>
<!-- Node28&#45;&gt;Node30 -->
<g id="edge51" class="edge"><title>Node28&#45;&gt;Node30</title>
<path fill="none" stroke="midnightblue" d="M572.62,-307.816C599.796,-272.166 703.063,-136.697 739.322,-89.1311"/>
<polygon fill="midnightblue" stroke="midnightblue" points="742.181,-91.1547 745.459,-81.08 736.614,-86.911 742.181,-91.1547"/>
</g>
<!-- Node30&#45;&gt;Node4 -->
<g id="edge52" class="edge"><title>Node30&#45;&gt;Node4</title>
<path fill="none" stroke="midnightblue" d="M807.565,-62.469C822.924,-60.3061 839.601,-58.0102 855,-56 961.839,-42.0537 1086.06,-27.4204 1161.05,-18.7604"/>
<polygon fill="midnightblue" stroke="midnightblue" points="1161.76,-22.2014 1171.29,-17.5788 1160.96,-15.2475 1161.76,-22.2014"/>
</g>
<!-- Node30&#45;&gt;Node9 -->
<g id="edge53" class="edge"><title>Node30&#45;&gt;Node9</title>
<path fill="none" stroke="midnightblue" d="M737.243,-61.9751C720.339,-52.2106 692.417,-36.0807 672.51,-24.5808"/>
<polygon fill="midnightblue" stroke="midnightblue" points="674.14,-21.4805 663.73,-19.5091 670.638,-27.5419 674.14,-21.4805"/>
</g>
<!-- Node31&#45;&gt;Node4 -->
<g id="edge57" class="edge"><title>Node31&#45;&gt;Node4</title>
<path fill="none" stroke="midnightblue" d="M1131.66,-302.446C1190.63,-272.581 1321.06,-196.461 1369,-87 1374.53,-74.3795 1377.12,-67.1336 1369,-56 1352.26,-33.0322 1323.6,-21.5305 1296.56,-15.8657"/>
<polygon fill="midnightblue" stroke="midnightblue" points="1297.16,-12.4185 1286.69,-14.0324 1295.88,-19.3007 1297.16,-12.4185"/>
</g>
<!-- Node31&#45;&gt;Node9 -->
<g id="edge68" class="edge"><title>Node31&#45;&gt;Node9</title>
<path fill="none" stroke="midnightblue" d="M1055.41,-302.465C970.748,-274.718 790.848,-205.086 687,-87 671.976,-69.9164 661.263,-45.8348 655.119,-29.3864"/>
<polygon fill="midnightblue" stroke="midnightblue" points="658.374,-28.0925 651.742,-19.83 651.774,-30.4248 658.374,-28.0925"/>
</g>
<!-- Node31&#45;&gt;Node16 -->
<g id="edge67" class="edge"><title>Node31&#45;&gt;Node16</title>
<path fill="none" stroke="midnightblue" d="M1148.67,-302.475C1183.13,-292.12 1229.46,-278.199 1261.74,-268.498"/>
<polygon fill="midnightblue" stroke="midnightblue" points="1263.12,-271.736 1271.69,-265.506 1261.11,-265.032 1263.12,-271.736"/>
</g>
<!-- Node32 -->
<g id="node33" class="node"><title>Node32</title>
<g id="a_node33"><a xlink:href="schedule__types_8h.html" target="_top" xlink:title="ODP schedule. ">
<polygon fill="white" stroke="black" points="1028,-246.5 1028,-265.5 1166,-265.5 1166,-246.5 1028,-246.5"/>
<text text-anchor="middle" x="1097" y="-253.5" font-family="Helvetica,sans-Serif" font-size="10.00">odp/api/schedule_types.h</text>
</a>
</g>
</g>
<!-- Node31&#45;&gt;Node32 -->
<g id="edge58" class="edge"><title>Node31&#45;&gt;Node32</title>
<path fill="none" stroke="midnightblue" d="M1100.82,-302.399C1100.15,-294.466 1099.31,-284.458 1098.58,-275.858"/>
<polygon fill="midnightblue" stroke="midnightblue" points="1102.05,-275.33 1097.73,-265.658 1095.08,-275.916 1102.05,-275.33"/>
</g>
<!-- Node33 -->
<g id="node34" class="node"><title>Node33</title>
<polygon fill="white" stroke="#bfbfbf" points="1039.5,-179.5 1039.5,-209.5 1154.5,-209.5 1154.5,-179.5 1039.5,-179.5"/>
<text text-anchor="start" x="1047.5" y="-197.5" font-family="Helvetica,sans-Serif" font-size="10.00">odp/api/abi/schedule</text>
<text text-anchor="middle" x="1097" y="-186.5" font-family="Helvetica,sans-Serif" font-size="10.00">_types.h</text>
</g>
<!-- Node32&#45;&gt;Node33 -->
<g id="edge59" class="edge"><title>Node32&#45;&gt;Node33</title>
<path fill="none" stroke="midnightblue" d="M1097,-246.475C1097,-239.471 1097,-229.192 1097,-219.696"/>
<polygon fill="midnightblue" stroke="midnightblue" points="1100.5,-219.523 1097,-209.523 1093.5,-219.523 1100.5,-219.523"/>
</g>
<!-- Node34 -->
<g id="node35" class="node"><title>Node34</title>
<g id="a_node35"><a xlink:href="spec_2schedule__types_8h.html" target="_top" xlink:title="ODP schedule types. ">
<polygon fill="white" stroke="black" points="879.5,-179.5 879.5,-209.5 1002.5,-209.5 1002.5,-179.5 879.5,-179.5"/>
<text text-anchor="start" x="887.5" y="-197.5" font-family="Helvetica,sans-Serif" font-size="10.00">odp/api/spec/schedule</text>
<text text-anchor="middle" x="941" y="-186.5" font-family="Helvetica,sans-Serif" font-size="10.00">_types.h</text>
</a>
</g>
</g>
<!-- Node32&#45;&gt;Node34 -->
<g id="edge60" class="edge"><title>Node32&#45;&gt;Node34</title>
<path fill="none" stroke="midnightblue" d="M1074.65,-246.475C1051.94,-237.814 1016.1,-224.145 987.253,-213.141"/>
<polygon fill="midnightblue" stroke="midnightblue" points="988.357,-209.817 977.766,-209.523 985.862,-216.357 988.357,-209.817"/>
</g>
<!-- Node34&#45;&gt;Node4 -->
<g id="edge61" class="edge"><title>Node34&#45;&gt;Node4</title>
<path fill="none" stroke="midnightblue" d="M955.057,-179.398C965.103,-169.296 978.925,-155.35 991,-143 1028.58,-104.569 1029,-83.8005 1075,-56 1102.51,-39.375 1136.51,-28.5944 1165.56,-21.7674"/>
<polygon fill="midnightblue" stroke="midnightblue" points="1166.62,-25.1172 1175.61,-19.5144 1165.08,-18.2868 1166.62,-25.1172"/>
</g>
<!-- Node34&#45;&gt;Node9 -->
<g id="edge66" class="edge"><title>Node34&#45;&gt;Node9</title>
<path fill="none" stroke="midnightblue" d="M917.573,-179.473C903.36,-170.245 885.435,-157.264 872,-143 840.472,-109.525 853.128,-83.1303 816,-56 786.009,-34.0852 746.008,-22.8421 712.674,-17.0744"/>
<polygon fill="midnightblue" stroke="midnightblue" points="712.989,-13.5803 702.562,-15.4544 711.882,-20.4922 712.989,-13.5803"/>
</g>
<!-- Node35 -->
<g id="node36" class="node"><title>Node35</title>
<g id="a_node36"><a xlink:href="support_8h.html" target="_top" xlink:title="ODP support API &#45; platform specific header. ">
<polygon fill="white" stroke="black" points="881.5,-123.5 881.5,-142.5 982.5,-142.5 982.5,-123.5 881.5,-123.5"/>
<text text-anchor="middle" x="932" y="-130.5" font-family="Helvetica,sans-Serif" font-size="10.00">odp/api/support.h</text>
</a>
</g>
</g>
<!-- Node34&#45;&gt;Node35 -->
<g id="edge62" class="edge"><title>Node34&#45;&gt;Node35</title>
<path fill="none" stroke="midnightblue" d="M938.867,-179.399C937.654,-171.377 936.119,-161.233 934.809,-152.569"/>
<polygon fill="midnightblue" stroke="midnightblue" points="938.266,-152.022 933.31,-142.658 931.345,-153.069 938.266,-152.022"/>
</g>
<!-- Node36 -->
<g id="node37" class="node"><title>Node36</title>
<g id="a_node37"><a xlink:href="spec_2support_8h.html" target="_top" xlink:title="ODP support API. ">
<polygon fill="white" stroke="black" points="864,-62 864,-81 990,-81 990,-62 864,-62"/>
<text text-anchor="middle" x="927" y="-69" font-family="Helvetica,sans-Serif" font-size="10.00">odp/api/spec/support.h</text>
</a>
</g>
</g>
<!-- Node35&#45;&gt;Node36 -->
<g id="edge63" class="edge"><title>Node35&#45;&gt;Node36</title>
<path fill="none" stroke="midnightblue" d="M931.284,-123.475C930.578,-115.08 929.477,-101.981 928.568,-91.1631"/>
<polygon fill="midnightblue" stroke="midnightblue" points="932.04,-90.6808 927.715,-81.0091 925.065,-91.2671 932.04,-90.6808"/>
</g>
<!-- Node36&#45;&gt;Node4 -->
<g id="edge64" class="edge"><title>Node36&#45;&gt;Node4</title>
<path fill="none" stroke="midnightblue" d="M970.269,-61.9751C1024.43,-51.3048 1117.17,-33.0335 1175.66,-21.5089"/>
<polygon fill="midnightblue" stroke="midnightblue" points="1176.68,-24.8762 1185.81,-19.5091 1175.32,-18.0082 1176.68,-24.8762"/>
</g>
<!-- Node36&#45;&gt;Node9 -->
<g id="edge65" class="edge"><title>Node36&#45;&gt;Node9</title>
<path fill="none" stroke="midnightblue" d="M887.169,-61.9751C837.521,-51.349 752.653,-33.1847 698.771,-21.6524"/>
<polygon fill="midnightblue" stroke="midnightblue" points="699.268,-18.1796 688.757,-19.5091 697.803,-25.0245 699.268,-18.1796"/>
</g>
</g>
</svg>
