<?xml version="1.0" encoding="UTF-8" standalone="no"?>
<!DOCTYPE svg PUBLIC "-//W3C//DTD SVG 1.1//EN"
 "http://www.w3.org/Graphics/SVG/1.1/DTD/svg11.dtd">
<!-- Generated by graphviz version 2.38.0 (20140413.2041)
 -->
<!-- Title: packet_inlines.h Pages: 1 -->
<svg width="1407pt" height="453pt"
 viewBox="0.00 0.00 1407.00 453.00" xmlns="http://www.w3.org/2000/svg" xmlns:xlink="http://www.w3.org/1999/xlink">
<g id="graph0" class="graph" transform="scale(1 1) rotate(0) translate(4 449)">
<title>packet_inlines.h</title>
<polygon fill="white" stroke="none" points="-4,4 -4,-449 1403,-449 1403,4 -4,4"/>
<!-- Node0 -->
<g id="node1" class="node"><title>Node0</title>
<polygon fill="#bfbfbf" stroke="black" points="738,-425.5 738,-444.5 831,-444.5 831,-425.5 738,-425.5"/>
<text text-anchor="middle" x="784.5" y="-432.5" font-family="Helvetica,sans-Serif" font-size="10.00">packet_inlines.h</text>
</g>
<!-- Node1 -->
<g id="node2" class="node"><title>Node1</title>
<polygon fill="white" stroke="#bfbfbf" points="355,-364 355,-383 468,-383 468,-364 355,-364"/>
<text text-anchor="middle" x="411.5" y="-371" font-family="Helvetica,sans-Serif" font-size="10.00">odp/api/abi/packet.h</text>
</g>
<!-- Node0&#45;&gt;Node1 -->
<g id="edge1" class="edge"><title>Node0&#45;&gt;Node1</title>
<path fill="none" stroke="midnightblue" d="M737.812,-427.833C678.365,-419.799 572.55,-404.892 482.5,-389 475.674,-387.795 468.498,-386.438 461.438,-385.049"/>
<polygon fill="midnightblue" stroke="midnightblue" points="461.725,-381.537 451.233,-383.005 460.351,-388.4 461.725,-381.537"/>
</g>
<!-- Node2 -->
<g id="node3" class="node"><title>Node2</title>
<g id="a_node3"><a xlink:href="pool_8h.html" target="_top" xlink:title="ODP pool. ">
<polygon fill="white" stroke="black" points="524.5,-364 524.5,-383 608.5,-383 608.5,-364 524.5,-364"/>
<text text-anchor="middle" x="566.5" y="-371" font-family="Helvetica,sans-Serif" font-size="10.00">odp/api/pool.h</text>
</a>
</g>
</g>
<!-- Node0&#45;&gt;Node2 -->
<g id="edge2" class="edge"><title>Node0&#45;&gt;Node2</title>
<path fill="none" stroke="midnightblue" d="M753.266,-425.475C714.9,-415.004 649.713,-397.212 607.389,-385.66"/>
<polygon fill="midnightblue" stroke="midnightblue" points="608.245,-382.266 597.676,-383.009 606.402,-389.019 608.245,-382.266"/>
</g>
<!-- Node5 -->
<g id="node6" class="node"><title>Node5</title>
<polygon fill="white" stroke="#bfbfbf" points="610.5,-297 610.5,-316 718.5,-316 718.5,-297 610.5,-297"/>
<text text-anchor="middle" x="664.5" y="-304" font-family="Helvetica,sans-Serif" font-size="10.00">odp/api/abi/event.h</text>
</g>
<!-- Node0&#45;&gt;Node5 -->
<g id="edge32" class="edge"><title>Node0&#45;&gt;Node5</title>
<path fill="none" stroke="midnightblue" d="M773.284,-425.182C762.428,-416.445 745.718,-402.458 732.5,-389 712.018,-368.145 690.81,-341.844 677.64,-324.853"/>
<polygon fill="midnightblue" stroke="midnightblue" points="680.07,-322.269 671.206,-316.464 674.516,-326.529 680.07,-322.269"/>
</g>
<!-- Node16 -->
<g id="node17" class="node"><title>Node16</title>
<polygon fill="white" stroke="#bfbfbf" points="813,-364 813,-383 940,-383 940,-364 813,-364"/>
<text text-anchor="middle" x="876.5" y="-371" font-family="Helvetica,sans-Serif" font-size="10.00">odp/api/abi/packet_io.h</text>
</g>
<!-- Node0&#45;&gt;Node16 -->
<g id="edge20" class="edge"><title>Node0&#45;&gt;Node16</title>
<path fill="none" stroke="midnightblue" d="M797.681,-425.475C812.574,-415.843 837.044,-400.017 854.773,-388.552"/>
<polygon fill="midnightblue" stroke="midnightblue" points="856.847,-391.379 863.343,-383.009 853.045,-385.501 856.847,-391.379"/>
</g>
<!-- Node17 -->
<g id="node18" class="node"><title>Node17</title>
<g id="a_node18"><a xlink:href="hints_8h.html" target="_top" xlink:title="ODP compiler hints. ">
<polygon fill="white" stroke="black" points="703,-168.5 703,-187.5 790,-187.5 790,-168.5 703,-168.5"/>
<text text-anchor="middle" x="746.5" y="-175.5" font-family="Helvetica,sans-Serif" font-size="10.00">odp/api/hints.h</text>
</a>
</g>
</g>
<!-- Node0&#45;&gt;Node17 -->
<g id="edge21" class="edge"><title>Node0&#45;&gt;Node17</title>
<path fill="none" stroke="midnightblue" d="M783.192,-425.222C777.756,-388.747 756.884,-248.679 749.286,-197.696"/>
<polygon fill="midnightblue" stroke="midnightblue" points="752.738,-197.116 747.803,-187.741 745.815,-198.147 752.738,-197.116"/>
</g>
<!-- Node19 -->
<g id="node20" class="node"><title>Node19</title>
<g id="a_node20"><a xlink:href="time_8h.html" target="_top" xlink:title="ODP time. ">
<polygon fill="white" stroke="black" points="111.5,-297 111.5,-316 197.5,-316 197.5,-297 111.5,-297"/>
<text text-anchor="middle" x="154.5" y="-304" font-family="Helvetica,sans-Serif" font-size="10.00">odp/api/time.h</text>
</a>
</g>
</g>
<!-- Node0&#45;&gt;Node19 -->
<g id="edge25" class="edge"><title>Node0&#45;&gt;Node19</title>
<path fill="none" stroke="midnightblue" d="M737.744,-433.213C682.424,-430.724 588.61,-421.533 515.5,-389 495.27,-379.998 496.821,-366.795 476.5,-358 375.092,-314.111 339.462,-340.358 230.5,-322 223.04,-320.743 215.184,-319.337 207.467,-317.909"/>
<polygon fill="midnightblue" stroke="midnightblue" points="207.922,-314.434 197.448,-316.03 206.631,-321.314 207.922,-314.434"/>
</g>
<!-- Node22 -->
<g id="node23" class="node"><title>Node22</title>
<polygon fill="white" stroke="#bfbfbf" points="958.5,-364 958.5,-383 1066.5,-383 1066.5,-364 958.5,-364"/>
<text text-anchor="middle" x="1012.5" y="-371" font-family="Helvetica,sans-Serif" font-size="10.00">odp/api/abi/buffer.h</text>
</g>
<!-- Node0&#45;&gt;Node22 -->
<g id="edge31" class="edge"><title>Node0&#45;&gt;Node22</title>
<path fill="none" stroke="midnightblue" d="M817.167,-425.475C857.377,-414.982 925.758,-397.137 970.015,-385.587"/>
<polygon fill="midnightblue" stroke="midnightblue" points="971.102,-388.921 979.894,-383.009 969.334,-382.148 971.102,-388.921"/>
</g>
<!-- Node23 -->
<g id="node24" class="node"><title>Node23</title>
<g id="a_node24"><a xlink:href="packet__inline__types_8h.html" target="_top" xlink:title="ODP packet descriptor. ">
<polygon fill="white" stroke="black" points="610.5,-224.5 610.5,-254.5 718.5,-254.5 718.5,-224.5 610.5,-224.5"/>
<text text-anchor="start" x="618.5" y="-242.5" font-family="Helvetica,sans-Serif" font-size="10.00">odp/api/plat/packet</text>
<text text-anchor="middle" x="664.5" y="-231.5" font-family="Helvetica,sans-Serif" font-size="10.00">_inline_types.h</text>
</a>
</g>
</g>
<!-- Node0&#45;&gt;Node23 -->
<g id="edge33" class="edge"><title>Node0&#45;&gt;Node23</title>
<path fill="none" stroke="midnightblue" d="M782.652,-425.176C777.368,-401.519 760.414,-335.467 727.5,-291 718.861,-279.328 706.897,-268.833 695.714,-260.474"/>
<polygon fill="midnightblue" stroke="midnightblue" points="697.552,-257.485 687.383,-254.514 693.479,-263.179 697.552,-257.485"/>
</g>
<!-- Node24 -->
<g id="node25" class="node"><title>Node24</title>
<g id="a_node25"><a xlink:href="pool__inline__types_8h.html" target="_top" xlink:title="ODP packet descriptor. ">
<polygon fill="white" stroke="black" points="1084.5,-358.5 1084.5,-388.5 1210.5,-388.5 1210.5,-358.5 1084.5,-358.5"/>
<text text-anchor="start" x="1092.5" y="-376.5" font-family="Helvetica,sans-Serif" font-size="10.00">odp/api/plat/pool_inline</text>
<text text-anchor="middle" x="1147.5" y="-365.5" font-family="Helvetica,sans-Serif" font-size="10.00">_types.h</text>
</a>
</g>
</g>
<!-- Node0&#45;&gt;Node24 -->
<g id="edge35" class="edge"><title>Node0&#45;&gt;Node24</title>
<path fill="none" stroke="midnightblue" d="M831.227,-427.44C886.779,-419.493 982.529,-405.331 1074.3,-389.168"/>
<polygon fill="midnightblue" stroke="midnightblue" points="1075.08,-392.585 1084.31,-387.393 1073.86,-385.692 1075.08,-392.585"/>
</g>
<!-- Node25 -->
<g id="node26" class="node"><title>Node25</title>
<g id="a_node26"><a xlink:href="pktio__inlines_8h_source.html" target="_top" xlink:title="odp/api/plat/pktio\l_inlines.h">
<polygon fill="white" stroke="black" points="1229,-358.5 1229,-388.5 1328,-388.5 1328,-358.5 1229,-358.5"/>
<text text-anchor="start" x="1237" y="-376.5" font-family="Helvetica,sans-Serif" font-size="10.00">odp/api/plat/pktio</text>
<text text-anchor="middle" x="1278.5" y="-365.5" font-family="Helvetica,sans-Serif" font-size="10.00">_inlines.h</text>
</a>
</g>
</g>
<!-- Node0&#45;&gt;Node25 -->
<g id="edge36" class="edge"><title>Node0&#45;&gt;Node25</title>
<path fill="none" stroke="midnightblue" d="M831.142,-431.293C909.293,-426.296 1071.73,-413.941 1218.61,-388.989"/>
<polygon fill="midnightblue" stroke="midnightblue" points="1219.45,-392.396 1228.71,-387.249 1218.26,-385.498 1219.45,-392.396"/>
</g>
<!-- Node26 -->
<g id="node27" class="node"><title>Node26</title>
<polygon fill="white" stroke="#bfbfbf" points="1346,-364 1346,-383 1399,-383 1399,-364 1346,-364"/>
<text text-anchor="middle" x="1372.5" y="-371" font-family="Helvetica,sans-Serif" font-size="10.00">string.h</text>
</g>
<!-- Node0&#45;&gt;Node26 -->
<g id="edge37" class="edge"><title>Node0&#45;&gt;Node26</title>
<path fill="none" stroke="midnightblue" d="M831.012,-432.077C946.096,-427.019 1241.76,-412.122 1337.5,-389 1340.02,-388.392 1342.59,-387.628 1345.14,-386.77"/>
<polygon fill="midnightblue" stroke="midnightblue" points="1346.59,-389.961 1354.69,-383.131 1344.1,-383.419 1346.59,-389.961"/>
</g>
<!-- Node3 -->
<g id="node4" class="node"><title>Node3</title>
<polygon fill="white" stroke="#bfbfbf" points="363,-297 363,-316 464,-316 464,-297 363,-297"/>
<text text-anchor="middle" x="413.5" y="-304" font-family="Helvetica,sans-Serif" font-size="10.00">odp/api/abi/pool.h</text>
</g>
<!-- Node2&#45;&gt;Node3 -->
<g id="edge3" class="edge"><title>Node2&#45;&gt;Node3</title>
<path fill="none" stroke="midnightblue" d="M546.183,-363.869C519.777,-352.65 473.468,-332.977 443.141,-320.092"/>
<polygon fill="midnightblue" stroke="midnightblue" points="444.474,-316.856 433.901,-316.167 441.737,-323.299 444.474,-316.856"/>
</g>
<!-- Node4 -->
<g id="node5" class="node"><title>Node4</title>
<polygon fill="white" stroke="#bfbfbf" points="240,-291.5 240,-321.5 345,-321.5 345,-291.5 240,-291.5"/>
<text text-anchor="start" x="248" y="-309.5" font-family="Helvetica,sans-Serif" font-size="10.00">odp/api/abi/shared</text>
<text text-anchor="middle" x="292.5" y="-298.5" font-family="Helvetica,sans-Serif" font-size="10.00">_memory.h</text>
</g>
<!-- Node2&#45;&gt;Node4 -->
<g id="edge4" class="edge"><title>Node2&#45;&gt;Node4</title>
<path fill="none" stroke="midnightblue" d="M534.261,-363.988C526.491,-361.982 518.208,-359.881 510.5,-358 443.941,-341.755 424.834,-338.54 354.814,-322.293"/>
<polygon fill="midnightblue" stroke="midnightblue" points="355.599,-318.882 345.066,-320.023 354.012,-325.7 355.599,-318.882"/>
</g>
<!-- Node2&#45;&gt;Node5 -->
<g id="edge5" class="edge"><title>Node2&#45;&gt;Node5</title>
<path fill="none" stroke="midnightblue" d="M579.717,-363.734C595.954,-352.964 623.717,-334.55 643.031,-321.739"/>
<polygon fill="midnightblue" stroke="midnightblue" points="645.094,-324.571 651.493,-316.127 641.225,-318.738 645.094,-324.571"/>
</g>
<!-- Node6 -->
<g id="node7" class="node"><title>Node6</title>
<g id="a_node7"><a xlink:href="spec_2pool_8h.html" target="_top" xlink:title="ODP pool. ">
<polygon fill="white" stroke="black" points="482.5,-297 482.5,-316 592.5,-316 592.5,-297 482.5,-297"/>
<text text-anchor="middle" x="537.5" y="-304" font-family="Helvetica,sans-Serif" font-size="10.00">odp/api/spec/pool.h</text>
</a>
</g>
</g>
<!-- Node2&#45;&gt;Node6 -->
<g id="edge6" class="edge"><title>Node2&#45;&gt;Node6</title>
<path fill="none" stroke="midnightblue" d="M562.589,-363.734C558.241,-353.988 551.099,-337.981 545.545,-325.532"/>
<polygon fill="midnightblue" stroke="midnightblue" points="548.62,-323.834 541.349,-316.127 542.227,-326.686 548.62,-323.834"/>
</g>
<!-- Node7 -->
<g id="node8" class="node"><title>Node7</title>
<polygon fill="white" stroke="#bfbfbf" points="524,-0.5 524,-19.5 639,-19.5 639,-0.5 524,-0.5"/>
<text text-anchor="middle" x="581.5" y="-7.5" font-family="Helvetica,sans-Serif" font-size="10.00">odp/visibility_begin.h</text>
</g>
<!-- Node6&#45;&gt;Node7 -->
<g id="edge7" class="edge"><title>Node6&#45;&gt;Node7</title>
<path fill="none" stroke="midnightblue" d="M544.063,-296.802C555.476,-281.753 579.838,-249.975 601.5,-224 657.762,-156.538 701.368,-158.142 732.5,-76 747.248,-37.0877 696.216,-21.4152 649.549,-15.1327"/>
<polygon fill="midnightblue" stroke="midnightblue" points="649.724,-11.6283 639.375,-13.896 648.879,-18.5771 649.724,-11.6283"/>
</g>
<!-- Node8 -->
<g id="node9" class="node"><title>Node8</title>
<g id="a_node9"><a xlink:href="std__types_8h.html" target="_top" xlink:title="Standard C language types and definitions for ODP. ">
<polygon fill="white" stroke="black" points="368.5,-230 368.5,-249 478.5,-249 478.5,-230 368.5,-230"/>
<text text-anchor="middle" x="423.5" y="-237" font-family="Helvetica,sans-Serif" font-size="10.00">odp/api/std_types.h</text>
</a>
</g>
</g>
<!-- Node6&#45;&gt;Node8 -->
<g id="edge8" class="edge"><title>Node6&#45;&gt;Node8</title>
<path fill="none" stroke="midnightblue" d="M522.125,-296.734C502.981,-285.818 470.062,-267.049 447.564,-254.221"/>
<polygon fill="midnightblue" stroke="midnightblue" points="449.052,-251.04 438.631,-249.127 445.584,-257.121 449.052,-251.04"/>
</g>
<!-- Node15 -->
<g id="node16" class="node"><title>Node15</title>
<polygon fill="white" stroke="#bfbfbf" points="238,-0.5 238,-19.5 345,-19.5 345,-0.5 238,-0.5"/>
<text text-anchor="middle" x="291.5" y="-7.5" font-family="Helvetica,sans-Serif" font-size="10.00">odp/visibility_end.h</text>
</g>
<!-- Node6&#45;&gt;Node15 -->
<g id="edge19" class="edge"><title>Node6&#45;&gt;Node15</title>
<path fill="none" stroke="midnightblue" d="M500.873,-296.995C456.325,-286.325 384.035,-267.87 359.5,-255 248.784,-196.925 195.812,-189.086 142.5,-76 124.355,-37.5103 179.269,-21.8116 227.477,-15.409"/>
<polygon fill="midnightblue" stroke="midnightblue" points="228.127,-18.8559 237.634,-14.179 227.286,-11.9067 228.127,-18.8559"/>
</g>
<!-- Node9 -->
<g id="node10" class="node"><title>Node9</title>
<polygon fill="white" stroke="#bfbfbf" points="305.5,-168.5 305.5,-187.5 433.5,-187.5 433.5,-168.5 305.5,-168.5"/>
<text text-anchor="middle" x="369.5" y="-175.5" font-family="Helvetica,sans-Serif" font-size="10.00">odp/api/abi/std_types.h</text>
</g>
<!-- Node8&#45;&gt;Node9 -->
<g id="edge9" class="edge"><title>Node8&#45;&gt;Node9</title>
<path fill="none" stroke="midnightblue" d="M415.763,-229.975C407.503,-220.873 394.223,-206.241 384.006,-194.983"/>
<polygon fill="midnightblue" stroke="midnightblue" points="386.535,-192.562 377.223,-187.509 381.351,-197.266 386.535,-192.562"/>
</g>
<!-- Node10 -->
<g id="node11" class="node"><title>Node10</title>
<g id="a_node11"><a xlink:href="spec_2std__types_8h.html" target="_top" xlink:title="Standard C language types and definitions for ODP. ">
<polygon fill="white" stroke="black" points="451.5,-168.5 451.5,-187.5 587.5,-187.5 587.5,-168.5 451.5,-168.5"/>
<text text-anchor="middle" x="519.5" y="-175.5" font-family="Helvetica,sans-Serif" font-size="10.00">odp/api/spec/std_types.h</text>
</a>
</g>
</g>
<!-- Node8&#45;&gt;Node10 -->
<g id="edge10" class="edge"><title>Node8&#45;&gt;Node10</title>
<path fill="none" stroke="midnightblue" d="M437.254,-229.975C452.866,-220.299 478.563,-204.372 497.083,-192.894"/>
<polygon fill="midnightblue" stroke="midnightblue" points="499.115,-195.752 505.771,-187.509 495.427,-189.802 499.115,-195.752"/>
</g>
<!-- Node10&#45;&gt;Node7 -->
<g id="edge11" class="edge"><title>Node10&#45;&gt;Node7</title>
<path fill="none" stroke="midnightblue" d="M526.644,-168.212C533.407,-159.497 543.406,-145.526 549.5,-132 565.064,-97.4521 574.272,-53.8258 578.562,-29.5199"/>
<polygon fill="midnightblue" stroke="midnightblue" points="582.034,-29.9794 580.236,-19.5383 575.13,-28.8218 582.034,-29.9794"/>
</g>
<!-- Node11 -->
<g id="node12" class="node"><title>Node11</title>
<polygon fill="white" stroke="#bfbfbf" points="610,-112.5 610,-131.5 663,-131.5 663,-112.5 610,-112.5"/>
<text text-anchor="middle" x="636.5" y="-119.5" font-family="Helvetica,sans-Serif" font-size="10.00">stdint.h</text>
</g>
<!-- Node10&#45;&gt;Node11 -->
<g id="edge12" class="edge"><title>Node10&#45;&gt;Node11</title>
<path fill="none" stroke="midnightblue" d="M538.039,-168.444C557.123,-159.636 587.075,-145.812 608.936,-135.722"/>
<polygon fill="midnightblue" stroke="midnightblue" points="610.435,-138.885 618.048,-131.516 607.501,-132.529 610.435,-138.885"/>
</g>
<!-- Node12 -->
<g id="node13" class="node"><title>Node12</title>
<g id="a_node13"><a xlink:href="align_8h.html" target="_top" xlink:title="ODP alignments. ">
<polygon fill="white" stroke="black" points="454.5,-112.5 454.5,-131.5 540.5,-131.5 540.5,-112.5 454.5,-112.5"/>
<text text-anchor="middle" x="497.5" y="-119.5" font-family="Helvetica,sans-Serif" font-size="10.00">odp/api/align.h</text>
</a>
</g>
</g>
<!-- Node10&#45;&gt;Node12 -->
<g id="edge13" class="edge"><title>Node10&#45;&gt;Node12</title>
<path fill="none" stroke="midnightblue" d="M515.867,-168.083C512.888,-160.77 508.574,-150.181 504.875,-141.103"/>
<polygon fill="midnightblue" stroke="midnightblue" points="508.08,-139.691 501.065,-131.751 501.597,-142.333 508.08,-139.691"/>
</g>
<!-- Node10&#45;&gt;Node15 -->
<g id="edge18" class="edge"><title>Node10&#45;&gt;Node15</title>
<path fill="none" stroke="midnightblue" d="M480.816,-168.493C433.779,-156.151 355.157,-128.749 310.5,-76 299.471,-62.9721 294.84,-43.8144 292.898,-29.6702"/>
<polygon fill="midnightblue" stroke="midnightblue" points="296.368,-29.1961 291.846,-19.6146 289.406,-29.9245 296.368,-29.1961"/>
</g>
<!-- Node13 -->
<g id="node14" class="node"><title>Node13</title>
<polygon fill="white" stroke="#bfbfbf" points="319.5,-56.5 319.5,-75.5 423.5,-75.5 423.5,-56.5 319.5,-56.5"/>
<text text-anchor="middle" x="371.5" y="-63.5" font-family="Helvetica,sans-Serif" font-size="10.00">odp/api/abi/align.h</text>
</g>
<!-- Node12&#45;&gt;Node13 -->
<g id="edge14" class="edge"><title>Node12&#45;&gt;Node13</title>
<path fill="none" stroke="midnightblue" d="M477.535,-112.444C456.891,-103.596 424.437,-89.6875 400.868,-79.5865"/>
<polygon fill="midnightblue" stroke="midnightblue" points="401.942,-76.2387 391.372,-75.5164 399.184,-82.6727 401.942,-76.2387"/>
</g>
<!-- Node14 -->
<g id="node15" class="node"><title>Node14</title>
<g id="a_node15"><a xlink:href="spec_2align_8h.html" target="_top" xlink:title="ODP alignments. ">
<polygon fill="white" stroke="black" points="441.5,-56.5 441.5,-75.5 553.5,-75.5 553.5,-56.5 441.5,-56.5"/>
<text text-anchor="middle" x="497.5" y="-63.5" font-family="Helvetica,sans-Serif" font-size="10.00">odp/api/spec/align.h</text>
</a>
</g>
</g>
<!-- Node12&#45;&gt;Node14 -->
<g id="edge15" class="edge"><title>Node12&#45;&gt;Node14</title>
<path fill="none" stroke="midnightblue" d="M497.5,-112.083C497.5,-105.006 497.5,-94.8611 497.5,-85.9865"/>
<polygon fill="midnightblue" stroke="midnightblue" points="501,-85.751 497.5,-75.7511 494,-85.7511 501,-85.751"/>
</g>
<!-- Node14&#45;&gt;Node7 -->
<g id="edge16" class="edge"><title>Node14&#45;&gt;Node7</title>
<path fill="none" stroke="midnightblue" d="M510.996,-56.324C524.1,-47.9002 544.212,-34.9709 559.607,-25.0741"/>
<polygon fill="midnightblue" stroke="midnightblue" points="561.518,-28.0063 568.037,-19.6545 557.733,-22.118 561.518,-28.0063"/>
</g>
<!-- Node14&#45;&gt;Node15 -->
<g id="edge17" class="edge"><title>Node14&#45;&gt;Node15</title>
<path fill="none" stroke="midnightblue" d="M464.859,-56.4435C429.45,-47.1616 372.791,-32.3093 333.947,-22.127"/>
<polygon fill="midnightblue" stroke="midnightblue" points="334.549,-18.6666 323.989,-19.5164 332.774,-25.4378 334.549,-18.6666"/>
</g>
<!-- Node18 -->
<g id="node19" class="node"><title>Node18</title>
<g id="a_node19"><a xlink:href="spec_2hints_8h.html" target="_top" xlink:title="ODP compiler hints. ">
<polygon fill="white" stroke="black" points="610,-56.5 610,-75.5 723,-75.5 723,-56.5 610,-56.5"/>
<text text-anchor="middle" x="666.5" y="-63.5" font-family="Helvetica,sans-Serif" font-size="10.00">odp/api/spec/hints.h</text>
</a>
</g>
</g>
<!-- Node17&#45;&gt;Node18 -->
<g id="edge22" class="edge"><title>Node17&#45;&gt;Node18</title>
<path fill="none" stroke="midnightblue" d="M740.223,-168.368C727.02,-150.215 696.174,-107.802 678.856,-83.9902"/>
<polygon fill="midnightblue" stroke="midnightblue" points="681.461,-81.6202 672.748,-75.5914 675.799,-85.7374 681.461,-81.6202"/>
</g>
<!-- Node18&#45;&gt;Node7 -->
<g id="edge23" class="edge"><title>Node18&#45;&gt;Node7</title>
<path fill="none" stroke="midnightblue" d="M652.843,-56.324C639.584,-47.9002 619.232,-34.9709 603.654,-25.0741"/>
<polygon fill="midnightblue" stroke="midnightblue" points="605.44,-22.0626 595.123,-19.6545 601.687,-27.9711 605.44,-22.0626"/>
</g>
<!-- Node18&#45;&gt;Node15 -->
<g id="edge24" class="edge"><title>Node18&#45;&gt;Node15</title>
<path fill="none" stroke="midnightblue" d="M609.953,-56.8572C541.599,-47.0143 426.869,-30.4931 355.382,-20.199"/>
<polygon fill="midnightblue" stroke="midnightblue" points="355.556,-16.6881 345.159,-18.727 354.558,-23.6166 355.556,-16.6881"/>
</g>
<!-- Node19&#45;&gt;Node8 -->
<g id="edge26" class="edge"><title>Node19&#45;&gt;Node8</title>
<path fill="none" stroke="midnightblue" d="M189.944,-296.936C238.328,-285.244 325.088,-264.28 378.156,-251.457"/>
<polygon fill="midnightblue" stroke="midnightblue" points="379.08,-254.834 387.978,-249.083 377.435,-248.03 379.08,-254.834"/>
</g>
<!-- Node20 -->
<g id="node21" class="node"><title>Node20</title>
<polygon fill="white" stroke="#bfbfbf" points="0,-230 0,-249 103,-249 103,-230 0,-230"/>
<text text-anchor="middle" x="51.5" y="-237" font-family="Helvetica,sans-Serif" font-size="10.00">odp/api/abi/time.h</text>
</g>
<!-- Node19&#45;&gt;Node20 -->
<g id="edge27" class="edge"><title>Node19&#45;&gt;Node20</title>
<path fill="none" stroke="midnightblue" d="M140.609,-296.734C123.466,-285.916 94.0995,-267.383 73.7891,-254.566"/>
<polygon fill="midnightblue" stroke="midnightblue" points="75.4957,-251.504 65.171,-249.127 71.7599,-257.424 75.4957,-251.504"/>
</g>
<!-- Node21 -->
<g id="node22" class="node"><title>Node21</title>
<g id="a_node22"><a xlink:href="spec_2time_8h.html" target="_top" xlink:title="ODP time. ">
<polygon fill="white" stroke="black" points="152,-56.5 152,-75.5 263,-75.5 263,-56.5 152,-56.5"/>
<text text-anchor="middle" x="207.5" y="-63.5" font-family="Helvetica,sans-Serif" font-size="10.00">odp/api/spec/time.h</text>
</a>
</g>
</g>
<!-- Node19&#45;&gt;Node21 -->
<g id="edge28" class="edge"><title>Node19&#45;&gt;Node21</title>
<path fill="none" stroke="midnightblue" d="M153.743,-296.857C152.625,-281.892 151.103,-250.237 155.5,-224 164.211,-172.022 187.163,-113.869 199.456,-85.1169"/>
<polygon fill="midnightblue" stroke="midnightblue" points="202.812,-86.1771 203.594,-75.6111 196.393,-83.3833 202.812,-86.1771"/>
</g>
<!-- Node21&#45;&gt;Node7 -->
<g id="edge29" class="edge"><title>Node21&#45;&gt;Node7</title>
<path fill="none" stroke="midnightblue" d="M263.088,-56.974C329.806,-47.3409 441.651,-31.1921 513.466,-20.8231"/>
<polygon fill="midnightblue" stroke="midnightblue" points="514.364,-24.2299 523.761,-19.3367 513.363,-17.3017 514.364,-24.2299"/>
</g>
<!-- Node21&#45;&gt;Node15 -->
<g id="edge30" class="edge"><title>Node21&#45;&gt;Node15</title>
<path fill="none" stroke="midnightblue" d="M220.996,-56.324C234.1,-47.9002 254.212,-34.9709 269.607,-25.0741"/>
<polygon fill="midnightblue" stroke="midnightblue" points="271.518,-28.0063 278.037,-19.6545 267.733,-22.118 271.518,-28.0063"/>
</g>
<!-- Node23&#45;&gt;Node11 -->
<g id="edge34" class="edge"><title>Node23&#45;&gt;Node11</title>
<path fill="none" stroke="midnightblue" d="M661.067,-224.337C656.022,-203.527 646.6,-164.663 641.005,-141.583"/>
<polygon fill="midnightblue" stroke="midnightblue" points="644.359,-140.563 638.602,-131.669 637.556,-142.213 644.359,-140.563"/>
</g>
</g>
</svg>
