<?xml version="1.0" encoding="UTF-8" standalone="no"?>
<!DOCTYPE svg PUBLIC "-//W3C//DTD SVG 1.1//EN"
 "http://www.w3.org/Graphics/SVG/1.1/DTD/svg11.dtd">
<!-- Generated by graphviz version 2.38.0 (20140413.2041)
 -->
<!-- Title: packet.h Pages: 1 -->
<svg width="324pt" height="588pt"
 viewBox="0.00 0.00 323.50 588.00" xmlns="http://www.w3.org/2000/svg" xmlns:xlink="http://www.w3.org/1999/xlink">
<g id="graph0" class="graph" transform="scale(1 1) rotate(0) translate(4 584)">
<title>packet.h</title>
<polygon fill="white" stroke="none" points="-4,4 -4,-584 319.5,-584 319.5,4 -4,4"/>
<!-- Node19 -->
<g id="node1" class="node"><title>Node19</title>
<polygon fill="#bfbfbf" stroke="black" points="111,-560.5 111,-579.5 169,-579.5 169,-560.5 111,-560.5"/>
<text text-anchor="middle" x="140" y="-567.5" font-family="Helvetica,sans-Serif" font-size="10.00">packet.h</text>
</g>
<!-- Node20 -->
<g id="node2" class="node"><title>Node20</title>
<g id="a_node2"><a xlink:href="spec_2comp_8h.html" target="_top" xlink:title="ODP Compression. ">
<polygon fill="white" stroke="black" points="3.5,-504.5 3.5,-523.5 56.5,-523.5 56.5,-504.5 3.5,-504.5"/>
<text text-anchor="middle" x="30" y="-511.5" font-family="Helvetica,sans-Serif" font-size="10.00">comp.h</text>
</a>
</g>
</g>
<!-- Node19&#45;&gt;Node20 -->
<g id="edge1" class="edge"><title>Node19&#45;&gt;Node20</title>
<path fill="none" stroke="midnightblue" d="M113.238,-555.862C92.841,-545.849 65.3341,-532.346 47.6295,-523.655"/>
<polygon fill="midnightblue" stroke="midnightblue" points="111.808,-559.059 122.327,-560.324 114.892,-552.775 111.808,-559.059"/>
</g>
<!-- Node22 -->
<g id="node4" class="node"><title>Node22</title>
<g id="a_node4"><a xlink:href="spec_2crypto_8h.html" target="_top" xlink:title="ODP crypto. ">
<polygon fill="white" stroke="black" points="0,-392.5 0,-411.5 56,-411.5 56,-392.5 0,-392.5"/>
<text text-anchor="middle" x="28" y="-399.5" font-family="Helvetica,sans-Serif" font-size="10.00">crypto.h</text>
</a>
</g>
</g>
<!-- Node19&#45;&gt;Node22 -->
<g id="edge3" class="edge"><title>Node19&#45;&gt;Node22</title>
<path fill="none" stroke="midnightblue" d="M125.619,-552.666C118.668,-544.378 110.456,-533.974 104,-524 83.3712,-492.128 85.842,-479.733 65,-448 56.1161,-434.474 43.884,-420.277 35.9591,-411.532"/>
<polygon fill="midnightblue" stroke="midnightblue" points="123.112,-555.119 132.279,-560.431 128.425,-550.562 123.112,-555.119"/>
</g>
<!-- Node26 -->
<g id="node8" class="node"><title>Node26</title>
<g id="a_node8"><a xlink:href="spec_2event_8h.html" target="_top" xlink:title="ODP event. ">
<polygon fill="white" stroke="black" points="113.5,-504.5 113.5,-523.5 166.5,-523.5 166.5,-504.5 113.5,-504.5"/>
<text text-anchor="middle" x="140" y="-511.5" font-family="Helvetica,sans-Serif" font-size="10.00">event.h</text>
</a>
</g>
</g>
<!-- Node19&#45;&gt;Node26 -->
<g id="edge7" class="edge"><title>Node19&#45;&gt;Node26</title>
<path fill="none" stroke="midnightblue" d="M140,-549.805C140,-540.91 140,-530.78 140,-523.751"/>
<polygon fill="midnightblue" stroke="midnightblue" points="136.5,-550.083 140,-560.083 143.5,-550.083 136.5,-550.083"/>
</g>
<!-- Node30 -->
<g id="node12" class="node"><title>Node30</title>
<g id="a_node12"><a xlink:href="spec_2packet__io_8h.html" target="_top" xlink:title="ODP Packet IO. ">
<polygon fill="white" stroke="black" points="160.5,-280.5 160.5,-299.5 231.5,-299.5 231.5,-280.5 160.5,-280.5"/>
<text text-anchor="middle" x="196" y="-287.5" font-family="Helvetica,sans-Serif" font-size="10.00">packet_io.h</text>
</a>
</g>
</g>
<!-- Node19&#45;&gt;Node30 -->
<g id="edge26" class="edge"><title>Node19&#45;&gt;Node30</title>
<path fill="none" stroke="midnightblue" d="M154.913,-552.714C161.772,-544.561 169.571,-534.258 175,-524 189.201,-497.167 196,-489.359 196,-459 196,-459 196,-459 196,-401 196,-363.188 196,-318.064 196,-299.558"/>
<polygon fill="midnightblue" stroke="midnightblue" points="152.191,-550.51 148.244,-560.342 157.461,-555.117 152.191,-550.51"/>
</g>
<!-- Node38 -->
<g id="node20" class="node"><title>Node38</title>
<g id="a_node20"><a xlink:href="spec_2packet__flags_8h.html" target="_top" xlink:title="ODP packet flags. ">
<polygon fill="white" stroke="black" points="224,-504.5 224,-523.5 310,-523.5 310,-504.5 224,-504.5"/>
<text text-anchor="middle" x="267" y="-511.5" font-family="Helvetica,sans-Serif" font-size="10.00">packet_flags.h</text>
</a>
</g>
</g>
<!-- Node19&#45;&gt;Node38 -->
<g id="edge24" class="edge"><title>Node19&#45;&gt;Node38</title>
<path fill="none" stroke="midnightblue" d="M169.391,-556.503C193.2,-546.38 226.106,-532.388 246.971,-523.516"/>
<polygon fill="midnightblue" stroke="midnightblue" points="167.957,-553.31 160.124,-560.444 170.696,-559.751 167.957,-553.31"/>
</g>
<!-- Node21 -->
<g id="node3" class="node"><title>Node21</title>
<g id="a_node3"><a xlink:href="comp_8h.html" target="_top" xlink:title="ODP crypto. ">
<polygon fill="white" stroke="black" points="3.5,-448.5 3.5,-467.5 56.5,-467.5 56.5,-448.5 3.5,-448.5"/>
<text text-anchor="middle" x="30" y="-455.5" font-family="Helvetica,sans-Serif" font-size="10.00">comp.h</text>
</a>
</g>
</g>
<!-- Node20&#45;&gt;Node21 -->
<g id="edge2" class="edge"><title>Node20&#45;&gt;Node21</title>
<path fill="none" stroke="midnightblue" d="M30,-493.805C30,-484.91 30,-474.78 30,-467.751"/>
<polygon fill="midnightblue" stroke="midnightblue" points="26.5001,-494.083 30,-504.083 33.5001,-494.083 26.5001,-494.083"/>
</g>
<!-- Node23 -->
<g id="node5" class="node"><title>Node23</title>
<g id="a_node5"><a xlink:href="crypto_8h.html" target="_top" xlink:title="ODP crypto. ">
<polygon fill="white" stroke="black" points="0,-280.5 0,-299.5 56,-299.5 56,-280.5 0,-280.5"/>
<text text-anchor="middle" x="28" y="-287.5" font-family="Helvetica,sans-Serif" font-size="10.00">crypto.h</text>
</a>
</g>
</g>
<!-- Node22&#45;&gt;Node23 -->
<g id="edge4" class="edge"><title>Node22&#45;&gt;Node23</title>
<path fill="none" stroke="midnightblue" d="M28,-382.348C28,-358.254 28,-317.308 28,-299.591"/>
<polygon fill="midnightblue" stroke="midnightblue" points="24.5001,-382.368 28,-392.368 31.5001,-382.369 24.5001,-382.368"/>
</g>
<!-- Node24 -->
<g id="node6" class="node"><title>Node24</title>
<g id="a_node6"><a xlink:href="spec_2ipsec_8h.html" target="_top" xlink:title="ODP IPSEC API. ">
<polygon fill="white" stroke="black" points="110,-56.5 110,-75.5 160,-75.5 160,-56.5 110,-56.5"/>
<text text-anchor="middle" x="135" y="-63.5" font-family="Helvetica,sans-Serif" font-size="10.00">ipsec.h</text>
</a>
</g>
</g>
<!-- Node23&#45;&gt;Node24 -->
<g id="edge5" class="edge"><title>Node23&#45;&gt;Node24</title>
<path fill="none" stroke="midnightblue" d="M35.3734,-270.87C48.7389,-238.449 78.3405,-168.63 108,-112 114.763,-99.0865 123.619,-84.7368 129.31,-75.7904"/>
<polygon fill="midnightblue" stroke="midnightblue" points="32.0386,-269.778 31.4866,-280.358 38.5162,-272.431 32.0386,-269.778"/>
</g>
<!-- Node25 -->
<g id="node7" class="node"><title>Node25</title>
<g id="a_node7"><a xlink:href="ipsec_8h.html" target="_top" xlink:title="ODP IPSEC API &#45; platform specific header. ">
<polygon fill="white" stroke="black" points="110,-0.5 110,-19.5 160,-19.5 160,-0.5 110,-0.5"/>
<text text-anchor="middle" x="135" y="-7.5" font-family="Helvetica,sans-Serif" font-size="10.00">ipsec.h</text>
</a>
</g>
</g>
<!-- Node24&#45;&gt;Node25 -->
<g id="edge6" class="edge"><title>Node24&#45;&gt;Node25</title>
<path fill="none" stroke="midnightblue" d="M135,-45.8045C135,-36.9102 135,-26.7798 135,-19.7511"/>
<polygon fill="midnightblue" stroke="midnightblue" points="131.5,-46.083 135,-56.083 138.5,-46.083 131.5,-46.083"/>
</g>
<!-- Node27 -->
<g id="node9" class="node"><title>Node27</title>
<g id="a_node9"><a xlink:href="event_8h.html" target="_top" xlink:title="ODP event. ">
<polygon fill="white" stroke="black" points="113.5,-448.5 113.5,-467.5 166.5,-467.5 166.5,-448.5 113.5,-448.5"/>
<text text-anchor="middle" x="140" y="-455.5" font-family="Helvetica,sans-Serif" font-size="10.00">event.h</text>
</a>
</g>
</g>
<!-- Node26&#45;&gt;Node27 -->
<g id="edge8" class="edge"><title>Node26&#45;&gt;Node27</title>
<path fill="none" stroke="midnightblue" d="M140,-493.805C140,-484.91 140,-474.78 140,-467.751"/>
<polygon fill="midnightblue" stroke="midnightblue" points="136.5,-494.083 140,-504.083 143.5,-494.083 136.5,-494.083"/>
</g>
<!-- Node28 -->
<g id="node10" class="node"><title>Node28</title>
<g id="a_node10"><a xlink:href="spec_2queue_8h.html" target="_top" xlink:title="ODP queue. ">
<polygon fill="white" stroke="black" points="112,-392.5 112,-411.5 168,-411.5 168,-392.5 112,-392.5"/>
<text text-anchor="middle" x="140" y="-399.5" font-family="Helvetica,sans-Serif" font-size="10.00">queue.h</text>
</a>
</g>
</g>
<!-- Node27&#45;&gt;Node28 -->
<g id="edge9" class="edge"><title>Node27&#45;&gt;Node28</title>
<path fill="none" stroke="midnightblue" d="M140,-437.805C140,-428.91 140,-418.78 140,-411.751"/>
<polygon fill="midnightblue" stroke="midnightblue" points="136.5,-438.083 140,-448.083 143.5,-438.083 136.5,-438.083"/>
</g>
<!-- Node36 -->
<g id="node18" class="node"><title>Node36</title>
<g id="a_node18"><a xlink:href="spec_2schedule_8h.html" target="_top" xlink:title="ODP schedule. ">
<polygon fill="white" stroke="black" points="74,-280.5 74,-299.5 142,-299.5 142,-280.5 74,-280.5"/>
<text text-anchor="middle" x="108" y="-287.5" font-family="Helvetica,sans-Serif" font-size="10.00">schedule.h</text>
</a>
</g>
</g>
<!-- Node27&#45;&gt;Node36 -->
<g id="edge23" class="edge"><title>Node27&#45;&gt;Node36</title>
<path fill="none" stroke="midnightblue" d="M122.36,-441.152C114.857,-433.231 106.941,-422.997 103,-412 88.6738,-372.019 100.069,-319.796 105.514,-299.543"/>
<polygon fill="midnightblue" stroke="midnightblue" points="119.981,-443.722 129.562,-448.245 124.892,-438.734 119.981,-443.722"/>
</g>
<!-- Node29 -->
<g id="node11" class="node"><title>Node29</title>
<g id="a_node11"><a xlink:href="queue_8h.html" target="_top" xlink:title="ODP queue. ">
<polygon fill="white" stroke="black" points="112,-336.5 112,-355.5 168,-355.5 168,-336.5 112,-336.5"/>
<text text-anchor="middle" x="140" y="-343.5" font-family="Helvetica,sans-Serif" font-size="10.00">queue.h</text>
</a>
</g>
</g>
<!-- Node28&#45;&gt;Node29 -->
<g id="edge10" class="edge"><title>Node28&#45;&gt;Node29</title>
<path fill="none" stroke="midnightblue" d="M140,-381.805C140,-372.91 140,-362.78 140,-355.751"/>
<polygon fill="midnightblue" stroke="midnightblue" points="136.5,-382.083 140,-392.083 143.5,-382.083 136.5,-382.083"/>
</g>
<!-- Node29&#45;&gt;Node23 -->
<g id="edge11" class="edge"><title>Node29&#45;&gt;Node23</title>
<path fill="none" stroke="midnightblue" d="M112.751,-331.862C91.9835,-321.849 63.9766,-308.346 45.9501,-299.655"/>
<polygon fill="midnightblue" stroke="midnightblue" points="111.477,-335.134 122.005,-336.324 114.518,-328.828 111.477,-335.134"/>
</g>
<!-- Node29&#45;&gt;Node30 -->
<g id="edge12" class="edge"><title>Node29&#45;&gt;Node30</title>
<path fill="none" stroke="midnightblue" d="M156.33,-329.253C166.265,-319.673 178.588,-307.791 186.839,-299.834"/>
<polygon fill="midnightblue" stroke="midnightblue" points="153.766,-326.863 148.997,-336.324 158.625,-331.902 153.766,-326.863"/>
</g>
<!-- Node29&#45;&gt;Node36 -->
<g id="edge21" class="edge"><title>Node29&#45;&gt;Node36</title>
<path fill="none" stroke="midnightblue" d="M129.496,-327.275C124.027,-318.045 117.582,-307.17 113.186,-299.751"/>
<polygon fill="midnightblue" stroke="midnightblue" points="126.607,-329.264 134.716,-336.083 132.629,-325.696 126.607,-329.264"/>
</g>
<!-- Node31 -->
<g id="node13" class="node"><title>Node31</title>
<g id="a_node13"><a xlink:href="packet__io_8h.html" target="_top" xlink:title="ODP Packet IO. ">
<polygon fill="white" stroke="black" points="160.5,-224.5 160.5,-243.5 231.5,-243.5 231.5,-224.5 160.5,-224.5"/>
<text text-anchor="middle" x="196" y="-231.5" font-family="Helvetica,sans-Serif" font-size="10.00">packet_io.h</text>
</a>
</g>
</g>
<!-- Node30&#45;&gt;Node31 -->
<g id="edge13" class="edge"><title>Node30&#45;&gt;Node31</title>
<path fill="none" stroke="midnightblue" d="M196,-269.805C196,-260.91 196,-250.78 196,-243.751"/>
<polygon fill="midnightblue" stroke="midnightblue" points="192.5,-270.083 196,-280.083 199.5,-270.083 192.5,-270.083"/>
</g>
<!-- Node31&#45;&gt;Node24 -->
<g id="edge17" class="edge"><title>Node31&#45;&gt;Node24</title>
<path fill="none" stroke="midnightblue" d="M158.43,-220.542C143.391,-213.496 127.615,-203.014 119,-188 97.5908,-150.691 120.196,-96.467 130.474,-75.614"/>
<polygon fill="midnightblue" stroke="midnightblue" points="157.058,-223.762 167.628,-224.495 159.822,-217.331 157.058,-223.762"/>
</g>
<!-- Node32 -->
<g id="node14" class="node"><title>Node32</title>
<g id="a_node14"><a xlink:href="spec_2classification_8h.html" target="_top" xlink:title="ODP classification descriptor. ">
<polygon fill="white" stroke="black" points="128,-168.5 128,-187.5 214,-187.5 214,-168.5 128,-168.5"/>
<text text-anchor="middle" x="171" y="-175.5" font-family="Helvetica,sans-Serif" font-size="10.00">classification.h</text>
</a>
</g>
</g>
<!-- Node31&#45;&gt;Node32 -->
<g id="edge14" class="edge"><title>Node31&#45;&gt;Node32</title>
<path fill="none" stroke="midnightblue" d="M187.659,-214.983C183.415,-205.817 178.45,-195.092 175.051,-187.751"/>
<polygon fill="midnightblue" stroke="midnightblue" points="184.494,-216.479 191.872,-224.083 190.847,-213.538 184.494,-216.479"/>
</g>
<!-- Node34 -->
<g id="node16" class="node"><title>Node34</title>
<g id="a_node16"><a xlink:href="spec_2traffic__mngr_8h.html" target="_top" xlink:title="Copyright (c) 2015&#45;2018, Linaro Limited All rights reserved. ">
<polygon fill="white" stroke="black" points="232.5,-168.5 232.5,-187.5 315.5,-187.5 315.5,-168.5 232.5,-168.5"/>
<text text-anchor="middle" x="274" y="-175.5" font-family="Helvetica,sans-Serif" font-size="10.00">traffic_mngr.h</text>
</a>
</g>
</g>
<!-- Node31&#45;&gt;Node34 -->
<g id="edge18" class="edge"><title>Node31&#45;&gt;Node34</title>
<path fill="none" stroke="midnightblue" d="M216.768,-218.622C231.017,-208.757 249.456,-195.992 261.499,-187.655"/>
<polygon fill="midnightblue" stroke="midnightblue" points="214.762,-215.754 208.532,-224.324 218.746,-221.51 214.762,-215.754"/>
</g>
<!-- Node33 -->
<g id="node15" class="node"><title>Node33</title>
<g id="a_node15"><a xlink:href="classification_8h.html" target="_top" xlink:title="ODP classification descriptor. ">
<polygon fill="white" stroke="black" points="128,-112.5 128,-131.5 214,-131.5 214,-112.5 128,-112.5"/>
<text text-anchor="middle" x="171" y="-119.5" font-family="Helvetica,sans-Serif" font-size="10.00">classification.h</text>
</a>
</g>
</g>
<!-- Node32&#45;&gt;Node33 -->
<g id="edge15" class="edge"><title>Node32&#45;&gt;Node33</title>
<path fill="none" stroke="midnightblue" d="M171,-157.805C171,-148.91 171,-138.78 171,-131.751"/>
<polygon fill="midnightblue" stroke="midnightblue" points="167.5,-158.083 171,-168.083 174.5,-158.083 167.5,-158.083"/>
</g>
<!-- Node33&#45;&gt;Node24 -->
<g id="edge16" class="edge"><title>Node33&#45;&gt;Node24</title>
<path fill="none" stroke="midnightblue" d="M159.377,-103.566C153.183,-94.2747 145.832,-83.2484 140.834,-75.7511"/>
<polygon fill="midnightblue" stroke="midnightblue" points="156.596,-105.704 165.055,-112.083 162.42,-101.821 156.596,-105.704"/>
</g>
<!-- Node35 -->
<g id="node17" class="node"><title>Node35</title>
<g id="a_node17"><a xlink:href="traffic__mngr_8h.html" target="_top" xlink:title="ODP Traffic manager. ">
<polygon fill="white" stroke="black" points="232.5,-112.5 232.5,-131.5 315.5,-131.5 315.5,-112.5 232.5,-112.5"/>
<text text-anchor="middle" x="274" y="-119.5" font-family="Helvetica,sans-Serif" font-size="10.00">traffic_mngr.h</text>
</a>
</g>
</g>
<!-- Node34&#45;&gt;Node35 -->
<g id="edge19" class="edge"><title>Node34&#45;&gt;Node35</title>
<path fill="none" stroke="midnightblue" d="M274,-157.805C274,-148.91 274,-138.78 274,-131.751"/>
<polygon fill="midnightblue" stroke="midnightblue" points="270.5,-158.083 274,-168.083 277.5,-158.083 270.5,-158.083"/>
</g>
<!-- Node35&#45;&gt;Node24 -->
<g id="edge20" class="edge"><title>Node35&#45;&gt;Node24</title>
<path fill="none" stroke="midnightblue" d="M242.524,-108.772C216.415,-98.6287 179.961,-84.4669 156.922,-75.5164"/>
<polygon fill="midnightblue" stroke="midnightblue" points="241.386,-112.085 251.975,-112.444 243.921,-105.56 241.386,-112.085"/>
</g>
<!-- Node37 -->
<g id="node19" class="node"><title>Node37</title>
<g id="a_node19"><a xlink:href="schedule_8h.html" target="_top" xlink:title="ODP schedule. ">
<polygon fill="white" stroke="black" points="74,-224.5 74,-243.5 142,-243.5 142,-224.5 74,-224.5"/>
<text text-anchor="middle" x="108" y="-231.5" font-family="Helvetica,sans-Serif" font-size="10.00">schedule.h</text>
</a>
</g>
</g>
<!-- Node36&#45;&gt;Node37 -->
<g id="edge22" class="edge"><title>Node36&#45;&gt;Node37</title>
<path fill="none" stroke="midnightblue" d="M108,-269.805C108,-260.91 108,-250.78 108,-243.751"/>
<polygon fill="midnightblue" stroke="midnightblue" points="104.5,-270.083 108,-280.083 111.5,-270.083 104.5,-270.083"/>
</g>
<!-- Node39 -->
<g id="node21" class="node"><title>Node39</title>
<g id="a_node21"><a xlink:href="packet__flags_8h.html" target="_top" xlink:title="ODP packet flags. ">
<polygon fill="white" stroke="black" points="224,-448.5 224,-467.5 310,-467.5 310,-448.5 224,-448.5"/>
<text text-anchor="middle" x="267" y="-455.5" font-family="Helvetica,sans-Serif" font-size="10.00">packet_flags.h</text>
</a>
</g>
</g>
<!-- Node38&#45;&gt;Node39 -->
<g id="edge25" class="edge"><title>Node38&#45;&gt;Node39</title>
<path fill="none" stroke="midnightblue" d="M267,-493.805C267,-484.91 267,-474.78 267,-467.751"/>
<polygon fill="midnightblue" stroke="midnightblue" points="263.5,-494.083 267,-504.083 270.5,-494.083 263.5,-494.083"/>
</g>
</g>
</svg>
