<?xml version="1.0" encoding="UTF-8" standalone="no"?>
<!DOCTYPE svg PUBLIC "-//W3C//DTD SVG 1.1//EN"
 "http://www.w3.org/Graphics/SVG/1.1/DTD/svg11.dtd">
<!-- Generated by graphviz version 2.38.0 (20140413.2041)
 -->
<!-- Title: packet_vector_inlines.h Pages: 1 -->
<svg width="689pt" height="151pt"
 viewBox="0.00 0.00 689.00 151.00" xmlns="http://www.w3.org/2000/svg" xmlns:xlink="http://www.w3.org/1999/xlink">
<g id="graph0" class="graph" transform="scale(1 1) rotate(0) translate(4 147)">
<title>packet_vector_inlines.h</title>
<polygon fill="white" stroke="none" points="-4,4 -4,-147 685,-147 685,4 -4,4"/>
<!-- Node0 -->
<g id="node1" class="node"><title>Node0</title>
<polygon fill="#bfbfbf" stroke="black" points="309,-123.5 309,-142.5 437,-142.5 437,-123.5 309,-123.5"/>
<text text-anchor="middle" x="373" y="-130.5" font-family="Helvetica,sans-Serif" font-size="10.00">packet_vector_inlines.h</text>
</g>
<!-- Node1 -->
<g id="node2" class="node"><title>Node1</title>
<polygon fill="white" stroke="#bfbfbf" points="0,-62 0,-81 108,-81 108,-62 0,-62"/>
<text text-anchor="middle" x="54" y="-69" font-family="Helvetica,sans-Serif" font-size="10.00">odp/api/abi/event.h</text>
</g>
<!-- Node0&#45;&gt;Node1 -->
<g id="edge1" class="edge"><title>Node0&#45;&gt;Node1</title>
<path fill="none" stroke="midnightblue" d="M320.116,-123.43C268.446,-114.878 187.631,-101.023 118,-87 112.205,-85.8328 106.129,-84.5431 100.125,-83.2284"/>
<polygon fill="midnightblue" stroke="midnightblue" points="100.672,-79.7646 90.1507,-81.0096 99.152,-86.5975 100.672,-79.7646"/>
</g>
<!-- Node2 -->
<g id="node3" class="node"><title>Node2</title>
<polygon fill="white" stroke="#bfbfbf" points="126.5,-62 126.5,-81 239.5,-81 239.5,-62 126.5,-62"/>
<text text-anchor="middle" x="183" y="-69" font-family="Helvetica,sans-Serif" font-size="10.00">odp/api/abi/packet.h</text>
</g>
<!-- Node0&#45;&gt;Node2 -->
<g id="edge2" class="edge"><title>Node0&#45;&gt;Node2</title>
<path fill="none" stroke="midnightblue" d="M345.778,-123.475C312.763,-113.136 256.96,-95.6611 220.047,-84.1017"/>
<polygon fill="midnightblue" stroke="midnightblue" points="220.761,-80.6576 210.172,-81.0091 218.669,-87.3377 220.761,-80.6576"/>
</g>
<!-- Node3 -->
<g id="node4" class="node"><title>Node3</title>
<polygon fill="white" stroke="#bfbfbf" points="257.5,-62 257.5,-81 358.5,-81 358.5,-62 257.5,-62"/>
<text text-anchor="middle" x="308" y="-69" font-family="Helvetica,sans-Serif" font-size="10.00">odp/api/abi/pool.h</text>
</g>
<!-- Node0&#45;&gt;Node3 -->
<g id="edge3" class="edge"><title>Node0&#45;&gt;Node3</title>
<path fill="none" stroke="midnightblue" d="M363.687,-123.475C353.551,-114.197 337.136,-99.1706 324.748,-87.831"/>
<polygon fill="midnightblue" stroke="midnightblue" points="327.035,-85.1795 317.296,-81.0091 322.309,-90.3429 327.035,-85.1795"/>
</g>
<!-- Node4 -->
<g id="node5" class="node"><title>Node4</title>
<g id="a_node5"><a xlink:href="event__vector__inline__types_8h_source.html" target="_top" xlink:title="odp/api/plat/event\l_vector_inline_types.h">
<polygon fill="white" stroke="black" points="377,-56.5 377,-86.5 499,-86.5 499,-56.5 377,-56.5"/>
<text text-anchor="start" x="385" y="-74.5" font-family="Helvetica,sans-Serif" font-size="10.00">odp/api/plat/event</text>
<text text-anchor="middle" x="438" y="-63.5" font-family="Helvetica,sans-Serif" font-size="10.00">_vector_inline_types.h</text>
</a>
</g>
</g>
<!-- Node0&#45;&gt;Node4 -->
<g id="edge4" class="edge"><title>Node0&#45;&gt;Node4</title>
<path fill="none" stroke="midnightblue" d="M382.313,-123.475C390.869,-115.643 403.9,-103.714 415.206,-93.3656"/>
<polygon fill="midnightblue" stroke="midnightblue" points="417.668,-95.8568 422.681,-86.523 412.941,-90.6934 417.668,-95.8568"/>
</g>
<!-- Node5 -->
<g id="node6" class="node"><title>Node5</title>
<polygon fill="white" stroke="#bfbfbf" points="455.5,-0.5 455.5,-19.5 508.5,-19.5 508.5,-0.5 455.5,-0.5"/>
<text text-anchor="middle" x="482" y="-7.5" font-family="Helvetica,sans-Serif" font-size="10.00">stdint.h</text>
</g>
<!-- Node0&#45;&gt;Node5 -->
<g id="edge7" class="edge"><title>Node0&#45;&gt;Node5</title>
<path fill="none" stroke="midnightblue" d="M437.031,-126.763C463.46,-121.069 491.677,-109.647 508,-87 520.934,-69.0549 507.857,-44.1689 496.038,-27.8335"/>
<polygon fill="midnightblue" stroke="midnightblue" points="498.661,-25.5043 489.774,-19.7363 493.124,-29.7875 498.661,-25.5043"/>
</g>
<!-- Node6 -->
<g id="node7" class="node"><title>Node6</title>
<g id="a_node7"><a xlink:href="pool__inline__types_8h.html" target="_top" xlink:title="ODP packet descriptor. ">
<polygon fill="white" stroke="black" points="555,-56.5 555,-86.5 681,-86.5 681,-56.5 555,-56.5"/>
<text text-anchor="start" x="563" y="-74.5" font-family="Helvetica,sans-Serif" font-size="10.00">odp/api/plat/pool_inline</text>
<text text-anchor="middle" x="618" y="-63.5" font-family="Helvetica,sans-Serif" font-size="10.00">_types.h</text>
</a>
</g>
</g>
<!-- Node0&#45;&gt;Node6 -->
<g id="edge6" class="edge"><title>Node0&#45;&gt;Node6</title>
<path fill="none" stroke="midnightblue" d="M408.103,-123.475C445.083,-114.494 504.237,-100.128 550.336,-88.9328"/>
<polygon fill="midnightblue" stroke="midnightblue" points="551.367,-92.2842 560.258,-86.523 549.715,-85.4819 551.367,-92.2842"/>
</g>
<!-- Node4&#45;&gt;Node5 -->
<g id="edge5" class="edge"><title>Node4&#45;&gt;Node5</title>
<path fill="none" stroke="midnightblue" d="M448.427,-56.3993C454.755,-47.8424 462.869,-36.8708 469.534,-27.857"/>
<polygon fill="midnightblue" stroke="midnightblue" points="472.466,-29.7792 475.598,-19.6578 466.838,-25.6171 472.466,-29.7792"/>
</g>
</g>
</svg>
