<?xml version="1.0" encoding="UTF-8" standalone="no"?>
<!DOCTYPE svg PUBLIC "-//W3C//DTD SVG 1.1//EN"
 "http://www.w3.org/Graphics/SVG/1.1/DTD/svg11.dtd">
<!-- Generated by graphviz version 2.38.0 (20140413.2041)
 -->
<!-- Title: pool_inline_types.h Pages: 1 -->
<svg width="248pt" height="84pt"
 viewBox="0.00 0.00 247.50 84.00" xmlns="http://www.w3.org/2000/svg" xmlns:xlink="http://www.w3.org/1999/xlink">
<g id="graph0" class="graph" transform="scale(1 1) rotate(0) translate(4 80)">
<title>pool_inline_types.h</title>
<polygon fill="white" stroke="none" points="-4,4 -4,-80 243.5,-80 243.5,4 -4,4"/>
<!-- Node1 -->
<g id="node1" class="node"><title>Node1</title>
<polygon fill="#bfbfbf" stroke="black" points="57,-56.5 57,-75.5 164,-75.5 164,-56.5 57,-56.5"/>
<text text-anchor="middle" x="110.5" y="-63.5" font-family="Helvetica,sans-Serif" font-size="10.00">pool_inline_types.h</text>
</g>
<!-- Node2 -->
<g id="node2" class="node"><title>Node2</title>
<g id="a_node2"><a xlink:href="packet__inlines_8h.html" target="_top" xlink:title="Packet inline functions. ">
<polygon fill="white" stroke="black" points="0,-0.5 0,-19.5 93,-19.5 93,-0.5 0,-0.5"/>
<text text-anchor="middle" x="46.5" y="-7.5" font-family="Helvetica,sans-Serif" font-size="10.00">packet_inlines.h</text>
</a>
</g>
</g>
<!-- Node1&#45;&gt;Node2 -->
<g id="edge1" class="edge"><title>Node1&#45;&gt;Node2</title>
<path fill="none" stroke="midnightblue" d="M92.5085,-49.8197C81.0424,-40.1452 66.5867,-27.9481 56.9698,-19.8339"/>
<polygon fill="midnightblue" stroke="midnightblue" points="90.3173,-52.5502 100.217,-56.324 94.8314,-47.2002 90.3173,-52.5502"/>
</g>
<!-- Node3 -->
<g id="node3" class="node"><title>Node3</title>
<g id="a_node3"><a xlink:href="packet__vector__inlines_8h.html" target="_top" xlink:title="Packet vector inline functions. ">
<polygon fill="white" stroke="black" points="111.5,-0.5 111.5,-19.5 239.5,-19.5 239.5,-0.5 111.5,-0.5"/>
<text text-anchor="middle" x="175.5" y="-7.5" font-family="Helvetica,sans-Serif" font-size="10.00">packet_vector_inlines.h</text>
</a>
</g>
</g>
<!-- Node1&#45;&gt;Node3 -->
<g id="edge2" class="edge"><title>Node1&#45;&gt;Node3</title>
<path fill="none" stroke="midnightblue" d="M128.773,-49.8197C140.418,-40.1452 155.099,-27.9481 164.867,-19.8339"/>
<polygon fill="midnightblue" stroke="midnightblue" points="126.399,-47.2416 120.943,-56.324 130.872,-52.6259 126.399,-47.2416"/>
</g>
</g>
</svg>
