<?xml version="1.0" encoding="UTF-8" standalone="no"?>
<!DOCTYPE svg PUBLIC "-//W3C//DTD SVG 1.1//EN"
 "http://www.w3.org/Graphics/SVG/1.1/DTD/svg11.dtd">
<!-- Generated by graphviz version 2.38.0 (20140413.2041)
 -->
<!-- Title: support.h Pages: 1 -->
<svg width="330pt" height="700pt"
 viewBox="0.00 0.00 329.58 700.00" xmlns="http://www.w3.org/2000/svg" xmlns:xlink="http://www.w3.org/1999/xlink">
<g id="graph0" class="graph" transform="scale(1 1) rotate(0) translate(4 696)">
<title>support.h</title>
<polygon fill="white" stroke="none" points="-4,4 -4,-696 325.575,-696 325.575,4 -4,4"/>
<!-- Node3 -->
<g id="node1" class="node"><title>Node3</title>
<polygon fill="#bfbfbf" stroke="black" points="85.5755,-672.5 85.5755,-691.5 147.575,-691.5 147.575,-672.5 85.5755,-672.5"/>
<text text-anchor="middle" x="116.575" y="-679.5" font-family="Helvetica,sans-Serif" font-size="10.00">support.h</text>
</g>
<!-- Node4 -->
<g id="node2" class="node"><title>Node4</title>
<g id="a_node2"><a xlink:href="support_8h.html" target="_top" xlink:title="ODP support API &#45; platform specific header. ">
<polygon fill="white" stroke="black" points="85.5755,-616.5 85.5755,-635.5 147.575,-635.5 147.575,-616.5 85.5755,-616.5"/>
<text text-anchor="middle" x="116.575" y="-623.5" font-family="Helvetica,sans-Serif" font-size="10.00">support.h</text>
</a>
</g>
</g>
<!-- Node3&#45;&gt;Node4 -->
<g id="edge1" class="edge"><title>Node3&#45;&gt;Node4</title>
<path fill="none" stroke="midnightblue" d="M116.575,-661.805C116.575,-652.91 116.575,-642.78 116.575,-635.751"/>
<polygon fill="midnightblue" stroke="midnightblue" points="113.076,-662.083 116.575,-672.083 120.076,-662.083 113.076,-662.083"/>
</g>
<!-- Node5 -->
<g id="node3" class="node"><title>Node5</title>
<g id="a_node3"><a xlink:href="spec_2classification_8h.html" target="_top" xlink:title="ODP classification descriptor. ">
<polygon fill="white" stroke="black" points="28.5755,-168.5 28.5755,-187.5 114.575,-187.5 114.575,-168.5 28.5755,-168.5"/>
<text text-anchor="middle" x="71.5755" y="-175.5" font-family="Helvetica,sans-Serif" font-size="10.00">classification.h</text>
</a>
</g>
</g>
<!-- Node4&#45;&gt;Node5 -->
<g id="edge2" class="edge"><title>Node4&#45;&gt;Node5</title>
<path fill="none" stroke="midnightblue" d="M91.5839,-611.092C79.7324,-603.344 66.2929,-592.693 57.5755,-580 40.5364,-555.19 38.5755,-545.098 38.5755,-515 38.5755,-515 38.5755,-515 38.5755,-289 38.5755,-249.722 58.1173,-205.756 67.1249,-187.576"/>
<polygon fill="midnightblue" stroke="midnightblue" points="89.886,-614.157 100.233,-616.437 93.566,-608.202 89.886,-614.157"/>
</g>
<!-- Node7 -->
<g id="node5" class="node"><title>Node7</title>
<g id="a_node5"><a xlink:href="spec_2ipsec_8h.html" target="_top" xlink:title="ODP IPSEC API. ">
<polygon fill="white" stroke="black" points="149.575,-56.5 149.575,-75.5 199.575,-75.5 199.575,-56.5 149.575,-56.5"/>
<text text-anchor="middle" x="174.575" y="-63.5" font-family="Helvetica,sans-Serif" font-size="10.00">ipsec.h</text>
</a>
</g>
</g>
<!-- Node4&#45;&gt;Node7 -->
<g id="edge11" class="edge"><title>Node4&#45;&gt;Node7</title>
<path fill="none" stroke="midnightblue" d="M86.1073,-612.077C51.7384,-595.214 0.575452,-562.186 0.575452,-515 0.575452,-515 0.575452,-515 0.575452,-177 0.575452,-146.902 -1.72636,-133.263 19.5755,-112 54.6778,-76.9618 115.337,-68.8629 149.432,-67.2011"/>
<polygon fill="midnightblue" stroke="midnightblue" points="84.7608,-615.312 95.2993,-616.403 87.7416,-608.978 84.7608,-615.312"/>
</g>
<!-- Node9 -->
<g id="node7" class="node"><title>Node9</title>
<g id="a_node7"><a xlink:href="spec_2comp_8h.html" target="_top" xlink:title="ODP Compression. ">
<polygon fill="white" stroke="black" points="223.075,-560.5 223.075,-579.5 276.075,-579.5 276.075,-560.5 223.075,-560.5"/>
<text text-anchor="middle" x="249.575" y="-567.5" font-family="Helvetica,sans-Serif" font-size="10.00">comp.h</text>
</a>
</g>
</g>
<!-- Node4&#45;&gt;Node9 -->
<g id="edge6" class="edge"><title>Node4&#45;&gt;Node9</title>
<path fill="none" stroke="midnightblue" d="M147.023,-612.638C171.982,-602.504 206.652,-588.427 228.6,-579.516"/>
<polygon fill="midnightblue" stroke="midnightblue" points="145.598,-609.439 137.65,-616.444 148.232,-615.924 145.598,-609.439"/>
</g>
<!-- Node11 -->
<g id="node9" class="node"><title>Node11</title>
<g id="a_node9"><a xlink:href="spec_2crypto_8h.html" target="_top" xlink:title="ODP crypto. ">
<polygon fill="white" stroke="black" points="265.575,-448.5 265.575,-467.5 321.575,-467.5 321.575,-448.5 265.575,-448.5"/>
<text text-anchor="middle" x="293.575" y="-455.5" font-family="Helvetica,sans-Serif" font-size="10.00">crypto.h</text>
</a>
</g>
</g>
<!-- Node4&#45;&gt;Node11 -->
<g id="edge8" class="edge"><title>Node4&#45;&gt;Node11</title>
<path fill="none" stroke="midnightblue" d="M139.934,-610.855C151.702,-602.881 165.56,-592.099 175.575,-580 199.656,-550.908 187.53,-531.346 213.575,-504 229.511,-487.268 253.06,-475.054 270.485,-467.607"/>
<polygon fill="midnightblue" stroke="midnightblue" points="137.913,-607.994 131.439,-616.382 141.73,-613.862 137.913,-607.994"/>
</g>
<!-- Node13 -->
<g id="node11" class="node"><title>Node13</title>
<g id="a_node11"><a xlink:href="spec_2schedule__types_8h.html" target="_top" xlink:title="ODP schedule types. ">
<polygon fill="white" stroke="black" points="66.5755,-560.5 66.5755,-579.5 166.575,-579.5 166.575,-560.5 66.5755,-560.5"/>
<text text-anchor="middle" x="116.575" y="-567.5" font-family="Helvetica,sans-Serif" font-size="10.00">schedule_types.h</text>
</a>
</g>
</g>
<!-- Node4&#45;&gt;Node13 -->
<g id="edge12" class="edge"><title>Node4&#45;&gt;Node13</title>
<path fill="none" stroke="midnightblue" d="M116.575,-605.805C116.575,-596.91 116.575,-586.78 116.575,-579.751"/>
<polygon fill="midnightblue" stroke="midnightblue" points="113.076,-606.083 116.575,-616.083 120.076,-606.083 113.076,-606.083"/>
</g>
<!-- Node6 -->
<g id="node4" class="node"><title>Node6</title>
<g id="a_node4"><a xlink:href="classification_8h.html" target="_top" xlink:title="ODP classification descriptor. ">
<polygon fill="white" stroke="black" points="28.5755,-112.5 28.5755,-131.5 114.575,-131.5 114.575,-112.5 28.5755,-112.5"/>
<text text-anchor="middle" x="71.5755" y="-119.5" font-family="Helvetica,sans-Serif" font-size="10.00">classification.h</text>
</a>
</g>
</g>
<!-- Node5&#45;&gt;Node6 -->
<g id="edge3" class="edge"><title>Node5&#45;&gt;Node6</title>
<path fill="none" stroke="midnightblue" d="M71.5755,-157.805C71.5755,-148.91 71.5755,-138.78 71.5755,-131.751"/>
<polygon fill="midnightblue" stroke="midnightblue" points="68.0755,-158.083 71.5755,-168.083 75.0755,-158.083 68.0755,-158.083"/>
</g>
<!-- Node6&#45;&gt;Node7 -->
<g id="edge4" class="edge"><title>Node6&#45;&gt;Node7</title>
<path fill="none" stroke="midnightblue" d="M97.1547,-107.59C116.199,-97.6052 141.64,-84.2672 158.068,-75.6545"/>
<polygon fill="midnightblue" stroke="midnightblue" points="95.3557,-104.581 88.1242,-112.324 98.606,-110.78 95.3557,-104.581"/>
</g>
<!-- Node8 -->
<g id="node6" class="node"><title>Node8</title>
<g id="a_node6"><a xlink:href="ipsec_8h.html" target="_top" xlink:title="ODP IPSEC API &#45; platform specific header. ">
<polygon fill="white" stroke="black" points="149.575,-0.5 149.575,-19.5 199.575,-19.5 199.575,-0.5 149.575,-0.5"/>
<text text-anchor="middle" x="174.575" y="-7.5" font-family="Helvetica,sans-Serif" font-size="10.00">ipsec.h</text>
</a>
</g>
</g>
<!-- Node7&#45;&gt;Node8 -->
<g id="edge5" class="edge"><title>Node7&#45;&gt;Node8</title>
<path fill="none" stroke="midnightblue" d="M174.575,-45.8045C174.575,-36.9102 174.575,-26.7798 174.575,-19.7511"/>
<polygon fill="midnightblue" stroke="midnightblue" points="171.076,-46.083 174.575,-56.083 178.076,-46.083 171.076,-46.083"/>
</g>
<!-- Node10 -->
<g id="node8" class="node"><title>Node10</title>
<g id="a_node8"><a xlink:href="comp_8h.html" target="_top" xlink:title="ODP crypto. ">
<polygon fill="white" stroke="black" points="223.075,-504.5 223.075,-523.5 276.075,-523.5 276.075,-504.5 223.075,-504.5"/>
<text text-anchor="middle" x="249.575" y="-511.5" font-family="Helvetica,sans-Serif" font-size="10.00">comp.h</text>
</a>
</g>
</g>
<!-- Node9&#45;&gt;Node10 -->
<g id="edge7" class="edge"><title>Node9&#45;&gt;Node10</title>
<path fill="none" stroke="midnightblue" d="M249.575,-549.805C249.575,-540.91 249.575,-530.78 249.575,-523.751"/>
<polygon fill="midnightblue" stroke="midnightblue" points="246.076,-550.083 249.575,-560.083 253.076,-550.083 246.076,-550.083"/>
</g>
<!-- Node12 -->
<g id="node10" class="node"><title>Node12</title>
<g id="a_node10"><a xlink:href="crypto_8h.html" target="_top" xlink:title="ODP crypto. ">
<polygon fill="white" stroke="black" points="254.575,-280.5 254.575,-299.5 310.575,-299.5 310.575,-280.5 254.575,-280.5"/>
<text text-anchor="middle" x="282.575" y="-287.5" font-family="Helvetica,sans-Serif" font-size="10.00">crypto.h</text>
</a>
</g>
</g>
<!-- Node11&#45;&gt;Node12 -->
<g id="edge9" class="edge"><title>Node11&#45;&gt;Node12</title>
<path fill="none" stroke="midnightblue" d="M305.332,-439.769C310.139,-431.71 315.137,-421.755 317.575,-412 328.183,-369.57 300.854,-319.584 288.39,-299.746"/>
<polygon fill="midnightblue" stroke="midnightblue" points="302.362,-437.917 299.942,-448.232 308.266,-441.678 302.362,-437.917"/>
</g>
<!-- Node12&#45;&gt;Node7 -->
<g id="edge10" class="edge"><title>Node12&#45;&gt;Node7</title>
<path fill="none" stroke="midnightblue" d="M282.764,-270.337C282.222,-235.96 276.827,-161.614 242.575,-112 230.914,-95.1075 210.647,-82.9143 195.264,-75.5164"/>
<polygon fill="midnightblue" stroke="midnightblue" points="279.264,-270.382 282.796,-280.37 286.264,-270.359 279.264,-270.382"/>
</g>
<!-- Node14 -->
<g id="node12" class="node"><title>Node14</title>
<g id="a_node12"><a xlink:href="schedule__types_8h.html" target="_top" xlink:title="ODP schedule. ">
<polygon fill="white" stroke="black" points="66.5755,-504.5 66.5755,-523.5 166.575,-523.5 166.575,-504.5 66.5755,-504.5"/>
<text text-anchor="middle" x="116.575" y="-511.5" font-family="Helvetica,sans-Serif" font-size="10.00">schedule_types.h</text>
</a>
</g>
</g>
<!-- Node13&#45;&gt;Node14 -->
<g id="edge13" class="edge"><title>Node13&#45;&gt;Node14</title>
<path fill="none" stroke="midnightblue" d="M116.575,-549.805C116.575,-540.91 116.575,-530.78 116.575,-523.751"/>
<polygon fill="midnightblue" stroke="midnightblue" points="113.076,-550.083 116.575,-560.083 120.076,-550.083 113.076,-550.083"/>
</g>
<!-- Node15 -->
<g id="node13" class="node"><title>Node15</title>
<g id="a_node13"><a xlink:href="queue__types_8h.html" target="_top" xlink:title="ODP queue types. ">
<polygon fill="white" stroke="black" points="117.075,-448.5 117.075,-467.5 204.075,-467.5 204.075,-448.5 117.075,-448.5"/>
<text text-anchor="middle" x="160.575" y="-455.5" font-family="Helvetica,sans-Serif" font-size="10.00">queue_types.h</text>
</a>
</g>
</g>
<!-- Node14&#45;&gt;Node15 -->
<g id="edge14" class="edge"><title>Node14&#45;&gt;Node15</title>
<path fill="none" stroke="midnightblue" d="M130.31,-496.144C137.976,-486.736 147.209,-475.405 153.445,-467.751"/>
<polygon fill="midnightblue" stroke="midnightblue" points="127.445,-494.12 123.841,-504.083 132.871,-498.541 127.445,-494.12"/>
</g>
<!-- Node22 -->
<g id="node20" class="node"><title>Node22</title>
<g id="a_node20"><a xlink:href="spec_2schedule_8h.html" target="_top" xlink:title="ODP schedule. ">
<polygon fill="white" stroke="black" points="66.5755,-280.5 66.5755,-299.5 134.575,-299.5 134.575,-280.5 66.5755,-280.5"/>
<text text-anchor="middle" x="100.575" y="-287.5" font-family="Helvetica,sans-Serif" font-size="10.00">schedule.h</text>
</a>
</g>
</g>
<!-- Node14&#45;&gt;Node22 -->
<g id="edge29" class="edge"><title>Node14&#45;&gt;Node22</title>
<path fill="none" stroke="midnightblue" d="M112.208,-494.578C110.464,-486.473 108.624,-476.811 107.575,-468 99.9065,-403.566 100.124,-325.105 100.437,-299.512"/>
<polygon fill="midnightblue" stroke="midnightblue" points="108.819,-495.459 114.443,-504.438 115.646,-493.912 108.819,-495.459"/>
</g>
<!-- Node16 -->
<g id="node14" class="node"><title>Node16</title>
<g id="a_node14"><a xlink:href="spec_2queue_8h.html" target="_top" xlink:title="ODP queue. ">
<polygon fill="white" stroke="black" points="116.575,-392.5 116.575,-411.5 172.575,-411.5 172.575,-392.5 116.575,-392.5"/>
<text text-anchor="middle" x="144.575" y="-399.5" font-family="Helvetica,sans-Serif" font-size="10.00">queue.h</text>
</a>
</g>
</g>
<!-- Node15&#45;&gt;Node16 -->
<g id="edge15" class="edge"><title>Node15&#45;&gt;Node16</title>
<path fill="none" stroke="midnightblue" d="M155.063,-438.396C152.386,-429.362 149.297,-418.936 147.168,-411.751"/>
<polygon fill="midnightblue" stroke="midnightblue" points="151.737,-439.489 157.933,-448.083 158.448,-437.501 151.737,-439.489"/>
</g>
<!-- Node24 -->
<g id="node22" class="node"><title>Node24</title>
<g id="a_node22"><a xlink:href="queue__inline__types_8h_source.html" target="_top" xlink:title="queue_inline_types.h">
<polygon fill="white" stroke="black" points="191.075,-392.5 191.075,-411.5 308.075,-411.5 308.075,-392.5 191.075,-392.5"/>
<text text-anchor="middle" x="249.575" y="-399.5" font-family="Helvetica,sans-Serif" font-size="10.00">queue_inline_types.h</text>
</a>
</g>
</g>
<!-- Node15&#45;&gt;Node24 -->
<g id="edge27" class="edge"><title>Node15&#45;&gt;Node24</title>
<path fill="none" stroke="midnightblue" d="M183.813,-442.901C200.133,-432.999 221.441,-420.071 235.312,-411.655"/>
<polygon fill="midnightblue" stroke="midnightblue" points="181.609,-440.144 174.875,-448.324 185.24,-446.129 181.609,-440.144"/>
</g>
<!-- Node17 -->
<g id="node15" class="node"><title>Node17</title>
<g id="a_node15"><a xlink:href="queue_8h.html" target="_top" xlink:title="ODP queue. ">
<polygon fill="white" stroke="black" points="122.575,-336.5 122.575,-355.5 178.575,-355.5 178.575,-336.5 122.575,-336.5"/>
<text text-anchor="middle" x="150.575" y="-343.5" font-family="Helvetica,sans-Serif" font-size="10.00">queue.h</text>
</a>
</g>
</g>
<!-- Node16&#45;&gt;Node17 -->
<g id="edge16" class="edge"><title>Node16&#45;&gt;Node17</title>
<path fill="none" stroke="midnightblue" d="M146.675,-382.101C147.671,-373.136 148.813,-362.858 149.603,-355.751"/>
<polygon fill="midnightblue" stroke="midnightblue" points="143.192,-381.758 145.566,-392.083 150.149,-382.531 143.192,-381.758"/>
</g>
<!-- Node17&#45;&gt;Node12 -->
<g id="edge17" class="edge"><title>Node17&#45;&gt;Node12</title>
<path fill="none" stroke="midnightblue" d="M180.794,-332.638C205.566,-322.504 239.975,-308.427 261.758,-299.516"/>
<polygon fill="midnightblue" stroke="midnightblue" points="179.421,-329.418 171.491,-336.444 182.072,-335.897 179.421,-329.418"/>
</g>
<!-- Node18 -->
<g id="node16" class="node"><title>Node18</title>
<g id="a_node16"><a xlink:href="spec_2packet__io_8h.html" target="_top" xlink:title="ODP Packet IO. ">
<polygon fill="white" stroke="black" points="153.075,-280.5 153.075,-299.5 224.075,-299.5 224.075,-280.5 153.075,-280.5"/>
<text text-anchor="middle" x="188.575" y="-287.5" font-family="Helvetica,sans-Serif" font-size="10.00">packet_io.h</text>
</a>
</g>
</g>
<!-- Node17&#45;&gt;Node18 -->
<g id="edge18" class="edge"><title>Node17&#45;&gt;Node18</title>
<path fill="none" stroke="midnightblue" d="M162.64,-327.855C169.22,-318.505 177.086,-307.327 182.417,-299.751"/>
<polygon fill="midnightblue" stroke="midnightblue" points="159.743,-325.891 156.85,-336.083 165.468,-329.919 159.743,-325.891"/>
</g>
<!-- Node17&#45;&gt;Node22 -->
<g id="edge25" class="edge"><title>Node17&#45;&gt;Node22</title>
<path fill="none" stroke="midnightblue" d="M135.499,-328.718C126.686,-319.2 115.91,-307.561 108.678,-299.751"/>
<polygon fill="midnightblue" stroke="midnightblue" points="132.957,-331.123 142.319,-336.083 138.093,-326.367 132.957,-331.123"/>
</g>
<!-- Node19 -->
<g id="node17" class="node"><title>Node19</title>
<g id="a_node17"><a xlink:href="packet__io_8h.html" target="_top" xlink:title="ODP Packet IO. ">
<polygon fill="white" stroke="black" points="153.075,-224.5 153.075,-243.5 224.075,-243.5 224.075,-224.5 153.075,-224.5"/>
<text text-anchor="middle" x="188.575" y="-231.5" font-family="Helvetica,sans-Serif" font-size="10.00">packet_io.h</text>
</a>
</g>
</g>
<!-- Node18&#45;&gt;Node19 -->
<g id="edge19" class="edge"><title>Node18&#45;&gt;Node19</title>
<path fill="none" stroke="midnightblue" d="M188.575,-269.805C188.575,-260.91 188.575,-250.78 188.575,-243.751"/>
<polygon fill="midnightblue" stroke="midnightblue" points="185.076,-270.083 188.575,-280.083 192.076,-270.083 185.076,-270.083"/>
</g>
<!-- Node19&#45;&gt;Node5 -->
<g id="edge20" class="edge"><title>Node19&#45;&gt;Node5</title>
<path fill="none" stroke="midnightblue" d="M160.912,-220.232C139.026,-210.131 109.079,-196.309 90.0277,-187.516"/>
<polygon fill="midnightblue" stroke="midnightblue" points="159.49,-223.431 170.036,-224.444 162.424,-217.075 159.49,-223.431"/>
</g>
<!-- Node19&#45;&gt;Node7 -->
<g id="edge21" class="edge"><title>Node19&#45;&gt;Node7</title>
<path fill="none" stroke="midnightblue" d="M205.976,-216.819C213.209,-208.916 220.79,-198.791 224.575,-188 235.756,-156.126 238.318,-142.856 224.575,-112 217.449,-95.9975 201.507,-83.2984 189.528,-75.5256"/>
<polygon fill="midnightblue" stroke="midnightblue" points="203.25,-214.6 198.738,-224.185 208.243,-219.506 203.25,-214.6"/>
</g>
<!-- Node20 -->
<g id="node18" class="node"><title>Node20</title>
<g id="a_node18"><a xlink:href="spec_2traffic__mngr_8h.html" target="_top" xlink:title="Copyright (c) 2015&#45;2018, Linaro Limited All rights reserved. ">
<polygon fill="white" stroke="black" points="133.075,-168.5 133.075,-187.5 216.075,-187.5 216.075,-168.5 133.075,-168.5"/>
<text text-anchor="middle" x="174.575" y="-175.5" font-family="Helvetica,sans-Serif" font-size="10.00">traffic_mngr.h</text>
</a>
</g>
</g>
<!-- Node19&#45;&gt;Node20 -->
<g id="edge22" class="edge"><title>Node19&#45;&gt;Node20</title>
<path fill="none" stroke="midnightblue" d="M183.752,-214.396C181.41,-205.362 178.707,-194.936 176.844,-187.751"/>
<polygon fill="midnightblue" stroke="midnightblue" points="180.366,-215.281 186.264,-224.083 187.142,-213.525 180.366,-215.281"/>
</g>
<!-- Node21 -->
<g id="node19" class="node"><title>Node21</title>
<g id="a_node19"><a xlink:href="traffic__mngr_8h.html" target="_top" xlink:title="ODP Traffic manager. ">
<polygon fill="white" stroke="black" points="133.075,-112.5 133.075,-131.5 216.075,-131.5 216.075,-112.5 133.075,-112.5"/>
<text text-anchor="middle" x="174.575" y="-119.5" font-family="Helvetica,sans-Serif" font-size="10.00">traffic_mngr.h</text>
</a>
</g>
</g>
<!-- Node20&#45;&gt;Node21 -->
<g id="edge23" class="edge"><title>Node20&#45;&gt;Node21</title>
<path fill="none" stroke="midnightblue" d="M174.575,-157.805C174.575,-148.91 174.575,-138.78 174.575,-131.751"/>
<polygon fill="midnightblue" stroke="midnightblue" points="171.076,-158.083 174.575,-168.083 178.076,-158.083 171.076,-158.083"/>
</g>
<!-- Node21&#45;&gt;Node7 -->
<g id="edge24" class="edge"><title>Node21&#45;&gt;Node7</title>
<path fill="none" stroke="midnightblue" d="M174.575,-101.805C174.575,-92.9102 174.575,-82.7798 174.575,-75.7511"/>
<polygon fill="midnightblue" stroke="midnightblue" points="171.076,-102.083 174.575,-112.083 178.076,-102.083 171.076,-102.083"/>
</g>
<!-- Node23 -->
<g id="node21" class="node"><title>Node23</title>
<g id="a_node21"><a xlink:href="schedule_8h.html" target="_top" xlink:title="ODP schedule. ">
<polygon fill="white" stroke="black" points="66.5755,-224.5 66.5755,-243.5 134.575,-243.5 134.575,-224.5 66.5755,-224.5"/>
<text text-anchor="middle" x="100.575" y="-231.5" font-family="Helvetica,sans-Serif" font-size="10.00">schedule.h</text>
</a>
</g>
</g>
<!-- Node22&#45;&gt;Node23 -->
<g id="edge26" class="edge"><title>Node22&#45;&gt;Node23</title>
<path fill="none" stroke="midnightblue" d="M100.575,-269.805C100.575,-260.91 100.575,-250.78 100.575,-243.751"/>
<polygon fill="midnightblue" stroke="midnightblue" points="97.0755,-270.083 100.575,-280.083 104.076,-270.083 97.0755,-270.083"/>
</g>
<!-- Node25 -->
<g id="node23" class="node"><title>Node25</title>
<g id="a_node23"><a xlink:href="queue__inlines_8h_source.html" target="_top" xlink:title="queue_inlines.h">
<polygon fill="white" stroke="black" points="204.075,-336.5 204.075,-355.5 295.075,-355.5 295.075,-336.5 204.075,-336.5"/>
<text text-anchor="middle" x="249.575" y="-343.5" font-family="Helvetica,sans-Serif" font-size="10.00">queue_inlines.h</text>
</a>
</g>
</g>
<!-- Node24&#45;&gt;Node25 -->
<g id="edge28" class="edge"><title>Node24&#45;&gt;Node25</title>
<path fill="none" stroke="midnightblue" d="M249.575,-381.805C249.575,-372.91 249.575,-362.78 249.575,-355.751"/>
<polygon fill="midnightblue" stroke="midnightblue" points="246.076,-382.083 249.575,-392.083 253.076,-382.083 246.076,-382.083"/>
</g>
</g>
</svg>
