<?xml version="1.0" encoding="UTF-8" standalone="no"?>
<!DOCTYPE svg PUBLIC "-//W3C//DTD SVG 1.1//EN"
 "http://www.w3.org/Graphics/SVG/1.1/DTD/svg11.dtd">
<!-- Generated by graphviz version 2.38.0 (20140413.2041)
 -->
<!-- Title: event.h Pages: 1 -->
<svg width="873pt" height="476pt"
 viewBox="0.00 0.00 873.00 476.00" xmlns="http://www.w3.org/2000/svg" xmlns:xlink="http://www.w3.org/1999/xlink">
<g id="graph0" class="graph" transform="scale(1 1) rotate(0) translate(4 472)">
<title>event.h</title>
<polygon fill="white" stroke="none" points="-4,4 -4,-472 869,-472 869,4 -4,4"/>
<!-- Node0 -->
<g id="node1" class="node"><title>Node0</title>
<polygon fill="#bfbfbf" stroke="black" points="346.5,-448.5 346.5,-467.5 399.5,-467.5 399.5,-448.5 346.5,-448.5"/>
<text text-anchor="middle" x="373" y="-455.5" font-family="Helvetica,sans-Serif" font-size="10.00">event.h</text>
</g>
<!-- Node1 -->
<g id="node2" class="node"><title>Node1</title>
<polygon fill="white" stroke="#bfbfbf" points="56.5,-0.5 56.5,-19.5 171.5,-19.5 171.5,-0.5 56.5,-0.5"/>
<text text-anchor="middle" x="114" y="-7.5" font-family="Helvetica,sans-Serif" font-size="10.00">odp/visibility_begin.h</text>
</g>
<!-- Node0&#45;&gt;Node1 -->
<g id="edge1" class="edge"><title>Node0&#45;&gt;Node1</title>
<path fill="none" stroke="midnightblue" d="M346.474,-454.948C261.259,-447.637 0,-419.325 0,-347 0,-347 0,-347 0,-121 0,-74.1149 50.5515,-40.8944 84.3292,-23.9302"/>
<polygon fill="midnightblue" stroke="midnightblue" points="85.8676,-27.0742 93.3555,-19.5787 82.8277,-20.7687 85.8676,-27.0742"/>
</g>
<!-- Node2 -->
<g id="node3" class="node"><title>Node2</title>
<g id="a_node3"><a xlink:href="packet_8h.html" target="_top" xlink:title="ODP packet descriptor. ">
<polygon fill="white" stroke="black" points="325,-392.5 325,-411.5 421,-411.5 421,-392.5 325,-392.5"/>
<text text-anchor="middle" x="373" y="-399.5" font-family="Helvetica,sans-Serif" font-size="10.00">odp/api/packet.h</text>
</a>
</g>
</g>
<!-- Node0&#45;&gt;Node2 -->
<g id="edge2" class="edge"><title>Node0&#45;&gt;Node2</title>
<path fill="none" stroke="midnightblue" d="M373,-448.083C373,-441.006 373,-430.861 373,-421.986"/>
<polygon fill="midnightblue" stroke="midnightblue" points="376.5,-421.751 373,-411.751 369.5,-421.751 376.5,-421.751"/>
</g>
<!-- Node10 -->
<g id="node11" class="node"><title>Node10</title>
<polygon fill="white" stroke="#bfbfbf" points="434.5,-0.5 434.5,-19.5 541.5,-19.5 541.5,-0.5 434.5,-0.5"/>
<text text-anchor="middle" x="488" y="-7.5" font-family="Helvetica,sans-Serif" font-size="10.00">odp/visibility_end.h</text>
</g>
<!-- Node0&#45;&gt;Node10 -->
<g id="edge28" class="edge"><title>Node0&#45;&gt;Node10</title>
<path fill="none" stroke="midnightblue" d="M399.801,-456.793C502.471,-455.289 865,-443.169 865,-347 865,-347 865,-347 865,-121 865,-56.5188 659.19,-27.2722 551.7,-16.3945"/>
<polygon fill="midnightblue" stroke="midnightblue" points="551.91,-12.8983 541.615,-15.3986 551.222,-19.8645 551.91,-12.8983"/>
</g>
<!-- Node3 -->
<g id="node4" class="node"><title>Node3</title>
<g id="a_node4"><a xlink:href="std__types_8h.html" target="_top" xlink:title="Standard C language types and definitions for ODP. ">
<polygon fill="white" stroke="black" points="189,-224.5 189,-243.5 299,-243.5 299,-224.5 189,-224.5"/>
<text text-anchor="middle" x="244" y="-231.5" font-family="Helvetica,sans-Serif" font-size="10.00">odp/api/std_types.h</text>
</a>
</g>
</g>
<!-- Node2&#45;&gt;Node3 -->
<g id="edge3" class="edge"><title>Node2&#45;&gt;Node3</title>
<path fill="none" stroke="midnightblue" d="M324.865,-401.488C245.146,-401.155 91.0926,-395.291 57,-356 10.7441,-302.69 125.508,-263.889 195.197,-246.007"/>
<polygon fill="midnightblue" stroke="midnightblue" points="196.276,-249.345 205.127,-243.521 194.576,-242.554 196.276,-249.345"/>
</g>
<!-- Node11 -->
<g id="node12" class="node"><title>Node11</title>
<polygon fill="white" stroke="#bfbfbf" points="452,-336.5 452,-355.5 560,-355.5 560,-336.5 452,-336.5"/>
<text text-anchor="middle" x="506" y="-343.5" font-family="Helvetica,sans-Serif" font-size="10.00">odp/api/abi/event.h</text>
</g>
<!-- Node2&#45;&gt;Node11 -->
<g id="edge14" class="edge"><title>Node2&#45;&gt;Node11</title>
<path fill="none" stroke="midnightblue" d="M394.074,-392.444C416.06,-383.517 450.734,-369.439 475.664,-359.317"/>
<polygon fill="midnightblue" stroke="midnightblue" points="477.076,-362.521 485.024,-355.516 474.442,-356.035 477.076,-362.521"/>
</g>
<!-- Node12 -->
<g id="node13" class="node"><title>Node12</title>
<polygon fill="white" stroke="#bfbfbf" points="578.5,-336.5 578.5,-355.5 705.5,-355.5 705.5,-336.5 578.5,-336.5"/>
<text text-anchor="middle" x="642" y="-343.5" font-family="Helvetica,sans-Serif" font-size="10.00">odp/api/abi/packet_io.h</text>
</g>
<!-- Node2&#45;&gt;Node12 -->
<g id="edge15" class="edge"><title>Node2&#45;&gt;Node12</title>
<path fill="none" stroke="midnightblue" d="M415.624,-392.444C462.747,-382.984 538.692,-367.738 589.459,-357.547"/>
<polygon fill="midnightblue" stroke="midnightblue" points="590.46,-360.916 599.576,-355.516 589.082,-354.053 590.46,-360.916"/>
</g>
<!-- Node13 -->
<g id="node14" class="node"><title>Node13</title>
<polygon fill="white" stroke="#bfbfbf" points="723.5,-336.5 723.5,-355.5 836.5,-355.5 836.5,-336.5 723.5,-336.5"/>
<text text-anchor="middle" x="780" y="-343.5" font-family="Helvetica,sans-Serif" font-size="10.00">odp/api/abi/packet.h</text>
</g>
<!-- Node2&#45;&gt;Node13 -->
<g id="edge16" class="edge"><title>Node2&#45;&gt;Node13</title>
<path fill="none" stroke="midnightblue" d="M421.01,-394.731C485.093,-386.348 602.41,-370.951 713.442,-356.07"/>
<polygon fill="midnightblue" stroke="midnightblue" points="714.031,-359.522 723.477,-354.724 713.1,-352.584 714.031,-359.522"/>
</g>
<!-- Node14 -->
<g id="node15" class="node"><title>Node14</title>
<polygon fill="white" stroke="#bfbfbf" points="66,-336.5 66,-355.5 174,-355.5 174,-336.5 66,-336.5"/>
<text text-anchor="middle" x="120" y="-343.5" font-family="Helvetica,sans-Serif" font-size="10.00">odp/api/abi/buffer.h</text>
</g>
<!-- Node2&#45;&gt;Node14 -->
<g id="edge17" class="edge"><title>Node2&#45;&gt;Node14</title>
<path fill="none" stroke="midnightblue" d="M332.911,-392.444C288.684,-383.004 217.461,-367.802 169.715,-357.611"/>
<polygon fill="midnightblue" stroke="midnightblue" points="170.411,-354.181 159.901,-355.516 168.95,-361.027 170.411,-354.181"/>
</g>
<!-- Node15 -->
<g id="node16" class="node"><title>Node15</title>
<polygon fill="white" stroke="#bfbfbf" points="192.5,-336.5 192.5,-355.5 293.5,-355.5 293.5,-336.5 192.5,-336.5"/>
<text text-anchor="middle" x="243" y="-343.5" font-family="Helvetica,sans-Serif" font-size="10.00">odp/api/abi/pool.h</text>
</g>
<!-- Node2&#45;&gt;Node15 -->
<g id="edge18" class="edge"><title>Node2&#45;&gt;Node15</title>
<path fill="none" stroke="midnightblue" d="M352.401,-392.444C331.007,-383.557 297.319,-369.563 272.976,-359.451"/>
<polygon fill="midnightblue" stroke="midnightblue" points="274.08,-356.12 263.503,-355.516 271.395,-362.585 274.08,-356.12"/>
</g>
<!-- Node16 -->
<g id="node17" class="node"><title>Node16</title>
<g id="a_node17"><a xlink:href="spec_2packet_8h.html" target="_top" xlink:title="ODP packet descriptor. ">
<polygon fill="white" stroke="black" points="312,-336.5 312,-355.5 434,-355.5 434,-336.5 312,-336.5"/>
<text text-anchor="middle" x="373" y="-343.5" font-family="Helvetica,sans-Serif" font-size="10.00">odp/api/spec/packet.h</text>
</a>
</g>
</g>
<!-- Node2&#45;&gt;Node16 -->
<g id="edge19" class="edge"><title>Node2&#45;&gt;Node16</title>
<path fill="none" stroke="midnightblue" d="M373,-392.083C373,-385.006 373,-374.861 373,-365.986"/>
<polygon fill="midnightblue" stroke="midnightblue" points="376.5,-365.751 373,-355.751 369.5,-365.751 376.5,-365.751"/>
</g>
<!-- Node4 -->
<g id="node5" class="node"><title>Node4</title>
<polygon fill="white" stroke="#bfbfbf" points="105,-168.5 105,-187.5 233,-187.5 233,-168.5 105,-168.5"/>
<text text-anchor="middle" x="169" y="-175.5" font-family="Helvetica,sans-Serif" font-size="10.00">odp/api/abi/std_types.h</text>
</g>
<!-- Node3&#45;&gt;Node4 -->
<g id="edge4" class="edge"><title>Node3&#45;&gt;Node4</title>
<path fill="none" stroke="midnightblue" d="M231.95,-224.324C220.537,-216.107 203.169,-203.602 189.565,-193.807"/>
<polygon fill="midnightblue" stroke="midnightblue" points="191.43,-190.837 181.269,-187.834 187.34,-196.517 191.43,-190.837"/>
</g>
<!-- Node5 -->
<g id="node6" class="node"><title>Node5</title>
<g id="a_node6"><a xlink:href="spec_2std__types_8h.html" target="_top" xlink:title="Standard C language types and definitions for ODP. ">
<polygon fill="white" stroke="black" points="251,-168.5 251,-187.5 387,-187.5 387,-168.5 251,-168.5"/>
<text text-anchor="middle" x="319" y="-175.5" font-family="Helvetica,sans-Serif" font-size="10.00">odp/api/spec/std_types.h</text>
</a>
</g>
</g>
<!-- Node3&#45;&gt;Node5 -->
<g id="edge5" class="edge"><title>Node3&#45;&gt;Node5</title>
<path fill="none" stroke="midnightblue" d="M256.05,-224.324C267.463,-216.107 284.831,-203.602 298.435,-193.807"/>
<polygon fill="midnightblue" stroke="midnightblue" points="300.66,-196.517 306.731,-187.834 296.57,-190.837 300.66,-196.517"/>
</g>
<!-- Node5&#45;&gt;Node1 -->
<g id="edge6" class="edge"><title>Node5&#45;&gt;Node1</title>
<path fill="none" stroke="midnightblue" d="M285.642,-168.496C260.003,-161.105 224.302,-148.914 196,-132 163.843,-112.781 153.035,-107.655 133,-76 124.06,-61.8746 119.189,-43.3883 116.626,-29.7429"/>
<polygon fill="midnightblue" stroke="midnightblue" points="120.039,-28.9282 114.976,-19.6214 113.131,-30.0542 120.039,-28.9282"/>
</g>
<!-- Node6 -->
<g id="node7" class="node"><title>Node6</title>
<polygon fill="white" stroke="#bfbfbf" points="205.5,-112.5 205.5,-131.5 258.5,-131.5 258.5,-112.5 205.5,-112.5"/>
<text text-anchor="middle" x="232" y="-119.5" font-family="Helvetica,sans-Serif" font-size="10.00">stdint.h</text>
</g>
<!-- Node5&#45;&gt;Node6 -->
<g id="edge7" class="edge"><title>Node5&#45;&gt;Node6</title>
<path fill="none" stroke="midnightblue" d="M305.022,-168.324C291.45,-159.9 270.62,-146.971 254.675,-137.074"/>
<polygon fill="midnightblue" stroke="midnightblue" points="256.286,-133.954 245.943,-131.655 252.594,-139.902 256.286,-133.954"/>
</g>
<!-- Node7 -->
<g id="node8" class="node"><title>Node7</title>
<g id="a_node8"><a xlink:href="align_8h.html" target="_top" xlink:title="ODP alignments. ">
<polygon fill="white" stroke="black" points="277,-112.5 277,-131.5 363,-131.5 363,-112.5 277,-112.5"/>
<text text-anchor="middle" x="320" y="-119.5" font-family="Helvetica,sans-Serif" font-size="10.00">odp/api/align.h</text>
</a>
</g>
</g>
<!-- Node5&#45;&gt;Node7 -->
<g id="edge8" class="edge"><title>Node5&#45;&gt;Node7</title>
<path fill="none" stroke="midnightblue" d="M319.165,-168.083C319.296,-161.006 319.484,-150.861 319.648,-141.986"/>
<polygon fill="midnightblue" stroke="midnightblue" points="323.152,-141.814 319.838,-131.751 316.153,-141.685 323.152,-141.814"/>
</g>
<!-- Node5&#45;&gt;Node10 -->
<g id="edge13" class="edge"><title>Node5&#45;&gt;Node10</title>
<path fill="none" stroke="midnightblue" d="M331.202,-168.194C342.52,-159.683 359.458,-146.045 372,-132 399.095,-101.659 394.446,-84.9718 423,-56 434.939,-43.8862 450.551,-32.9557 463.481,-24.9015"/>
<polygon fill="midnightblue" stroke="midnightblue" points="465.573,-27.7276 472.332,-19.5692 461.961,-21.7316 465.573,-27.7276"/>
</g>
<!-- Node8 -->
<g id="node9" class="node"><title>Node8</title>
<polygon fill="white" stroke="#bfbfbf" points="142,-56.5 142,-75.5 246,-75.5 246,-56.5 142,-56.5"/>
<text text-anchor="middle" x="194" y="-63.5" font-family="Helvetica,sans-Serif" font-size="10.00">odp/api/abi/align.h</text>
</g>
<!-- Node7&#45;&gt;Node8 -->
<g id="edge9" class="edge"><title>Node7&#45;&gt;Node8</title>
<path fill="none" stroke="midnightblue" d="M300.035,-112.444C279.391,-103.596 246.937,-89.6875 223.368,-79.5865"/>
<polygon fill="midnightblue" stroke="midnightblue" points="224.442,-76.2387 213.872,-75.5164 221.684,-82.6727 224.442,-76.2387"/>
</g>
<!-- Node9 -->
<g id="node10" class="node"><title>Node9</title>
<g id="a_node10"><a xlink:href="spec_2align_8h.html" target="_top" xlink:title="ODP alignments. ">
<polygon fill="white" stroke="black" points="264,-56.5 264,-75.5 376,-75.5 376,-56.5 264,-56.5"/>
<text text-anchor="middle" x="320" y="-63.5" font-family="Helvetica,sans-Serif" font-size="10.00">odp/api/spec/align.h</text>
</a>
</g>
</g>
<!-- Node7&#45;&gt;Node9 -->
<g id="edge10" class="edge"><title>Node7&#45;&gt;Node9</title>
<path fill="none" stroke="midnightblue" d="M320,-112.083C320,-105.006 320,-94.8611 320,-85.9865"/>
<polygon fill="midnightblue" stroke="midnightblue" points="323.5,-85.751 320,-75.7511 316.5,-85.7511 323.5,-85.751"/>
</g>
<!-- Node9&#45;&gt;Node1 -->
<g id="edge11" class="edge"><title>Node9&#45;&gt;Node1</title>
<path fill="none" stroke="midnightblue" d="M287.359,-56.4435C251.95,-47.1616 195.291,-32.3093 156.447,-22.127"/>
<polygon fill="midnightblue" stroke="midnightblue" points="157.049,-18.6666 146.489,-19.5164 155.274,-25.4378 157.049,-18.6666"/>
</g>
<!-- Node9&#45;&gt;Node10 -->
<g id="edge12" class="edge"><title>Node9&#45;&gt;Node10</title>
<path fill="none" stroke="midnightblue" d="M346.62,-56.4435C375.006,-47.3196 420.137,-32.8133 451.753,-22.6509"/>
<polygon fill="midnightblue" stroke="midnightblue" points="453.055,-25.9087 461.504,-19.5164 450.913,-19.2445 453.055,-25.9087"/>
</g>
<!-- Node16&#45;&gt;Node1 -->
<g id="edge20" class="edge"><title>Node16&#45;&gt;Node1</title>
<path fill="none" stroke="midnightblue" d="M319.559,-336.478C234.051,-321.315 76,-286.343 76,-235 76,-235 76,-235 76,-121 76,-86.8131 92.6005,-49.7639 103.857,-28.5707"/>
<polygon fill="midnightblue" stroke="midnightblue" points="106.947,-30.2151 108.716,-19.769 100.819,-26.832 106.947,-30.2151"/>
</g>
<!-- Node16&#45;&gt;Node10 -->
<g id="edge27" class="edge"><title>Node16&#45;&gt;Node10</title>
<path fill="none" stroke="midnightblue" d="M400.512,-336.48C456.196,-318.408 577,-274.634 577,-235 577,-235 577,-235 577,-121 577,-90.048 571.04,-80.4029 552,-56 541.982,-43.1603 527.309,-32.4767 514.539,-24.7459"/>
<polygon fill="midnightblue" stroke="midnightblue" points="516.085,-21.5976 505.671,-19.6501 512.598,-27.667 516.085,-21.5976"/>
</g>
<!-- Node17 -->
<g id="node18" class="node"><title>Node17</title>
<g id="a_node18"><a xlink:href="time_8h.html" target="_top" xlink:title="ODP time. ">
<polygon fill="white" stroke="black" points="352,-280.5 352,-299.5 438,-299.5 438,-280.5 352,-280.5"/>
<text text-anchor="middle" x="395" y="-287.5" font-family="Helvetica,sans-Serif" font-size="10.00">odp/api/time.h</text>
</a>
</g>
</g>
<!-- Node16&#45;&gt;Node17 -->
<g id="edge21" class="edge"><title>Node16&#45;&gt;Node17</title>
<path fill="none" stroke="midnightblue" d="M376.633,-336.083C379.612,-328.77 383.926,-318.181 387.625,-309.103"/>
<polygon fill="midnightblue" stroke="midnightblue" points="390.903,-310.333 391.435,-299.751 384.42,-307.691 390.903,-310.333"/>
</g>
<!-- Node17&#45;&gt;Node3 -->
<g id="edge22" class="edge"><title>Node17&#45;&gt;Node3</title>
<path fill="none" stroke="midnightblue" d="M371.074,-280.444C345.781,-271.399 305.698,-257.064 277.32,-246.916"/>
<polygon fill="midnightblue" stroke="midnightblue" points="278.409,-243.588 267.814,-243.516 276.052,-250.179 278.409,-243.588"/>
</g>
<!-- Node18 -->
<g id="node19" class="node"><title>Node18</title>
<polygon fill="white" stroke="#bfbfbf" points="445.5,-224.5 445.5,-243.5 548.5,-243.5 548.5,-224.5 445.5,-224.5"/>
<text text-anchor="middle" x="497" y="-231.5" font-family="Helvetica,sans-Serif" font-size="10.00">odp/api/abi/time.h</text>
</g>
<!-- Node17&#45;&gt;Node18 -->
<g id="edge23" class="edge"><title>Node17&#45;&gt;Node18</title>
<path fill="none" stroke="midnightblue" d="M411.388,-280.324C427.671,-271.703 452.867,-258.364 471.716,-248.386"/>
<polygon fill="midnightblue" stroke="midnightblue" points="473.452,-251.427 480.653,-243.655 470.177,-245.24 473.452,-251.427"/>
</g>
<!-- Node19 -->
<g id="node20" class="node"><title>Node19</title>
<g id="a_node20"><a xlink:href="spec_2time_8h.html" target="_top" xlink:title="ODP time. ">
<polygon fill="white" stroke="black" points="432.5,-56.5 432.5,-75.5 543.5,-75.5 543.5,-56.5 432.5,-56.5"/>
<text text-anchor="middle" x="488" y="-63.5" font-family="Helvetica,sans-Serif" font-size="10.00">odp/api/spec/time.h</text>
</a>
</g>
</g>
<!-- Node17&#45;&gt;Node19 -->
<g id="edge24" class="edge"><title>Node17&#45;&gt;Node19</title>
<path fill="none" stroke="midnightblue" d="M398.646,-280.297C412.388,-247.494 461.238,-130.884 480.301,-85.3774"/>
<polygon fill="midnightblue" stroke="midnightblue" points="483.643,-86.4595 484.278,-75.8837 477.186,-83.7548 483.643,-86.4595"/>
</g>
<!-- Node19&#45;&gt;Node1 -->
<g id="edge25" class="edge"><title>Node19&#45;&gt;Node1</title>
<path fill="none" stroke="midnightblue" d="M432.412,-56.974C365.694,-47.3409 253.849,-31.1921 182.034,-20.8231"/>
<polygon fill="midnightblue" stroke="midnightblue" points="182.137,-17.3017 171.739,-19.3367 181.136,-24.2299 182.137,-17.3017"/>
</g>
<!-- Node19&#45;&gt;Node10 -->
<g id="edge26" class="edge"><title>Node19&#45;&gt;Node10</title>
<path fill="none" stroke="midnightblue" d="M488,-56.083C488,-49.0059 488,-38.8611 488,-29.9865"/>
<polygon fill="midnightblue" stroke="midnightblue" points="491.5,-29.751 488,-19.7511 484.5,-29.7511 491.5,-29.751"/>
</g>
</g>
</svg>
