<?xml version="1.0" encoding="UTF-8" standalone="no"?>
<!DOCTYPE svg PUBLIC "-//W3C//DTD SVG 1.1//EN"
 "http://www.w3.org/Graphics/SVG/1.1/DTD/svg11.dtd">
<!-- Generated by graphviz version 2.38.0 (20140413.2041)
 -->
<!-- Title: classification.h Pages: 1 -->
<svg width="1538pt" height="845pt"
 viewBox="0.00 0.00 1538.00 845.00" xmlns="http://www.w3.org/2000/svg" xmlns:xlink="http://www.w3.org/1999/xlink">
<g id="graph0" class="graph" transform="scale(1 1) rotate(0) translate(4 841)">
<title>classification.h</title>
<polygon fill="white" stroke="none" points="-4,4 -4,-841 1534,-841 1534,4 -4,4"/>
<!-- Node0 -->
<g id="node1" class="node"><title>Node0</title>
<polygon fill="#bfbfbf" stroke="black" points="1084,-817.5 1084,-836.5 1170,-836.5 1170,-817.5 1084,-817.5"/>
<text text-anchor="middle" x="1127" y="-824.5" font-family="Helvetica,sans-Serif" font-size="10.00">classification.h</text>
</g>
<!-- Node1 -->
<g id="node2" class="node"><title>Node1</title>
<polygon fill="white" stroke="#bfbfbf" points="283.5,-0.5 283.5,-19.5 398.5,-19.5 398.5,-0.5 283.5,-0.5"/>
<text text-anchor="middle" x="341" y="-7.5" font-family="Helvetica,sans-Serif" font-size="10.00">odp/visibility_begin.h</text>
</g>
<!-- Node0&#45;&gt;Node1 -->
<g id="edge1" class="edge"><title>Node0&#45;&gt;Node1</title>
<path fill="none" stroke="midnightblue" d="M1083.96,-825.152C904.317,-821.466 219.341,-805.89 126,-781 65.1151,-764.764 0,-779.012 0,-716 0,-716 0,-716 0,-132 0,-92.7452 12.459,-77.9551 45,-56 81.2151,-31.566 197.49,-19.818 273.074,-14.6309"/>
<polygon fill="midnightblue" stroke="midnightblue" points="273.71,-18.0965 283.457,-13.9419 273.247,-11.1119 273.71,-18.0965"/>
</g>
<!-- Node2 -->
<g id="node3" class="node"><title>Node2</title>
<g id="a_node3"><a xlink:href="packet__io_8h.html" target="_top" xlink:title="ODP Packet IO. ">
<polygon fill="white" stroke="black" points="1072,-761.5 1072,-780.5 1182,-780.5 1182,-761.5 1072,-761.5"/>
<text text-anchor="middle" x="1127" y="-768.5" font-family="Helvetica,sans-Serif" font-size="10.00">odp/api/packet_io.h</text>
</a>
</g>
</g>
<!-- Node0&#45;&gt;Node2 -->
<g id="edge2" class="edge"><title>Node0&#45;&gt;Node2</title>
<path fill="none" stroke="midnightblue" d="M1127,-817.083C1127,-810.006 1127,-799.861 1127,-790.986"/>
<polygon fill="midnightblue" stroke="midnightblue" points="1130.5,-790.751 1127,-780.751 1123.5,-790.751 1130.5,-790.751"/>
</g>
<!-- Node10 -->
<g id="node11" class="node"><title>Node10</title>
<polygon fill="white" stroke="#bfbfbf" points="1043.5,-0.5 1043.5,-19.5 1150.5,-19.5 1150.5,-0.5 1043.5,-0.5"/>
<text text-anchor="middle" x="1097" y="-7.5" font-family="Helvetica,sans-Serif" font-size="10.00">odp/visibility_end.h</text>
</g>
<!-- Node0&#45;&gt;Node10 -->
<g id="edge81" class="edge"><title>Node0&#45;&gt;Node10</title>
<path fill="none" stroke="midnightblue" d="M1170.13,-823.385C1274.09,-815.904 1530,-789.975 1530,-716 1530,-716 1530,-716 1530,-132 1530,-78.9638 1486.62,-77.1809 1438,-56 1389.6,-34.9168 1245.39,-21.4905 1160.81,-15.2015"/>
<polygon fill="midnightblue" stroke="midnightblue" points="1161.02,-11.7083 1150.8,-14.4699 1160.51,-18.6897 1161.02,-11.7083"/>
</g>
<!-- Node36 -->
<g id="node37" class="node"><title>Node36</title>
<g id="a_node37"><a xlink:href="support_8h.html" target="_top" xlink:title="ODP support API &#45; platform specific header. ">
<polygon fill="white" stroke="black" points="438.5,-123.5 438.5,-142.5 539.5,-142.5 539.5,-123.5 438.5,-123.5"/>
<text text-anchor="middle" x="489" y="-130.5" font-family="Helvetica,sans-Serif" font-size="10.00">odp/api/support.h</text>
</a>
</g>
</g>
<!-- Node0&#45;&gt;Node36 -->
<g id="edge75" class="edge"><title>Node0&#45;&gt;Node36</title>
<path fill="none" stroke="midnightblue" d="M1083.69,-826.177C883.322,-826.436 56,-821.14 56,-716 56,-716 56,-716 56,-658 56,-401.232 179.816,-341.035 379,-179 398.016,-163.531 423.073,-152.728 444.468,-145.591"/>
<polygon fill="midnightblue" stroke="midnightblue" points="445.532,-148.926 454.006,-142.567 443.416,-142.254 445.532,-148.926"/>
</g>
<!-- Node38 -->
<g id="node39" class="node"><title>Node38</title>
<g id="a_node39"><a xlink:href="threshold_8h.html" target="_top" xlink:title="ODP threshold API &#45; platform specific header. ">
<polygon fill="white" stroke="black" points="1296.5,-761.5 1296.5,-780.5 1405.5,-780.5 1405.5,-761.5 1296.5,-761.5"/>
<text text-anchor="middle" x="1351" y="-768.5" font-family="Helvetica,sans-Serif" font-size="10.00">odp/api/threshold.h</text>
</a>
</g>
</g>
<!-- Node0&#45;&gt;Node38 -->
<g id="edge76" class="edge"><title>Node0&#45;&gt;Node38</title>
<path fill="none" stroke="midnightblue" d="M1162.49,-817.444C1201.32,-808.083 1263.66,-793.056 1305.92,-782.868"/>
<polygon fill="midnightblue" stroke="midnightblue" points="1306.77,-786.263 1315.67,-780.516 1305.13,-779.458 1306.77,-786.263"/>
</g>
<!-- Node3 -->
<g id="node4" class="node"><title>Node3</title>
<g id="a_node4"><a xlink:href="std__types_8h.html" target="_top" xlink:title="Standard C language types and definitions for ODP. ">
<polygon fill="white" stroke="black" points="1059,-246.5 1059,-265.5 1169,-265.5 1169,-246.5 1059,-246.5"/>
<text text-anchor="middle" x="1114" y="-253.5" font-family="Helvetica,sans-Serif" font-size="10.00">odp/api/std_types.h</text>
</a>
</g>
</g>
<!-- Node2&#45;&gt;Node3 -->
<g id="edge3" class="edge"><title>Node2&#45;&gt;Node3</title>
<path fill="none" stroke="midnightblue" d="M1182.41,-763.732C1223.68,-757.61 1280.66,-746.034 1327,-725 1371.6,-704.757 1416,-708.982 1416,-660 1416,-660 1416,-660 1416,-434 1416,-403.902 1417.28,-391.243 1397,-369 1388.08,-359.21 1219.43,-296.013 1146.81,-269.103"/>
<polygon fill="midnightblue" stroke="midnightblue" points="1147.82,-265.745 1137.22,-265.556 1145.39,-272.31 1147.82,-265.745"/>
</g>
<!-- Node11 -->
<g id="node12" class="node"><title>Node11</title>
<polygon fill="white" stroke="#bfbfbf" points="793.5,-369.5 793.5,-388.5 894.5,-388.5 894.5,-369.5 793.5,-369.5"/>
<text text-anchor="middle" x="844" y="-376.5" font-family="Helvetica,sans-Serif" font-size="10.00">odp/api/abi/pool.h</text>
</g>
<!-- Node2&#45;&gt;Node11 -->
<g id="edge14" class="edge"><title>Node2&#45;&gt;Node11</title>
<path fill="none" stroke="midnightblue" d="M1120.83,-761.492C1085.16,-712.34 905.366,-464.568 856.355,-397.026"/>
<polygon fill="midnightblue" stroke="midnightblue" points="859.042,-394.77 850.336,-388.732 853.376,-398.881 859.042,-394.77"/>
</g>
<!-- Node12 -->
<g id="node13" class="node"><title>Node12</title>
<polygon fill="white" stroke="#bfbfbf" points="1155,-705.5 1155,-724.5 1297,-724.5 1297,-705.5 1155,-705.5"/>
<text text-anchor="middle" x="1226" y="-712.5" font-family="Helvetica,sans-Serif" font-size="10.00">odp/api/abi/classification.h</text>
</g>
<!-- Node2&#45;&gt;Node12 -->
<g id="edge15" class="edge"><title>Node2&#45;&gt;Node12</title>
<path fill="none" stroke="midnightblue" d="M1142.91,-761.324C1158.64,-752.743 1182.94,-739.486 1201.21,-729.522"/>
<polygon fill="midnightblue" stroke="midnightblue" points="1203.03,-732.516 1210.13,-724.655 1199.68,-726.37 1203.03,-732.516"/>
</g>
<!-- Node13 -->
<g id="node14" class="node"><title>Node13</title>
<polygon fill="white" stroke="#bfbfbf" points="1274.5,-369.5 1274.5,-388.5 1387.5,-388.5 1387.5,-369.5 1274.5,-369.5"/>
<text text-anchor="middle" x="1331" y="-376.5" font-family="Helvetica,sans-Serif" font-size="10.00">odp/api/abi/packet.h</text>
</g>
<!-- Node2&#45;&gt;Node13 -->
<g id="edge16" class="edge"><title>Node2&#45;&gt;Node13</title>
<path fill="none" stroke="midnightblue" d="M1182.4,-769.502C1221.51,-766.257 1272.68,-755.752 1306,-725 1328.41,-704.315 1328,-690.499 1328,-660 1328,-660 1328,-660 1328,-490 1328,-457.936 1329.29,-420.634 1330.18,-398.745"/>
<polygon fill="midnightblue" stroke="midnightblue" points="1333.68,-398.694 1330.61,-388.556 1326.69,-398.399 1333.68,-398.694"/>
</g>
<!-- Node14 -->
<g id="node15" class="node"><title>Node14</title>
<polygon fill="white" stroke="#bfbfbf" points="1129.5,-369.5 1129.5,-388.5 1256.5,-388.5 1256.5,-369.5 1129.5,-369.5"/>
<text text-anchor="middle" x="1193" y="-376.5" font-family="Helvetica,sans-Serif" font-size="10.00">odp/api/abi/packet_io.h</text>
</g>
<!-- Node2&#45;&gt;Node14 -->
<g id="edge17" class="edge"><title>Node2&#45;&gt;Node14</title>
<path fill="none" stroke="midnightblue" d="M1127,-761.442C1127,-742.936 1127,-697.812 1127,-660 1127,-660 1127,-660 1127,-490 1127,-451.857 1156.54,-415.517 1176.09,-395.64"/>
<polygon fill="midnightblue" stroke="midnightblue" points="1178.56,-398.123 1183.26,-388.628 1173.67,-393.119 1178.56,-398.123"/>
</g>
<!-- Node15 -->
<g id="node16" class="node"><title>Node15</title>
<polygon fill="white" stroke="#bfbfbf" points="188.5,-593.5 188.5,-612.5 299.5,-612.5 299.5,-593.5 188.5,-593.5"/>
<text text-anchor="middle" x="244" y="-600.5" font-family="Helvetica,sans-Serif" font-size="10.00">odp/api/abi/queue.h</text>
</g>
<!-- Node2&#45;&gt;Node15 -->
<g id="edge18" class="edge"><title>Node2&#45;&gt;Node15</title>
<path fill="none" stroke="midnightblue" d="M1071.89,-767.662C911.73,-760.167 449.156,-733.362 314,-669 290.719,-657.914 269.896,-636.316 257.133,-621.066"/>
<polygon fill="midnightblue" stroke="midnightblue" points="259.592,-618.539 250.592,-612.947 254.141,-622.93 259.592,-618.539"/>
</g>
<!-- Node16 -->
<g id="node17" class="node"><title>Node16</title>
<g id="a_node17"><a xlink:href="spec_2packet__io_8h.html" target="_top" xlink:title="ODP Packet IO. ">
<polygon fill="white" stroke="black" points="719.5,-705.5 719.5,-724.5 854.5,-724.5 854.5,-705.5 719.5,-705.5"/>
<text text-anchor="middle" x="787" y="-712.5" font-family="Helvetica,sans-Serif" font-size="10.00">odp/api/spec/packet_io.h</text>
</a>
</g>
</g>
<!-- Node2&#45;&gt;Node16 -->
<g id="edge19" class="edge"><title>Node2&#45;&gt;Node16</title>
<path fill="none" stroke="midnightblue" d="M1073.13,-761.444C1012.69,-751.846 914.762,-736.292 850.616,-726.104"/>
<polygon fill="midnightblue" stroke="midnightblue" points="851.047,-722.628 840.622,-724.516 849.949,-729.542 851.047,-722.628"/>
</g>
<!-- Node4 -->
<g id="node5" class="node"><title>Node4</title>
<polygon fill="white" stroke="#bfbfbf" points="1050,-185 1050,-204 1178,-204 1178,-185 1050,-185"/>
<text text-anchor="middle" x="1114" y="-192" font-family="Helvetica,sans-Serif" font-size="10.00">odp/api/abi/std_types.h</text>
</g>
<!-- Node3&#45;&gt;Node4 -->
<g id="edge4" class="edge"><title>Node3&#45;&gt;Node4</title>
<path fill="none" stroke="midnightblue" d="M1114,-246.475C1114,-238.08 1114,-224.981 1114,-214.163"/>
<polygon fill="midnightblue" stroke="midnightblue" points="1117.5,-214.009 1114,-204.009 1110.5,-214.009 1117.5,-214.009"/>
</g>
<!-- Node5 -->
<g id="node6" class="node"><title>Node5</title>
<g id="a_node6"><a xlink:href="spec_2std__types_8h.html" target="_top" xlink:title="Standard C language types and definitions for ODP. ">
<polygon fill="white" stroke="black" points="1234,-185 1234,-204 1370,-204 1370,-185 1234,-185"/>
<text text-anchor="middle" x="1302" y="-192" font-family="Helvetica,sans-Serif" font-size="10.00">odp/api/spec/std_types.h</text>
</a>
</g>
</g>
<!-- Node3&#45;&gt;Node5 -->
<g id="edge5" class="edge"><title>Node3&#45;&gt;Node5</title>
<path fill="none" stroke="midnightblue" d="M1140.94,-246.475C1173.6,-236.136 1228.82,-218.661 1265.34,-207.102"/>
<polygon fill="midnightblue" stroke="midnightblue" points="1266.64,-210.363 1275.11,-204.009 1264.52,-203.69 1266.64,-210.363"/>
</g>
<!-- Node5&#45;&gt;Node1 -->
<g id="edge6" class="edge"><title>Node5&#45;&gt;Node1</title>
<path fill="none" stroke="midnightblue" d="M1271.08,-184.915C1235.2,-174.933 1174.28,-157.918 1122,-143 1036.11,-118.492 1013.42,-116.159 929,-87 894.13,-74.9558 887.875,-64.6003 852,-56 696.421,-18.703 507.562,-11.5917 408.741,-10.6677"/>
<polygon fill="midnightblue" stroke="midnightblue" points="408.619,-7.16677 398.593,-10.5918 408.567,-14.1666 408.619,-7.16677"/>
</g>
<!-- Node6 -->
<g id="node7" class="node"><title>Node6</title>
<polygon fill="white" stroke="#bfbfbf" points="1273.5,-123.5 1273.5,-142.5 1326.5,-142.5 1326.5,-123.5 1273.5,-123.5"/>
<text text-anchor="middle" x="1300" y="-130.5" font-family="Helvetica,sans-Serif" font-size="10.00">stdint.h</text>
</g>
<!-- Node5&#45;&gt;Node6 -->
<g id="edge7" class="edge"><title>Node5&#45;&gt;Node6</title>
<path fill="none" stroke="midnightblue" d="M1301.71,-184.975C1301.43,-176.58 1300.99,-163.481 1300.63,-152.663"/>
<polygon fill="midnightblue" stroke="midnightblue" points="1304.12,-152.386 1300.29,-142.509 1297.12,-152.621 1304.12,-152.386"/>
</g>
<!-- Node7 -->
<g id="node8" class="node"><title>Node7</title>
<g id="a_node8"><a xlink:href="align_8h.html" target="_top" xlink:title="ODP alignments. ">
<polygon fill="white" stroke="black" points="1131,-123.5 1131,-142.5 1217,-142.5 1217,-123.5 1131,-123.5"/>
<text text-anchor="middle" x="1174" y="-130.5" font-family="Helvetica,sans-Serif" font-size="10.00">odp/api/align.h</text>
</a>
</g>
</g>
<!-- Node5&#45;&gt;Node7 -->
<g id="edge8" class="edge"><title>Node5&#45;&gt;Node7</title>
<path fill="none" stroke="midnightblue" d="M1283.66,-184.975C1262.18,-174.99 1226.38,-158.348 1201.55,-146.807"/>
<polygon fill="midnightblue" stroke="midnightblue" points="1202.85,-143.551 1192.31,-142.509 1199.9,-149.898 1202.85,-143.551"/>
</g>
<!-- Node5&#45;&gt;Node10 -->
<g id="edge13" class="edge"><title>Node5&#45;&gt;Node10</title>
<path fill="none" stroke="midnightblue" d="M1310.36,-184.698C1318.71,-175.249 1331,-159.376 1336,-143 1343.19,-119.441 1340.54,-69.5015 1328,-56 1305.79,-32.0892 1221.34,-20.4967 1160.98,-15.1599"/>
<polygon fill="midnightblue" stroke="midnightblue" points="1161.02,-11.6511 1150.76,-14.2953 1160.43,-18.6261 1161.02,-11.6511"/>
</g>
<!-- Node8 -->
<g id="node9" class="node"><title>Node8</title>
<polygon fill="white" stroke="#bfbfbf" points="1182,-62 1182,-81 1286,-81 1286,-62 1182,-62"/>
<text text-anchor="middle" x="1234" y="-69" font-family="Helvetica,sans-Serif" font-size="10.00">odp/api/abi/align.h</text>
</g>
<!-- Node7&#45;&gt;Node8 -->
<g id="edge9" class="edge"><title>Node7&#45;&gt;Node8</title>
<path fill="none" stroke="midnightblue" d="M1182.6,-123.475C1191.86,-114.285 1206.82,-99.4563 1218.21,-88.156"/>
<polygon fill="midnightblue" stroke="midnightblue" points="1220.78,-90.5358 1225.42,-81.0091 1215.85,-85.5653 1220.78,-90.5358"/>
</g>
<!-- Node9 -->
<g id="node10" class="node"><title>Node9</title>
<g id="a_node10"><a xlink:href="spec_2align_8h.html" target="_top" xlink:title="ODP alignments. ">
<polygon fill="white" stroke="black" points="938,-62 938,-81 1050,-81 1050,-62 938,-62"/>
<text text-anchor="middle" x="994" y="-69" font-family="Helvetica,sans-Serif" font-size="10.00">odp/api/spec/align.h</text>
</a>
</g>
</g>
<!-- Node7&#45;&gt;Node9 -->
<g id="edge10" class="edge"><title>Node7&#45;&gt;Node9</title>
<path fill="none" stroke="midnightblue" d="M1148.21,-123.475C1117.07,-113.18 1064.52,-95.8103 1029.55,-84.2502"/>
<polygon fill="midnightblue" stroke="midnightblue" points="1030.34,-80.8245 1019.74,-81.0091 1028.14,-87.4708 1030.34,-80.8245"/>
</g>
<!-- Node9&#45;&gt;Node1 -->
<g id="edge11" class="edge"><title>Node9&#45;&gt;Node1</title>
<path fill="none" stroke="midnightblue" d="M957.099,-61.9402C946.464,-59.7228 934.814,-57.531 924,-56 738.748,-29.7722 518.06,-17.9852 408.978,-13.4402"/>
<polygon fill="midnightblue" stroke="midnightblue" points="408.91,-9.93454 398.775,-13.0227 408.623,-16.9287 408.91,-9.93454"/>
</g>
<!-- Node9&#45;&gt;Node10 -->
<g id="edge12" class="edge"><title>Node9&#45;&gt;Node10</title>
<path fill="none" stroke="midnightblue" d="M1008.76,-61.9751C1025.66,-52.2106 1053.58,-36.0807 1073.49,-24.5808"/>
<polygon fill="midnightblue" stroke="midnightblue" points="1075.36,-27.5419 1082.27,-19.5091 1071.86,-21.4805 1075.36,-27.5419"/>
</g>
<!-- Node16&#45;&gt;Node1 -->
<g id="edge20" class="edge"><title>Node16&#45;&gt;Node1</title>
<path fill="none" stroke="midnightblue" d="M719.28,-714.024C557.406,-713.448 158.117,-708.041 113,-669 -7.46367,-564.758 38,-477.804 38,-318.5 38,-318.5 38,-318.5 38,-132 38,-93.4075 48.5531,-78.3713 80,-56 110.292,-34.4501 206.447,-22.1702 273.177,-16.0474"/>
<polygon fill="midnightblue" stroke="midnightblue" points="273.558,-19.5274 283.208,-15.1527 272.936,-12.555 273.558,-19.5274"/>
</g>
<!-- Node16&#45;&gt;Node10 -->
<g id="edge74" class="edge"><title>Node16&#45;&gt;Node10</title>
<path fill="none" stroke="midnightblue" d="M837.137,-705.476C998.2,-676.69 1492,-576.942 1492,-436 1492,-436 1492,-436 1492,-132 1492,-71.4755 1435.31,-78.1774 1379,-56 1307.52,-27.852 1219.26,-17.2924 1160.72,-13.3419"/>
<polygon fill="midnightblue" stroke="midnightblue" points="1160.71,-9.83419 1150.51,-12.6994 1160.27,-16.8204 1160.71,-9.83419"/>
</g>
<!-- Node17 -->
<g id="node18" class="node"><title>Node17</title>
<g id="a_node18"><a xlink:href="deprecated_8h.html" target="_top" xlink:title="Control deprecated API definitions. ">
<polygon fill="white" stroke="black" points="519.5,-246.5 519.5,-265.5 638.5,-265.5 638.5,-246.5 519.5,-246.5"/>
<text text-anchor="middle" x="579" y="-253.5" font-family="Helvetica,sans-Serif" font-size="10.00">odp/api/deprecated.h</text>
</a>
</g>
</g>
<!-- Node16&#45;&gt;Node17 -->
<g id="edge21" class="edge"><title>Node16&#45;&gt;Node17</title>
<path fill="none" stroke="midnightblue" d="M719.267,-711.225C629.903,-704.782 470.563,-683.455 356,-613 328.322,-595.978 320.115,-587.533 309,-557 259.005,-419.663 469.714,-306.969 549.492,-269.931"/>
<polygon fill="midnightblue" stroke="midnightblue" points="551.337,-272.936 558.979,-265.598 548.429,-266.569 551.337,-272.936"/>
</g>
<!-- Node19 -->
<g id="node20" class="node"><title>Node19</title>
<g id="a_node20"><a xlink:href="packet__io__stats_8h.html" target="_top" xlink:title="ODP packet IO stats. ">
<polygon fill="white" stroke="black" points="122.5,-649.5 122.5,-668.5 261.5,-668.5 261.5,-649.5 122.5,-649.5"/>
<text text-anchor="middle" x="192" y="-656.5" font-family="Helvetica,sans-Serif" font-size="10.00">odp/api/packet_io_stats.h</text>
</a>
</g>
</g>
<!-- Node16&#45;&gt;Node19 -->
<g id="edge25" class="edge"><title>Node16&#45;&gt;Node19</title>
<path fill="none" stroke="midnightblue" d="M719.325,-707.858C608.783,-697.826 390.002,-677.97 271.969,-667.258"/>
<polygon fill="midnightblue" stroke="midnightblue" points="272.186,-663.763 261.91,-666.345 271.553,-670.734 272.186,-663.763"/>
</g>
<!-- Node21 -->
<g id="node22" class="node"><title>Node21</title>
<g id="a_node22"><a xlink:href="queue_8h.html" target="_top" xlink:title="ODP queue. ">
<polygon fill="white" stroke="black" points="664,-649.5 664,-668.5 758,-668.5 758,-649.5 664,-649.5"/>
<text text-anchor="middle" x="711" y="-656.5" font-family="Helvetica,sans-Serif" font-size="10.00">odp/api/queue.h</text>
</a>
</g>
</g>
<!-- Node16&#45;&gt;Node21 -->
<g id="edge29" class="edge"><title>Node16&#45;&gt;Node21</title>
<path fill="none" stroke="midnightblue" d="M774.789,-705.324C763.224,-697.107 745.625,-684.602 731.839,-674.807"/>
<polygon fill="midnightblue" stroke="midnightblue" points="733.612,-671.773 723.433,-668.834 729.557,-677.479 733.612,-671.773"/>
</g>
<!-- Node27 -->
<g id="node28" class="node"><title>Node27</title>
<g id="a_node28"><a xlink:href="packet_8h.html" target="_top" xlink:title="ODP packet descriptor. ">
<polygon fill="white" stroke="black" points="948,-425.5 948,-444.5 1044,-444.5 1044,-425.5 948,-425.5"/>
<text text-anchor="middle" x="996" y="-432.5" font-family="Helvetica,sans-Serif" font-size="10.00">odp/api/packet.h</text>
</a>
</g>
</g>
<!-- Node16&#45;&gt;Node27 -->
<g id="edge73" class="edge"><title>Node16&#45;&gt;Node27</title>
<path fill="none" stroke="midnightblue" d="M854.568,-706.619C915.63,-695.755 996,-669.093 996,-604 996,-604 996,-604 996,-546 996,-513.948 996,-476.643 996,-454.749"/>
<polygon fill="midnightblue" stroke="midnightblue" points="999.5,-454.558 996,-444.558 992.5,-454.558 999.5,-454.558"/>
</g>
<!-- Node29 -->
<g id="node30" class="node"><title>Node29</title>
<g id="a_node30"><a xlink:href="time_8h.html" target="_top" xlink:title="ODP time. ">
<polygon fill="white" stroke="black" points="901,-308 901,-327 987,-327 987,-308 901,-308"/>
<text text-anchor="middle" x="944" y="-315" font-family="Helvetica,sans-Serif" font-size="10.00">odp/api/time.h</text>
</a>
</g>
</g>
<!-- Node16&#45;&gt;Node29 -->
<g id="edge72" class="edge"><title>Node16&#45;&gt;Node29</title>
<path fill="none" stroke="midnightblue" d="M784.673,-705.498C781.188,-692.998 774.242,-668.98 767,-649 721.493,-523.452 572.174,-471.309 658,-369 672.789,-351.371 811.921,-333.204 890.537,-324.232"/>
<polygon fill="midnightblue" stroke="midnightblue" points="891.199,-327.679 900.743,-323.08 890.414,-320.723 891.199,-327.679"/>
</g>
<!-- Node18 -->
<g id="node19" class="node"><title>Node18</title>
<g id="a_node19"><a xlink:href="spec_2deprecated_8h.html" target="_top" xlink:title="Macro for deprecated API definitions. ">
<polygon fill="white" stroke="black" points="570,-62 570,-81 714,-81 714,-62 570,-62"/>
<text text-anchor="middle" x="642" y="-69" font-family="Helvetica,sans-Serif" font-size="10.00">odp/api/spec/deprecated.h</text>
</a>
</g>
</g>
<!-- Node17&#45;&gt;Node18 -->
<g id="edge22" class="edge"><title>Node17&#45;&gt;Node18</title>
<path fill="none" stroke="midnightblue" d="M605.929,-246.356C622.719,-239.411 642.978,-227.825 653,-210 674.345,-172.038 659.812,-118.622 649.604,-90.8662"/>
<polygon fill="midnightblue" stroke="midnightblue" points="652.755,-89.3115 645.862,-81.2656 646.233,-91.854 652.755,-89.3115"/>
</g>
<!-- Node18&#45;&gt;Node1 -->
<g id="edge23" class="edge"><title>Node18&#45;&gt;Node1</title>
<path fill="none" stroke="midnightblue" d="M598.874,-61.9751C544.895,-51.3048 452.464,-33.0335 394.163,-21.5089"/>
<polygon fill="midnightblue" stroke="midnightblue" points="394.535,-18.0148 384.046,-19.5091 393.177,-24.8819 394.535,-18.0148"/>
</g>
<!-- Node18&#45;&gt;Node10 -->
<g id="edge24" class="edge"><title>Node18&#45;&gt;Node10</title>
<path fill="none" stroke="midnightblue" d="M686.911,-61.9869C698.636,-59.8944 711.273,-57.7537 723,-56 831.568,-39.7647 958.554,-25.4734 1033.13,-17.5567"/>
<polygon fill="midnightblue" stroke="midnightblue" points="1033.72,-21.0138 1043.3,-16.4824 1032.98,-14.0526 1033.72,-21.0138"/>
</g>
<!-- Node20 -->
<g id="node21" class="node"><title>Node20</title>
<g id="a_node21"><a xlink:href="spec_2packet__io__stats_8h.html" target="_top" xlink:title="ODP Packet IO. ">
<polygon fill="white" stroke="black" points="142.5,-56.5 142.5,-86.5 255.5,-86.5 255.5,-56.5 142.5,-56.5"/>
<text text-anchor="start" x="150.5" y="-74.5" font-family="Helvetica,sans-Serif" font-size="10.00">odp/api/spec/packet</text>
<text text-anchor="middle" x="199" y="-63.5" font-family="Helvetica,sans-Serif" font-size="10.00">_io_stats.h</text>
</a>
</g>
</g>
<!-- Node19&#45;&gt;Node20 -->
<g id="edge26" class="edge"><title>Node19&#45;&gt;Node20</title>
<path fill="none" stroke="midnightblue" d="M183.403,-649.465C166.813,-632.039 132,-590.419 132,-548 132,-548 132,-548 132,-434 132,-304.808 173.882,-153.929 191.419,-96.4138"/>
<polygon fill="midnightblue" stroke="midnightblue" points="194.785,-97.3749 194.395,-86.7873 188.098,-95.3076 194.785,-97.3749"/>
</g>
<!-- Node20&#45;&gt;Node1 -->
<g id="edge27" class="edge"><title>Node20&#45;&gt;Node1</title>
<path fill="none" stroke="midnightblue" d="M232.652,-56.3993C256.477,-46.4163 288.146,-33.1465 311.088,-23.5335"/>
<polygon fill="midnightblue" stroke="midnightblue" points="312.467,-26.7505 320.338,-19.6578 309.762,-20.2944 312.467,-26.7505"/>
</g>
<!-- Node20&#45;&gt;Node10 -->
<g id="edge28" class="edge"><title>Node20&#45;&gt;Node10</title>
<path fill="none" stroke="midnightblue" d="M255.916,-66.709C299.904,-63.7805 362.31,-59.6284 417,-56 643.554,-40.9692 912.571,-23.1858 1033.07,-15.2232"/>
<polygon fill="midnightblue" stroke="midnightblue" points="1033.48,-18.7041 1043.23,-14.5523 1033.02,-11.7194 1033.48,-18.7041"/>
</g>
<!-- Node21&#45;&gt;Node3 -->
<g id="edge30" class="edge"><title>Node21&#45;&gt;Node3</title>
<path fill="none" stroke="midnightblue" d="M735.793,-649.456C798.493,-626.59 964.656,-557.949 1053,-445 1093.82,-392.808 1107.77,-312.386 1112.16,-276.018"/>
<polygon fill="midnightblue" stroke="midnightblue" points="1115.66,-276.171 1113.27,-265.85 1108.7,-275.411 1115.66,-276.171"/>
</g>
<!-- Node21&#45;&gt;Node11 -->
<g id="edge34" class="edge"><title>Node21&#45;&gt;Node11</title>
<path fill="none" stroke="midnightblue" d="M722.543,-649.433C743.804,-632.571 787,-592.799 787,-548 787,-548 787,-548 787,-490 787,-453.3 812.321,-416.657 829.21,-396.297"/>
<polygon fill="midnightblue" stroke="midnightblue" points="831.954,-398.475 835.833,-388.616 826.652,-393.904 831.954,-398.475"/>
</g>
<!-- Node21&#45;&gt;Node15 -->
<g id="edge32" class="edge"><title>Node21&#45;&gt;Node15</title>
<path fill="none" stroke="midnightblue" d="M663.652,-652.525C579.864,-642.836 405.329,-622.655 309.865,-611.616"/>
<polygon fill="midnightblue" stroke="midnightblue" points="310.088,-608.119 299.752,-610.447 309.284,-615.072 310.088,-608.119"/>
</g>
<!-- Node22 -->
<g id="node23" class="node"><title>Node22</title>
<polygon fill="white" stroke="#bfbfbf" points="503,-369.5 503,-388.5 611,-388.5 611,-369.5 503,-369.5"/>
<text text-anchor="middle" x="557" y="-376.5" font-family="Helvetica,sans-Serif" font-size="10.00">odp/api/abi/event.h</text>
</g>
<!-- Node21&#45;&gt;Node22 -->
<g id="edge31" class="edge"><title>Node21&#45;&gt;Node22</title>
<path fill="none" stroke="midnightblue" d="M699.457,-649.433C678.196,-632.571 635,-592.799 635,-548 635,-548 635,-548 635,-490 635,-449.967 600.198,-414.336 577.087,-395.087"/>
<polygon fill="midnightblue" stroke="midnightblue" points="579.18,-392.28 569.188,-388.759 574.804,-397.743 579.18,-392.28"/>
</g>
<!-- Node23 -->
<g id="node24" class="node"><title>Node23</title>
<polygon fill="white" stroke="#bfbfbf" points="667,-369.5 667,-388.5 775,-388.5 775,-369.5 667,-369.5"/>
<text text-anchor="middle" x="721" y="-376.5" font-family="Helvetica,sans-Serif" font-size="10.00">odp/api/abi/buffer.h</text>
</g>
<!-- Node21&#45;&gt;Node23 -->
<g id="edge33" class="edge"><title>Node21&#45;&gt;Node23</title>
<path fill="none" stroke="midnightblue" d="M711,-649.442C711,-630.936 711,-585.812 711,-548 711,-548 711,-548 711,-490 711,-457.816 715.298,-420.552 718.259,-398.702"/>
<polygon fill="midnightblue" stroke="midnightblue" points="721.762,-398.925 719.693,-388.534 714.831,-397.947 721.762,-398.925"/>
</g>
<!-- Node24 -->
<g id="node25" class="node"><title>Node24</title>
<g id="a_node25"><a xlink:href="spec_2queue_8h.html" target="_top" xlink:title="ODP queue. ">
<polygon fill="white" stroke="black" points="365.5,-593.5 365.5,-612.5 484.5,-612.5 484.5,-593.5 365.5,-593.5"/>
<text text-anchor="middle" x="425" y="-600.5" font-family="Helvetica,sans-Serif" font-size="10.00">odp/api/spec/queue.h</text>
</a>
</g>
</g>
<!-- Node21&#45;&gt;Node24 -->
<g id="edge35" class="edge"><title>Node21&#45;&gt;Node24</title>
<path fill="none" stroke="midnightblue" d="M665.682,-649.444C615.372,-639.944 534.162,-624.611 480.187,-614.42"/>
<polygon fill="midnightblue" stroke="midnightblue" points="480.581,-610.933 470.106,-612.516 479.283,-617.811 480.581,-610.933"/>
</g>
<!-- Node24&#45;&gt;Node1 -->
<g id="edge36" class="edge"><title>Node24&#45;&gt;Node1</title>
<path fill="none" stroke="midnightblue" d="M408.167,-593.321C338.453,-556.043 76,-401.992 76,-195.5 76,-195.5 76,-195.5 76,-132 76,-94.8125 81.7645,-78.9825 111,-56 135.795,-36.5082 214.909,-24.1212 273.459,-17.3822"/>
<polygon fill="midnightblue" stroke="midnightblue" points="273.851,-20.8603 283.399,-16.2691 273.072,-13.9038 273.851,-20.8603"/>
</g>
<!-- Node24&#45;&gt;Node10 -->
<g id="edge71" class="edge"><title>Node24&#45;&gt;Node10</title>
<path fill="none" stroke="midnightblue" d="M424.377,-593.072C422.518,-559.198 420.46,-437.089 481,-369 530.214,-313.65 1040.47,-146.187 1085,-87 1097.4,-70.5212 1099.21,-46.2799 1098.69,-29.6305"/>
<polygon fill="midnightblue" stroke="midnightblue" points="1102.17,-29.2697 1098.06,-19.5057 1095.19,-29.7032 1102.17,-29.2697"/>
</g>
<!-- Node25 -->
<g id="node26" class="node"><title>Node25</title>
<g id="a_node26"><a xlink:href="event_8h.html" target="_top" xlink:title="ODP event. ">
<polygon fill="white" stroke="black" points="465.5,-537.5 465.5,-556.5 556.5,-556.5 556.5,-537.5 465.5,-537.5"/>
<text text-anchor="middle" x="511" y="-544.5" font-family="Helvetica,sans-Serif" font-size="10.00">odp/api/event.h</text>
</a>
</g>
</g>
<!-- Node24&#45;&gt;Node25 -->
<g id="edge37" class="edge"><title>Node24&#45;&gt;Node25</title>
<path fill="none" stroke="midnightblue" d="M438.817,-593.324C452.233,-584.9 472.824,-571.971 488.586,-562.074"/>
<polygon fill="midnightblue" stroke="midnightblue" points="490.609,-564.936 497.217,-556.655 486.887,-559.008 490.609,-564.936"/>
</g>
<!-- Node32 -->
<g id="node33" class="node"><title>Node32</title>
<g id="a_node33"><a xlink:href="queue__types_8h.html" target="_top" xlink:title="ODP queue types. ">
<polygon fill="white" stroke="black" points="312,-302.5 312,-332.5 422,-332.5 422,-302.5 312,-302.5"/>
<text text-anchor="start" x="320" y="-320.5" font-family="Helvetica,sans-Serif" font-size="10.00">odp/api/spec/queue</text>
<text text-anchor="middle" x="367" y="-309.5" font-family="Helvetica,sans-Serif" font-size="10.00">_types.h</text>
</a>
</g>
</g>
<!-- Node24&#45;&gt;Node32 -->
<g id="edge58" class="edge"><title>Node24&#45;&gt;Node32</title>
<path fill="none" stroke="midnightblue" d="M415.557,-593.311C397.754,-575.933 361,-534.863 361,-492 361,-492 361,-492 361,-434 361,-402.452 363.26,-366.123 365.006,-342.764"/>
<polygon fill="midnightblue" stroke="midnightblue" points="368.502,-342.953 365.786,-332.713 361.523,-342.412 368.502,-342.953"/>
</g>
<!-- Node25&#45;&gt;Node22 -->
<g id="edge38" class="edge"><title>Node25&#45;&gt;Node22</title>
<path fill="none" stroke="midnightblue" d="M533.788,-537.471C549.326,-530.316 568.707,-518.435 578,-501 595.813,-467.579 578.797,-422.284 566.708,-397.682"/>
<polygon fill="midnightblue" stroke="midnightblue" points="569.657,-395.765 561.945,-388.5 563.443,-398.988 569.657,-395.765"/>
</g>
<!-- Node26 -->
<g id="node27" class="node"><title>Node26</title>
<g id="a_node27"><a xlink:href="spec_2event_8h.html" target="_top" xlink:title="ODP event. ">
<polygon fill="white" stroke="black" points="453,-481.5 453,-500.5 569,-500.5 569,-481.5 453,-481.5"/>
<text text-anchor="middle" x="511" y="-488.5" font-family="Helvetica,sans-Serif" font-size="10.00">odp/api/spec/event.h</text>
</a>
</g>
</g>
<!-- Node25&#45;&gt;Node26 -->
<g id="edge39" class="edge"><title>Node25&#45;&gt;Node26</title>
<path fill="none" stroke="midnightblue" d="M511,-537.083C511,-530.006 511,-519.861 511,-510.986"/>
<polygon fill="midnightblue" stroke="midnightblue" points="514.5,-510.751 511,-500.751 507.5,-510.751 514.5,-510.751"/>
</g>
<!-- Node26&#45;&gt;Node1 -->
<g id="edge40" class="edge"><title>Node26&#45;&gt;Node1</title>
<path fill="none" stroke="midnightblue" d="M493.17,-481.477C415.921,-443.979 114,-291.293 114,-195.5 114,-195.5 114,-195.5 114,-132 114,-97.1827 107.991,-80.2236 133,-56 152.852,-36.7717 220.539,-24.6488 273.371,-17.8935"/>
<polygon fill="midnightblue" stroke="midnightblue" points="273.89,-21.356 283.384,-16.6538 273.03,-14.4091 273.89,-21.356"/>
</g>
<!-- Node26&#45;&gt;Node10 -->
<g id="edge57" class="edge"><title>Node26&#45;&gt;Node10</title>
<path fill="none" stroke="midnightblue" d="M505.791,-481.199C493.671,-459.45 466.619,-402.511 494,-369 544.794,-306.835 594.053,-355.882 671,-333 748.447,-309.969 767.789,-302.248 840,-266 907.684,-232.025 1093.1,-153.136 1130,-87 1141,-67.2858 1126.11,-43.1808 1112.94,-27.4773"/>
<polygon fill="midnightblue" stroke="midnightblue" points="1115.25,-24.8144 1105.98,-19.6987 1110.04,-29.4836 1115.25,-24.8144"/>
</g>
<!-- Node26&#45;&gt;Node27 -->
<g id="edge41" class="edge"><title>Node26&#45;&gt;Node27</title>
<path fill="none" stroke="midnightblue" d="M569.021,-483.54C662.204,-473.165 844.202,-452.901 937.616,-442.501"/>
<polygon fill="midnightblue" stroke="midnightblue" points="938.187,-445.959 947.738,-441.373 937.413,-439.002 938.187,-445.959"/>
</g>
<!-- Node27&#45;&gt;Node3 -->
<g id="edge42" class="edge"><title>Node27&#45;&gt;Node3</title>
<path fill="none" stroke="midnightblue" d="M1007.39,-425.316C1017.88,-416.89 1033.38,-403.311 1044,-389 1069.7,-354.362 1066.33,-339.857 1087,-302 1092.08,-292.689 1098.13,-282.538 1103.21,-274.238"/>
<polygon fill="midnightblue" stroke="midnightblue" points="1106.33,-275.851 1108.61,-265.506 1100.37,-272.167 1106.33,-275.851"/>
</g>
<!-- Node27&#45;&gt;Node11 -->
<g id="edge47" class="edge"><title>Node27&#45;&gt;Node11</title>
<path fill="none" stroke="midnightblue" d="M971.915,-425.444C946.455,-416.399 906.106,-402.064 877.541,-391.916"/>
<polygon fill="midnightblue" stroke="midnightblue" points="878.567,-388.566 867.972,-388.516 876.223,-395.162 878.567,-388.566"/>
</g>
<!-- Node27&#45;&gt;Node13 -->
<g id="edge45" class="edge"><title>Node27&#45;&gt;Node13</title>
<path fill="none" stroke="midnightblue" d="M1044.35,-426.206C1103.35,-416.696 1203.22,-400.597 1268.13,-390.134"/>
<polygon fill="midnightblue" stroke="midnightblue" points="1268.92,-393.552 1278.24,-388.505 1267.81,-386.641 1268.92,-393.552"/>
</g>
<!-- Node27&#45;&gt;Node14 -->
<g id="edge44" class="edge"><title>Node27&#45;&gt;Node14</title>
<path fill="none" stroke="midnightblue" d="M1027.22,-425.444C1060.93,-416.201 1114.8,-401.436 1151.93,-391.257"/>
<polygon fill="midnightblue" stroke="midnightblue" points="1153.21,-394.536 1161.93,-388.516 1151.36,-387.785 1153.21,-394.536"/>
</g>
<!-- Node27&#45;&gt;Node22 -->
<g id="edge43" class="edge"><title>Node27&#45;&gt;Node22</title>
<path fill="none" stroke="midnightblue" d="M947.764,-428.067C868.303,-418.292 709.859,-398.803 621.078,-387.882"/>
<polygon fill="midnightblue" stroke="midnightblue" points="621.485,-384.406 611.132,-386.659 620.63,-391.353 621.485,-384.406"/>
</g>
<!-- Node27&#45;&gt;Node23 -->
<g id="edge46" class="edge"><title>Node27&#45;&gt;Node23</title>
<path fill="none" stroke="midnightblue" d="M952.425,-425.444C904.151,-415.964 826.288,-400.675 774.388,-390.483"/>
<polygon fill="midnightblue" stroke="midnightblue" points="774.858,-387.009 764.371,-388.516 773.509,-393.878 774.858,-387.009"/>
</g>
<!-- Node28 -->
<g id="node29" class="node"><title>Node28</title>
<g id="a_node29"><a xlink:href="spec_2packet_8h.html" target="_top" xlink:title="ODP packet descriptor. ">
<polygon fill="white" stroke="black" points="913,-369.5 913,-388.5 1035,-388.5 1035,-369.5 913,-369.5"/>
<text text-anchor="middle" x="974" y="-376.5" font-family="Helvetica,sans-Serif" font-size="10.00">odp/api/spec/packet.h</text>
</a>
</g>
</g>
<!-- Node27&#45;&gt;Node28 -->
<g id="edge48" class="edge"><title>Node27&#45;&gt;Node28</title>
<path fill="none" stroke="midnightblue" d="M992.367,-425.083C989.388,-417.77 985.074,-407.181 981.375,-398.103"/>
<polygon fill="midnightblue" stroke="midnightblue" points="984.58,-396.691 977.565,-388.751 978.097,-399.333 984.58,-396.691"/>
</g>
<!-- Node28&#45;&gt;Node1 -->
<g id="edge49" class="edge"><title>Node28&#45;&gt;Node1</title>
<path fill="none" stroke="midnightblue" d="M912.837,-369.986C909.512,-369.632 906.217,-369.3 903,-369 836.502,-362.797 354.387,-375.66 303,-333 276.211,-310.76 284,-291.817 284,-257 284,-257 284,-257 284,-132 284,-91.5899 310.34,-50.2056 327.209,-27.8451"/>
<polygon fill="midnightblue" stroke="midnightblue" points="330.145,-29.7719 333.548,-19.7384 324.631,-25.4597 330.145,-29.7719"/>
</g>
<!-- Node28&#45;&gt;Node10 -->
<g id="edge56" class="edge"><title>Node28&#45;&gt;Node10</title>
<path fill="none" stroke="midnightblue" d="M978.841,-369.235C983.637,-360.309 990.975,-345.975 996,-333 1021.75,-266.506 988.311,-227.047 1041,-179 1102.89,-122.559 1150.11,-178.45 1226,-143 1243.89,-134.643 1286.51,-104.829 1295,-87 1321.58,-31.1925 1228.15,-15.8964 1160.68,-11.9784"/>
<polygon fill="midnightblue" stroke="midnightblue" points="1160.68,-8.47388 1150.51,-11.461 1160.32,-15.4648 1160.68,-8.47388"/>
</g>
<!-- Node28&#45;&gt;Node29 -->
<g id="edge50" class="edge"><title>Node28&#45;&gt;Node29</title>
<path fill="none" stroke="midnightblue" d="M969.702,-369.475C965.335,-360.815 958.445,-347.149 952.897,-336.145"/>
<polygon fill="midnightblue" stroke="midnightblue" points="955.918,-334.363 948.29,-327.009 949.667,-337.514 955.918,-334.363"/>
</g>
<!-- Node29&#45;&gt;Node3 -->
<g id="edge51" class="edge"><title>Node29&#45;&gt;Node3</title>
<path fill="none" stroke="midnightblue" d="M968.357,-307.975C997.644,-297.725 1046.97,-280.459 1080,-268.899"/>
<polygon fill="midnightblue" stroke="midnightblue" points="1081.41,-272.116 1089.69,-265.509 1079.09,-265.509 1081.41,-272.116"/>
</g>
<!-- Node30 -->
<g id="node31" class="node"><title>Node30</title>
<polygon fill="white" stroke="#bfbfbf" points="892.5,-246.5 892.5,-265.5 995.5,-265.5 995.5,-246.5 892.5,-246.5"/>
<text text-anchor="middle" x="944" y="-253.5" font-family="Helvetica,sans-Serif" font-size="10.00">odp/api/abi/time.h</text>
</g>
<!-- Node29&#45;&gt;Node30 -->
<g id="edge52" class="edge"><title>Node29&#45;&gt;Node30</title>
<path fill="none" stroke="midnightblue" d="M944,-307.975C944,-299.58 944,-286.481 944,-275.663"/>
<polygon fill="midnightblue" stroke="midnightblue" points="947.5,-275.509 944,-265.509 940.5,-275.509 947.5,-275.509"/>
</g>
<!-- Node31 -->
<g id="node32" class="node"><title>Node31</title>
<g id="a_node32"><a xlink:href="spec_2time_8h.html" target="_top" xlink:title="ODP time. ">
<polygon fill="white" stroke="black" points="732.5,-62 732.5,-81 843.5,-81 843.5,-62 732.5,-62"/>
<text text-anchor="middle" x="788" y="-69" font-family="Helvetica,sans-Serif" font-size="10.00">odp/api/spec/time.h</text>
</a>
</g>
</g>
<!-- Node29&#45;&gt;Node31 -->
<g id="edge53" class="edge"><title>Node29&#45;&gt;Node31</title>
<path fill="none" stroke="midnightblue" d="M930.446,-307.808C917.045,-298.68 896.623,-283.272 883,-266 838.052,-209.014 806.685,-127.318 794.118,-91.0558"/>
<polygon fill="midnightblue" stroke="midnightblue" points="797.35,-89.6873 790.827,-81.3384 790.72,-91.9327 797.35,-89.6873"/>
</g>
<!-- Node31&#45;&gt;Node1 -->
<g id="edge54" class="edge"><title>Node31&#45;&gt;Node1</title>
<path fill="none" stroke="midnightblue" d="M752.708,-61.9386C743.11,-59.7987 732.689,-57.6469 723,-56 613.529,-37.392 485.101,-23.9715 408.53,-16.8504"/>
<polygon fill="midnightblue" stroke="midnightblue" points="408.815,-13.362 398.536,-15.9294 408.173,-20.3324 408.815,-13.362"/>
</g>
<!-- Node31&#45;&gt;Node10 -->
<g id="edge55" class="edge"><title>Node31&#45;&gt;Node10</title>
<path fill="none" stroke="midnightblue" d="M828.691,-61.941C838.295,-59.9569 848.503,-57.8774 858,-56 920.259,-43.6917 991.8,-30.3237 1040.26,-21.3835"/>
<polygon fill="midnightblue" stroke="midnightblue" points="1041.04,-24.799 1050.24,-19.545 1039.77,-17.9149 1041.04,-24.799"/>
</g>
<!-- Node32&#45;&gt;Node1 -->
<g id="edge59" class="edge"><title>Node32&#45;&gt;Node1</title>
<path fill="none" stroke="midnightblue" d="M357.894,-302.239C344.744,-280.24 322,-236.291 322,-195.5 322,-195.5 322,-195.5 322,-132 322,-95.2858 330.642,-53.0556 336.27,-29.4499"/>
<polygon fill="midnightblue" stroke="midnightblue" points="339.67,-30.2793 338.67,-19.7318 332.874,-28.6007 339.67,-30.2793"/>
</g>
<!-- Node32&#45;&gt;Node10 -->
<g id="edge70" class="edge"><title>Node32&#45;&gt;Node10</title>
<path fill="none" stroke="midnightblue" d="M422.156,-310.626C479.329,-303.598 570.83,-289.704 647,-266 683.798,-254.548 927.382,-137.718 963,-123 1005.11,-105.597 1025.13,-117.488 1059,-87 1076.18,-71.5356 1086.56,-46.5325 1092.04,-29.4592"/>
<polygon fill="midnightblue" stroke="midnightblue" points="1095.48,-30.1459 1094.94,-19.5647 1088.77,-28.1714 1095.48,-30.1459"/>
</g>
<!-- Node32&#45;&gt;Node17 -->
<g id="edge69" class="edge"><title>Node32&#45;&gt;Node17</title>
<path fill="none" stroke="midnightblue" d="M416.973,-302.475C454.186,-292.03 504.328,-277.958 538.927,-268.247"/>
<polygon fill="midnightblue" stroke="midnightblue" points="540.009,-271.578 548.692,-265.506 538.118,-264.839 540.009,-271.578"/>
</g>
<!-- Node33 -->
<g id="node34" class="node"><title>Node33</title>
<g id="a_node34"><a xlink:href="schedule__types_8h.html" target="_top" xlink:title="ODP schedule. ">
<polygon fill="white" stroke="black" points="363,-246.5 363,-265.5 501,-265.5 501,-246.5 363,-246.5"/>
<text text-anchor="middle" x="432" y="-253.5" font-family="Helvetica,sans-Serif" font-size="10.00">odp/api/schedule_types.h</text>
</a>
</g>
</g>
<!-- Node32&#45;&gt;Node33 -->
<g id="edge60" class="edge"><title>Node32&#45;&gt;Node33</title>
<path fill="none" stroke="midnightblue" d="M382.404,-302.399C392.239,-293.397 404.993,-281.721 415.105,-272.465"/>
<polygon fill="midnightblue" stroke="midnightblue" points="417.529,-274.992 422.542,-265.658 412.802,-269.828 417.529,-274.992"/>
</g>
<!-- Node34 -->
<g id="node35" class="node"><title>Node34</title>
<polygon fill="white" stroke="#bfbfbf" points="388.5,-179.5 388.5,-209.5 503.5,-209.5 503.5,-179.5 388.5,-179.5"/>
<text text-anchor="start" x="396.5" y="-197.5" font-family="Helvetica,sans-Serif" font-size="10.00">odp/api/abi/schedule</text>
<text text-anchor="middle" x="446" y="-186.5" font-family="Helvetica,sans-Serif" font-size="10.00">_types.h</text>
</g>
<!-- Node33&#45;&gt;Node34 -->
<g id="edge61" class="edge"><title>Node33&#45;&gt;Node34</title>
<path fill="none" stroke="midnightblue" d="M434.006,-246.475C435.672,-239.396 438.125,-228.97 440.379,-219.39"/>
<polygon fill="midnightblue" stroke="midnightblue" points="443.817,-220.059 442.7,-209.523 437.003,-218.455 443.817,-220.059"/>
</g>
<!-- Node35 -->
<g id="node36" class="node"><title>Node35</title>
<g id="a_node36"><a xlink:href="spec_2schedule__types_8h.html" target="_top" xlink:title="ODP schedule types. ">
<polygon fill="white" stroke="black" points="521.5,-179.5 521.5,-209.5 644.5,-209.5 644.5,-179.5 521.5,-179.5"/>
<text text-anchor="start" x="529.5" y="-197.5" font-family="Helvetica,sans-Serif" font-size="10.00">odp/api/spec/schedule</text>
<text text-anchor="middle" x="583" y="-186.5" font-family="Helvetica,sans-Serif" font-size="10.00">_types.h</text>
</a>
</g>
</g>
<!-- Node33&#45;&gt;Node35 -->
<g id="edge62" class="edge"><title>Node33&#45;&gt;Node35</title>
<path fill="none" stroke="midnightblue" d="M453.635,-246.475C475.519,-237.852 510.002,-224.264 537.865,-213.285"/>
<polygon fill="midnightblue" stroke="midnightblue" points="539.392,-216.445 547.412,-209.523 536.825,-209.933 539.392,-216.445"/>
</g>
<!-- Node35&#45;&gt;Node1 -->
<g id="edge63" class="edge"><title>Node35&#45;&gt;Node1</title>
<path fill="none" stroke="midnightblue" d="M529.536,-179.47C491.979,-168.965 445.601,-154.489 429,-143 387.229,-114.092 359.969,-58.322 347.993,-29.4009"/>
<polygon fill="midnightblue" stroke="midnightblue" points="351.1,-27.7424 344.153,-19.7432 344.595,-30.3288 351.1,-27.7424"/>
</g>
<!-- Node35&#45;&gt;Node10 -->
<g id="edge68" class="edge"><title>Node35&#45;&gt;Node10</title>
<path fill="none" stroke="midnightblue" d="M618.707,-179.439C670.254,-159.123 768.5,-120.337 852,-87 886.262,-73.321 894.007,-67.6829 929,-56 969.231,-42.5682 1015.89,-30.3281 1049.82,-22.0159"/>
<polygon fill="midnightblue" stroke="midnightblue" points="1051.02,-25.3251 1059.91,-19.5654 1049.37,-18.5226 1051.02,-25.3251"/>
</g>
<!-- Node35&#45;&gt;Node36 -->
<g id="edge64" class="edge"><title>Node35&#45;&gt;Node36</title>
<path fill="none" stroke="midnightblue" d="M560.723,-179.399C545.797,-169.951 526.219,-157.559 511.29,-148.109"/>
<polygon fill="midnightblue" stroke="midnightblue" points="512.999,-145.049 502.678,-142.658 509.255,-150.964 512.999,-145.049"/>
</g>
<!-- Node37 -->
<g id="node38" class="node"><title>Node37</title>
<g id="a_node38"><a xlink:href="spec_2support_8h.html" target="_top" xlink:title="ODP support API. ">
<polygon fill="white" stroke="black" points="426,-62 426,-81 552,-81 552,-62 426,-62"/>
<text text-anchor="middle" x="489" y="-69" font-family="Helvetica,sans-Serif" font-size="10.00">odp/api/spec/support.h</text>
</a>
</g>
</g>
<!-- Node36&#45;&gt;Node37 -->
<g id="edge65" class="edge"><title>Node36&#45;&gt;Node37</title>
<path fill="none" stroke="midnightblue" d="M489,-123.475C489,-115.08 489,-101.981 489,-91.1631"/>
<polygon fill="midnightblue" stroke="midnightblue" points="492.5,-91.0091 489,-81.0091 485.5,-91.0091 492.5,-91.0091"/>
</g>
<!-- Node37&#45;&gt;Node1 -->
<g id="edge66" class="edge"><title>Node37&#45;&gt;Node1</title>
<path fill="none" stroke="midnightblue" d="M467.795,-61.9751C442.628,-51.8571 400.46,-34.9046 371.721,-23.3507"/>
<polygon fill="midnightblue" stroke="midnightblue" points="372.749,-19.9919 362.165,-19.5091 370.138,-26.4867 372.749,-19.9919"/>
</g>
<!-- Node37&#45;&gt;Node10 -->
<g id="edge67" class="edge"><title>Node37&#45;&gt;Node10</title>
<path fill="none" stroke="midnightblue" d="M527.346,-61.9275C538.184,-59.7366 550.017,-57.5617 561,-56 730.605,-31.8836 932.376,-19.2226 1033.12,-13.9833"/>
<polygon fill="midnightblue" stroke="midnightblue" points="1033.33,-17.4773 1043.14,-13.4696 1032.97,-10.4865 1033.33,-17.4773"/>
</g>
<!-- Node39 -->
<g id="node40" class="node"><title>Node39</title>
<g id="a_node40"><a xlink:href="spec_2threshold_8h.html" target="_top" xlink:title="ODP threshold descriptor. ">
<polygon fill="white" stroke="black" points="1330,-308 1330,-327 1464,-327 1464,-308 1330,-308"/>
<text text-anchor="middle" x="1397" y="-315" font-family="Helvetica,sans-Serif" font-size="10.00">odp/api/spec/threshold.h</text>
</a>
</g>
</g>
<!-- Node38&#45;&gt;Node39 -->
<g id="edge77" class="edge"><title>Node38&#45;&gt;Node39</title>
<path fill="none" stroke="midnightblue" d="M1375.06,-761.499C1392.46,-754.239 1415.4,-742.215 1430,-725 1449.92,-701.513 1454,-690.795 1454,-660 1454,-660 1454,-660 1454,-434 1454,-395.283 1427.93,-356.104 1411.05,-334.798"/>
<polygon fill="midnightblue" stroke="midnightblue" points="1413.74,-332.562 1404.69,-327.057 1408.33,-337.006 1413.74,-332.562"/>
</g>
<!-- Node39&#45;&gt;Node1 -->
<g id="edge78" class="edge"><title>Node39&#45;&gt;Node1</title>
<path fill="none" stroke="midnightblue" d="M1381.38,-307.746C1350.65,-290.32 1280.48,-249.554 1225,-210 1207.25,-197.347 1207.06,-187.52 1187,-179 1028.38,-111.637 572.01,-162.291 417,-87 413.244,-85.1757 377.578,-48.7394 356.466,-26.9901"/>
<polygon fill="midnightblue" stroke="midnightblue" points="358.906,-24.4781 349.433,-19.733 353.879,-29.3498 358.906,-24.4781"/>
</g>
<!-- Node39&#45;&gt;Node3 -->
<g id="edge79" class="edge"><title>Node39&#45;&gt;Node3</title>
<path fill="none" stroke="midnightblue" d="M1356.45,-307.975C1305.81,-297.327 1219.16,-279.109 1164.32,-267.581"/>
<polygon fill="midnightblue" stroke="midnightblue" points="1164.98,-264.142 1154.47,-265.509 1163.54,-270.992 1164.98,-264.142"/>
</g>
<!-- Node39&#45;&gt;Node10 -->
<g id="edge80" class="edge"><title>Node39&#45;&gt;Node10</title>
<path fill="none" stroke="midnightblue" d="M1397.12,-307.992C1397.38,-288.237 1398,-237.725 1398,-195.5 1398,-195.5 1398,-195.5 1398,-132 1398,-91.3218 1381.05,-78.2561 1347,-56 1317,-36.3891 1224.3,-23.5394 1160.62,-16.7714"/>
<polygon fill="midnightblue" stroke="midnightblue" points="1160.97,-13.2892 1150.66,-15.7373 1160.25,-20.2518 1160.97,-13.2892"/>
</g>
</g>
</svg>
