<?xml version="1.0" encoding="UTF-8" standalone="no"?>
<!DOCTYPE svg PUBLIC "-//W3C//DTD SVG 1.1//EN"
 "http://www.w3.org/Graphics/SVG/1.1/DTD/svg11.dtd">
<!-- Generated by graphviz version 2.38.0 (20140413.2041)
 -->
<!-- Title: packet_io.h Pages: 1 -->
<svg width="1520pt" height="733pt"
 viewBox="0.00 0.00 1520.00 733.00" xmlns="http://www.w3.org/2000/svg" xmlns:xlink="http://www.w3.org/1999/xlink">
<g id="graph0" class="graph" transform="scale(1 1) rotate(0) translate(4 729)">
<title>packet_io.h</title>
<polygon fill="white" stroke="none" points="-4,4 -4,-729 1516,-729 1516,4 -4,4"/>
<!-- Node0 -->
<g id="node1" class="node"><title>Node0</title>
<polygon fill="#bfbfbf" stroke="black" points="747.5,-705.5 747.5,-724.5 818.5,-724.5 818.5,-705.5 747.5,-705.5"/>
<text text-anchor="middle" x="783" y="-712.5" font-family="Helvetica,sans-Serif" font-size="10.00">packet_io.h</text>
</g>
<!-- Node1 -->
<g id="node2" class="node"><title>Node1</title>
<polygon fill="white" stroke="#bfbfbf" points="245.5,-0.5 245.5,-19.5 360.5,-19.5 360.5,-0.5 245.5,-0.5"/>
<text text-anchor="middle" x="303" y="-7.5" font-family="Helvetica,sans-Serif" font-size="10.00">odp/visibility_begin.h</text>
</g>
<!-- Node0&#45;&gt;Node1 -->
<g id="edge1" class="edge"><title>Node0&#45;&gt;Node1</title>
<path fill="none" stroke="midnightblue" d="M747.302,-713.107C630.615,-709.932 261.362,-697.805 146,-669 77.0867,-651.793 0,-675.029 0,-604 0,-604 0,-604 0,-132 0,-91.8103 15.532,-78.2509 49,-56 78.8245,-36.1714 170.53,-23.5541 235.151,-16.8772"/>
<polygon fill="midnightblue" stroke="midnightblue" points="235.677,-20.342 245.276,-15.8564 234.975,-13.3773 235.677,-20.342"/>
</g>
<!-- Node2 -->
<g id="node3" class="node"><title>Node2</title>
<g id="a_node3"><a xlink:href="deprecated_8h.html" target="_top" xlink:title="Control deprecated API definitions. ">
<polygon fill="white" stroke="black" points="454.5,-246.5 454.5,-265.5 573.5,-265.5 573.5,-246.5 454.5,-246.5"/>
<text text-anchor="middle" x="514" y="-253.5" font-family="Helvetica,sans-Serif" font-size="10.00">odp/api/deprecated.h</text>
</a>
</g>
</g>
<!-- Node0&#45;&gt;Node2 -->
<g id="edge2" class="edge"><title>Node0&#45;&gt;Node2</title>
<path fill="none" stroke="midnightblue" d="M747.363,-709.915C661.458,-699.08 450,-666.103 450,-604 450,-604 450,-604 450,-378 450,-336.461 479.838,-295.235 498.767,-273.261"/>
<polygon fill="midnightblue" stroke="midnightblue" points="501.583,-275.363 505.633,-265.573 496.362,-270.7 501.583,-275.363"/>
</g>
<!-- Node4 -->
<g id="node5" class="node"><title>Node4</title>
<polygon fill="white" stroke="#bfbfbf" points="814.5,-0.5 814.5,-19.5 921.5,-19.5 921.5,-0.5 814.5,-0.5"/>
<text text-anchor="middle" x="868" y="-7.5" font-family="Helvetica,sans-Serif" font-size="10.00">odp/visibility_end.h</text>
</g>
<!-- Node0&#45;&gt;Node4 -->
<g id="edge65" class="edge"><title>Node0&#45;&gt;Node4</title>
<path fill="none" stroke="midnightblue" d="M818.776,-714.584C908.093,-715.299 1147.59,-712.627 1341,-669 1420.31,-651.109 1512,-685.305 1512,-604 1512,-604 1512,-604 1512,-132 1512,-33.5779 1399.91,-78.1102 1304,-56 1173.96,-26.0206 1017.48,-15.9978 931.808,-12.6582"/>
<polygon fill="midnightblue" stroke="midnightblue" points="931.841,-9.15706 921.718,-12.2831 931.581,-16.1522 931.841,-9.15706"/>
</g>
<!-- Node5 -->
<g id="node6" class="node"><title>Node5</title>
<g id="a_node6"><a xlink:href="packet__io__stats_8h.html" target="_top" xlink:title="ODP packet IO stats. ">
<polygon fill="white" stroke="black" points="155.5,-649.5 155.5,-668.5 294.5,-668.5 294.5,-649.5 155.5,-649.5"/>
<text text-anchor="middle" x="225" y="-656.5" font-family="Helvetica,sans-Serif" font-size="10.00">odp/api/packet_io_stats.h</text>
</a>
</g>
</g>
<!-- Node0&#45;&gt;Node5 -->
<g id="edge6" class="edge"><title>Node0&#45;&gt;Node5</title>
<path fill="none" stroke="midnightblue" d="M747.246,-710.54C658.808,-701.981 428.083,-679.653 305.025,-667.744"/>
<polygon fill="midnightblue" stroke="midnightblue" points="305.199,-664.245 294.908,-666.765 304.524,-671.212 305.199,-664.245"/>
</g>
<!-- Node7 -->
<g id="node8" class="node"><title>Node7</title>
<g id="a_node8"><a xlink:href="queue_8h.html" target="_top" xlink:title="ODP queue. ">
<polygon fill="white" stroke="black" points="736,-649.5 736,-668.5 830,-668.5 830,-649.5 736,-649.5"/>
<text text-anchor="middle" x="783" y="-656.5" font-family="Helvetica,sans-Serif" font-size="10.00">odp/api/queue.h</text>
</a>
</g>
</g>
<!-- Node0&#45;&gt;Node7 -->
<g id="edge10" class="edge"><title>Node0&#45;&gt;Node7</title>
<path fill="none" stroke="midnightblue" d="M783,-705.083C783,-698.006 783,-687.861 783,-678.986"/>
<polygon fill="midnightblue" stroke="midnightblue" points="786.5,-678.751 783,-668.751 779.5,-678.751 786.5,-678.751"/>
</g>
<!-- Node22 -->
<g id="node23" class="node"><title>Node22</title>
<g id="a_node23"><a xlink:href="packet_8h.html" target="_top" xlink:title="ODP packet descriptor. ">
<polygon fill="white" stroke="black" points="984,-425.5 984,-444.5 1080,-444.5 1080,-425.5 984,-425.5"/>
<text text-anchor="middle" x="1032" y="-432.5" font-family="Helvetica,sans-Serif" font-size="10.00">odp/api/packet.h</text>
</a>
</g>
</g>
<!-- Node0&#45;&gt;Node22 -->
<g id="edge64" class="edge"><title>Node0&#45;&gt;Node22</title>
<path fill="none" stroke="midnightblue" d="M818.783,-714.338C939.166,-714.526 1322,-707.026 1322,-604 1322,-604 1322,-604 1322,-546 1322,-496.908 1174.88,-461.944 1090.21,-445.887"/>
<polygon fill="midnightblue" stroke="midnightblue" points="1090.69,-442.415 1080.21,-444.023 1089.4,-449.297 1090.69,-442.415"/>
</g>
<!-- Node26 -->
<g id="node27" class="node"><title>Node26</title>
<g id="a_node27"><a xlink:href="time_8h.html" target="_top" xlink:title="ODP time. ">
<polygon fill="white" stroke="black" points="1172,-308 1172,-327 1258,-327 1258,-308 1172,-308"/>
<text text-anchor="middle" x="1215" y="-315" font-family="Helvetica,sans-Serif" font-size="10.00">odp/api/time.h</text>
</a>
</g>
</g>
<!-- Node0&#45;&gt;Node26 -->
<g id="edge63" class="edge"><title>Node0&#45;&gt;Node26</title>
<path fill="none" stroke="midnightblue" d="M818.731,-712.789C918.389,-709.098 1197.8,-696.52 1285,-669 1340.25,-651.563 1398,-661.938 1398,-604 1398,-604 1398,-604 1398,-434 1398,-403.775 1399.35,-390.393 1378,-369 1349.05,-339.991 1303.78,-327.587 1268.3,-322.313"/>
<polygon fill="midnightblue" stroke="midnightblue" points="1268.47,-318.806 1258.1,-320.951 1267.55,-325.744 1268.47,-318.806"/>
</g>
<!-- Node3 -->
<g id="node4" class="node"><title>Node3</title>
<g id="a_node4"><a xlink:href="spec_2deprecated_8h.html" target="_top" xlink:title="Macro for deprecated API definitions. ">
<polygon fill="white" stroke="black" points="350,-62 350,-81 494,-81 494,-62 350,-62"/>
<text text-anchor="middle" x="422" y="-69" font-family="Helvetica,sans-Serif" font-size="10.00">odp/api/spec/deprecated.h</text>
</a>
</g>
</g>
<!-- Node2&#45;&gt;Node3 -->
<g id="edge3" class="edge"><title>Node2&#45;&gt;Node3</title>
<path fill="none" stroke="midnightblue" d="M504.045,-246.211C494.925,-237.711 481.576,-224.081 473,-210 449.021,-170.63 433.45,-118.171 426.388,-90.8308"/>
<polygon fill="midnightblue" stroke="midnightblue" points="429.768,-89.9177 423.954,-81.0604 422.976,-91.6099 429.768,-89.9177"/>
</g>
<!-- Node3&#45;&gt;Node1 -->
<g id="edge4" class="edge"><title>Node3&#45;&gt;Node1</title>
<path fill="none" stroke="midnightblue" d="M404.95,-61.9751C385.156,-52.078 352.283,-35.6416 329.23,-24.1151"/>
<polygon fill="midnightblue" stroke="midnightblue" points="330.528,-20.8508 320.018,-19.5091 327.397,-27.1118 330.528,-20.8508"/>
</g>
<!-- Node3&#45;&gt;Node4 -->
<g id="edge5" class="edge"><title>Node3&#45;&gt;Node4</title>
<path fill="none" stroke="midnightblue" d="M485.901,-61.9751C570.73,-50.6583 719.648,-30.7914 804.35,-19.4914"/>
<polygon fill="midnightblue" stroke="midnightblue" points="804.903,-22.9487 814.353,-18.157 803.978,-16.0102 804.903,-22.9487"/>
</g>
<!-- Node6 -->
<g id="node7" class="node"><title>Node6</title>
<g id="a_node7"><a xlink:href="spec_2packet__io__stats_8h.html" target="_top" xlink:title="ODP Packet IO. ">
<polygon fill="white" stroke="black" points="142.5,-56.5 142.5,-86.5 255.5,-86.5 255.5,-56.5 142.5,-56.5"/>
<text text-anchor="start" x="150.5" y="-74.5" font-family="Helvetica,sans-Serif" font-size="10.00">odp/api/spec/packet</text>
<text text-anchor="middle" x="199" y="-63.5" font-family="Helvetica,sans-Serif" font-size="10.00">_io_stats.h</text>
</a>
</g>
</g>
<!-- Node5&#45;&gt;Node6 -->
<g id="edge7" class="edge"><title>Node5&#45;&gt;Node6</title>
<path fill="none" stroke="midnightblue" d="M191.561,-649.413C147.631,-635.884 76,-605.073 76,-548 76,-548 76,-548 76,-316.5 76,-225.962 144.362,-134.806 179.157,-94.2731"/>
<polygon fill="midnightblue" stroke="midnightblue" points="181.889,-96.4654 185.837,-86.6334 176.62,-91.8577 181.889,-96.4654"/>
</g>
<!-- Node6&#45;&gt;Node1 -->
<g id="edge8" class="edge"><title>Node6&#45;&gt;Node1</title>
<path fill="none" stroke="midnightblue" d="M223.647,-56.3993C240.317,-46.8619 262.231,-34.3248 278.805,-24.8422"/>
<polygon fill="midnightblue" stroke="midnightblue" points="280.925,-27.6617 287.867,-19.6578 277.449,-21.5858 280.925,-27.6617"/>
</g>
<!-- Node6&#45;&gt;Node4 -->
<g id="edge9" class="edge"><title>Node6&#45;&gt;Node4</title>
<path fill="none" stroke="midnightblue" d="M255.64,-64.4991C281.638,-61.8005 312.873,-58.6367 341,-56 508.108,-40.3345 705.244,-24.0989 804.34,-16.0932"/>
<polygon fill="midnightblue" stroke="midnightblue" points="804.801,-19.5675 814.487,-15.2746 804.238,-12.5902 804.801,-19.5675"/>
</g>
<!-- Node8 -->
<g id="node9" class="node"><title>Node8</title>
<g id="a_node9"><a xlink:href="std__types_8h.html" target="_top" xlink:title="Standard C language types and definitions for ODP. ">
<polygon fill="white" stroke="black" points="1303,-246.5 1303,-265.5 1413,-265.5 1413,-246.5 1303,-246.5"/>
<text text-anchor="middle" x="1358" y="-253.5" font-family="Helvetica,sans-Serif" font-size="10.00">odp/api/std_types.h</text>
</a>
</g>
</g>
<!-- Node7&#45;&gt;Node8 -->
<g id="edge11" class="edge"><title>Node7&#45;&gt;Node8</title>
<path fill="none" stroke="midnightblue" d="M830.281,-653.94C950.056,-640.822 1265.3,-588.01 1398,-389 1419.46,-356.821 1414.18,-337.983 1400,-302 1395.49,-290.548 1386.53,-280.291 1378.05,-272.472"/>
<polygon fill="midnightblue" stroke="midnightblue" points="1380.09,-269.611 1370.21,-265.764 1375.53,-274.927 1380.09,-269.611"/>
</g>
<!-- Node15 -->
<g id="node16" class="node"><title>Node15</title>
<polygon fill="white" stroke="#bfbfbf" points="599,-369.5 599,-388.5 707,-388.5 707,-369.5 599,-369.5"/>
<text text-anchor="middle" x="653" y="-376.5" font-family="Helvetica,sans-Serif" font-size="10.00">odp/api/abi/event.h</text>
</g>
<!-- Node7&#45;&gt;Node15 -->
<g id="edge22" class="edge"><title>Node7&#45;&gt;Node15</title>
<path fill="none" stroke="midnightblue" d="M777.16,-649.308C765.62,-631.261 741,-588.066 741,-548 741,-548 741,-548 741,-490 741,-448.032 701.459,-412.902 675.388,-394.3"/>
<polygon fill="midnightblue" stroke="midnightblue" points="677.364,-391.412 667.139,-388.639 673.403,-397.183 677.364,-391.412"/>
</g>
<!-- Node16 -->
<g id="node17" class="node"><title>Node16</title>
<polygon fill="white" stroke="#bfbfbf" points="769.5,-593.5 769.5,-612.5 880.5,-612.5 880.5,-593.5 769.5,-593.5"/>
<text text-anchor="middle" x="825" y="-600.5" font-family="Helvetica,sans-Serif" font-size="10.00">odp/api/abi/queue.h</text>
</g>
<!-- Node7&#45;&gt;Node16 -->
<g id="edge23" class="edge"><title>Node7&#45;&gt;Node16</title>
<path fill="none" stroke="midnightblue" d="M789.935,-649.083C795.929,-641.377 804.752,-630.033 812.048,-620.653"/>
<polygon fill="midnightblue" stroke="midnightblue" points="814.817,-622.793 818.194,-612.751 809.291,-618.496 814.817,-622.793"/>
</g>
<!-- Node17 -->
<g id="node18" class="node"><title>Node17</title>
<polygon fill="white" stroke="#bfbfbf" points="725,-369.5 725,-388.5 833,-388.5 833,-369.5 725,-369.5"/>
<text text-anchor="middle" x="779" y="-376.5" font-family="Helvetica,sans-Serif" font-size="10.00">odp/api/abi/buffer.h</text>
</g>
<!-- Node7&#45;&gt;Node17 -->
<g id="edge24" class="edge"><title>Node7&#45;&gt;Node17</title>
<path fill="none" stroke="midnightblue" d="M776.895,-649.191C771.245,-640.46 763.245,-626.478 760,-613 757.919,-604.358 759.605,-601.88 760,-593 763.203,-521.045 772.463,-435.823 776.76,-398.765"/>
<polygon fill="midnightblue" stroke="midnightblue" points="780.275,-398.845 777.967,-388.504 773.323,-398.027 780.275,-398.845"/>
</g>
<!-- Node18 -->
<g id="node19" class="node"><title>Node18</title>
<polygon fill="white" stroke="#bfbfbf" points="851.5,-369.5 851.5,-388.5 952.5,-388.5 952.5,-369.5 851.5,-369.5"/>
<text text-anchor="middle" x="902" y="-376.5" font-family="Helvetica,sans-Serif" font-size="10.00">odp/api/abi/pool.h</text>
</g>
<!-- Node7&#45;&gt;Node18 -->
<g id="edge25" class="edge"><title>Node7&#45;&gt;Node18</title>
<path fill="none" stroke="midnightblue" d="M824.19,-649.444C846.186,-642.899 872.128,-631.705 889,-613 909.244,-590.556 909,-578.225 909,-548 909,-548 909,-548 909,-490 909,-457.883 905.991,-420.598 903.919,-398.726"/>
<polygon fill="midnightblue" stroke="midnightblue" points="907.38,-398.154 902.915,-388.546 900.413,-398.841 907.38,-398.154"/>
</g>
<!-- Node19 -->
<g id="node20" class="node"><title>Node19</title>
<g id="a_node20"><a xlink:href="spec_2queue_8h.html" target="_top" xlink:title="ODP queue. ">
<polygon fill="white" stroke="black" points="478.5,-593.5 478.5,-612.5 597.5,-612.5 597.5,-593.5 478.5,-593.5"/>
<text text-anchor="middle" x="538" y="-600.5" font-family="Helvetica,sans-Serif" font-size="10.00">odp/api/spec/queue.h</text>
</a>
</g>
</g>
<!-- Node7&#45;&gt;Node19 -->
<g id="edge26" class="edge"><title>Node7&#45;&gt;Node19</title>
<path fill="none" stroke="midnightblue" d="M744.179,-649.444C701.439,-640.023 632.668,-624.866 586.434,-614.675"/>
<polygon fill="midnightblue" stroke="midnightblue" points="587.158,-611.251 576.639,-612.516 585.652,-618.087 587.158,-611.251"/>
</g>
<!-- Node9 -->
<g id="node10" class="node"><title>Node9</title>
<polygon fill="white" stroke="#bfbfbf" points="1144,-185 1144,-204 1272,-204 1272,-185 1144,-185"/>
<text text-anchor="middle" x="1208" y="-192" font-family="Helvetica,sans-Serif" font-size="10.00">odp/api/abi/std_types.h</text>
</g>
<!-- Node8&#45;&gt;Node9 -->
<g id="edge12" class="edge"><title>Node8&#45;&gt;Node9</title>
<path fill="none" stroke="midnightblue" d="M1336.51,-246.475C1310.89,-236.313 1267.89,-219.256 1238.76,-207.7"/>
<polygon fill="midnightblue" stroke="midnightblue" points="1240.04,-204.443 1229.45,-204.009 1237.46,-210.95 1240.04,-204.443"/>
</g>
<!-- Node10 -->
<g id="node11" class="node"><title>Node10</title>
<g id="a_node11"><a xlink:href="spec_2std__types_8h.html" target="_top" xlink:title="Standard C language types and definitions for ODP. ">
<polygon fill="white" stroke="black" points="1290,-185 1290,-204 1426,-204 1426,-185 1290,-185"/>
<text text-anchor="middle" x="1358" y="-192" font-family="Helvetica,sans-Serif" font-size="10.00">odp/api/spec/std_types.h</text>
</a>
</g>
</g>
<!-- Node8&#45;&gt;Node10 -->
<g id="edge13" class="edge"><title>Node8&#45;&gt;Node10</title>
<path fill="none" stroke="midnightblue" d="M1358,-246.475C1358,-238.08 1358,-224.981 1358,-214.163"/>
<polygon fill="midnightblue" stroke="midnightblue" points="1361.5,-214.009 1358,-204.009 1354.5,-214.009 1361.5,-214.009"/>
</g>
<!-- Node10&#45;&gt;Node1 -->
<g id="edge14" class="edge"><title>Node10&#45;&gt;Node1</title>
<path fill="none" stroke="midnightblue" d="M1315.32,-184.971C1304.17,-182.879 1292.16,-180.742 1281,-179 953.548,-127.864 845.741,-217.279 541,-87 520.959,-78.4322 522.599,-65.5355 503,-56 461.548,-35.8327 410.844,-24.5534 370.861,-18.3308"/>
<polygon fill="midnightblue" stroke="midnightblue" points="371.345,-14.8644 360.939,-16.8554 370.316,-21.7882 371.345,-14.8644"/>
</g>
<!-- Node10&#45;&gt;Node4 -->
<g id="edge21" class="edge"><title>Node10&#45;&gt;Node4</title>
<path fill="none" stroke="midnightblue" d="M1357.04,-184.646C1355.2,-170.654 1350.21,-142.971 1338,-123 1315.19,-85.7093 1305.71,-74.2625 1266,-56 1208.09,-29.3706 1029.03,-17.8039 932.021,-13.3826"/>
<polygon fill="midnightblue" stroke="midnightblue" points="931.899,-9.87388 921.754,-12.9274 931.589,-16.867 931.899,-9.87388"/>
</g>
<!-- Node11 -->
<g id="node12" class="node"><title>Node11</title>
<polygon fill="white" stroke="#bfbfbf" points="1276.5,-123.5 1276.5,-142.5 1329.5,-142.5 1329.5,-123.5 1276.5,-123.5"/>
<text text-anchor="middle" x="1303" y="-130.5" font-family="Helvetica,sans-Serif" font-size="10.00">stdint.h</text>
</g>
<!-- Node10&#45;&gt;Node11 -->
<g id="edge15" class="edge"><title>Node10&#45;&gt;Node11</title>
<path fill="none" stroke="midnightblue" d="M1350.12,-184.975C1341.71,-175.873 1328.18,-161.241 1317.77,-149.983"/>
<polygon fill="midnightblue" stroke="midnightblue" points="1320.22,-147.477 1310.87,-142.509 1315.08,-152.228 1320.22,-147.477"/>
</g>
<!-- Node12 -->
<g id="node13" class="node"><title>Node12</title>
<g id="a_node13"><a xlink:href="align_8h.html" target="_top" xlink:title="ODP alignments. ">
<polygon fill="white" stroke="black" points="1162,-123.5 1162,-142.5 1248,-142.5 1248,-123.5 1162,-123.5"/>
<text text-anchor="middle" x="1205" y="-130.5" font-family="Helvetica,sans-Serif" font-size="10.00">odp/api/align.h</text>
</a>
</g>
</g>
<!-- Node10&#45;&gt;Node12 -->
<g id="edge16" class="edge"><title>Node10&#45;&gt;Node12</title>
<path fill="none" stroke="midnightblue" d="M1336.08,-184.975C1309.95,-174.813 1266.09,-157.756 1236.37,-146.2"/>
<polygon fill="midnightblue" stroke="midnightblue" points="1237.47,-142.872 1226.88,-142.509 1234.93,-149.396 1237.47,-142.872"/>
</g>
<!-- Node13 -->
<g id="node14" class="node"><title>Node13</title>
<polygon fill="white" stroke="#bfbfbf" points="1153,-62 1153,-81 1257,-81 1257,-62 1153,-62"/>
<text text-anchor="middle" x="1205" y="-69" font-family="Helvetica,sans-Serif" font-size="10.00">odp/api/abi/align.h</text>
</g>
<!-- Node12&#45;&gt;Node13 -->
<g id="edge17" class="edge"><title>Node12&#45;&gt;Node13</title>
<path fill="none" stroke="midnightblue" d="M1205,-123.475C1205,-115.08 1205,-101.981 1205,-91.1631"/>
<polygon fill="midnightblue" stroke="midnightblue" points="1208.5,-91.0091 1205,-81.0091 1201.5,-91.0091 1208.5,-91.0091"/>
</g>
<!-- Node14 -->
<g id="node15" class="node"><title>Node14</title>
<g id="a_node15"><a xlink:href="spec_2align_8h.html" target="_top" xlink:title="ODP alignments. ">
<polygon fill="white" stroke="black" points="938,-62 938,-81 1050,-81 1050,-62 938,-62"/>
<text text-anchor="middle" x="994" y="-69" font-family="Helvetica,sans-Serif" font-size="10.00">odp/api/spec/align.h</text>
</a>
</g>
</g>
<!-- Node12&#45;&gt;Node14 -->
<g id="edge18" class="edge"><title>Node12&#45;&gt;Node14</title>
<path fill="none" stroke="midnightblue" d="M1174.77,-123.475C1137.71,-113.026 1074.81,-95.2868 1033.84,-83.7332"/>
<polygon fill="midnightblue" stroke="midnightblue" points="1034.75,-80.3546 1024.18,-81.0091 1032.85,-87.0918 1034.75,-80.3546"/>
</g>
<!-- Node14&#45;&gt;Node1 -->
<g id="edge19" class="edge"><title>Node14&#45;&gt;Node1</title>
<path fill="none" stroke="midnightblue" d="M937.946,-62.0355C922.439,-59.8709 905.587,-57.6825 890,-56 702.466,-35.7582 480.263,-21.315 370.833,-14.8293"/>
<polygon fill="midnightblue" stroke="midnightblue" points="370.788,-11.3207 360.6,-14.2266 370.377,-18.3086 370.788,-11.3207"/>
</g>
<!-- Node14&#45;&gt;Node4 -->
<g id="edge20" class="edge"><title>Node14&#45;&gt;Node4</title>
<path fill="none" stroke="midnightblue" d="M975.947,-61.9751C954.802,-51.9897 919.56,-35.3476 895.122,-23.8075"/>
<polygon fill="midnightblue" stroke="midnightblue" points="896.556,-20.6143 886.019,-19.5091 893.567,-26.9441 896.556,-20.6143"/>
</g>
<!-- Node19&#45;&gt;Node1 -->
<g id="edge27" class="edge"><title>Node19&#45;&gt;Node1</title>
<path fill="none" stroke="midnightblue" d="M478.15,-598.928C361.275,-591.287 114,-566.337 114,-492 114,-492 114,-492 114,-378 114,-290.137 38,-283.363 38,-195.5 38,-195.5 38,-195.5 38,-132 38,-45.359 156.665,-20.4907 235.181,-13.5191"/>
<polygon fill="midnightblue" stroke="midnightblue" points="235.814,-16.9794 245.499,-12.6843 235.249,-10.0022 235.814,-16.9794"/>
</g>
<!-- Node19&#45;&gt;Node4 -->
<g id="edge62" class="edge"><title>Node19&#45;&gt;Node4</title>
<path fill="none" stroke="midnightblue" d="M537.38,-593.187C535.515,-560.709 532.672,-445.622 579,-369 675.539,-209.332 814.407,-257.586 890,-87 898.572,-67.6562 888.864,-44.0763 879.771,-28.3608"/>
<polygon fill="midnightblue" stroke="midnightblue" points="882.625,-26.3246 874.357,-19.7002 876.69,-30.035 882.625,-26.3246"/>
</g>
<!-- Node20 -->
<g id="node21" class="node"><title>Node20</title>
<g id="a_node21"><a xlink:href="event_8h.html" target="_top" xlink:title="ODP event. ">
<polygon fill="white" stroke="black" points="571.5,-537.5 571.5,-556.5 662.5,-556.5 662.5,-537.5 571.5,-537.5"/>
<text text-anchor="middle" x="617" y="-544.5" font-family="Helvetica,sans-Serif" font-size="10.00">odp/api/event.h</text>
</a>
</g>
</g>
<!-- Node19&#45;&gt;Node20 -->
<g id="edge28" class="edge"><title>Node19&#45;&gt;Node20</title>
<path fill="none" stroke="midnightblue" d="M550.693,-593.324C562.901,-584.979 581.578,-572.212 596.003,-562.352"/>
<polygon fill="midnightblue" stroke="midnightblue" points="598.058,-565.187 604.339,-556.655 594.108,-559.408 598.058,-565.187"/>
</g>
<!-- Node29 -->
<g id="node30" class="node"><title>Node29</title>
<g id="a_node30"><a xlink:href="queue__types_8h.html" target="_top" xlink:title="ODP queue types. ">
<polygon fill="white" stroke="black" points="312,-302.5 312,-332.5 422,-332.5 422,-302.5 312,-302.5"/>
<text text-anchor="start" x="320" y="-320.5" font-family="Helvetica,sans-Serif" font-size="10.00">odp/api/spec/queue</text>
<text text-anchor="middle" x="367" y="-309.5" font-family="Helvetica,sans-Serif" font-size="10.00">_types.h</text>
</a>
</g>
</g>
<!-- Node19&#45;&gt;Node29 -->
<g id="edge49" class="edge"><title>Node19&#45;&gt;Node29</title>
<path fill="none" stroke="midnightblue" d="M494.478,-593.471C444.405,-580.833 369,-551.864 369,-492 369,-492 369,-492 369,-434 369,-402.49 368.247,-366.152 367.665,-342.781"/>
<polygon fill="midnightblue" stroke="midnightblue" points="371.162,-342.63 367.405,-332.724 364.164,-342.811 371.162,-342.63"/>
</g>
<!-- Node20&#45;&gt;Node15 -->
<g id="edge29" class="edge"><title>Node20&#45;&gt;Node15</title>
<path fill="none" stroke="midnightblue" d="M639.788,-537.471C655.326,-530.316 674.707,-518.435 684,-501 702.189,-466.873 679.995,-421.577 664.853,-397.232"/>
<polygon fill="midnightblue" stroke="midnightblue" points="667.698,-395.188 659.306,-388.72 661.833,-399.009 667.698,-395.188"/>
</g>
<!-- Node21 -->
<g id="node22" class="node"><title>Node21</title>
<g id="a_node22"><a xlink:href="spec_2event_8h.html" target="_top" xlink:title="ODP event. ">
<polygon fill="white" stroke="black" points="559,-481.5 559,-500.5 675,-500.5 675,-481.5 559,-481.5"/>
<text text-anchor="middle" x="617" y="-488.5" font-family="Helvetica,sans-Serif" font-size="10.00">odp/api/spec/event.h</text>
</a>
</g>
</g>
<!-- Node20&#45;&gt;Node21 -->
<g id="edge30" class="edge"><title>Node20&#45;&gt;Node21</title>
<path fill="none" stroke="midnightblue" d="M617,-537.083C617,-530.006 617,-519.861 617,-510.986"/>
<polygon fill="midnightblue" stroke="midnightblue" points="620.5,-510.751 617,-500.751 613.5,-510.751 620.5,-510.751"/>
</g>
<!-- Node21&#45;&gt;Node1 -->
<g id="edge31" class="edge"><title>Node21&#45;&gt;Node1</title>
<path fill="none" stroke="midnightblue" d="M584.66,-481.41C520.046,-462.997 372.809,-414.632 275,-333 196.638,-267.598 192.449,-233.887 146,-143 127.85,-107.485 99.4757,-87.4527 124,-56 137.876,-38.2041 190.667,-26.3686 235.352,-19.3217"/>
<polygon fill="midnightblue" stroke="midnightblue" points="235.971,-22.768 245.331,-17.8045 234.919,-15.8475 235.971,-22.768"/>
</g>
<!-- Node21&#45;&gt;Node4 -->
<g id="edge48" class="edge"><title>Node21&#45;&gt;Node4</title>
<path fill="none" stroke="midnightblue" d="M611.067,-481.376C597.51,-460.501 567.134,-406.232 590,-369 608.516,-338.852 629.629,-349.358 661,-333 845.389,-236.853 960.177,-269.968 1059,-87 1087.25,-34.6899 997.856,-18.2771 931.963,-13.1935"/>
<polygon fill="midnightblue" stroke="midnightblue" points="931.83,-9.67578 921.611,-12.4711 931.343,-16.6588 931.83,-9.67578"/>
</g>
<!-- Node21&#45;&gt;Node22 -->
<g id="edge32" class="edge"><title>Node21&#45;&gt;Node22</title>
<path fill="none" stroke="midnightblue" d="M675.141,-482.435C754.132,-472.156 894.553,-453.885 973.652,-443.592"/>
<polygon fill="midnightblue" stroke="midnightblue" points="974.459,-447.017 983.924,-442.256 973.556,-440.075 974.459,-447.017"/>
</g>
<!-- Node22&#45;&gt;Node8 -->
<g id="edge33" class="edge"><title>Node22&#45;&gt;Node8</title>
<path fill="none" stroke="midnightblue" d="M1080.34,-431.2C1170.88,-425.46 1358.66,-411.016 1378,-389 1406.2,-356.895 1383.41,-302.573 1368.45,-274.684"/>
<polygon fill="midnightblue" stroke="midnightblue" points="1371.35,-272.699 1363.4,-265.695 1365.24,-276.127 1371.35,-272.699"/>
</g>
<!-- Node22&#45;&gt;Node15 -->
<g id="edge34" class="edge"><title>Node22&#45;&gt;Node15</title>
<path fill="none" stroke="midnightblue" d="M983.817,-427.145C923.849,-418.612 818.007,-403.547 717.334,-389.19"/>
<polygon fill="midnightblue" stroke="midnightblue" points="717.69,-385.705 707.296,-387.758 716.702,-392.635 717.69,-385.705"/>
</g>
<!-- Node22&#45;&gt;Node17 -->
<g id="edge37" class="edge"><title>Node22&#45;&gt;Node17</title>
<path fill="none" stroke="midnightblue" d="M991.911,-425.444C947.684,-416.004 876.461,-400.802 828.715,-390.611"/>
<polygon fill="midnightblue" stroke="midnightblue" points="829.411,-387.181 818.901,-388.516 827.95,-394.027 829.411,-387.181"/>
</g>
<!-- Node22&#45;&gt;Node18 -->
<g id="edge38" class="edge"><title>Node22&#45;&gt;Node18</title>
<path fill="none" stroke="midnightblue" d="M1011.4,-425.444C990.007,-416.557 956.319,-402.563 931.976,-392.451"/>
<polygon fill="midnightblue" stroke="midnightblue" points="933.08,-389.12 922.503,-388.516 930.395,-395.585 933.08,-389.12"/>
</g>
<!-- Node23 -->
<g id="node24" class="node"><title>Node23</title>
<polygon fill="white" stroke="#bfbfbf" points="1111.5,-369.5 1111.5,-388.5 1238.5,-388.5 1238.5,-369.5 1111.5,-369.5"/>
<text text-anchor="middle" x="1175" y="-376.5" font-family="Helvetica,sans-Serif" font-size="10.00">odp/api/abi/packet_io.h</text>
</g>
<!-- Node22&#45;&gt;Node23 -->
<g id="edge35" class="edge"><title>Node22&#45;&gt;Node23</title>
<path fill="none" stroke="midnightblue" d="M1054.66,-425.444C1078.4,-416.478 1115.91,-402.314 1142.74,-392.183"/>
<polygon fill="midnightblue" stroke="midnightblue" points="1144.33,-395.324 1152.45,-388.516 1141.86,-388.775 1144.33,-395.324"/>
</g>
<!-- Node24 -->
<g id="node25" class="node"><title>Node24</title>
<polygon fill="white" stroke="#bfbfbf" points="1256.5,-369.5 1256.5,-388.5 1369.5,-388.5 1369.5,-369.5 1256.5,-369.5"/>
<text text-anchor="middle" x="1313" y="-376.5" font-family="Helvetica,sans-Serif" font-size="10.00">odp/api/abi/packet.h</text>
</g>
<!-- Node22&#45;&gt;Node24 -->
<g id="edge36" class="edge"><title>Node22&#45;&gt;Node24</title>
<path fill="none" stroke="midnightblue" d="M1076.53,-425.444C1125.96,-415.944 1205.75,-400.611 1258.78,-390.42"/>
<polygon fill="midnightblue" stroke="midnightblue" points="1259.52,-393.841 1268.68,-388.516 1258.2,-386.967 1259.52,-393.841"/>
</g>
<!-- Node25 -->
<g id="node26" class="node"><title>Node25</title>
<g id="a_node26"><a xlink:href="spec_2packet_8h.html" target="_top" xlink:title="ODP packet descriptor. ">
<polygon fill="white" stroke="black" points="971,-369.5 971,-388.5 1093,-388.5 1093,-369.5 971,-369.5"/>
<text text-anchor="middle" x="1032" y="-376.5" font-family="Helvetica,sans-Serif" font-size="10.00">odp/api/spec/packet.h</text>
</a>
</g>
</g>
<!-- Node22&#45;&gt;Node25 -->
<g id="edge39" class="edge"><title>Node22&#45;&gt;Node25</title>
<path fill="none" stroke="midnightblue" d="M1032,-425.083C1032,-418.006 1032,-407.861 1032,-398.986"/>
<polygon fill="midnightblue" stroke="midnightblue" points="1035.5,-398.751 1032,-388.751 1028.5,-398.751 1035.5,-398.751"/>
</g>
<!-- Node25&#45;&gt;Node1 -->
<g id="edge40" class="edge"><title>Node25&#45;&gt;Node1</title>
<path fill="none" stroke="midnightblue" d="M970.839,-369.966C967.513,-369.617 964.217,-369.292 961,-369 888.078,-362.392 358.54,-380.713 303,-333 212.769,-255.486 272.537,-84.3653 295.287,-28.8021"/>
<polygon fill="midnightblue" stroke="midnightblue" points="298.525,-30.1301 299.174,-19.5551 292.072,-27.4174 298.525,-30.1301"/>
</g>
<!-- Node25&#45;&gt;Node4 -->
<g id="edge47" class="edge"><title>Node25&#45;&gt;Node4</title>
<path fill="none" stroke="midnightblue" d="M1043.68,-369.435C1066.76,-351.423 1116,-307.123 1116,-257 1116,-257 1116,-257 1116,-132 1116,-96.578 1118.36,-79.6637 1092,-56 1068.78,-35.158 989.523,-22.9387 931.858,-16.6148"/>
<polygon fill="midnightblue" stroke="midnightblue" points="932.035,-13.114 921.721,-15.5388 931.296,-20.0749 932.035,-13.114"/>
</g>
<!-- Node25&#45;&gt;Node26 -->
<g id="edge41" class="edge"><title>Node25&#45;&gt;Node26</title>
<path fill="none" stroke="midnightblue" d="M1058.22,-369.475C1090.02,-359.136 1143.77,-341.661 1179.32,-330.102"/>
<polygon fill="midnightblue" stroke="midnightblue" points="1180.4,-333.43 1188.83,-327.009 1178.24,-326.773 1180.4,-333.43"/>
</g>
<!-- Node26&#45;&gt;Node8 -->
<g id="edge42" class="edge"><title>Node26&#45;&gt;Node8</title>
<path fill="none" stroke="midnightblue" d="M1235.49,-307.975C1259.81,-297.857 1300.55,-280.905 1328.32,-269.351"/>
<polygon fill="midnightblue" stroke="midnightblue" points="1329.66,-272.582 1337.55,-265.509 1326.97,-266.119 1329.66,-272.582"/>
</g>
<!-- Node27 -->
<g id="node28" class="node"><title>Node27</title>
<polygon fill="white" stroke="#bfbfbf" points="1163.5,-246.5 1163.5,-265.5 1266.5,-265.5 1266.5,-246.5 1163.5,-246.5"/>
<text text-anchor="middle" x="1215" y="-253.5" font-family="Helvetica,sans-Serif" font-size="10.00">odp/api/abi/time.h</text>
</g>
<!-- Node26&#45;&gt;Node27 -->
<g id="edge43" class="edge"><title>Node26&#45;&gt;Node27</title>
<path fill="none" stroke="midnightblue" d="M1215,-307.975C1215,-299.58 1215,-286.481 1215,-275.663"/>
<polygon fill="midnightblue" stroke="midnightblue" points="1218.5,-275.509 1215,-265.509 1211.5,-275.509 1218.5,-275.509"/>
</g>
<!-- Node28 -->
<g id="node29" class="node"><title>Node28</title>
<g id="a_node29"><a xlink:href="spec_2time_8h.html" target="_top" xlink:title="ODP time. ">
<polygon fill="white" stroke="black" points="770.5,-62 770.5,-81 881.5,-81 881.5,-62 770.5,-62"/>
<text text-anchor="middle" x="826" y="-69" font-family="Helvetica,sans-Serif" font-size="10.00">odp/api/spec/time.h</text>
</a>
</g>
</g>
<!-- Node26&#45;&gt;Node28 -->
<g id="edge44" class="edge"><title>Node26&#45;&gt;Node28</title>
<path fill="none" stroke="midnightblue" d="M1201.16,-307.816C1143.26,-271.499 920.208,-131.592 848.407,-86.5546"/>
<polygon fill="midnightblue" stroke="midnightblue" points="850.01,-83.4288 839.679,-81.08 846.29,-89.3588 850.01,-83.4288"/>
</g>
<!-- Node28&#45;&gt;Node1 -->
<g id="edge45" class="edge"><title>Node28&#45;&gt;Node1</title>
<path fill="none" stroke="midnightblue" d="M770.03,-64.1325C673.249,-53.122 475.002,-30.5681 370.657,-18.6971"/>
<polygon fill="midnightblue" stroke="midnightblue" points="370.884,-15.2004 360.552,-17.5475 370.093,-22.1556 370.884,-15.2004"/>
</g>
<!-- Node28&#45;&gt;Node4 -->
<g id="edge46" class="edge"><title>Node28&#45;&gt;Node4</title>
<path fill="none" stroke="midnightblue" d="M832.018,-61.9751C838.255,-53.1384 848.173,-39.0886 856.018,-27.975"/>
<polygon fill="midnightblue" stroke="midnightblue" points="859.086,-29.6972 861.994,-19.5091 853.367,-25.6604 859.086,-29.6972"/>
</g>
<!-- Node29&#45;&gt;Node1 -->
<g id="edge50" class="edge"><title>Node29&#45;&gt;Node1</title>
<path fill="none" stroke="midnightblue" d="M341.708,-302.276C289.696,-271.292 172.324,-191.975 133,-87 128.167,-74.0978 124.596,-66.9179 133,-56 145.758,-39.4258 193.557,-27.7026 235.233,-20.3855"/>
<polygon fill="midnightblue" stroke="midnightblue" points="235.843,-23.8322 245.118,-18.7104 234.673,-16.9306 235.843,-23.8322"/>
</g>
<!-- Node29&#45;&gt;Node2 -->
<g id="edge60" class="edge"><title>Node29&#45;&gt;Node2</title>
<path fill="none" stroke="midnightblue" d="M401.837,-302.399C426.501,-292.416 459.285,-279.147 483.035,-269.534"/>
<polygon fill="midnightblue" stroke="midnightblue" points="484.654,-272.654 492.61,-265.658 482.028,-266.165 484.654,-272.654"/>
</g>
<!-- Node29&#45;&gt;Node4 -->
<g id="edge61" class="edge"><title>Node29&#45;&gt;Node4</title>
<path fill="none" stroke="midnightblue" d="M422.263,-313.053C467.963,-308.062 533.066,-295.854 582,-266 686.692,-202.127 662.014,-128.402 761,-56 781.08,-41.3129 806.675,-30.3265 827.798,-22.8869"/>
<polygon fill="midnightblue" stroke="midnightblue" points="829.106,-26.1391 837.457,-19.6186 826.863,-19.5084 829.106,-26.1391"/>
</g>
<!-- Node30 -->
<g id="node31" class="node"><title>Node30</title>
<g id="a_node31"><a xlink:href="schedule__types_8h.html" target="_top" xlink:title="ODP schedule. ">
<polygon fill="white" stroke="black" points="298,-246.5 298,-265.5 436,-265.5 436,-246.5 298,-246.5"/>
<text text-anchor="middle" x="367" y="-253.5" font-family="Helvetica,sans-Serif" font-size="10.00">odp/api/schedule_types.h</text>
</a>
</g>
</g>
<!-- Node29&#45;&gt;Node30 -->
<g id="edge51" class="edge"><title>Node29&#45;&gt;Node30</title>
<path fill="none" stroke="midnightblue" d="M367,-302.399C367,-294.466 367,-284.458 367,-275.858"/>
<polygon fill="midnightblue" stroke="midnightblue" points="370.5,-275.658 367,-265.658 363.5,-275.658 370.5,-275.658"/>
</g>
<!-- Node31 -->
<g id="node32" class="node"><title>Node31</title>
<polygon fill="white" stroke="#bfbfbf" points="298.5,-179.5 298.5,-209.5 413.5,-209.5 413.5,-179.5 298.5,-179.5"/>
<text text-anchor="start" x="306.5" y="-197.5" font-family="Helvetica,sans-Serif" font-size="10.00">odp/api/abi/schedule</text>
<text text-anchor="middle" x="356" y="-186.5" font-family="Helvetica,sans-Serif" font-size="10.00">_types.h</text>
</g>
<!-- Node30&#45;&gt;Node31 -->
<g id="edge52" class="edge"><title>Node30&#45;&gt;Node31</title>
<path fill="none" stroke="midnightblue" d="M365.424,-246.475C364.115,-239.396 362.188,-228.97 360.417,-219.39"/>
<polygon fill="midnightblue" stroke="midnightblue" points="363.852,-218.72 358.592,-209.523 356.969,-219.993 363.852,-218.72"/>
</g>
<!-- Node32 -->
<g id="node33" class="node"><title>Node32</title>
<g id="a_node33"><a xlink:href="spec_2schedule__types_8h.html" target="_top" xlink:title="ODP schedule types. ">
<polygon fill="white" stroke="black" points="482.5,-179.5 482.5,-209.5 605.5,-209.5 605.5,-179.5 482.5,-179.5"/>
<text text-anchor="start" x="490.5" y="-197.5" font-family="Helvetica,sans-Serif" font-size="10.00">odp/api/spec/schedule</text>
<text text-anchor="middle" x="544" y="-186.5" font-family="Helvetica,sans-Serif" font-size="10.00">_types.h</text>
</a>
</g>
</g>
<!-- Node30&#45;&gt;Node32 -->
<g id="edge53" class="edge"><title>Node30&#45;&gt;Node32</title>
<path fill="none" stroke="midnightblue" d="M392.36,-246.475C418.46,-237.701 459.849,-223.788 492.797,-212.712"/>
<polygon fill="midnightblue" stroke="midnightblue" points="493.921,-216.027 502.285,-209.523 491.691,-209.392 493.921,-216.027"/>
</g>
<!-- Node32&#45;&gt;Node1 -->
<g id="edge54" class="edge"><title>Node32&#45;&gt;Node1</title>
<path fill="none" stroke="midnightblue" d="M499.834,-179.437C455.016,-163.265 386.004,-132.89 341,-87 324.901,-70.5843 314.32,-45.9864 308.505,-29.2541"/>
<polygon fill="midnightblue" stroke="midnightblue" points="311.775,-27.9926 305.362,-19.5595 305.116,-30.1515 311.775,-27.9926"/>
</g>
<!-- Node32&#45;&gt;Node4 -->
<g id="edge59" class="edge"><title>Node32&#45;&gt;Node4</title>
<path fill="none" stroke="midnightblue" d="M573.797,-179.314C592.128,-170.026 615.719,-157.039 635,-143 680.756,-109.684 679.209,-84.6882 728,-56 754.951,-40.1532 788.154,-29.1701 815.46,-22.0236"/>
<polygon fill="midnightblue" stroke="midnightblue" points="816.388,-25.3991 825.23,-19.5624 814.678,-18.6111 816.388,-25.3991"/>
</g>
<!-- Node33 -->
<g id="node34" class="node"><title>Node33</title>
<g id="a_node34"><a xlink:href="support_8h.html" target="_top" xlink:title="ODP support API &#45; platform specific header. ">
<polygon fill="white" stroke="black" points="525.5,-123.5 525.5,-142.5 626.5,-142.5 626.5,-123.5 525.5,-123.5"/>
<text text-anchor="middle" x="576" y="-130.5" font-family="Helvetica,sans-Serif" font-size="10.00">odp/api/support.h</text>
</a>
</g>
</g>
<!-- Node32&#45;&gt;Node33 -->
<g id="edge55" class="edge"><title>Node32&#45;&gt;Node33</title>
<path fill="none" stroke="midnightblue" d="M551.584,-179.399C556.042,-171.11 561.719,-160.554 566.477,-151.708"/>
<polygon fill="midnightblue" stroke="midnightblue" points="569.69,-153.123 571.344,-142.658 563.525,-149.807 569.69,-153.123"/>
</g>
<!-- Node34 -->
<g id="node35" class="node"><title>Node34</title>
<g id="a_node35"><a xlink:href="spec_2support_8h.html" target="_top" xlink:title="ODP support API. ">
<polygon fill="white" stroke="black" points="550,-62 550,-81 676,-81 676,-62 550,-62"/>
<text text-anchor="middle" x="613" y="-69" font-family="Helvetica,sans-Serif" font-size="10.00">odp/api/spec/support.h</text>
</a>
</g>
</g>
<!-- Node33&#45;&gt;Node34 -->
<g id="edge56" class="edge"><title>Node33&#45;&gt;Node34</title>
<path fill="none" stroke="midnightblue" d="M581.301,-123.475C586.741,-114.727 595.359,-100.869 602.236,-89.8093"/>
<polygon fill="midnightblue" stroke="midnightblue" points="605.4,-91.3494 607.709,-81.0091 599.456,-87.6528 605.4,-91.3494"/>
</g>
<!-- Node34&#45;&gt;Node1 -->
<g id="edge57" class="edge"><title>Node34&#45;&gt;Node1</title>
<path fill="none" stroke="midnightblue" d="M568.585,-61.9751C512.876,-51.2827 417.402,-32.9578 357.38,-21.4374"/>
<polygon fill="midnightblue" stroke="midnightblue" points="357.814,-17.9569 347.333,-19.5091 356.494,-24.8314 357.814,-17.9569"/>
</g>
<!-- Node34&#45;&gt;Node4 -->
<g id="edge58" class="edge"><title>Node34&#45;&gt;Node4</title>
<path fill="none" stroke="midnightblue" d="M649.535,-61.9751C694.886,-51.3932 772.276,-33.3356 821.729,-21.7966"/>
<polygon fill="midnightblue" stroke="midnightblue" points="822.589,-25.1899 831.532,-19.5091 820.999,-18.373 822.589,-25.1899"/>
</g>
</g>
</svg>
