<?xml version="1.0" encoding="UTF-8" standalone="no"?>
<!DOCTYPE svg PUBLIC "-//W3C//DTD SVG 1.1//EN"
 "http://www.w3.org/Graphics/SVG/1.1/DTD/svg11.dtd">
<!-- Generated by graphviz version 2.38.0 (20140413.2041)
 -->
<!-- Title: queue.h Pages: 1 -->
<svg width="283pt" height="420pt"
 viewBox="0.00 0.00 282.50 420.00" xmlns="http://www.w3.org/2000/svg" xmlns:xlink="http://www.w3.org/1999/xlink">
<g id="graph0" class="graph" transform="scale(1 1) rotate(0) translate(4 416)">
<title>queue.h</title>
<polygon fill="white" stroke="none" points="-4,4 -4,-416 278.5,-416 278.5,4 -4,4"/>
<!-- Node30 -->
<g id="node1" class="node"><title>Node30</title>
<polygon fill="#bfbfbf" stroke="black" points="95,-392.5 95,-411.5 151,-411.5 151,-392.5 95,-392.5"/>
<text text-anchor="middle" x="123" y="-399.5" font-family="Helvetica,sans-Serif" font-size="10.00">queue.h</text>
</g>
<!-- Node31 -->
<g id="node2" class="node"><title>Node31</title>
<g id="a_node2"><a xlink:href="queue_8h.html" target="_top" xlink:title="ODP queue. ">
<polygon fill="white" stroke="black" points="95,-336.5 95,-355.5 151,-355.5 151,-336.5 95,-336.5"/>
<text text-anchor="middle" x="123" y="-343.5" font-family="Helvetica,sans-Serif" font-size="10.00">queue.h</text>
</a>
</g>
</g>
<!-- Node30&#45;&gt;Node31 -->
<g id="edge1" class="edge"><title>Node30&#45;&gt;Node31</title>
<path fill="none" stroke="midnightblue" d="M123,-381.805C123,-372.91 123,-362.78 123,-355.751"/>
<polygon fill="midnightblue" stroke="midnightblue" points="119.5,-382.083 123,-392.083 126.5,-382.083 119.5,-382.083"/>
</g>
<!-- Node32 -->
<g id="node3" class="node"><title>Node32</title>
<g id="a_node3"><a xlink:href="crypto_8h.html" target="_top" xlink:title="ODP crypto. ">
<polygon fill="white" stroke="black" points="0,-224.5 0,-243.5 56,-243.5 56,-224.5 0,-224.5"/>
<text text-anchor="middle" x="28" y="-231.5" font-family="Helvetica,sans-Serif" font-size="10.00">crypto.h</text>
</a>
</g>
</g>
<!-- Node31&#45;&gt;Node32 -->
<g id="edge2" class="edge"><title>Node31&#45;&gt;Node32</title>
<path fill="none" stroke="midnightblue" d="M106.336,-329.348C97.6177,-320.911 86.93,-310.17 78,-300 61.0915,-280.743 43.2413,-256.431 34.133,-243.693"/>
<polygon fill="midnightblue" stroke="midnightblue" points="104.034,-331.989 113.682,-336.366 108.869,-326.927 104.034,-331.989"/>
</g>
<!-- Node35 -->
<g id="node6" class="node"><title>Node35</title>
<g id="a_node6"><a xlink:href="spec_2packet__io_8h.html" target="_top" xlink:title="ODP Packet IO. ">
<polygon fill="white" stroke="black" points="87.5,-280.5 87.5,-299.5 158.5,-299.5 158.5,-280.5 87.5,-280.5"/>
<text text-anchor="middle" x="123" y="-287.5" font-family="Helvetica,sans-Serif" font-size="10.00">packet_io.h</text>
</a>
</g>
</g>
<!-- Node31&#45;&gt;Node35 -->
<g id="edge5" class="edge"><title>Node31&#45;&gt;Node35</title>
<path fill="none" stroke="midnightblue" d="M123,-325.805C123,-316.91 123,-306.78 123,-299.751"/>
<polygon fill="midnightblue" stroke="midnightblue" points="119.5,-326.083 123,-336.083 126.5,-326.083 119.5,-326.083"/>
</g>
<!-- Node41 -->
<g id="node12" class="node"><title>Node41</title>
<g id="a_node12"><a xlink:href="spec_2schedule_8h.html" target="_top" xlink:title="ODP schedule. ">
<polygon fill="white" stroke="black" points="177,-280.5 177,-299.5 245,-299.5 245,-280.5 177,-280.5"/>
<text text-anchor="middle" x="211" y="-287.5" font-family="Helvetica,sans-Serif" font-size="10.00">schedule.h</text>
</a>
</g>
</g>
<!-- Node31&#45;&gt;Node41 -->
<g id="edge14" class="edge"><title>Node31&#45;&gt;Node41</title>
<path fill="none" stroke="midnightblue" d="M145.977,-330.901C162.113,-320.999 183.181,-308.071 196.896,-299.655"/>
<polygon fill="midnightblue" stroke="midnightblue" points="143.831,-328.111 137.139,-336.324 147.493,-334.077 143.831,-328.111"/>
</g>
<!-- Node33 -->
<g id="node4" class="node"><title>Node33</title>
<g id="a_node4"><a xlink:href="spec_2ipsec_8h.html" target="_top" xlink:title="ODP IPSEC API. ">
<polygon fill="white" stroke="black" points="69,-56.5 69,-75.5 119,-75.5 119,-56.5 69,-56.5"/>
<text text-anchor="middle" x="94" y="-63.5" font-family="Helvetica,sans-Serif" font-size="10.00">ipsec.h</text>
</a>
</g>
</g>
<!-- Node32&#45;&gt;Node33 -->
<g id="edge3" class="edge"><title>Node32&#45;&gt;Node33</title>
<path fill="none" stroke="midnightblue" d="M33.4582,-214.423C40.7472,-190.373 54.5481,-147.355 70,-112 75.6733,-99.0189 83.63,-84.6861 88.7997,-75.7619"/>
<polygon fill="midnightblue" stroke="midnightblue" points="30.0116,-213.732 30.5043,-224.316 36.719,-215.735 30.0116,-213.732"/>
</g>
<!-- Node34 -->
<g id="node5" class="node"><title>Node34</title>
<g id="a_node5"><a xlink:href="ipsec_8h.html" target="_top" xlink:title="ODP IPSEC API &#45; platform specific header. ">
<polygon fill="white" stroke="black" points="69,-0.5 69,-19.5 119,-19.5 119,-0.5 69,-0.5"/>
<text text-anchor="middle" x="94" y="-7.5" font-family="Helvetica,sans-Serif" font-size="10.00">ipsec.h</text>
</a>
</g>
</g>
<!-- Node33&#45;&gt;Node34 -->
<g id="edge4" class="edge"><title>Node33&#45;&gt;Node34</title>
<path fill="none" stroke="midnightblue" d="M94,-45.8045C94,-36.9102 94,-26.7798 94,-19.7511"/>
<polygon fill="midnightblue" stroke="midnightblue" points="90.5001,-46.083 94,-56.083 97.5001,-46.083 90.5001,-46.083"/>
</g>
<!-- Node36 -->
<g id="node7" class="node"><title>Node36</title>
<g id="a_node7"><a xlink:href="packet__io_8h.html" target="_top" xlink:title="ODP Packet IO. ">
<polygon fill="white" stroke="black" points="87.5,-224.5 87.5,-243.5 158.5,-243.5 158.5,-224.5 87.5,-224.5"/>
<text text-anchor="middle" x="123" y="-231.5" font-family="Helvetica,sans-Serif" font-size="10.00">packet_io.h</text>
</a>
</g>
</g>
<!-- Node35&#45;&gt;Node36 -->
<g id="edge6" class="edge"><title>Node35&#45;&gt;Node36</title>
<path fill="none" stroke="midnightblue" d="M123,-269.805C123,-260.91 123,-250.78 123,-243.751"/>
<polygon fill="midnightblue" stroke="midnightblue" points="119.5,-270.083 123,-280.083 126.5,-270.083 119.5,-270.083"/>
</g>
<!-- Node36&#45;&gt;Node33 -->
<g id="edge10" class="edge"><title>Node36&#45;&gt;Node33</title>
<path fill="none" stroke="midnightblue" d="M101.834,-218.044C92.6667,-210.257 82.9204,-199.879 78,-188 61.6198,-148.455 81.0515,-95.9799 89.9781,-75.6016"/>
<polygon fill="midnightblue" stroke="midnightblue" points="99.9172,-220.99 109.936,-224.436 104.253,-215.494 99.9172,-220.99"/>
</g>
<!-- Node37 -->
<g id="node8" class="node"><title>Node37</title>
<g id="a_node8"><a xlink:href="spec_2classification_8h.html" target="_top" xlink:title="ODP classification descriptor. ">
<polygon fill="white" stroke="black" points="87,-168.5 87,-187.5 173,-187.5 173,-168.5 87,-168.5"/>
<text text-anchor="middle" x="130" y="-175.5" font-family="Helvetica,sans-Serif" font-size="10.00">classification.h</text>
</a>
</g>
</g>
<!-- Node36&#45;&gt;Node37 -->
<g id="edge7" class="edge"><title>Node36&#45;&gt;Node37</title>
<path fill="none" stroke="midnightblue" d="M125.45,-214.101C126.612,-205.136 127.944,-194.858 128.866,-187.751"/>
<polygon fill="midnightblue" stroke="midnightblue" points="121.971,-213.716 124.156,-224.083 128.912,-214.616 121.971,-213.716"/>
</g>
<!-- Node39 -->
<g id="node10" class="node"><title>Node39</title>
<g id="a_node10"><a xlink:href="spec_2traffic__mngr_8h.html" target="_top" xlink:title="Copyright (c) 2015&#45;2018, Linaro Limited All rights reserved. ">
<polygon fill="white" stroke="black" points="191.5,-168.5 191.5,-187.5 274.5,-187.5 274.5,-168.5 191.5,-168.5"/>
<text text-anchor="middle" x="233" y="-175.5" font-family="Helvetica,sans-Serif" font-size="10.00">traffic_mngr.h</text>
</a>
</g>
</g>
<!-- Node36&#45;&gt;Node39 -->
<g id="edge11" class="edge"><title>Node36&#45;&gt;Node39</title>
<path fill="none" stroke="midnightblue" d="M149.762,-219.862C170.159,-209.849 197.666,-196.346 215.37,-187.655"/>
<polygon fill="midnightblue" stroke="midnightblue" points="148.108,-216.775 140.673,-224.324 151.192,-223.059 148.108,-216.775"/>
</g>
<!-- Node38 -->
<g id="node9" class="node"><title>Node38</title>
<g id="a_node9"><a xlink:href="classification_8h.html" target="_top" xlink:title="ODP classification descriptor. ">
<polygon fill="white" stroke="black" points="87,-112.5 87,-131.5 173,-131.5 173,-112.5 87,-112.5"/>
<text text-anchor="middle" x="130" y="-119.5" font-family="Helvetica,sans-Serif" font-size="10.00">classification.h</text>
</a>
</g>
</g>
<!-- Node37&#45;&gt;Node38 -->
<g id="edge8" class="edge"><title>Node37&#45;&gt;Node38</title>
<path fill="none" stroke="midnightblue" d="M130,-157.805C130,-148.91 130,-138.78 130,-131.751"/>
<polygon fill="midnightblue" stroke="midnightblue" points="126.5,-158.083 130,-168.083 133.5,-158.083 126.5,-158.083"/>
</g>
<!-- Node38&#45;&gt;Node33 -->
<g id="edge9" class="edge"><title>Node38&#45;&gt;Node33</title>
<path fill="none" stroke="midnightblue" d="M118.377,-103.566C112.183,-94.2747 104.832,-83.2484 99.8341,-75.7511"/>
<polygon fill="midnightblue" stroke="midnightblue" points="115.596,-105.704 124.055,-112.083 121.42,-101.821 115.596,-105.704"/>
</g>
<!-- Node40 -->
<g id="node11" class="node"><title>Node40</title>
<g id="a_node11"><a xlink:href="traffic__mngr_8h.html" target="_top" xlink:title="ODP Traffic manager. ">
<polygon fill="white" stroke="black" points="191.5,-112.5 191.5,-131.5 274.5,-131.5 274.5,-112.5 191.5,-112.5"/>
<text text-anchor="middle" x="233" y="-119.5" font-family="Helvetica,sans-Serif" font-size="10.00">traffic_mngr.h</text>
</a>
</g>
</g>
<!-- Node39&#45;&gt;Node40 -->
<g id="edge12" class="edge"><title>Node39&#45;&gt;Node40</title>
<path fill="none" stroke="midnightblue" d="M233,-157.805C233,-148.91 233,-138.78 233,-131.751"/>
<polygon fill="midnightblue" stroke="midnightblue" points="229.5,-158.083 233,-168.083 236.5,-158.083 229.5,-158.083"/>
</g>
<!-- Node40&#45;&gt;Node33 -->
<g id="edge13" class="edge"><title>Node40&#45;&gt;Node33</title>
<path fill="none" stroke="midnightblue" d="M201.524,-108.772C175.415,-98.6287 138.961,-84.4669 115.922,-75.5164"/>
<polygon fill="midnightblue" stroke="midnightblue" points="200.386,-112.085 210.975,-112.444 202.921,-105.56 200.386,-112.085"/>
</g>
<!-- Node42 -->
<g id="node13" class="node"><title>Node42</title>
<g id="a_node13"><a xlink:href="schedule_8h.html" target="_top" xlink:title="ODP schedule. ">
<polygon fill="white" stroke="black" points="177,-224.5 177,-243.5 245,-243.5 245,-224.5 177,-224.5"/>
<text text-anchor="middle" x="211" y="-231.5" font-family="Helvetica,sans-Serif" font-size="10.00">schedule.h</text>
</a>
</g>
</g>
<!-- Node41&#45;&gt;Node42 -->
<g id="edge15" class="edge"><title>Node41&#45;&gt;Node42</title>
<path fill="none" stroke="midnightblue" d="M211,-269.805C211,-260.91 211,-250.78 211,-243.751"/>
<polygon fill="midnightblue" stroke="midnightblue" points="207.5,-270.083 211,-280.083 214.5,-270.083 207.5,-270.083"/>
</g>
</g>
</svg>
