<?xml version="1.0" encoding="UTF-8" standalone="no"?>
<!DOCTYPE svg PUBLIC "-//W3C//DTD SVG 1.1//EN"
 "http://www.w3.org/Graphics/SVG/1.1/DTD/svg11.dtd">
<!-- Generated by graphviz version 2.38.0 (20140413.2041)
 -->
<!-- Title: align.h Pages: 1 -->
<svg width="2651pt" height="532pt"
 viewBox="0.00 0.00 2651.00 532.00" xmlns="http://www.w3.org/2000/svg" xmlns:xlink="http://www.w3.org/1999/xlink">
<g id="graph0" class="graph" transform="scale(1 1) rotate(0) translate(4 528)">
<title>align.h</title>
<polygon fill="white" stroke="none" points="-4,4 -4,-528 2647,-528 2647,4 -4,4"/>
<!-- Node3 -->
<g id="node1" class="node"><title>Node3</title>
<polygon fill="#bfbfbf" stroke="black" points="119.5,-504.5 119.5,-523.5 167.5,-523.5 167.5,-504.5 119.5,-504.5"/>
<text text-anchor="middle" x="143.5" y="-511.5" font-family="Helvetica,sans-Serif" font-size="10.00">align.h</text>
</g>
<!-- Node4 -->
<g id="node2" class="node"><title>Node4</title>
<g id="a_node2"><a xlink:href="align_8h.html" target="_top" xlink:title="ODP alignments. ">
<polygon fill="white" stroke="black" points="119.5,-448.5 119.5,-467.5 167.5,-467.5 167.5,-448.5 119.5,-448.5"/>
<text text-anchor="middle" x="143.5" y="-455.5" font-family="Helvetica,sans-Serif" font-size="10.00">align.h</text>
</a>
</g>
</g>
<!-- Node3&#45;&gt;Node4 -->
<g id="edge1" class="edge"><title>Node3&#45;&gt;Node4</title>
<path fill="none" stroke="midnightblue" d="M143.5,-493.805C143.5,-484.91 143.5,-474.78 143.5,-467.751"/>
<polygon fill="midnightblue" stroke="midnightblue" points="140,-494.083 143.5,-504.083 147,-494.083 140,-494.083"/>
</g>
<!-- Node5 -->
<g id="node3" class="node"><title>Node5</title>
<g id="a_node3"><a xlink:href="abi-default_2atomic_8h.html" target="_top" xlink:title="ODP atomic operations. ">
<polygon fill="white" stroke="black" points="0,-280.5 0,-299.5 59,-299.5 59,-280.5 0,-280.5"/>
<text text-anchor="middle" x="29.5" y="-287.5" font-family="Helvetica,sans-Serif" font-size="10.00">atomic.h</text>
</a>
</g>
</g>
<!-- Node4&#45;&gt;Node5 -->
<g id="edge2" class="edge"><title>Node4&#45;&gt;Node5</title>
<path fill="none" stroke="midnightblue" d="M131.663,-439.763C107.509,-404.592 53.3134,-325.676 35.3841,-299.568"/>
<polygon fill="midnightblue" stroke="midnightblue" points="128.825,-441.813 137.371,-448.075 134.595,-437.85 128.825,-441.813"/>
</g>
<!-- Node6 -->
<g id="node4" class="node"><title>Node6</title>
<g id="a_node4"><a xlink:href="abi-default_2cpumask_8h.html" target="_top" xlink:title="ODP CPU masks and enumeration. ">
<polygon fill="white" stroke="black" points="77,-280.5 77,-299.5 146,-299.5 146,-280.5 77,-280.5"/>
<text text-anchor="middle" x="111.5" y="-287.5" font-family="Helvetica,sans-Serif" font-size="10.00">cpumask.h</text>
</a>
</g>
</g>
<!-- Node4&#45;&gt;Node6 -->
<g id="edge3" class="edge"><title>Node4&#45;&gt;Node6</title>
<path fill="none" stroke="midnightblue" d="M137.704,-438.882C135.241,-430.727 132.485,-420.942 130.5,-412 121.235,-370.275 114.806,-319.478 112.471,-299.578"/>
<polygon fill="midnightblue" stroke="midnightblue" points="134.37,-439.948 140.684,-448.456 141.053,-437.867 134.37,-439.948"/>
</g>
<!-- Node7 -->
<g id="node5" class="node"><title>Node7</title>
<g id="a_node5"><a xlink:href="spec_2std__types_8h.html" target="_top" xlink:title="Standard C language types and definitions for ODP. ">
<polygon fill="white" stroke="black" points="139.5,-392.5 139.5,-411.5 211.5,-411.5 211.5,-392.5 139.5,-392.5"/>
<text text-anchor="middle" x="175.5" y="-399.5" font-family="Helvetica,sans-Serif" font-size="10.00">std_types.h</text>
</a>
</g>
</g>
<!-- Node4&#45;&gt;Node7 -->
<g id="edge4" class="edge"><title>Node4&#45;&gt;Node7</title>
<path fill="none" stroke="midnightblue" d="M154.004,-439.275C159.473,-430.045 165.918,-419.17 170.314,-411.751"/>
<polygon fill="midnightblue" stroke="midnightblue" points="150.871,-437.696 148.784,-448.083 156.893,-441.264 150.871,-437.696"/>
</g>
<!-- Node68 -->
<g id="node50" class="node"><title>Node68</title>
<g id="a_node50"><a xlink:href="time__inlines_8h_source.html" target="_top" xlink:title="time_inlines.h">
<polygon fill="white" stroke="black" points="230,-392.5 230,-411.5 313,-411.5 313,-392.5 230,-392.5"/>
<text text-anchor="middle" x="271.5" y="-399.5" font-family="Helvetica,sans-Serif" font-size="10.00">time_inlines.h</text>
</a>
</g>
</g>
<!-- Node4&#45;&gt;Node68 -->
<g id="edge63" class="edge"><title>Node4&#45;&gt;Node68</title>
<path fill="none" stroke="midnightblue" d="M173.123,-444.503C197.119,-434.38 230.284,-420.388 251.313,-411.516"/>
<polygon fill="midnightblue" stroke="midnightblue" points="171.635,-441.332 163.782,-448.444 174.356,-447.781 171.635,-441.332"/>
</g>
<!-- Node8 -->
<g id="node6" class="node"><title>Node8</title>
<g id="a_node6"><a xlink:href="std__types_8h.html" target="_top" xlink:title="Standard C language types and definitions for ODP. ">
<polygon fill="white" stroke="black" points="1149.5,-336.5 1149.5,-355.5 1221.5,-355.5 1221.5,-336.5 1149.5,-336.5"/>
<text text-anchor="middle" x="1185.5" y="-343.5" font-family="Helvetica,sans-Serif" font-size="10.00">std_types.h</text>
</a>
</g>
</g>
<!-- Node7&#45;&gt;Node8 -->
<g id="edge5" class="edge"><title>Node7&#45;&gt;Node8</title>
<path fill="none" stroke="midnightblue" d="M221.197,-392.037C221.298,-392.024 221.399,-392.012 221.5,-392 581.626,-348.602 1022.1,-346.423 1149.45,-346.784"/>
<polygon fill="midnightblue" stroke="midnightblue" points="220.979,-388.532 211.58,-393.422 221.977,-395.46 220.979,-388.532"/>
</g>
<!-- Node8&#45;&gt;Node5 -->
<g id="edge6" class="edge"><title>Node8&#45;&gt;Node5</title>
<path fill="none" stroke="midnightblue" d="M1139.13,-344.323C955.591,-341.458 279.648,-329.116 67.5,-300 64.8133,-299.631 62.0384,-299.158 59.2686,-298.622"/>
<polygon fill="midnightblue" stroke="midnightblue" points="1139.2,-347.824 1149.26,-344.479 1139.31,-340.825 1139.2,-347.824"/>
</g>
<!-- Node8&#45;&gt;Node6 -->
<g id="edge9" class="edge"><title>Node8&#45;&gt;Node6</title>
<path fill="none" stroke="midnightblue" d="M1139.37,-343.986C965.425,-340.004 349.177,-324.457 154.5,-300 151.776,-299.658 148.967,-299.234 146.152,-298.758"/>
<polygon fill="midnightblue" stroke="midnightblue" points="1139.4,-347.487 1149.47,-344.215 1139.56,-340.489 1139.4,-347.487"/>
</g>
<!-- Node9 -->
<g id="node7" class="node"><title>Node9</title>
<g id="a_node7"><a xlink:href="abi-default_2barrier_8h.html" target="_top" xlink:title="ODP barrier. ">
<polygon fill="white" stroke="black" points="1941.5,-280.5 1941.5,-299.5 1997.5,-299.5 1997.5,-280.5 1941.5,-280.5"/>
<text text-anchor="middle" x="1969.5" y="-287.5" font-family="Helvetica,sans-Serif" font-size="10.00">barrier.h</text>
</a>
</g>
</g>
<!-- Node8&#45;&gt;Node9 -->
<g id="edge7" class="edge"><title>Node8&#45;&gt;Node9</title>
<path fill="none" stroke="midnightblue" d="M1231.58,-345.072C1349.12,-344.642 1669.36,-339.605 1932.5,-300 1935.38,-299.567 1938.36,-299.017 1941.32,-298.403"/>
<polygon fill="midnightblue" stroke="midnightblue" points="1231.49,-341.572 1221.5,-345.1 1231.51,-348.572 1231.49,-341.572"/>
</g>
<!-- Node10 -->
<g id="node8" class="node"><title>Node10</title>
<g id="a_node8"><a xlink:href="abi-default_2byteorder_8h.html" target="_top" xlink:title="ODP byteorder. ">
<polygon fill="white" stroke="black" points="2016,-280.5 2016,-299.5 2087,-299.5 2087,-280.5 2016,-280.5"/>
<text text-anchor="middle" x="2051.5" y="-287.5" font-family="Helvetica,sans-Serif" font-size="10.00">byteorder.h</text>
</a>
</g>
</g>
<!-- Node8&#45;&gt;Node10 -->
<g id="edge8" class="edge"><title>Node8&#45;&gt;Node10</title>
<path fill="none" stroke="midnightblue" d="M1231.68,-344.772C1356.89,-343.657 1713.11,-337.187 2006.5,-300 2009.5,-299.619 2012.61,-299.153 2015.71,-298.636"/>
<polygon fill="midnightblue" stroke="midnightblue" points="1231.65,-341.272 1221.68,-344.854 1231.71,-348.272 1231.65,-341.272"/>
</g>
<!-- Node11 -->
<g id="node9" class="node"><title>Node11</title>
<g id="a_node9"><a xlink:href="abi-default_2init_8h.html" target="_top" xlink:title="ODP initialization. ">
<polygon fill="white" stroke="black" points="2105.5,-280.5 2105.5,-299.5 2145.5,-299.5 2145.5,-280.5 2105.5,-280.5"/>
<text text-anchor="middle" x="2125.5" y="-287.5" font-family="Helvetica,sans-Serif" font-size="10.00">init.h</text>
</a>
</g>
</g>
<!-- Node8&#45;&gt;Node11 -->
<g id="edge10" class="edge"><title>Node8&#45;&gt;Node11</title>
<path fill="none" stroke="midnightblue" d="M1231.82,-344.25C1392.87,-341.401 1927.71,-329.868 2096.5,-300 2099.41,-299.486 2102.43,-298.766 2105.38,-297.955"/>
<polygon fill="midnightblue" stroke="midnightblue" points="1231.7,-340.751 1221.77,-344.425 1231.83,-347.75 1231.7,-340.751"/>
</g>
<!-- Node12 -->
<g id="node10" class="node"><title>Node12</title>
<g id="a_node10"><a xlink:href="abi-default_2ipsec_8h.html" target="_top" xlink:title="ODP IPSEC API &#45; platform specific types. ">
<polygon fill="white" stroke="black" points="2163.5,-280.5 2163.5,-299.5 2213.5,-299.5 2213.5,-280.5 2163.5,-280.5"/>
<text text-anchor="middle" x="2188.5" y="-287.5" font-family="Helvetica,sans-Serif" font-size="10.00">ipsec.h</text>
</a>
</g>
</g>
<!-- Node8&#45;&gt;Node12 -->
<g id="edge11" class="edge"><title>Node8&#45;&gt;Node12</title>
<path fill="none" stroke="midnightblue" d="M1231.9,-344.151C1399.51,-340.88 1973.31,-327.864 2154.5,-300 2157.4,-299.555 2160.4,-298.96 2163.37,-298.287"/>
<polygon fill="midnightblue" stroke="midnightblue" points="1231.61,-340.656 1221.68,-344.348 1231.75,-347.654 1231.61,-340.656"/>
</g>
<!-- Node13 -->
<g id="node11" class="node"><title>Node13</title>
<g id="a_node11"><a xlink:href="abi-default_2packet__io_8h.html" target="_top" xlink:title="ODP Packet IO. ">
<polygon fill="white" stroke="black" points="2232,-280.5 2232,-299.5 2303,-299.5 2303,-280.5 2232,-280.5"/>
<text text-anchor="middle" x="2267.5" y="-287.5" font-family="Helvetica,sans-Serif" font-size="10.00">packet_io.h</text>
</a>
</g>
</g>
<!-- Node8&#45;&gt;Node13 -->
<g id="edge12" class="edge"><title>Node8&#45;&gt;Node13</title>
<path fill="none" stroke="midnightblue" d="M1232.36,-345.528C1379.07,-346.634 1842.46,-345.973 2222.5,-300 2225.51,-299.636 2228.61,-299.182 2231.72,-298.673"/>
<polygon fill="midnightblue" stroke="midnightblue" points="1231.97,-342.025 1221.94,-345.442 1231.91,-349.025 1231.97,-342.025"/>
</g>
<!-- Node14 -->
<g id="node12" class="node"><title>Node14</title>
<g id="a_node12"><a xlink:href="abi-default_2rwlock__recursive_8h.html" target="_top" xlink:title="ODP recursive read/write lock. ">
<polygon fill="white" stroke="black" points="2321.5,-280.5 2321.5,-299.5 2425.5,-299.5 2425.5,-280.5 2321.5,-280.5"/>
<text text-anchor="middle" x="2373.5" y="-287.5" font-family="Helvetica,sans-Serif" font-size="10.00">rwlock_recursive.h</text>
</a>
</g>
</g>
<!-- Node8&#45;&gt;Node14 -->
<g id="edge13" class="edge"><title>Node8&#45;&gt;Node14</title>
<path fill="none" stroke="midnightblue" d="M1231.63,-344.918C1385.36,-344.269 1894.16,-339.101 2312.5,-300 2315.38,-299.731 2318.33,-299.419 2321.3,-299.075"/>
<polygon fill="midnightblue" stroke="midnightblue" points="1231.59,-341.418 1221.6,-344.956 1231.61,-348.418 1231.59,-341.418"/>
</g>
<!-- Node15 -->
<g id="node13" class="node"><title>Node15</title>
<g id="a_node13"><a xlink:href="abi-default_2schedule_8h.html" target="_top" xlink:title="ODP schedule. ">
<polygon fill="white" stroke="black" points="2443.5,-280.5 2443.5,-299.5 2511.5,-299.5 2511.5,-280.5 2443.5,-280.5"/>
<text text-anchor="middle" x="2477.5" y="-287.5" font-family="Helvetica,sans-Serif" font-size="10.00">schedule.h</text>
</a>
</g>
</g>
<!-- Node8&#45;&gt;Node15 -->
<g id="edge14" class="edge"><title>Node8&#45;&gt;Node15</title>
<path fill="none" stroke="midnightblue" d="M1232,-344.385C1428.92,-341.619 2194.98,-329.165 2434.5,-300 2437.38,-299.65 2440.35,-299.205 2443.32,-298.702"/>
<polygon fill="midnightblue" stroke="midnightblue" points="1231.67,-340.89 1221.72,-344.528 1231.76,-347.889 1231.67,-340.89"/>
</g>
<!-- Node16 -->
<g id="node14" class="node"><title>Node16</title>
<g id="a_node14"><a xlink:href="abi-default_2spinlock__recursive_8h.html" target="_top" xlink:title="ODP recursive spinlock. ">
<polygon fill="white" stroke="black" points="2530,-280.5 2530,-299.5 2643,-299.5 2643,-280.5 2530,-280.5"/>
<text text-anchor="middle" x="2586.5" y="-287.5" font-family="Helvetica,sans-Serif" font-size="10.00">spinlock_recursive.h</text>
</a>
</g>
</g>
<!-- Node8&#45;&gt;Node16 -->
<g id="edge15" class="edge"><title>Node8&#45;&gt;Node16</title>
<path fill="none" stroke="midnightblue" d="M1231.86,-345.144C1403.22,-345.314 2016.91,-342.712 2520.5,-300 2523.5,-299.746 2526.56,-299.451 2529.66,-299.125"/>
<polygon fill="midnightblue" stroke="midnightblue" points="1231.69,-341.644 1221.69,-345.13 1231.68,-348.644 1231.69,-341.644"/>
</g>
<!-- Node17 -->
<g id="node15" class="node"><title>Node17</title>
<g id="a_node15"><a xlink:href="abi-default_2traffic__mngr_8h.html" target="_top" xlink:title="ODP traffic mngr. ">
<polygon fill="white" stroke="black" points="164,-280.5 164,-299.5 247,-299.5 247,-280.5 164,-280.5"/>
<text text-anchor="middle" x="205.5" y="-287.5" font-family="Helvetica,sans-Serif" font-size="10.00">traffic_mngr.h</text>
</a>
</g>
</g>
<!-- Node8&#45;&gt;Node17 -->
<g id="edge16" class="edge"><title>Node8&#45;&gt;Node17</title>
<path fill="none" stroke="midnightblue" d="M1138.99,-344.82C1002.85,-343.847 593.533,-337.748 256.5,-300 253.462,-299.66 250.331,-299.251 247.186,-298.798"/>
<polygon fill="midnightblue" stroke="midnightblue" points="1139.05,-348.32 1149.07,-344.886 1139.09,-341.32 1139.05,-348.32"/>
</g>
<!-- Node18 -->
<g id="node16" class="node"><title>Node18</title>
<g id="a_node16"><a xlink:href="barrier_8h.html" target="_top" xlink:title="ODP execution barriers. ">
<polygon fill="white" stroke="black" points="265.5,-280.5 265.5,-299.5 321.5,-299.5 321.5,-280.5 265.5,-280.5"/>
<text text-anchor="middle" x="293.5" y="-287.5" font-family="Helvetica,sans-Serif" font-size="10.00">barrier.h</text>
</a>
</g>
</g>
<!-- Node8&#45;&gt;Node18 -->
<g id="edge17" class="edge"><title>Node8&#45;&gt;Node18</title>
<path fill="none" stroke="midnightblue" d="M1139.2,-345.475C1010.44,-346.168 637.4,-343.92 331.5,-300 328.279,-299.538 324.93,-298.932 321.614,-298.253"/>
<polygon fill="midnightblue" stroke="midnightblue" points="1139.5,-348.973 1149.48,-345.41 1139.46,-341.973 1139.5,-348.973"/>
</g>
<!-- Node19 -->
<g id="node17" class="node"><title>Node19</title>
<g id="a_node17"><a xlink:href="buffer_8h.html" target="_top" xlink:title="ODP buffer descriptor. ">
<polygon fill="white" stroke="black" points="340,-280.5 340,-299.5 393,-299.5 393,-280.5 340,-280.5"/>
<text text-anchor="middle" x="366.5" y="-287.5" font-family="Helvetica,sans-Serif" font-size="10.00">buffer.h</text>
</a>
</g>
</g>
<!-- Node8&#45;&gt;Node19 -->
<g id="edge18" class="edge"><title>Node8&#45;&gt;Node19</title>
<path fill="none" stroke="midnightblue" d="M1139.22,-344.871C1018.32,-343.985 683.268,-337.999 407.5,-300 402.88,-299.363 398.007,-298.483 393.297,-297.519"/>
<polygon fill="midnightblue" stroke="midnightblue" points="1139.22,-348.371 1149.24,-344.937 1139.26,-341.371 1139.22,-348.371"/>
</g>
<!-- Node20 -->
<g id="node18" class="node"><title>Node20</title>
<g id="a_node18"><a xlink:href="classification_8h.html" target="_top" xlink:title="ODP classification descriptor. ">
<polygon fill="white" stroke="black" points="551.5,-56.5 551.5,-75.5 637.5,-75.5 637.5,-56.5 551.5,-56.5"/>
<text text-anchor="middle" x="594.5" y="-63.5" font-family="Helvetica,sans-Serif" font-size="10.00">classification.h</text>
</a>
</g>
</g>
<!-- Node8&#45;&gt;Node20 -->
<g id="edge19" class="edge"><title>Node8&#45;&gt;Node20</title>
<path fill="none" stroke="midnightblue" d="M1139.12,-343.661C994.299,-339.246 556.586,-324.041 497.5,-300 456.331,-283.249 421.5,-279.447 421.5,-235 421.5,-235 421.5,-235 421.5,-177 421.5,-146.775 419.995,-133.239 441.5,-112 470.655,-83.2054 517.237,-72.6642 551.351,-68.895"/>
<polygon fill="midnightblue" stroke="midnightblue" points="1139.33,-347.169 1149.44,-343.972 1139.55,-340.172 1139.33,-347.169"/>
</g>
<!-- Node23 -->
<g id="node20" class="node"><title>Node23</title>
<g id="a_node20"><a xlink:href="crypto_8h.html" target="_top" xlink:title="ODP crypto. ">
<polygon fill="white" stroke="black" points="723.5,-168.5 723.5,-187.5 779.5,-187.5 779.5,-168.5 723.5,-168.5"/>
<text text-anchor="middle" x="751.5" y="-175.5" font-family="Helvetica,sans-Serif" font-size="10.00">crypto.h</text>
</a>
</g>
</g>
<!-- Node8&#45;&gt;Node23 -->
<g id="edge21" class="edge"><title>Node8&#45;&gt;Node23</title>
<path fill="none" stroke="midnightblue" d="M1139.5,-338.4C1097.01,-331.251 1038.43,-318.354 1024.5,-300 1002.83,-271.445 1074.89,-251.162 1051.5,-224 1016.49,-183.345 847.172,-178.899 779.515,-178.778"/>
<polygon fill="midnightblue" stroke="midnightblue" points="1138.94,-341.855 1149.37,-340.008 1140.07,-334.946 1138.94,-341.855"/>
</g>
<!-- Node24 -->
<g id="node21" class="node"><title>Node24</title>
<g id="a_node21"><a xlink:href="packet_8h.html" target="_top" xlink:title="ODP packet descriptor. ">
<polygon fill="white" stroke="black" points="847.5,-280.5 847.5,-299.5 905.5,-299.5 905.5,-280.5 847.5,-280.5"/>
<text text-anchor="middle" x="876.5" y="-287.5" font-family="Helvetica,sans-Serif" font-size="10.00">packet.h</text>
</a>
</g>
</g>
<!-- Node8&#45;&gt;Node24 -->
<g id="edge23" class="edge"><title>Node8&#45;&gt;Node24</title>
<path fill="none" stroke="midnightblue" d="M1139.57,-336.973C1075.17,-325.719 959.892,-305.573 905.905,-296.139"/>
<polygon fill="midnightblue" stroke="midnightblue" points="1139,-340.426 1149.45,-338.7 1140.2,-333.531 1139,-340.426"/>
</g>
<!-- Node39 -->
<g id="node25" class="node"><title>Node39</title>
<g id="a_node25"><a xlink:href="spec_2packet__flags_8h.html" target="_top" xlink:title="ODP packet flags. ">
<polygon fill="white" stroke="red" points="956.5,-224.5 956.5,-243.5 1042.5,-243.5 1042.5,-224.5 956.5,-224.5"/>
<text text-anchor="middle" x="999.5" y="-231.5" font-family="Helvetica,sans-Serif" font-size="10.00">packet_flags.h</text>
</a>
</g>
</g>
<!-- Node8&#45;&gt;Node39 -->
<g id="edge51" class="edge"><title>Node8&#45;&gt;Node39</title>
<path fill="none" stroke="midnightblue" d="M1139.35,-340.876C1087.67,-335.191 1008.75,-322.941 990.5,-300 977.45,-283.596 987.809,-257.193 994.668,-243.64"/>
<polygon fill="midnightblue" stroke="midnightblue" points="1138.98,-344.357 1149.29,-341.927 1139.72,-337.396 1138.98,-344.357"/>
</g>
<!-- Node33 -->
<g id="node27" class="node"><title>Node33</title>
<g id="a_node27"><a xlink:href="packet__io_8h.html" target="_top" xlink:title="ODP Packet IO. ">
<polygon fill="white" stroke="black" points="526,-168.5 526,-187.5 597,-187.5 597,-168.5 526,-168.5"/>
<text text-anchor="middle" x="561.5" y="-175.5" font-family="Helvetica,sans-Serif" font-size="10.00">packet_io.h</text>
</a>
</g>
</g>
<!-- Node8&#45;&gt;Node33 -->
<g id="edge35" class="edge"><title>Node8&#45;&gt;Node33</title>
<path fill="none" stroke="midnightblue" d="M1138.92,-344.438C999.519,-342.384 592.211,-333.544 543.5,-300 514.097,-279.753 504.024,-257.058 517.5,-224 523.769,-208.621 538.106,-195.64 548.719,-187.631"/>
<polygon fill="midnightblue" stroke="midnightblue" points="1139.21,-347.942 1149.26,-344.585 1139.31,-340.943 1139.21,-347.942"/>
</g>
<!-- Node35 -->
<g id="node29" class="node"><title>Node35</title>
<g id="a_node29"><a xlink:href="spec_2traffic__mngr_8h.html" target="_top" xlink:title="Copyright (c) 2015&#45;2018, Linaro Limited All rights reserved. ">
<polygon fill="white" stroke="red" points="450,-112.5 450,-131.5 533,-131.5 533,-112.5 450,-112.5"/>
<text text-anchor="middle" x="491.5" y="-119.5" font-family="Helvetica,sans-Serif" font-size="10.00">traffic_mngr.h</text>
</a>
</g>
</g>
<!-- Node8&#45;&gt;Node35 -->
<g id="edge57" class="edge"><title>Node8&#45;&gt;Node35</title>
<path fill="none" stroke="midnightblue" d="M1139.03,-345.114C995.108,-345.026 563.578,-341.292 517.5,-300 467.77,-255.435 483.232,-160.881 489.46,-131.737"/>
<polygon fill="midnightblue" stroke="midnightblue" points="1139.29,-348.614 1149.29,-345.114 1139.29,-341.614 1139.29,-348.614"/>
</g>
<!-- Node31 -->
<g id="node30" class="node"><title>Node31</title>
<g id="a_node30"><a xlink:href="queue_8h.html" target="_top" xlink:title="ODP queue. ">
<polygon fill="white" stroke="black" points="645.5,-280.5 645.5,-299.5 701.5,-299.5 701.5,-280.5 645.5,-280.5"/>
<text text-anchor="middle" x="673.5" y="-287.5" font-family="Helvetica,sans-Serif" font-size="10.00">queue.h</text>
</a>
</g>
</g>
<!-- Node8&#45;&gt;Node31 -->
<g id="edge36" class="edge"><title>Node8&#45;&gt;Node31</title>
<path fill="none" stroke="midnightblue" d="M1139.23,-340.417C1059.72,-332.496 892.06,-315.594 750.5,-300 734.312,-298.217 716.225,-296.109 701.65,-294.381"/>
<polygon fill="midnightblue" stroke="midnightblue" points="1139.09,-343.921 1149.39,-341.428 1139.79,-336.955 1139.09,-343.921"/>
</g>
<!-- Node37 -->
<g id="node31" class="node"><title>Node37</title>
<g id="a_node31"><a xlink:href="spec_2schedule_8h.html" target="_top" xlink:title="ODP schedule. ">
<polygon fill="white" stroke="red" points="653.5,-224.5 653.5,-243.5 721.5,-243.5 721.5,-224.5 653.5,-224.5"/>
<text text-anchor="middle" x="687.5" y="-231.5" font-family="Helvetica,sans-Serif" font-size="10.00">schedule.h</text>
</a>
</g>
</g>
<!-- Node8&#45;&gt;Node37 -->
<g id="edge53" class="edge"><title>Node8&#45;&gt;Node37</title>
<path fill="none" stroke="midnightblue" d="M1139.12,-343.068C1071.81,-339.352 943.6,-328.83 838.5,-300 787.03,-285.881 730.183,-257.706 703.278,-243.544"/>
<polygon fill="midnightblue" stroke="midnightblue" points="1139.22,-346.578 1149.39,-343.608 1139.59,-339.587 1139.22,-346.578"/>
</g>
<!-- Node41 -->
<g id="node32" class="node"><title>Node41</title>
<g id="a_node32"><a xlink:href="spec_2chksum_8h.html" target="_top" xlink:title="ODP checksum functions. ">
<polygon fill="white" stroke="black" points="1033,-280.5 1033,-299.5 1096,-299.5 1096,-280.5 1033,-280.5"/>
<text text-anchor="middle" x="1064.5" y="-287.5" font-family="Helvetica,sans-Serif" font-size="10.00">chksum.h</text>
</a>
</g>
</g>
<!-- Node8&#45;&gt;Node41 -->
<g id="edge40" class="edge"><title>Node8&#45;&gt;Node41</title>
<path fill="none" stroke="midnightblue" d="M1157.19,-332.368C1134.53,-322.255 1103.37,-308.349 1083.58,-299.516"/>
<polygon fill="midnightblue" stroke="midnightblue" points="1155.77,-335.564 1166.33,-336.444 1158.62,-329.172 1155.77,-335.564"/>
</g>
<!-- Node43 -->
<g id="node34" class="node"><title>Node43</title>
<g id="a_node34"><a xlink:href="spec_2cpu_8h.html" target="_top" xlink:title="ODP CPU API. ">
<polygon fill="white" stroke="black" points="1114,-280.5 1114,-299.5 1157,-299.5 1157,-280.5 1114,-280.5"/>
<text text-anchor="middle" x="1135.5" y="-287.5" font-family="Helvetica,sans-Serif" font-size="10.00">cpu.h</text>
</a>
</g>
</g>
<!-- Node8&#45;&gt;Node43 -->
<g id="edge42" class="edge"><title>Node8&#45;&gt;Node43</title>
<path fill="none" stroke="midnightblue" d="M1170.42,-328.718C1161.61,-319.2 1150.83,-307.561 1143.6,-299.751"/>
<polygon fill="midnightblue" stroke="midnightblue" points="1167.88,-331.123 1177.24,-336.083 1173.02,-326.367 1167.88,-331.123"/>
</g>
<!-- Node46 -->
<g id="node36" class="node"><title>Node46</title>
<g id="a_node36"><a xlink:href="spec_2feature_8h.html" target="_top" xlink:title="ODP features. ">
<polygon fill="white" stroke="black" points="1213.5,-280.5 1213.5,-299.5 1273.5,-299.5 1273.5,-280.5 1213.5,-280.5"/>
<text text-anchor="middle" x="1243.5" y="-287.5" font-family="Helvetica,sans-Serif" font-size="10.00">feature.h</text>
</a>
</g>
</g>
<!-- Node8&#45;&gt;Node46 -->
<g id="edge44" class="edge"><title>Node8&#45;&gt;Node46</title>
<path fill="none" stroke="midnightblue" d="M1202.41,-329.253C1212.7,-319.673 1225.47,-307.791 1234.01,-299.834"/>
<polygon fill="midnightblue" stroke="midnightblue" points="1199.75,-326.948 1194.82,-336.324 1204.52,-332.071 1199.75,-326.948"/>
</g>
<!-- Node48 -->
<g id="node38" class="node"><title>Node48</title>
<g id="a_node38"><a xlink:href="spec_2init_8h.html" target="_top" xlink:title="init.h">
<polygon fill="white" stroke="black" points="1260.5,-168.5 1260.5,-187.5 1300.5,-187.5 1300.5,-168.5 1260.5,-168.5"/>
<text text-anchor="middle" x="1280.5" y="-175.5" font-family="Helvetica,sans-Serif" font-size="10.00">init.h</text>
</a>
</g>
</g>
<!-- Node8&#45;&gt;Node48 -->
<g id="edge50" class="edge"><title>Node8&#45;&gt;Node48</title>
<path fill="none" stroke="midnightblue" d="M1189.01,-326.262C1191.98,-312.882 1196.97,-294.72 1204.5,-280 1213.73,-261.953 1220.26,-260.154 1232.5,-244 1247.58,-224.1 1264.9,-200.449 1274.05,-187.883"/>
<polygon fill="midnightblue" stroke="midnightblue" points="1185.56,-325.699 1186.98,-336.197 1192.41,-327.1 1185.56,-325.699"/>
</g>
<!-- Node52 -->
<g id="node40" class="node"><title>Node52</title>
<g id="a_node40"><a xlink:href="spec_2hash_8h.html" target="_top" xlink:title="ODP Hash functions. ">
<polygon fill="white" stroke="black" points="1292,-280.5 1292,-299.5 1341,-299.5 1341,-280.5 1292,-280.5"/>
<text text-anchor="middle" x="1316.5" y="-287.5" font-family="Helvetica,sans-Serif" font-size="10.00">hash.h</text>
</a>
</g>
</g>
<!-- Node8&#45;&gt;Node52 -->
<g id="edge48" class="edge"><title>Node8&#45;&gt;Node52</title>
<path fill="none" stroke="midnightblue" d="M1215.82,-332.503C1240.38,-322.38 1274.32,-308.388 1295.84,-299.516"/>
<polygon fill="midnightblue" stroke="midnightblue" points="1214.17,-329.397 1206.26,-336.444 1216.84,-335.868 1214.17,-329.397"/>
</g>
<!-- Node54 -->
<g id="node42" class="node"><title>Node54</title>
<g id="a_node42"><a xlink:href="spec_2pool_8h.html" target="_top" xlink:title="ODP pool. ">
<polygon fill="white" stroke="red" points="1359.5,-280.5 1359.5,-299.5 1405.5,-299.5 1405.5,-280.5 1359.5,-280.5"/>
<text text-anchor="middle" x="1382.5" y="-287.5" font-family="Helvetica,sans-Serif" font-size="10.00">pool.h</text>
</a>
</g>
</g>
<!-- Node8&#45;&gt;Node54 -->
<g id="edge52" class="edge"><title>Node8&#45;&gt;Node54</title>
<path fill="none" stroke="midnightblue" d="M1227.02,-333.775C1260.4,-324.726 1308.49,-311.636 1350.5,-300 1353.39,-299.199 1356.43,-298.352 1359.43,-297.511"/>
<polygon fill="midnightblue" stroke="midnightblue" points="1225.89,-330.454 1217.15,-336.447 1227.72,-337.211 1225.89,-330.454"/>
</g>
<!-- Node57 -->
<g id="node43" class="node"><title>Node57</title>
<g id="a_node43"><a xlink:href="spec_2stash_8h.html" target="_top" xlink:title="ODP stash. ">
<polygon fill="white" stroke="red" points="1423.5,-280.5 1423.5,-299.5 1475.5,-299.5 1475.5,-280.5 1423.5,-280.5"/>
<text text-anchor="middle" x="1449.5" y="-287.5" font-family="Helvetica,sans-Serif" font-size="10.00">stash.h</text>
</a>
</g>
</g>
<!-- Node8&#45;&gt;Node57 -->
<g id="edge54" class="edge"><title>Node8&#45;&gt;Node57</title>
<path fill="none" stroke="midnightblue" d="M1231.77,-336.717C1278.14,-328.227 1351.5,-314.278 1414.5,-300 1417.31,-299.362 1420.25,-298.663 1423.17,-297.945"/>
<polygon fill="midnightblue" stroke="midnightblue" points="1230.94,-333.311 1221.73,-338.548 1232.19,-340.198 1230.94,-333.311"/>
</g>
<!-- Node59 -->
<g id="node44" class="node"><title>Node59</title>
<g id="a_node44"><a xlink:href="spec_2threshold_8h.html" target="_top" xlink:title="ODP threshold descriptor. ">
<polygon fill="white" stroke="red" points="1494,-280.5 1494,-299.5 1565,-299.5 1565,-280.5 1494,-280.5"/>
<text text-anchor="middle" x="1529.5" y="-287.5" font-family="Helvetica,sans-Serif" font-size="10.00">threshold.h</text>
</a>
</g>
</g>
<!-- Node8&#45;&gt;Node59 -->
<g id="edge55" class="edge"><title>Node8&#45;&gt;Node59</title>
<path fill="none" stroke="midnightblue" d="M1232.06,-338.699C1290.96,-330.564 1395.48,-315.592 1484.5,-300 1487.48,-299.478 1490.57,-298.912 1493.67,-298.328"/>
<polygon fill="midnightblue" stroke="midnightblue" points="1231.38,-335.259 1221.95,-340.089 1232.34,-342.193 1231.38,-335.259"/>
</g>
<!-- Node61 -->
<g id="node45" class="node"><title>Node61</title>
<g id="a_node45"><a xlink:href="spec_2thrmask_8h.html" target="_top" xlink:title="ODP thread masks. ">
<polygon fill="white" stroke="red" points="1583,-280.5 1583,-299.5 1648,-299.5 1648,-280.5 1583,-280.5"/>
<text text-anchor="middle" x="1615.5" y="-287.5" font-family="Helvetica,sans-Serif" font-size="10.00">thrmask.h</text>
</a>
</g>
</g>
<!-- Node8&#45;&gt;Node61 -->
<g id="edge56" class="edge"><title>Node8&#45;&gt;Node61</title>
<path fill="none" stroke="midnightblue" d="M1231.85,-341.163C1304.98,-334.767 1451.47,-320.565 1574.5,-300 1577.23,-299.543 1580.06,-299.024 1582.88,-298.471"/>
<polygon fill="midnightblue" stroke="midnightblue" points="1231.26,-337.701 1221.6,-342.05 1231.87,-344.675 1231.26,-337.701"/>
</g>
<!-- Node63 -->
<g id="node46" class="node"><title>Node63</title>
<g id="a_node46"><a xlink:href="system__info_8h.html" target="_top" xlink:title="ODP system information. ">
<polygon fill="white" stroke="black" points="1666,-280.5 1666,-299.5 1749,-299.5 1749,-280.5 1666,-280.5"/>
<text text-anchor="middle" x="1707.5" y="-287.5" font-family="Helvetica,sans-Serif" font-size="10.00">system_info.h</text>
</a>
</g>
</g>
<!-- Node8&#45;&gt;Node63 -->
<g id="edge58" class="edge"><title>Node8&#45;&gt;Node63</title>
<path fill="none" stroke="midnightblue" d="M1231.81,-341.868C1316.53,-335.852 1502.11,-321.356 1657.5,-300 1660.21,-299.628 1662.99,-299.214 1665.8,-298.773"/>
<polygon fill="midnightblue" stroke="midnightblue" points="1231.47,-338.383 1221.74,-342.576 1231.96,-345.365 1231.47,-338.383"/>
</g>
<!-- Node64 -->
<g id="node47" class="node"><title>Node64</title>
<g id="a_node47"><a xlink:href="time_8h.html" target="_top" xlink:title="ODP time. ">
<polygon fill="white" stroke="red" points="552,-280.5 552,-299.5 599,-299.5 599,-280.5 552,-280.5"/>
<text text-anchor="middle" x="575.5" y="-287.5" font-family="Helvetica,sans-Serif" font-size="10.00">time.h</text>
</a>
</g>
</g>
<!-- Node8&#45;&gt;Node64 -->
<g id="edge59" class="edge"><title>Node8&#45;&gt;Node64</title>
<path fill="none" stroke="midnightblue" d="M1139.37,-342.231C1044.84,-336.333 822.401,-321.31 636.5,-300 624.163,-298.586 610.482,-296.605 599.208,-294.862"/>
<polygon fill="midnightblue" stroke="midnightblue" points="1139.25,-345.73 1149.45,-342.855 1139.69,-338.743 1139.25,-345.73"/>
</g>
<!-- Node66 -->
<g id="node48" class="node"><title>Node66</title>
<g id="a_node48"><a xlink:href="timer_8h.html" target="_top" xlink:title="ODP timer service. ">
<polygon fill="white" stroke="black" points="1767.5,-280.5 1767.5,-299.5 1817.5,-299.5 1817.5,-280.5 1767.5,-280.5"/>
<text text-anchor="middle" x="1792.5" y="-287.5" font-family="Helvetica,sans-Serif" font-size="10.00">timer.h</text>
</a>
</g>
</g>
<!-- Node8&#45;&gt;Node66 -->
<g id="edge61" class="edge"><title>Node8&#45;&gt;Node66</title>
<path fill="none" stroke="midnightblue" d="M1231.79,-344.189C1329.69,-341.856 1564.64,-332.992 1758.5,-300 1761.39,-299.508 1764.39,-298.885 1767.36,-298.196"/>
<polygon fill="midnightblue" stroke="midnightblue" points="1231.57,-340.693 1221.65,-344.419 1231.72,-347.691 1231.57,-340.693"/>
</g>
<!-- Node67 -->
<g id="node49" class="node"><title>Node67</title>
<g id="a_node49"><a xlink:href="strong__types_8h.html" target="_top" xlink:title="ODP Strong Types. ">
<polygon fill="white" stroke="black" points="1835.5,-280.5 1835.5,-299.5 1923.5,-299.5 1923.5,-280.5 1835.5,-280.5"/>
<text text-anchor="middle" x="1879.5" y="-287.5" font-family="Helvetica,sans-Serif" font-size="10.00">strong_types.h</text>
</a>
</g>
</g>
<!-- Node8&#45;&gt;Node67 -->
<g id="edge62" class="edge"><title>Node8&#45;&gt;Node67</title>
<path fill="none" stroke="midnightblue" d="M1231.77,-343.31C1337.47,-339.11 1604.6,-326.565 1826.5,-300 1829.37,-299.656 1832.33,-299.263 1835.3,-298.839"/>
<polygon fill="midnightblue" stroke="midnightblue" points="1231.62,-339.814 1221.76,-343.702 1231.89,-346.808 1231.62,-339.814"/>
</g>
<!-- Node21 -->
<g id="node19" class="node"><title>Node21</title>
<g id="a_node19"><a xlink:href="spec_2ipsec_8h.html" target="_top" xlink:title="ODP IPSEC API. ">
<polygon fill="white" stroke="red" points="640.5,-0.5 640.5,-19.5 690.5,-19.5 690.5,-0.5 640.5,-0.5"/>
<text text-anchor="middle" x="665.5" y="-7.5" font-family="Helvetica,sans-Serif" font-size="10.00">ipsec.h</text>
</a>
</g>
</g>
<!-- Node20&#45;&gt;Node21 -->
<g id="edge20" class="edge"><title>Node20&#45;&gt;Node21</title>
<path fill="none" stroke="midnightblue" d="M614.09,-50.1008C626.868,-40.3824 643.113,-28.0269 653.885,-19.8339"/>
<polygon fill="midnightblue" stroke="midnightblue" points="611.748,-47.4844 605.907,-56.324 615.986,-53.0561 611.748,-47.4844"/>
</g>
<!-- Node23&#45;&gt;Node21 -->
<g id="edge22" class="edge"><title>Node23&#45;&gt;Node21</title>
<path fill="none" stroke="midnightblue" d="M742.1,-158.856C723.655,-123.252 683.349,-45.4534 669.939,-19.5681"/>
<polygon fill="midnightblue" stroke="midnightblue" points="739.168,-160.806 746.876,-168.075 745.384,-157.586 739.168,-160.806"/>
</g>
<!-- Node25 -->
<g id="node22" class="node"><title>Node25</title>
<g id="a_node22"><a xlink:href="spec_2comp_8h.html" target="_top" xlink:title="ODP Compression. ">
<polygon fill="white" stroke="red" points="885,-224.5 885,-243.5 938,-243.5 938,-224.5 885,-224.5"/>
<text text-anchor="middle" x="911.5" y="-231.5" font-family="Helvetica,sans-Serif" font-size="10.00">comp.h</text>
</a>
</g>
</g>
<!-- Node24&#45;&gt;Node25 -->
<g id="edge24" class="edge"><title>Node24&#45;&gt;Node25</title>
<path fill="none" stroke="midnightblue" d="M887.8,-271.566C893.822,-262.275 900.969,-251.248 905.828,-243.751"/>
<polygon fill="midnightblue" stroke="midnightblue" points="884.781,-269.788 882.28,-280.083 890.656,-273.595 884.781,-269.788"/>
</g>
<!-- Node27 -->
<g id="node23" class="node"><title>Node27</title>
<g id="a_node23"><a xlink:href="spec_2crypto_8h.html" target="_top" xlink:title="ODP crypto. ">
<polygon fill="white" stroke="black" points="739.5,-224.5 739.5,-243.5 795.5,-243.5 795.5,-224.5 739.5,-224.5"/>
<text text-anchor="middle" x="767.5" y="-231.5" font-family="Helvetica,sans-Serif" font-size="10.00">crypto.h</text>
</a>
</g>
</g>
<!-- Node24&#45;&gt;Node27 -->
<g id="edge25" class="edge"><title>Node24&#45;&gt;Node27</title>
<path fill="none" stroke="midnightblue" d="M849.981,-275.862C829.77,-265.849 802.513,-252.346 784.969,-243.655"/>
<polygon fill="midnightblue" stroke="midnightblue" points="848.473,-279.021 858.987,-280.324 851.58,-272.748 848.473,-279.021"/>
</g>
<!-- Node28 -->
<g id="node24" class="node"><title>Node28</title>
<g id="a_node24"><a xlink:href="spec_2event_8h.html" target="_top" xlink:title="ODP event. ">
<polygon fill="white" stroke="red" points="814,-224.5 814,-243.5 867,-243.5 867,-224.5 814,-224.5"/>
<text text-anchor="middle" x="840.5" y="-231.5" font-family="Helvetica,sans-Serif" font-size="10.00">event.h</text>
</a>
</g>
</g>
<!-- Node24&#45;&gt;Node28 -->
<g id="edge27" class="edge"><title>Node24&#45;&gt;Node28</title>
<path fill="none" stroke="midnightblue" d="M864.877,-271.566C858.683,-262.275 851.332,-251.248 846.334,-243.751"/>
<polygon fill="midnightblue" stroke="midnightblue" points="862.096,-273.704 870.555,-280.083 867.92,-269.821 862.096,-273.704"/>
</g>
<!-- Node24&#45;&gt;Node39 -->
<g id="edge28" class="edge"><title>Node24&#45;&gt;Node39</title>
<path fill="none" stroke="midnightblue" d="M905.273,-276.368C928.307,-266.255 959.984,-252.349 980.101,-243.516"/>
<polygon fill="midnightblue" stroke="midnightblue" points="903.739,-273.219 895.99,-280.444 906.553,-279.628 903.739,-273.219"/>
</g>
<!-- Node32 -->
<g id="node26" class="node"><title>Node32</title>
<g id="a_node26"><a xlink:href="spec_2packet__io_8h.html" target="_top" xlink:title="ODP Packet IO. ">
<polygon fill="white" stroke="black" points="526,-224.5 526,-243.5 597,-243.5 597,-224.5 526,-224.5"/>
<text text-anchor="middle" x="561.5" y="-231.5" font-family="Helvetica,sans-Serif" font-size="10.00">packet_io.h</text>
</a>
</g>
</g>
<!-- Node24&#45;&gt;Node32 -->
<g id="edge29" class="edge"><title>Node24&#45;&gt;Node32</title>
<path fill="none" stroke="midnightblue" d="M837.315,-282.283C775.592,-271.702 656.645,-251.311 597.175,-241.116"/>
<polygon fill="midnightblue" stroke="midnightblue" points="836.983,-285.777 847.43,-284.017 838.165,-278.877 836.983,-285.777"/>
</g>
<!-- Node27&#45;&gt;Node23 -->
<g id="edge26" class="edge"><title>Node27&#45;&gt;Node23</title>
<path fill="none" stroke="midnightblue" d="M761.988,-214.396C759.311,-205.362 756.222,-194.936 754.093,-187.751"/>
<polygon fill="midnightblue" stroke="midnightblue" points="758.661,-215.489 764.858,-224.083 765.373,-213.501 758.661,-215.489"/>
</g>
<!-- Node32&#45;&gt;Node33 -->
<g id="edge30" class="edge"><title>Node32&#45;&gt;Node33</title>
<path fill="none" stroke="midnightblue" d="M561.5,-213.805C561.5,-204.91 561.5,-194.78 561.5,-187.751"/>
<polygon fill="midnightblue" stroke="midnightblue" points="558,-214.083 561.5,-224.083 565,-214.083 558,-214.083"/>
</g>
<!-- Node33&#45;&gt;Node21 -->
<g id="edge33" class="edge"><title>Node33&#45;&gt;Node21</title>
<path fill="none" stroke="midnightblue" d="M601.609,-164.755C618.004,-157.741 635.635,-147.224 646.5,-132 671.699,-96.6901 668.802,-40.8192 666.586,-19.5785"/>
<polygon fill="midnightblue" stroke="midnightblue" points="600.173,-161.56 592.158,-168.49 602.745,-168.07 600.173,-161.56"/>
</g>
<!-- Node34 -->
<g id="node28" class="node"><title>Node34</title>
<g id="a_node28"><a xlink:href="spec_2classification_8h.html" target="_top" xlink:title="ODP classification descriptor. ">
<polygon fill="white" stroke="black" points="551.5,-112.5 551.5,-131.5 637.5,-131.5 637.5,-112.5 551.5,-112.5"/>
<text text-anchor="middle" x="594.5" y="-119.5" font-family="Helvetica,sans-Serif" font-size="10.00">classification.h</text>
</a>
</g>
</g>
<!-- Node33&#45;&gt;Node34 -->
<g id="edge31" class="edge"><title>Node33&#45;&gt;Node34</title>
<path fill="none" stroke="midnightblue" d="M572.332,-159.275C577.972,-150.045 584.618,-139.17 589.152,-131.751"/>
<polygon fill="midnightblue" stroke="midnightblue" points="569.177,-157.725 566.949,-168.083 575.15,-161.375 569.177,-157.725"/>
</g>
<!-- Node33&#45;&gt;Node35 -->
<g id="edge34" class="edge"><title>Node33&#45;&gt;Node35</title>
<path fill="none" stroke="midnightblue" d="M542.186,-162.101C529.588,-152.382 513.572,-140.027 502.951,-131.834"/>
<polygon fill="midnightblue" stroke="midnightblue" points="540.198,-164.987 550.253,-168.324 544.473,-159.445 540.198,-164.987"/>
</g>
<!-- Node34&#45;&gt;Node20 -->
<g id="edge32" class="edge"><title>Node34&#45;&gt;Node20</title>
<path fill="none" stroke="midnightblue" d="M594.5,-101.805C594.5,-92.9102 594.5,-82.7798 594.5,-75.7511"/>
<polygon fill="midnightblue" stroke="midnightblue" points="591,-102.083 594.5,-112.083 598,-102.083 591,-102.083"/>
</g>
<!-- Node31&#45;&gt;Node23 -->
<g id="edge37" class="edge"><title>Node31&#45;&gt;Node23</title>
<path fill="none" stroke="midnightblue" d="M657.211,-272.481C645.817,-258.856 634.308,-239.343 644.5,-224 661.895,-197.813 697.823,-186.832 723.238,-182.248"/>
<polygon fill="midnightblue" stroke="midnightblue" points="654.799,-275.032 664.096,-280.114 659.997,-270.344 654.799,-275.032"/>
</g>
<!-- Node31&#45;&gt;Node32 -->
<g id="edge38" class="edge"><title>Node31&#45;&gt;Node32</title>
<path fill="none" stroke="midnightblue" d="M646.251,-275.862C625.484,-265.849 597.477,-252.346 579.45,-243.655"/>
<polygon fill="midnightblue" stroke="midnightblue" points="644.977,-279.134 655.505,-280.324 648.018,-272.828 644.977,-279.134"/>
</g>
<!-- Node31&#45;&gt;Node37 -->
<g id="edge39" class="edge"><title>Node31&#45;&gt;Node37</title>
<path fill="none" stroke="midnightblue" d="M678.323,-270.396C680.665,-261.362 683.368,-250.936 685.231,-243.751"/>
<polygon fill="midnightblue" stroke="midnightblue" points="674.934,-269.525 675.812,-280.083 681.71,-271.281 674.934,-269.525"/>
</g>
<!-- Node42 -->
<g id="node33" class="node"><title>Node42</title>
<g id="a_node33"><a xlink:href="chksum_8h.html" target="_top" xlink:title="ODP checksum functions. ">
<polygon fill="white" stroke="black" points="1099,-224.5 1099,-243.5 1162,-243.5 1162,-224.5 1099,-224.5"/>
<text text-anchor="middle" x="1130.5" y="-231.5" font-family="Helvetica,sans-Serif" font-size="10.00">chksum.h</text>
</a>
</g>
</g>
<!-- Node41&#45;&gt;Node42 -->
<g id="edge41" class="edge"><title>Node41&#45;&gt;Node42</title>
<path fill="none" stroke="midnightblue" d="M1083.05,-273.82C1094.88,-264.145 1109.79,-251.948 1119.7,-243.834"/>
<polygon fill="midnightblue" stroke="midnightblue" points="1080.63,-271.283 1075.1,-280.324 1085.06,-276.7 1080.63,-271.283"/>
</g>
<!-- Node44 -->
<g id="node35" class="node"><title>Node44</title>
<g id="a_node35"><a xlink:href="cpu_8h.html" target="_top" xlink:title="ODP CPU. ">
<polygon fill="white" stroke="red" points="1180,-224.5 1180,-243.5 1223,-243.5 1223,-224.5 1180,-224.5"/>
<text text-anchor="middle" x="1201.5" y="-231.5" font-family="Helvetica,sans-Serif" font-size="10.00">cpu.h</text>
</a>
</g>
</g>
<!-- Node43&#45;&gt;Node44 -->
<g id="edge43" class="edge"><title>Node43&#45;&gt;Node44</title>
<path fill="none" stroke="midnightblue" d="M1154.05,-273.82C1165.88,-264.145 1180.79,-251.948 1190.7,-243.834"/>
<polygon fill="midnightblue" stroke="midnightblue" points="1151.63,-271.283 1146.1,-280.324 1156.06,-276.7 1151.63,-271.283"/>
</g>
<!-- Node47 -->
<g id="node37" class="node"><title>Node47</title>
<g id="a_node37"><a xlink:href="feature_8h.html" target="_top" xlink:title="ODP features. ">
<polygon fill="white" stroke="black" points="1279.5,-224.5 1279.5,-243.5 1339.5,-243.5 1339.5,-224.5 1279.5,-224.5"/>
<text text-anchor="middle" x="1309.5" y="-231.5" font-family="Helvetica,sans-Serif" font-size="10.00">feature.h</text>
</a>
</g>
</g>
<!-- Node46&#45;&gt;Node47 -->
<g id="edge45" class="edge"><title>Node46&#45;&gt;Node47</title>
<path fill="none" stroke="midnightblue" d="M1262.05,-273.82C1273.88,-264.145 1288.79,-251.948 1298.7,-243.834"/>
<polygon fill="midnightblue" stroke="midnightblue" points="1259.63,-271.283 1254.1,-280.324 1264.06,-276.7 1259.63,-271.283"/>
</g>
<!-- Node47&#45;&gt;Node48 -->
<g id="edge46" class="edge"><title>Node47&#45;&gt;Node48</title>
<path fill="none" stroke="midnightblue" d="M1299.82,-214.983C1294.9,-205.817 1289.14,-195.092 1285.2,-187.751"/>
<polygon fill="midnightblue" stroke="midnightblue" points="1296.9,-216.929 1304.71,-224.083 1303.06,-213.617 1296.9,-216.929"/>
</g>
<!-- Node49 -->
<g id="node39" class="node"><title>Node49</title>
<g id="a_node39"><a xlink:href="init_8h.html" target="_top" xlink:title="ODP initialization. ">
<polygon fill="white" stroke="red" points="1260.5,-112.5 1260.5,-131.5 1300.5,-131.5 1300.5,-112.5 1260.5,-112.5"/>
<text text-anchor="middle" x="1280.5" y="-119.5" font-family="Helvetica,sans-Serif" font-size="10.00">init.h</text>
</a>
</g>
</g>
<!-- Node48&#45;&gt;Node49 -->
<g id="edge47" class="edge"><title>Node48&#45;&gt;Node49</title>
<path fill="none" stroke="midnightblue" d="M1280.5,-157.805C1280.5,-148.91 1280.5,-138.78 1280.5,-131.751"/>
<polygon fill="midnightblue" stroke="midnightblue" points="1277,-158.083 1280.5,-168.083 1284,-158.083 1277,-158.083"/>
</g>
<!-- Node53 -->
<g id="node41" class="node"><title>Node53</title>
<g id="a_node41"><a xlink:href="hash_8h.html" target="_top" xlink:title="ODP Hash function. ">
<polygon fill="white" stroke="black" points="1358,-224.5 1358,-243.5 1407,-243.5 1407,-224.5 1358,-224.5"/>
<text text-anchor="middle" x="1382.5" y="-231.5" font-family="Helvetica,sans-Serif" font-size="10.00">hash.h</text>
</a>
</g>
</g>
<!-- Node52&#45;&gt;Node53 -->
<g id="edge49" class="edge"><title>Node52&#45;&gt;Node53</title>
<path fill="none" stroke="midnightblue" d="M1335.05,-273.82C1346.88,-264.145 1361.79,-251.948 1371.7,-243.834"/>
<polygon fill="midnightblue" stroke="midnightblue" points="1332.63,-271.283 1327.1,-280.324 1337.06,-276.7 1332.63,-271.283"/>
</g>
<!-- Node64&#45;&gt;Node32 -->
<g id="edge60" class="edge"><title>Node64&#45;&gt;Node32</title>
<path fill="none" stroke="midnightblue" d="M570.677,-270.396C568.335,-261.362 565.632,-250.936 563.769,-243.751"/>
<polygon fill="midnightblue" stroke="midnightblue" points="567.29,-271.281 573.188,-280.083 574.066,-269.525 567.29,-271.281"/>
</g>
</g>
</svg>
