<?xml version="1.0" encoding="UTF-8" standalone="no"?>
<!DOCTYPE svg PUBLIC "-//W3C//DTD SVG 1.1//EN"
 "http://www.w3.org/Graphics/SVG/1.1/DTD/svg11.dtd">
<!-- Generated by graphviz version 2.38.0 (20140413.2041)
 -->
<!-- Title: init.h Pages: 1 -->
<svg width="1281pt" height="431pt"
 viewBox="0.00 0.00 1280.73 431.00" xmlns="http://www.w3.org/2000/svg" xmlns:xlink="http://www.w3.org/1999/xlink">
<g id="graph0" class="graph" transform="scale(1 1) rotate(0) translate(4 427)">
<title>init.h</title>
<polygon fill="white" stroke="none" points="-4,4 -4,-427 1276.73,-427 1276.73,4 -4,4"/>
<!-- Node0 -->
<g id="node1" class="node"><title>Node0</title>
<polygon fill="#bfbfbf" stroke="black" points="484,-403.5 484,-422.5 524,-422.5 524,-403.5 484,-403.5"/>
<text text-anchor="middle" x="504" y="-410.5" font-family="Helvetica,sans-Serif" font-size="10.00">init.h</text>
</g>
<!-- Node1 -->
<g id="node2" class="node"><title>Node1</title>
<polygon fill="white" stroke="#bfbfbf" points="103.5,-0.5 103.5,-19.5 218.5,-19.5 218.5,-0.5 103.5,-0.5"/>
<text text-anchor="middle" x="161" y="-7.5" font-family="Helvetica,sans-Serif" font-size="10.00">odp/visibility_begin.h</text>
</g>
<!-- Node0&#45;&gt;Node1 -->
<g id="edge1" class="edge"><title>Node0&#45;&gt;Node1</title>
<path fill="none" stroke="midnightblue" d="M483.932,-411.986C390.194,-411.393 0,-402.867 0,-302 0,-302 0,-302 0,-132 0,-72.589 70.9259,-38.7389 118.627,-22.6912"/>
<polygon fill="midnightblue" stroke="midnightblue" points="119.976,-25.9338 128.419,-19.5342 117.828,-19.2715 119.976,-25.9338"/>
</g>
<!-- Node2 -->
<g id="node3" class="node"><title>Node2</title>
<g id="a_node3"><a xlink:href="std__types_8h.html" target="_top" xlink:title="Standard C language types and definitions for ODP. ">
<polygon fill="white" stroke="black" points="359,-235.5 359,-254.5 469,-254.5 469,-235.5 359,-235.5"/>
<text text-anchor="middle" x="414" y="-242.5" font-family="Helvetica,sans-Serif" font-size="10.00">odp/api/std_types.h</text>
</a>
</g>
</g>
<!-- Node0&#45;&gt;Node2 -->
<g id="edge2" class="edge"><title>Node0&#45;&gt;Node2</title>
<path fill="none" stroke="midnightblue" d="M487.831,-403.443C474.651,-395.651 456.552,-382.941 446,-367 424.885,-335.104 417.678,-289.858 415.236,-264.705"/>
<polygon fill="midnightblue" stroke="midnightblue" points="418.72,-264.363 414.416,-254.682 411.743,-264.934 418.72,-264.363"/>
</g>
<!-- Node9 -->
<g id="node10" class="node"><title>Node9</title>
<polygon fill="white" stroke="#bfbfbf" points="533.5,-0.5 533.5,-19.5 640.5,-19.5 640.5,-0.5 533.5,-0.5"/>
<text text-anchor="middle" x="587" y="-7.5" font-family="Helvetica,sans-Serif" font-size="10.00">odp/visibility_end.h</text>
</g>
<!-- Node0&#45;&gt;Node9 -->
<g id="edge33" class="edge"><title>Node0&#45;&gt;Node9</title>
<path fill="none" stroke="midnightblue" d="M524.121,-411.295C645.138,-406.796 1271,-379.771 1271,-302 1271,-302 1271,-302 1271,-132 1271,-97.0722 1277.93,-78.2482 1251,-56 1205.41,-18.3264 807.976,-12.1299 650.689,-11.1588"/>
<polygon fill="midnightblue" stroke="midnightblue" points="650.702,-7.65892 640.682,-11.1021 650.662,-14.6588 650.702,-7.65892"/>
</g>
<!-- Node10 -->
<g id="node11" class="node"><title>Node10</title>
<g id="a_node11"><a xlink:href="hints_8h.html" target="_top" xlink:title="ODP compiler hints. ">
<polygon fill="white" stroke="black" points="165.5,-347.5 165.5,-366.5 252.5,-366.5 252.5,-347.5 165.5,-347.5"/>
<text text-anchor="middle" x="209" y="-354.5" font-family="Helvetica,sans-Serif" font-size="10.00">odp/api/hints.h</text>
</a>
</g>
</g>
<!-- Node0&#45;&gt;Node10 -->
<g id="edge13" class="edge"><title>Node0&#45;&gt;Node10</title>
<path fill="none" stroke="midnightblue" d="M483.723,-408.288C438.654,-400.038 328.913,-379.95 262.575,-367.807"/>
<polygon fill="midnightblue" stroke="midnightblue" points="263.184,-364.36 252.717,-366.002 261.923,-371.246 263.184,-364.36"/>
</g>
<!-- Node12 -->
<g id="node13" class="node"><title>Node12</title>
<g id="a_node13"><a xlink:href="feature_8h.html" target="_top" xlink:title="ODP features. ">
<polygon fill="white" stroke="black" points="455,-347.5 455,-366.5 553,-366.5 553,-347.5 455,-347.5"/>
<text text-anchor="middle" x="504" y="-354.5" font-family="Helvetica,sans-Serif" font-size="10.00">odp/api/feature.h</text>
</a>
</g>
</g>
<!-- Node0&#45;&gt;Node12 -->
<g id="edge17" class="edge"><title>Node0&#45;&gt;Node12</title>
<path fill="none" stroke="midnightblue" d="M504,-403.083C504,-396.006 504,-385.861 504,-376.986"/>
<polygon fill="midnightblue" stroke="midnightblue" points="507.5,-376.751 504,-366.751 500.5,-376.751 507.5,-376.751"/>
</g>
<!-- Node14 -->
<g id="node15" class="node"><title>Node14</title>
<g id="a_node15"><a xlink:href="thread_8h.html" target="_top" xlink:title="ODP thread API. ">
<polygon fill="white" stroke="black" points="768.5,-123.5 768.5,-142.5 863.5,-142.5 863.5,-123.5 768.5,-123.5"/>
<text text-anchor="middle" x="816" y="-130.5" font-family="Helvetica,sans-Serif" font-size="10.00">odp/api/thread.h</text>
</a>
</g>
</g>
<!-- Node0&#45;&gt;Node14 -->
<g id="edge22" class="edge"><title>Node0&#45;&gt;Node14</title>
<path fill="none" stroke="midnightblue" d="M524.139,-411.798C615.55,-410.352 987,-398.536 987,-302 987,-302 987,-302 987,-244 987,-187.741 920.724,-158.898 870.693,-145.139"/>
<polygon fill="midnightblue" stroke="midnightblue" points="871.488,-141.729 860.928,-142.584 869.717,-148.501 871.488,-141.729"/>
</g>
<!-- Node18 -->
<g id="node19" class="node"><title>Node18</title>
<g id="a_node19"><a xlink:href="cpumask_8h.html" target="_top" xlink:title="ODP CPU masks and enumeration. ">
<polygon fill="white" stroke="black" points="977.5,-123.5 977.5,-142.5 1084.5,-142.5 1084.5,-123.5 977.5,-123.5"/>
<text text-anchor="middle" x="1031" y="-130.5" font-family="Helvetica,sans-Serif" font-size="10.00">odp/api/cpumask.h</text>
</a>
</g>
</g>
<!-- Node0&#45;&gt;Node18 -->
<g id="edge28" class="edge"><title>Node0&#45;&gt;Node18</title>
<path fill="none" stroke="midnightblue" d="M524.22,-412.15C620.519,-412.336 1028,-406.923 1028,-302 1028,-302 1028,-302 1028,-244 1028,-211.936 1029.29,-174.634 1030.18,-152.745"/>
<polygon fill="midnightblue" stroke="midnightblue" points="1033.68,-152.694 1030.61,-142.556 1026.69,-152.399 1033.68,-152.694"/>
</g>
<!-- Node3 -->
<g id="node4" class="node"><title>Node3</title>
<polygon fill="white" stroke="#bfbfbf" points="200,-179.5 200,-198.5 328,-198.5 328,-179.5 200,-179.5"/>
<text text-anchor="middle" x="264" y="-186.5" font-family="Helvetica,sans-Serif" font-size="10.00">odp/api/abi/std_types.h</text>
</g>
<!-- Node2&#45;&gt;Node3 -->
<g id="edge3" class="edge"><title>Node2&#45;&gt;Node3</title>
<path fill="none" stroke="midnightblue" d="M390.232,-235.444C365.107,-226.399 325.289,-212.064 297.1,-201.916"/>
<polygon fill="midnightblue" stroke="midnightblue" points="298.251,-198.611 287.657,-198.516 295.88,-205.197 298.251,-198.611"/>
</g>
<!-- Node4 -->
<g id="node5" class="node"><title>Node4</title>
<g id="a_node5"><a xlink:href="spec_2std__types_8h.html" target="_top" xlink:title="Standard C language types and definitions for ODP. ">
<polygon fill="white" stroke="black" points="346,-179.5 346,-198.5 482,-198.5 482,-179.5 346,-179.5"/>
<text text-anchor="middle" x="414" y="-186.5" font-family="Helvetica,sans-Serif" font-size="10.00">odp/api/spec/std_types.h</text>
</a>
</g>
</g>
<!-- Node2&#45;&gt;Node4 -->
<g id="edge4" class="edge"><title>Node2&#45;&gt;Node4</title>
<path fill="none" stroke="midnightblue" d="M414,-235.083C414,-228.006 414,-217.861 414,-208.986"/>
<polygon fill="midnightblue" stroke="midnightblue" points="417.5,-208.751 414,-198.751 410.5,-208.751 417.5,-208.751"/>
</g>
<!-- Node4&#45;&gt;Node1 -->
<g id="edge5" class="edge"><title>Node4&#45;&gt;Node1</title>
<path fill="none" stroke="midnightblue" d="M363.963,-179.494C282.513,-164.515 127.091,-130.822 95,-87 86.8597,-75.8841 88.5622,-68.1812 95,-56 102.424,-41.9533 116.421,-31.4667 129.621,-24.167"/>
<polygon fill="midnightblue" stroke="midnightblue" points="131.223,-27.2788 138.541,-19.6178 128.043,-21.0428 131.223,-27.2788"/>
</g>
<!-- Node5 -->
<g id="node6" class="node"><title>Node5</title>
<polygon fill="white" stroke="#bfbfbf" points="299.5,-123.5 299.5,-142.5 352.5,-142.5 352.5,-123.5 299.5,-123.5"/>
<text text-anchor="middle" x="326" y="-130.5" font-family="Helvetica,sans-Serif" font-size="10.00">stdint.h</text>
</g>
<!-- Node4&#45;&gt;Node5 -->
<g id="edge6" class="edge"><title>Node4&#45;&gt;Node5</title>
<path fill="none" stroke="midnightblue" d="M399.861,-179.324C386.134,-170.9 365.064,-157.971 348.936,-148.074"/>
<polygon fill="midnightblue" stroke="midnightblue" points="350.457,-144.902 340.104,-142.655 346.796,-150.868 350.457,-144.902"/>
</g>
<!-- Node6 -->
<g id="node7" class="node"><title>Node6</title>
<g id="a_node7"><a xlink:href="align_8h.html" target="_top" xlink:title="ODP alignments. ">
<polygon fill="white" stroke="black" points="371,-123.5 371,-142.5 457,-142.5 457,-123.5 371,-123.5"/>
<text text-anchor="middle" x="414" y="-130.5" font-family="Helvetica,sans-Serif" font-size="10.00">odp/api/align.h</text>
</a>
</g>
</g>
<!-- Node4&#45;&gt;Node6 -->
<g id="edge7" class="edge"><title>Node4&#45;&gt;Node6</title>
<path fill="none" stroke="midnightblue" d="M414,-179.083C414,-172.006 414,-161.861 414,-152.986"/>
<polygon fill="midnightblue" stroke="midnightblue" points="417.5,-152.751 414,-142.751 410.5,-152.751 417.5,-152.751"/>
</g>
<!-- Node4&#45;&gt;Node9 -->
<g id="edge12" class="edge"><title>Node4&#45;&gt;Node9</title>
<path fill="none" stroke="midnightblue" d="M426.153,-179.32C437.386,-170.897 454.09,-157.319 466,-143 494.662,-108.542 485.965,-88.3379 517,-56 529.273,-43.2115 545.86,-32.3451 559.807,-24.4959"/>
<polygon fill="midnightblue" stroke="midnightblue" points="561.819,-27.3875 568.956,-19.5572 558.493,-21.2277 561.819,-27.3875"/>
</g>
<!-- Node7 -->
<g id="node8" class="node"><title>Node7</title>
<polygon fill="white" stroke="#bfbfbf" points="236,-62 236,-81 340,-81 340,-62 236,-62"/>
<text text-anchor="middle" x="288" y="-69" font-family="Helvetica,sans-Serif" font-size="10.00">odp/api/abi/align.h</text>
</g>
<!-- Node6&#45;&gt;Node7 -->
<g id="edge8" class="edge"><title>Node6&#45;&gt;Node7</title>
<path fill="none" stroke="midnightblue" d="M395.947,-123.475C374.802,-113.49 339.56,-96.8476 315.122,-85.3075"/>
<polygon fill="midnightblue" stroke="midnightblue" points="316.556,-82.1143 306.019,-81.0091 313.567,-88.4441 316.556,-82.1143"/>
</g>
<!-- Node8 -->
<g id="node9" class="node"><title>Node8</title>
<g id="a_node9"><a xlink:href="spec_2align_8h.html" target="_top" xlink:title="ODP alignments. ">
<polygon fill="white" stroke="black" points="358,-62 358,-81 470,-81 470,-62 358,-62"/>
<text text-anchor="middle" x="414" y="-69" font-family="Helvetica,sans-Serif" font-size="10.00">odp/api/spec/align.h</text>
</a>
</g>
</g>
<!-- Node6&#45;&gt;Node8 -->
<g id="edge9" class="edge"><title>Node6&#45;&gt;Node8</title>
<path fill="none" stroke="midnightblue" d="M414,-123.475C414,-115.08 414,-101.981 414,-91.1631"/>
<polygon fill="midnightblue" stroke="midnightblue" points="417.5,-91.0091 414,-81.0091 410.5,-91.0091 417.5,-91.0091"/>
</g>
<!-- Node8&#45;&gt;Node1 -->
<g id="edge10" class="edge"><title>Node8&#45;&gt;Node1</title>
<path fill="none" stroke="midnightblue" d="M377.751,-61.9751C332.85,-51.4153 256.294,-33.411 207.216,-21.8689"/>
<polygon fill="midnightblue" stroke="midnightblue" points="207.717,-18.3914 197.181,-19.5091 206.115,-25.2055 207.717,-18.3914"/>
</g>
<!-- Node8&#45;&gt;Node9 -->
<g id="edge11" class="edge"><title>Node8&#45;&gt;Node9</title>
<path fill="none" stroke="midnightblue" d="M438.787,-61.9751C468.591,-51.7246 518.791,-34.4593 552.402,-22.8994"/>
<polygon fill="midnightblue" stroke="midnightblue" points="553.941,-26.0712 562.259,-19.5091 551.665,-19.4518 553.941,-26.0712"/>
</g>
<!-- Node11 -->
<g id="node12" class="node"><title>Node11</title>
<g id="a_node12"><a xlink:href="spec_2hints_8h.html" target="_top" xlink:title="ODP compiler hints. ">
<polygon fill="white" stroke="black" points="104.5,-62 104.5,-81 217.5,-81 217.5,-62 104.5,-62"/>
<text text-anchor="middle" x="161" y="-69" font-family="Helvetica,sans-Serif" font-size="10.00">odp/api/spec/hints.h</text>
</a>
</g>
</g>
<!-- Node10&#45;&gt;Node11 -->
<g id="edge14" class="edge"><title>Node10&#45;&gt;Node11</title>
<path fill="none" stroke="midnightblue" d="M182.085,-347.41C143.222,-333.126 76,-300.535 76,-246 76,-246 76,-246 76,-188 76,-144.794 115.06,-107.09 140.224,-87.2827"/>
<polygon fill="midnightblue" stroke="midnightblue" points="142.601,-89.8724 148.458,-81.0434 138.374,-84.2931 142.601,-89.8724"/>
</g>
<!-- Node11&#45;&gt;Node1 -->
<g id="edge15" class="edge"><title>Node11&#45;&gt;Node1</title>
<path fill="none" stroke="midnightblue" d="M161,-61.9751C161,-53.5803 161,-40.4806 161,-29.6631"/>
<polygon fill="midnightblue" stroke="midnightblue" points="164.5,-29.5091 161,-19.5091 157.5,-29.5091 164.5,-29.5091"/>
</g>
<!-- Node11&#45;&gt;Node9 -->
<g id="edge16" class="edge"><title>Node11&#45;&gt;Node9</title>
<path fill="none" stroke="midnightblue" d="M196.849,-61.9964C206.595,-59.8564 217.172,-57.6901 227,-56 330.096,-38.2702 450.942,-24.6052 523.116,-17.1931"/>
<polygon fill="midnightblue" stroke="midnightblue" points="523.81,-20.6406 533.404,-16.1451 523.1,-13.6767 523.81,-20.6406"/>
</g>
<!-- Node13 -->
<g id="node14" class="node"><title>Node13</title>
<g id="a_node14"><a xlink:href="spec_2feature_8h.html" target="_top" xlink:title="ODP features. ">
<polygon fill="white" stroke="black" points="442,-291.5 442,-310.5 566,-310.5 566,-291.5 442,-291.5"/>
<text text-anchor="middle" x="504" y="-298.5" font-family="Helvetica,sans-Serif" font-size="10.00">odp/api/spec/feature.h</text>
</a>
</g>
</g>
<!-- Node12&#45;&gt;Node13 -->
<g id="edge18" class="edge"><title>Node12&#45;&gt;Node13</title>
<path fill="none" stroke="midnightblue" d="M504,-347.083C504,-340.006 504,-329.861 504,-320.986"/>
<polygon fill="midnightblue" stroke="midnightblue" points="507.5,-320.751 504,-310.751 500.5,-320.751 507.5,-320.751"/>
</g>
<!-- Node13&#45;&gt;Node1 -->
<g id="edge19" class="edge"><title>Node13&#45;&gt;Node1</title>
<path fill="none" stroke="midnightblue" d="M441.637,-298.232C314.656,-292.934 38,-271.983 38,-190 38,-190 38,-190 38,-132 38,-79.6171 95.3946,-42.3381 131.772,-23.9712"/>
<polygon fill="midnightblue" stroke="midnightblue" points="133.5,-27.0225 140.964,-19.5031 130.44,-20.7268 133.5,-27.0225"/>
</g>
<!-- Node13&#45;&gt;Node2 -->
<g id="edge20" class="edge"><title>Node13&#45;&gt;Node2</title>
<path fill="none" stroke="midnightblue" d="M489.54,-291.324C475.5,-282.9 453.952,-269.971 437.457,-260.074"/>
<polygon fill="midnightblue" stroke="midnightblue" points="438.8,-256.798 428.424,-254.655 435.198,-262.801 438.8,-256.798"/>
</g>
<!-- Node13&#45;&gt;Node9 -->
<g id="edge21" class="edge"><title>Node13&#45;&gt;Node9</title>
<path fill="none" stroke="midnightblue" d="M526.15,-291.352C592.785,-265.378 797.324,-185.962 968,-123 1012.71,-106.507 1041.54,-125.945 1069,-87 1076.94,-75.7403 1078.28,-66.1851 1069,-56 1041.37,-25.6715 775.477,-15.4288 650.859,-12.2757"/>
<polygon fill="midnightblue" stroke="midnightblue" points="650.775,-8.77265 640.692,-12.0263 650.604,-15.7705 650.775,-8.77265"/>
</g>
<!-- Node15 -->
<g id="node16" class="node"><title>Node15</title>
<g id="a_node16"><a xlink:href="thread__types_8h.html" target="_top" xlink:title="ODP thread API types. ">
<polygon fill="white" stroke="black" points="797,-56.5 797,-86.5 909,-86.5 909,-56.5 797,-56.5"/>
<text text-anchor="start" x="805" y="-74.5" font-family="Helvetica,sans-Serif" font-size="10.00">odp/api/spec/thread</text>
<text text-anchor="middle" x="853" y="-63.5" font-family="Helvetica,sans-Serif" font-size="10.00">_types.h</text>
</a>
</g>
</g>
<!-- Node14&#45;&gt;Node15 -->
<g id="edge23" class="edge"><title>Node14&#45;&gt;Node15</title>
<path fill="none" stroke="midnightblue" d="M821.301,-123.475C825.891,-116.094 832.742,-105.077 838.902,-95.1714"/>
<polygon fill="midnightblue" stroke="midnightblue" points="841.971,-96.8632 844.28,-86.523 836.027,-93.1667 841.971,-96.8632"/>
</g>
<!-- Node16 -->
<g id="node17" class="node"><title>Node16</title>
<polygon fill="white" stroke="#bfbfbf" points="665.5,-62 665.5,-81 778.5,-81 778.5,-62 665.5,-62"/>
<text text-anchor="middle" x="722" y="-69" font-family="Helvetica,sans-Serif" font-size="10.00">odp/api/abi/thread.h</text>
</g>
<!-- Node14&#45;&gt;Node16 -->
<g id="edge24" class="edge"><title>Node14&#45;&gt;Node16</title>
<path fill="none" stroke="midnightblue" d="M802.532,-123.475C787.315,-113.843 762.313,-98.0175 744.199,-86.5517"/>
<polygon fill="midnightblue" stroke="midnightblue" points="745.764,-83.4002 735.443,-81.0091 742.021,-89.3149 745.764,-83.4002"/>
</g>
<!-- Node17 -->
<g id="node18" class="node"><title>Node17</title>
<g id="a_node18"><a xlink:href="spec_2thread_8h.html" target="_top" xlink:title="ODP thread API. ">
<polygon fill="white" stroke="black" points="526.5,-62 526.5,-81 647.5,-81 647.5,-62 526.5,-62"/>
<text text-anchor="middle" x="587" y="-69" font-family="Helvetica,sans-Serif" font-size="10.00">odp/api/spec/thread.h</text>
</a>
</g>
</g>
<!-- Node14&#45;&gt;Node17 -->
<g id="edge25" class="edge"><title>Node14&#45;&gt;Node17</title>
<path fill="none" stroke="midnightblue" d="M783.19,-123.475C742.803,-112.982 674.123,-95.1367 629.671,-83.587"/>
<polygon fill="midnightblue" stroke="midnightblue" points="630.308,-80.1364 619.749,-81.0091 628.548,-86.9114 630.308,-80.1364"/>
</g>
<!-- Node17&#45;&gt;Node1 -->
<g id="edge26" class="edge"><title>Node17&#45;&gt;Node1</title>
<path fill="none" stroke="midnightblue" d="M526.417,-62.0383C447.694,-51.043 310.641,-31.9005 228.614,-20.4437"/>
<polygon fill="midnightblue" stroke="midnightblue" points="229.033,-16.9684 218.645,-19.0514 228.065,-23.9011 229.033,-16.9684"/>
</g>
<!-- Node17&#45;&gt;Node9 -->
<g id="edge27" class="edge"><title>Node17&#45;&gt;Node9</title>
<path fill="none" stroke="midnightblue" d="M587,-61.9751C587,-53.5803 587,-40.4806 587,-29.6631"/>
<polygon fill="midnightblue" stroke="midnightblue" points="590.5,-29.5091 587,-19.5091 583.5,-29.5091 590.5,-29.5091"/>
</g>
<!-- Node19 -->
<g id="node20" class="node"><title>Node19</title>
<polygon fill="white" stroke="#bfbfbf" points="1117.5,-62 1117.5,-81 1242.5,-81 1242.5,-62 1117.5,-62"/>
<text text-anchor="middle" x="1180" y="-69" font-family="Helvetica,sans-Serif" font-size="10.00">odp/api/abi/cpumask.h</text>
</g>
<!-- Node18&#45;&gt;Node19 -->
<g id="edge29" class="edge"><title>Node18&#45;&gt;Node19</title>
<path fill="none" stroke="midnightblue" d="M1052.35,-123.475C1077.69,-113.357 1120.14,-96.4046 1149.07,-84.8507"/>
<polygon fill="midnightblue" stroke="midnightblue" points="1150.7,-87.9681 1158.69,-81.0091 1148.11,-81.4673 1150.7,-87.9681"/>
</g>
<!-- Node20 -->
<g id="node21" class="node"><title>Node20</title>
<g id="a_node21"><a xlink:href="spec_2cpumask_8h.html" target="_top" xlink:title="ODP CPU masks and enumeration. ">
<polygon fill="white" stroke="black" points="927.5,-62 927.5,-81 1060.5,-81 1060.5,-62 927.5,-62"/>
<text text-anchor="middle" x="994" y="-69" font-family="Helvetica,sans-Serif" font-size="10.00">odp/api/spec/cpumask.h</text>
</a>
</g>
</g>
<!-- Node18&#45;&gt;Node20 -->
<g id="edge30" class="edge"><title>Node18&#45;&gt;Node20</title>
<path fill="none" stroke="midnightblue" d="M1025.7,-123.475C1020.26,-114.727 1011.64,-100.869 1004.76,-89.8093"/>
<polygon fill="midnightblue" stroke="midnightblue" points="1007.54,-87.6528 999.291,-81.0091 1001.6,-91.3494 1007.54,-87.6528"/>
</g>
<!-- Node20&#45;&gt;Node1 -->
<g id="edge31" class="edge"><title>Node20&#45;&gt;Node1</title>
<path fill="none" stroke="midnightblue" d="M954.315,-61.926C942.663,-59.6809 929.863,-57.478 918,-56 664.935,-24.4711 361.433,-14.8915 228.707,-12.0962"/>
<polygon fill="midnightblue" stroke="midnightblue" points="228.755,-8.59657 218.686,-11.8913 228.612,-15.5951 228.755,-8.59657"/>
</g>
<!-- Node20&#45;&gt;Node9 -->
<g id="edge32" class="edge"><title>Node20&#45;&gt;Node9</title>
<path fill="none" stroke="midnightblue" d="M951.463,-61.9696C940.575,-59.9001 928.871,-57.7747 918,-56 825.313,-40.8688 717.441,-26.8743 650.683,-18.633"/>
<polygon fill="midnightblue" stroke="midnightblue" points="651.087,-15.1564 640.734,-17.4099 650.233,-22.1041 651.087,-15.1564"/>
</g>
</g>
</svg>
