<?xml version="1.0" encoding="UTF-8" standalone="no"?>
<!DOCTYPE svg PUBLIC "-//W3C//DTD SVG 1.1//EN"
 "http://www.w3.org/Graphics/SVG/1.1/DTD/svg11.dtd">
<!-- Generated by graphviz version 2.38.0 (20140413.2041)
 -->
<!-- Title: packet_io.h Pages: 1 -->
<svg width="234pt" height="308pt"
 viewBox="0.00 0.00 233.50 308.00" xmlns="http://www.w3.org/2000/svg" xmlns:xlink="http://www.w3.org/1999/xlink">
<g id="graph0" class="graph" transform="scale(1 1) rotate(0) translate(4 304)">
<title>packet_io.h</title>
<polygon fill="white" stroke="none" points="-4,4 -4,-304 229.5,-304 229.5,4 -4,4"/>
<!-- Node35 -->
<g id="node1" class="node"><title>Node35</title>
<polygon fill="#bfbfbf" stroke="black" points="78.5,-280.5 78.5,-299.5 149.5,-299.5 149.5,-280.5 78.5,-280.5"/>
<text text-anchor="middle" x="114" y="-287.5" font-family="Helvetica,sans-Serif" font-size="10.00">packet_io.h</text>
</g>
<!-- Node36 -->
<g id="node2" class="node"><title>Node36</title>
<g id="a_node2"><a xlink:href="packet__io_8h.html" target="_top" xlink:title="ODP Packet IO. ">
<polygon fill="white" stroke="black" points="78.5,-224.5 78.5,-243.5 149.5,-243.5 149.5,-224.5 78.5,-224.5"/>
<text text-anchor="middle" x="114" y="-231.5" font-family="Helvetica,sans-Serif" font-size="10.00">packet_io.h</text>
</a>
</g>
</g>
<!-- Node35&#45;&gt;Node36 -->
<g id="edge1" class="edge"><title>Node35&#45;&gt;Node36</title>
<path fill="none" stroke="midnightblue" d="M114,-269.805C114,-260.91 114,-250.78 114,-243.751"/>
<polygon fill="midnightblue" stroke="midnightblue" points="110.5,-270.083 114,-280.083 117.5,-270.083 110.5,-270.083"/>
</g>
<!-- Node37 -->
<g id="node3" class="node"><title>Node37</title>
<g id="a_node3"><a xlink:href="spec_2classification_8h.html" target="_top" xlink:title="ODP classification descriptor. ">
<polygon fill="white" stroke="black" points="0,-168.5 0,-187.5 86,-187.5 86,-168.5 0,-168.5"/>
<text text-anchor="middle" x="43" y="-175.5" font-family="Helvetica,sans-Serif" font-size="10.00">classification.h</text>
</a>
</g>
</g>
<!-- Node36&#45;&gt;Node37 -->
<g id="edge2" class="edge"><title>Node36&#45;&gt;Node37</title>
<path fill="none" stroke="midnightblue" d="M94.4103,-218.101C81.6324,-208.382 65.3873,-196.027 54.6149,-187.834"/>
<polygon fill="midnightblue" stroke="midnightblue" points="92.5143,-221.056 102.593,-224.324 96.7519,-215.484 92.5143,-221.056"/>
</g>
<!-- Node39 -->
<g id="node5" class="node"><title>Node39</title>
<g id="a_node5"><a xlink:href="spec_2ipsec_8h.html" target="_top" xlink:title="ODP IPSEC API. ">
<polygon fill="white" stroke="black" points="89,-56.5 89,-75.5 139,-75.5 139,-56.5 89,-56.5"/>
<text text-anchor="middle" x="114" y="-63.5" font-family="Helvetica,sans-Serif" font-size="10.00">ipsec.h</text>
</a>
</g>
</g>
<!-- Node36&#45;&gt;Node39 -->
<g id="edge6" class="edge"><title>Node36&#45;&gt;Node39</title>
<path fill="none" stroke="midnightblue" d="M114,-213.93C114,-177.92 114,-101.231 114,-75.5681"/>
<polygon fill="midnightblue" stroke="midnightblue" points="110.5,-214.075 114,-224.075 117.5,-214.075 110.5,-214.075"/>
</g>
<!-- Node41 -->
<g id="node7" class="node"><title>Node41</title>
<g id="a_node7"><a xlink:href="spec_2traffic__mngr_8h.html" target="_top" xlink:title="Copyright (c) 2015&#45;2018, Linaro Limited All rights reserved. ">
<polygon fill="white" stroke="black" points="142.5,-168.5 142.5,-187.5 225.5,-187.5 225.5,-168.5 142.5,-168.5"/>
<text text-anchor="middle" x="184" y="-175.5" font-family="Helvetica,sans-Serif" font-size="10.00">traffic_mngr.h</text>
</a>
</g>
</g>
<!-- Node36&#45;&gt;Node41 -->
<g id="edge7" class="edge"><title>Node36&#45;&gt;Node41</title>
<path fill="none" stroke="midnightblue" d="M133.314,-218.101C145.912,-208.382 161.928,-196.027 172.549,-187.834"/>
<polygon fill="midnightblue" stroke="midnightblue" points="131.027,-215.445 125.247,-224.324 135.302,-220.987 131.027,-215.445"/>
</g>
<!-- Node38 -->
<g id="node4" class="node"><title>Node38</title>
<g id="a_node4"><a xlink:href="classification_8h.html" target="_top" xlink:title="ODP classification descriptor. ">
<polygon fill="white" stroke="black" points="0,-112.5 0,-131.5 86,-131.5 86,-112.5 0,-112.5"/>
<text text-anchor="middle" x="43" y="-119.5" font-family="Helvetica,sans-Serif" font-size="10.00">classification.h</text>
</a>
</g>
</g>
<!-- Node37&#45;&gt;Node38 -->
<g id="edge3" class="edge"><title>Node37&#45;&gt;Node38</title>
<path fill="none" stroke="midnightblue" d="M43,-157.805C43,-148.91 43,-138.78 43,-131.751"/>
<polygon fill="midnightblue" stroke="midnightblue" points="39.5001,-158.083 43,-168.083 46.5001,-158.083 39.5001,-158.083"/>
</g>
<!-- Node38&#45;&gt;Node39 -->
<g id="edge4" class="edge"><title>Node38&#45;&gt;Node39</title>
<path fill="none" stroke="midnightblue" d="M62.5897,-106.101C75.3676,-96.3824 91.6127,-84.0269 102.385,-75.8339"/>
<polygon fill="midnightblue" stroke="midnightblue" points="60.2481,-103.484 54.4074,-112.324 64.4857,-109.056 60.2481,-103.484"/>
</g>
<!-- Node40 -->
<g id="node6" class="node"><title>Node40</title>
<g id="a_node6"><a xlink:href="ipsec_8h.html" target="_top" xlink:title="ODP IPSEC API &#45; platform specific header. ">
<polygon fill="white" stroke="black" points="89,-0.5 89,-19.5 139,-19.5 139,-0.5 89,-0.5"/>
<text text-anchor="middle" x="114" y="-7.5" font-family="Helvetica,sans-Serif" font-size="10.00">ipsec.h</text>
</a>
</g>
</g>
<!-- Node39&#45;&gt;Node40 -->
<g id="edge5" class="edge"><title>Node39&#45;&gt;Node40</title>
<path fill="none" stroke="midnightblue" d="M114,-45.8045C114,-36.9102 114,-26.7798 114,-19.7511"/>
<polygon fill="midnightblue" stroke="midnightblue" points="110.5,-46.083 114,-56.083 117.5,-46.083 110.5,-46.083"/>
</g>
<!-- Node42 -->
<g id="node8" class="node"><title>Node42</title>
<g id="a_node8"><a xlink:href="traffic__mngr_8h.html" target="_top" xlink:title="ODP Traffic manager. ">
<polygon fill="white" stroke="black" points="142.5,-112.5 142.5,-131.5 225.5,-131.5 225.5,-112.5 142.5,-112.5"/>
<text text-anchor="middle" x="184" y="-119.5" font-family="Helvetica,sans-Serif" font-size="10.00">traffic_mngr.h</text>
</a>
</g>
</g>
<!-- Node41&#45;&gt;Node42 -->
<g id="edge8" class="edge"><title>Node41&#45;&gt;Node42</title>
<path fill="none" stroke="midnightblue" d="M184,-157.805C184,-148.91 184,-138.78 184,-131.751"/>
<polygon fill="midnightblue" stroke="midnightblue" points="180.5,-158.083 184,-168.083 187.5,-158.083 180.5,-158.083"/>
</g>
<!-- Node42&#45;&gt;Node39 -->
<g id="edge9" class="edge"><title>Node42&#45;&gt;Node39</title>
<path fill="none" stroke="midnightblue" d="M164.686,-106.101C152.088,-96.3824 136.072,-84.0269 125.451,-75.8339"/>
<polygon fill="midnightblue" stroke="midnightblue" points="162.698,-108.987 172.753,-112.324 166.973,-103.445 162.698,-108.987"/>
</g>
</g>
</svg>
