<?xml version="1.0" encoding="UTF-8" standalone="no"?>
<!DOCTYPE svg PUBLIC "-//W3C//DTD SVG 1.1//EN"
 "http://www.w3.org/Graphics/SVG/1.1/DTD/svg11.dtd">
<!-- Generated by graphviz version 2.38.0 (20140413.2041)
 -->
<!-- Title: odp_system_info_t Pages: 1 -->
<svg width="122pt" height="106pt"
 viewBox="0.00 0.00 121.50 106.00" xmlns="http://www.w3.org/2000/svg" xmlns:xlink="http://www.w3.org/1999/xlink">
<g id="graph0" class="graph" transform="scale(1 1) rotate(0) translate(4 102)">
<title>odp_system_info_t</title>
<polygon fill="white" stroke="none" points="-4,4 -4,-102 117.5,-102 117.5,4 -4,4"/>
<!-- Node1 -->
<g id="node1" class="node"><title>Node1</title>
<polygon fill="#bfbfbf" stroke="black" points="2,-0.5 2,-19.5 109,-19.5 109,-0.5 2,-0.5"/>
<text text-anchor="middle" x="55.5" y="-7.5" font-family="Helvetica,sans-Serif" font-size="10.00">odp_system_info_t</text>
</g>
<!-- Node2 -->
<g id="node2" class="node"><title>Node2</title>
<g id="a_node2"><a xlink:href="unionodp__cpu__arch__isa__t.html" target="_top" xlink:title="CPU ISA versions. ">
<polygon fill="white" stroke="black" points="-7.10543e-15,-78.5 -7.10543e-15,-97.5 111,-97.5 111,-78.5 -7.10543e-15,-78.5"/>
<text text-anchor="middle" x="55.5" y="-85.5" font-family="Helvetica,sans-Serif" font-size="10.00">odp_cpu_arch_isa_t</text>
</a>
</g>
</g>
<!-- Node2&#45;&gt;Node1 -->
<g id="edge1" class="edge"><title>Node2&#45;&gt;Node1</title>
<path fill="none" stroke="#9a32cd" stroke-dasharray="5,2" d="M55.5,-68.2239C55.5,-52.6974 55.5,-31.3582 55.5,-19.6165"/>
<polygon fill="#9a32cd" stroke="#9a32cd" points="52.0001,-68.2818 55.5,-78.2818 59.0001,-68.2819 52.0001,-68.2818"/>
<text text-anchor="middle" x="84.5" y="-52" font-family="Helvetica,sans-Serif" font-size="10.00"> cpu_isa_hw</text>
<text text-anchor="middle" x="84.5" y="-41" font-family="Helvetica,sans-Serif" font-size="10.00">cpu_isa_sw</text>
</g>
</g>
</svg>
