<?xml version="1.0" encoding="UTF-8" standalone="no"?>
<!DOCTYPE svg PUBLIC "-//W3C//DTD SVG 1.1//EN"
 "http://www.w3.org/Graphics/SVG/1.1/DTD/svg11.dtd">
<!-- Generated by graphviz version 2.38.0 (20140413.2041)
 -->
<!-- Title: odp_pktin_queue_param_t Pages: 1 -->
<svg width="616pt" height="155pt"
 viewBox="0.00 0.00 616.00 155.00" xmlns="http://www.w3.org/2000/svg" xmlns:xlink="http://www.w3.org/1999/xlink">
<g id="graph0" class="graph" transform="scale(1 1) rotate(0) translate(4 151)">
<title>odp_pktin_queue_param_t</title>
<polygon fill="white" stroke="none" points="-4,4 -4,-151 612,-151 612,4 -4,4"/>
<!-- Node1 -->
<g id="node1" class="node"><title>Node1</title>
<polygon fill="#bfbfbf" stroke="black" points="464,-60.5 464,-79.5 608,-79.5 608,-60.5 464,-60.5"/>
<text text-anchor="middle" x="536" y="-67.5" font-family="Helvetica,sans-Serif" font-size="10.00">odp_pktin_queue_param_t</text>
</g>
<!-- Node2 -->
<g id="node2" class="node"><title>Node2</title>
<g id="a_node2"><a xlink:href="structodp__queue__param__t.html" target="_top" xlink:title="ODP Queue parameters. ">
<polygon fill="white" stroke="black" points="208.5,-126.5 208.5,-145.5 324.5,-145.5 324.5,-126.5 208.5,-126.5"/>
<text text-anchor="middle" x="266.5" y="-133.5" font-family="Helvetica,sans-Serif" font-size="10.00">odp_queue_param_t</text>
</a>
</g>
</g>
<!-- Node2&#45;&gt;Node1 -->
<g id="edge1" class="edge"><title>Node2&#45;&gt;Node1</title>
<path fill="none" stroke="#9a32cd" stroke-dasharray="5,2" d="M334.4,-124.577C368.107,-118.299 409.473,-109.798 446,-100 467.733,-94.1704 491.898,-85.9082 509.557,-79.53"/>
<polygon fill="#9a32cd" stroke="#9a32cd" points="333.401,-121.202 324.199,-126.453 334.667,-128.087 333.401,-121.202"/>
<text text-anchor="middle" x="400.5" y="-122" font-family="Helvetica,sans-Serif" font-size="10.00"> queue_param</text>
</g>
<!-- Node3 -->
<g id="node3" class="node"><title>Node3</title>
<g id="a_node3"><a xlink:href="structodp__schedule__param__t.html" target="_top" xlink:title="Scheduler parameters. ">
<polygon fill="white" stroke="black" points="0,-126.5 0,-145.5 128,-145.5 128,-126.5 0,-126.5"/>
<text text-anchor="middle" x="64" y="-133.5" font-family="Helvetica,sans-Serif" font-size="10.00">odp_schedule_param_t</text>
</a>
</g>
</g>
<!-- Node3&#45;&gt;Node2 -->
<g id="edge2" class="edge"><title>Node3&#45;&gt;Node2</title>
<path fill="none" stroke="#9a32cd" stroke-dasharray="5,2" d="M138.279,-136C161.408,-136 186.607,-136 208.43,-136"/>
<polygon fill="#9a32cd" stroke="#9a32cd" points="138.164,-132.5 128.164,-136 138.164,-139.5 138.164,-132.5"/>
<text text-anchor="middle" x="162" y="-139" font-family="Helvetica,sans-Serif" font-size="10.00"> sched</text>
</g>
<!-- Node4 -->
<g id="node4" class="node"><title>Node4</title>
<g id="a_node4"><a xlink:href="structodp__pktin__queue__param__ovr__t.html" target="_top" xlink:title="Packet input queue parameters override. ">
<polygon fill="white" stroke="black" points="199,-77 199,-107 334,-107 334,-77 199,-77"/>
<text text-anchor="start" x="207" y="-95" font-family="Helvetica,sans-Serif" font-size="10.00">odp_pktin_queue_param</text>
<text text-anchor="middle" x="266.5" y="-84" font-family="Helvetica,sans-Serif" font-size="10.00">_ovr_t</text>
</a>
</g>
</g>
<!-- Node4&#45;&gt;Node1 -->
<g id="edge3" class="edge"><title>Node4&#45;&gt;Node1</title>
<path fill="none" stroke="#9a32cd" stroke-dasharray="5,2" d="M344.704,-85.6505C382.283,-82.5599 427.161,-78.869 463.895,-75.8479"/>
<polygon fill="#9a32cd" stroke="#9a32cd" points="343.991,-82.1972 334.312,-86.5052 344.565,-89.1737 343.991,-82.1972"/>
<text text-anchor="middle" x="400.5" y="-88" font-family="Helvetica,sans-Serif" font-size="10.00"> queue_param_ovr</text>
</g>
<!-- Node5 -->
<g id="node5" class="node"><title>Node5</title>
<g id="a_node5"><a xlink:href="unionodp__pktin__hash__proto__t.html" target="_top" xlink:title="Packet input hash protocols. ">
<polygon fill="white" stroke="black" points="201,-38.5 201,-57.5 332,-57.5 332,-38.5 201,-38.5"/>
<text text-anchor="middle" x="266.5" y="-45.5" font-family="Helvetica,sans-Serif" font-size="10.00">odp_pktin_hash_proto_t</text>
</a>
</g>
</g>
<!-- Node5&#45;&gt;Node1 -->
<g id="edge4" class="edge"><title>Node5&#45;&gt;Node1</title>
<path fill="none" stroke="#9a32cd" stroke-dasharray="5,2" d="M342.248,-54.1475C380.28,-57.2754 426.273,-61.058 463.792,-64.1437"/>
<polygon fill="#9a32cd" stroke="#9a32cd" points="342.508,-50.6571 332.254,-53.3256 341.934,-57.6336 342.508,-50.6571"/>
<text text-anchor="middle" x="400.5" y="-66" font-family="Helvetica,sans-Serif" font-size="10.00"> hash_proto</text>
</g>
<!-- Node6 -->
<g id="node6" class="node"><title>Node6</title>
<g id="a_node6"><a xlink:href="structodp__pktin__vector__config__t.html" target="_top" xlink:title="Packet input vector configuration. ">
<polygon fill="white" stroke="black" points="196,-0.5 196,-19.5 337,-19.5 337,-0.5 196,-0.5"/>
<text text-anchor="middle" x="266.5" y="-7.5" font-family="Helvetica,sans-Serif" font-size="10.00">odp_pktin_vector_config_t</text>
</a>
</g>
</g>
<!-- Node6&#45;&gt;Node1 -->
<g id="edge5" class="edge"><title>Node6&#45;&gt;Node1</title>
<path fill="none" stroke="#9a32cd" stroke-dasharray="5,2" d="M345.785,-21.1097C377.153,-26.2058 413.497,-32.9262 446,-41 467.449,-46.3281 491.227,-54.1797 508.805,-60.3698"/>
<polygon fill="#9a32cd" stroke="#9a32cd" points="346.213,-17.6339 335.786,-19.5126 345.109,-24.5463 346.213,-17.6339"/>
<text text-anchor="middle" x="400.5" y="-44" font-family="Helvetica,sans-Serif" font-size="10.00"> vector</text>
</g>
<!-- Node7 -->
<g id="node7" class="node"><title>Node7</title>
<g id="a_node7"><a xlink:href="struct__odp__abi__pool__t.html" target="_top" xlink:title="_odp_abi_pool_t">
<polygon fill="white" stroke="black" points="17,-0.5 17,-19.5 111,-19.5 111,-0.5 17,-0.5"/>
<text text-anchor="middle" x="64" y="-7.5" font-family="Helvetica,sans-Serif" font-size="10.00">_odp_abi_pool_t</text>
</a>
</g>
</g>
<!-- Node7&#45;&gt;Node6 -->
<g id="edge6" class="edge"><title>Node7&#45;&gt;Node6</title>
<path fill="none" stroke="#9a32cd" stroke-dasharray="5,2" d="M121.255,-10C144.417,-10 171.487,-10 195.881,-10"/>
<polygon fill="#9a32cd" stroke="#9a32cd" points="121.251,-6.5001 111.251,-10 121.25,-13.5001 121.251,-6.5001"/>
<text text-anchor="middle" x="162" y="-13" font-family="Helvetica,sans-Serif" font-size="10.00"> pool</text>
</g>
</g>
</svg>
