<?xml version="1.0" encoding="UTF-8" standalone="no"?>
<!DOCTYPE svg PUBLIC "-//W3C//DTD SVG 1.1//EN"
 "http://www.w3.org/Graphics/SVG/1.1/DTD/svg11.dtd">
<!-- Generated by graphviz version 2.38.0 (20140413.2041)
 -->
<!-- Title: odp_pktio_capability_t Pages: 1 -->
<svg width="581pt" height="162pt"
 viewBox="0.00 0.00 581.00 162.00" xmlns="http://www.w3.org/2000/svg" xmlns:xlink="http://www.w3.org/1999/xlink">
<g id="graph0" class="graph" transform="scale(1 1) rotate(0) translate(4 158)">
<title>odp_pktio_capability_t</title>
<polygon fill="white" stroke="none" points="-4,4 -4,-158 577,-158 577,4 -4,4"/>
<!-- Node1 -->
<g id="node1" class="node"><title>Node1</title>
<polygon fill="#bfbfbf" stroke="black" points="146,-0.5 146,-19.5 268,-19.5 268,-0.5 146,-0.5"/>
<text text-anchor="middle" x="207" y="-7.5" font-family="Helvetica,sans-Serif" font-size="10.00">odp_pktio_capability_t</text>
</g>
<!-- Node2 -->
<g id="node2" class="node"><title>Node2</title>
<g id="a_node2"><a xlink:href="unionodp__pktio__set__op__t.html" target="_top" xlink:title="Packet IO set operations. ">
<polygon fill="white" stroke="black" points="0,-67.5 0,-86.5 110,-86.5 110,-67.5 0,-67.5"/>
<text text-anchor="middle" x="55" y="-74.5" font-family="Helvetica,sans-Serif" font-size="10.00">odp_pktio_set_op_t</text>
</a>
</g>
</g>
<!-- Node2&#45;&gt;Node1 -->
<g id="edge1" class="edge"><title>Node2&#45;&gt;Node1</title>
<path fill="none" stroke="#9a32cd" stroke-dasharray="5,2" d="M84.743,-63.281C114.845,-50.4085 160.571,-30.8545 186.732,-19.6672"/>
<polygon fill="#9a32cd" stroke="#9a32cd" points="83.0028,-60.2184 75.1844,-67.3685 85.7552,-66.6547 83.0028,-60.2184"/>
<text text-anchor="middle" x="159" y="-41" font-family="Helvetica,sans-Serif" font-size="10.00"> set_op</text>
</g>
<!-- Node3 -->
<g id="node3" class="node"><title>Node3</title>
<g id="a_node3"><a xlink:href="structodp__pktin__vector__capability__t.html" target="_top" xlink:title="Packet input vector capabilities. ">
<polygon fill="white" stroke="black" points="128,-67.5 128,-86.5 286,-86.5 286,-67.5 128,-67.5"/>
<text text-anchor="middle" x="207" y="-74.5" font-family="Helvetica,sans-Serif" font-size="10.00">odp_pktin_vector_capability_t</text>
</a>
</g>
</g>
<!-- Node3&#45;&gt;Node1 -->
<g id="edge2" class="edge"><title>Node3&#45;&gt;Node1</title>
<path fill="none" stroke="#9a32cd" stroke-dasharray="5,2" d="M207,-57.037C207,-44.6703 207,-29.1198 207,-19.6273"/>
<polygon fill="#9a32cd" stroke="#9a32cd" points="203.5,-57.2338 207,-67.2338 210.5,-57.2338 203.5,-57.2338"/>
<text text-anchor="middle" x="224" y="-41" font-family="Helvetica,sans-Serif" font-size="10.00"> vector</text>
</g>
<!-- Node4 -->
<g id="node4" class="node"><title>Node4</title>
<g id="a_node4"><a xlink:href="structodp__pktio__config__t.html" target="_top" xlink:title="Packet IO configuration options. ">
<polygon fill="white" stroke="black" points="304,-67.5 304,-86.5 410,-86.5 410,-67.5 304,-67.5"/>
<text text-anchor="middle" x="357" y="-74.5" font-family="Helvetica,sans-Serif" font-size="10.00">odp_pktio_config_t</text>
</a>
</g>
</g>
<!-- Node4&#45;&gt;Node1 -->
<g id="edge3" class="edge"><title>Node4&#45;&gt;Node1</title>
<path fill="none" stroke="#9a32cd" stroke-dasharray="5,2" d="M327.648,-63.281C297.943,-50.4085 252.818,-30.8545 227.001,-19.6672"/>
<polygon fill="#9a32cd" stroke="#9a32cd" points="326.514,-66.6038 337.081,-67.3685 329.297,-60.1809 326.514,-66.6038"/>
<text text-anchor="middle" x="307" y="-41" font-family="Helvetica,sans-Serif" font-size="10.00"> config</text>
</g>
<!-- Node5 -->
<g id="node5" class="node"><title>Node5</title>
<g id="a_node5"><a xlink:href="structodp__pktio__parser__config__t.html" target="_top" xlink:title="Parser configuration. ">
<polygon fill="white" stroke="black" points="133,-134.5 133,-153.5 275,-153.5 275,-134.5 133,-134.5"/>
<text text-anchor="middle" x="204" y="-141.5" font-family="Helvetica,sans-Serif" font-size="10.00">odp_pktio_parser_config_t</text>
</a>
</g>
</g>
<!-- Node5&#45;&gt;Node4 -->
<g id="edge4" class="edge"><title>Node5&#45;&gt;Node4</title>
<path fill="none" stroke="#9a32cd" stroke-dasharray="5,2" d="M233.544,-130.448C263.838,-117.579 310.151,-97.9032 336.599,-86.6672"/>
<polygon fill="#9a32cd" stroke="#9a32cd" points="232.153,-127.237 224.317,-134.369 234.89,-133.68 232.153,-127.237"/>
<text text-anchor="middle" x="307" y="-108" font-family="Helvetica,sans-Serif" font-size="10.00"> parser</text>
</g>
<!-- Node6 -->
<g id="node6" class="node"><title>Node6</title>
<g id="a_node6"><a xlink:href="unionodp__pktin__config__opt__t.html" target="_top" xlink:title="Packet input configuration options bit field. ">
<polygon fill="white" stroke="black" points="293.5,-134.5 293.5,-153.5 420.5,-153.5 420.5,-134.5 293.5,-134.5"/>
<text text-anchor="middle" x="357" y="-141.5" font-family="Helvetica,sans-Serif" font-size="10.00">odp_pktin_config_opt_t</text>
</a>
</g>
</g>
<!-- Node6&#45;&gt;Node4 -->
<g id="edge5" class="edge"><title>Node6&#45;&gt;Node4</title>
<path fill="none" stroke="#9a32cd" stroke-dasharray="5,2" d="M357,-124.037C357,-111.67 357,-96.1198 357,-86.6273"/>
<polygon fill="#9a32cd" stroke="#9a32cd" points="353.5,-124.234 357,-134.234 360.5,-124.234 353.5,-124.234"/>
<text text-anchor="middle" x="370.5" y="-108" font-family="Helvetica,sans-Serif" font-size="10.00"> pktin</text>
</g>
<!-- Node7 -->
<g id="node7" class="node"><title>Node7</title>
<g id="a_node7"><a xlink:href="unionodp__pktout__config__opt__t.html" target="_top" xlink:title="Packet output configuration options bit field. ">
<polygon fill="white" stroke="black" points="439,-134.5 439,-153.5 573,-153.5 573,-134.5 439,-134.5"/>
<text text-anchor="middle" x="506" y="-141.5" font-family="Helvetica,sans-Serif" font-size="10.00">odp_pktout_config_opt_t</text>
</a>
</g>
</g>
<!-- Node7&#45;&gt;Node4 -->
<g id="edge6" class="edge"><title>Node7&#45;&gt;Node4</title>
<path fill="none" stroke="#9a32cd" stroke-dasharray="5,2" d="M476.844,-130.281C447.336,-117.409 402.513,-97.8545 376.868,-86.6672"/>
<polygon fill="#9a32cd" stroke="#9a32cd" points="475.649,-133.578 486.214,-134.369 478.448,-127.162 475.649,-133.578"/>
<text text-anchor="middle" x="457" y="-108" font-family="Helvetica,sans-Serif" font-size="10.00"> pktout</text>
</g>
</g>
</svg>
