<?xml version="1.0" encoding="UTF-8" standalone="no"?>
<!DOCTYPE svg PUBLIC "-//W3C//DTD SVG 1.1//EN"
 "http://www.w3.org/Graphics/SVG/1.1/DTD/svg11.dtd">
<!-- Generated by graphviz version 2.38.0 (20140413.2041)
 -->
<!-- Title: odp_cls_cos_param Pages: 1 -->
<svg width="579pt" height="265pt"
 viewBox="0.00 0.00 579.00 265.00" xmlns="http://www.w3.org/2000/svg" xmlns:xlink="http://www.w3.org/1999/xlink">
<g id="graph0" class="graph" transform="scale(1 1) rotate(0) translate(4 261)">
<title>odp_cls_cos_param</title>
<polygon fill="white" stroke="none" points="-4,4 -4,-261 575,-261 575,4 -4,4"/>
<!-- Node1 -->
<g id="node1" class="node"><title>Node1</title>
<polygon fill="#bfbfbf" stroke="black" points="460,-122.5 460,-141.5 571,-141.5 571,-122.5 460,-122.5"/>
<text text-anchor="middle" x="515.5" y="-129.5" font-family="Helvetica,sans-Serif" font-size="10.00">odp_cls_cos_param</text>
</g>
<!-- Node2 -->
<g id="node2" class="node"><title>Node2</title>
<g id="a_node2"><a xlink:href="structodp__red__param__t.html" target="_top" xlink:title="Random Early Detection (RED) Random Early Detection is enabled to initiate a drop probability for the...">
<polygon fill="white" stroke="black" points="233,-237.5 233,-256.5 334,-256.5 334,-237.5 233,-237.5"/>
<text text-anchor="middle" x="283.5" y="-244.5" font-family="Helvetica,sans-Serif" font-size="10.00">odp_red_param_t</text>
</a>
</g>
</g>
<!-- Node2&#45;&gt;Node1 -->
<g id="edge1" class="edge"><title>Node2&#45;&gt;Node1</title>
<path fill="none" stroke="#9a32cd" stroke-dasharray="5,2" d="M344.508,-239.751C375.22,-234.118 412.29,-224.23 442,-207 471.296,-190.011 496.477,-157.823 507.923,-141.706"/>
<polygon fill="#9a32cd" stroke="#9a32cd" points="343.616,-236.353 334.356,-241.503 344.806,-243.251 343.616,-236.353"/>
<text text-anchor="middle" x="407" y="-236" font-family="Helvetica,sans-Serif" font-size="10.00"> red</text>
</g>
<!-- Node3 -->
<g id="node3" class="node"><title>Node3</title>
<g id="a_node3"><a xlink:href="structodp__threshold__t.html" target="_top" xlink:title="ODP Threshold. ">
<polygon fill="white" stroke="black" points="17,-200.5 17,-219.5 111,-219.5 111,-200.5 17,-200.5"/>
<text text-anchor="middle" x="64" y="-207.5" font-family="Helvetica,sans-Serif" font-size="10.00">odp_threshold_t</text>
</a>
</g>
</g>
<!-- Node3&#45;&gt;Node2 -->
<g id="edge2" class="edge"><title>Node3&#45;&gt;Node2</title>
<path fill="none" stroke="#9a32cd" stroke-dasharray="5,2" d="M121.26,-219.755C129.555,-221.185 137.999,-222.634 146,-224 174.783,-228.912 206.991,-234.343 232.891,-238.693"/>
<polygon fill="#9a32cd" stroke="#9a32cd" points="121.705,-216.281 111.255,-218.029 120.515,-223.179 121.705,-216.281"/>
<text text-anchor="middle" x="170.5" y="-235" font-family="Helvetica,sans-Serif" font-size="10.00"> threshold</text>
</g>
<!-- Node10 -->
<g id="node10" class="node"><title>Node10</title>
<g id="a_node10"><a xlink:href="structodp__bp__param__t.html" target="_top" xlink:title="Back pressure (BP) When back pressure is enabled for a particular flow, the HW can send back pressure...">
<polygon fill="white" stroke="black" points="234.5,-199.5 234.5,-218.5 332.5,-218.5 332.5,-199.5 234.5,-199.5"/>
<text text-anchor="middle" x="283.5" y="-206.5" font-family="Helvetica,sans-Serif" font-size="10.00">odp_bp_param_t</text>
</a>
</g>
</g>
<!-- Node3&#45;&gt;Node10 -->
<g id="edge11" class="edge"><title>Node3&#45;&gt;Node10</title>
<path fill="none" stroke="#9a32cd" stroke-dasharray="5,2" d="M121.192,-209.742C156.196,-209.581 200.764,-209.376 234.179,-209.222"/>
<polygon fill="#9a32cd" stroke="#9a32cd" points="121.11,-206.242 111.126,-209.788 121.142,-213.242 121.11,-206.242"/>
<text text-anchor="middle" x="170.5" y="-212" font-family="Helvetica,sans-Serif" font-size="10.00"> threshold</text>
</g>
<!-- Node4 -->
<g id="node4" class="node"><title>Node4</title>
<g id="a_node4"><a xlink:href="structodp__queue__param__t.html" target="_top" xlink:title="ODP Queue parameters. ">
<polygon fill="white" stroke="black" points="225.5,-161.5 225.5,-180.5 341.5,-180.5 341.5,-161.5 225.5,-161.5"/>
<text text-anchor="middle" x="283.5" y="-168.5" font-family="Helvetica,sans-Serif" font-size="10.00">odp_queue_param_t</text>
</a>
</g>
</g>
<!-- Node4&#45;&gt;Node1 -->
<g id="edge3" class="edge"><title>Node4&#45;&gt;Node1</title>
<path fill="none" stroke="#9a32cd" stroke-dasharray="5,2" d="M351.865,-160.813C379.79,-156.458 412.493,-151.189 442,-146 449.828,-144.623 458.117,-143.092 466.184,-141.562"/>
<polygon fill="#9a32cd" stroke="#9a32cd" points="351.153,-157.381 341.808,-162.374 352.227,-164.298 351.153,-157.381"/>
<text text-anchor="middle" x="407" y="-160" font-family="Helvetica,sans-Serif" font-size="10.00"> queue_param</text>
</g>
<!-- Node5 -->
<g id="node5" class="node"><title>Node5</title>
<g id="a_node5"><a xlink:href="structodp__schedule__param__t.html" target="_top" xlink:title="Scheduler parameters. ">
<polygon fill="white" stroke="black" points="0,-161.5 0,-180.5 128,-180.5 128,-161.5 0,-161.5"/>
<text text-anchor="middle" x="64" y="-168.5" font-family="Helvetica,sans-Serif" font-size="10.00">odp_schedule_param_t</text>
</a>
</g>
</g>
<!-- Node5&#45;&gt;Node4 -->
<g id="edge4" class="edge"><title>Node5&#45;&gt;Node4</title>
<path fill="none" stroke="#9a32cd" stroke-dasharray="5,2" d="M138.481,-171C166.868,-171 198.849,-171 225.452,-171"/>
<polygon fill="#9a32cd" stroke="#9a32cd" points="138.202,-167.5 128.202,-171 138.202,-174.5 138.202,-167.5"/>
<text text-anchor="middle" x="170.5" y="-174" font-family="Helvetica,sans-Serif" font-size="10.00"> sched</text>
</g>
<!-- Node6 -->
<g id="node6" class="node"><title>Node6</title>
<g id="a_node6"><a xlink:href="struct__odp__abi__pool__t.html" target="_top" xlink:title="_odp_abi_pool_t">
<polygon fill="white" stroke="black" points="17,-104.5 17,-123.5 111,-123.5 111,-104.5 17,-104.5"/>
<text text-anchor="middle" x="64" y="-111.5" font-family="Helvetica,sans-Serif" font-size="10.00">_odp_abi_pool_t</text>
</a>
</g>
</g>
<!-- Node6&#45;&gt;Node1 -->
<g id="edge5" class="edge"><title>Node6&#45;&gt;Node1</title>
<path fill="none" stroke="#9a32cd" stroke-dasharray="5,2" d="M121.261,-116.861C129.556,-117.259 138,-117.651 146,-118 257.452,-122.869 387.908,-127.596 459.862,-130.118"/>
<polygon fill="#9a32cd" stroke="#9a32cd" points="121.415,-113.364 111.257,-116.375 121.075,-120.356 121.415,-113.364"/>
<text text-anchor="middle" x="283.5" y="-129" font-family="Helvetica,sans-Serif" font-size="10.00"> pool</text>
</g>
<!-- Node9 -->
<g id="node9" class="node"><title>Node9</title>
<g id="a_node9"><a xlink:href="structodp__pktin__vector__config__t.html" target="_top" xlink:title="Packet input vector configuration. ">
<polygon fill="white" stroke="black" points="213,-76.5 213,-95.5 354,-95.5 354,-76.5 213,-76.5"/>
<text text-anchor="middle" x="283.5" y="-83.5" font-family="Helvetica,sans-Serif" font-size="10.00">odp_pktin_vector_config_t</text>
</a>
</g>
</g>
<!-- Node6&#45;&gt;Node9 -->
<g id="edge9" class="edge"><title>Node6&#45;&gt;Node9</title>
<path fill="none" stroke="#9a32cd" stroke-dasharray="5,2" d="M121.14,-106.773C149.124,-103.17 183.232,-98.7793 212.868,-94.9641"/>
<polygon fill="#9a32cd" stroke="#9a32cd" points="120.597,-103.314 111.126,-108.062 121.491,-110.256 120.597,-103.314"/>
<text text-anchor="middle" x="170.5" y="-106" font-family="Helvetica,sans-Serif" font-size="10.00"> pool</text>
</g>
<!-- Node7 -->
<g id="node7" class="node"><title>Node7</title>
<g id="a_node7"><a xlink:href="struct__odp__abi__queue__t.html" target="_top" xlink:title="_odp_abi_queue_t">
<polygon fill="white" stroke="black" points="231.5,-38.5 231.5,-57.5 335.5,-57.5 335.5,-38.5 231.5,-38.5"/>
<text text-anchor="middle" x="283.5" y="-45.5" font-family="Helvetica,sans-Serif" font-size="10.00">_odp_abi_queue_t</text>
</a>
</g>
</g>
<!-- Node7&#45;&gt;Node1 -->
<g id="edge6" class="edge"><title>Node7&#45;&gt;Node1</title>
<path fill="none" stroke="#9a32cd" stroke-dasharray="5,2" d="M345.75,-53.7462C375.701,-58.114 411.726,-65.7412 442,-79 466.565,-89.7584 490.848,-109.985 504.14,-122.101"/>
<polygon fill="#9a32cd" stroke="#9a32cd" points="346.225,-50.2787 335.842,-52.3864 345.274,-57.2137 346.225,-50.2787"/>
<text text-anchor="middle" x="407" y="-82" font-family="Helvetica,sans-Serif" font-size="10.00"> queue</text>
</g>
<!-- Node8 -->
<g id="node8" class="node"><title>Node8</title>
<g id="a_node8"><a xlink:href="unionodp__pktin__hash__proto__t.html" target="_top" xlink:title="Packet input hash protocols. ">
<polygon fill="white" stroke="black" points="218,-0.5 218,-19.5 349,-19.5 349,-0.5 218,-0.5"/>
<text text-anchor="middle" x="283.5" y="-7.5" font-family="Helvetica,sans-Serif" font-size="10.00">odp_pktin_hash_proto_t</text>
</a>
</g>
</g>
<!-- Node8&#45;&gt;Node1 -->
<g id="edge7" class="edge"><title>Node8&#45;&gt;Node1</title>
<path fill="none" stroke="#9a32cd" stroke-dasharray="5,2" d="M359.055,-15.7507C386.645,-20.4548 417.212,-28.8999 442,-44 474.627,-63.8756 499.266,-103.8 509.417,-122.246"/>
<polygon fill="#9a32cd" stroke="#9a32cd" points="359.463,-12.2719 349.041,-14.1814 358.379,-19.1875 359.463,-12.2719"/>
<text text-anchor="middle" x="407" y="-47" font-family="Helvetica,sans-Serif" font-size="10.00"> hash_proto</text>
</g>
<!-- Node9&#45;&gt;Node1 -->
<g id="edge8" class="edge"><title>Node9&#45;&gt;Node1</title>
<path fill="none" stroke="#9a32cd" stroke-dasharray="5,2" d="M364.248,-93.499C389.325,-96.6918 416.99,-101.083 442,-107 458.584,-110.923 476.709,-117.173 490.688,-122.443"/>
<polygon fill="#9a32cd" stroke="#9a32cd" points="364.397,-89.991 354.045,-92.2467 363.544,-96.9389 364.397,-89.991"/>
<text text-anchor="middle" x="407" y="-110" font-family="Helvetica,sans-Serif" font-size="10.00"> vector</text>
</g>
<!-- Node10&#45;&gt;Node1 -->
<g id="edge10" class="edge"><title>Node10&#45;&gt;Node1</title>
<path fill="none" stroke="#9a32cd" stroke-dasharray="5,2" d="M342.692,-199.28C372.911,-193.252 410.089,-184.284 442,-172 463.197,-163.841 485.846,-150.516 500.08,-141.51"/>
<polygon fill="#9a32cd" stroke="#9a32cd" points="341.879,-195.872 332.728,-201.212 343.211,-202.744 341.879,-195.872"/>
<text text-anchor="middle" x="407" y="-195" font-family="Helvetica,sans-Serif" font-size="10.00"> bp</text>
</g>
</g>
</svg>
