<?xml version="1.0" encoding="UTF-8" standalone="no"?>
<!DOCTYPE svg PUBLIC "-//W3C//DTD SVG 1.1//EN"
 "http://www.w3.org/Graphics/SVG/1.1/DTD/svg11.dtd">
<!-- Generated by graphviz version 2.38.0 (20140413.2041)
 -->
<!-- Title: thrmask.h Pages: 1 -->
<svg width="425pt" height="364pt"
 viewBox="0.00 0.00 425.00 364.00" xmlns="http://www.w3.org/2000/svg" xmlns:xlink="http://www.w3.org/1999/xlink">
<g id="graph0" class="graph" transform="scale(1 1) rotate(0) translate(4 360)">
<title>thrmask.h</title>
<polygon fill="white" stroke="none" points="-4,4 -4,-360 421,-360 421,4 -4,4"/>
<!-- Node0 -->
<g id="node1" class="node"><title>Node0</title>
<polygon fill="#bfbfbf" stroke="black" points="99,-336.5 99,-355.5 164,-355.5 164,-336.5 99,-336.5"/>
<text text-anchor="middle" x="131.5" y="-343.5" font-family="Helvetica,sans-Serif" font-size="10.00">thrmask.h</text>
</g>
<!-- Node1 -->
<g id="node2" class="node"><title>Node1</title>
<polygon fill="white" stroke="#bfbfbf" points="0,-280.5 0,-299.5 121,-299.5 121,-280.5 0,-280.5"/>
<text text-anchor="middle" x="60.5" y="-287.5" font-family="Helvetica,sans-Serif" font-size="10.00">odp/api/abi/thrmask.h</text>
</g>
<!-- Node0&#45;&gt;Node1 -->
<g id="edge1" class="edge"><title>Node0&#45;&gt;Node1</title>
<path fill="none" stroke="midnightblue" d="M120.093,-336.324C109.391,-328.185 93.1593,-315.839 80.3372,-306.087"/>
<polygon fill="midnightblue" stroke="midnightblue" points="82.1932,-303.102 72.1149,-299.834 77.9556,-308.673 82.1932,-303.102"/>
</g>
<!-- Node2 -->
<g id="node3" class="node"><title>Node2</title>
<g id="a_node3"><a xlink:href="spec_2thrmask_8h.html" target="_top" xlink:title="ODP thread masks. ">
<polygon fill="white" stroke="black" points="139,-280.5 139,-299.5 268,-299.5 268,-280.5 139,-280.5"/>
<text text-anchor="middle" x="203.5" y="-287.5" font-family="Helvetica,sans-Serif" font-size="10.00">odp/api/spec/thrmask.h</text>
</a>
</g>
</g>
<!-- Node0&#45;&gt;Node2 -->
<g id="edge2" class="edge"><title>Node0&#45;&gt;Node2</title>
<path fill="none" stroke="midnightblue" d="M143.068,-336.324C153.92,-328.185 170.381,-315.839 183.383,-306.087"/>
<polygon fill="midnightblue" stroke="midnightblue" points="185.821,-308.634 191.721,-299.834 181.621,-303.034 185.821,-308.634"/>
</g>
<!-- Node3 -->
<g id="node4" class="node"><title>Node3</title>
<polygon fill="white" stroke="#bfbfbf" points="16,-0.5 16,-19.5 131,-19.5 131,-0.5 16,-0.5"/>
<text text-anchor="middle" x="73.5" y="-7.5" font-family="Helvetica,sans-Serif" font-size="10.00">odp/visibility_begin.h</text>
</g>
<!-- Node2&#45;&gt;Node3 -->
<g id="edge3" class="edge"><title>Node2&#45;&gt;Node3</title>
<path fill="none" stroke="midnightblue" d="M160.236,-280.389C110.459,-267.668 35.5,-238.615 35.5,-179 35.5,-179 35.5,-179 35.5,-121 35.5,-86.8131 52.1005,-49.7639 63.3573,-28.5707"/>
<polygon fill="midnightblue" stroke="midnightblue" points="66.4473,-30.2151 68.2163,-19.769 60.3191,-26.832 66.4473,-30.2151"/>
</g>
<!-- Node4 -->
<g id="node5" class="node"><title>Node4</title>
<g id="a_node5"><a xlink:href="std__types_8h.html" target="_top" xlink:title="Standard C language types and definitions for ODP. ">
<polygon fill="white" stroke="black" points="148.5,-224.5 148.5,-243.5 258.5,-243.5 258.5,-224.5 148.5,-224.5"/>
<text text-anchor="middle" x="203.5" y="-231.5" font-family="Helvetica,sans-Serif" font-size="10.00">odp/api/std_types.h</text>
</a>
</g>
</g>
<!-- Node2&#45;&gt;Node4 -->
<g id="edge4" class="edge"><title>Node2&#45;&gt;Node4</title>
<path fill="none" stroke="midnightblue" d="M203.5,-280.083C203.5,-273.006 203.5,-262.861 203.5,-253.986"/>
<polygon fill="midnightblue" stroke="midnightblue" points="207,-253.751 203.5,-243.751 200,-253.751 207,-253.751"/>
</g>
<!-- Node11 -->
<g id="node12" class="node"><title>Node11</title>
<polygon fill="white" stroke="#bfbfbf" points="310,-0.5 310,-19.5 417,-19.5 417,-0.5 310,-0.5"/>
<text text-anchor="middle" x="363.5" y="-7.5" font-family="Helvetica,sans-Serif" font-size="10.00">odp/visibility_end.h</text>
</g>
<!-- Node2&#45;&gt;Node11 -->
<g id="edge15" class="edge"><title>Node2&#45;&gt;Node11</title>
<path fill="none" stroke="midnightblue" d="M267.511,-280.464C325.36,-268.729 401.5,-241.426 401.5,-179 401.5,-179 401.5,-179 401.5,-121 401.5,-86.8131 384.9,-49.7639 373.643,-28.5707"/>
<polygon fill="midnightblue" stroke="midnightblue" points="376.681,-26.832 368.784,-19.769 370.553,-30.2151 376.681,-26.832"/>
</g>
<!-- Node5 -->
<g id="node6" class="node"><title>Node5</title>
<polygon fill="white" stroke="#bfbfbf" points="64.5,-168.5 64.5,-187.5 192.5,-187.5 192.5,-168.5 64.5,-168.5"/>
<text text-anchor="middle" x="128.5" y="-175.5" font-family="Helvetica,sans-Serif" font-size="10.00">odp/api/abi/std_types.h</text>
</g>
<!-- Node4&#45;&gt;Node5 -->
<g id="edge5" class="edge"><title>Node4&#45;&gt;Node5</title>
<path fill="none" stroke="midnightblue" d="M191.45,-224.324C180.037,-216.107 162.669,-203.602 149.065,-193.807"/>
<polygon fill="midnightblue" stroke="midnightblue" points="150.93,-190.837 140.769,-187.834 146.84,-196.517 150.93,-190.837"/>
</g>
<!-- Node6 -->
<g id="node7" class="node"><title>Node6</title>
<g id="a_node7"><a xlink:href="spec_2std__types_8h.html" target="_top" xlink:title="Standard C language types and definitions for ODP. ">
<polygon fill="white" stroke="black" points="210.5,-168.5 210.5,-187.5 346.5,-187.5 346.5,-168.5 210.5,-168.5"/>
<text text-anchor="middle" x="278.5" y="-175.5" font-family="Helvetica,sans-Serif" font-size="10.00">odp/api/spec/std_types.h</text>
</a>
</g>
</g>
<!-- Node4&#45;&gt;Node6 -->
<g id="edge6" class="edge"><title>Node4&#45;&gt;Node6</title>
<path fill="none" stroke="midnightblue" d="M215.55,-224.324C226.963,-216.107 244.331,-203.602 257.935,-193.807"/>
<polygon fill="midnightblue" stroke="midnightblue" points="260.16,-196.517 266.231,-187.834 256.07,-190.837 260.16,-196.517"/>
</g>
<!-- Node6&#45;&gt;Node3 -->
<g id="edge7" class="edge"><title>Node6&#45;&gt;Node3</title>
<path fill="none" stroke="midnightblue" d="M245.142,-168.496C219.503,-161.105 183.802,-148.914 155.5,-132 123.343,-112.781 112.535,-107.655 92.5,-76 83.5598,-61.8746 78.6894,-43.3883 76.1259,-29.7429"/>
<polygon fill="midnightblue" stroke="midnightblue" points="79.5394,-28.9282 74.4764,-19.6214 72.6305,-30.0542 79.5394,-28.9282"/>
</g>
<!-- Node7 -->
<g id="node8" class="node"><title>Node7</title>
<polygon fill="white" stroke="#bfbfbf" points="164,-112.5 164,-131.5 217,-131.5 217,-112.5 164,-112.5"/>
<text text-anchor="middle" x="190.5" y="-119.5" font-family="Helvetica,sans-Serif" font-size="10.00">stdint.h</text>
</g>
<!-- Node6&#45;&gt;Node7 -->
<g id="edge8" class="edge"><title>Node6&#45;&gt;Node7</title>
<path fill="none" stroke="midnightblue" d="M264.361,-168.324C250.634,-159.9 229.564,-146.971 213.436,-137.074"/>
<polygon fill="midnightblue" stroke="midnightblue" points="214.957,-133.902 204.604,-131.655 211.296,-139.868 214.957,-133.902"/>
</g>
<!-- Node8 -->
<g id="node9" class="node"><title>Node8</title>
<g id="a_node9"><a xlink:href="align_8h.html" target="_top" xlink:title="ODP alignments. ">
<polygon fill="white" stroke="black" points="235.5,-112.5 235.5,-131.5 321.5,-131.5 321.5,-112.5 235.5,-112.5"/>
<text text-anchor="middle" x="278.5" y="-119.5" font-family="Helvetica,sans-Serif" font-size="10.00">odp/api/align.h</text>
</a>
</g>
</g>
<!-- Node6&#45;&gt;Node8 -->
<g id="edge9" class="edge"><title>Node6&#45;&gt;Node8</title>
<path fill="none" stroke="midnightblue" d="M278.5,-168.083C278.5,-161.006 278.5,-150.861 278.5,-141.986"/>
<polygon fill="midnightblue" stroke="midnightblue" points="282,-141.751 278.5,-131.751 275,-141.751 282,-141.751"/>
</g>
<!-- Node6&#45;&gt;Node11 -->
<g id="edge14" class="edge"><title>Node6&#45;&gt;Node11</title>
<path fill="none" stroke="midnightblue" d="M292.486,-168.358C304.313,-160.342 320.832,-147.357 330.5,-132 350.829,-99.7076 358.79,-54.9245 361.789,-29.8847"/>
<polygon fill="midnightblue" stroke="midnightblue" points="365.305,-29.9127 362.87,-19.6015 358.344,-29.1806 365.305,-29.9127"/>
</g>
<!-- Node9 -->
<g id="node10" class="node"><title>Node9</title>
<polygon fill="white" stroke="#bfbfbf" points="101.5,-56.5 101.5,-75.5 205.5,-75.5 205.5,-56.5 101.5,-56.5"/>
<text text-anchor="middle" x="153.5" y="-63.5" font-family="Helvetica,sans-Serif" font-size="10.00">odp/api/abi/align.h</text>
</g>
<!-- Node8&#45;&gt;Node9 -->
<g id="edge10" class="edge"><title>Node8&#45;&gt;Node9</title>
<path fill="none" stroke="midnightblue" d="M258.693,-112.444C238.213,-103.596 206.017,-89.6875 182.635,-79.5865"/>
<polygon fill="midnightblue" stroke="midnightblue" points="183.782,-76.2692 173.214,-75.5164 181.006,-82.6953 183.782,-76.2692"/>
</g>
<!-- Node10 -->
<g id="node11" class="node"><title>Node10</title>
<g id="a_node11"><a xlink:href="spec_2align_8h.html" target="_top" xlink:title="ODP alignments. ">
<polygon fill="white" stroke="black" points="223.5,-56.5 223.5,-75.5 335.5,-75.5 335.5,-56.5 223.5,-56.5"/>
<text text-anchor="middle" x="279.5" y="-63.5" font-family="Helvetica,sans-Serif" font-size="10.00">odp/api/spec/align.h</text>
</a>
</g>
</g>
<!-- Node8&#45;&gt;Node10 -->
<g id="edge11" class="edge"><title>Node8&#45;&gt;Node10</title>
<path fill="none" stroke="midnightblue" d="M278.665,-112.083C278.796,-105.006 278.984,-94.8611 279.148,-85.9865"/>
<polygon fill="midnightblue" stroke="midnightblue" points="282.652,-85.8142 279.338,-75.7511 275.653,-85.6845 282.652,-85.8142"/>
</g>
<!-- Node10&#45;&gt;Node3 -->
<g id="edge12" class="edge"><title>Node10&#45;&gt;Node3</title>
<path fill="none" stroke="midnightblue" d="M246.859,-56.4435C211.45,-47.1616 154.791,-32.3093 115.947,-22.127"/>
<polygon fill="midnightblue" stroke="midnightblue" points="116.549,-18.6666 105.989,-19.5164 114.774,-25.4378 116.549,-18.6666"/>
</g>
<!-- Node10&#45;&gt;Node11 -->
<g id="edge13" class="edge"><title>Node10&#45;&gt;Node11</title>
<path fill="none" stroke="midnightblue" d="M292.996,-56.324C306.1,-47.9002 326.212,-34.9709 341.607,-25.0741"/>
<polygon fill="midnightblue" stroke="midnightblue" points="343.518,-28.0063 350.037,-19.6545 339.733,-22.118 343.518,-28.0063"/>
</g>
</g>
</svg>
