<?xml version="1.0" encoding="UTF-8" standalone="no"?>
<!DOCTYPE svg PUBLIC "-//W3C//DTD SVG 1.1//EN"
 "http://www.w3.org/Graphics/SVG/1.1/DTD/svg11.dtd">
<!-- Generated by graphviz version 2.38.0 (20140413.2041)
 -->
<!-- Title: time.h Pages: 1 -->
<svg width="462pt" height="700pt"
 viewBox="0.00 0.00 462.00 700.00" xmlns="http://www.w3.org/2000/svg" xmlns:xlink="http://www.w3.org/1999/xlink">
<g id="graph0" class="graph" transform="scale(1 1) rotate(0) translate(4 696)">
<title>time.h</title>
<polygon fill="white" stroke="none" points="-4,4 -4,-696 458,-696 458,4 -4,4"/>
<!-- Node12 -->
<g id="node1" class="node"><title>Node12</title>
<polygon fill="#bfbfbf" stroke="black" points="309,-672.5 309,-691.5 356,-691.5 356,-672.5 309,-672.5"/>
<text text-anchor="middle" x="332.5" y="-679.5" font-family="Helvetica,sans-Serif" font-size="10.00">time.h</text>
</g>
<!-- Node13 -->
<g id="node2" class="node"><title>Node13</title>
<g id="a_node2"><a xlink:href="spec_2packet_8h.html" target="_top" xlink:title="ODP packet descriptor. ">
<polygon fill="white" stroke="black" points="201.5,-616.5 201.5,-635.5 259.5,-635.5 259.5,-616.5 201.5,-616.5"/>
<text text-anchor="middle" x="230.5" y="-623.5" font-family="Helvetica,sans-Serif" font-size="10.00">packet.h</text>
</a>
</g>
</g>
<!-- Node12&#45;&gt;Node13 -->
<g id="edge1" class="edge"><title>Node12&#45;&gt;Node13</title>
<path fill="none" stroke="midnightblue" d="M307.169,-667.59C288.31,-657.605 263.116,-644.267 246.847,-635.655"/>
<polygon fill="midnightblue" stroke="midnightblue" points="305.636,-670.738 316.112,-672.324 308.912,-664.552 305.636,-670.738"/>
</g>
<!-- Node25 -->
<g id="node14" class="node"><title>Node25</title>
<g id="a_node14"><a xlink:href="spec_2packet__io_8h.html" target="_top" xlink:title="ODP Packet IO. ">
<polygon fill="white" stroke="black" points="259,-280.5 259,-299.5 330,-299.5 330,-280.5 259,-280.5"/>
<text text-anchor="middle" x="294.5" y="-287.5" font-family="Helvetica,sans-Serif" font-size="10.00">packet_io.h</text>
</a>
</g>
</g>
<!-- Node12&#45;&gt;Node25 -->
<g id="edge29" class="edge"><title>Node12&#45;&gt;Node25</title>
<path fill="none" stroke="midnightblue" d="M332.5,-662.251C332.5,-640.357 332.5,-603.052 332.5,-571 332.5,-571 332.5,-571 332.5,-401 332.5,-361.399 310.225,-317.957 299.784,-299.769"/>
<polygon fill="midnightblue" stroke="midnightblue" points="329,-662.442 332.5,-672.442 336,-662.442 329,-662.442"/>
</g>
<!-- Node35 -->
<g id="node24" class="node"><title>Node35</title>
<g id="a_node24"><a xlink:href="packet__inlines_8h.html" target="_top" xlink:title="Packet inline functions. ">
<polygon fill="white" stroke="black" points="361,-616.5 361,-635.5 454,-635.5 454,-616.5 361,-616.5"/>
<text text-anchor="middle" x="407.5" y="-623.5" font-family="Helvetica,sans-Serif" font-size="10.00">packet_inlines.h</text>
</a>
</g>
</g>
<!-- Node12&#45;&gt;Node35 -->
<g id="edge30" class="edge"><title>Node12&#45;&gt;Node35</title>
<path fill="none" stroke="midnightblue" d="M352.805,-666.38C366.361,-656.62 383.742,-644.106 395.231,-635.834"/>
<polygon fill="midnightblue" stroke="midnightblue" points="350.62,-663.641 344.55,-672.324 354.71,-669.321 350.62,-663.641"/>
</g>
<!-- Node14 -->
<g id="node3" class="node"><title>Node14</title>
<g id="a_node3"><a xlink:href="packet_8h.html" target="_top" xlink:title="ODP packet descriptor. ">
<polygon fill="white" stroke="black" points="178.5,-560.5 178.5,-579.5 236.5,-579.5 236.5,-560.5 178.5,-560.5"/>
<text text-anchor="middle" x="207.5" y="-567.5" font-family="Helvetica,sans-Serif" font-size="10.00">packet.h</text>
</a>
</g>
</g>
<!-- Node13&#45;&gt;Node14 -->
<g id="edge2" class="edge"><title>Node13&#45;&gt;Node14</title>
<path fill="none" stroke="midnightblue" d="M222.701,-606.69C218.825,-597.589 214.321,-587.014 211.227,-579.751"/>
<polygon fill="midnightblue" stroke="midnightblue" points="219.563,-608.254 226.702,-616.083 226.003,-605.511 219.563,-608.254"/>
</g>
<!-- Node15 -->
<g id="node4" class="node"><title>Node15</title>
<g id="a_node4"><a xlink:href="spec_2comp_8h.html" target="_top" xlink:title="ODP Compression. ">
<polygon fill="white" stroke="black" points="71,-504.5 71,-523.5 124,-523.5 124,-504.5 71,-504.5"/>
<text text-anchor="middle" x="97.5" y="-511.5" font-family="Helvetica,sans-Serif" font-size="10.00">comp.h</text>
</a>
</g>
</g>
<!-- Node14&#45;&gt;Node15 -->
<g id="edge3" class="edge"><title>Node14&#45;&gt;Node15</title>
<path fill="none" stroke="midnightblue" d="M180.738,-555.862C160.341,-545.849 132.834,-532.346 115.13,-523.655"/>
<polygon fill="midnightblue" stroke="midnightblue" points="179.308,-559.059 189.827,-560.324 182.392,-552.775 179.308,-559.059"/>
</g>
<!-- Node17 -->
<g id="node6" class="node"><title>Node17</title>
<g id="a_node6"><a xlink:href="spec_2crypto_8h.html" target="_top" xlink:title="ODP crypto. ">
<polygon fill="white" stroke="black" points="193.5,-392.5 193.5,-411.5 249.5,-411.5 249.5,-392.5 193.5,-392.5"/>
<text text-anchor="middle" x="221.5" y="-399.5" font-family="Helvetica,sans-Serif" font-size="10.00">crypto.h</text>
</a>
</g>
</g>
<!-- Node14&#45;&gt;Node17 -->
<g id="edge5" class="edge"><title>Node14&#45;&gt;Node17</title>
<path fill="none" stroke="midnightblue" d="M221.999,-552.398C228.048,-544.388 234.383,-534.295 237.5,-524 247.288,-491.672 243.241,-481.286 237.5,-448 235.245,-434.926 229.559,-420.617 225.611,-411.723"/>
<polygon fill="midnightblue" stroke="midnightblue" points="219.272,-550.203 215.714,-560.182 224.719,-554.601 219.272,-550.203"/>
</g>
<!-- Node21 -->
<g id="node10" class="node"><title>Node21</title>
<g id="a_node10"><a xlink:href="spec_2event_8h.html" target="_top" xlink:title="ODP event. ">
<polygon fill="white" stroke="black" points="0,-504.5 0,-523.5 53,-523.5 53,-504.5 0,-504.5"/>
<text text-anchor="middle" x="26.5" y="-511.5" font-family="Helvetica,sans-Serif" font-size="10.00">event.h</text>
</a>
</g>
</g>
<!-- Node14&#45;&gt;Node21 -->
<g id="edge9" class="edge"><title>Node14&#45;&gt;Node21</title>
<path fill="none" stroke="midnightblue" d="M169.002,-557.514C134.202,-547.132 83.8735,-532.117 53.2756,-522.988"/>
<polygon fill="midnightblue" stroke="midnightblue" points="168.237,-560.938 178.82,-560.444 170.238,-554.231 168.237,-560.938"/>
</g>
<!-- Node14&#45;&gt;Node25 -->
<g id="edge28" class="edge"><title>Node14&#45;&gt;Node25</title>
<path fill="none" stroke="midnightblue" d="M229.97,-554.395C255.748,-535.669 294.5,-500.6 294.5,-459 294.5,-459 294.5,-459 294.5,-401 294.5,-363.188 294.5,-318.064 294.5,-299.558"/>
<polygon fill="midnightblue" stroke="midnightblue" points="227.676,-551.728 221.478,-560.321 231.682,-557.469 227.676,-551.728"/>
</g>
<!-- Node33 -->
<g id="node22" class="node"><title>Node33</title>
<g id="a_node22"><a xlink:href="spec_2packet__flags_8h.html" target="_top" xlink:title="ODP packet flags. ">
<polygon fill="white" stroke="black" points="142.5,-504.5 142.5,-523.5 228.5,-523.5 228.5,-504.5 142.5,-504.5"/>
<text text-anchor="middle" x="185.5" y="-511.5" font-family="Helvetica,sans-Serif" font-size="10.00">packet_flags.h</text>
</a>
</g>
</g>
<!-- Node14&#45;&gt;Node33 -->
<g id="edge26" class="edge"><title>Node14&#45;&gt;Node33</title>
<path fill="none" stroke="midnightblue" d="M200.04,-550.69C196.333,-541.589 192.024,-531.014 189.065,-523.751"/>
<polygon fill="midnightblue" stroke="midnightblue" points="196.853,-552.143 203.867,-560.083 203.335,-549.502 196.853,-552.143"/>
</g>
<!-- Node16 -->
<g id="node5" class="node"><title>Node16</title>
<g id="a_node5"><a xlink:href="comp_8h.html" target="_top" xlink:title="ODP crypto. ">
<polygon fill="white" stroke="black" points="71,-448.5 71,-467.5 124,-467.5 124,-448.5 71,-448.5"/>
<text text-anchor="middle" x="97.5" y="-455.5" font-family="Helvetica,sans-Serif" font-size="10.00">comp.h</text>
</a>
</g>
</g>
<!-- Node15&#45;&gt;Node16 -->
<g id="edge4" class="edge"><title>Node15&#45;&gt;Node16</title>
<path fill="none" stroke="midnightblue" d="M97.5,-493.805C97.5,-484.91 97.5,-474.78 97.5,-467.751"/>
<polygon fill="midnightblue" stroke="midnightblue" points="94.0001,-494.083 97.5,-504.083 101,-494.083 94.0001,-494.083"/>
</g>
<!-- Node18 -->
<g id="node7" class="node"><title>Node18</title>
<g id="a_node7"><a xlink:href="crypto_8h.html" target="_top" xlink:title="ODP crypto. ">
<polygon fill="white" stroke="black" points="126.5,-280.5 126.5,-299.5 182.5,-299.5 182.5,-280.5 126.5,-280.5"/>
<text text-anchor="middle" x="154.5" y="-287.5" font-family="Helvetica,sans-Serif" font-size="10.00">crypto.h</text>
</a>
</g>
</g>
<!-- Node17&#45;&gt;Node18 -->
<g id="edge6" class="edge"><title>Node17&#45;&gt;Node18</title>
<path fill="none" stroke="midnightblue" d="M210.926,-383.64C196.371,-359.744 170.719,-317.629 159.733,-299.591"/>
<polygon fill="midnightblue" stroke="midnightblue" points="208.051,-385.649 216.243,-392.368 214.03,-382.007 208.051,-385.649"/>
</g>
<!-- Node19 -->
<g id="node8" class="node"><title>Node19</title>
<g id="a_node8"><a xlink:href="spec_2ipsec_8h.html" target="_top" xlink:title="ODP IPSEC API. ">
<polygon fill="white" stroke="black" points="234.5,-56.5 234.5,-75.5 284.5,-75.5 284.5,-56.5 234.5,-56.5"/>
<text text-anchor="middle" x="259.5" y="-63.5" font-family="Helvetica,sans-Serif" font-size="10.00">ipsec.h</text>
</a>
</g>
</g>
<!-- Node18&#45;&gt;Node19 -->
<g id="edge7" class="edge"><title>Node18&#45;&gt;Node19</title>
<path fill="none" stroke="midnightblue" d="M151.156,-270.198C146.074,-235.592 140.211,-160.886 173.5,-112 187.632,-91.2467 214.447,-79.4073 234.394,-73.1359"/>
<polygon fill="midnightblue" stroke="midnightblue" points="147.739,-270.99 152.792,-280.302 154.649,-269.871 147.739,-270.99"/>
</g>
<!-- Node20 -->
<g id="node9" class="node"><title>Node20</title>
<g id="a_node9"><a xlink:href="ipsec_8h.html" target="_top" xlink:title="ODP IPSEC API &#45; platform specific header. ">
<polygon fill="white" stroke="black" points="234.5,-0.5 234.5,-19.5 284.5,-19.5 284.5,-0.5 234.5,-0.5"/>
<text text-anchor="middle" x="259.5" y="-7.5" font-family="Helvetica,sans-Serif" font-size="10.00">ipsec.h</text>
</a>
</g>
</g>
<!-- Node19&#45;&gt;Node20 -->
<g id="edge8" class="edge"><title>Node19&#45;&gt;Node20</title>
<path fill="none" stroke="midnightblue" d="M259.5,-45.8045C259.5,-36.9102 259.5,-26.7798 259.5,-19.7511"/>
<polygon fill="midnightblue" stroke="midnightblue" points="256,-46.083 259.5,-56.083 263,-46.083 256,-46.083"/>
</g>
<!-- Node22 -->
<g id="node11" class="node"><title>Node22</title>
<g id="a_node11"><a xlink:href="event_8h.html" target="_top" xlink:title="ODP event. ">
<polygon fill="white" stroke="black" points="0,-448.5 0,-467.5 53,-467.5 53,-448.5 0,-448.5"/>
<text text-anchor="middle" x="26.5" y="-455.5" font-family="Helvetica,sans-Serif" font-size="10.00">event.h</text>
</a>
</g>
</g>
<!-- Node21&#45;&gt;Node22 -->
<g id="edge10" class="edge"><title>Node21&#45;&gt;Node22</title>
<path fill="none" stroke="midnightblue" d="M26.5,-493.805C26.5,-484.91 26.5,-474.78 26.5,-467.751"/>
<polygon fill="midnightblue" stroke="midnightblue" points="23.0001,-494.083 26.5,-504.083 30.0001,-494.083 23.0001,-494.083"/>
</g>
<!-- Node23 -->
<g id="node12" class="node"><title>Node23</title>
<g id="a_node12"><a xlink:href="spec_2queue_8h.html" target="_top" xlink:title="ODP queue. ">
<polygon fill="white" stroke="black" points="66.5,-392.5 66.5,-411.5 122.5,-411.5 122.5,-392.5 66.5,-392.5"/>
<text text-anchor="middle" x="94.5" y="-399.5" font-family="Helvetica,sans-Serif" font-size="10.00">queue.h</text>
</a>
</g>
</g>
<!-- Node22&#45;&gt;Node23 -->
<g id="edge11" class="edge"><title>Node22&#45;&gt;Node23</title>
<path fill="none" stroke="midnightblue" d="M45.262,-442.101C57.4999,-432.382 73.0587,-420.027 83.3758,-411.834"/>
<polygon fill="midnightblue" stroke="midnightblue" points="43.0799,-439.364 37.4254,-448.324 47.4331,-444.846 43.0799,-439.364"/>
</g>
<!-- Node31 -->
<g id="node20" class="node"><title>Node31</title>
<g id="a_node20"><a xlink:href="spec_2schedule_8h.html" target="_top" xlink:title="ODP schedule. ">
<polygon fill="white" stroke="black" points="16.5,-280.5 16.5,-299.5 84.5,-299.5 84.5,-280.5 16.5,-280.5"/>
<text text-anchor="middle" x="50.5" y="-287.5" font-family="Helvetica,sans-Serif" font-size="10.00">schedule.h</text>
</a>
</g>
</g>
<!-- Node22&#45;&gt;Node31 -->
<g id="edge25" class="edge"><title>Node22&#45;&gt;Node31</title>
<path fill="none" stroke="midnightblue" d="M29.2572,-437.93C34.4633,-401.92 45.5509,-325.231 49.2612,-299.568"/>
<polygon fill="midnightblue" stroke="midnightblue" points="25.7573,-437.677 27.7903,-448.075 32.6853,-438.679 25.7573,-437.677"/>
</g>
<!-- Node24 -->
<g id="node13" class="node"><title>Node24</title>
<g id="a_node13"><a xlink:href="queue_8h.html" target="_top" xlink:title="ODP queue. ">
<polygon fill="white" stroke="black" points="78.5,-336.5 78.5,-355.5 134.5,-355.5 134.5,-336.5 78.5,-336.5"/>
<text text-anchor="middle" x="106.5" y="-343.5" font-family="Helvetica,sans-Serif" font-size="10.00">queue.h</text>
</a>
</g>
</g>
<!-- Node23&#45;&gt;Node24 -->
<g id="edge12" class="edge"><title>Node23&#45;&gt;Node24</title>
<path fill="none" stroke="midnightblue" d="M98.6999,-382.101C100.692,-373.136 102.976,-362.858 104.555,-355.751"/>
<polygon fill="midnightblue" stroke="midnightblue" points="95.2343,-381.562 96.4816,-392.083 102.068,-383.08 95.2343,-381.562"/>
</g>
<!-- Node24&#45;&gt;Node18 -->
<g id="edge13" class="edge"><title>Node24&#45;&gt;Node18</title>
<path fill="none" stroke="midnightblue" d="M121.228,-328.431C129.64,-318.967 139.849,-307.483 146.721,-299.751"/>
<polygon fill="midnightblue" stroke="midnightblue" points="118.454,-326.284 114.426,-336.083 123.686,-330.934 118.454,-326.284"/>
</g>
<!-- Node24&#45;&gt;Node25 -->
<g id="edge14" class="edge"><title>Node24&#45;&gt;Node25</title>
<path fill="none" stroke="midnightblue" d="M144.616,-334.052C180.042,-323.876 232.094,-308.925 264.606,-299.587"/>
<polygon fill="midnightblue" stroke="midnightblue" points="143.291,-330.791 134.645,-336.916 145.223,-337.519 143.291,-330.791"/>
</g>
<!-- Node24&#45;&gt;Node31 -->
<g id="edge23" class="edge"><title>Node24&#45;&gt;Node31</title>
<path fill="none" stroke="midnightblue" d="M90.1701,-329.253C80.235,-319.673 67.9125,-307.791 59.6611,-299.834"/>
<polygon fill="midnightblue" stroke="midnightblue" points="87.8747,-331.902 97.5026,-336.324 92.7336,-326.863 87.8747,-331.902"/>
</g>
<!-- Node26 -->
<g id="node15" class="node"><title>Node26</title>
<g id="a_node15"><a xlink:href="packet__io_8h.html" target="_top" xlink:title="ODP Packet IO. ">
<polygon fill="white" stroke="black" points="259,-224.5 259,-243.5 330,-243.5 330,-224.5 259,-224.5"/>
<text text-anchor="middle" x="294.5" y="-231.5" font-family="Helvetica,sans-Serif" font-size="10.00">packet_io.h</text>
</a>
</g>
</g>
<!-- Node25&#45;&gt;Node26 -->
<g id="edge15" class="edge"><title>Node25&#45;&gt;Node26</title>
<path fill="none" stroke="midnightblue" d="M294.5,-269.805C294.5,-260.91 294.5,-250.78 294.5,-243.751"/>
<polygon fill="midnightblue" stroke="midnightblue" points="291,-270.083 294.5,-280.083 298,-270.083 291,-270.083"/>
</g>
<!-- Node26&#45;&gt;Node19 -->
<g id="edge19" class="edge"><title>Node26&#45;&gt;Node19</title>
<path fill="none" stroke="midnightblue" d="M292.335,-214.255C289.357,-190.312 283.342,-147.7 274.5,-112 271.293,-99.0504 266.138,-84.4698 262.785,-75.5081"/>
<polygon fill="midnightblue" stroke="midnightblue" points="288.885,-214.885 293.552,-224.397 295.836,-214.051 288.885,-214.885"/>
</g>
<!-- Node27 -->
<g id="node16" class="node"><title>Node27</title>
<g id="a_node16"><a xlink:href="spec_2classification_8h.html" target="_top" xlink:title="ODP classification descriptor. ">
<polygon fill="white" stroke="black" points="322.5,-168.5 322.5,-187.5 408.5,-187.5 408.5,-168.5 322.5,-168.5"/>
<text text-anchor="middle" x="365.5" y="-175.5" font-family="Helvetica,sans-Serif" font-size="10.00">classification.h</text>
</a>
</g>
</g>
<!-- Node26&#45;&gt;Node27 -->
<g id="edge16" class="edge"><title>Node26&#45;&gt;Node27</title>
<path fill="none" stroke="midnightblue" d="M314.09,-218.101C326.868,-208.382 343.113,-196.027 353.885,-187.834"/>
<polygon fill="midnightblue" stroke="midnightblue" points="311.748,-215.484 305.907,-224.324 315.986,-221.056 311.748,-215.484"/>
</g>
<!-- Node29 -->
<g id="node18" class="node"><title>Node29</title>
<g id="a_node18"><a xlink:href="spec_2traffic__mngr_8h.html" target="_top" xlink:title="Copyright (c) 2015&#45;2018, Linaro Limited All rights reserved. ">
<polygon fill="white" stroke="black" points="183,-168.5 183,-187.5 266,-187.5 266,-168.5 183,-168.5"/>
<text text-anchor="middle" x="224.5" y="-175.5" font-family="Helvetica,sans-Serif" font-size="10.00">traffic_mngr.h</text>
</a>
</g>
</g>
<!-- Node26&#45;&gt;Node29 -->
<g id="edge20" class="edge"><title>Node26&#45;&gt;Node29</title>
<path fill="none" stroke="midnightblue" d="M275.186,-218.101C262.588,-208.382 246.572,-196.027 235.951,-187.834"/>
<polygon fill="midnightblue" stroke="midnightblue" points="273.198,-220.987 283.253,-224.324 277.473,-215.445 273.198,-220.987"/>
</g>
<!-- Node28 -->
<g id="node17" class="node"><title>Node28</title>
<g id="a_node17"><a xlink:href="classification_8h.html" target="_top" xlink:title="ODP classification descriptor. ">
<polygon fill="white" stroke="black" points="322.5,-112.5 322.5,-131.5 408.5,-131.5 408.5,-112.5 322.5,-112.5"/>
<text text-anchor="middle" x="365.5" y="-119.5" font-family="Helvetica,sans-Serif" font-size="10.00">classification.h</text>
</a>
</g>
</g>
<!-- Node27&#45;&gt;Node28 -->
<g id="edge17" class="edge"><title>Node27&#45;&gt;Node28</title>
<path fill="none" stroke="midnightblue" d="M365.5,-157.805C365.5,-148.91 365.5,-138.78 365.5,-131.751"/>
<polygon fill="midnightblue" stroke="midnightblue" points="362,-158.083 365.5,-168.083 369,-158.083 362,-158.083"/>
</g>
<!-- Node28&#45;&gt;Node19 -->
<g id="edge18" class="edge"><title>Node28&#45;&gt;Node19</title>
<path fill="none" stroke="midnightblue" d="M339.444,-107.726C319.816,-97.7271 293.472,-84.3065 276.488,-75.6545"/>
<polygon fill="midnightblue" stroke="midnightblue" points="337.97,-110.903 348.469,-112.324 341.148,-104.666 337.97,-110.903"/>
</g>
<!-- Node30 -->
<g id="node19" class="node"><title>Node30</title>
<g id="a_node19"><a xlink:href="traffic__mngr_8h.html" target="_top" xlink:title="ODP Traffic manager. ">
<polygon fill="white" stroke="black" points="183,-112.5 183,-131.5 266,-131.5 266,-112.5 183,-112.5"/>
<text text-anchor="middle" x="224.5" y="-119.5" font-family="Helvetica,sans-Serif" font-size="10.00">traffic_mngr.h</text>
</a>
</g>
</g>
<!-- Node29&#45;&gt;Node30 -->
<g id="edge21" class="edge"><title>Node29&#45;&gt;Node30</title>
<path fill="none" stroke="midnightblue" d="M224.5,-157.805C224.5,-148.91 224.5,-138.78 224.5,-131.751"/>
<polygon fill="midnightblue" stroke="midnightblue" points="221,-158.083 224.5,-168.083 228,-158.083 221,-158.083"/>
</g>
<!-- Node30&#45;&gt;Node19 -->
<g id="edge22" class="edge"><title>Node30&#45;&gt;Node19</title>
<path fill="none" stroke="midnightblue" d="M235.8,-103.566C241.822,-94.2747 248.969,-83.2484 253.828,-75.7511"/>
<polygon fill="midnightblue" stroke="midnightblue" points="232.781,-101.788 230.28,-112.083 238.656,-105.595 232.781,-101.788"/>
</g>
<!-- Node32 -->
<g id="node21" class="node"><title>Node32</title>
<g id="a_node21"><a xlink:href="schedule_8h.html" target="_top" xlink:title="ODP schedule. ">
<polygon fill="white" stroke="black" points="16.5,-224.5 16.5,-243.5 84.5,-243.5 84.5,-224.5 16.5,-224.5"/>
<text text-anchor="middle" x="50.5" y="-231.5" font-family="Helvetica,sans-Serif" font-size="10.00">schedule.h</text>
</a>
</g>
</g>
<!-- Node31&#45;&gt;Node32 -->
<g id="edge24" class="edge"><title>Node31&#45;&gt;Node32</title>
<path fill="none" stroke="midnightblue" d="M50.5,-269.805C50.5,-260.91 50.5,-250.78 50.5,-243.751"/>
<polygon fill="midnightblue" stroke="midnightblue" points="47.0001,-270.083 50.5,-280.083 54.0001,-270.083 47.0001,-270.083"/>
</g>
<!-- Node34 -->
<g id="node23" class="node"><title>Node34</title>
<g id="a_node23"><a xlink:href="packet__flags_8h.html" target="_top" xlink:title="ODP packet flags. ">
<polygon fill="white" stroke="black" points="142.5,-448.5 142.5,-467.5 228.5,-467.5 228.5,-448.5 142.5,-448.5"/>
<text text-anchor="middle" x="185.5" y="-455.5" font-family="Helvetica,sans-Serif" font-size="10.00">packet_flags.h</text>
</a>
</g>
</g>
<!-- Node33&#45;&gt;Node34 -->
<g id="edge27" class="edge"><title>Node33&#45;&gt;Node34</title>
<path fill="none" stroke="midnightblue" d="M185.5,-493.805C185.5,-484.91 185.5,-474.78 185.5,-467.751"/>
<polygon fill="midnightblue" stroke="midnightblue" points="182,-494.083 185.5,-504.083 189,-494.083 182,-494.083"/>
</g>
</g>
</svg>
