<?xml version="1.0" encoding="UTF-8" standalone="no"?>
<!DOCTYPE svg PUBLIC "-//W3C//DTD SVG 1.1//EN"
 "http://www.w3.org/Graphics/SVG/1.1/DTD/svg11.dtd">
<!-- Generated by graphviz version 2.38.0 (20140413.2041)
 -->
<!-- Title: traffic_mngr.h Pages: 1 -->
<svg width="1611pt" height="912pt"
 viewBox="0.00 0.00 1610.50 912.00" xmlns="http://www.w3.org/2000/svg" xmlns:xlink="http://www.w3.org/1999/xlink">
<g id="graph0" class="graph" transform="scale(1 1) rotate(0) translate(4 908)">
<title>traffic_mngr.h</title>
<polygon fill="white" stroke="none" points="-4,4 -4,-908 1606.5,-908 1606.5,4 -4,4"/>
<!-- Node0 -->
<g id="node1" class="node"><title>Node0</title>
<polygon fill="#bfbfbf" stroke="black" points="68,-884.5 68,-903.5 151,-903.5 151,-884.5 68,-884.5"/>
<text text-anchor="middle" x="109.5" y="-891.5" font-family="Helvetica,sans-Serif" font-size="10.00">traffic_mngr.h</text>
</g>
<!-- Node1 -->
<g id="node2" class="node"><title>Node1</title>
<polygon fill="white" stroke="#bfbfbf" points="0,-817.5 0,-847.5 99,-847.5 99,-817.5 0,-817.5"/>
<text text-anchor="start" x="8" y="-835.5" font-family="Helvetica,sans-Serif" font-size="10.00">odp/api/abi/traffic</text>
<text text-anchor="middle" x="49.5" y="-824.5" font-family="Helvetica,sans-Serif" font-size="10.00">_mngr.h</text>
</g>
<!-- Node0&#45;&gt;Node1 -->
<g id="edge1" class="edge"><title>Node0&#45;&gt;Node1</title>
<path fill="none" stroke="midnightblue" d="M100.903,-884.475C93.0811,-876.718 81.2077,-864.943 70.8424,-854.665"/>
<polygon fill="midnightblue" stroke="midnightblue" points="73.2059,-852.079 63.6408,-847.523 68.2769,-857.05 73.2059,-852.079"/>
</g>
<!-- Node2 -->
<g id="node3" class="node"><title>Node2</title>
<g id="a_node3"><a xlink:href="spec_2traffic__mngr_8h.html" target="_top" xlink:title="Copyright (c) 2015&#45;2018, Linaro Limited All rights reserved. ">
<polygon fill="white" stroke="black" points="117,-817.5 117,-847.5 224,-847.5 224,-817.5 117,-817.5"/>
<text text-anchor="start" x="125" y="-835.5" font-family="Helvetica,sans-Serif" font-size="10.00">odp/api/spec/traffic</text>
<text text-anchor="middle" x="170.5" y="-824.5" font-family="Helvetica,sans-Serif" font-size="10.00">_mngr.h</text>
</a>
</g>
</g>
<!-- Node0&#45;&gt;Node2 -->
<g id="edge2" class="edge"><title>Node0&#45;&gt;Node2</title>
<path fill="none" stroke="midnightblue" d="M118.24,-884.475C126.193,-876.718 138.264,-864.943 148.802,-854.665"/>
<polygon fill="midnightblue" stroke="midnightblue" points="151.409,-857.011 156.124,-847.523 146.521,-852 151.409,-857.011"/>
</g>
<!-- Node3 -->
<g id="node4" class="node"><title>Node3</title>
<polygon fill="white" stroke="#bfbfbf" points="552,-0.5 552,-19.5 667,-19.5 667,-0.5 552,-0.5"/>
<text text-anchor="middle" x="609.5" y="-7.5" font-family="Helvetica,sans-Serif" font-size="10.00">odp/visibility_begin.h</text>
</g>
<!-- Node2&#45;&gt;Node3 -->
<g id="edge3" class="edge"><title>Node2&#45;&gt;Node3</title>
<path fill="none" stroke="midnightblue" d="M131.163,-817.468C90.9972,-800.318 34.5,-767.112 34.5,-716 34.5,-716 34.5,-716 34.5,-132 34.5,-85.7756 63.9627,-76.2816 105.5,-56 180.575,-19.3428 422.317,-12.3159 541.617,-11.1254"/>
<polygon fill="midnightblue" stroke="midnightblue" points="541.761,-14.6243 551.729,-11.0355 541.698,-7.62459 541.761,-14.6243"/>
</g>
<!-- Node4 -->
<g id="node5" class="node"><title>Node4</title>
<g id="a_node5"><a xlink:href="std__types_8h.html" target="_top" xlink:title="Standard C language types and definitions for ODP. ">
<polygon fill="white" stroke="black" points="388.5,-246.5 388.5,-265.5 498.5,-265.5 498.5,-246.5 388.5,-246.5"/>
<text text-anchor="middle" x="443.5" y="-253.5" font-family="Helvetica,sans-Serif" font-size="10.00">odp/api/std_types.h</text>
</a>
</g>
</g>
<!-- Node2&#45;&gt;Node4 -->
<g id="edge4" class="edge"><title>Node2&#45;&gt;Node4</title>
<path fill="none" stroke="midnightblue" d="M146.527,-817.461C117.514,-798.459 72.5,-761.626 72.5,-716 72.5,-716 72.5,-716 72.5,-434 72.5,-300.052 271.935,-267.373 378.359,-259.471"/>
<polygon fill="midnightblue" stroke="midnightblue" points="378.623,-262.961 388.358,-258.781 378.141,-255.977 378.623,-262.961"/>
</g>
<!-- Node11 -->
<g id="node12" class="node"><title>Node11</title>
<polygon fill="white" stroke="#bfbfbf" points="1321,-0.5 1321,-19.5 1428,-19.5 1428,-0.5 1321,-0.5"/>
<text text-anchor="middle" x="1374.5" y="-7.5" font-family="Helvetica,sans-Serif" font-size="10.00">odp/visibility_end.h</text>
</g>
<!-- Node2&#45;&gt;Node11 -->
<g id="edge78" class="edge"><title>Node2&#45;&gt;Node11</title>
<path fill="none" stroke="midnightblue" d="M224.023,-830.041C483.989,-822.61 1602.5,-786.539 1602.5,-716 1602.5,-716 1602.5,-716 1602.5,-132 1602.5,-57.3013 1505.83,-28.5792 1438.38,-17.6303"/>
<polygon fill="midnightblue" stroke="midnightblue" points="1438.66,-14.1318 1428.24,-16.0809 1437.6,-21.0514 1438.66,-14.1318"/>
</g>
<!-- Node12 -->
<g id="node13" class="node"><title>Node12</title>
<g id="a_node13"><a xlink:href="packet__io_8h.html" target="_top" xlink:title="ODP Packet IO. ">
<polygon fill="white" stroke="black" points="262.5,-761.5 262.5,-780.5 372.5,-780.5 372.5,-761.5 262.5,-761.5"/>
<text text-anchor="middle" x="317.5" y="-768.5" font-family="Helvetica,sans-Serif" font-size="10.00">odp/api/packet_io.h</text>
</a>
</g>
</g>
<!-- Node2&#45;&gt;Node12 -->
<g id="edge15" class="edge"><title>Node2&#45;&gt;Node12</title>
<path fill="none" stroke="midnightblue" d="M205.337,-817.399C230.001,-807.416 262.785,-794.147 286.535,-784.534"/>
<polygon fill="midnightblue" stroke="midnightblue" points="288.154,-787.654 296.11,-780.658 285.528,-781.165 288.154,-787.654"/>
</g>
<!-- Node5 -->
<g id="node6" class="node"><title>Node5</title>
<polygon fill="white" stroke="#bfbfbf" points="191.5,-185 191.5,-204 319.5,-204 319.5,-185 191.5,-185"/>
<text text-anchor="middle" x="255.5" y="-192" font-family="Helvetica,sans-Serif" font-size="10.00">odp/api/abi/std_types.h</text>
</g>
<!-- Node4&#45;&gt;Node5 -->
<g id="edge5" class="edge"><title>Node4&#45;&gt;Node5</title>
<path fill="none" stroke="midnightblue" d="M416.564,-246.475C383.897,-236.136 328.681,-218.661 292.157,-207.102"/>
<polygon fill="midnightblue" stroke="midnightblue" points="292.976,-203.69 282.386,-204.009 290.864,-210.363 292.976,-203.69"/>
</g>
<!-- Node6 -->
<g id="node7" class="node"><title>Node6</title>
<g id="a_node7"><a xlink:href="spec_2std__types_8h.html" target="_top" xlink:title="Standard C language types and definitions for ODP. ">
<polygon fill="white" stroke="black" points="375.5,-185 375.5,-204 511.5,-204 511.5,-185 375.5,-185"/>
<text text-anchor="middle" x="443.5" y="-192" font-family="Helvetica,sans-Serif" font-size="10.00">odp/api/spec/std_types.h</text>
</a>
</g>
</g>
<!-- Node4&#45;&gt;Node6 -->
<g id="edge6" class="edge"><title>Node4&#45;&gt;Node6</title>
<path fill="none" stroke="midnightblue" d="M443.5,-246.475C443.5,-238.08 443.5,-224.981 443.5,-214.163"/>
<polygon fill="midnightblue" stroke="midnightblue" points="447,-214.009 443.5,-204.009 440,-214.009 447,-214.009"/>
</g>
<!-- Node6&#45;&gt;Node3 -->
<g id="edge7" class="edge"><title>Node6&#45;&gt;Node3</title>
<path fill="none" stroke="midnightblue" d="M427.864,-184.88C412.997,-176.021 390.835,-161.005 376.5,-143 351.441,-111.526 325.611,-86.7951 351.5,-56 375.364,-27.6133 473.573,-17.1316 541.69,-13.2623"/>
<polygon fill="midnightblue" stroke="midnightblue" points="542.129,-16.744 551.929,-12.7172 541.757,-9.75395 542.129,-16.744"/>
</g>
<!-- Node7 -->
<g id="node8" class="node"><title>Node7</title>
<polygon fill="white" stroke="#bfbfbf" points="386,-123.5 386,-142.5 439,-142.5 439,-123.5 386,-123.5"/>
<text text-anchor="middle" x="412.5" y="-130.5" font-family="Helvetica,sans-Serif" font-size="10.00">stdint.h</text>
</g>
<!-- Node6&#45;&gt;Node7 -->
<g id="edge8" class="edge"><title>Node6&#45;&gt;Node7</title>
<path fill="none" stroke="midnightblue" d="M439.058,-184.975C434.547,-176.315 427.426,-162.649 421.693,-151.645"/>
<polygon fill="midnightblue" stroke="midnightblue" points="424.658,-149.76 416.933,-142.509 418.45,-152.995 424.658,-149.76"/>
</g>
<!-- Node8 -->
<g id="node9" class="node"><title>Node8</title>
<g id="a_node9"><a xlink:href="align_8h.html" target="_top" xlink:title="ODP alignments. ">
<polygon fill="white" stroke="black" points="495.5,-123.5 495.5,-142.5 581.5,-142.5 581.5,-123.5 495.5,-123.5"/>
<text text-anchor="middle" x="538.5" y="-130.5" font-family="Helvetica,sans-Serif" font-size="10.00">odp/api/align.h</text>
</a>
</g>
</g>
<!-- Node6&#45;&gt;Node8 -->
<g id="edge9" class="edge"><title>Node6&#45;&gt;Node8</title>
<path fill="none" stroke="midnightblue" d="M457.111,-184.975C472.561,-175.299 497.99,-159.372 516.316,-147.894"/>
<polygon fill="midnightblue" stroke="midnightblue" points="518.297,-150.783 524.914,-142.509 514.581,-144.851 518.297,-150.783"/>
</g>
<!-- Node6&#45;&gt;Node11 -->
<g id="edge14" class="edge"><title>Node6&#45;&gt;Node11</title>
<path fill="none" stroke="midnightblue" d="M511.729,-188.214C669.515,-175.247 1055.17,-139.074 1173.5,-87 1193.45,-78.2205 1192.14,-66.0036 1211.5,-56 1243.16,-39.6473 1281.43,-28.6858 1312.94,-21.6789"/>
<polygon fill="midnightblue" stroke="midnightblue" points="1313.86,-25.0593 1322.91,-19.5412 1312.4,-18.2148 1313.86,-25.0593"/>
</g>
<!-- Node9 -->
<g id="node10" class="node"><title>Node9</title>
<polygon fill="white" stroke="#bfbfbf" points="393.5,-62 393.5,-81 497.5,-81 497.5,-62 393.5,-62"/>
<text text-anchor="middle" x="445.5" y="-69" font-family="Helvetica,sans-Serif" font-size="10.00">odp/api/abi/align.h</text>
</g>
<!-- Node8&#45;&gt;Node9 -->
<g id="edge10" class="edge"><title>Node8&#45;&gt;Node9</title>
<path fill="none" stroke="midnightblue" d="M525.175,-123.475C510.12,-113.843 485.384,-98.0175 467.463,-86.5517"/>
<polygon fill="midnightblue" stroke="midnightblue" points="469.11,-83.4501 458.8,-81.0091 465.337,-89.3466 469.11,-83.4501"/>
</g>
<!-- Node10 -->
<g id="node11" class="node"><title>Node10</title>
<g id="a_node11"><a xlink:href="spec_2align_8h.html" target="_top" xlink:title="ODP alignments. ">
<polygon fill="white" stroke="black" points="553.5,-62 553.5,-81 665.5,-81 665.5,-62 553.5,-62"/>
<text text-anchor="middle" x="609.5" y="-69" font-family="Helvetica,sans-Serif" font-size="10.00">odp/api/spec/align.h</text>
</a>
</g>
</g>
<!-- Node8&#45;&gt;Node10 -->
<g id="edge11" class="edge"><title>Node8&#45;&gt;Node10</title>
<path fill="none" stroke="midnightblue" d="M548.673,-123.475C559.85,-114.108 578.017,-98.8839 591.591,-87.5081"/>
<polygon fill="midnightblue" stroke="midnightblue" points="593.93,-90.1148 599.346,-81.0091 589.434,-84.7496 593.93,-90.1148"/>
</g>
<!-- Node10&#45;&gt;Node3 -->
<g id="edge12" class="edge"><title>Node10&#45;&gt;Node3</title>
<path fill="none" stroke="midnightblue" d="M609.5,-61.9751C609.5,-53.5803 609.5,-40.4806 609.5,-29.6631"/>
<polygon fill="midnightblue" stroke="midnightblue" points="613,-29.5091 609.5,-19.5091 606,-29.5091 613,-29.5091"/>
</g>
<!-- Node10&#45;&gt;Node11 -->
<g id="edge13" class="edge"><title>Node10&#45;&gt;Node11</title>
<path fill="none" stroke="midnightblue" d="M643.053,-61.9719C653.107,-59.6999 664.199,-57.471 674.5,-56 907.26,-22.7621 1187.09,-14.0635 1310.6,-11.7954"/>
<polygon fill="midnightblue" stroke="midnightblue" points="1310.7,-15.2942 1320.64,-11.6189 1310.58,-8.29526 1310.7,-15.2942"/>
</g>
<!-- Node12&#45;&gt;Node4 -->
<g id="edge16" class="edge"><title>Node12&#45;&gt;Node4</title>
<path fill="none" stroke="midnightblue" d="M273.978,-761.471C223.905,-748.833 148.5,-719.864 148.5,-660 148.5,-660 148.5,-660 148.5,-378 148.5,-326.535 304.13,-285.997 389.312,-267.663"/>
<polygon fill="midnightblue" stroke="midnightblue" points="390.279,-271.036 399.336,-265.538 388.827,-264.188 390.279,-271.036"/>
</g>
<!-- Node13 -->
<g id="node14" class="node"><title>Node13</title>
<polygon fill="white" stroke="#bfbfbf" points="1321,-369.5 1321,-388.5 1422,-388.5 1422,-369.5 1321,-369.5"/>
<text text-anchor="middle" x="1371.5" y="-376.5" font-family="Helvetica,sans-Serif" font-size="10.00">odp/api/abi/pool.h</text>
</g>
<!-- Node12&#45;&gt;Node13 -->
<g id="edge17" class="edge"><title>Node12&#45;&gt;Node13</title>
<path fill="none" stroke="midnightblue" d="M372.59,-767.916C609.106,-758.615 1526.5,-718.75 1526.5,-660 1526.5,-660 1526.5,-660 1526.5,-602 1526.5,-508.964 1433.85,-427.09 1391.81,-394.729"/>
<polygon fill="midnightblue" stroke="midnightblue" points="1393.76,-391.81 1383.66,-388.588 1389.54,-397.401 1393.76,-391.81"/>
</g>
<!-- Node14 -->
<g id="node15" class="node"><title>Node14</title>
<polygon fill="white" stroke="#bfbfbf" points="295.5,-705.5 295.5,-724.5 437.5,-724.5 437.5,-705.5 295.5,-705.5"/>
<text text-anchor="middle" x="366.5" y="-712.5" font-family="Helvetica,sans-Serif" font-size="10.00">odp/api/abi/classification.h</text>
</g>
<!-- Node12&#45;&gt;Node14 -->
<g id="edge18" class="edge"><title>Node12&#45;&gt;Node14</title>
<path fill="none" stroke="midnightblue" d="M325.591,-761.083C332.655,-753.298 343.088,-741.801 351.649,-732.367"/>
<polygon fill="midnightblue" stroke="midnightblue" points="354.431,-734.509 358.559,-724.751 349.247,-729.805 354.431,-734.509"/>
</g>
<!-- Node15 -->
<g id="node16" class="node"><title>Node15</title>
<polygon fill="white" stroke="#bfbfbf" points="177,-369.5 177,-388.5 290,-388.5 290,-369.5 177,-369.5"/>
<text text-anchor="middle" x="233.5" y="-376.5" font-family="Helvetica,sans-Serif" font-size="10.00">odp/api/abi/packet.h</text>
</g>
<!-- Node12&#45;&gt;Node15 -->
<g id="edge19" class="edge"><title>Node12&#45;&gt;Node15</title>
<path fill="none" stroke="midnightblue" d="M303.361,-761.361C278.486,-744.953 229.5,-706.712 229.5,-660 229.5,-660 229.5,-660 229.5,-490 229.5,-457.927 231.219,-420.628 232.404,-398.741"/>
<polygon fill="midnightblue" stroke="midnightblue" points="235.909,-398.735 232.977,-388.554 228.92,-398.341 235.909,-398.735"/>
</g>
<!-- Node16 -->
<g id="node17" class="node"><title>Node16</title>
<polygon fill="white" stroke="#bfbfbf" points="308,-369.5 308,-388.5 435,-388.5 435,-369.5 308,-369.5"/>
<text text-anchor="middle" x="371.5" y="-376.5" font-family="Helvetica,sans-Serif" font-size="10.00">odp/api/abi/packet_io.h</text>
</g>
<!-- Node12&#45;&gt;Node16 -->
<g id="edge20" class="edge"><title>Node12&#45;&gt;Node16</title>
<path fill="none" stroke="midnightblue" d="M310.179,-761.217C303.236,-752.506 292.936,-738.537 286.5,-725 273.577,-697.818 267.5,-690.098 267.5,-660 267.5,-660 267.5,-660 267.5,-490 267.5,-445.223 313.564,-411.325 344.379,-393.658"/>
<polygon fill="midnightblue" stroke="midnightblue" points="346.311,-396.59 353.385,-388.702 342.936,-390.457 346.311,-396.59"/>
</g>
<!-- Node17 -->
<g id="node18" class="node"><title>Node17</title>
<polygon fill="white" stroke="#bfbfbf" points="424,-593.5 424,-612.5 535,-612.5 535,-593.5 424,-593.5"/>
<text text-anchor="middle" x="479.5" y="-600.5" font-family="Helvetica,sans-Serif" font-size="10.00">odp/api/abi/queue.h</text>
</g>
<!-- Node12&#45;&gt;Node17 -->
<g id="edge21" class="edge"><title>Node12&#45;&gt;Node17</title>
<path fill="none" stroke="midnightblue" d="M372.573,-762.787C398.263,-756.72 427.326,-745.552 446.5,-725 473.024,-696.568 478.601,-648.925 479.549,-622.707"/>
<polygon fill="midnightblue" stroke="midnightblue" points="483.05,-622.665 479.718,-612.607 476.051,-622.547 483.05,-622.665"/>
</g>
<!-- Node18 -->
<g id="node19" class="node"><title>Node18</title>
<g id="a_node19"><a xlink:href="spec_2packet__io_8h.html" target="_top" xlink:title="ODP Packet IO. ">
<polygon fill="white" stroke="black" points="608,-705.5 608,-724.5 743,-724.5 743,-705.5 608,-705.5"/>
<text text-anchor="middle" x="675.5" y="-712.5" font-family="Helvetica,sans-Serif" font-size="10.00">odp/api/spec/packet_io.h</text>
</a>
</g>
</g>
<!-- Node12&#45;&gt;Node18 -->
<g id="edge22" class="edge"><title>Node12&#45;&gt;Node18</title>
<path fill="none" stroke="midnightblue" d="M372.653,-761.681C436.27,-752.085 540.822,-736.315 608.915,-726.044"/>
<polygon fill="midnightblue" stroke="midnightblue" points="609.736,-729.459 619.102,-724.507 608.692,-722.538 609.736,-729.459"/>
</g>
<!-- Node18&#45;&gt;Node3 -->
<g id="edge23" class="edge"><title>Node18&#45;&gt;Node3</title>
<path fill="none" stroke="midnightblue" d="M638.687,-705.486C507.767,-672.812 72.5,-542.699 72.5,-257 72.5,-257 72.5,-257 72.5,-132 72.5,-36.8651 397.305,-16.5202 541.699,-12.1761"/>
<polygon fill="midnightblue" stroke="midnightblue" points="541.88,-15.6725 551.777,-11.8902 541.681,-8.67528 541.88,-15.6725"/>
</g>
<!-- Node18&#45;&gt;Node11 -->
<g id="edge77" class="edge"><title>Node18&#45;&gt;Node11</title>
<path fill="none" stroke="midnightblue" d="M743.076,-712.236C887.512,-707.998 1222.11,-695.568 1332.5,-669 1492.64,-630.459 1564.5,-544.711 1564.5,-380 1564.5,-380 1564.5,-380 1564.5,-132 1564.5,-68.1765 1487.28,-36.5527 1431.3,-22.0123"/>
<polygon fill="midnightblue" stroke="midnightblue" points="1432.01,-18.5838 1421.47,-19.5747 1430.33,-25.3782 1432.01,-18.5838"/>
</g>
<!-- Node19 -->
<g id="node20" class="node"><title>Node19</title>
<g id="a_node20"><a xlink:href="deprecated_8h.html" target="_top" xlink:title="Control deprecated API definitions. ">
<polygon fill="white" stroke="black" points="1033,-246.5 1033,-265.5 1152,-265.5 1152,-246.5 1033,-246.5"/>
<text text-anchor="middle" x="1092.5" y="-253.5" font-family="Helvetica,sans-Serif" font-size="10.00">odp/api/deprecated.h</text>
</a>
</g>
</g>
<!-- Node18&#45;&gt;Node19 -->
<g id="edge24" class="edge"><title>Node18&#45;&gt;Node19</title>
<path fill="none" stroke="midnightblue" d="M743.258,-711.461C932.092,-703.491 1450.5,-675.134 1450.5,-604 1450.5,-604 1450.5,-604 1450.5,-378 1450.5,-317.761 1266.29,-281.683 1162.15,-266.099"/>
<polygon fill="midnightblue" stroke="midnightblue" points="1162.42,-262.602 1152.02,-264.611 1161.4,-269.528 1162.42,-262.602"/>
</g>
<!-- Node21 -->
<g id="node22" class="node"><title>Node21</title>
<g id="a_node22"><a xlink:href="packet__io__stats_8h.html" target="_top" xlink:title="ODP packet IO stats. ">
<polygon fill="white" stroke="black" points="812,-649.5 812,-668.5 951,-668.5 951,-649.5 812,-649.5"/>
<text text-anchor="middle" x="881.5" y="-656.5" font-family="Helvetica,sans-Serif" font-size="10.00">odp/api/packet_io_stats.h</text>
</a>
</g>
</g>
<!-- Node18&#45;&gt;Node21 -->
<g id="edge28" class="edge"><title>Node18&#45;&gt;Node21</title>
<path fill="none" stroke="midnightblue" d="M708.141,-705.444C743.55,-696.162 800.209,-681.309 839.053,-671.127"/>
<polygon fill="midnightblue" stroke="midnightblue" points="840.226,-674.438 849.011,-668.516 838.451,-667.667 840.226,-674.438"/>
</g>
<!-- Node23 -->
<g id="node24" class="node"><title>Node23</title>
<g id="a_node24"><a xlink:href="queue_8h.html" target="_top" xlink:title="ODP queue. ">
<polygon fill="white" stroke="black" points="699.5,-649.5 699.5,-668.5 793.5,-668.5 793.5,-649.5 699.5,-649.5"/>
<text text-anchor="middle" x="746.5" y="-656.5" font-family="Helvetica,sans-Serif" font-size="10.00">odp/api/queue.h</text>
</a>
</g>
</g>
<!-- Node18&#45;&gt;Node23 -->
<g id="edge32" class="edge"><title>Node18&#45;&gt;Node23</title>
<path fill="none" stroke="midnightblue" d="M686.907,-705.324C697.609,-697.185 713.841,-684.839 726.663,-675.087"/>
<polygon fill="midnightblue" stroke="midnightblue" points="729.044,-677.673 734.885,-668.834 724.807,-672.102 729.044,-677.673"/>
</g>
<!-- Node29 -->
<g id="node30" class="node"><title>Node29</title>
<g id="a_node30"><a xlink:href="packet_8h.html" target="_top" xlink:title="ODP packet descriptor. ">
<polygon fill="white" stroke="black" points="632.5,-425.5 632.5,-444.5 728.5,-444.5 728.5,-425.5 632.5,-425.5"/>
<text text-anchor="middle" x="680.5" y="-432.5" font-family="Helvetica,sans-Serif" font-size="10.00">odp/api/packet.h</text>
</a>
</g>
</g>
<!-- Node18&#45;&gt;Node29 -->
<g id="edge76" class="edge"><title>Node18&#45;&gt;Node29</title>
<path fill="none" stroke="midnightblue" d="M675.655,-705.375C676.349,-666.782 679.179,-509.454 680.162,-454.807"/>
<polygon fill="midnightblue" stroke="midnightblue" points="683.666,-454.586 680.347,-444.524 676.667,-454.46 683.666,-454.586"/>
</g>
<!-- Node31 -->
<g id="node32" class="node"><title>Node31</title>
<g id="a_node32"><a xlink:href="time_8h.html" target="_top" xlink:title="ODP time. ">
<polygon fill="white" stroke="black" points="614.5,-308 614.5,-327 700.5,-327 700.5,-308 614.5,-308"/>
<text text-anchor="middle" x="657.5" y="-315" font-family="Helvetica,sans-Serif" font-size="10.00">odp/api/time.h</text>
</a>
</g>
</g>
<!-- Node18&#45;&gt;Node31 -->
<g id="edge75" class="edge"><title>Node18&#45;&gt;Node31</title>
<path fill="none" stroke="midnightblue" d="M656.264,-705.415C624.972,-689.986 566.5,-654.41 566.5,-604 566.5,-604 566.5,-604 566.5,-490 566.5,-434.594 567.015,-415.909 596.5,-369 605.833,-354.152 621.011,-341.562 633.891,-332.667"/>
<polygon fill="midnightblue" stroke="midnightblue" points="635.905,-335.532 642.342,-327.117 632.062,-329.681 635.905,-335.532"/>
</g>
<!-- Node20 -->
<g id="node21" class="node"><title>Node20</title>
<g id="a_node21"><a xlink:href="spec_2deprecated_8h.html" target="_top" xlink:title="Macro for deprecated API definitions. ">
<polygon fill="white" stroke="black" points="1020.5,-62 1020.5,-81 1164.5,-81 1164.5,-62 1020.5,-62"/>
<text text-anchor="middle" x="1092.5" y="-69" font-family="Helvetica,sans-Serif" font-size="10.00">odp/api/spec/deprecated.h</text>
</a>
</g>
</g>
<!-- Node19&#45;&gt;Node20 -->
<g id="edge25" class="edge"><title>Node19&#45;&gt;Node20</title>
<path fill="none" stroke="midnightblue" d="M1092.5,-246.198C1092.5,-218.193 1092.5,-130.713 1092.5,-91.6598"/>
<polygon fill="midnightblue" stroke="midnightblue" points="1096,-91.214 1092.5,-81.214 1089,-91.2141 1096,-91.214"/>
</g>
<!-- Node20&#45;&gt;Node3 -->
<g id="edge26" class="edge"><title>Node20&#45;&gt;Node3</title>
<path fill="none" stroke="midnightblue" d="M1044.81,-61.986C1032.36,-59.8936 1018.94,-57.7531 1006.5,-56 891.299,-39.7714 756.643,-25.492 677.472,-17.5736"/>
<polygon fill="midnightblue" stroke="midnightblue" points="677.448,-14.054 667.151,-16.5459 676.755,-21.0195 677.448,-14.054"/>
</g>
<!-- Node20&#45;&gt;Node11 -->
<g id="edge27" class="edge"><title>Node20&#45;&gt;Node11</title>
<path fill="none" stroke="midnightblue" d="M1132.9,-61.9751C1183.37,-51.3269 1269.71,-33.1092 1324.35,-21.5806"/>
<polygon fill="midnightblue" stroke="midnightblue" points="1325.11,-24.9982 1334.17,-19.5091 1323.66,-18.149 1325.11,-24.9982"/>
</g>
<!-- Node22 -->
<g id="node23" class="node"><title>Node22</title>
<g id="a_node23"><a xlink:href="spec_2packet__io__stats_8h.html" target="_top" xlink:title="ODP Packet IO. ">
<polygon fill="white" stroke="black" points="813,-56.5 813,-86.5 926,-86.5 926,-56.5 813,-56.5"/>
<text text-anchor="start" x="821" y="-74.5" font-family="Helvetica,sans-Serif" font-size="10.00">odp/api/spec/packet</text>
<text text-anchor="middle" x="869.5" y="-63.5" font-family="Helvetica,sans-Serif" font-size="10.00">_io_stats.h</text>
</a>
</g>
</g>
<!-- Node21&#45;&gt;Node22 -->
<g id="edge29" class="edge"><title>Node21&#45;&gt;Node22</title>
<path fill="none" stroke="midnightblue" d="M881.5,-649.442C881.5,-630.936 881.5,-585.812 881.5,-548 881.5,-548 881.5,-548 881.5,-193.5 881.5,-159.816 876.838,-121.115 873.326,-96.7361"/>
<polygon fill="midnightblue" stroke="midnightblue" points="876.753,-95.9858 871.814,-86.6125 869.829,-97.0199 876.753,-95.9858"/>
</g>
<!-- Node22&#45;&gt;Node3 -->
<g id="edge30" class="edge"><title>Node22&#45;&gt;Node3</title>
<path fill="none" stroke="midnightblue" d="M812.763,-57.516C766.048,-46.8254 700.593,-31.8462 656.703,-21.8022"/>
<polygon fill="midnightblue" stroke="midnightblue" points="657.387,-18.3683 646.858,-19.5493 655.825,-25.1919 657.387,-18.3683"/>
</g>
<!-- Node22&#45;&gt;Node11 -->
<g id="edge31" class="edge"><title>Node22&#45;&gt;Node11</title>
<path fill="none" stroke="midnightblue" d="M926.448,-63.7903C1021.37,-52.6066 1211.28,-30.2303 1310.62,-18.5265"/>
<polygon fill="midnightblue" stroke="midnightblue" points="1311.3,-21.9712 1320.82,-17.3251 1310.48,-15.0193 1311.3,-21.9712"/>
</g>
<!-- Node23&#45;&gt;Node4 -->
<g id="edge33" class="edge"><title>Node23&#45;&gt;Node4</title>
<path fill="none" stroke="midnightblue" d="M738.854,-649.296C706.604,-612.399 579.171,-464.745 488.5,-333 475.236,-313.727 461.798,-290.431 453.105,-274.753"/>
<polygon fill="midnightblue" stroke="midnightblue" points="456.002,-272.757 448.127,-265.67 449.863,-276.121 456.002,-272.757"/>
</g>
<!-- Node23&#45;&gt;Node13 -->
<g id="edge37" class="edge"><title>Node23&#45;&gt;Node13</title>
<path fill="none" stroke="midnightblue" d="M793.519,-650.194C796.555,-649.767 799.568,-649.364 802.5,-649 983.147,-626.543 1034.64,-660.034 1210.5,-613 1276.77,-595.275 1350.5,-616.602 1350.5,-548 1350.5,-548 1350.5,-548 1350.5,-490 1350.5,-457.384 1359.52,-420.278 1365.73,-398.573"/>
<polygon fill="midnightblue" stroke="midnightblue" points="1369.17,-399.315 1368.67,-388.732 1362.46,-397.316 1369.17,-399.315"/>
</g>
<!-- Node23&#45;&gt;Node17 -->
<g id="edge35" class="edge"><title>Node23&#45;&gt;Node17</title>
<path fill="none" stroke="midnightblue" d="M704.193,-649.444C657.42,-639.984 582.04,-624.738 531.65,-614.547"/>
<polygon fill="midnightblue" stroke="midnightblue" points="532.104,-611.068 521.609,-612.516 530.717,-617.929 532.104,-611.068"/>
</g>
<!-- Node24 -->
<g id="node25" class="node"><title>Node24</title>
<polygon fill="white" stroke="#bfbfbf" points="1156.5,-369.5 1156.5,-388.5 1264.5,-388.5 1264.5,-369.5 1156.5,-369.5"/>
<text text-anchor="middle" x="1210.5" y="-376.5" font-family="Helvetica,sans-Serif" font-size="10.00">odp/api/abi/event.h</text>
</g>
<!-- Node23&#45;&gt;Node24 -->
<g id="edge34" class="edge"><title>Node23&#45;&gt;Node24</title>
<path fill="none" stroke="midnightblue" d="M793.549,-650.411C796.578,-649.931 799.581,-649.457 802.5,-649 904.182,-633.074 1254.5,-650.922 1254.5,-548 1254.5,-548 1254.5,-548 1254.5,-490 1254.5,-455.04 1235.1,-418.013 1222.07,-397.075"/>
<polygon fill="midnightblue" stroke="midnightblue" points="1224.99,-395.146 1216.62,-388.651 1219.11,-398.949 1224.99,-395.146"/>
</g>
<!-- Node25 -->
<g id="node26" class="node"><title>Node25</title>
<polygon fill="white" stroke="#bfbfbf" points="745.5,-369.5 745.5,-388.5 853.5,-388.5 853.5,-369.5 745.5,-369.5"/>
<text text-anchor="middle" x="799.5" y="-376.5" font-family="Helvetica,sans-Serif" font-size="10.00">odp/api/abi/buffer.h</text>
</g>
<!-- Node23&#45;&gt;Node25 -->
<g id="edge36" class="edge"><title>Node23&#45;&gt;Node25</title>
<path fill="none" stroke="midnightblue" d="M747.938,-649.471C750.92,-631.022 757.5,-586.001 757.5,-548 757.5,-548 757.5,-548 757.5,-490 757.5,-455.412 775.848,-418.492 788.29,-397.432"/>
<polygon fill="midnightblue" stroke="midnightblue" points="791.407,-399.045 793.66,-388.692 785.443,-395.38 791.407,-399.045"/>
</g>
<!-- Node26 -->
<g id="node27" class="node"><title>Node26</title>
<g id="a_node27"><a xlink:href="spec_2queue_8h.html" target="_top" xlink:title="ODP queue. ">
<polygon fill="white" stroke="black" points="910,-593.5 910,-612.5 1029,-612.5 1029,-593.5 910,-593.5"/>
<text text-anchor="middle" x="969.5" y="-600.5" font-family="Helvetica,sans-Serif" font-size="10.00">odp/api/spec/queue.h</text>
</a>
</g>
</g>
<!-- Node23&#45;&gt;Node26 -->
<g id="edge38" class="edge"><title>Node23&#45;&gt;Node26</title>
<path fill="none" stroke="midnightblue" d="M781.835,-649.444C820.411,-640.102 882.285,-625.119 924.353,-614.933"/>
<polygon fill="midnightblue" stroke="midnightblue" points="925.435,-618.272 934.33,-612.516 923.787,-611.468 925.435,-618.272"/>
</g>
<!-- Node26&#45;&gt;Node3 -->
<g id="edge39" class="edge"><title>Node26&#45;&gt;Node3</title>
<path fill="none" stroke="midnightblue" d="M935.592,-593.432C869.398,-575.345 720.939,-527.958 623.5,-445 572.113,-401.25 539.5,-385.989 539.5,-318.5 539.5,-318.5 539.5,-318.5 539.5,-255 539.5,-220.183 539.601,-208.11 520.5,-179 498.067,-144.812 481.552,-145.64 447.5,-123 420.645,-105.145 400.687,-114.893 384.5,-87 377.585,-75.0835 375.765,-66.6549 384.5,-56 404.137,-32.047 482.938,-20.5898 541.78,-15.2857"/>
<polygon fill="midnightblue" stroke="midnightblue" points="542.114,-18.7701 551.777,-14.4257 541.514,-11.7958 542.114,-18.7701"/>
</g>
<!-- Node26&#45;&gt;Node11 -->
<g id="edge74" class="edge"><title>Node26&#45;&gt;Node11</title>
<path fill="none" stroke="midnightblue" d="M1005.59,-593.429C1032.39,-586.133 1069.2,-574.095 1098.5,-557 1207.85,-493.193 1199.54,-426.16 1312.5,-369 1379.09,-335.307 1415.01,-375.289 1476.5,-333 1509.81,-310.087 1526.5,-297.432 1526.5,-257 1526.5,-257 1526.5,-257 1526.5,-132 1526.5,-74.1806 1458.35,-39.5401 1413.31,-22.962"/>
<polygon fill="midnightblue" stroke="midnightblue" points="1414.4,-19.6355 1403.81,-19.6024 1412.07,-26.2353 1414.4,-19.6355"/>
</g>
<!-- Node27 -->
<g id="node28" class="node"><title>Node27</title>
<g id="a_node28"><a xlink:href="event_8h.html" target="_top" xlink:title="ODP event. ">
<polygon fill="white" stroke="black" points="998,-537.5 998,-556.5 1089,-556.5 1089,-537.5 998,-537.5"/>
<text text-anchor="middle" x="1043.5" y="-544.5" font-family="Helvetica,sans-Serif" font-size="10.00">odp/api/event.h</text>
</a>
</g>
</g>
<!-- Node26&#45;&gt;Node27 -->
<g id="edge40" class="edge"><title>Node26&#45;&gt;Node27</title>
<path fill="none" stroke="midnightblue" d="M981.389,-593.324C992.65,-585.107 1009.79,-572.602 1023.21,-562.807"/>
<polygon fill="midnightblue" stroke="midnightblue" points="1025.38,-565.556 1031.39,-556.834 1021.25,-559.901 1025.38,-565.556"/>
</g>
<!-- Node34 -->
<g id="node35" class="node"><title>Node34</title>
<g id="a_node35"><a xlink:href="queue__types_8h.html" target="_top" xlink:title="ODP queue types. ">
<polygon fill="white" stroke="black" points="1037.5,-302.5 1037.5,-332.5 1147.5,-332.5 1147.5,-302.5 1037.5,-302.5"/>
<text text-anchor="start" x="1045.5" y="-320.5" font-family="Helvetica,sans-Serif" font-size="10.00">odp/api/spec/queue</text>
<text text-anchor="middle" x="1092.5" y="-309.5" font-family="Helvetica,sans-Serif" font-size="10.00">_types.h</text>
</a>
</g>
</g>
<!-- Node26&#45;&gt;Node34 -->
<g id="edge61" class="edge"><title>Node26&#45;&gt;Node34</title>
<path fill="none" stroke="midnightblue" d="M967.931,-593.477C964.678,-575.038 957.5,-530.037 957.5,-492 957.5,-492 957.5,-492 957.5,-434 957.5,-387.082 1005.16,-355.142 1043.85,-336.946"/>
<polygon fill="midnightblue" stroke="midnightblue" points="1045.77,-339.915 1053.45,-332.615 1042.9,-333.534 1045.77,-339.915"/>
</g>
<!-- Node27&#45;&gt;Node24 -->
<g id="edge41" class="edge"><title>Node27&#45;&gt;Node24</title>
<path fill="none" stroke="midnightblue" d="M1058.77,-537.481C1072.96,-529.172 1094.3,-515.671 1110.5,-501 1146.87,-468.075 1181.53,-421.629 1198.91,-396.954"/>
<polygon fill="midnightblue" stroke="midnightblue" points="1201.86,-398.846 1204.69,-388.637 1196.11,-394.851 1201.86,-398.846"/>
</g>
<!-- Node28 -->
<g id="node29" class="node"><title>Node28</title>
<g id="a_node29"><a xlink:href="spec_2event_8h.html" target="_top" xlink:title="ODP event. ">
<polygon fill="white" stroke="black" points="985.5,-481.5 985.5,-500.5 1101.5,-500.5 1101.5,-481.5 985.5,-481.5"/>
<text text-anchor="middle" x="1043.5" y="-488.5" font-family="Helvetica,sans-Serif" font-size="10.00">odp/api/spec/event.h</text>
</a>
</g>
</g>
<!-- Node27&#45;&gt;Node28 -->
<g id="edge42" class="edge"><title>Node27&#45;&gt;Node28</title>
<path fill="none" stroke="midnightblue" d="M1043.5,-537.083C1043.5,-530.006 1043.5,-519.861 1043.5,-510.986"/>
<polygon fill="midnightblue" stroke="midnightblue" points="1047,-510.751 1043.5,-500.751 1040,-510.751 1047,-510.751"/>
</g>
<!-- Node28&#45;&gt;Node3 -->
<g id="edge43" class="edge"><title>Node28&#45;&gt;Node3</title>
<path fill="none" stroke="midnightblue" d="M1033.11,-481.468C1008.99,-461.662 947.286,-411.052 895.5,-369 760.308,-259.218 726.854,-231.335 590.5,-123 570.174,-106.85 555.871,-110.338 544.5,-87 538.465,-74.6141 538.106,-68.2041 544.5,-56 551.779,-42.1082 565.509,-31.6523 578.483,-24.3328"/>
<polygon fill="midnightblue" stroke="midnightblue" points="580.428,-27.2662 587.692,-19.553 577.204,-21.0532 580.428,-27.2662"/>
</g>
<!-- Node28&#45;&gt;Node11 -->
<g id="edge60" class="edge"><title>Node28&#45;&gt;Node11</title>
<path fill="none" stroke="midnightblue" d="M1048.62,-481.263C1062,-459.162 1100.29,-400.55 1147.5,-369 1280.13,-280.371 1488.5,-416.521 1488.5,-257 1488.5,-257 1488.5,-257 1488.5,-132 1488.5,-81.3476 1434.92,-43.2775 1401.23,-24.3435"/>
<polygon fill="midnightblue" stroke="midnightblue" points="1402.77,-21.1998 1392.31,-19.516 1399.44,-27.3554 1402.77,-21.1998"/>
</g>
<!-- Node28&#45;&gt;Node29 -->
<g id="edge44" class="edge"><title>Node28&#45;&gt;Node29</title>
<path fill="none" stroke="midnightblue" d="M985.982,-481.444C918.382,-471.387 806.83,-454.793 738.866,-444.683"/>
<polygon fill="midnightblue" stroke="midnightblue" points="739.162,-441.188 728.756,-443.179 738.132,-448.112 739.162,-441.188"/>
</g>
<!-- Node29&#45;&gt;Node4 -->
<g id="edge45" class="edge"><title>Node29&#45;&gt;Node4</title>
<path fill="none" stroke="midnightblue" d="M661.8,-425.454C644.313,-417.126 617.774,-403.612 596.5,-389 542.776,-352.101 486.45,-299.24 459.593,-273.017"/>
<polygon fill="midnightblue" stroke="midnightblue" points="461.822,-270.3 452.239,-265.781 456.912,-275.29 461.822,-270.3"/>
</g>
<!-- Node29&#45;&gt;Node13 -->
<g id="edge50" class="edge"><title>Node29&#45;&gt;Node13</title>
<path fill="none" stroke="midnightblue" d="M728.561,-430.612C829.527,-423.438 1071.07,-405.975 1273.5,-389 1285.54,-387.991 1298.4,-386.852 1310.72,-385.733"/>
<polygon fill="midnightblue" stroke="midnightblue" points="1311.26,-389.198 1320.9,-384.801 1310.62,-382.227 1311.26,-389.198"/>
</g>
<!-- Node29&#45;&gt;Node15 -->
<g id="edge48" class="edge"><title>Node29&#45;&gt;Node15</title>
<path fill="none" stroke="midnightblue" d="M632.22,-428.631C561.618,-420.71 425.793,-405.205 300.376,-389.221"/>
<polygon fill="midnightblue" stroke="midnightblue" points="300.574,-385.718 290.211,-387.921 299.687,-392.661 300.574,-385.718"/>
</g>
<!-- Node29&#45;&gt;Node16 -->
<g id="edge47" class="edge"><title>Node29&#45;&gt;Node16</title>
<path fill="none" stroke="midnightblue" d="M632.219,-425.562C577.696,-416.034 488.968,-400.528 430.413,-390.296"/>
<polygon fill="midnightblue" stroke="midnightblue" points="430.66,-386.786 420.206,-388.512 429.454,-393.681 430.66,-386.786"/>
</g>
<!-- Node29&#45;&gt;Node24 -->
<g id="edge46" class="edge"><title>Node29&#45;&gt;Node24</title>
<path fill="none" stroke="midnightblue" d="M728.939,-429.065C824.866,-419.291 1039,-397.474 1146.43,-386.527"/>
<polygon fill="midnightblue" stroke="midnightblue" points="1146.9,-389.999 1156.49,-385.503 1146.19,-383.035 1146.9,-389.999"/>
</g>
<!-- Node29&#45;&gt;Node25 -->
<g id="edge49" class="edge"><title>Node29&#45;&gt;Node25</title>
<path fill="none" stroke="midnightblue" d="M699.356,-425.444C718.766,-416.636 749.23,-402.812 771.465,-392.722"/>
<polygon fill="midnightblue" stroke="midnightblue" points="773.072,-395.836 780.732,-388.516 770.18,-389.462 773.072,-395.836"/>
</g>
<!-- Node30 -->
<g id="node31" class="node"><title>Node30</title>
<g id="a_node31"><a xlink:href="spec_2packet_8h.html" target="_top" xlink:title="ODP packet descriptor. ">
<polygon fill="white" stroke="black" points="605.5,-369.5 605.5,-388.5 727.5,-388.5 727.5,-369.5 605.5,-369.5"/>
<text text-anchor="middle" x="666.5" y="-376.5" font-family="Helvetica,sans-Serif" font-size="10.00">odp/api/spec/packet.h</text>
</a>
</g>
</g>
<!-- Node29&#45;&gt;Node30 -->
<g id="edge51" class="edge"><title>Node29&#45;&gt;Node30</title>
<path fill="none" stroke="midnightblue" d="M678.188,-425.083C676.333,-417.927 673.665,-407.635 671.346,-398.691"/>
<polygon fill="midnightblue" stroke="midnightblue" points="674.666,-397.553 668.769,-388.751 667.891,-399.309 674.666,-397.553"/>
</g>
<!-- Node30&#45;&gt;Node3 -->
<g id="edge52" class="edge"><title>Node30&#45;&gt;Node3</title>
<path fill="none" stroke="midnightblue" d="M654.102,-369.353C641.6,-360.518 621.862,-346.253 605.5,-333 560.241,-296.341 558.944,-273.307 507.5,-246 450.372,-215.676 411.81,-256.153 366.5,-210 327.153,-169.921 343.988,-142.79 337.5,-87 335.908,-73.3145 328.588,-66.5074 337.5,-56 363.173,-25.7312 469.735,-15.7947 541.608,-12.5501"/>
<polygon fill="midnightblue" stroke="midnightblue" points="542.102,-16.0326 551.947,-12.1183 541.81,-9.0387 542.102,-16.0326"/>
</g>
<!-- Node30&#45;&gt;Node11 -->
<g id="edge59" class="edge"><title>Node30&#45;&gt;Node11</title>
<path fill="none" stroke="midnightblue" d="M727.565,-369.994C730.585,-369.647 733.576,-369.313 736.5,-369 1015.55,-339.115 1111.74,-397.824 1359.5,-266 1404.67,-241.969 1450.5,-246.662 1450.5,-195.5 1450.5,-195.5 1450.5,-195.5 1450.5,-132 1450.5,-88.4754 1414.8,-47.7746 1392.34,-26.4715"/>
<polygon fill="midnightblue" stroke="midnightblue" points="1394.49,-23.6984 1384.75,-19.5313 1389.77,-28.8634 1394.49,-23.6984"/>
</g>
<!-- Node30&#45;&gt;Node31 -->
<g id="edge53" class="edge"><title>Node30&#45;&gt;Node31</title>
<path fill="none" stroke="midnightblue" d="M665.211,-369.475C663.941,-361.08 661.959,-347.981 660.323,-337.163"/>
<polygon fill="midnightblue" stroke="midnightblue" points="663.743,-336.373 658.787,-327.009 656.822,-337.42 663.743,-336.373"/>
</g>
<!-- Node31&#45;&gt;Node4 -->
<g id="edge54" class="edge"><title>Node31&#45;&gt;Node4</title>
<path fill="none" stroke="midnightblue" d="M626.839,-307.975C589.256,-297.526 525.456,-279.787 483.902,-268.233"/>
<polygon fill="midnightblue" stroke="midnightblue" points="484.676,-264.816 474.104,-265.509 482.801,-271.56 484.676,-264.816"/>
</g>
<!-- Node32 -->
<g id="node33" class="node"><title>Node32</title>
<polygon fill="white" stroke="#bfbfbf" points="606,-246.5 606,-265.5 709,-265.5 709,-246.5 606,-246.5"/>
<text text-anchor="middle" x="657.5" y="-253.5" font-family="Helvetica,sans-Serif" font-size="10.00">odp/api/abi/time.h</text>
</g>
<!-- Node31&#45;&gt;Node32 -->
<g id="edge55" class="edge"><title>Node31&#45;&gt;Node32</title>
<path fill="none" stroke="midnightblue" d="M657.5,-307.975C657.5,-299.58 657.5,-286.481 657.5,-275.663"/>
<polygon fill="midnightblue" stroke="midnightblue" points="661,-275.509 657.5,-265.509 654,-275.509 661,-275.509"/>
</g>
<!-- Node33 -->
<g id="node34" class="node"><title>Node33</title>
<g id="a_node34"><a xlink:href="spec_2time_8h.html" target="_top" xlink:title="ODP time. ">
<polygon fill="white" stroke="black" points="684,-62 684,-81 795,-81 795,-62 684,-62"/>
<text text-anchor="middle" x="739.5" y="-69" font-family="Helvetica,sans-Serif" font-size="10.00">odp/api/spec/time.h</text>
</a>
</g>
</g>
<!-- Node31&#45;&gt;Node33 -->
<g id="edge56" class="edge"><title>Node31&#45;&gt;Node33</title>
<path fill="none" stroke="midnightblue" d="M673.219,-307.972C687.378,-299.376 707.463,-284.719 717.5,-266 748.352,-208.462 745.178,-127.63 741.756,-91.3828"/>
<polygon fill="midnightblue" stroke="midnightblue" points="745.218,-90.8402 740.679,-81.267 738.257,-91.5814 745.218,-90.8402"/>
</g>
<!-- Node33&#45;&gt;Node3 -->
<g id="edge57" class="edge"><title>Node33&#45;&gt;Node3</title>
<path fill="none" stroke="midnightblue" d="M720.874,-61.9751C699.057,-51.9897 662.696,-35.3476 637.483,-23.8075"/>
<polygon fill="midnightblue" stroke="midnightblue" points="638.641,-20.4884 628.091,-19.5091 635.728,-26.8534 638.641,-20.4884"/>
</g>
<!-- Node33&#45;&gt;Node11 -->
<g id="edge58" class="edge"><title>Node33&#45;&gt;Node11</title>
<path fill="none" stroke="midnightblue" d="M772.875,-61.9828C782.686,-59.7389 793.475,-57.5225 803.5,-56 986.176,-28.256 1204.49,-17.0795 1310.47,-13.0365"/>
<polygon fill="midnightblue" stroke="midnightblue" points="1310.81,-16.5262 1320.67,-12.656 1310.55,-9.53104 1310.81,-16.5262"/>
</g>
<!-- Node34&#45;&gt;Node3 -->
<g id="edge62" class="edge"><title>Node34&#45;&gt;Node3</title>
<path fill="none" stroke="midnightblue" d="M1067.23,-302.346C1053.14,-293.42 1036.14,-280.795 1024.5,-266 961.834,-186.321 1015.98,-117.634 935.5,-56 896.201,-25.9042 760.753,-15.9334 677.316,-12.6321"/>
<polygon fill="midnightblue" stroke="midnightblue" points="677.282,-9.12846 667.158,-12.2528 677.021,-16.1236 677.282,-9.12846"/>
</g>
<!-- Node34&#45;&gt;Node11 -->
<g id="edge73" class="edge"><title>Node34&#45;&gt;Node11</title>
<path fill="none" stroke="midnightblue" d="M1147.71,-310.578C1194.55,-304.061 1262.68,-291.002 1317.5,-266 1365.34,-244.182 1412.5,-248.078 1412.5,-195.5 1412.5,-195.5 1412.5,-195.5 1412.5,-132 1412.5,-93.8116 1395.06,-51.8296 1383.81,-28.7224"/>
<polygon fill="midnightblue" stroke="midnightblue" points="1386.79,-26.8646 1379.16,-19.5153 1380.54,-30.0195 1386.79,-26.8646"/>
</g>
<!-- Node34&#45;&gt;Node19 -->
<g id="edge72" class="edge"><title>Node34&#45;&gt;Node19</title>
<path fill="none" stroke="midnightblue" d="M1092.5,-302.399C1092.5,-294.466 1092.5,-284.458 1092.5,-275.858"/>
<polygon fill="midnightblue" stroke="midnightblue" points="1096,-275.658 1092.5,-265.658 1089,-275.658 1096,-275.658"/>
</g>
<!-- Node35 -->
<g id="node36" class="node"><title>Node35</title>
<g id="a_node36"><a xlink:href="schedule__types_8h.html" target="_top" xlink:title="ODP schedule. ">
<polygon fill="white" stroke="black" points="1170.5,-246.5 1170.5,-265.5 1308.5,-265.5 1308.5,-246.5 1170.5,-246.5"/>
<text text-anchor="middle" x="1239.5" y="-253.5" font-family="Helvetica,sans-Serif" font-size="10.00">odp/api/schedule_types.h</text>
</a>
</g>
</g>
<!-- Node34&#45;&gt;Node35 -->
<g id="edge63" class="edge"><title>Node34&#45;&gt;Node35</title>
<path fill="none" stroke="midnightblue" d="M1127.34,-302.399C1152,-292.416 1184.79,-279.147 1208.53,-269.534"/>
<polygon fill="midnightblue" stroke="midnightblue" points="1210.15,-272.654 1218.11,-265.658 1207.53,-266.165 1210.15,-272.654"/>
</g>
<!-- Node36 -->
<g id="node37" class="node"><title>Node36</title>
<polygon fill="white" stroke="#bfbfbf" points="1269,-179.5 1269,-209.5 1384,-209.5 1384,-179.5 1269,-179.5"/>
<text text-anchor="start" x="1277" y="-197.5" font-family="Helvetica,sans-Serif" font-size="10.00">odp/api/abi/schedule</text>
<text text-anchor="middle" x="1326.5" y="-186.5" font-family="Helvetica,sans-Serif" font-size="10.00">_types.h</text>
</g>
<!-- Node35&#45;&gt;Node36 -->
<g id="edge64" class="edge"><title>Node35&#45;&gt;Node36</title>
<path fill="none" stroke="midnightblue" d="M1251.96,-246.475C1263.86,-238.341 1282.21,-225.791 1297.73,-215.179"/>
<polygon fill="midnightblue" stroke="midnightblue" points="1299.72,-218.057 1306,-209.523 1295.77,-212.279 1299.72,-218.057"/>
</g>
<!-- Node37 -->
<g id="node38" class="node"><title>Node37</title>
<g id="a_node38"><a xlink:href="spec_2schedule__types_8h.html" target="_top" xlink:title="ODP schedule types. ">
<polygon fill="white" stroke="black" points="1128,-179.5 1128,-209.5 1251,-209.5 1251,-179.5 1128,-179.5"/>
<text text-anchor="start" x="1136" y="-197.5" font-family="Helvetica,sans-Serif" font-size="10.00">odp/api/spec/schedule</text>
<text text-anchor="middle" x="1189.5" y="-186.5" font-family="Helvetica,sans-Serif" font-size="10.00">_types.h</text>
</a>
</g>
</g>
<!-- Node35&#45;&gt;Node37 -->
<g id="edge65" class="edge"><title>Node35&#45;&gt;Node37</title>
<path fill="none" stroke="midnightblue" d="M1232.34,-246.475C1225.94,-238.869 1216.31,-227.399 1207.79,-217.265"/>
<polygon fill="midnightblue" stroke="midnightblue" points="1210.4,-214.927 1201.28,-209.523 1205.04,-219.43 1210.4,-214.927"/>
</g>
<!-- Node37&#45;&gt;Node3 -->
<g id="edge66" class="edge"><title>Node37&#45;&gt;Node3</title>
<path fill="none" stroke="midnightblue" d="M1164.32,-179.342C1129.46,-159.534 1064.75,-122.033 1011.5,-87 991.818,-74.0511 990.425,-64.622 968.5,-56 916.927,-35.7192 765.896,-22.0174 677.012,-15.4602"/>
<polygon fill="midnightblue" stroke="midnightblue" points="677.25,-11.9683 667.022,-14.734 676.742,-18.9499 677.25,-11.9683"/>
</g>
<!-- Node37&#45;&gt;Node11 -->
<g id="edge71" class="edge"><title>Node37&#45;&gt;Node11</title>
<path fill="none" stroke="midnightblue" d="M1231.12,-179.469C1270.67,-163.717 1328.06,-134.022 1355.5,-87 1365.87,-69.2293 1370.62,-45.9214 1372.77,-29.8263"/>
<polygon fill="midnightblue" stroke="midnightblue" points="1376.28,-29.8911 1373.92,-19.5637 1369.33,-29.112 1376.28,-29.8911"/>
</g>
<!-- Node38 -->
<g id="node39" class="node"><title>Node38</title>
<g id="a_node39"><a xlink:href="support_8h.html" target="_top" xlink:title="ODP support API &#45; platform specific header. ">
<polygon fill="white" stroke="black" points="1186,-123.5 1186,-142.5 1287,-142.5 1287,-123.5 1186,-123.5"/>
<text text-anchor="middle" x="1236.5" y="-130.5" font-family="Helvetica,sans-Serif" font-size="10.00">odp/api/support.h</text>
</a>
</g>
</g>
<!-- Node37&#45;&gt;Node38 -->
<g id="edge67" class="edge"><title>Node37&#45;&gt;Node38</title>
<path fill="none" stroke="midnightblue" d="M1200.64,-179.399C1207.47,-170.753 1216.24,-159.642 1223.41,-150.576"/>
<polygon fill="midnightblue" stroke="midnightblue" points="1226.21,-152.674 1229.66,-142.658 1220.72,-148.335 1226.21,-152.674"/>
</g>
<!-- Node39 -->
<g id="node40" class="node"><title>Node39</title>
<g id="a_node40"><a xlink:href="spec_2support_8h.html" target="_top" xlink:title="ODP support API. ">
<polygon fill="white" stroke="black" points="1220.5,-62 1220.5,-81 1346.5,-81 1346.5,-62 1220.5,-62"/>
<text text-anchor="middle" x="1283.5" y="-69" font-family="Helvetica,sans-Serif" font-size="10.00">odp/api/spec/support.h</text>
</a>
</g>
</g>
<!-- Node38&#45;&gt;Node39 -->
<g id="edge68" class="edge"><title>Node38&#45;&gt;Node39</title>
<path fill="none" stroke="midnightblue" d="M1243.23,-123.475C1250.28,-114.55 1261.53,-100.307 1270.35,-89.1425"/>
<polygon fill="midnightblue" stroke="midnightblue" points="1273.33,-91.0258 1276.78,-81.0091 1267.83,-86.6867 1273.33,-91.0258"/>
</g>
<!-- Node39&#45;&gt;Node3 -->
<g id="edge69" class="edge"><title>Node39&#45;&gt;Node3</title>
<path fill="none" stroke="midnightblue" d="M1223.05,-61.963C1206.97,-59.8473 1189.59,-57.7013 1173.5,-56 994.828,-37.1087 783.556,-22.2404 677.479,-15.2902"/>
<polygon fill="midnightblue" stroke="midnightblue" points="677.444,-11.7806 667.237,-14.6224 676.988,-18.7657 677.444,-11.7806"/>
</g>
<!-- Node39&#45;&gt;Node11 -->
<g id="edge70" class="edge"><title>Node39&#45;&gt;Node11</title>
<path fill="none" stroke="midnightblue" d="M1296.54,-61.9751C1311.27,-52.3431 1335.47,-36.5175 1353.01,-25.0517"/>
<polygon fill="midnightblue" stroke="midnightblue" points="1355.03,-27.911 1361.49,-19.5091 1351.2,-22.0522 1355.03,-27.911"/>
</g>
</g>
</svg>
